<?xml version="1.0" encoding="utf-8" standalone="no"?>
<!DOCTYPE svg PUBLIC "-//W3C//DTD SVG 1.1//EN"
  "http://www.w3.org/Graphics/SVG/1.1/DTD/svg11.dtd">
<svg xmlns:xlink="http://www.w3.org/1999/xlink" width="400.574062pt" height="207.302882pt" viewBox="0 0 400.574062 207.302882" xmlns="http://www.w3.org/2000/svg" version="1.1">
 <metadata>
  <rdf:RDF xmlns:dc="http://purl.org/dc/elements/1.1/" xmlns:cc="http://creativecommons.org/ns#" xmlns:rdf="http://www.w3.org/1999/02/22-rdf-syntax-ns#">
   <cc:Work>
    <dc:type rdf:resource="http://purl.org/dc/dcmitype/StillImage"/>
    <dc:date>2023-06-23T11:39:12.601284</dc:date>
    <dc:format>image/svg+xml</dc:format>
    <dc:creator>
     <cc:Agent>
      <dc:title>Matplotlib v3.7.1, https://matplotlib.org/</dc:title>
     </cc:Agent>
    </dc:creator>
   </cc:Work>
  </rdf:RDF>
 </metadata>
 <defs>
  <style type="text/css">*{stroke-linejoin: round; stroke-linecap: butt}</style>
 </defs>
 <g id="figure_1">
  <g id="patch_1">
   <path d="M 0 207.302882 
L 400.574062 207.302882 
L 400.574062 0 
L 0 0 
L 0 207.302882 
z
" style="fill: none"/>
  </g>
  <g id="axes_1">
   <g id="patch_2">
    <path d="M 34.51875 110.018105 
L 316.9475 110.018105 
L 316.9475 22.318125 
L 34.51875 22.318125 
L 34.51875 110.018105 
z
" style="fill: none"/>
   </g>
   <g id="patch_3">
    <path d="M 41.720683 103.264804 
L 55.559692 103.264804 
L 55.559692 101.624916 
L 41.720683 101.624916 
L 41.720683 103.264804 
z
" clip-path="url(#p4bdd390ed9)" style="fill: #3274a1; stroke: #3d3d3d; stroke-width: 1.5; stroke-linejoin: miter"/>
   </g>
   <g id="patch_4">
    <path d="M 55.842121 103.470059 
L 69.681129 103.470059 
L 69.681129 102.759095 
L 55.842121 102.759095 
L 55.842121 103.470059 
z
" clip-path="url(#p4bdd390ed9)" style="fill: #e1812c; stroke: #3d3d3d; stroke-width: 1.5; stroke-linejoin: miter"/>
   </g>
   <g id="patch_5">
    <path d="M 69.963558 103.78191 
L 83.802567 103.78191 
L 83.802567 102.470787 
L 69.963558 102.470787 
L 69.963558 103.78191 
z
" clip-path="url(#p4bdd390ed9)" style="fill: #3a923a; stroke: #3d3d3d; stroke-width: 1.5; stroke-linejoin: miter"/>
   </g>
   <g id="patch_6">
    <path d="M 84.084996 105.272499 
L 97.924004 105.272499 
L 97.924004 104.298352 
L 84.084996 104.298352 
L 84.084996 105.272499 
z
" clip-path="url(#p4bdd390ed9)" style="fill: #c03d3e; stroke: #3d3d3d; stroke-width: 1.5; stroke-linejoin: miter"/>
   </g>
   <g id="patch_7">
    <path d="M 112.327871 58.953061 
L 126.166879 58.953061 
L 126.166879 45.689895 
L 112.327871 45.689895 
L 112.327871 58.953061 
z
" clip-path="url(#p4bdd390ed9)" style="fill: #3274a1; stroke: #3d3d3d; stroke-width: 1.5; stroke-linejoin: miter"/>
   </g>
   <g id="patch_8">
    <path d="M 126.449308 60.43857 
L 140.288317 60.43857 
L 140.288317 54.817217 
L 126.449308 54.817217 
L 126.449308 60.43857 
z
" clip-path="url(#p4bdd390ed9)" style="fill: #e1812c; stroke: #3d3d3d; stroke-width: 1.5; stroke-linejoin: miter"/>
   </g>
   <g id="patch_9">
    <path d="M 140.570746 66.51474 
L 154.409754 66.51474 
L 154.409754 45.959884 
L 140.570746 45.959884 
L 140.570746 66.51474 
z
" clip-path="url(#p4bdd390ed9)" style="fill: #3a923a; stroke: #3d3d3d; stroke-width: 1.5; stroke-linejoin: miter"/>
   </g>
   <g id="patch_10">
    <path d="M 154.692183 78.370667 
L 168.531192 78.370667 
L 168.531192 67.063266 
L 154.692183 67.063266 
L 154.692183 78.370667 
z
" clip-path="url(#p4bdd390ed9)" style="fill: #c03d3e; stroke: #3d3d3d; stroke-width: 1.5; stroke-linejoin: miter"/>
   </g>
   <g id="patch_11">
    <path d="M 182.935058 101.575514 
L 196.774067 101.575514 
L 196.774067 96.785992 
L 182.935058 96.785992 
L 182.935058 101.575514 
z
" clip-path="url(#p4bdd390ed9)" style="fill: #3274a1; stroke: #3d3d3d; stroke-width: 1.5; stroke-linejoin: miter"/>
   </g>
   <g id="patch_12">
    <path d="M 197.056496 102.889036 
L 210.895504 102.889036 
L 210.895504 102.657411 
L 197.056496 102.657411 
L 197.056496 102.889036 
z
" clip-path="url(#p4bdd390ed9)" style="fill: #e1812c; stroke: #3d3d3d; stroke-width: 1.5; stroke-linejoin: miter"/>
   </g>
   <g id="patch_13">
    <path d="M 211.177933 103.633223 
L 225.016942 103.633223 
L 225.016942 103.57942 
L 211.177933 103.57942 
L 211.177933 103.633223 
z
" clip-path="url(#p4bdd390ed9)" style="fill: #3a923a; stroke: #3d3d3d; stroke-width: 1.5; stroke-linejoin: miter"/>
   </g>
   <g id="patch_14">
    <path d="M 225.299371 105.231943 
L 239.138379 105.231943 
L 239.138379 104.106084 
L 225.299371 104.106084 
L 225.299371 105.231943 
z
" clip-path="url(#p4bdd390ed9)" style="fill: #c03d3e; stroke: #3d3d3d; stroke-width: 1.5; stroke-linejoin: miter"/>
   </g>
   <g id="patch_15">
    <path d="M 253.542246 46.827679 
L 267.381254 46.827679 
L 267.381254 28.952104 
L 253.542246 28.952104 
L 253.542246 46.827679 
z
" clip-path="url(#p4bdd390ed9)" style="fill: #3274a1; stroke: #3d3d3d; stroke-width: 1.5; stroke-linejoin: miter"/>
   </g>
   <g id="patch_16">
    <path d="M 267.663683 64.414313 
L 281.502692 64.414313 
L 281.502692 39.796483 
L 267.663683 39.796483 
L 267.663683 64.414313 
z
" clip-path="url(#p4bdd390ed9)" style="fill: #e1812c; stroke: #3d3d3d; stroke-width: 1.5; stroke-linejoin: miter"/>
   </g>
   <g id="patch_17">
    <path d="M 281.785121 64.465083 
L 295.624129 64.465083 
L 295.624129 42.520055 
L 281.785121 42.520055 
L 281.785121 64.465083 
z
" clip-path="url(#p4bdd390ed9)" style="fill: #3a923a; stroke: #3d3d3d; stroke-width: 1.5; stroke-linejoin: miter"/>
   </g>
   <g id="patch_18">
    <path d="M 295.906558 84.826738 
L 309.745567 84.826738 
L 309.745567 65.607519 
L 295.906558 65.607519 
L 295.906558 84.826738 
z
" clip-path="url(#p4bdd390ed9)" style="fill: #c03d3e; stroke: #3d3d3d; stroke-width: 1.5; stroke-linejoin: miter"/>
   </g>
   <g id="patch_19">
    <path d="M 69.822344 147.415957 
L 69.822344 147.415957 
L 69.822344 147.415957 
L 69.822344 147.415957 
z
" clip-path="url(#p4bdd390ed9)" style="fill: #3274a1; stroke: #3d3d3d; stroke-width: 0.75; stroke-linejoin: miter"/>
   </g>
   <g id="patch_20">
    <path d="M 69.822344 147.415957 
L 69.822344 147.415957 
L 69.822344 147.415957 
L 69.822344 147.415957 
z
" clip-path="url(#p4bdd390ed9)" style="fill: #e1812c; stroke: #3d3d3d; stroke-width: 0.75; stroke-linejoin: miter"/>
   </g>
   <g id="patch_21">
    <path d="M 69.822344 147.415957 
L 69.822344 147.415957 
L 69.822344 147.415957 
L 69.822344 147.415957 
z
" clip-path="url(#p4bdd390ed9)" style="fill: #3a923a; stroke: #3d3d3d; stroke-width: 0.75; stroke-linejoin: miter"/>
   </g>
   <g id="patch_22">
    <path d="M 69.822344 147.415957 
L 69.822344 147.415957 
L 69.822344 147.415957 
L 69.822344 147.415957 
z
" clip-path="url(#p4bdd390ed9)" style="fill: #c03d3e; stroke: #3d3d3d; stroke-width: 0.75; stroke-linejoin: miter"/>
   </g>
   <g id="matplotlib.axis_1">
    <g id="xtick_1">
     <g id="line2d_1">
      <defs>
       <path id="m039eb56027" d="M 0 0 
L 0 3.5 
" style="stroke: #000000; stroke-width: 0.8"/>
      </defs>
      <g>
       <use xlink:href="#m039eb56027" x="69.822344" y="110.018105" style="stroke: #000000; stroke-width: 0.8"/>
      </g>
     </g>
     <g id="text_1">
      <!-- proba_weak -->
      <g transform="translate(25.672364 164.873766) rotate(-45) scale(0.1 -0.1)">
       <defs>
        <path id="DejaVuSans-70" d="M 1159 525 
L 1159 -1331 
L 581 -1331 
L 581 3500 
L 1159 3500 
L 1159 2969 
Q 1341 3281 1617 3432 
Q 1894 3584 2278 3584 
Q 2916 3584 3314 3078 
Q 3713 2572 3713 1747 
Q 3713 922 3314 415 
Q 2916 -91 2278 -91 
Q 1894 -91 1617 61 
Q 1341 213 1159 525 
z
M 3116 1747 
Q 3116 2381 2855 2742 
Q 2594 3103 2138 3103 
Q 1681 3103 1420 2742 
Q 1159 2381 1159 1747 
Q 1159 1113 1420 752 
Q 1681 391 2138 391 
Q 2594 391 2855 752 
Q 3116 1113 3116 1747 
z
" transform="scale(0.015625)"/>
        <path id="DejaVuSans-72" d="M 2631 2963 
Q 2534 3019 2420 3045 
Q 2306 3072 2169 3072 
Q 1681 3072 1420 2755 
Q 1159 2438 1159 1844 
L 1159 0 
L 581 0 
L 581 3500 
L 1159 3500 
L 1159 2956 
Q 1341 3275 1631 3429 
Q 1922 3584 2338 3584 
Q 2397 3584 2469 3576 
Q 2541 3569 2628 3553 
L 2631 2963 
z
" transform="scale(0.015625)"/>
        <path id="DejaVuSans-6f" d="M 1959 3097 
Q 1497 3097 1228 2736 
Q 959 2375 959 1747 
Q 959 1119 1226 758 
Q 1494 397 1959 397 
Q 2419 397 2687 759 
Q 2956 1122 2956 1747 
Q 2956 2369 2687 2733 
Q 2419 3097 1959 3097 
z
M 1959 3584 
Q 2709 3584 3137 3096 
Q 3566 2609 3566 1747 
Q 3566 888 3137 398 
Q 2709 -91 1959 -91 
Q 1206 -91 779 398 
Q 353 888 353 1747 
Q 353 2609 779 3096 
Q 1206 3584 1959 3584 
z
" transform="scale(0.015625)"/>
        <path id="DejaVuSans-62" d="M 3116 1747 
Q 3116 2381 2855 2742 
Q 2594 3103 2138 3103 
Q 1681 3103 1420 2742 
Q 1159 2381 1159 1747 
Q 1159 1113 1420 752 
Q 1681 391 2138 391 
Q 2594 391 2855 752 
Q 3116 1113 3116 1747 
z
M 1159 2969 
Q 1341 3281 1617 3432 
Q 1894 3584 2278 3584 
Q 2916 3584 3314 3078 
Q 3713 2572 3713 1747 
Q 3713 922 3314 415 
Q 2916 -91 2278 -91 
Q 1894 -91 1617 61 
Q 1341 213 1159 525 
L 1159 0 
L 581 0 
L 581 4863 
L 1159 4863 
L 1159 2969 
z
" transform="scale(0.015625)"/>
        <path id="DejaVuSans-61" d="M 2194 1759 
Q 1497 1759 1228 1600 
Q 959 1441 959 1056 
Q 959 750 1161 570 
Q 1363 391 1709 391 
Q 2188 391 2477 730 
Q 2766 1069 2766 1631 
L 2766 1759 
L 2194 1759 
z
M 3341 1997 
L 3341 0 
L 2766 0 
L 2766 531 
Q 2569 213 2275 61 
Q 1981 -91 1556 -91 
Q 1019 -91 701 211 
Q 384 513 384 1019 
Q 384 1609 779 1909 
Q 1175 2209 1959 2209 
L 2766 2209 
L 2766 2266 
Q 2766 2663 2505 2880 
Q 2244 3097 1772 3097 
Q 1472 3097 1187 3025 
Q 903 2953 641 2809 
L 641 3341 
Q 956 3463 1253 3523 
Q 1550 3584 1831 3584 
Q 2591 3584 2966 3190 
Q 3341 2797 3341 1997 
z
" transform="scale(0.015625)"/>
        <path id="DejaVuSans-5f" d="M 3263 -1063 
L 3263 -1509 
L -63 -1509 
L -63 -1063 
L 3263 -1063 
z
" transform="scale(0.015625)"/>
        <path id="DejaVuSans-77" d="M 269 3500 
L 844 3500 
L 1563 769 
L 2278 3500 
L 2956 3500 
L 3675 769 
L 4391 3500 
L 4966 3500 
L 4050 0 
L 3372 0 
L 2619 2869 
L 1863 0 
L 1184 0 
L 269 3500 
z
" transform="scale(0.015625)"/>
        <path id="DejaVuSans-65" d="M 3597 1894 
L 3597 1613 
L 953 1613 
Q 991 1019 1311 708 
Q 1631 397 2203 397 
Q 2534 397 2845 478 
Q 3156 559 3463 722 
L 3463 178 
Q 3153 47 2828 -22 
Q 2503 -91 2169 -91 
Q 1331 -91 842 396 
Q 353 884 353 1716 
Q 353 2575 817 3079 
Q 1281 3584 2069 3584 
Q 2775 3584 3186 3129 
Q 3597 2675 3597 1894 
z
M 3022 2063 
Q 3016 2534 2758 2815 
Q 2500 3097 2075 3097 
Q 1594 3097 1305 2825 
Q 1016 2553 972 2059 
L 3022 2063 
z
" transform="scale(0.015625)"/>
        <path id="DejaVuSans-6b" d="M 581 4863 
L 1159 4863 
L 1159 1991 
L 2875 3500 
L 3609 3500 
L 1753 1863 
L 3688 0 
L 2938 0 
L 1159 1709 
L 1159 0 
L 581 0 
L 581 4863 
z
" transform="scale(0.015625)"/>
       </defs>
       <use xlink:href="#DejaVuSans-70"/>
       <use xlink:href="#DejaVuSans-72" x="63.476562"/>
       <use xlink:href="#DejaVuSans-6f" x="102.339844"/>
       <use xlink:href="#DejaVuSans-62" x="163.521484"/>
       <use xlink:href="#DejaVuSans-61" x="226.998047"/>
       <use xlink:href="#DejaVuSans-5f" x="288.277344"/>
       <use xlink:href="#DejaVuSans-77" x="338.277344"/>
       <use xlink:href="#DejaVuSans-65" x="420.064453"/>
       <use xlink:href="#DejaVuSans-61" x="481.587891"/>
       <use xlink:href="#DejaVuSans-6b" x="542.867188"/>
      </g>
     </g>
    </g>
    <g id="xtick_2">
     <g id="line2d_2">
      <g>
       <use xlink:href="#m039eb56027" x="140.429531" y="110.018105" style="stroke: #000000; stroke-width: 0.8"/>
      </g>
     </g>
     <g id="text_2">
      <!-- embedding_weak -->
      <g transform="translate(76.673911 184.479407) rotate(-45) scale(0.1 -0.1)">
       <defs>
        <path id="DejaVuSans-6d" d="M 3328 2828 
Q 3544 3216 3844 3400 
Q 4144 3584 4550 3584 
Q 5097 3584 5394 3201 
Q 5691 2819 5691 2113 
L 5691 0 
L 5113 0 
L 5113 2094 
Q 5113 2597 4934 2840 
Q 4756 3084 4391 3084 
Q 3944 3084 3684 2787 
Q 3425 2491 3425 1978 
L 3425 0 
L 2847 0 
L 2847 2094 
Q 2847 2600 2669 2842 
Q 2491 3084 2119 3084 
Q 1678 3084 1418 2786 
Q 1159 2488 1159 1978 
L 1159 0 
L 581 0 
L 581 3500 
L 1159 3500 
L 1159 2956 
Q 1356 3278 1631 3431 
Q 1906 3584 2284 3584 
Q 2666 3584 2933 3390 
Q 3200 3197 3328 2828 
z
" transform="scale(0.015625)"/>
        <path id="DejaVuSans-64" d="M 2906 2969 
L 2906 4863 
L 3481 4863 
L 3481 0 
L 2906 0 
L 2906 525 
Q 2725 213 2448 61 
Q 2172 -91 1784 -91 
Q 1150 -91 751 415 
Q 353 922 353 1747 
Q 353 2572 751 3078 
Q 1150 3584 1784 3584 
Q 2172 3584 2448 3432 
Q 2725 3281 2906 2969 
z
M 947 1747 
Q 947 1113 1208 752 
Q 1469 391 1925 391 
Q 2381 391 2643 752 
Q 2906 1113 2906 1747 
Q 2906 2381 2643 2742 
Q 2381 3103 1925 3103 
Q 1469 3103 1208 2742 
Q 947 2381 947 1747 
z
" transform="scale(0.015625)"/>
        <path id="DejaVuSans-69" d="M 603 3500 
L 1178 3500 
L 1178 0 
L 603 0 
L 603 3500 
z
M 603 4863 
L 1178 4863 
L 1178 4134 
L 603 4134 
L 603 4863 
z
" transform="scale(0.015625)"/>
        <path id="DejaVuSans-6e" d="M 3513 2113 
L 3513 0 
L 2938 0 
L 2938 2094 
Q 2938 2591 2744 2837 
Q 2550 3084 2163 3084 
Q 1697 3084 1428 2787 
Q 1159 2491 1159 1978 
L 1159 0 
L 581 0 
L 581 3500 
L 1159 3500 
L 1159 2956 
Q 1366 3272 1645 3428 
Q 1925 3584 2291 3584 
Q 2894 3584 3203 3211 
Q 3513 2838 3513 2113 
z
" transform="scale(0.015625)"/>
        <path id="DejaVuSans-67" d="M 2906 1791 
Q 2906 2416 2648 2759 
Q 2391 3103 1925 3103 
Q 1463 3103 1205 2759 
Q 947 2416 947 1791 
Q 947 1169 1205 825 
Q 1463 481 1925 481 
Q 2391 481 2648 825 
Q 2906 1169 2906 1791 
z
M 3481 434 
Q 3481 -459 3084 -895 
Q 2688 -1331 1869 -1331 
Q 1566 -1331 1297 -1286 
Q 1028 -1241 775 -1147 
L 775 -588 
Q 1028 -725 1275 -790 
Q 1522 -856 1778 -856 
Q 2344 -856 2625 -561 
Q 2906 -266 2906 331 
L 2906 616 
Q 2728 306 2450 153 
Q 2172 0 1784 0 
Q 1141 0 747 490 
Q 353 981 353 1791 
Q 353 2603 747 3093 
Q 1141 3584 1784 3584 
Q 2172 3584 2450 3431 
Q 2728 3278 2906 2969 
L 2906 3500 
L 3481 3500 
L 3481 434 
z
" transform="scale(0.015625)"/>
       </defs>
       <use xlink:href="#DejaVuSans-65"/>
       <use xlink:href="#DejaVuSans-6d" x="61.523438"/>
       <use xlink:href="#DejaVuSans-62" x="158.935547"/>
       <use xlink:href="#DejaVuSans-65" x="222.412109"/>
       <use xlink:href="#DejaVuSans-64" x="283.935547"/>
       <use xlink:href="#DejaVuSans-64" x="347.412109"/>
       <use xlink:href="#DejaVuSans-69" x="410.888672"/>
       <use xlink:href="#DejaVuSans-6e" x="438.671875"/>
       <use xlink:href="#DejaVuSans-67" x="502.050781"/>
       <use xlink:href="#DejaVuSans-5f" x="565.527344"/>
       <use xlink:href="#DejaVuSans-77" x="615.527344"/>
       <use xlink:href="#DejaVuSans-65" x="697.314453"/>
       <use xlink:href="#DejaVuSans-61" x="758.837891"/>
       <use xlink:href="#DejaVuSans-6b" x="820.117188"/>
      </g>
     </g>
    </g>
    <g id="xtick_3">
     <g id="line2d_3">
      <g>
       <use xlink:href="#m039eb56027" x="211.036719" y="110.018105" style="stroke: #000000; stroke-width: 0.8"/>
      </g>
     </g>
     <g id="text_3">
      <!-- proba -->
      <g transform="translate(189.18049 142.776679) rotate(-45) scale(0.1 -0.1)">
       <use xlink:href="#DejaVuSans-70"/>
       <use xlink:href="#DejaVuSans-72" x="63.476562"/>
       <use xlink:href="#DejaVuSans-6f" x="102.339844"/>
       <use xlink:href="#DejaVuSans-62" x="163.521484"/>
       <use xlink:href="#DejaVuSans-61" x="226.998047"/>
      </g>
     </g>
    </g>
    <g id="xtick_4">
     <g id="line2d_4">
      <g>
       <use xlink:href="#m039eb56027" x="281.643906" y="110.018105" style="stroke: #000000; stroke-width: 0.8"/>
      </g>
     </g>
     <g id="text_4">
      <!-- embedding -->
      <g transform="translate(240.182037 162.38232) rotate(-45) scale(0.1 -0.1)">
       <use xlink:href="#DejaVuSans-65"/>
       <use xlink:href="#DejaVuSans-6d" x="61.523438"/>
       <use xlink:href="#DejaVuSans-62" x="158.935547"/>
       <use xlink:href="#DejaVuSans-65" x="222.412109"/>
       <use xlink:href="#DejaVuSans-64" x="283.935547"/>
       <use xlink:href="#DejaVuSans-64" x="347.412109"/>
       <use xlink:href="#DejaVuSans-69" x="410.888672"/>
       <use xlink:href="#DejaVuSans-6e" x="438.671875"/>
       <use xlink:href="#DejaVuSans-67" x="502.050781"/>
      </g>
     </g>
    </g>
    <g id="text_5">
     <!-- estimator_name -->
     <g transform="translate(135.013594 197.745069) scale(0.1 -0.1)">
      <defs>
       <path id="DejaVuSans-73" d="M 2834 3397 
L 2834 2853 
Q 2591 2978 2328 3040 
Q 2066 3103 1784 3103 
Q 1356 3103 1142 2972 
Q 928 2841 928 2578 
Q 928 2378 1081 2264 
Q 1234 2150 1697 2047 
L 1894 2003 
Q 2506 1872 2764 1633 
Q 3022 1394 3022 966 
Q 3022 478 2636 193 
Q 2250 -91 1575 -91 
Q 1294 -91 989 -36 
Q 684 19 347 128 
L 347 722 
Q 666 556 975 473 
Q 1284 391 1588 391 
Q 1994 391 2212 530 
Q 2431 669 2431 922 
Q 2431 1156 2273 1281 
Q 2116 1406 1581 1522 
L 1381 1569 
Q 847 1681 609 1914 
Q 372 2147 372 2553 
Q 372 3047 722 3315 
Q 1072 3584 1716 3584 
Q 2034 3584 2315 3537 
Q 2597 3491 2834 3397 
z
" transform="scale(0.015625)"/>
       <path id="DejaVuSans-74" d="M 1172 4494 
L 1172 3500 
L 2356 3500 
L 2356 3053 
L 1172 3053 
L 1172 1153 
Q 1172 725 1289 603 
Q 1406 481 1766 481 
L 2356 481 
L 2356 0 
L 1766 0 
Q 1100 0 847 248 
Q 594 497 594 1153 
L 594 3053 
L 172 3053 
L 172 3500 
L 594 3500 
L 594 4494 
L 1172 4494 
z
" transform="scale(0.015625)"/>
      </defs>
      <use xlink:href="#DejaVuSans-65"/>
      <use xlink:href="#DejaVuSans-73" x="61.523438"/>
      <use xlink:href="#DejaVuSans-74" x="113.623047"/>
      <use xlink:href="#DejaVuSans-69" x="152.832031"/>
      <use xlink:href="#DejaVuSans-6d" x="180.615234"/>
      <use xlink:href="#DejaVuSans-61" x="278.027344"/>
      <use xlink:href="#DejaVuSans-74" x="339.306641"/>
      <use xlink:href="#DejaVuSans-6f" x="378.515625"/>
      <use xlink:href="#DejaVuSans-72" x="439.697266"/>
      <use xlink:href="#DejaVuSans-5f" x="480.810547"/>
      <use xlink:href="#DejaVuSans-6e" x="530.810547"/>
      <use xlink:href="#DejaVuSans-61" x="594.189453"/>
      <use xlink:href="#DejaVuSans-6d" x="655.46875"/>
      <use xlink:href="#DejaVuSans-65" x="752.880859"/>
     </g>
    </g>
   </g>
   <g id="matplotlib.axis_2">
    <g id="ytick_1">
     <g id="line2d_5">
      <defs>
       <path id="m2ba0051444" d="M 0 0 
L -3.5 0 
" style="stroke: #000000; stroke-width: 0.8"/>
      </defs>
      <g>
       <use xlink:href="#m2ba0051444" x="34.51875" y="83.334468" style="stroke: #000000; stroke-width: 0.8"/>
      </g>
     </g>
     <g id="text_6">
      <!-- 2 -->
      <g transform="translate(21.15625 87.133687) scale(0.1 -0.1)">
       <defs>
        <path id="DejaVuSans-32" d="M 1228 531 
L 3431 531 
L 3431 0 
L 469 0 
L 469 531 
Q 828 903 1448 1529 
Q 2069 2156 2228 2338 
Q 2531 2678 2651 2914 
Q 2772 3150 2772 3378 
Q 2772 3750 2511 3984 
Q 2250 4219 1831 4219 
Q 1534 4219 1204 4116 
Q 875 4013 500 3803 
L 500 4441 
Q 881 4594 1212 4672 
Q 1544 4750 1819 4750 
Q 2544 4750 2975 4387 
Q 3406 4025 3406 3419 
Q 3406 3131 3298 2873 
Q 3191 2616 2906 2266 
Q 2828 2175 2409 1742 
Q 1991 1309 1228 531 
z
" transform="scale(0.015625)"/>
       </defs>
       <use xlink:href="#DejaVuSans-32"/>
      </g>
     </g>
    </g>
    <g id="ytick_2">
     <g id="line2d_6">
      <g>
       <use xlink:href="#m2ba0051444" x="34.51875" y="51.293724" style="stroke: #000000; stroke-width: 0.8"/>
      </g>
     </g>
     <g id="text_7">
      <!-- 3 -->
      <g transform="translate(21.15625 55.092942) scale(0.1 -0.1)">
       <defs>
        <path id="DejaVuSans-33" d="M 2597 2516 
Q 3050 2419 3304 2112 
Q 3559 1806 3559 1356 
Q 3559 666 3084 287 
Q 2609 -91 1734 -91 
Q 1441 -91 1130 -33 
Q 819 25 488 141 
L 488 750 
Q 750 597 1062 519 
Q 1375 441 1716 441 
Q 2309 441 2620 675 
Q 2931 909 2931 1356 
Q 2931 1769 2642 2001 
Q 2353 2234 1838 2234 
L 1294 2234 
L 1294 2753 
L 1863 2753 
Q 2328 2753 2575 2939 
Q 2822 3125 2822 3475 
Q 2822 3834 2567 4026 
Q 2313 4219 1838 4219 
Q 1578 4219 1281 4162 
Q 984 4106 628 3988 
L 628 4550 
Q 988 4650 1302 4700 
Q 1616 4750 1894 4750 
Q 2613 4750 3031 4423 
Q 3450 4097 3450 3541 
Q 3450 3153 3228 2886 
Q 3006 2619 2597 2516 
z
" transform="scale(0.015625)"/>
       </defs>
       <use xlink:href="#DejaVuSans-33"/>
      </g>
     </g>
    </g>
    <g id="text_8">
     <!-- score_time -->
     <g transform="translate(14.798438 93.397021) rotate(-90) scale(0.1 -0.1)">
      <defs>
       <path id="DejaVuSans-63" d="M 3122 3366 
L 3122 2828 
Q 2878 2963 2633 3030 
Q 2388 3097 2138 3097 
Q 1578 3097 1268 2742 
Q 959 2388 959 1747 
Q 959 1106 1268 751 
Q 1578 397 2138 397 
Q 2388 397 2633 464 
Q 2878 531 3122 666 
L 3122 134 
Q 2881 22 2623 -34 
Q 2366 -91 2075 -91 
Q 1284 -91 818 406 
Q 353 903 353 1747 
Q 353 2603 823 3093 
Q 1294 3584 2113 3584 
Q 2378 3584 2631 3529 
Q 2884 3475 3122 3366 
z
" transform="scale(0.015625)"/>
      </defs>
      <use xlink:href="#DejaVuSans-73"/>
      <use xlink:href="#DejaVuSans-63" x="52.099609"/>
      <use xlink:href="#DejaVuSans-6f" x="107.080078"/>
      <use xlink:href="#DejaVuSans-72" x="168.261719"/>
      <use xlink:href="#DejaVuSans-65" x="207.125"/>
      <use xlink:href="#DejaVuSans-5f" x="268.648438"/>
      <use xlink:href="#DejaVuSans-74" x="318.648438"/>
      <use xlink:href="#DejaVuSans-69" x="357.857422"/>
      <use xlink:href="#DejaVuSans-6d" x="385.640625"/>
      <use xlink:href="#DejaVuSans-65" x="483.052734"/>
     </g>
    </g>
   </g>
   <g id="line2d_7">
    <path d="M 48.640188 103.264804 
L 48.640188 103.295482 
" clip-path="url(#p4bdd390ed9)" style="fill: none; stroke: #3d3d3d; stroke-width: 1.5; stroke-linecap: square"/>
   </g>
   <g id="line2d_8">
    <path d="M 48.640188 101.624916 
L 48.640188 101.225337 
" clip-path="url(#p4bdd390ed9)" style="fill: none; stroke: #3d3d3d; stroke-width: 1.5; stroke-linecap: square"/>
   </g>
   <g id="line2d_9">
    <path d="M 45.180435 103.295482 
L 52.09994 103.295482 
" clip-path="url(#p4bdd390ed9)" style="fill: none; stroke: #3d3d3d; stroke-width: 1.5; stroke-linecap: square"/>
   </g>
   <g id="line2d_10">
    <path d="M 45.180435 101.225337 
L 52.09994 101.225337 
" clip-path="url(#p4bdd390ed9)" style="fill: none; stroke: #3d3d3d; stroke-width: 1.5; stroke-linecap: square"/>
   </g>
   <g id="line2d_11"/>
   <g id="line2d_12">
    <path d="M 62.761625 103.470059 
L 62.761625 103.858859 
" clip-path="url(#p4bdd390ed9)" style="fill: none; stroke: #3d3d3d; stroke-width: 1.5; stroke-linecap: square"/>
   </g>
   <g id="line2d_13">
    <path d="M 62.761625 102.759095 
L 62.761625 102.759095 
" clip-path="url(#p4bdd390ed9)" style="fill: none; stroke: #3d3d3d; stroke-width: 1.5; stroke-linecap: square"/>
   </g>
   <g id="line2d_14">
    <path d="M 59.301873 103.858859 
L 66.221377 103.858859 
" clip-path="url(#p4bdd390ed9)" style="fill: none; stroke: #3d3d3d; stroke-width: 1.5; stroke-linecap: square"/>
   </g>
   <g id="line2d_15">
    <path d="M 59.301873 102.759095 
L 66.221377 102.759095 
" clip-path="url(#p4bdd390ed9)" style="fill: none; stroke: #3d3d3d; stroke-width: 1.5; stroke-linecap: square"/>
   </g>
   <g id="line2d_16">
    <defs>
     <path id="m1708628f0c" d="M -0 3.535534 
L 2.12132 0 
L -0 -3.535534 
L -2.12132 -0 
z
" style="stroke: #3d3d3d; stroke-linejoin: miter"/>
    </defs>
    <g clip-path="url(#p4bdd390ed9)">
     <use xlink:href="#m1708628f0c" x="62.761625" y="101.570335" style="fill: #3d3d3d; stroke: #3d3d3d; stroke-linejoin: miter"/>
    </g>
   </g>
   <g id="line2d_17">
    <path d="M 76.883063 103.78191 
L 76.883063 104.108582 
" clip-path="url(#p4bdd390ed9)" style="fill: none; stroke: #3d3d3d; stroke-width: 1.5; stroke-linecap: square"/>
   </g>
   <g id="line2d_18">
    <path d="M 76.883063 102.470787 
L 76.883063 102.430033 
" clip-path="url(#p4bdd390ed9)" style="fill: none; stroke: #3d3d3d; stroke-width: 1.5; stroke-linecap: square"/>
   </g>
   <g id="line2d_19">
    <path d="M 73.42331 104.108582 
L 80.342815 104.108582 
" clip-path="url(#p4bdd390ed9)" style="fill: none; stroke: #3d3d3d; stroke-width: 1.5; stroke-linecap: square"/>
   </g>
   <g id="line2d_20">
    <path d="M 73.42331 102.430033 
L 80.342815 102.430033 
" clip-path="url(#p4bdd390ed9)" style="fill: none; stroke: #3d3d3d; stroke-width: 1.5; stroke-linecap: square"/>
   </g>
   <g id="line2d_21"/>
   <g id="line2d_22">
    <path d="M 91.0045 105.272499 
L 91.0045 105.501947 
" clip-path="url(#p4bdd390ed9)" style="fill: none; stroke: #3d3d3d; stroke-width: 1.5; stroke-linecap: square"/>
   </g>
   <g id="line2d_23">
    <path d="M 91.0045 104.298352 
L 91.0045 103.488614 
" clip-path="url(#p4bdd390ed9)" style="fill: none; stroke: #3d3d3d; stroke-width: 1.5; stroke-linecap: square"/>
   </g>
   <g id="line2d_24">
    <path d="M 87.544748 105.501947 
L 94.464252 105.501947 
" clip-path="url(#p4bdd390ed9)" style="fill: none; stroke: #3d3d3d; stroke-width: 1.5; stroke-linecap: square"/>
   </g>
   <g id="line2d_25">
    <path d="M 87.544748 103.488614 
L 94.464252 103.488614 
" clip-path="url(#p4bdd390ed9)" style="fill: none; stroke: #3d3d3d; stroke-width: 1.5; stroke-linecap: square"/>
   </g>
   <g id="line2d_26"/>
   <g id="line2d_27">
    <path d="M 119.247375 58.953061 
L 119.247375 65.13682 
" clip-path="url(#p4bdd390ed9)" style="fill: none; stroke: #3d3d3d; stroke-width: 1.5; stroke-linecap: square"/>
   </g>
   <g id="line2d_28">
    <path d="M 119.247375 45.689895 
L 119.247375 34.175902 
" clip-path="url(#p4bdd390ed9)" style="fill: none; stroke: #3d3d3d; stroke-width: 1.5; stroke-linecap: square"/>
   </g>
   <g id="line2d_29">
    <path d="M 115.787623 65.13682 
L 122.707127 65.13682 
" clip-path="url(#p4bdd390ed9)" style="fill: none; stroke: #3d3d3d; stroke-width: 1.5; stroke-linecap: square"/>
   </g>
   <g id="line2d_30">
    <path d="M 115.787623 34.175902 
L 122.707127 34.175902 
" clip-path="url(#p4bdd390ed9)" style="fill: none; stroke: #3d3d3d; stroke-width: 1.5; stroke-linecap: square"/>
   </g>
   <g id="line2d_31"/>
   <g id="line2d_32">
    <path d="M 133.368813 60.43857 
L 133.368813 60.43857 
" clip-path="url(#p4bdd390ed9)" style="fill: none; stroke: #3d3d3d; stroke-width: 1.5; stroke-linecap: square"/>
   </g>
   <g id="line2d_33">
    <path d="M 133.368813 54.817217 
L 133.368813 53.436417 
" clip-path="url(#p4bdd390ed9)" style="fill: none; stroke: #3d3d3d; stroke-width: 1.5; stroke-linecap: square"/>
   </g>
   <g id="line2d_34">
    <path d="M 129.90906 60.43857 
L 136.828565 60.43857 
" clip-path="url(#p4bdd390ed9)" style="fill: none; stroke: #3d3d3d; stroke-width: 1.5; stroke-linecap: square"/>
   </g>
   <g id="line2d_35">
    <path d="M 129.90906 53.436417 
L 136.828565 53.436417 
" clip-path="url(#p4bdd390ed9)" style="fill: none; stroke: #3d3d3d; stroke-width: 1.5; stroke-linecap: square"/>
   </g>
   <g id="line2d_36">
    <g clip-path="url(#p4bdd390ed9)">
     <use xlink:href="#m1708628f0c" x="133.368813" y="72.818295" style="fill: #3d3d3d; stroke: #3d3d3d; stroke-linejoin: miter"/>
    </g>
   </g>
   <g id="line2d_37">
    <path d="M 147.49025 66.51474 
L 147.49025 68.332595 
" clip-path="url(#p4bdd390ed9)" style="fill: none; stroke: #3d3d3d; stroke-width: 1.5; stroke-linecap: square"/>
   </g>
   <g id="line2d_38">
    <path d="M 147.49025 45.959884 
L 147.49025 36.426078 
" clip-path="url(#p4bdd390ed9)" style="fill: none; stroke: #3d3d3d; stroke-width: 1.5; stroke-linecap: square"/>
   </g>
   <g id="line2d_39">
    <path d="M 144.030498 68.332595 
L 150.950002 68.332595 
" clip-path="url(#p4bdd390ed9)" style="fill: none; stroke: #3d3d3d; stroke-width: 1.5; stroke-linecap: square"/>
   </g>
   <g id="line2d_40">
    <path d="M 144.030498 36.426078 
L 150.950002 36.426078 
" clip-path="url(#p4bdd390ed9)" style="fill: none; stroke: #3d3d3d; stroke-width: 1.5; stroke-linecap: square"/>
   </g>
   <g id="line2d_41"/>
   <g id="line2d_42">
    <path d="M 161.611688 78.370667 
L 161.611688 85.075345 
" clip-path="url(#p4bdd390ed9)" style="fill: none; stroke: #3d3d3d; stroke-width: 1.5; stroke-linecap: square"/>
   </g>
   <g id="line2d_43">
    <path d="M 161.611688 67.063266 
L 161.611688 65.400301 
" clip-path="url(#p4bdd390ed9)" style="fill: none; stroke: #3d3d3d; stroke-width: 1.5; stroke-linecap: square"/>
   </g>
   <g id="line2d_44">
    <path d="M 158.151935 85.075345 
L 165.07144 85.075345 
" clip-path="url(#p4bdd390ed9)" style="fill: none; stroke: #3d3d3d; stroke-width: 1.5; stroke-linecap: square"/>
   </g>
   <g id="line2d_45">
    <path d="M 158.151935 65.400301 
L 165.07144 65.400301 
" clip-path="url(#p4bdd390ed9)" style="fill: none; stroke: #3d3d3d; stroke-width: 1.5; stroke-linecap: square"/>
   </g>
   <g id="line2d_46"/>
   <g id="line2d_47">
    <path d="M 189.854562 101.575514 
L 189.854562 101.979287 
" clip-path="url(#p4bdd390ed9)" style="fill: none; stroke: #3d3d3d; stroke-width: 1.5; stroke-linecap: square"/>
   </g>
   <g id="line2d_48">
    <path d="M 189.854562 96.785992 
L 189.854562 93.549179 
" clip-path="url(#p4bdd390ed9)" style="fill: none; stroke: #3d3d3d; stroke-width: 1.5; stroke-linecap: square"/>
   </g>
   <g id="line2d_49">
    <path d="M 186.39481 101.979287 
L 193.314315 101.979287 
" clip-path="url(#p4bdd390ed9)" style="fill: none; stroke: #3d3d3d; stroke-width: 1.5; stroke-linecap: square"/>
   </g>
   <g id="line2d_50">
    <path d="M 186.39481 93.549179 
L 193.314315 93.549179 
" clip-path="url(#p4bdd390ed9)" style="fill: none; stroke: #3d3d3d; stroke-width: 1.5; stroke-linecap: square"/>
   </g>
   <g id="line2d_51"/>
   <g id="line2d_52">
    <path d="M 203.976 102.889036 
L 203.976 102.889036 
" clip-path="url(#p4bdd390ed9)" style="fill: none; stroke: #3d3d3d; stroke-width: 1.5; stroke-linecap: square"/>
   </g>
   <g id="line2d_53">
    <path d="M 203.976 102.657411 
L 203.976 102.657411 
" clip-path="url(#p4bdd390ed9)" style="fill: none; stroke: #3d3d3d; stroke-width: 1.5; stroke-linecap: square"/>
   </g>
   <g id="line2d_54">
    <path d="M 200.516248 102.889036 
L 207.435752 102.889036 
" clip-path="url(#p4bdd390ed9)" style="fill: none; stroke: #3d3d3d; stroke-width: 1.5; stroke-linecap: square"/>
   </g>
   <g id="line2d_55">
    <path d="M 200.516248 102.657411 
L 207.435752 102.657411 
" clip-path="url(#p4bdd390ed9)" style="fill: none; stroke: #3d3d3d; stroke-width: 1.5; stroke-linecap: square"/>
   </g>
   <g id="line2d_56">
    <g clip-path="url(#p4bdd390ed9)">
     <use xlink:href="#m1708628f0c" x="203.976" y="104.002367" style="fill: #3d3d3d; stroke: #3d3d3d; stroke-linejoin: miter"/>
     <use xlink:href="#m1708628f0c" x="203.976" y="98.770708" style="fill: #3d3d3d; stroke: #3d3d3d; stroke-linejoin: miter"/>
    </g>
   </g>
   <g id="line2d_57">
    <path d="M 218.097438 103.633223 
L 218.097438 103.633223 
" clip-path="url(#p4bdd390ed9)" style="fill: none; stroke: #3d3d3d; stroke-width: 1.5; stroke-linecap: square"/>
   </g>
   <g id="line2d_58">
    <path d="M 218.097438 103.57942 
L 218.097438 103.57942 
" clip-path="url(#p4bdd390ed9)" style="fill: none; stroke: #3d3d3d; stroke-width: 1.5; stroke-linecap: square"/>
   </g>
   <g id="line2d_59">
    <path d="M 214.637685 103.633223 
L 221.55719 103.633223 
" clip-path="url(#p4bdd390ed9)" style="fill: none; stroke: #3d3d3d; stroke-width: 1.5; stroke-linecap: square"/>
   </g>
   <g id="line2d_60">
    <path d="M 214.637685 103.57942 
L 221.55719 103.57942 
" clip-path="url(#p4bdd390ed9)" style="fill: none; stroke: #3d3d3d; stroke-width: 1.5; stroke-linecap: square"/>
   </g>
   <g id="line2d_61">
    <g clip-path="url(#p4bdd390ed9)">
     <use xlink:href="#m1708628f0c" x="218.097438" y="103.744295" style="fill: #3d3d3d; stroke: #3d3d3d; stroke-linejoin: miter"/>
     <use xlink:href="#m1708628f0c" x="218.097438" y="100.460067" style="fill: #3d3d3d; stroke: #3d3d3d; stroke-linejoin: miter"/>
    </g>
   </g>
   <g id="line2d_62">
    <path d="M 232.218875 105.231943 
L 232.218875 106.031742 
" clip-path="url(#p4bdd390ed9)" style="fill: none; stroke: #3d3d3d; stroke-width: 1.5; stroke-linecap: square"/>
   </g>
   <g id="line2d_63">
    <path d="M 232.218875 104.106084 
L 232.218875 103.888186 
" clip-path="url(#p4bdd390ed9)" style="fill: none; stroke: #3d3d3d; stroke-width: 1.5; stroke-linecap: square"/>
   </g>
   <g id="line2d_64">
    <path d="M 228.759123 106.031742 
L 235.678627 106.031742 
" clip-path="url(#p4bdd390ed9)" style="fill: none; stroke: #3d3d3d; stroke-width: 1.5; stroke-linecap: square"/>
   </g>
   <g id="line2d_65">
    <path d="M 228.759123 103.888186 
L 235.678627 103.888186 
" clip-path="url(#p4bdd390ed9)" style="fill: none; stroke: #3d3d3d; stroke-width: 1.5; stroke-linecap: square"/>
   </g>
   <g id="line2d_66"/>
   <g id="line2d_67">
    <path d="M 260.46175 46.827679 
L 260.46175 46.827679 
" clip-path="url(#p4bdd390ed9)" style="fill: none; stroke: #3d3d3d; stroke-width: 1.5; stroke-linecap: square"/>
   </g>
   <g id="line2d_68">
    <path d="M 260.46175 28.952104 
L 260.46175 26.304488 
" clip-path="url(#p4bdd390ed9)" style="fill: none; stroke: #3d3d3d; stroke-width: 1.5; stroke-linecap: square"/>
   </g>
   <g id="line2d_69">
    <path d="M 257.001998 46.827679 
L 263.921502 46.827679 
" clip-path="url(#p4bdd390ed9)" style="fill: none; stroke: #3d3d3d; stroke-width: 1.5; stroke-linecap: square"/>
   </g>
   <g id="line2d_70">
    <path d="M 257.001998 26.304488 
L 263.921502 26.304488 
" clip-path="url(#p4bdd390ed9)" style="fill: none; stroke: #3d3d3d; stroke-width: 1.5; stroke-linecap: square"/>
   </g>
   <g id="line2d_71">
    <g clip-path="url(#p4bdd390ed9)">
     <use xlink:href="#m1708628f0c" x="260.46175" y="79.27733" style="fill: #3d3d3d; stroke: #3d3d3d; stroke-linejoin: miter"/>
    </g>
   </g>
   <g id="line2d_72">
    <path d="M 274.583188 64.414313 
L 274.583188 82.950595 
" clip-path="url(#p4bdd390ed9)" style="fill: none; stroke: #3d3d3d; stroke-width: 1.5; stroke-linecap: square"/>
   </g>
   <g id="line2d_73">
    <path d="M 274.583188 39.796483 
L 274.583188 38.610427 
" clip-path="url(#p4bdd390ed9)" style="fill: none; stroke: #3d3d3d; stroke-width: 1.5; stroke-linecap: square"/>
   </g>
   <g id="line2d_74">
    <path d="M 271.123435 82.950595 
L 278.04294 82.950595 
" clip-path="url(#p4bdd390ed9)" style="fill: none; stroke: #3d3d3d; stroke-width: 1.5; stroke-linecap: square"/>
   </g>
   <g id="line2d_75">
    <path d="M 271.123435 38.610427 
L 278.04294 38.610427 
" clip-path="url(#p4bdd390ed9)" style="fill: none; stroke: #3d3d3d; stroke-width: 1.5; stroke-linecap: square"/>
   </g>
   <g id="line2d_76"/>
   <g id="line2d_77">
    <path d="M 288.704625 64.465083 
L 288.704625 82.688421 
" clip-path="url(#p4bdd390ed9)" style="fill: none; stroke: #3d3d3d; stroke-width: 1.5; stroke-linecap: square"/>
   </g>
   <g id="line2d_78">
    <path d="M 288.704625 42.520055 
L 288.704625 35.561758 
" clip-path="url(#p4bdd390ed9)" style="fill: none; stroke: #3d3d3d; stroke-width: 1.5; stroke-linecap: square"/>
   </g>
   <g id="line2d_79">
    <path d="M 285.244873 82.688421 
L 292.164377 82.688421 
" clip-path="url(#p4bdd390ed9)" style="fill: none; stroke: #3d3d3d; stroke-width: 1.5; stroke-linecap: square"/>
   </g>
   <g id="line2d_80">
    <path d="M 285.244873 35.561758 
L 292.164377 35.561758 
" clip-path="url(#p4bdd390ed9)" style="fill: none; stroke: #3d3d3d; stroke-width: 1.5; stroke-linecap: square"/>
   </g>
   <g id="line2d_81"/>
   <g id="line2d_82">
    <path d="M 302.826062 84.826738 
L 302.826062 89.912428 
" clip-path="url(#p4bdd390ed9)" style="fill: none; stroke: #3d3d3d; stroke-width: 1.5; stroke-linecap: square"/>
   </g>
   <g id="line2d_83">
    <path d="M 302.826062 65.607519 
L 302.826062 62.324215 
" clip-path="url(#p4bdd390ed9)" style="fill: none; stroke: #3d3d3d; stroke-width: 1.5; stroke-linecap: square"/>
   </g>
   <g id="line2d_84">
    <path d="M 299.36631 89.912428 
L 306.285815 89.912428 
" clip-path="url(#p4bdd390ed9)" style="fill: none; stroke: #3d3d3d; stroke-width: 1.5; stroke-linecap: square"/>
   </g>
   <g id="line2d_85">
    <path d="M 299.36631 62.324215 
L 306.285815 62.324215 
" clip-path="url(#p4bdd390ed9)" style="fill: none; stroke: #3d3d3d; stroke-width: 1.5; stroke-linecap: square"/>
   </g>
   <g id="line2d_86"/>
   <g id="line2d_87">
    <path d="M 41.720683 102.897577 
L 55.559692 102.897577 
" clip-path="url(#p4bdd390ed9)" style="fill: none; stroke: #3d3d3d; stroke-width: 1.5; stroke-linecap: square"/>
   </g>
   <g id="line2d_88">
    <path d="M 55.842121 103.427349 
L 69.681129 103.427349 
" clip-path="url(#p4bdd390ed9)" style="fill: none; stroke: #3d3d3d; stroke-width: 1.5; stroke-linecap: square"/>
   </g>
   <g id="line2d_89">
    <path d="M 69.963558 103.478332 
L 83.802567 103.478332 
" clip-path="url(#p4bdd390ed9)" style="fill: none; stroke: #3d3d3d; stroke-width: 1.5; stroke-linecap: square"/>
   </g>
   <g id="line2d_90">
    <path d="M 84.084996 104.556042 
L 97.924004 104.556042 
" clip-path="url(#p4bdd390ed9)" style="fill: none; stroke: #3d3d3d; stroke-width: 1.5; stroke-linecap: square"/>
   </g>
   <g id="line2d_91">
    <path d="M 112.327871 45.849193 
L 126.166879 45.849193 
" clip-path="url(#p4bdd390ed9)" style="fill: none; stroke: #3d3d3d; stroke-width: 1.5; stroke-linecap: square"/>
   </g>
   <g id="line2d_92">
    <path d="M 126.449308 58.762603 
L 140.288317 58.762603 
" clip-path="url(#p4bdd390ed9)" style="fill: none; stroke: #3d3d3d; stroke-width: 1.5; stroke-linecap: square"/>
   </g>
   <g id="line2d_93">
    <path d="M 140.570746 62.786389 
L 154.409754 62.786389 
" clip-path="url(#p4bdd390ed9)" style="fill: none; stroke: #3d3d3d; stroke-width: 1.5; stroke-linecap: square"/>
   </g>
   <g id="line2d_94">
    <path d="M 154.692183 77.220981 
L 168.531192 77.220981 
" clip-path="url(#p4bdd390ed9)" style="fill: none; stroke: #3d3d3d; stroke-width: 1.5; stroke-linecap: square"/>
   </g>
   <g id="line2d_95">
    <path d="M 182.935058 101.028363 
L 196.774067 101.028363 
" clip-path="url(#p4bdd390ed9)" style="fill: none; stroke: #3d3d3d; stroke-width: 1.5; stroke-linecap: square"/>
   </g>
   <g id="line2d_96">
    <path d="M 197.056496 102.715941 
L 210.895504 102.715941 
" clip-path="url(#p4bdd390ed9)" style="fill: none; stroke: #3d3d3d; stroke-width: 1.5; stroke-linecap: square"/>
   </g>
   <g id="line2d_97">
    <path d="M 211.177933 103.58146 
L 225.016942 103.58146 
" clip-path="url(#p4bdd390ed9)" style="fill: none; stroke: #3d3d3d; stroke-width: 1.5; stroke-linecap: square"/>
   </g>
   <g id="line2d_98">
    <path d="M 225.299371 104.163308 
L 239.138379 104.163308 
" clip-path="url(#p4bdd390ed9)" style="fill: none; stroke: #3d3d3d; stroke-width: 1.5; stroke-linecap: square"/>
   </g>
   <g id="line2d_99">
    <path d="M 253.542246 42.660591 
L 267.381254 42.660591 
" clip-path="url(#p4bdd390ed9)" style="fill: none; stroke: #3d3d3d; stroke-width: 1.5; stroke-linecap: square"/>
   </g>
   <g id="line2d_100">
    <path d="M 267.663683 55.337975 
L 281.502692 55.337975 
" clip-path="url(#p4bdd390ed9)" style="fill: none; stroke: #3d3d3d; stroke-width: 1.5; stroke-linecap: square"/>
   </g>
   <g id="line2d_101">
    <path d="M 281.785121 58.748654 
L 295.624129 58.748654 
" clip-path="url(#p4bdd390ed9)" style="fill: none; stroke: #3d3d3d; stroke-width: 1.5; stroke-linecap: square"/>
   </g>
   <g id="line2d_102">
    <path d="M 295.906558 83.990362 
L 309.745567 83.990362 
" clip-path="url(#p4bdd390ed9)" style="fill: none; stroke: #3d3d3d; stroke-width: 1.5; stroke-linecap: square"/>
   </g>
   <g id="patch_23">
    <path d="M 34.51875 110.018105 
L 34.51875 22.318125 
" style="fill: none; stroke: #000000; stroke-width: 0.8; stroke-linejoin: miter; stroke-linecap: square"/>
   </g>
   <g id="patch_24">
    <path d="M 316.9475 110.018105 
L 316.9475 22.318125 
" style="fill: none; stroke: #000000; stroke-width: 0.8; stroke-linejoin: miter; stroke-linecap: square"/>
   </g>
   <g id="patch_25">
    <path d="M 34.51875 110.018105 
L 316.9475 110.018105 
" style="fill: none; stroke: #000000; stroke-width: 0.8; stroke-linejoin: miter; stroke-linecap: square"/>
   </g>
   <g id="patch_26">
    <path d="M 34.51875 22.318125 
L 316.9475 22.318125 
" style="fill: none; stroke: #000000; stroke-width: 0.8; stroke-linejoin: miter; stroke-linecap: square"/>
   </g>
   <g id="PathCollection_1">
    <defs>
     <path id="C0_0_3f4078db21" d="M 0 1.5 
C 0.397805 1.5 0.77937 1.341951 1.06066 1.06066 
C 1.341951 0.77937 1.5 0.397805 1.5 -0 
C 1.5 -0.397805 1.341951 -0.77937 1.06066 -1.06066 
C 0.77937 -1.341951 0.397805 -1.5 0 -1.5 
C -0.397805 -1.5 -0.77937 -1.341951 -1.06066 -1.06066 
C -1.341951 -0.77937 -1.5 -0.397805 -1.5 0 
C -1.5 0.397805 -1.341951 0.77937 -1.06066 1.06066 
C -0.77937 1.341951 -0.397805 1.5 0 1.5 
z
"/>
    </defs>
    <g clip-path="url(#p4bdd390ed9)">
     <use xlink:href="#C0_0_3f4078db21" x="47.322685" y="103.264804" style="fill: #262626"/>
    </g>
    <g clip-path="url(#p4bdd390ed9)">
     <use xlink:href="#C0_0_3f4078db21" x="47.175209" y="101.624916" style="fill: #262626"/>
    </g>
    <g clip-path="url(#p4bdd390ed9)">
     <use xlink:href="#C0_0_3f4078db21" x="50.088705" y="101.225337" style="fill: #262626"/>
    </g>
    <g clip-path="url(#p4bdd390ed9)">
     <use xlink:href="#C0_0_3f4078db21" x="49.164418" y="102.897577" style="fill: #262626"/>
    </g>
    <g clip-path="url(#p4bdd390ed9)">
     <use xlink:href="#C0_0_3f4078db21" x="47.446679" y="103.295482" style="fill: #262626"/>
    </g>
   </g>
   <g id="PathCollection_2">
    <defs>
     <path id="C1_0_9d1c0f702b" d="M 0 1.5 
C 0.397805 1.5 0.77937 1.341951 1.06066 1.06066 
C 1.341951 0.77937 1.5 0.397805 1.5 -0 
C 1.5 -0.397805 1.341951 -0.77937 1.06066 -1.06066 
C 0.77937 -1.341951 0.397805 -1.5 0 -1.5 
C -0.397805 -1.5 -0.77937 -1.341951 -1.06066 -1.06066 
C -1.341951 -0.77937 -1.5 -0.397805 -1.5 0 
C -1.5 0.397805 -1.341951 0.77937 -1.06066 1.06066 
C -0.77937 1.341951 -0.397805 1.5 0 1.5 
z
"/>
    </defs>
    <g clip-path="url(#p4bdd390ed9)">
     <use xlink:href="#C1_0_9d1c0f702b" x="61.658733" y="102.759095" style="fill: #191919"/>
    </g>
    <g clip-path="url(#p4bdd390ed9)">
     <use xlink:href="#C1_0_9d1c0f702b" x="61.152042" y="103.470059" style="fill: #191919"/>
    </g>
    <g clip-path="url(#p4bdd390ed9)">
     <use xlink:href="#C1_0_9d1c0f702b" x="62.621874" y="101.570335" style="fill: #191919"/>
    </g>
    <g clip-path="url(#p4bdd390ed9)">
     <use xlink:href="#C1_0_9d1c0f702b" x="62.400686" y="103.427349" style="fill: #191919"/>
    </g>
    <g clip-path="url(#p4bdd390ed9)">
     <use xlink:href="#C1_0_9d1c0f702b" x="61.714587" y="103.858859" style="fill: #191919"/>
    </g>
   </g>
   <g id="PathCollection_3">
    <defs>
     <path id="C2_0_7e10f2bc05" d="M 0 1.5 
C 0.397805 1.5 0.77937 1.341951 1.06066 1.06066 
C 1.341951 0.77937 1.5 0.397805 1.5 -0 
C 1.5 -0.397805 1.341951 -0.77937 1.06066 -1.06066 
C 0.77937 -1.341951 0.397805 -1.5 0 -1.5 
C -0.397805 -1.5 -0.77937 -1.341951 -1.06066 -1.06066 
C -1.341951 -0.77937 -1.5 -0.397805 -1.5 0 
C -1.5 0.397805 -1.341951 0.77937 -1.06066 1.06066 
C -0.77937 1.341951 -0.397805 1.5 0 1.5 
z
"/>
    </defs>
    <g clip-path="url(#p4bdd390ed9)">
     <use xlink:href="#C2_0_7e10f2bc05" x="77.734934" y="102.470787" style="fill: #0d0d0d"/>
    </g>
    <g clip-path="url(#p4bdd390ed9)">
     <use xlink:href="#C2_0_7e10f2bc05" x="75.973857" y="103.78191" style="fill: #0d0d0d"/>
    </g>
    <g clip-path="url(#p4bdd390ed9)">
     <use xlink:href="#C2_0_7e10f2bc05" x="78.136922" y="102.430033" style="fill: #0d0d0d"/>
    </g>
    <g clip-path="url(#p4bdd390ed9)">
     <use xlink:href="#C2_0_7e10f2bc05" x="77.086045" y="103.478332" style="fill: #0d0d0d"/>
    </g>
    <g clip-path="url(#p4bdd390ed9)">
     <use xlink:href="#C2_0_7e10f2bc05" x="78.14603" y="104.108582" style="fill: #0d0d0d"/>
    </g>
   </g>
   <g id="PathCollection_4">
    <defs>
     <path id="C3_0_5dbdd9e80c" d="M 0 1.5 
C 0.397805 1.5 0.77937 1.341951 1.06066 1.06066 
C 1.341951 0.77937 1.5 0.397805 1.5 -0 
C 1.5 -0.397805 1.341951 -0.77937 1.06066 -1.06066 
C 0.77937 -1.341951 0.397805 -1.5 0 -1.5 
C -0.397805 -1.5 -0.77937 -1.341951 -1.06066 -1.06066 
C -1.341951 -0.77937 -1.5 -0.397805 -1.5 0 
C -1.5 0.397805 -1.341951 0.77937 -1.06066 1.06066 
C -0.77937 1.341951 -0.397805 1.5 0 1.5 
z
"/>
    </defs>
    <g clip-path="url(#p4bdd390ed9)">
     <use xlink:href="#C3_0_5dbdd9e80c" x="92.488194" y="103.488614"/>
    </g>
    <g clip-path="url(#p4bdd390ed9)">
     <use xlink:href="#C3_0_5dbdd9e80c" x="91.104838" y="105.501947"/>
    </g>
    <g clip-path="url(#p4bdd390ed9)">
     <use xlink:href="#C3_0_5dbdd9e80c" x="92.134774" y="105.272499"/>
    </g>
    <g clip-path="url(#p4bdd390ed9)">
     <use xlink:href="#C3_0_5dbdd9e80c" x="90.526006" y="104.556042"/>
    </g>
    <g clip-path="url(#p4bdd390ed9)">
     <use xlink:href="#C3_0_5dbdd9e80c" x="92.272315" y="104.298352"/>
    </g>
   </g>
   <g id="PathCollection_5">
    <defs>
     <path id="C4_0_d584f6cca3" d="M 0 1.5 
C 0.397805 1.5 0.77937 1.341951 1.06066 1.06066 
C 1.341951 0.77937 1.5 0.397805 1.5 -0 
C 1.5 -0.397805 1.341951 -0.77937 1.06066 -1.06066 
C 0.77937 -1.341951 0.397805 -1.5 0 -1.5 
C -0.397805 -1.5 -0.77937 -1.341951 -1.06066 -1.06066 
C -1.341951 -0.77937 -1.5 -0.397805 -1.5 0 
C -1.5 0.397805 -1.341951 0.77937 -1.06066 1.06066 
C -0.77937 1.341951 -0.397805 1.5 0 1.5 
z
"/>
    </defs>
    <g clip-path="url(#p4bdd390ed9)">
     <use xlink:href="#C4_0_d584f6cca3" x="119.047654" y="45.849193" style="fill: #262626"/>
    </g>
    <g clip-path="url(#p4bdd390ed9)">
     <use xlink:href="#C4_0_d584f6cca3" x="119.464056" y="45.689895" style="fill: #262626"/>
    </g>
    <g clip-path="url(#p4bdd390ed9)">
     <use xlink:href="#C4_0_d584f6cca3" x="119.824336" y="34.175902" style="fill: #262626"/>
    </g>
    <g clip-path="url(#p4bdd390ed9)">
     <use xlink:href="#C4_0_d584f6cca3" x="117.868731" y="58.953061" style="fill: #262626"/>
    </g>
    <g clip-path="url(#p4bdd390ed9)">
     <use xlink:href="#C4_0_d584f6cca3" x="120.194869" y="65.13682" style="fill: #262626"/>
    </g>
   </g>
   <g id="PathCollection_6">
    <defs>
     <path id="C5_0_4f58b323a5" d="M 0 1.5 
C 0.397805 1.5 0.77937 1.341951 1.06066 1.06066 
C 1.341951 0.77937 1.5 0.397805 1.5 -0 
C 1.5 -0.397805 1.341951 -0.77937 1.06066 -1.06066 
C 0.77937 -1.341951 0.397805 -1.5 0 -1.5 
C -0.397805 -1.5 -0.77937 -1.341951 -1.06066 -1.06066 
C -1.341951 -0.77937 -1.5 -0.397805 -1.5 0 
C -1.5 0.397805 -1.341951 0.77937 -1.06066 1.06066 
C -0.77937 1.341951 -0.397805 1.5 0 1.5 
z
"/>
    </defs>
    <g clip-path="url(#p4bdd390ed9)">
     <use xlink:href="#C5_0_4f58b323a5" x="134.346934" y="60.43857" style="fill: #191919"/>
    </g>
    <g clip-path="url(#p4bdd390ed9)">
     <use xlink:href="#C5_0_4f58b323a5" x="134.139372" y="53.436417" style="fill: #191919"/>
    </g>
    <g clip-path="url(#p4bdd390ed9)">
     <use xlink:href="#C5_0_4f58b323a5" x="134.542158" y="54.817217" style="fill: #191919"/>
    </g>
    <g clip-path="url(#p4bdd390ed9)">
     <use xlink:href="#C5_0_4f58b323a5" x="131.740659" y="58.762603" style="fill: #191919"/>
    </g>
    <g clip-path="url(#p4bdd390ed9)">
     <use xlink:href="#C5_0_4f58b323a5" x="132.479269" y="72.818295" style="fill: #191919"/>
    </g>
   </g>
   <g id="PathCollection_7">
    <defs>
     <path id="C6_0_58137c746c" d="M 0 1.5 
C 0.397805 1.5 0.77937 1.341951 1.06066 1.06066 
C 1.341951 0.77937 1.5 0.397805 1.5 -0 
C 1.5 -0.397805 1.341951 -0.77937 1.06066 -1.06066 
C 0.77937 -1.341951 0.397805 -1.5 0 -1.5 
C -0.397805 -1.5 -0.77937 -1.341951 -1.06066 -1.06066 
C -1.341951 -0.77937 -1.5 -0.397805 -1.5 0 
C -1.5 0.397805 -1.341951 0.77937 -1.06066 1.06066 
C -0.77937 1.341951 -0.397805 1.5 0 1.5 
z
"/>
    </defs>
    <g clip-path="url(#p4bdd390ed9)">
     <use xlink:href="#C6_0_58137c746c" x="148.03221" y="68.332595" style="fill: #0d0d0d"/>
    </g>
    <g clip-path="url(#p4bdd390ed9)">
     <use xlink:href="#C6_0_58137c746c" x="147.085869" y="66.51474" style="fill: #0d0d0d"/>
    </g>
    <g clip-path="url(#p4bdd390ed9)">
     <use xlink:href="#C6_0_58137c746c" x="148.654663" y="36.426078" style="fill: #0d0d0d"/>
    </g>
    <g clip-path="url(#p4bdd390ed9)">
     <use xlink:href="#C6_0_58137c746c" x="147.292759" y="62.786389" style="fill: #0d0d0d"/>
    </g>
    <g clip-path="url(#p4bdd390ed9)">
     <use xlink:href="#C6_0_58137c746c" x="146.820389" y="45.959884" style="fill: #0d0d0d"/>
    </g>
   </g>
   <g id="PathCollection_8">
    <defs>
     <path id="C7_0_c690a682d1" d="M 0 1.5 
C 0.397805 1.5 0.77937 1.341951 1.06066 1.06066 
C 1.341951 0.77937 1.5 0.397805 1.5 -0 
C 1.5 -0.397805 1.341951 -0.77937 1.06066 -1.06066 
C 0.77937 -1.341951 0.397805 -1.5 0 -1.5 
C -0.397805 -1.5 -0.77937 -1.341951 -1.06066 -1.06066 
C -1.341951 -0.77937 -1.5 -0.397805 -1.5 0 
C -1.5 0.397805 -1.341951 0.77937 -1.06066 1.06066 
C -0.77937 1.341951 -0.397805 1.5 0 1.5 
z
"/>
    </defs>
    <g clip-path="url(#p4bdd390ed9)">
     <use xlink:href="#C7_0_c690a682d1" x="161.830369" y="77.220981"/>
    </g>
    <g clip-path="url(#p4bdd390ed9)">
     <use xlink:href="#C7_0_c690a682d1" x="161.066209" y="67.063266"/>
    </g>
    <g clip-path="url(#p4bdd390ed9)">
     <use xlink:href="#C7_0_c690a682d1" x="162.11486" y="78.370667"/>
    </g>
    <g clip-path="url(#p4bdd390ed9)">
     <use xlink:href="#C7_0_c690a682d1" x="161.487917" y="85.075345"/>
    </g>
    <g clip-path="url(#p4bdd390ed9)">
     <use xlink:href="#C7_0_c690a682d1" x="161.344004" y="65.400301"/>
    </g>
   </g>
   <g id="PathCollection_9">
    <defs>
     <path id="C8_0_6390b53598" d="M 0 1.5 
C 0.397805 1.5 0.77937 1.341951 1.06066 1.06066 
C 1.341951 0.77937 1.5 0.397805 1.5 -0 
C 1.5 -0.397805 1.341951 -0.77937 1.06066 -1.06066 
C 0.77937 -1.341951 0.397805 -1.5 0 -1.5 
C -0.397805 -1.5 -0.77937 -1.341951 -1.06066 -1.06066 
C -1.341951 -0.77937 -1.5 -0.397805 -1.5 0 
C -1.5 0.397805 -1.341951 0.77937 -1.06066 1.06066 
C -0.77937 1.341951 -0.397805 1.5 0 1.5 
z
"/>
    </defs>
    <g clip-path="url(#p4bdd390ed9)">
     <use xlink:href="#C8_0_6390b53598" x="188.176113" y="96.785992" style="fill: #262626"/>
    </g>
    <g clip-path="url(#p4bdd390ed9)">
     <use xlink:href="#C8_0_6390b53598" x="188.773103" y="101.028363" style="fill: #262626"/>
    </g>
    <g clip-path="url(#p4bdd390ed9)">
     <use xlink:href="#C8_0_6390b53598" x="189.707297" y="101.575514" style="fill: #262626"/>
    </g>
    <g clip-path="url(#p4bdd390ed9)">
     <use xlink:href="#C8_0_6390b53598" x="188.260429" y="93.549179" style="fill: #262626"/>
    </g>
    <g clip-path="url(#p4bdd390ed9)">
     <use xlink:href="#C8_0_6390b53598" x="188.20157" y="101.979287" style="fill: #262626"/>
    </g>
   </g>
   <g id="PathCollection_10">
    <defs>
     <path id="C9_0_75b62a525e" d="M 0 1.5 
C 0.397805 1.5 0.77937 1.341951 1.06066 1.06066 
C 1.341951 0.77937 1.5 0.397805 1.5 -0 
C 1.5 -0.397805 1.341951 -0.77937 1.06066 -1.06066 
C 0.77937 -1.341951 0.397805 -1.5 0 -1.5 
C -0.397805 -1.5 -0.77937 -1.341951 -1.06066 -1.06066 
C -1.341951 -0.77937 -1.5 -0.397805 -1.5 0 
C -1.5 0.397805 -1.341951 0.77937 -1.06066 1.06066 
C -0.77937 1.341951 -0.397805 1.5 0 1.5 
z
"/>
    </defs>
    <g clip-path="url(#p4bdd390ed9)">
     <use xlink:href="#C9_0_75b62a525e" x="202.880134" y="102.715941" style="fill: #191919"/>
    </g>
    <g clip-path="url(#p4bdd390ed9)">
     <use xlink:href="#C9_0_75b62a525e" x="203.122537" y="102.889036" style="fill: #191919"/>
    </g>
    <g clip-path="url(#p4bdd390ed9)">
     <use xlink:href="#C9_0_75b62a525e" x="204.832272" y="102.657411" style="fill: #191919"/>
    </g>
    <g clip-path="url(#p4bdd390ed9)">
     <use xlink:href="#C9_0_75b62a525e" x="204.121394" y="104.002367" style="fill: #191919"/>
    </g>
    <g clip-path="url(#p4bdd390ed9)">
     <use xlink:href="#C9_0_75b62a525e" x="202.679878" y="98.770708" style="fill: #191919"/>
    </g>
   </g>
   <g id="PathCollection_11">
    <defs>
     <path id="Ca_0_62c1532099" d="M 0 1.5 
C 0.397805 1.5 0.77937 1.341951 1.06066 1.06066 
C 1.341951 0.77937 1.5 0.397805 1.5 -0 
C 1.5 -0.397805 1.341951 -0.77937 1.06066 -1.06066 
C 0.77937 -1.341951 0.397805 -1.5 0 -1.5 
C -0.397805 -1.5 -0.77937 -1.341951 -1.06066 -1.06066 
C -1.341951 -0.77937 -1.5 -0.397805 -1.5 0 
C -1.5 0.397805 -1.341951 0.77937 -1.06066 1.06066 
C -0.77937 1.341951 -0.397805 1.5 0 1.5 
z
"/>
    </defs>
    <g clip-path="url(#p4bdd390ed9)">
     <use xlink:href="#Ca_0_62c1532099" x="217.230749" y="103.57942" style="fill: #0d0d0d"/>
    </g>
    <g clip-path="url(#p4bdd390ed9)">
     <use xlink:href="#Ca_0_62c1532099" x="219.121519" y="103.58146" style="fill: #0d0d0d"/>
    </g>
    <g clip-path="url(#p4bdd390ed9)">
     <use xlink:href="#Ca_0_62c1532099" x="216.965502" y="100.460067" style="fill: #0d0d0d"/>
    </g>
    <g clip-path="url(#p4bdd390ed9)">
     <use xlink:href="#Ca_0_62c1532099" x="217.147665" y="103.633223" style="fill: #0d0d0d"/>
    </g>
    <g clip-path="url(#p4bdd390ed9)">
     <use xlink:href="#Ca_0_62c1532099" x="219.843298" y="103.744295" style="fill: #0d0d0d"/>
    </g>
   </g>
   <g id="PathCollection_12">
    <defs>
     <path id="Cb_0_677a041b2c" d="M 0 1.5 
C 0.397805 1.5 0.77937 1.341951 1.06066 1.06066 
C 1.341951 0.77937 1.5 0.397805 1.5 -0 
C 1.5 -0.397805 1.341951 -0.77937 1.06066 -1.06066 
C 0.77937 -1.341951 0.397805 -1.5 0 -1.5 
C -0.397805 -1.5 -0.77937 -1.341951 -1.06066 -1.06066 
C -1.341951 -0.77937 -1.5 -0.397805 -1.5 0 
C -1.5 0.397805 -1.341951 0.77937 -1.06066 1.06066 
C -0.77937 1.341951 -0.397805 1.5 0 1.5 
z
"/>
    </defs>
    <g clip-path="url(#p4bdd390ed9)">
     <use xlink:href="#Cb_0_677a041b2c" x="231.330418" y="104.163308"/>
    </g>
    <g clip-path="url(#p4bdd390ed9)">
     <use xlink:href="#Cb_0_677a041b2c" x="231.615977" y="103.888186"/>
    </g>
    <g clip-path="url(#p4bdd390ed9)">
     <use xlink:href="#Cb_0_677a041b2c" x="231.130567" y="104.106084"/>
    </g>
    <g clip-path="url(#p4bdd390ed9)">
     <use xlink:href="#Cb_0_677a041b2c" x="232.230171" y="106.031742"/>
    </g>
    <g clip-path="url(#p4bdd390ed9)">
     <use xlink:href="#Cb_0_677a041b2c" x="231.056025" y="105.231943"/>
    </g>
   </g>
   <g id="PathCollection_13">
    <defs>
     <path id="Cc_0_016c9d748f" d="M 0 1.5 
C 0.397805 1.5 0.77937 1.341951 1.06066 1.06066 
C 1.341951 0.77937 1.5 0.397805 1.5 -0 
C 1.5 -0.397805 1.341951 -0.77937 1.06066 -1.06066 
C 0.77937 -1.341951 0.397805 -1.5 0 -1.5 
C -0.397805 -1.5 -0.77937 -1.341951 -1.06066 -1.06066 
C -1.341951 -0.77937 -1.5 -0.397805 -1.5 0 
C -1.5 0.397805 -1.341951 0.77937 -1.06066 1.06066 
C -0.77937 1.341951 -0.397805 1.5 0 1.5 
z
"/>
    </defs>
    <g clip-path="url(#p4bdd390ed9)">
     <use xlink:href="#Cc_0_016c9d748f" x="259.619167" y="28.952104" style="fill: #262626"/>
    </g>
    <g clip-path="url(#p4bdd390ed9)">
     <use xlink:href="#Cc_0_016c9d748f" x="261.443343" y="26.304488" style="fill: #262626"/>
    </g>
    <g clip-path="url(#p4bdd390ed9)">
     <use xlink:href="#Cc_0_016c9d748f" x="260.488805" y="46.827679" style="fill: #262626"/>
    </g>
    <g clip-path="url(#p4bdd390ed9)">
     <use xlink:href="#Cc_0_016c9d748f" x="260.857011" y="42.660591" style="fill: #262626"/>
    </g>
    <g clip-path="url(#p4bdd390ed9)">
     <use xlink:href="#Cc_0_016c9d748f" x="261.761399" y="79.27733" style="fill: #262626"/>
    </g>
   </g>
   <g id="PathCollection_14">
    <defs>
     <path id="Cd_0_3f486a3920" d="M 0 1.5 
C 0.397805 1.5 0.77937 1.341951 1.06066 1.06066 
C 1.341951 0.77937 1.5 0.397805 1.5 -0 
C 1.5 -0.397805 1.341951 -0.77937 1.06066 -1.06066 
C 0.77937 -1.341951 0.397805 -1.5 0 -1.5 
C -0.397805 -1.5 -0.77937 -1.341951 -1.06066 -1.06066 
C -1.341951 -0.77937 -1.5 -0.397805 -1.5 0 
C -1.5 0.397805 -1.341951 0.77937 -1.06066 1.06066 
C -0.77937 1.341951 -0.397805 1.5 0 1.5 
z
"/>
    </defs>
    <g clip-path="url(#p4bdd390ed9)">
     <use xlink:href="#Cd_0_3f486a3920" x="273.182398" y="64.414313" style="fill: #191919"/>
    </g>
    <g clip-path="url(#p4bdd390ed9)">
     <use xlink:href="#Cd_0_3f486a3920" x="274.93859" y="39.796483" style="fill: #191919"/>
    </g>
    <g clip-path="url(#p4bdd390ed9)">
     <use xlink:href="#Cd_0_3f486a3920" x="273.216221" y="55.337975" style="fill: #191919"/>
    </g>
    <g clip-path="url(#p4bdd390ed9)">
     <use xlink:href="#Cd_0_3f486a3920" x="272.86868" y="38.610427" style="fill: #191919"/>
    </g>
    <g clip-path="url(#p4bdd390ed9)">
     <use xlink:href="#Cd_0_3f486a3920" x="273.810324" y="82.950595" style="fill: #191919"/>
    </g>
   </g>
   <g id="PathCollection_15">
    <defs>
     <path id="Ce_0_3384a93a3c" d="M 0 1.5 
C 0.397805 1.5 0.77937 1.341951 1.06066 1.06066 
C 1.341951 0.77937 1.5 0.397805 1.5 -0 
C 1.5 -0.397805 1.341951 -0.77937 1.06066 -1.06066 
C 0.77937 -1.341951 0.397805 -1.5 0 -1.5 
C -0.397805 -1.5 -0.77937 -1.341951 -1.06066 -1.06066 
C -1.341951 -0.77937 -1.5 -0.397805 -1.5 0 
C -1.5 0.397805 -1.341951 0.77937 -1.06066 1.06066 
C -0.77937 1.341951 -0.397805 1.5 0 1.5 
z
"/>
    </defs>
    <g clip-path="url(#p4bdd390ed9)">
     <use xlink:href="#Ce_0_3384a93a3c" x="290.121737" y="35.561758" style="fill: #0d0d0d"/>
    </g>
    <g clip-path="url(#p4bdd390ed9)">
     <use xlink:href="#Ce_0_3384a93a3c" x="290.112267" y="42.520055" style="fill: #0d0d0d"/>
    </g>
    <g clip-path="url(#p4bdd390ed9)">
     <use xlink:href="#Ce_0_3384a93a3c" x="287.640244" y="64.465083" style="fill: #0d0d0d"/>
    </g>
    <g clip-path="url(#p4bdd390ed9)">
     <use xlink:href="#Ce_0_3384a93a3c" x="290.39586" y="58.748654" style="fill: #0d0d0d"/>
    </g>
    <g clip-path="url(#p4bdd390ed9)">
     <use xlink:href="#Ce_0_3384a93a3c" x="289.006825" y="82.688421" style="fill: #0d0d0d"/>
    </g>
   </g>
   <g id="PathCollection_16">
    <defs>
     <path id="Cf_0_e30fd9ee90" d="M 0 1.5 
C 0.397805 1.5 0.77937 1.341951 1.06066 1.06066 
C 1.341951 0.77937 1.5 0.397805 1.5 -0 
C 1.5 -0.397805 1.341951 -0.77937 1.06066 -1.06066 
C 0.77937 -1.341951 0.397805 -1.5 0 -1.5 
C -0.397805 -1.5 -0.77937 -1.341951 -1.06066 -1.06066 
C -1.341951 -0.77937 -1.5 -0.397805 -1.5 0 
C -1.5 0.397805 -1.341951 0.77937 -1.06066 1.06066 
C -0.77937 1.341951 -0.397805 1.5 0 1.5 
z
"/>
    </defs>
    <g clip-path="url(#p4bdd390ed9)">
     <use xlink:href="#Cf_0_e30fd9ee90" x="301.26313" y="62.324215"/>
    </g>
    <g clip-path="url(#p4bdd390ed9)">
     <use xlink:href="#Cf_0_e30fd9ee90" x="302.21096" y="65.607519"/>
    </g>
    <g clip-path="url(#p4bdd390ed9)">
     <use xlink:href="#Cf_0_e30fd9ee90" x="301.645371" y="84.826738"/>
    </g>
    <g clip-path="url(#p4bdd390ed9)">
     <use xlink:href="#Cf_0_e30fd9ee90" x="304.17766" y="83.990362"/>
    </g>
    <g clip-path="url(#p4bdd390ed9)">
     <use xlink:href="#Cf_0_e30fd9ee90" x="304.343906" y="89.912428"/>
    </g>
   </g>
   <g id="text_9">
    <!-- birds -->
    <g transform="translate(160.960938 16.318125) scale(0.12 -0.12)">
     <use xlink:href="#DejaVuSans-62"/>
     <use xlink:href="#DejaVuSans-69" x="63.476562"/>
     <use xlink:href="#DejaVuSans-72" x="91.259766"/>
     <use xlink:href="#DejaVuSans-64" x="130.623047"/>
     <use xlink:href="#DejaVuSans-73" x="194.099609"/>
    </g>
   </g>
   <g id="legend_1">
    <g id="patch_27">
     <path d="M 323.9475 105.018105 
L 391.374062 105.018105 
Q 393.374062 105.018105 393.374062 103.018105 
L 393.374062 45.305605 
Q 393.374062 43.305605 391.374062 43.305605 
L 323.9475 43.305605 
Q 321.9475 43.305605 321.9475 45.305605 
L 321.9475 103.018105 
Q 321.9475 105.018105 323.9475 105.018105 
z
" style="fill: #ffffff; opacity: 0.8; stroke: #cccccc; stroke-linejoin: miter"/>
    </g>
    <g id="patch_28">
     <path d="M 325.9475 54.904043 
L 345.9475 54.904043 
L 345.9475 47.904043 
L 325.9475 47.904043 
z
" style="fill: #3274a1; stroke: #3d3d3d; stroke-width: 0.75; stroke-linejoin: miter"/>
    </g>
    <g id="text_10">
     <!-- none -->
     <g transform="translate(353.9475 54.904043) scale(0.1 -0.1)">
      <use xlink:href="#DejaVuSans-6e"/>
      <use xlink:href="#DejaVuSans-6f" x="63.378906"/>
      <use xlink:href="#DejaVuSans-6e" x="124.560547"/>
      <use xlink:href="#DejaVuSans-65" x="187.939453"/>
     </g>
    </g>
    <g id="patch_29">
     <path d="M 325.9475 69.582168 
L 345.9475 69.582168 
L 345.9475 62.582168 
L 325.9475 62.582168 
z
" style="fill: #e1812c; stroke: #3d3d3d; stroke-width: 0.75; stroke-linejoin: miter"/>
    </g>
    <g id="text_11">
     <!-- drop30 -->
     <g transform="translate(353.9475 69.582168) scale(0.1 -0.1)">
      <defs>
       <path id="DejaVuSans-30" d="M 2034 4250 
Q 1547 4250 1301 3770 
Q 1056 3291 1056 2328 
Q 1056 1369 1301 889 
Q 1547 409 2034 409 
Q 2525 409 2770 889 
Q 3016 1369 3016 2328 
Q 3016 3291 2770 3770 
Q 2525 4250 2034 4250 
z
M 2034 4750 
Q 2819 4750 3233 4129 
Q 3647 3509 3647 2328 
Q 3647 1150 3233 529 
Q 2819 -91 2034 -91 
Q 1250 -91 836 529 
Q 422 1150 422 2328 
Q 422 3509 836 4129 
Q 1250 4750 2034 4750 
z
" transform="scale(0.015625)"/>
      </defs>
      <use xlink:href="#DejaVuSans-64"/>
      <use xlink:href="#DejaVuSans-72" x="63.476562"/>
      <use xlink:href="#DejaVuSans-6f" x="102.339844"/>
      <use xlink:href="#DejaVuSans-70" x="163.521484"/>
      <use xlink:href="#DejaVuSans-33" x="226.998047"/>
      <use xlink:href="#DejaVuSans-30" x="290.621094"/>
     </g>
    </g>
    <g id="patch_30">
     <path d="M 325.9475 84.260293 
L 345.9475 84.260293 
L 345.9475 77.260293 
L 325.9475 77.260293 
z
" style="fill: #3a923a; stroke: #3d3d3d; stroke-width: 0.75; stroke-linejoin: miter"/>
    </g>
    <g id="text_12">
     <!-- drop50 -->
     <g transform="translate(353.9475 84.260293) scale(0.1 -0.1)">
      <defs>
       <path id="DejaVuSans-35" d="M 691 4666 
L 3169 4666 
L 3169 4134 
L 1269 4134 
L 1269 2991 
Q 1406 3038 1543 3061 
Q 1681 3084 1819 3084 
Q 2600 3084 3056 2656 
Q 3513 2228 3513 1497 
Q 3513 744 3044 326 
Q 2575 -91 1722 -91 
Q 1428 -91 1123 -41 
Q 819 9 494 109 
L 494 744 
Q 775 591 1075 516 
Q 1375 441 1709 441 
Q 2250 441 2565 725 
Q 2881 1009 2881 1497 
Q 2881 1984 2565 2268 
Q 2250 2553 1709 2553 
Q 1456 2553 1204 2497 
Q 953 2441 691 2322 
L 691 4666 
z
" transform="scale(0.015625)"/>
      </defs>
      <use xlink:href="#DejaVuSans-64"/>
      <use xlink:href="#DejaVuSans-72" x="63.476562"/>
      <use xlink:href="#DejaVuSans-6f" x="102.339844"/>
      <use xlink:href="#DejaVuSans-70" x="163.521484"/>
      <use xlink:href="#DejaVuSans-35" x="226.998047"/>
      <use xlink:href="#DejaVuSans-30" x="290.621094"/>
     </g>
    </g>
    <g id="patch_31">
     <path d="M 325.9475 98.938418 
L 345.9475 98.938418 
L 345.9475 91.938418 
L 325.9475 91.938418 
z
" style="fill: #c03d3e; stroke: #3d3d3d; stroke-width: 0.75; stroke-linejoin: miter"/>
    </g>
    <g id="text_13">
     <!-- drop80 -->
     <g transform="translate(353.9475 98.938418) scale(0.1 -0.1)">
      <defs>
       <path id="DejaVuSans-38" d="M 2034 2216 
Q 1584 2216 1326 1975 
Q 1069 1734 1069 1313 
Q 1069 891 1326 650 
Q 1584 409 2034 409 
Q 2484 409 2743 651 
Q 3003 894 3003 1313 
Q 3003 1734 2745 1975 
Q 2488 2216 2034 2216 
z
M 1403 2484 
Q 997 2584 770 2862 
Q 544 3141 544 3541 
Q 544 4100 942 4425 
Q 1341 4750 2034 4750 
Q 2731 4750 3128 4425 
Q 3525 4100 3525 3541 
Q 3525 3141 3298 2862 
Q 3072 2584 2669 2484 
Q 3125 2378 3379 2068 
Q 3634 1759 3634 1313 
Q 3634 634 3220 271 
Q 2806 -91 2034 -91 
Q 1263 -91 848 271 
Q 434 634 434 1313 
Q 434 1759 690 2068 
Q 947 2378 1403 2484 
z
M 1172 3481 
Q 1172 3119 1398 2916 
Q 1625 2713 2034 2713 
Q 2441 2713 2670 2916 
Q 2900 3119 2900 3481 
Q 2900 3844 2670 4047 
Q 2441 4250 2034 4250 
Q 1625 4250 1398 4047 
Q 1172 3844 1172 3481 
z
" transform="scale(0.015625)"/>
      </defs>
      <use xlink:href="#DejaVuSans-64"/>
      <use xlink:href="#DejaVuSans-72" x="63.476562"/>
      <use xlink:href="#DejaVuSans-6f" x="102.339844"/>
      <use xlink:href="#DejaVuSans-70" x="163.521484"/>
      <use xlink:href="#DejaVuSans-38" x="226.998047"/>
      <use xlink:href="#DejaVuSans-30" x="290.621094"/>
     </g>
    </g>
   </g>
  </g>
 </g>
 <defs>
  <clipPath id="p4bdd390ed9">
   <rect x="34.51875" y="22.318125" width="282.42875" height="87.69998"/>
  </clipPath>
 </defs>
</svg>
