<?xml version="1.0" encoding="utf-8" standalone="no"?>
<!DOCTYPE svg PUBLIC "-//W3C//DTD SVG 1.1//EN"
  "http://www.w3.org/Graphics/SVG/1.1/DTD/svg11.dtd">
<svg xmlns:xlink="http://www.w3.org/1999/xlink" width="410.211562pt" height="207.302882pt" viewBox="0 0 410.211562 207.302882" xmlns="http://www.w3.org/2000/svg" version="1.1">
 <metadata>
  <rdf:RDF xmlns:dc="http://purl.org/dc/elements/1.1/" xmlns:cc="http://creativecommons.org/ns#" xmlns:rdf="http://www.w3.org/1999/02/22-rdf-syntax-ns#">
   <cc:Work>
    <dc:type rdf:resource="http://purl.org/dc/dcmitype/StillImage"/>
    <dc:date>2023-06-23T11:40:45.608952</dc:date>
    <dc:format>image/svg+xml</dc:format>
    <dc:creator>
     <cc:Agent>
      <dc:title>Matplotlib v3.7.1, https://matplotlib.org/</dc:title>
     </cc:Agent>
    </dc:creator>
   </cc:Work>
  </rdf:RDF>
 </metadata>
 <defs>
  <style type="text/css">*{stroke-linejoin: round; stroke-linecap: butt}</style>
 </defs>
 <g id="figure_1">
  <g id="patch_1">
   <path d="M -0 207.302882 
L 410.211562 207.302882 
L 410.211562 0 
L -0 0 
L -0 207.302882 
z
" style="fill: none"/>
  </g>
  <g id="axes_1">
   <g id="patch_2">
    <path d="M 53.60625 110.018105 
L 326.585 110.018105 
L 326.585 22.318125 
L 53.60625 22.318125 
L 53.60625 110.018105 
z
" style="fill: none"/>
   </g>
   <g id="patch_3">
    <path d="M 60.567208 102.417324 
L 73.943167 102.417324 
L 73.943167 102.129373 
L 60.567208 102.129373 
L 60.567208 102.417324 
z
" clip-path="url(#p85d06f44ed)" style="fill: #3274a1; stroke: #3d3d3d; stroke-width: 1.5; stroke-linejoin: miter"/>
   </g>
   <g id="patch_4">
    <path d="M 74.216146 102.317811 
L 87.592104 102.317811 
L 87.592104 101.992548 
L 74.216146 101.992548 
L 74.216146 102.317811 
z
" clip-path="url(#p85d06f44ed)" style="fill: #e1812c; stroke: #3d3d3d; stroke-width: 1.5; stroke-linejoin: miter"/>
   </g>
   <g id="patch_5">
    <path d="M 87.865083 102.326463 
L 101.241042 102.326463 
L 101.241042 102.080533 
L 87.865083 102.080533 
L 87.865083 102.326463 
z
" clip-path="url(#p85d06f44ed)" style="fill: #3a923a; stroke: #3d3d3d; stroke-width: 1.5; stroke-linejoin: miter"/>
   </g>
   <g id="patch_6">
    <path d="M 101.514021 102.627571 
L 114.889979 102.627571 
L 114.889979 102.428156 
L 101.514021 102.428156 
L 101.514021 102.627571 
z
" clip-path="url(#p85d06f44ed)" style="fill: #c03d3e; stroke: #3d3d3d; stroke-width: 1.5; stroke-linejoin: miter"/>
   </g>
   <g id="patch_7">
    <path d="M 128.811896 70.280459 
L 142.187854 70.280459 
L 142.187854 64.039403 
L 128.811896 64.039403 
L 128.811896 70.280459 
z
" clip-path="url(#p85d06f44ed)" style="fill: #3274a1; stroke: #3d3d3d; stroke-width: 1.5; stroke-linejoin: miter"/>
   </g>
   <g id="patch_8">
    <path d="M 142.460833 66.007152 
L 155.836792 66.007152 
L 155.836792 62.513008 
L 142.460833 62.513008 
L 142.460833 66.007152 
z
" clip-path="url(#p85d06f44ed)" style="fill: #e1812c; stroke: #3d3d3d; stroke-width: 1.5; stroke-linejoin: miter"/>
   </g>
   <g id="patch_9">
    <path d="M 156.109771 67.739988 
L 169.485729 67.739988 
L 169.485729 59.673122 
L 156.109771 59.673122 
L 156.109771 67.739988 
z
" clip-path="url(#p85d06f44ed)" style="fill: #3a923a; stroke: #3d3d3d; stroke-width: 1.5; stroke-linejoin: miter"/>
   </g>
   <g id="patch_10">
    <path d="M 169.758708 39.238258 
L 183.134667 39.238258 
L 183.134667 31.367334 
L 169.758708 31.367334 
L 169.758708 39.238258 
z
" clip-path="url(#p85d06f44ed)" style="fill: #c03d3e; stroke: #3d3d3d; stroke-width: 1.5; stroke-linejoin: miter"/>
   </g>
   <g id="patch_11">
    <path d="M 197.056583 105.98102 
L 210.432542 105.98102 
L 210.432542 105.799374 
L 197.056583 105.799374 
L 197.056583 105.98102 
z
" clip-path="url(#p85d06f44ed)" style="fill: #3274a1; stroke: #3d3d3d; stroke-width: 1.5; stroke-linejoin: miter"/>
   </g>
   <g id="patch_12">
    <path d="M 210.705521 105.846323 
L 224.081479 105.846323 
L 224.081479 105.775421 
L 210.705521 105.775421 
L 210.705521 105.846323 
z
" clip-path="url(#p85d06f44ed)" style="fill: #e1812c; stroke: #3d3d3d; stroke-width: 1.5; stroke-linejoin: miter"/>
   </g>
   <g id="patch_13">
    <path d="M 224.354458 105.899847 
L 237.730417 105.899847 
L 237.730417 105.839397 
L 224.354458 105.839397 
L 224.354458 105.899847 
z
" clip-path="url(#p85d06f44ed)" style="fill: #3a923a; stroke: #3d3d3d; stroke-width: 1.5; stroke-linejoin: miter"/>
   </g>
   <g id="patch_14">
    <path d="M 238.003396 106.020505 
L 251.379354 106.020505 
L 251.379354 105.917371 
L 238.003396 105.917371 
L 238.003396 106.020505 
z
" clip-path="url(#p85d06f44ed)" style="fill: #c03d3e; stroke: #3d3d3d; stroke-width: 1.5; stroke-linejoin: miter"/>
   </g>
   <g id="patch_15">
    <path d="M 265.301271 81.219725 
L 278.677229 81.219725 
L 278.677229 75.052947 
L 265.301271 75.052947 
L 265.301271 81.219725 
z
" clip-path="url(#p85d06f44ed)" style="fill: #3274a1; stroke: #3d3d3d; stroke-width: 1.5; stroke-linejoin: miter"/>
   </g>
   <g id="patch_16">
    <path d="M 278.950208 78.021655 
L 292.326167 78.021655 
L 292.326167 73.694504 
L 278.950208 73.694504 
L 278.950208 78.021655 
z
" clip-path="url(#p85d06f44ed)" style="fill: #e1812c; stroke: #3d3d3d; stroke-width: 1.5; stroke-linejoin: miter"/>
   </g>
   <g id="patch_17">
    <path d="M 292.599146 76.585286 
L 305.975104 76.585286 
L 305.975104 74.439602 
L 292.599146 74.439602 
L 292.599146 76.585286 
z
" clip-path="url(#p85d06f44ed)" style="fill: #3a923a; stroke: #3d3d3d; stroke-width: 1.5; stroke-linejoin: miter"/>
   </g>
   <g id="patch_18">
    <path d="M 306.248083 73.535662 
L 319.624042 73.535662 
L 319.624042 66.778736 
L 306.248083 66.778736 
L 306.248083 73.535662 
z
" clip-path="url(#p85d06f44ed)" style="fill: #c03d3e; stroke: #3d3d3d; stroke-width: 1.5; stroke-linejoin: miter"/>
   </g>
   <g id="patch_19">
    <path d="M 87.728594 109.082586 
L 87.728594 109.082586 
L 87.728594 109.082586 
L 87.728594 109.082586 
z
" clip-path="url(#p85d06f44ed)" style="fill: #3274a1; stroke: #3d3d3d; stroke-width: 0.75; stroke-linejoin: miter"/>
   </g>
   <g id="patch_20">
    <path d="M 87.728594 109.082586 
L 87.728594 109.082586 
L 87.728594 109.082586 
L 87.728594 109.082586 
z
" clip-path="url(#p85d06f44ed)" style="fill: #e1812c; stroke: #3d3d3d; stroke-width: 0.75; stroke-linejoin: miter"/>
   </g>
   <g id="patch_21">
    <path d="M 87.728594 109.082586 
L 87.728594 109.082586 
L 87.728594 109.082586 
L 87.728594 109.082586 
z
" clip-path="url(#p85d06f44ed)" style="fill: #3a923a; stroke: #3d3d3d; stroke-width: 0.75; stroke-linejoin: miter"/>
   </g>
   <g id="patch_22">
    <path d="M 87.728594 109.082586 
L 87.728594 109.082586 
L 87.728594 109.082586 
L 87.728594 109.082586 
z
" clip-path="url(#p85d06f44ed)" style="fill: #c03d3e; stroke: #3d3d3d; stroke-width: 0.75; stroke-linejoin: miter"/>
   </g>
   <g id="matplotlib.axis_1">
    <g id="xtick_1">
     <g id="line2d_1">
      <defs>
       <path id="mfc7140ab07" d="M 0 0 
L 0 3.5 
" style="stroke: #000000; stroke-width: 0.8"/>
      </defs>
      <g>
       <use xlink:href="#mfc7140ab07" x="87.728594" y="110.018105" style="stroke: #000000; stroke-width: 0.8"/>
      </g>
     </g>
     <g id="text_1">
      <!-- proba_weak -->
      <g transform="translate(43.578614 164.873766) rotate(-45) scale(0.1 -0.1)">
       <defs>
        <path id="DejaVuSans-70" d="M 1159 525 
L 1159 -1331 
L 581 -1331 
L 581 3500 
L 1159 3500 
L 1159 2969 
Q 1341 3281 1617 3432 
Q 1894 3584 2278 3584 
Q 2916 3584 3314 3078 
Q 3713 2572 3713 1747 
Q 3713 922 3314 415 
Q 2916 -91 2278 -91 
Q 1894 -91 1617 61 
Q 1341 213 1159 525 
z
M 3116 1747 
Q 3116 2381 2855 2742 
Q 2594 3103 2138 3103 
Q 1681 3103 1420 2742 
Q 1159 2381 1159 1747 
Q 1159 1113 1420 752 
Q 1681 391 2138 391 
Q 2594 391 2855 752 
Q 3116 1113 3116 1747 
z
" transform="scale(0.015625)"/>
        <path id="DejaVuSans-72" d="M 2631 2963 
Q 2534 3019 2420 3045 
Q 2306 3072 2169 3072 
Q 1681 3072 1420 2755 
Q 1159 2438 1159 1844 
L 1159 0 
L 581 0 
L 581 3500 
L 1159 3500 
L 1159 2956 
Q 1341 3275 1631 3429 
Q 1922 3584 2338 3584 
Q 2397 3584 2469 3576 
Q 2541 3569 2628 3553 
L 2631 2963 
z
" transform="scale(0.015625)"/>
        <path id="DejaVuSans-6f" d="M 1959 3097 
Q 1497 3097 1228 2736 
Q 959 2375 959 1747 
Q 959 1119 1226 758 
Q 1494 397 1959 397 
Q 2419 397 2687 759 
Q 2956 1122 2956 1747 
Q 2956 2369 2687 2733 
Q 2419 3097 1959 3097 
z
M 1959 3584 
Q 2709 3584 3137 3096 
Q 3566 2609 3566 1747 
Q 3566 888 3137 398 
Q 2709 -91 1959 -91 
Q 1206 -91 779 398 
Q 353 888 353 1747 
Q 353 2609 779 3096 
Q 1206 3584 1959 3584 
z
" transform="scale(0.015625)"/>
        <path id="DejaVuSans-62" d="M 3116 1747 
Q 3116 2381 2855 2742 
Q 2594 3103 2138 3103 
Q 1681 3103 1420 2742 
Q 1159 2381 1159 1747 
Q 1159 1113 1420 752 
Q 1681 391 2138 391 
Q 2594 391 2855 752 
Q 3116 1113 3116 1747 
z
M 1159 2969 
Q 1341 3281 1617 3432 
Q 1894 3584 2278 3584 
Q 2916 3584 3314 3078 
Q 3713 2572 3713 1747 
Q 3713 922 3314 415 
Q 2916 -91 2278 -91 
Q 1894 -91 1617 61 
Q 1341 213 1159 525 
L 1159 0 
L 581 0 
L 581 4863 
L 1159 4863 
L 1159 2969 
z
" transform="scale(0.015625)"/>
        <path id="DejaVuSans-61" d="M 2194 1759 
Q 1497 1759 1228 1600 
Q 959 1441 959 1056 
Q 959 750 1161 570 
Q 1363 391 1709 391 
Q 2188 391 2477 730 
Q 2766 1069 2766 1631 
L 2766 1759 
L 2194 1759 
z
M 3341 1997 
L 3341 0 
L 2766 0 
L 2766 531 
Q 2569 213 2275 61 
Q 1981 -91 1556 -91 
Q 1019 -91 701 211 
Q 384 513 384 1019 
Q 384 1609 779 1909 
Q 1175 2209 1959 2209 
L 2766 2209 
L 2766 2266 
Q 2766 2663 2505 2880 
Q 2244 3097 1772 3097 
Q 1472 3097 1187 3025 
Q 903 2953 641 2809 
L 641 3341 
Q 956 3463 1253 3523 
Q 1550 3584 1831 3584 
Q 2591 3584 2966 3190 
Q 3341 2797 3341 1997 
z
" transform="scale(0.015625)"/>
        <path id="DejaVuSans-5f" d="M 3263 -1063 
L 3263 -1509 
L -63 -1509 
L -63 -1063 
L 3263 -1063 
z
" transform="scale(0.015625)"/>
        <path id="DejaVuSans-77" d="M 269 3500 
L 844 3500 
L 1563 769 
L 2278 3500 
L 2956 3500 
L 3675 769 
L 4391 3500 
L 4966 3500 
L 4050 0 
L 3372 0 
L 2619 2869 
L 1863 0 
L 1184 0 
L 269 3500 
z
" transform="scale(0.015625)"/>
        <path id="DejaVuSans-65" d="M 3597 1894 
L 3597 1613 
L 953 1613 
Q 991 1019 1311 708 
Q 1631 397 2203 397 
Q 2534 397 2845 478 
Q 3156 559 3463 722 
L 3463 178 
Q 3153 47 2828 -22 
Q 2503 -91 2169 -91 
Q 1331 -91 842 396 
Q 353 884 353 1716 
Q 353 2575 817 3079 
Q 1281 3584 2069 3584 
Q 2775 3584 3186 3129 
Q 3597 2675 3597 1894 
z
M 3022 2063 
Q 3016 2534 2758 2815 
Q 2500 3097 2075 3097 
Q 1594 3097 1305 2825 
Q 1016 2553 972 2059 
L 3022 2063 
z
" transform="scale(0.015625)"/>
        <path id="DejaVuSans-6b" d="M 581 4863 
L 1159 4863 
L 1159 1991 
L 2875 3500 
L 3609 3500 
L 1753 1863 
L 3688 0 
L 2938 0 
L 1159 1709 
L 1159 0 
L 581 0 
L 581 4863 
z
" transform="scale(0.015625)"/>
       </defs>
       <use xlink:href="#DejaVuSans-70"/>
       <use xlink:href="#DejaVuSans-72" x="63.476562"/>
       <use xlink:href="#DejaVuSans-6f" x="102.339844"/>
       <use xlink:href="#DejaVuSans-62" x="163.521484"/>
       <use xlink:href="#DejaVuSans-61" x="226.998047"/>
       <use xlink:href="#DejaVuSans-5f" x="288.277344"/>
       <use xlink:href="#DejaVuSans-77" x="338.277344"/>
       <use xlink:href="#DejaVuSans-65" x="420.064453"/>
       <use xlink:href="#DejaVuSans-61" x="481.587891"/>
       <use xlink:href="#DejaVuSans-6b" x="542.867188"/>
      </g>
     </g>
    </g>
    <g id="xtick_2">
     <g id="line2d_2">
      <g>
       <use xlink:href="#mfc7140ab07" x="155.973281" y="110.018105" style="stroke: #000000; stroke-width: 0.8"/>
      </g>
     </g>
     <g id="text_2">
      <!-- embedding_weak -->
      <g transform="translate(92.217661 184.479407) rotate(-45) scale(0.1 -0.1)">
       <defs>
        <path id="DejaVuSans-6d" d="M 3328 2828 
Q 3544 3216 3844 3400 
Q 4144 3584 4550 3584 
Q 5097 3584 5394 3201 
Q 5691 2819 5691 2113 
L 5691 0 
L 5113 0 
L 5113 2094 
Q 5113 2597 4934 2840 
Q 4756 3084 4391 3084 
Q 3944 3084 3684 2787 
Q 3425 2491 3425 1978 
L 3425 0 
L 2847 0 
L 2847 2094 
Q 2847 2600 2669 2842 
Q 2491 3084 2119 3084 
Q 1678 3084 1418 2786 
Q 1159 2488 1159 1978 
L 1159 0 
L 581 0 
L 581 3500 
L 1159 3500 
L 1159 2956 
Q 1356 3278 1631 3431 
Q 1906 3584 2284 3584 
Q 2666 3584 2933 3390 
Q 3200 3197 3328 2828 
z
" transform="scale(0.015625)"/>
        <path id="DejaVuSans-64" d="M 2906 2969 
L 2906 4863 
L 3481 4863 
L 3481 0 
L 2906 0 
L 2906 525 
Q 2725 213 2448 61 
Q 2172 -91 1784 -91 
Q 1150 -91 751 415 
Q 353 922 353 1747 
Q 353 2572 751 3078 
Q 1150 3584 1784 3584 
Q 2172 3584 2448 3432 
Q 2725 3281 2906 2969 
z
M 947 1747 
Q 947 1113 1208 752 
Q 1469 391 1925 391 
Q 2381 391 2643 752 
Q 2906 1113 2906 1747 
Q 2906 2381 2643 2742 
Q 2381 3103 1925 3103 
Q 1469 3103 1208 2742 
Q 947 2381 947 1747 
z
" transform="scale(0.015625)"/>
        <path id="DejaVuSans-69" d="M 603 3500 
L 1178 3500 
L 1178 0 
L 603 0 
L 603 3500 
z
M 603 4863 
L 1178 4863 
L 1178 4134 
L 603 4134 
L 603 4863 
z
" transform="scale(0.015625)"/>
        <path id="DejaVuSans-6e" d="M 3513 2113 
L 3513 0 
L 2938 0 
L 2938 2094 
Q 2938 2591 2744 2837 
Q 2550 3084 2163 3084 
Q 1697 3084 1428 2787 
Q 1159 2491 1159 1978 
L 1159 0 
L 581 0 
L 581 3500 
L 1159 3500 
L 1159 2956 
Q 1366 3272 1645 3428 
Q 1925 3584 2291 3584 
Q 2894 3584 3203 3211 
Q 3513 2838 3513 2113 
z
" transform="scale(0.015625)"/>
        <path id="DejaVuSans-67" d="M 2906 1791 
Q 2906 2416 2648 2759 
Q 2391 3103 1925 3103 
Q 1463 3103 1205 2759 
Q 947 2416 947 1791 
Q 947 1169 1205 825 
Q 1463 481 1925 481 
Q 2391 481 2648 825 
Q 2906 1169 2906 1791 
z
M 3481 434 
Q 3481 -459 3084 -895 
Q 2688 -1331 1869 -1331 
Q 1566 -1331 1297 -1286 
Q 1028 -1241 775 -1147 
L 775 -588 
Q 1028 -725 1275 -790 
Q 1522 -856 1778 -856 
Q 2344 -856 2625 -561 
Q 2906 -266 2906 331 
L 2906 616 
Q 2728 306 2450 153 
Q 2172 0 1784 0 
Q 1141 0 747 490 
Q 353 981 353 1791 
Q 353 2603 747 3093 
Q 1141 3584 1784 3584 
Q 2172 3584 2450 3431 
Q 2728 3278 2906 2969 
L 2906 3500 
L 3481 3500 
L 3481 434 
z
" transform="scale(0.015625)"/>
       </defs>
       <use xlink:href="#DejaVuSans-65"/>
       <use xlink:href="#DejaVuSans-6d" x="61.523438"/>
       <use xlink:href="#DejaVuSans-62" x="158.935547"/>
       <use xlink:href="#DejaVuSans-65" x="222.412109"/>
       <use xlink:href="#DejaVuSans-64" x="283.935547"/>
       <use xlink:href="#DejaVuSans-64" x="347.412109"/>
       <use xlink:href="#DejaVuSans-69" x="410.888672"/>
       <use xlink:href="#DejaVuSans-6e" x="438.671875"/>
       <use xlink:href="#DejaVuSans-67" x="502.050781"/>
       <use xlink:href="#DejaVuSans-5f" x="565.527344"/>
       <use xlink:href="#DejaVuSans-77" x="615.527344"/>
       <use xlink:href="#DejaVuSans-65" x="697.314453"/>
       <use xlink:href="#DejaVuSans-61" x="758.837891"/>
       <use xlink:href="#DejaVuSans-6b" x="820.117188"/>
      </g>
     </g>
    </g>
    <g id="xtick_3">
     <g id="line2d_3">
      <g>
       <use xlink:href="#mfc7140ab07" x="224.217969" y="110.018105" style="stroke: #000000; stroke-width: 0.8"/>
      </g>
     </g>
     <g id="text_3">
      <!-- proba -->
      <g transform="translate(202.36174 142.776679) rotate(-45) scale(0.1 -0.1)">
       <use xlink:href="#DejaVuSans-70"/>
       <use xlink:href="#DejaVuSans-72" x="63.476562"/>
       <use xlink:href="#DejaVuSans-6f" x="102.339844"/>
       <use xlink:href="#DejaVuSans-62" x="163.521484"/>
       <use xlink:href="#DejaVuSans-61" x="226.998047"/>
      </g>
     </g>
    </g>
    <g id="xtick_4">
     <g id="line2d_4">
      <g>
       <use xlink:href="#mfc7140ab07" x="292.462656" y="110.018105" style="stroke: #000000; stroke-width: 0.8"/>
      </g>
     </g>
     <g id="text_4">
      <!-- embedding -->
      <g transform="translate(251.000787 162.38232) rotate(-45) scale(0.1 -0.1)">
       <use xlink:href="#DejaVuSans-65"/>
       <use xlink:href="#DejaVuSans-6d" x="61.523438"/>
       <use xlink:href="#DejaVuSans-62" x="158.935547"/>
       <use xlink:href="#DejaVuSans-65" x="222.412109"/>
       <use xlink:href="#DejaVuSans-64" x="283.935547"/>
       <use xlink:href="#DejaVuSans-64" x="347.412109"/>
       <use xlink:href="#DejaVuSans-69" x="410.888672"/>
       <use xlink:href="#DejaVuSans-6e" x="438.671875"/>
       <use xlink:href="#DejaVuSans-67" x="502.050781"/>
      </g>
     </g>
    </g>
    <g id="text_5">
     <!-- estimator_name -->
     <g transform="translate(149.376094 197.745069) scale(0.1 -0.1)">
      <defs>
       <path id="DejaVuSans-73" d="M 2834 3397 
L 2834 2853 
Q 2591 2978 2328 3040 
Q 2066 3103 1784 3103 
Q 1356 3103 1142 2972 
Q 928 2841 928 2578 
Q 928 2378 1081 2264 
Q 1234 2150 1697 2047 
L 1894 2003 
Q 2506 1872 2764 1633 
Q 3022 1394 3022 966 
Q 3022 478 2636 193 
Q 2250 -91 1575 -91 
Q 1294 -91 989 -36 
Q 684 19 347 128 
L 347 722 
Q 666 556 975 473 
Q 1284 391 1588 391 
Q 1994 391 2212 530 
Q 2431 669 2431 922 
Q 2431 1156 2273 1281 
Q 2116 1406 1581 1522 
L 1381 1569 
Q 847 1681 609 1914 
Q 372 2147 372 2553 
Q 372 3047 722 3315 
Q 1072 3584 1716 3584 
Q 2034 3584 2315 3537 
Q 2597 3491 2834 3397 
z
" transform="scale(0.015625)"/>
       <path id="DejaVuSans-74" d="M 1172 4494 
L 1172 3500 
L 2356 3500 
L 2356 3053 
L 1172 3053 
L 1172 1153 
Q 1172 725 1289 603 
Q 1406 481 1766 481 
L 2356 481 
L 2356 0 
L 1766 0 
Q 1100 0 847 248 
Q 594 497 594 1153 
L 594 3053 
L 172 3053 
L 172 3500 
L 594 3500 
L 594 4494 
L 1172 4494 
z
" transform="scale(0.015625)"/>
      </defs>
      <use xlink:href="#DejaVuSans-65"/>
      <use xlink:href="#DejaVuSans-73" x="61.523438"/>
      <use xlink:href="#DejaVuSans-74" x="113.623047"/>
      <use xlink:href="#DejaVuSans-69" x="152.832031"/>
      <use xlink:href="#DejaVuSans-6d" x="180.615234"/>
      <use xlink:href="#DejaVuSans-61" x="278.027344"/>
      <use xlink:href="#DejaVuSans-74" x="339.306641"/>
      <use xlink:href="#DejaVuSans-6f" x="378.515625"/>
      <use xlink:href="#DejaVuSans-72" x="439.697266"/>
      <use xlink:href="#DejaVuSans-5f" x="480.810547"/>
      <use xlink:href="#DejaVuSans-6e" x="530.810547"/>
      <use xlink:href="#DejaVuSans-61" x="594.189453"/>
      <use xlink:href="#DejaVuSans-6d" x="655.46875"/>
      <use xlink:href="#DejaVuSans-65" x="752.880859"/>
     </g>
    </g>
   </g>
   <g id="matplotlib.axis_2">
    <g id="ytick_1">
     <g id="line2d_5">
      <defs>
       <path id="mab65ab2f5d" d="M 0 0 
L -3.5 0 
" style="stroke: #000000; stroke-width: 0.8"/>
      </defs>
      <g>
       <use xlink:href="#mab65ab2f5d" x="53.60625" y="109.082586" style="stroke: #000000; stroke-width: 0.8"/>
      </g>
     </g>
     <g id="text_6">
      <!-- 0 -->
      <g transform="translate(40.24375 112.881805) scale(0.1 -0.1)">
       <defs>
        <path id="DejaVuSans-30" d="M 2034 4250 
Q 1547 4250 1301 3770 
Q 1056 3291 1056 2328 
Q 1056 1369 1301 889 
Q 1547 409 2034 409 
Q 2525 409 2770 889 
Q 3016 1369 3016 2328 
Q 3016 3291 2770 3770 
Q 2525 4250 2034 4250 
z
M 2034 4750 
Q 2819 4750 3233 4129 
Q 3647 3509 3647 2328 
Q 3647 1150 3233 529 
Q 2819 -91 2034 -91 
Q 1250 -91 836 529 
Q 422 1150 422 2328 
Q 422 3509 836 4129 
Q 1250 4750 2034 4750 
z
" transform="scale(0.015625)"/>
       </defs>
       <use xlink:href="#DejaVuSans-30"/>
      </g>
     </g>
    </g>
    <g id="ytick_2">
     <g id="line2d_6">
      <g>
       <use xlink:href="#mab65ab2f5d" x="53.60625" y="69.44761" style="stroke: #000000; stroke-width: 0.8"/>
      </g>
     </g>
     <g id="text_7">
      <!-- 500 -->
      <g transform="translate(27.51875 73.246829) scale(0.1 -0.1)">
       <defs>
        <path id="DejaVuSans-35" d="M 691 4666 
L 3169 4666 
L 3169 4134 
L 1269 4134 
L 1269 2991 
Q 1406 3038 1543 3061 
Q 1681 3084 1819 3084 
Q 2600 3084 3056 2656 
Q 3513 2228 3513 1497 
Q 3513 744 3044 326 
Q 2575 -91 1722 -91 
Q 1428 -91 1123 -41 
Q 819 9 494 109 
L 494 744 
Q 775 591 1075 516 
Q 1375 441 1709 441 
Q 2250 441 2565 725 
Q 2881 1009 2881 1497 
Q 2881 1984 2565 2268 
Q 2250 2553 1709 2553 
Q 1456 2553 1204 2497 
Q 953 2441 691 2322 
L 691 4666 
z
" transform="scale(0.015625)"/>
       </defs>
       <use xlink:href="#DejaVuSans-35"/>
       <use xlink:href="#DejaVuSans-30" x="63.623047"/>
       <use xlink:href="#DejaVuSans-30" x="127.246094"/>
      </g>
     </g>
    </g>
    <g id="ytick_3">
     <g id="line2d_7">
      <g>
       <use xlink:href="#mab65ab2f5d" x="53.60625" y="29.812634" style="stroke: #000000; stroke-width: 0.8"/>
      </g>
     </g>
     <g id="text_8">
      <!-- 1000 -->
      <g transform="translate(21.15625 33.611853) scale(0.1 -0.1)">
       <defs>
        <path id="DejaVuSans-31" d="M 794 531 
L 1825 531 
L 1825 4091 
L 703 3866 
L 703 4441 
L 1819 4666 
L 2450 4666 
L 2450 531 
L 3481 531 
L 3481 0 
L 794 0 
L 794 531 
z
" transform="scale(0.015625)"/>
       </defs>
       <use xlink:href="#DejaVuSans-31"/>
       <use xlink:href="#DejaVuSans-30" x="63.623047"/>
       <use xlink:href="#DejaVuSans-30" x="127.246094"/>
       <use xlink:href="#DejaVuSans-30" x="190.869141"/>
      </g>
     </g>
    </g>
    <g id="text_9">
     <!-- fit_time -->
     <g transform="translate(14.798437 85.073584) rotate(-90) scale(0.1 -0.1)">
      <defs>
       <path id="DejaVuSans-66" d="M 2375 4863 
L 2375 4384 
L 1825 4384 
Q 1516 4384 1395 4259 
Q 1275 4134 1275 3809 
L 1275 3500 
L 2222 3500 
L 2222 3053 
L 1275 3053 
L 1275 0 
L 697 0 
L 697 3053 
L 147 3053 
L 147 3500 
L 697 3500 
L 697 3744 
Q 697 4328 969 4595 
Q 1241 4863 1831 4863 
L 2375 4863 
z
" transform="scale(0.015625)"/>
      </defs>
      <use xlink:href="#DejaVuSans-66"/>
      <use xlink:href="#DejaVuSans-69" x="35.205078"/>
      <use xlink:href="#DejaVuSans-74" x="62.988281"/>
      <use xlink:href="#DejaVuSans-5f" x="102.197266"/>
      <use xlink:href="#DejaVuSans-74" x="152.197266"/>
      <use xlink:href="#DejaVuSans-69" x="191.40625"/>
      <use xlink:href="#DejaVuSans-6d" x="219.189453"/>
      <use xlink:href="#DejaVuSans-65" x="316.601562"/>
     </g>
    </g>
   </g>
   <g id="line2d_8">
    <path d="M 67.255188 102.417324 
L 67.255188 102.454815 
" clip-path="url(#p85d06f44ed)" style="fill: none; stroke: #3d3d3d; stroke-width: 1.5; stroke-linecap: square"/>
   </g>
   <g id="line2d_9">
    <path d="M 67.255188 102.129373 
L 67.255188 102.002606 
" clip-path="url(#p85d06f44ed)" style="fill: none; stroke: #3d3d3d; stroke-width: 1.5; stroke-linecap: square"/>
   </g>
   <g id="line2d_10">
    <path d="M 63.911198 102.454815 
L 70.599177 102.454815 
" clip-path="url(#p85d06f44ed)" style="fill: none; stroke: #3d3d3d; stroke-width: 1.5; stroke-linecap: square"/>
   </g>
   <g id="line2d_11">
    <path d="M 63.911198 102.002606 
L 70.599177 102.002606 
" clip-path="url(#p85d06f44ed)" style="fill: none; stroke: #3d3d3d; stroke-width: 1.5; stroke-linecap: square"/>
   </g>
   <g id="line2d_12"/>
   <g id="line2d_13">
    <path d="M 80.904125 102.317811 
L 80.904125 102.424293 
" clip-path="url(#p85d06f44ed)" style="fill: none; stroke: #3d3d3d; stroke-width: 1.5; stroke-linecap: square"/>
   </g>
   <g id="line2d_14">
    <path d="M 80.904125 101.992548 
L 80.904125 101.967282 
" clip-path="url(#p85d06f44ed)" style="fill: none; stroke: #3d3d3d; stroke-width: 1.5; stroke-linecap: square"/>
   </g>
   <g id="line2d_15">
    <path d="M 77.560135 102.424293 
L 84.248115 102.424293 
" clip-path="url(#p85d06f44ed)" style="fill: none; stroke: #3d3d3d; stroke-width: 1.5; stroke-linecap: square"/>
   </g>
   <g id="line2d_16">
    <path d="M 77.560135 101.967282 
L 84.248115 101.967282 
" clip-path="url(#p85d06f44ed)" style="fill: none; stroke: #3d3d3d; stroke-width: 1.5; stroke-linecap: square"/>
   </g>
   <g id="line2d_17"/>
   <g id="line2d_18">
    <path d="M 94.553063 102.326463 
L 94.553063 102.333497 
" clip-path="url(#p85d06f44ed)" style="fill: none; stroke: #3d3d3d; stroke-width: 1.5; stroke-linecap: square"/>
   </g>
   <g id="line2d_19">
    <path d="M 94.553063 102.080533 
L 94.553063 102.069565 
" clip-path="url(#p85d06f44ed)" style="fill: none; stroke: #3d3d3d; stroke-width: 1.5; stroke-linecap: square"/>
   </g>
   <g id="line2d_20">
    <path d="M 91.209073 102.333497 
L 97.897052 102.333497 
" clip-path="url(#p85d06f44ed)" style="fill: none; stroke: #3d3d3d; stroke-width: 1.5; stroke-linecap: square"/>
   </g>
   <g id="line2d_21">
    <path d="M 91.209073 102.069565 
L 97.897052 102.069565 
" clip-path="url(#p85d06f44ed)" style="fill: none; stroke: #3d3d3d; stroke-width: 1.5; stroke-linecap: square"/>
   </g>
   <g id="line2d_22"/>
   <g id="line2d_23">
    <path d="M 108.202 102.627571 
L 108.202 102.739237 
" clip-path="url(#p85d06f44ed)" style="fill: none; stroke: #3d3d3d; stroke-width: 1.5; stroke-linecap: square"/>
   </g>
   <g id="line2d_24">
    <path d="M 108.202 102.428156 
L 108.202 102.260312 
" clip-path="url(#p85d06f44ed)" style="fill: none; stroke: #3d3d3d; stroke-width: 1.5; stroke-linecap: square"/>
   </g>
   <g id="line2d_25">
    <path d="M 104.85801 102.739237 
L 111.54599 102.739237 
" clip-path="url(#p85d06f44ed)" style="fill: none; stroke: #3d3d3d; stroke-width: 1.5; stroke-linecap: square"/>
   </g>
   <g id="line2d_26">
    <path d="M 104.85801 102.260312 
L 111.54599 102.260312 
" clip-path="url(#p85d06f44ed)" style="fill: none; stroke: #3d3d3d; stroke-width: 1.5; stroke-linecap: square"/>
   </g>
   <g id="line2d_27"/>
   <g id="line2d_28">
    <path d="M 135.499875 70.280459 
L 135.499875 70.961606 
" clip-path="url(#p85d06f44ed)" style="fill: none; stroke: #3d3d3d; stroke-width: 1.5; stroke-linecap: square"/>
   </g>
   <g id="line2d_29">
    <path d="M 135.499875 64.039403 
L 135.499875 59.607804 
" clip-path="url(#p85d06f44ed)" style="fill: none; stroke: #3d3d3d; stroke-width: 1.5; stroke-linecap: square"/>
   </g>
   <g id="line2d_30">
    <path d="M 132.155885 70.961606 
L 138.843865 70.961606 
" clip-path="url(#p85d06f44ed)" style="fill: none; stroke: #3d3d3d; stroke-width: 1.5; stroke-linecap: square"/>
   </g>
   <g id="line2d_31">
    <path d="M 132.155885 59.607804 
L 138.843865 59.607804 
" clip-path="url(#p85d06f44ed)" style="fill: none; stroke: #3d3d3d; stroke-width: 1.5; stroke-linecap: square"/>
   </g>
   <g id="line2d_32"/>
   <g id="line2d_33">
    <path d="M 149.148812 66.007152 
L 149.148812 66.158004 
" clip-path="url(#p85d06f44ed)" style="fill: none; stroke: #3d3d3d; stroke-width: 1.5; stroke-linecap: square"/>
   </g>
   <g id="line2d_34">
    <path d="M 149.148812 62.513008 
L 149.148812 58.717326 
" clip-path="url(#p85d06f44ed)" style="fill: none; stroke: #3d3d3d; stroke-width: 1.5; stroke-linecap: square"/>
   </g>
   <g id="line2d_35">
    <path d="M 145.804823 66.158004 
L 152.492802 66.158004 
" clip-path="url(#p85d06f44ed)" style="fill: none; stroke: #3d3d3d; stroke-width: 1.5; stroke-linecap: square"/>
   </g>
   <g id="line2d_36">
    <path d="M 145.804823 58.717326 
L 152.492802 58.717326 
" clip-path="url(#p85d06f44ed)" style="fill: none; stroke: #3d3d3d; stroke-width: 1.5; stroke-linecap: square"/>
   </g>
   <g id="line2d_37"/>
   <g id="line2d_38">
    <path d="M 162.79775 67.739988 
L 162.79775 68.460549 
" clip-path="url(#p85d06f44ed)" style="fill: none; stroke: #3d3d3d; stroke-width: 1.5; stroke-linecap: square"/>
   </g>
   <g id="line2d_39">
    <path d="M 162.79775 59.673122 
L 162.79775 57.236301 
" clip-path="url(#p85d06f44ed)" style="fill: none; stroke: #3d3d3d; stroke-width: 1.5; stroke-linecap: square"/>
   </g>
   <g id="line2d_40">
    <path d="M 159.45376 68.460549 
L 166.14174 68.460549 
" clip-path="url(#p85d06f44ed)" style="fill: none; stroke: #3d3d3d; stroke-width: 1.5; stroke-linecap: square"/>
   </g>
   <g id="line2d_41">
    <path d="M 159.45376 57.236301 
L 166.14174 57.236301 
" clip-path="url(#p85d06f44ed)" style="fill: none; stroke: #3d3d3d; stroke-width: 1.5; stroke-linecap: square"/>
   </g>
   <g id="line2d_42"/>
   <g id="line2d_43">
    <path d="M 176.446687 39.238258 
L 176.446687 43.332863 
" clip-path="url(#p85d06f44ed)" style="fill: none; stroke: #3d3d3d; stroke-width: 1.5; stroke-linecap: square"/>
   </g>
   <g id="line2d_44">
    <path d="M 176.446687 31.367334 
L 176.446687 26.304488 
" clip-path="url(#p85d06f44ed)" style="fill: none; stroke: #3d3d3d; stroke-width: 1.5; stroke-linecap: square"/>
   </g>
   <g id="line2d_45">
    <path d="M 173.102698 43.332863 
L 179.790677 43.332863 
" clip-path="url(#p85d06f44ed)" style="fill: none; stroke: #3d3d3d; stroke-width: 1.5; stroke-linecap: square"/>
   </g>
   <g id="line2d_46">
    <path d="M 173.102698 26.304488 
L 179.790677 26.304488 
" clip-path="url(#p85d06f44ed)" style="fill: none; stroke: #3d3d3d; stroke-width: 1.5; stroke-linecap: square"/>
   </g>
   <g id="line2d_47"/>
   <g id="line2d_48">
    <path d="M 203.744563 105.98102 
L 203.744563 105.987671 
" clip-path="url(#p85d06f44ed)" style="fill: none; stroke: #3d3d3d; stroke-width: 1.5; stroke-linecap: square"/>
   </g>
   <g id="line2d_49">
    <path d="M 203.744563 105.799374 
L 203.744563 105.705575 
" clip-path="url(#p85d06f44ed)" style="fill: none; stroke: #3d3d3d; stroke-width: 1.5; stroke-linecap: square"/>
   </g>
   <g id="line2d_50">
    <path d="M 200.400573 105.987671 
L 207.088552 105.987671 
" clip-path="url(#p85d06f44ed)" style="fill: none; stroke: #3d3d3d; stroke-width: 1.5; stroke-linecap: square"/>
   </g>
   <g id="line2d_51">
    <path d="M 200.400573 105.705575 
L 207.088552 105.705575 
" clip-path="url(#p85d06f44ed)" style="fill: none; stroke: #3d3d3d; stroke-width: 1.5; stroke-linecap: square"/>
   </g>
   <g id="line2d_52"/>
   <g id="line2d_53">
    <path d="M 217.3935 105.846323 
L 217.3935 105.895817 
" clip-path="url(#p85d06f44ed)" style="fill: none; stroke: #3d3d3d; stroke-width: 1.5; stroke-linecap: square"/>
   </g>
   <g id="line2d_54">
    <path d="M 217.3935 105.775421 
L 217.3935 105.707626 
" clip-path="url(#p85d06f44ed)" style="fill: none; stroke: #3d3d3d; stroke-width: 1.5; stroke-linecap: square"/>
   </g>
   <g id="line2d_55">
    <path d="M 214.04951 105.895817 
L 220.73749 105.895817 
" clip-path="url(#p85d06f44ed)" style="fill: none; stroke: #3d3d3d; stroke-width: 1.5; stroke-linecap: square"/>
   </g>
   <g id="line2d_56">
    <path d="M 214.04951 105.707626 
L 220.73749 105.707626 
" clip-path="url(#p85d06f44ed)" style="fill: none; stroke: #3d3d3d; stroke-width: 1.5; stroke-linecap: square"/>
   </g>
   <g id="line2d_57"/>
   <g id="line2d_58">
    <path d="M 231.042438 105.899847 
L 231.042438 105.912957 
" clip-path="url(#p85d06f44ed)" style="fill: none; stroke: #3d3d3d; stroke-width: 1.5; stroke-linecap: square"/>
   </g>
   <g id="line2d_59">
    <path d="M 231.042438 105.839397 
L 231.042438 105.839397 
" clip-path="url(#p85d06f44ed)" style="fill: none; stroke: #3d3d3d; stroke-width: 1.5; stroke-linecap: square"/>
   </g>
   <g id="line2d_60">
    <path d="M 227.698448 105.912957 
L 234.386427 105.912957 
" clip-path="url(#p85d06f44ed)" style="fill: none; stroke: #3d3d3d; stroke-width: 1.5; stroke-linecap: square"/>
   </g>
   <g id="line2d_61">
    <path d="M 227.698448 105.839397 
L 234.386427 105.839397 
" clip-path="url(#p85d06f44ed)" style="fill: none; stroke: #3d3d3d; stroke-width: 1.5; stroke-linecap: square"/>
   </g>
   <g id="line2d_62">
    <defs>
     <path id="m0ed215837a" d="M -0 3.535534 
L 2.12132 0 
L -0 -3.535534 
L -2.12132 -0 
z
" style="stroke: #3d3d3d; stroke-linejoin: miter"/>
    </defs>
    <g clip-path="url(#p85d06f44ed)">
     <use xlink:href="#m0ed215837a" x="231.042438" y="105.714445" style="fill: #3d3d3d; stroke: #3d3d3d; stroke-linejoin: miter"/>
    </g>
   </g>
   <g id="line2d_63">
    <path d="M 244.691375 106.020505 
L 244.691375 106.031742 
" clip-path="url(#p85d06f44ed)" style="fill: none; stroke: #3d3d3d; stroke-width: 1.5; stroke-linecap: square"/>
   </g>
   <g id="line2d_64">
    <path d="M 244.691375 105.917371 
L 244.691375 105.879321 
" clip-path="url(#p85d06f44ed)" style="fill: none; stroke: #3d3d3d; stroke-width: 1.5; stroke-linecap: square"/>
   </g>
   <g id="line2d_65">
    <path d="M 241.347385 106.031742 
L 248.035365 106.031742 
" clip-path="url(#p85d06f44ed)" style="fill: none; stroke: #3d3d3d; stroke-width: 1.5; stroke-linecap: square"/>
   </g>
   <g id="line2d_66">
    <path d="M 241.347385 105.879321 
L 248.035365 105.879321 
" clip-path="url(#p85d06f44ed)" style="fill: none; stroke: #3d3d3d; stroke-width: 1.5; stroke-linecap: square"/>
   </g>
   <g id="line2d_67"/>
   <g id="line2d_68">
    <path d="M 271.98925 81.219725 
L 271.98925 81.267898 
" clip-path="url(#p85d06f44ed)" style="fill: none; stroke: #3d3d3d; stroke-width: 1.5; stroke-linecap: square"/>
   </g>
   <g id="line2d_69">
    <path d="M 271.98925 75.052947 
L 271.98925 67.944432 
" clip-path="url(#p85d06f44ed)" style="fill: none; stroke: #3d3d3d; stroke-width: 1.5; stroke-linecap: square"/>
   </g>
   <g id="line2d_70">
    <path d="M 268.64526 81.267898 
L 275.33324 81.267898 
" clip-path="url(#p85d06f44ed)" style="fill: none; stroke: #3d3d3d; stroke-width: 1.5; stroke-linecap: square"/>
   </g>
   <g id="line2d_71">
    <path d="M 268.64526 67.944432 
L 275.33324 67.944432 
" clip-path="url(#p85d06f44ed)" style="fill: none; stroke: #3d3d3d; stroke-width: 1.5; stroke-linecap: square"/>
   </g>
   <g id="line2d_72"/>
   <g id="line2d_73">
    <path d="M 285.638188 78.021655 
L 285.638188 78.427744 
" clip-path="url(#p85d06f44ed)" style="fill: none; stroke: #3d3d3d; stroke-width: 1.5; stroke-linecap: square"/>
   </g>
   <g id="line2d_74">
    <path d="M 285.638188 73.694504 
L 285.638188 70.287782 
" clip-path="url(#p85d06f44ed)" style="fill: none; stroke: #3d3d3d; stroke-width: 1.5; stroke-linecap: square"/>
   </g>
   <g id="line2d_75">
    <path d="M 282.294198 78.427744 
L 288.982177 78.427744 
" clip-path="url(#p85d06f44ed)" style="fill: none; stroke: #3d3d3d; stroke-width: 1.5; stroke-linecap: square"/>
   </g>
   <g id="line2d_76">
    <path d="M 282.294198 70.287782 
L 288.982177 70.287782 
" clip-path="url(#p85d06f44ed)" style="fill: none; stroke: #3d3d3d; stroke-width: 1.5; stroke-linecap: square"/>
   </g>
   <g id="line2d_77"/>
   <g id="line2d_78">
    <path d="M 299.287125 76.585286 
L 299.287125 77.77384 
" clip-path="url(#p85d06f44ed)" style="fill: none; stroke: #3d3d3d; stroke-width: 1.5; stroke-linecap: square"/>
   </g>
   <g id="line2d_79">
    <path d="M 299.287125 74.439602 
L 299.287125 74.439602 
" clip-path="url(#p85d06f44ed)" style="fill: none; stroke: #3d3d3d; stroke-width: 1.5; stroke-linecap: square"/>
   </g>
   <g id="line2d_80">
    <path d="M 295.943135 77.77384 
L 302.631115 77.77384 
" clip-path="url(#p85d06f44ed)" style="fill: none; stroke: #3d3d3d; stroke-width: 1.5; stroke-linecap: square"/>
   </g>
   <g id="line2d_81">
    <path d="M 295.943135 74.439602 
L 302.631115 74.439602 
" clip-path="url(#p85d06f44ed)" style="fill: none; stroke: #3d3d3d; stroke-width: 1.5; stroke-linecap: square"/>
   </g>
   <g id="line2d_82">
    <g clip-path="url(#p85d06f44ed)">
     <use xlink:href="#m0ed215837a" x="299.287125" y="68.781123" style="fill: #3d3d3d; stroke: #3d3d3d; stroke-linejoin: miter"/>
    </g>
   </g>
   <g id="line2d_83">
    <path d="M 312.936062 73.535662 
L 312.936062 73.704417 
" clip-path="url(#p85d06f44ed)" style="fill: none; stroke: #3d3d3d; stroke-width: 1.5; stroke-linecap: square"/>
   </g>
   <g id="line2d_84">
    <path d="M 312.936062 66.778736 
L 312.936062 62.504575 
" clip-path="url(#p85d06f44ed)" style="fill: none; stroke: #3d3d3d; stroke-width: 1.5; stroke-linecap: square"/>
   </g>
   <g id="line2d_85">
    <path d="M 309.592073 73.704417 
L 316.280052 73.704417 
" clip-path="url(#p85d06f44ed)" style="fill: none; stroke: #3d3d3d; stroke-width: 1.5; stroke-linecap: square"/>
   </g>
   <g id="line2d_86">
    <path d="M 309.592073 62.504575 
L 316.280052 62.504575 
" clip-path="url(#p85d06f44ed)" style="fill: none; stroke: #3d3d3d; stroke-width: 1.5; stroke-linecap: square"/>
   </g>
   <g id="line2d_87"/>
   <g id="line2d_88">
    <path d="M 60.567208 102.410354 
L 73.943167 102.410354 
" clip-path="url(#p85d06f44ed)" style="fill: none; stroke: #3d3d3d; stroke-width: 1.5; stroke-linecap: square"/>
   </g>
   <g id="line2d_89">
    <path d="M 74.216146 102.311769 
L 87.592104 102.311769 
" clip-path="url(#p85d06f44ed)" style="fill: none; stroke: #3d3d3d; stroke-width: 1.5; stroke-linecap: square"/>
   </g>
   <g id="line2d_90">
    <path d="M 87.865083 102.256932 
L 101.241042 102.256932 
" clip-path="url(#p85d06f44ed)" style="fill: none; stroke: #3d3d3d; stroke-width: 1.5; stroke-linecap: square"/>
   </g>
   <g id="line2d_91">
    <path d="M 101.514021 102.596257 
L 114.889979 102.596257 
" clip-path="url(#p85d06f44ed)" style="fill: none; stroke: #3d3d3d; stroke-width: 1.5; stroke-linecap: square"/>
   </g>
   <g id="line2d_92">
    <path d="M 128.811896 64.652202 
L 142.187854 64.652202 
" clip-path="url(#p85d06f44ed)" style="fill: none; stroke: #3d3d3d; stroke-width: 1.5; stroke-linecap: square"/>
   </g>
   <g id="line2d_93">
    <path d="M 142.460833 64.797767 
L 155.836792 64.797767 
" clip-path="url(#p85d06f44ed)" style="fill: none; stroke: #3d3d3d; stroke-width: 1.5; stroke-linecap: square"/>
   </g>
   <g id="line2d_94">
    <path d="M 156.109771 60.143198 
L 169.485729 60.143198 
" clip-path="url(#p85d06f44ed)" style="fill: none; stroke: #3d3d3d; stroke-width: 1.5; stroke-linecap: square"/>
   </g>
   <g id="line2d_95">
    <path d="M 169.758708 35.941185 
L 183.134667 35.941185 
" clip-path="url(#p85d06f44ed)" style="fill: none; stroke: #3d3d3d; stroke-width: 1.5; stroke-linecap: square"/>
   </g>
   <g id="line2d_96">
    <path d="M 197.056583 105.956031 
L 210.432542 105.956031 
" clip-path="url(#p85d06f44ed)" style="fill: none; stroke: #3d3d3d; stroke-width: 1.5; stroke-linecap: square"/>
   </g>
   <g id="line2d_97">
    <path d="M 210.705521 105.803237 
L 224.081479 105.803237 
" clip-path="url(#p85d06f44ed)" style="fill: none; stroke: #3d3d3d; stroke-width: 1.5; stroke-linecap: square"/>
   </g>
   <g id="line2d_98">
    <path d="M 224.354458 105.879723 
L 237.730417 105.879723 
" clip-path="url(#p85d06f44ed)" style="fill: none; stroke: #3d3d3d; stroke-width: 1.5; stroke-linecap: square"/>
   </g>
   <g id="line2d_99">
    <path d="M 238.003396 106.009445 
L 251.379354 106.009445 
" clip-path="url(#p85d06f44ed)" style="fill: none; stroke: #3d3d3d; stroke-width: 1.5; stroke-linecap: square"/>
   </g>
   <g id="line2d_100">
    <path d="M 265.301271 77.933227 
L 278.677229 77.933227 
" clip-path="url(#p85d06f44ed)" style="fill: none; stroke: #3d3d3d; stroke-width: 1.5; stroke-linecap: square"/>
   </g>
   <g id="line2d_101">
    <path d="M 278.950208 73.940788 
L 292.326167 73.940788 
" clip-path="url(#p85d06f44ed)" style="fill: none; stroke: #3d3d3d; stroke-width: 1.5; stroke-linecap: square"/>
   </g>
   <g id="line2d_102">
    <path d="M 292.599146 76.051537 
L 305.975104 76.051537 
" clip-path="url(#p85d06f44ed)" style="fill: none; stroke: #3d3d3d; stroke-width: 1.5; stroke-linecap: square"/>
   </g>
   <g id="line2d_103">
    <path d="M 306.248083 70.26503 
L 319.624042 70.26503 
" clip-path="url(#p85d06f44ed)" style="fill: none; stroke: #3d3d3d; stroke-width: 1.5; stroke-linecap: square"/>
   </g>
   <g id="patch_23">
    <path d="M 53.60625 110.018105 
L 53.60625 22.318125 
" style="fill: none; stroke: #000000; stroke-width: 0.8; stroke-linejoin: miter; stroke-linecap: square"/>
   </g>
   <g id="patch_24">
    <path d="M 326.585 110.018105 
L 326.585 22.318125 
" style="fill: none; stroke: #000000; stroke-width: 0.8; stroke-linejoin: miter; stroke-linecap: square"/>
   </g>
   <g id="patch_25">
    <path d="M 53.60625 110.018105 
L 326.585 110.018105 
" style="fill: none; stroke: #000000; stroke-width: 0.8; stroke-linejoin: miter; stroke-linecap: square"/>
   </g>
   <g id="patch_26">
    <path d="M 53.60625 22.318125 
L 326.585 22.318125 
" style="fill: none; stroke: #000000; stroke-width: 0.8; stroke-linejoin: miter; stroke-linecap: square"/>
   </g>
   <g id="PathCollection_1">
    <defs>
     <path id="C0_0_fcc71ab1f4" d="M 0 1.5 
C 0.397805 1.5 0.77937 1.341951 1.06066 1.06066 
C 1.341951 0.77937 1.5 0.397805 1.5 -0 
C 1.5 -0.397805 1.341951 -0.77937 1.06066 -1.06066 
C 0.77937 -1.341951 0.397805 -1.5 0 -1.5 
C -0.397805 -1.5 -0.77937 -1.341951 -1.06066 -1.06066 
C -1.341951 -0.77937 -1.5 -0.397805 -1.5 0 
C -1.5 0.397805 -1.341951 0.77937 -1.06066 1.06066 
C -0.77937 1.341951 -0.397805 1.5 0 1.5 
z
"/>
    </defs>
    <g clip-path="url(#p85d06f44ed)">
     <use xlink:href="#C0_0_fcc71ab1f4" x="66.482386" y="102.002606" style="fill: #262626"/>
    </g>
    <g clip-path="url(#p85d06f44ed)">
     <use xlink:href="#C0_0_fcc71ab1f4" x="66.845131" y="102.410354" style="fill: #262626"/>
    </g>
    <g clip-path="url(#p85d06f44ed)">
     <use xlink:href="#C0_0_fcc71ab1f4" x="68.540545" y="102.129373" style="fill: #262626"/>
    </g>
    <g clip-path="url(#p85d06f44ed)">
     <use xlink:href="#C0_0_fcc71ab1f4" x="68.587419" y="102.417324" style="fill: #262626"/>
    </g>
    <g clip-path="url(#p85d06f44ed)">
     <use xlink:href="#C0_0_fcc71ab1f4" x="67.425403" y="102.454815" style="fill: #262626"/>
    </g>
   </g>
   <g id="PathCollection_2">
    <defs>
     <path id="C1_0_50b495a5e2" d="M 0 1.5 
C 0.397805 1.5 0.77937 1.341951 1.06066 1.06066 
C 1.341951 0.77937 1.5 0.397805 1.5 -0 
C 1.5 -0.397805 1.341951 -0.77937 1.06066 -1.06066 
C 0.77937 -1.341951 0.397805 -1.5 0 -1.5 
C -0.397805 -1.5 -0.77937 -1.341951 -1.06066 -1.06066 
C -1.341951 -0.77937 -1.5 -0.397805 -1.5 0 
C -1.5 0.397805 -1.341951 0.77937 -1.06066 1.06066 
C -0.77937 1.341951 -0.397805 1.5 0 1.5 
z
"/>
    </defs>
    <g clip-path="url(#p85d06f44ed)">
     <use xlink:href="#C1_0_50b495a5e2" x="79.815801" y="101.992548" style="fill: #191919"/>
    </g>
    <g clip-path="url(#p85d06f44ed)">
     <use xlink:href="#C1_0_50b495a5e2" x="80.414563" y="102.424293" style="fill: #191919"/>
    </g>
    <g clip-path="url(#p85d06f44ed)">
     <use xlink:href="#C1_0_50b495a5e2" x="80.64672" y="101.967282" style="fill: #191919"/>
    </g>
    <g clip-path="url(#p85d06f44ed)">
     <use xlink:href="#C1_0_50b495a5e2" x="80.246218" y="102.317811" style="fill: #191919"/>
    </g>
    <g clip-path="url(#p85d06f44ed)">
     <use xlink:href="#C1_0_50b495a5e2" x="80.201162" y="102.311769" style="fill: #191919"/>
    </g>
   </g>
   <g id="PathCollection_3">
    <defs>
     <path id="C2_0_6a414fd3c3" d="M 0 1.5 
C 0.397805 1.5 0.77937 1.341951 1.06066 1.06066 
C 1.341951 0.77937 1.5 0.397805 1.5 -0 
C 1.5 -0.397805 1.341951 -0.77937 1.06066 -1.06066 
C 0.77937 -1.341951 0.397805 -1.5 0 -1.5 
C -0.397805 -1.5 -0.77937 -1.341951 -1.06066 -1.06066 
C -1.341951 -0.77937 -1.5 -0.397805 -1.5 0 
C -1.5 0.397805 -1.341951 0.77937 -1.06066 1.06066 
C -0.77937 1.341951 -0.397805 1.5 0 1.5 
z
"/>
    </defs>
    <g clip-path="url(#p85d06f44ed)">
     <use xlink:href="#C2_0_6a414fd3c3" x="93.727582" y="102.080533" style="fill: #0d0d0d"/>
    </g>
    <g clip-path="url(#p85d06f44ed)">
     <use xlink:href="#C2_0_6a414fd3c3" x="95.883051" y="102.333497" style="fill: #0d0d0d"/>
    </g>
    <g clip-path="url(#p85d06f44ed)">
     <use xlink:href="#C2_0_6a414fd3c3" x="95.9212" y="102.069565" style="fill: #0d0d0d"/>
    </g>
    <g clip-path="url(#p85d06f44ed)">
     <use xlink:href="#C2_0_6a414fd3c3" x="94.557181" y="102.256932" style="fill: #0d0d0d"/>
    </g>
    <g clip-path="url(#p85d06f44ed)">
     <use xlink:href="#C2_0_6a414fd3c3" x="93.320893" y="102.326463" style="fill: #0d0d0d"/>
    </g>
   </g>
   <g id="PathCollection_4">
    <defs>
     <path id="C3_0_39e61c6687" d="M 0 1.5 
C 0.397805 1.5 0.77937 1.341951 1.06066 1.06066 
C 1.341951 0.77937 1.5 0.397805 1.5 -0 
C 1.5 -0.397805 1.341951 -0.77937 1.06066 -1.06066 
C 0.77937 -1.341951 0.397805 -1.5 0 -1.5 
C -0.397805 -1.5 -0.77937 -1.341951 -1.06066 -1.06066 
C -1.341951 -0.77937 -1.5 -0.397805 -1.5 0 
C -1.5 0.397805 -1.341951 0.77937 -1.06066 1.06066 
C -0.77937 1.341951 -0.397805 1.5 0 1.5 
z
"/>
    </defs>
    <g clip-path="url(#p85d06f44ed)">
     <use xlink:href="#C3_0_39e61c6687" x="107.839198" y="102.428156"/>
    </g>
    <g clip-path="url(#p85d06f44ed)">
     <use xlink:href="#C3_0_39e61c6687" x="108.661482" y="102.739237"/>
    </g>
    <g clip-path="url(#p85d06f44ed)">
     <use xlink:href="#C3_0_39e61c6687" x="108.436147" y="102.260312"/>
    </g>
    <g clip-path="url(#p85d06f44ed)">
     <use xlink:href="#C3_0_39e61c6687" x="106.788108" y="102.596257"/>
    </g>
    <g clip-path="url(#p85d06f44ed)">
     <use xlink:href="#C3_0_39e61c6687" x="106.574683" y="102.627571"/>
    </g>
   </g>
   <g id="PathCollection_5">
    <defs>
     <path id="C4_0_e548977227" d="M 0 1.5 
C 0.397805 1.5 0.77937 1.341951 1.06066 1.06066 
C 1.341951 0.77937 1.5 0.397805 1.5 -0 
C 1.5 -0.397805 1.341951 -0.77937 1.06066 -1.06066 
C 0.77937 -1.341951 0.397805 -1.5 0 -1.5 
C -0.397805 -1.5 -0.77937 -1.341951 -1.06066 -1.06066 
C -1.341951 -0.77937 -1.5 -0.397805 -1.5 0 
C -1.5 0.397805 -1.341951 0.77937 -1.06066 1.06066 
C -0.77937 1.341951 -0.397805 1.5 0 1.5 
z
"/>
    </defs>
    <g clip-path="url(#p85d06f44ed)">
     <use xlink:href="#C4_0_e548977227" x="135.444093" y="64.039403" style="fill: #262626"/>
    </g>
    <g clip-path="url(#p85d06f44ed)">
     <use xlink:href="#C4_0_e548977227" x="134.246476" y="59.607804" style="fill: #262626"/>
    </g>
    <g clip-path="url(#p85d06f44ed)">
     <use xlink:href="#C4_0_e548977227" x="134.818965" y="64.652202" style="fill: #262626"/>
    </g>
    <g clip-path="url(#p85d06f44ed)">
     <use xlink:href="#C4_0_e548977227" x="136.07522" y="70.280459" style="fill: #262626"/>
    </g>
    <g clip-path="url(#p85d06f44ed)">
     <use xlink:href="#C4_0_e548977227" x="135.428287" y="70.961606" style="fill: #262626"/>
    </g>
   </g>
   <g id="PathCollection_6">
    <defs>
     <path id="C5_0_b574537e4e" d="M 0 1.5 
C 0.397805 1.5 0.77937 1.341951 1.06066 1.06066 
C 1.341951 0.77937 1.5 0.397805 1.5 -0 
C 1.5 -0.397805 1.341951 -0.77937 1.06066 -1.06066 
C 0.77937 -1.341951 0.397805 -1.5 0 -1.5 
C -0.397805 -1.5 -0.77937 -1.341951 -1.06066 -1.06066 
C -1.341951 -0.77937 -1.5 -0.397805 -1.5 0 
C -1.5 0.397805 -1.341951 0.77937 -1.06066 1.06066 
C -0.77937 1.341951 -0.397805 1.5 0 1.5 
z
"/>
    </defs>
    <g clip-path="url(#p85d06f44ed)">
     <use xlink:href="#C5_0_b574537e4e" x="147.460306" y="64.797767" style="fill: #191919"/>
    </g>
    <g clip-path="url(#p85d06f44ed)">
     <use xlink:href="#C5_0_b574537e4e" x="148.173754" y="62.513008" style="fill: #191919"/>
    </g>
    <g clip-path="url(#p85d06f44ed)">
     <use xlink:href="#C5_0_b574537e4e" x="147.472023" y="58.717326" style="fill: #191919"/>
    </g>
    <g clip-path="url(#p85d06f44ed)">
     <use xlink:href="#C5_0_b574537e4e" x="147.815026" y="66.158004" style="fill: #191919"/>
    </g>
    <g clip-path="url(#p85d06f44ed)">
     <use xlink:href="#C5_0_b574537e4e" x="147.82333" y="66.007152" style="fill: #191919"/>
    </g>
   </g>
   <g id="PathCollection_7">
    <defs>
     <path id="C6_0_e3523fd15b" d="M 0 1.5 
C 0.397805 1.5 0.77937 1.341951 1.06066 1.06066 
C 1.341951 0.77937 1.5 0.397805 1.5 -0 
C 1.5 -0.397805 1.341951 -0.77937 1.06066 -1.06066 
C 0.77937 -1.341951 0.397805 -1.5 0 -1.5 
C -0.397805 -1.5 -0.77937 -1.341951 -1.06066 -1.06066 
C -1.341951 -0.77937 -1.5 -0.397805 -1.5 0 
C -1.5 0.397805 -1.341951 0.77937 -1.06066 1.06066 
C -0.77937 1.341951 -0.397805 1.5 0 1.5 
z
"/>
    </defs>
    <g clip-path="url(#p85d06f44ed)">
     <use xlink:href="#C6_0_e3523fd15b" x="162.010173" y="60.143198" style="fill: #0d0d0d"/>
    </g>
    <g clip-path="url(#p85d06f44ed)">
     <use xlink:href="#C6_0_e3523fd15b" x="163.504058" y="59.673122" style="fill: #0d0d0d"/>
    </g>
    <g clip-path="url(#p85d06f44ed)">
     <use xlink:href="#C6_0_e3523fd15b" x="164.021367" y="57.236301" style="fill: #0d0d0d"/>
    </g>
    <g clip-path="url(#p85d06f44ed)">
     <use xlink:href="#C6_0_e3523fd15b" x="161.890974" y="67.739988" style="fill: #0d0d0d"/>
    </g>
    <g clip-path="url(#p85d06f44ed)">
     <use xlink:href="#C6_0_e3523fd15b" x="161.187097" y="68.460549" style="fill: #0d0d0d"/>
    </g>
   </g>
   <g id="PathCollection_8">
    <defs>
     <path id="C7_0_7c40b149ad" d="M 0 1.5 
C 0.397805 1.5 0.77937 1.341951 1.06066 1.06066 
C 1.341951 0.77937 1.5 0.397805 1.5 -0 
C 1.5 -0.397805 1.341951 -0.77937 1.06066 -1.06066 
C 0.77937 -1.341951 0.397805 -1.5 0 -1.5 
C -0.397805 -1.5 -0.77937 -1.341951 -1.06066 -1.06066 
C -1.341951 -0.77937 -1.5 -0.397805 -1.5 0 
C -1.5 0.397805 -1.341951 0.77937 -1.06066 1.06066 
C -0.77937 1.341951 -0.397805 1.5 0 1.5 
z
"/>
    </defs>
    <g clip-path="url(#p85d06f44ed)">
     <use xlink:href="#C7_0_7c40b149ad" x="177.152893" y="35.941185"/>
    </g>
    <g clip-path="url(#p85d06f44ed)">
     <use xlink:href="#C7_0_7c40b149ad" x="176.569044" y="31.367334"/>
    </g>
    <g clip-path="url(#p85d06f44ed)">
     <use xlink:href="#C7_0_7c40b149ad" x="176.273103" y="26.304488"/>
    </g>
    <g clip-path="url(#p85d06f44ed)">
     <use xlink:href="#C7_0_7c40b149ad" x="177.001248" y="43.332863"/>
    </g>
    <g clip-path="url(#p85d06f44ed)">
     <use xlink:href="#C7_0_7c40b149ad" x="174.855241" y="39.238258"/>
    </g>
   </g>
   <g id="PathCollection_9">
    <defs>
     <path id="C8_0_a93a4e259b" d="M 0 1.5 
C 0.397805 1.5 0.77937 1.341951 1.06066 1.06066 
C 1.341951 0.77937 1.5 0.397805 1.5 -0 
C 1.5 -0.397805 1.341951 -0.77937 1.06066 -1.06066 
C 0.77937 -1.341951 0.397805 -1.5 0 -1.5 
C -0.397805 -1.5 -0.77937 -1.341951 -1.06066 -1.06066 
C -1.341951 -0.77937 -1.5 -0.397805 -1.5 0 
C -1.5 0.397805 -1.341951 0.77937 -1.06066 1.06066 
C -0.77937 1.341951 -0.397805 1.5 0 1.5 
z
"/>
    </defs>
    <g clip-path="url(#p85d06f44ed)">
     <use xlink:href="#C8_0_a93a4e259b" x="203.580871" y="105.956031" style="fill: #262626"/>
    </g>
    <g clip-path="url(#p85d06f44ed)">
     <use xlink:href="#C8_0_a93a4e259b" x="204.031008" y="105.799374" style="fill: #262626"/>
    </g>
    <g clip-path="url(#p85d06f44ed)">
     <use xlink:href="#C8_0_a93a4e259b" x="202.670465" y="105.705575" style="fill: #262626"/>
    </g>
    <g clip-path="url(#p85d06f44ed)">
     <use xlink:href="#C8_0_a93a4e259b" x="205.397612" y="105.98102" style="fill: #262626"/>
    </g>
    <g clip-path="url(#p85d06f44ed)">
     <use xlink:href="#C8_0_a93a4e259b" x="204.029067" y="105.987671" style="fill: #262626"/>
    </g>
   </g>
   <g id="PathCollection_10">
    <defs>
     <path id="C9_0_cf50f42fa7" d="M 0 1.5 
C 0.397805 1.5 0.77937 1.341951 1.06066 1.06066 
C 1.341951 0.77937 1.5 0.397805 1.5 -0 
C 1.5 -0.397805 1.341951 -0.77937 1.06066 -1.06066 
C 0.77937 -1.341951 0.397805 -1.5 0 -1.5 
C -0.397805 -1.5 -0.77937 -1.341951 -1.06066 -1.06066 
C -1.341951 -0.77937 -1.5 -0.397805 -1.5 0 
C -1.5 0.397805 -1.341951 0.77937 -1.06066 1.06066 
C -0.77937 1.341951 -0.397805 1.5 0 1.5 
z
"/>
    </defs>
    <g clip-path="url(#p85d06f44ed)">
     <use xlink:href="#C9_0_cf50f42fa7" x="216.308733" y="105.707626" style="fill: #191919"/>
    </g>
    <g clip-path="url(#p85d06f44ed)">
     <use xlink:href="#C9_0_cf50f42fa7" x="216.870925" y="105.775421" style="fill: #191919"/>
    </g>
    <g clip-path="url(#p85d06f44ed)">
     <use xlink:href="#C9_0_cf50f42fa7" x="218.550309" y="105.803237" style="fill: #191919"/>
    </g>
    <g clip-path="url(#p85d06f44ed)">
     <use xlink:href="#C9_0_cf50f42fa7" x="217.430154" y="105.895817" style="fill: #191919"/>
    </g>
    <g clip-path="url(#p85d06f44ed)">
     <use xlink:href="#C9_0_cf50f42fa7" x="217.459983" y="105.846323" style="fill: #191919"/>
    </g>
   </g>
   <g id="PathCollection_11">
    <defs>
     <path id="Ca_0_62ace796dc" d="M 0 1.5 
C 0.397805 1.5 0.77937 1.341951 1.06066 1.06066 
C 1.341951 0.77937 1.5 0.397805 1.5 -0 
C 1.5 -0.397805 1.341951 -0.77937 1.06066 -1.06066 
C 0.77937 -1.341951 0.397805 -1.5 0 -1.5 
C -0.397805 -1.5 -0.77937 -1.341951 -1.06066 -1.06066 
C -1.341951 -0.77937 -1.5 -0.397805 -1.5 0 
C -1.5 0.397805 -1.341951 0.77937 -1.06066 1.06066 
C -0.77937 1.341951 -0.397805 1.5 0 1.5 
z
"/>
    </defs>
    <g clip-path="url(#p85d06f44ed)">
     <use xlink:href="#Ca_0_62ace796dc" x="232.378932" y="105.714445" style="fill: #0d0d0d"/>
    </g>
    <g clip-path="url(#p85d06f44ed)">
     <use xlink:href="#Ca_0_62ace796dc" x="229.623874" y="105.839397" style="fill: #0d0d0d"/>
    </g>
    <g clip-path="url(#p85d06f44ed)">
     <use xlink:href="#Ca_0_62ace796dc" x="230.625396" y="105.879723" style="fill: #0d0d0d"/>
    </g>
    <g clip-path="url(#p85d06f44ed)">
     <use xlink:href="#Ca_0_62ace796dc" x="231.861159" y="105.899847" style="fill: #0d0d0d"/>
    </g>
    <g clip-path="url(#p85d06f44ed)">
     <use xlink:href="#Ca_0_62ace796dc" x="232.452135" y="105.912957" style="fill: #0d0d0d"/>
    </g>
   </g>
   <g id="PathCollection_12">
    <defs>
     <path id="Cb_0_fbe0af2c13" d="M 0 1.5 
C 0.397805 1.5 0.77937 1.341951 1.06066 1.06066 
C 1.341951 0.77937 1.5 0.397805 1.5 -0 
C 1.5 -0.397805 1.341951 -0.77937 1.06066 -1.06066 
C 0.77937 -1.341951 0.397805 -1.5 0 -1.5 
C -0.397805 -1.5 -0.77937 -1.341951 -1.06066 -1.06066 
C -1.341951 -0.77937 -1.5 -0.397805 -1.5 0 
C -1.5 0.397805 -1.341951 0.77937 -1.06066 1.06066 
C -0.77937 1.341951 -0.397805 1.5 0 1.5 
z
"/>
    </defs>
    <g clip-path="url(#p85d06f44ed)">
     <use xlink:href="#Cb_0_fbe0af2c13" x="244.634718" y="105.879321"/>
    </g>
    <g clip-path="url(#p85d06f44ed)">
     <use xlink:href="#Cb_0_fbe0af2c13" x="243.545782" y="106.020505"/>
    </g>
    <g clip-path="url(#p85d06f44ed)">
     <use xlink:href="#Cb_0_fbe0af2c13" x="245.530511" y="105.917371"/>
    </g>
    <g clip-path="url(#p85d06f44ed)">
     <use xlink:href="#Cb_0_fbe0af2c13" x="244.332887" y="106.009445"/>
    </g>
    <g clip-path="url(#p85d06f44ed)">
     <use xlink:href="#Cb_0_fbe0af2c13" x="245.640038" y="106.031742"/>
    </g>
   </g>
   <g id="PathCollection_13">
    <defs>
     <path id="Cc_0_7b92317dea" d="M 0 1.5 
C 0.397805 1.5 0.77937 1.341951 1.06066 1.06066 
C 1.341951 0.77937 1.5 0.397805 1.5 -0 
C 1.5 -0.397805 1.341951 -0.77937 1.06066 -1.06066 
C 0.77937 -1.341951 0.397805 -1.5 0 -1.5 
C -0.397805 -1.5 -0.77937 -1.341951 -1.06066 -1.06066 
C -1.341951 -0.77937 -1.5 -0.397805 -1.5 0 
C -1.5 0.397805 -1.341951 0.77937 -1.06066 1.06066 
C -0.77937 1.341951 -0.397805 1.5 0 1.5 
z
"/>
    </defs>
    <g clip-path="url(#p85d06f44ed)">
     <use xlink:href="#Cc_0_7b92317dea" x="271.915215" y="67.944432" style="fill: #262626"/>
    </g>
    <g clip-path="url(#p85d06f44ed)">
     <use xlink:href="#Cc_0_7b92317dea" x="271.192214" y="77.933227" style="fill: #262626"/>
    </g>
    <g clip-path="url(#p85d06f44ed)">
     <use xlink:href="#Cc_0_7b92317dea" x="271.80063" y="75.052947" style="fill: #262626"/>
    </g>
    <g clip-path="url(#p85d06f44ed)">
     <use xlink:href="#Cc_0_7b92317dea" x="272.884556" y="81.219725" style="fill: #262626"/>
    </g>
    <g clip-path="url(#p85d06f44ed)">
     <use xlink:href="#Cc_0_7b92317dea" x="270.301353" y="81.267898" style="fill: #262626"/>
    </g>
   </g>
   <g id="PathCollection_14">
    <defs>
     <path id="Cd_0_e5725e64a6" d="M 0 1.5 
C 0.397805 1.5 0.77937 1.341951 1.06066 1.06066 
C 1.341951 0.77937 1.5 0.397805 1.5 -0 
C 1.5 -0.397805 1.341951 -0.77937 1.06066 -1.06066 
C 0.77937 -1.341951 0.397805 -1.5 0 -1.5 
C -0.397805 -1.5 -0.77937 -1.341951 -1.06066 -1.06066 
C -1.341951 -0.77937 -1.5 -0.397805 -1.5 0 
C -1.5 0.397805 -1.341951 0.77937 -1.06066 1.06066 
C -0.77937 1.341951 -0.397805 1.5 0 1.5 
z
"/>
    </defs>
    <g clip-path="url(#p85d06f44ed)">
     <use xlink:href="#Cd_0_e5725e64a6" x="284.48594" y="70.287782" style="fill: #191919"/>
    </g>
    <g clip-path="url(#p85d06f44ed)">
     <use xlink:href="#Cd_0_e5725e64a6" x="285.666927" y="73.940788" style="fill: #191919"/>
    </g>
    <g clip-path="url(#p85d06f44ed)">
     <use xlink:href="#Cd_0_e5725e64a6" x="286.176669" y="73.694504" style="fill: #191919"/>
    </g>
    <g clip-path="url(#p85d06f44ed)">
     <use xlink:href="#Cd_0_e5725e64a6" x="286.935285" y="78.427744" style="fill: #191919"/>
    </g>
    <g clip-path="url(#p85d06f44ed)">
     <use xlink:href="#Cd_0_e5725e64a6" x="286.314384" y="78.021655" style="fill: #191919"/>
    </g>
   </g>
   <g id="PathCollection_15">
    <defs>
     <path id="Ce_0_c78669a8f6" d="M 0 1.5 
C 0.397805 1.5 0.77937 1.341951 1.06066 1.06066 
C 1.341951 0.77937 1.5 0.397805 1.5 -0 
C 1.5 -0.397805 1.341951 -0.77937 1.06066 -1.06066 
C 0.77937 -1.341951 0.397805 -1.5 0 -1.5 
C -0.397805 -1.5 -0.77937 -1.341951 -1.06066 -1.06066 
C -1.341951 -0.77937 -1.5 -0.397805 -1.5 0 
C -1.5 0.397805 -1.341951 0.77937 -1.06066 1.06066 
C -0.77937 1.341951 -0.397805 1.5 0 1.5 
z
"/>
    </defs>
    <g clip-path="url(#p85d06f44ed)">
     <use xlink:href="#Ce_0_c78669a8f6" x="299.361228" y="76.051537" style="fill: #0d0d0d"/>
    </g>
    <g clip-path="url(#p85d06f44ed)">
     <use xlink:href="#Ce_0_c78669a8f6" x="300.368173" y="74.439602" style="fill: #0d0d0d"/>
    </g>
    <g clip-path="url(#p85d06f44ed)">
     <use xlink:href="#Ce_0_c78669a8f6" x="299.558421" y="68.781123" style="fill: #0d0d0d"/>
    </g>
    <g clip-path="url(#p85d06f44ed)">
     <use xlink:href="#Ce_0_c78669a8f6" x="298.893746" y="76.585286" style="fill: #0d0d0d"/>
    </g>
    <g clip-path="url(#p85d06f44ed)">
     <use xlink:href="#Ce_0_c78669a8f6" x="297.932829" y="77.77384" style="fill: #0d0d0d"/>
    </g>
   </g>
   <g id="PathCollection_16">
    <defs>
     <path id="Cf_0_6dd0464c6d" d="M 0 1.5 
C 0.397805 1.5 0.77937 1.341951 1.06066 1.06066 
C 1.341951 0.77937 1.5 0.397805 1.5 -0 
C 1.5 -0.397805 1.341951 -0.77937 1.06066 -1.06066 
C 0.77937 -1.341951 0.397805 -1.5 0 -1.5 
C -0.397805 -1.5 -0.77937 -1.341951 -1.06066 -1.06066 
C -1.341951 -0.77937 -1.5 -0.397805 -1.5 0 
C -1.5 0.397805 -1.341951 0.77937 -1.06066 1.06066 
C -0.77937 1.341951 -0.397805 1.5 0 1.5 
z
"/>
    </defs>
    <g clip-path="url(#p85d06f44ed)">
     <use xlink:href="#Cf_0_6dd0464c6d" x="311.853815" y="70.26503"/>
    </g>
    <g clip-path="url(#p85d06f44ed)">
     <use xlink:href="#Cf_0_6dd0464c6d" x="314.459256" y="62.504575"/>
    </g>
    <g clip-path="url(#p85d06f44ed)">
     <use xlink:href="#Cf_0_6dd0464c6d" x="312.301771" y="66.778736"/>
    </g>
    <g clip-path="url(#p85d06f44ed)">
     <use xlink:href="#Cf_0_6dd0464c6d" x="312.212582" y="73.535662"/>
    </g>
    <g clip-path="url(#p85d06f44ed)">
     <use xlink:href="#Cf_0_6dd0464c6d" x="312.403659" y="73.704417"/>
    </g>
   </g>
   <g id="text_10">
    <!-- enron -->
    <g transform="translate(172.795937 16.318125) scale(0.12 -0.12)">
     <use xlink:href="#DejaVuSans-65"/>
     <use xlink:href="#DejaVuSans-6e" x="61.523438"/>
     <use xlink:href="#DejaVuSans-72" x="124.902344"/>
     <use xlink:href="#DejaVuSans-6f" x="163.765625"/>
     <use xlink:href="#DejaVuSans-6e" x="224.947266"/>
    </g>
   </g>
   <g id="legend_1">
    <g id="patch_27">
     <path d="M 333.585 105.018105 
L 401.011562 105.018105 
Q 403.011562 105.018105 403.011562 103.018105 
L 403.011562 45.305605 
Q 403.011562 43.305605 401.011562 43.305605 
L 333.585 43.305605 
Q 331.585 43.305605 331.585 45.305605 
L 331.585 103.018105 
Q 331.585 105.018105 333.585 105.018105 
z
" style="fill: #ffffff; opacity: 0.8; stroke: #cccccc; stroke-linejoin: miter"/>
    </g>
    <g id="patch_28">
     <path d="M 335.585 54.904043 
L 355.585 54.904043 
L 355.585 47.904043 
L 335.585 47.904043 
z
" style="fill: #3274a1; stroke: #3d3d3d; stroke-width: 0.75; stroke-linejoin: miter"/>
    </g>
    <g id="text_11">
     <!-- none -->
     <g transform="translate(363.585 54.904043) scale(0.1 -0.1)">
      <use xlink:href="#DejaVuSans-6e"/>
      <use xlink:href="#DejaVuSans-6f" x="63.378906"/>
      <use xlink:href="#DejaVuSans-6e" x="124.560547"/>
      <use xlink:href="#DejaVuSans-65" x="187.939453"/>
     </g>
    </g>
    <g id="patch_29">
     <path d="M 335.585 69.582168 
L 355.585 69.582168 
L 355.585 62.582168 
L 335.585 62.582168 
z
" style="fill: #e1812c; stroke: #3d3d3d; stroke-width: 0.75; stroke-linejoin: miter"/>
    </g>
    <g id="text_12">
     <!-- drop30 -->
     <g transform="translate(363.585 69.582168) scale(0.1 -0.1)">
      <defs>
       <path id="DejaVuSans-33" d="M 2597 2516 
Q 3050 2419 3304 2112 
Q 3559 1806 3559 1356 
Q 3559 666 3084 287 
Q 2609 -91 1734 -91 
Q 1441 -91 1130 -33 
Q 819 25 488 141 
L 488 750 
Q 750 597 1062 519 
Q 1375 441 1716 441 
Q 2309 441 2620 675 
Q 2931 909 2931 1356 
Q 2931 1769 2642 2001 
Q 2353 2234 1838 2234 
L 1294 2234 
L 1294 2753 
L 1863 2753 
Q 2328 2753 2575 2939 
Q 2822 3125 2822 3475 
Q 2822 3834 2567 4026 
Q 2313 4219 1838 4219 
Q 1578 4219 1281 4162 
Q 984 4106 628 3988 
L 628 4550 
Q 988 4650 1302 4700 
Q 1616 4750 1894 4750 
Q 2613 4750 3031 4423 
Q 3450 4097 3450 3541 
Q 3450 3153 3228 2886 
Q 3006 2619 2597 2516 
z
" transform="scale(0.015625)"/>
      </defs>
      <use xlink:href="#DejaVuSans-64"/>
      <use xlink:href="#DejaVuSans-72" x="63.476562"/>
      <use xlink:href="#DejaVuSans-6f" x="102.339844"/>
      <use xlink:href="#DejaVuSans-70" x="163.521484"/>
      <use xlink:href="#DejaVuSans-33" x="226.998047"/>
      <use xlink:href="#DejaVuSans-30" x="290.621094"/>
     </g>
    </g>
    <g id="patch_30">
     <path d="M 335.585 84.260293 
L 355.585 84.260293 
L 355.585 77.260293 
L 335.585 77.260293 
z
" style="fill: #3a923a; stroke: #3d3d3d; stroke-width: 0.75; stroke-linejoin: miter"/>
    </g>
    <g id="text_13">
     <!-- drop50 -->
     <g transform="translate(363.585 84.260293) scale(0.1 -0.1)">
      <use xlink:href="#DejaVuSans-64"/>
      <use xlink:href="#DejaVuSans-72" x="63.476562"/>
      <use xlink:href="#DejaVuSans-6f" x="102.339844"/>
      <use xlink:href="#DejaVuSans-70" x="163.521484"/>
      <use xlink:href="#DejaVuSans-35" x="226.998047"/>
      <use xlink:href="#DejaVuSans-30" x="290.621094"/>
     </g>
    </g>
    <g id="patch_31">
     <path d="M 335.585 98.938418 
L 355.585 98.938418 
L 355.585 91.938418 
L 335.585 91.938418 
z
" style="fill: #c03d3e; stroke: #3d3d3d; stroke-width: 0.75; stroke-linejoin: miter"/>
    </g>
    <g id="text_14">
     <!-- drop80 -->
     <g transform="translate(363.585 98.938418) scale(0.1 -0.1)">
      <defs>
       <path id="DejaVuSans-38" d="M 2034 2216 
Q 1584 2216 1326 1975 
Q 1069 1734 1069 1313 
Q 1069 891 1326 650 
Q 1584 409 2034 409 
Q 2484 409 2743 651 
Q 3003 894 3003 1313 
Q 3003 1734 2745 1975 
Q 2488 2216 2034 2216 
z
M 1403 2484 
Q 997 2584 770 2862 
Q 544 3141 544 3541 
Q 544 4100 942 4425 
Q 1341 4750 2034 4750 
Q 2731 4750 3128 4425 
Q 3525 4100 3525 3541 
Q 3525 3141 3298 2862 
Q 3072 2584 2669 2484 
Q 3125 2378 3379 2068 
Q 3634 1759 3634 1313 
Q 3634 634 3220 271 
Q 2806 -91 2034 -91 
Q 1263 -91 848 271 
Q 434 634 434 1313 
Q 434 1759 690 2068 
Q 947 2378 1403 2484 
z
M 1172 3481 
Q 1172 3119 1398 2916 
Q 1625 2713 2034 2713 
Q 2441 2713 2670 2916 
Q 2900 3119 2900 3481 
Q 2900 3844 2670 4047 
Q 2441 4250 2034 4250 
Q 1625 4250 1398 4047 
Q 1172 3844 1172 3481 
z
" transform="scale(0.015625)"/>
      </defs>
      <use xlink:href="#DejaVuSans-64"/>
      <use xlink:href="#DejaVuSans-72" x="63.476562"/>
      <use xlink:href="#DejaVuSans-6f" x="102.339844"/>
      <use xlink:href="#DejaVuSans-70" x="163.521484"/>
      <use xlink:href="#DejaVuSans-38" x="226.998047"/>
      <use xlink:href="#DejaVuSans-30" x="290.621094"/>
     </g>
    </g>
   </g>
  </g>
 </g>
 <defs>
  <clipPath id="p85d06f44ed">
   <rect x="53.60625" y="22.318125" width="272.97875" height="87.69998"/>
  </clipPath>
 </defs>
</svg>
