<?xml version="1.0" encoding="utf-8" standalone="no"?>
<!DOCTYPE svg PUBLIC "-//W3C//DTD SVG 1.1//EN"
  "http://www.w3.org/Graphics/SVG/1.1/DTD/svg11.dtd">
<svg xmlns:xlink="http://www.w3.org/1999/xlink" width="410.024062pt" height="207.302882pt" viewBox="0 0 410.024062 207.302882" xmlns="http://www.w3.org/2000/svg" version="1.1">
 <metadata>
  <rdf:RDF xmlns:dc="http://purl.org/dc/elements/1.1/" xmlns:cc="http://creativecommons.org/ns#" xmlns:rdf="http://www.w3.org/1999/02/22-rdf-syntax-ns#">
   <cc:Work>
    <dc:type rdf:resource="http://purl.org/dc/dcmitype/StillImage"/>
    <dc:date>2023-06-23T11:43:10.846897</dc:date>
    <dc:format>image/svg+xml</dc:format>
    <dc:creator>
     <cc:Agent>
      <dc:title>Matplotlib v3.7.1, https://matplotlib.org/</dc:title>
     </cc:Agent>
    </dc:creator>
   </cc:Work>
  </rdf:RDF>
 </metadata>
 <defs>
  <style type="text/css">*{stroke-linejoin: round; stroke-linecap: butt}</style>
 </defs>
 <g id="figure_1">
  <g id="patch_1">
   <path d="M 0 207.302882 
L 410.024062 207.302882 
L 410.024062 0 
L 0 0 
L 0 207.302882 
z
" style="fill: none"/>
  </g>
  <g id="axes_1">
   <g id="patch_2">
    <path d="M 34.51875 110.018105 
L 326.3975 110.018105 
L 326.3975 22.318125 
L 34.51875 22.318125 
L 34.51875 110.018105 
z
" style="fill: none"/>
   </g>
   <g id="patch_3">
    <path d="M 41.961658 96.42811 
L 56.263717 96.42811 
L 56.263717 93.776437 
L 41.961658 93.776437 
L 41.961658 96.42811 
z
" clip-path="url(#pf777d56953)" style="fill: #3274a1; stroke: #3d3d3d; stroke-width: 1.5; stroke-linejoin: miter"/>
   </g>
   <g id="patch_4">
    <path d="M 56.555596 99.282573 
L 70.857654 99.282573 
L 70.857654 95.983501 
L 56.555596 95.983501 
L 56.555596 99.282573 
z
" clip-path="url(#pf777d56953)" style="fill: #e1812c; stroke: #3d3d3d; stroke-width: 1.5; stroke-linejoin: miter"/>
   </g>
   <g id="patch_5">
    <path d="M 71.149533 99.470747 
L 85.451592 99.470747 
L 85.451592 98.130947 
L 71.149533 98.130947 
L 71.149533 99.470747 
z
" clip-path="url(#pf777d56953)" style="fill: #3a923a; stroke: #3d3d3d; stroke-width: 1.5; stroke-linejoin: miter"/>
   </g>
   <g id="patch_6">
    <path d="M 85.743471 104.425082 
L 100.045529 104.425082 
L 100.045529 102.805029 
L 85.743471 102.805029 
L 85.743471 104.425082 
z
" clip-path="url(#pf777d56953)" style="fill: #c03d3e; stroke: #3d3d3d; stroke-width: 1.5; stroke-linejoin: miter"/>
   </g>
   <g id="patch_7">
    <path d="M 114.931346 53.406067 
L 129.233404 53.406067 
L 129.233404 49.296997 
L 114.931346 49.296997 
L 114.931346 53.406067 
z
" clip-path="url(#pf777d56953)" style="fill: #3274a1; stroke: #3d3d3d; stroke-width: 1.5; stroke-linejoin: miter"/>
   </g>
   <g id="patch_8">
    <path d="M 129.525283 39.63257 
L 143.827342 39.63257 
L 143.827342 37.620603 
L 129.525283 37.620603 
L 129.525283 39.63257 
z
" clip-path="url(#pf777d56953)" style="fill: #e1812c; stroke: #3d3d3d; stroke-width: 1.5; stroke-linejoin: miter"/>
   </g>
   <g id="patch_9">
    <path d="M 144.119221 63.775341 
L 158.421279 63.775341 
L 158.421279 55.759301 
L 144.119221 55.759301 
L 144.119221 63.775341 
z
" clip-path="url(#pf777d56953)" style="fill: #3a923a; stroke: #3d3d3d; stroke-width: 1.5; stroke-linejoin: miter"/>
   </g>
   <g id="patch_10">
    <path d="M 158.713158 82.613039 
L 173.015217 82.613039 
L 173.015217 78.370581 
L 158.713158 78.370581 
L 158.713158 82.613039 
z
" clip-path="url(#pf777d56953)" style="fill: #c03d3e; stroke: #3d3d3d; stroke-width: 1.5; stroke-linejoin: miter"/>
   </g>
   <g id="patch_11">
    <path d="M 187.901033 95.504735 
L 202.203092 95.504735 
L 202.203092 94.907387 
L 187.901033 94.907387 
L 187.901033 95.504735 
z
" clip-path="url(#pf777d56953)" style="fill: #3274a1; stroke: #3d3d3d; stroke-width: 1.5; stroke-linejoin: miter"/>
   </g>
   <g id="patch_12">
    <path d="M 202.494971 97.111137 
L 216.797029 97.111137 
L 216.797029 95.679837 
L 202.494971 95.679837 
L 202.494971 97.111137 
z
" clip-path="url(#pf777d56953)" style="fill: #e1812c; stroke: #3d3d3d; stroke-width: 1.5; stroke-linejoin: miter"/>
   </g>
   <g id="patch_13">
    <path d="M 217.088908 99.833174 
L 231.390967 99.833174 
L 231.390967 97.083572 
L 217.088908 97.083572 
L 217.088908 99.833174 
z
" clip-path="url(#pf777d56953)" style="fill: #3a923a; stroke: #3d3d3d; stroke-width: 1.5; stroke-linejoin: miter"/>
   </g>
   <g id="patch_14">
    <path d="M 231.682846 104.217059 
L 245.984904 104.217059 
L 245.984904 101.098237 
L 231.682846 101.098237 
L 231.682846 104.217059 
z
" clip-path="url(#pf777d56953)" style="fill: #c03d3e; stroke: #3d3d3d; stroke-width: 1.5; stroke-linejoin: miter"/>
   </g>
   <g id="patch_15">
    <path d="M 260.870721 55.843421 
L 275.172779 55.843421 
L 275.172779 40.95929 
L 260.870721 40.95929 
L 260.870721 55.843421 
z
" clip-path="url(#pf777d56953)" style="fill: #3274a1; stroke: #3d3d3d; stroke-width: 1.5; stroke-linejoin: miter"/>
   </g>
   <g id="patch_16">
    <path d="M 275.464658 52.505623 
L 289.766717 52.505623 
L 289.766717 26.681818 
L 275.464658 26.681818 
L 275.464658 52.505623 
z
" clip-path="url(#pf777d56953)" style="fill: #e1812c; stroke: #3d3d3d; stroke-width: 1.5; stroke-linejoin: miter"/>
   </g>
   <g id="patch_17">
    <path d="M 290.058596 65.556275 
L 304.360654 65.556275 
L 304.360654 41.518575 
L 290.058596 41.518575 
L 290.058596 65.556275 
z
" clip-path="url(#pf777d56953)" style="fill: #3a923a; stroke: #3d3d3d; stroke-width: 1.5; stroke-linejoin: miter"/>
   </g>
   <g id="patch_18">
    <path d="M 304.652533 83.527141 
L 318.954592 83.527141 
L 318.954592 79.564495 
L 304.652533 79.564495 
L 304.652533 83.527141 
z
" clip-path="url(#pf777d56953)" style="fill: #c03d3e; stroke: #3d3d3d; stroke-width: 1.5; stroke-linejoin: miter"/>
   </g>
   <g id="patch_19">
    <path d="M 71.003594 146.662109 
L 71.003594 146.662109 
L 71.003594 146.662109 
L 71.003594 146.662109 
z
" clip-path="url(#pf777d56953)" style="fill: #3274a1; stroke: #3d3d3d; stroke-width: 0.75; stroke-linejoin: miter"/>
   </g>
   <g id="patch_20">
    <path d="M 71.003594 146.662109 
L 71.003594 146.662109 
L 71.003594 146.662109 
L 71.003594 146.662109 
z
" clip-path="url(#pf777d56953)" style="fill: #e1812c; stroke: #3d3d3d; stroke-width: 0.75; stroke-linejoin: miter"/>
   </g>
   <g id="patch_21">
    <path d="M 71.003594 146.662109 
L 71.003594 146.662109 
L 71.003594 146.662109 
L 71.003594 146.662109 
z
" clip-path="url(#pf777d56953)" style="fill: #3a923a; stroke: #3d3d3d; stroke-width: 0.75; stroke-linejoin: miter"/>
   </g>
   <g id="patch_22">
    <path d="M 71.003594 146.662109 
L 71.003594 146.662109 
L 71.003594 146.662109 
L 71.003594 146.662109 
z
" clip-path="url(#pf777d56953)" style="fill: #c03d3e; stroke: #3d3d3d; stroke-width: 0.75; stroke-linejoin: miter"/>
   </g>
   <g id="matplotlib.axis_1">
    <g id="xtick_1">
     <g id="line2d_1">
      <defs>
       <path id="maf006bafbd" d="M 0 0 
L 0 3.5 
" style="stroke: #000000; stroke-width: 0.8"/>
      </defs>
      <g>
       <use xlink:href="#maf006bafbd" x="71.003594" y="110.018105" style="stroke: #000000; stroke-width: 0.8"/>
      </g>
     </g>
     <g id="text_1">
      <!-- proba_weak -->
      <g transform="translate(26.853614 164.873766) rotate(-45) scale(0.1 -0.1)">
       <defs>
        <path id="DejaVuSans-70" d="M 1159 525 
L 1159 -1331 
L 581 -1331 
L 581 3500 
L 1159 3500 
L 1159 2969 
Q 1341 3281 1617 3432 
Q 1894 3584 2278 3584 
Q 2916 3584 3314 3078 
Q 3713 2572 3713 1747 
Q 3713 922 3314 415 
Q 2916 -91 2278 -91 
Q 1894 -91 1617 61 
Q 1341 213 1159 525 
z
M 3116 1747 
Q 3116 2381 2855 2742 
Q 2594 3103 2138 3103 
Q 1681 3103 1420 2742 
Q 1159 2381 1159 1747 
Q 1159 1113 1420 752 
Q 1681 391 2138 391 
Q 2594 391 2855 752 
Q 3116 1113 3116 1747 
z
" transform="scale(0.015625)"/>
        <path id="DejaVuSans-72" d="M 2631 2963 
Q 2534 3019 2420 3045 
Q 2306 3072 2169 3072 
Q 1681 3072 1420 2755 
Q 1159 2438 1159 1844 
L 1159 0 
L 581 0 
L 581 3500 
L 1159 3500 
L 1159 2956 
Q 1341 3275 1631 3429 
Q 1922 3584 2338 3584 
Q 2397 3584 2469 3576 
Q 2541 3569 2628 3553 
L 2631 2963 
z
" transform="scale(0.015625)"/>
        <path id="DejaVuSans-6f" d="M 1959 3097 
Q 1497 3097 1228 2736 
Q 959 2375 959 1747 
Q 959 1119 1226 758 
Q 1494 397 1959 397 
Q 2419 397 2687 759 
Q 2956 1122 2956 1747 
Q 2956 2369 2687 2733 
Q 2419 3097 1959 3097 
z
M 1959 3584 
Q 2709 3584 3137 3096 
Q 3566 2609 3566 1747 
Q 3566 888 3137 398 
Q 2709 -91 1959 -91 
Q 1206 -91 779 398 
Q 353 888 353 1747 
Q 353 2609 779 3096 
Q 1206 3584 1959 3584 
z
" transform="scale(0.015625)"/>
        <path id="DejaVuSans-62" d="M 3116 1747 
Q 3116 2381 2855 2742 
Q 2594 3103 2138 3103 
Q 1681 3103 1420 2742 
Q 1159 2381 1159 1747 
Q 1159 1113 1420 752 
Q 1681 391 2138 391 
Q 2594 391 2855 752 
Q 3116 1113 3116 1747 
z
M 1159 2969 
Q 1341 3281 1617 3432 
Q 1894 3584 2278 3584 
Q 2916 3584 3314 3078 
Q 3713 2572 3713 1747 
Q 3713 922 3314 415 
Q 2916 -91 2278 -91 
Q 1894 -91 1617 61 
Q 1341 213 1159 525 
L 1159 0 
L 581 0 
L 581 4863 
L 1159 4863 
L 1159 2969 
z
" transform="scale(0.015625)"/>
        <path id="DejaVuSans-61" d="M 2194 1759 
Q 1497 1759 1228 1600 
Q 959 1441 959 1056 
Q 959 750 1161 570 
Q 1363 391 1709 391 
Q 2188 391 2477 730 
Q 2766 1069 2766 1631 
L 2766 1759 
L 2194 1759 
z
M 3341 1997 
L 3341 0 
L 2766 0 
L 2766 531 
Q 2569 213 2275 61 
Q 1981 -91 1556 -91 
Q 1019 -91 701 211 
Q 384 513 384 1019 
Q 384 1609 779 1909 
Q 1175 2209 1959 2209 
L 2766 2209 
L 2766 2266 
Q 2766 2663 2505 2880 
Q 2244 3097 1772 3097 
Q 1472 3097 1187 3025 
Q 903 2953 641 2809 
L 641 3341 
Q 956 3463 1253 3523 
Q 1550 3584 1831 3584 
Q 2591 3584 2966 3190 
Q 3341 2797 3341 1997 
z
" transform="scale(0.015625)"/>
        <path id="DejaVuSans-5f" d="M 3263 -1063 
L 3263 -1509 
L -63 -1509 
L -63 -1063 
L 3263 -1063 
z
" transform="scale(0.015625)"/>
        <path id="DejaVuSans-77" d="M 269 3500 
L 844 3500 
L 1563 769 
L 2278 3500 
L 2956 3500 
L 3675 769 
L 4391 3500 
L 4966 3500 
L 4050 0 
L 3372 0 
L 2619 2869 
L 1863 0 
L 1184 0 
L 269 3500 
z
" transform="scale(0.015625)"/>
        <path id="DejaVuSans-65" d="M 3597 1894 
L 3597 1613 
L 953 1613 
Q 991 1019 1311 708 
Q 1631 397 2203 397 
Q 2534 397 2845 478 
Q 3156 559 3463 722 
L 3463 178 
Q 3153 47 2828 -22 
Q 2503 -91 2169 -91 
Q 1331 -91 842 396 
Q 353 884 353 1716 
Q 353 2575 817 3079 
Q 1281 3584 2069 3584 
Q 2775 3584 3186 3129 
Q 3597 2675 3597 1894 
z
M 3022 2063 
Q 3016 2534 2758 2815 
Q 2500 3097 2075 3097 
Q 1594 3097 1305 2825 
Q 1016 2553 972 2059 
L 3022 2063 
z
" transform="scale(0.015625)"/>
        <path id="DejaVuSans-6b" d="M 581 4863 
L 1159 4863 
L 1159 1991 
L 2875 3500 
L 3609 3500 
L 1753 1863 
L 3688 0 
L 2938 0 
L 1159 1709 
L 1159 0 
L 581 0 
L 581 4863 
z
" transform="scale(0.015625)"/>
       </defs>
       <use xlink:href="#DejaVuSans-70"/>
       <use xlink:href="#DejaVuSans-72" x="63.476562"/>
       <use xlink:href="#DejaVuSans-6f" x="102.339844"/>
       <use xlink:href="#DejaVuSans-62" x="163.521484"/>
       <use xlink:href="#DejaVuSans-61" x="226.998047"/>
       <use xlink:href="#DejaVuSans-5f" x="288.277344"/>
       <use xlink:href="#DejaVuSans-77" x="338.277344"/>
       <use xlink:href="#DejaVuSans-65" x="420.064453"/>
       <use xlink:href="#DejaVuSans-61" x="481.587891"/>
       <use xlink:href="#DejaVuSans-6b" x="542.867188"/>
      </g>
     </g>
    </g>
    <g id="xtick_2">
     <g id="line2d_2">
      <g>
       <use xlink:href="#maf006bafbd" x="143.973281" y="110.018105" style="stroke: #000000; stroke-width: 0.8"/>
      </g>
     </g>
     <g id="text_2">
      <!-- embedding_weak -->
      <g transform="translate(80.217661 184.479407) rotate(-45) scale(0.1 -0.1)">
       <defs>
        <path id="DejaVuSans-6d" d="M 3328 2828 
Q 3544 3216 3844 3400 
Q 4144 3584 4550 3584 
Q 5097 3584 5394 3201 
Q 5691 2819 5691 2113 
L 5691 0 
L 5113 0 
L 5113 2094 
Q 5113 2597 4934 2840 
Q 4756 3084 4391 3084 
Q 3944 3084 3684 2787 
Q 3425 2491 3425 1978 
L 3425 0 
L 2847 0 
L 2847 2094 
Q 2847 2600 2669 2842 
Q 2491 3084 2119 3084 
Q 1678 3084 1418 2786 
Q 1159 2488 1159 1978 
L 1159 0 
L 581 0 
L 581 3500 
L 1159 3500 
L 1159 2956 
Q 1356 3278 1631 3431 
Q 1906 3584 2284 3584 
Q 2666 3584 2933 3390 
Q 3200 3197 3328 2828 
z
" transform="scale(0.015625)"/>
        <path id="DejaVuSans-64" d="M 2906 2969 
L 2906 4863 
L 3481 4863 
L 3481 0 
L 2906 0 
L 2906 525 
Q 2725 213 2448 61 
Q 2172 -91 1784 -91 
Q 1150 -91 751 415 
Q 353 922 353 1747 
Q 353 2572 751 3078 
Q 1150 3584 1784 3584 
Q 2172 3584 2448 3432 
Q 2725 3281 2906 2969 
z
M 947 1747 
Q 947 1113 1208 752 
Q 1469 391 1925 391 
Q 2381 391 2643 752 
Q 2906 1113 2906 1747 
Q 2906 2381 2643 2742 
Q 2381 3103 1925 3103 
Q 1469 3103 1208 2742 
Q 947 2381 947 1747 
z
" transform="scale(0.015625)"/>
        <path id="DejaVuSans-69" d="M 603 3500 
L 1178 3500 
L 1178 0 
L 603 0 
L 603 3500 
z
M 603 4863 
L 1178 4863 
L 1178 4134 
L 603 4134 
L 603 4863 
z
" transform="scale(0.015625)"/>
        <path id="DejaVuSans-6e" d="M 3513 2113 
L 3513 0 
L 2938 0 
L 2938 2094 
Q 2938 2591 2744 2837 
Q 2550 3084 2163 3084 
Q 1697 3084 1428 2787 
Q 1159 2491 1159 1978 
L 1159 0 
L 581 0 
L 581 3500 
L 1159 3500 
L 1159 2956 
Q 1366 3272 1645 3428 
Q 1925 3584 2291 3584 
Q 2894 3584 3203 3211 
Q 3513 2838 3513 2113 
z
" transform="scale(0.015625)"/>
        <path id="DejaVuSans-67" d="M 2906 1791 
Q 2906 2416 2648 2759 
Q 2391 3103 1925 3103 
Q 1463 3103 1205 2759 
Q 947 2416 947 1791 
Q 947 1169 1205 825 
Q 1463 481 1925 481 
Q 2391 481 2648 825 
Q 2906 1169 2906 1791 
z
M 3481 434 
Q 3481 -459 3084 -895 
Q 2688 -1331 1869 -1331 
Q 1566 -1331 1297 -1286 
Q 1028 -1241 775 -1147 
L 775 -588 
Q 1028 -725 1275 -790 
Q 1522 -856 1778 -856 
Q 2344 -856 2625 -561 
Q 2906 -266 2906 331 
L 2906 616 
Q 2728 306 2450 153 
Q 2172 0 1784 0 
Q 1141 0 747 490 
Q 353 981 353 1791 
Q 353 2603 747 3093 
Q 1141 3584 1784 3584 
Q 2172 3584 2450 3431 
Q 2728 3278 2906 2969 
L 2906 3500 
L 3481 3500 
L 3481 434 
z
" transform="scale(0.015625)"/>
       </defs>
       <use xlink:href="#DejaVuSans-65"/>
       <use xlink:href="#DejaVuSans-6d" x="61.523438"/>
       <use xlink:href="#DejaVuSans-62" x="158.935547"/>
       <use xlink:href="#DejaVuSans-65" x="222.412109"/>
       <use xlink:href="#DejaVuSans-64" x="283.935547"/>
       <use xlink:href="#DejaVuSans-64" x="347.412109"/>
       <use xlink:href="#DejaVuSans-69" x="410.888672"/>
       <use xlink:href="#DejaVuSans-6e" x="438.671875"/>
       <use xlink:href="#DejaVuSans-67" x="502.050781"/>
       <use xlink:href="#DejaVuSans-5f" x="565.527344"/>
       <use xlink:href="#DejaVuSans-77" x="615.527344"/>
       <use xlink:href="#DejaVuSans-65" x="697.314453"/>
       <use xlink:href="#DejaVuSans-61" x="758.837891"/>
       <use xlink:href="#DejaVuSans-6b" x="820.117188"/>
      </g>
     </g>
    </g>
    <g id="xtick_3">
     <g id="line2d_3">
      <g>
       <use xlink:href="#maf006bafbd" x="216.942969" y="110.018105" style="stroke: #000000; stroke-width: 0.8"/>
      </g>
     </g>
     <g id="text_3">
      <!-- proba -->
      <g transform="translate(195.08674 142.776679) rotate(-45) scale(0.1 -0.1)">
       <use xlink:href="#DejaVuSans-70"/>
       <use xlink:href="#DejaVuSans-72" x="63.476562"/>
       <use xlink:href="#DejaVuSans-6f" x="102.339844"/>
       <use xlink:href="#DejaVuSans-62" x="163.521484"/>
       <use xlink:href="#DejaVuSans-61" x="226.998047"/>
      </g>
     </g>
    </g>
    <g id="xtick_4">
     <g id="line2d_4">
      <g>
       <use xlink:href="#maf006bafbd" x="289.912656" y="110.018105" style="stroke: #000000; stroke-width: 0.8"/>
      </g>
     </g>
     <g id="text_4">
      <!-- embedding -->
      <g transform="translate(248.450787 162.38232) rotate(-45) scale(0.1 -0.1)">
       <use xlink:href="#DejaVuSans-65"/>
       <use xlink:href="#DejaVuSans-6d" x="61.523438"/>
       <use xlink:href="#DejaVuSans-62" x="158.935547"/>
       <use xlink:href="#DejaVuSans-65" x="222.412109"/>
       <use xlink:href="#DejaVuSans-64" x="283.935547"/>
       <use xlink:href="#DejaVuSans-64" x="347.412109"/>
       <use xlink:href="#DejaVuSans-69" x="410.888672"/>
       <use xlink:href="#DejaVuSans-6e" x="438.671875"/>
       <use xlink:href="#DejaVuSans-67" x="502.050781"/>
      </g>
     </g>
    </g>
    <g id="text_5">
     <!-- estimator_name -->
     <g transform="translate(139.738594 197.745069) scale(0.1 -0.1)">
      <defs>
       <path id="DejaVuSans-73" d="M 2834 3397 
L 2834 2853 
Q 2591 2978 2328 3040 
Q 2066 3103 1784 3103 
Q 1356 3103 1142 2972 
Q 928 2841 928 2578 
Q 928 2378 1081 2264 
Q 1234 2150 1697 2047 
L 1894 2003 
Q 2506 1872 2764 1633 
Q 3022 1394 3022 966 
Q 3022 478 2636 193 
Q 2250 -91 1575 -91 
Q 1294 -91 989 -36 
Q 684 19 347 128 
L 347 722 
Q 666 556 975 473 
Q 1284 391 1588 391 
Q 1994 391 2212 530 
Q 2431 669 2431 922 
Q 2431 1156 2273 1281 
Q 2116 1406 1581 1522 
L 1381 1569 
Q 847 1681 609 1914 
Q 372 2147 372 2553 
Q 372 3047 722 3315 
Q 1072 3584 1716 3584 
Q 2034 3584 2315 3537 
Q 2597 3491 2834 3397 
z
" transform="scale(0.015625)"/>
       <path id="DejaVuSans-74" d="M 1172 4494 
L 1172 3500 
L 2356 3500 
L 2356 3053 
L 1172 3053 
L 1172 1153 
Q 1172 725 1289 603 
Q 1406 481 1766 481 
L 2356 481 
L 2356 0 
L 1766 0 
Q 1100 0 847 248 
Q 594 497 594 1153 
L 594 3053 
L 172 3053 
L 172 3500 
L 594 3500 
L 594 4494 
L 1172 4494 
z
" transform="scale(0.015625)"/>
      </defs>
      <use xlink:href="#DejaVuSans-65"/>
      <use xlink:href="#DejaVuSans-73" x="61.523438"/>
      <use xlink:href="#DejaVuSans-74" x="113.623047"/>
      <use xlink:href="#DejaVuSans-69" x="152.832031"/>
      <use xlink:href="#DejaVuSans-6d" x="180.615234"/>
      <use xlink:href="#DejaVuSans-61" x="278.027344"/>
      <use xlink:href="#DejaVuSans-74" x="339.306641"/>
      <use xlink:href="#DejaVuSans-6f" x="378.515625"/>
      <use xlink:href="#DejaVuSans-72" x="439.697266"/>
      <use xlink:href="#DejaVuSans-5f" x="480.810547"/>
      <use xlink:href="#DejaVuSans-6e" x="530.810547"/>
      <use xlink:href="#DejaVuSans-61" x="594.189453"/>
      <use xlink:href="#DejaVuSans-6d" x="655.46875"/>
      <use xlink:href="#DejaVuSans-65" x="752.880859"/>
     </g>
    </g>
   </g>
   <g id="matplotlib.axis_2">
    <g id="ytick_1">
     <g id="line2d_5">
      <defs>
       <path id="m3e7ffb4b72" d="M 0 0 
L -3.5 0 
" style="stroke: #000000; stroke-width: 0.8"/>
      </defs>
      <g>
       <use xlink:href="#m3e7ffb4b72" x="34.51875" y="91.828475" style="stroke: #000000; stroke-width: 0.8"/>
      </g>
     </g>
     <g id="text_6">
      <!-- 4 -->
      <g transform="translate(21.15625 95.627693) scale(0.1 -0.1)">
       <defs>
        <path id="DejaVuSans-34" d="M 2419 4116 
L 825 1625 
L 2419 1625 
L 2419 4116 
z
M 2253 4666 
L 3047 4666 
L 3047 1625 
L 3713 1625 
L 3713 1100 
L 3047 1100 
L 3047 0 
L 2419 0 
L 2419 1100 
L 313 1100 
L 313 1709 
L 2253 4666 
z
" transform="scale(0.015625)"/>
       </defs>
       <use xlink:href="#DejaVuSans-34"/>
      </g>
     </g>
    </g>
    <g id="ytick_2">
     <g id="line2d_6">
      <g>
       <use xlink:href="#m3e7ffb4b72" x="34.51875" y="64.411657" style="stroke: #000000; stroke-width: 0.8"/>
      </g>
     </g>
     <g id="text_7">
      <!-- 6 -->
      <g transform="translate(21.15625 68.210876) scale(0.1 -0.1)">
       <defs>
        <path id="DejaVuSans-36" d="M 2113 2584 
Q 1688 2584 1439 2293 
Q 1191 2003 1191 1497 
Q 1191 994 1439 701 
Q 1688 409 2113 409 
Q 2538 409 2786 701 
Q 3034 994 3034 1497 
Q 3034 2003 2786 2293 
Q 2538 2584 2113 2584 
z
M 3366 4563 
L 3366 3988 
Q 3128 4100 2886 4159 
Q 2644 4219 2406 4219 
Q 1781 4219 1451 3797 
Q 1122 3375 1075 2522 
Q 1259 2794 1537 2939 
Q 1816 3084 2150 3084 
Q 2853 3084 3261 2657 
Q 3669 2231 3669 1497 
Q 3669 778 3244 343 
Q 2819 -91 2113 -91 
Q 1303 -91 875 529 
Q 447 1150 447 2328 
Q 447 3434 972 4092 
Q 1497 4750 2381 4750 
Q 2619 4750 2861 4703 
Q 3103 4656 3366 4563 
z
" transform="scale(0.015625)"/>
       </defs>
       <use xlink:href="#DejaVuSans-36"/>
      </g>
     </g>
    </g>
    <g id="ytick_3">
     <g id="line2d_7">
      <g>
       <use xlink:href="#m3e7ffb4b72" x="34.51875" y="36.99484" style="stroke: #000000; stroke-width: 0.8"/>
      </g>
     </g>
     <g id="text_8">
      <!-- 8 -->
      <g transform="translate(21.15625 40.794059) scale(0.1 -0.1)">
       <defs>
        <path id="DejaVuSans-38" d="M 2034 2216 
Q 1584 2216 1326 1975 
Q 1069 1734 1069 1313 
Q 1069 891 1326 650 
Q 1584 409 2034 409 
Q 2484 409 2743 651 
Q 3003 894 3003 1313 
Q 3003 1734 2745 1975 
Q 2488 2216 2034 2216 
z
M 1403 2484 
Q 997 2584 770 2862 
Q 544 3141 544 3541 
Q 544 4100 942 4425 
Q 1341 4750 2034 4750 
Q 2731 4750 3128 4425 
Q 3525 4100 3525 3541 
Q 3525 3141 3298 2862 
Q 3072 2584 2669 2484 
Q 3125 2378 3379 2068 
Q 3634 1759 3634 1313 
Q 3634 634 3220 271 
Q 2806 -91 2034 -91 
Q 1263 -91 848 271 
Q 434 634 434 1313 
Q 434 1759 690 2068 
Q 947 2378 1403 2484 
z
M 1172 3481 
Q 1172 3119 1398 2916 
Q 1625 2713 2034 2713 
Q 2441 2713 2670 2916 
Q 2900 3119 2900 3481 
Q 2900 3844 2670 4047 
Q 2441 4250 2034 4250 
Q 1625 4250 1398 4047 
Q 1172 3844 1172 3481 
z
" transform="scale(0.015625)"/>
       </defs>
       <use xlink:href="#DejaVuSans-38"/>
      </g>
     </g>
    </g>
    <g id="text_9">
     <!-- score_time -->
     <g transform="translate(14.798438 93.397021) rotate(-90) scale(0.1 -0.1)">
      <defs>
       <path id="DejaVuSans-63" d="M 3122 3366 
L 3122 2828 
Q 2878 2963 2633 3030 
Q 2388 3097 2138 3097 
Q 1578 3097 1268 2742 
Q 959 2388 959 1747 
Q 959 1106 1268 751 
Q 1578 397 2138 397 
Q 2388 397 2633 464 
Q 2878 531 3122 666 
L 3122 134 
Q 2881 22 2623 -34 
Q 2366 -91 2075 -91 
Q 1284 -91 818 406 
Q 353 903 353 1747 
Q 353 2603 823 3093 
Q 1294 3584 2113 3584 
Q 2378 3584 2631 3529 
Q 2884 3475 3122 3366 
z
" transform="scale(0.015625)"/>
      </defs>
      <use xlink:href="#DejaVuSans-73"/>
      <use xlink:href="#DejaVuSans-63" x="52.099609"/>
      <use xlink:href="#DejaVuSans-6f" x="107.080078"/>
      <use xlink:href="#DejaVuSans-72" x="168.261719"/>
      <use xlink:href="#DejaVuSans-65" x="207.125"/>
      <use xlink:href="#DejaVuSans-5f" x="268.648438"/>
      <use xlink:href="#DejaVuSans-74" x="318.648438"/>
      <use xlink:href="#DejaVuSans-69" x="357.857422"/>
      <use xlink:href="#DejaVuSans-6d" x="385.640625"/>
      <use xlink:href="#DejaVuSans-65" x="483.052734"/>
     </g>
    </g>
   </g>
   <g id="line2d_8">
    <path d="M 49.112687 96.42811 
L 49.112687 96.793085 
" clip-path="url(#pf777d56953)" style="fill: none; stroke: #3d3d3d; stroke-width: 1.5; stroke-linecap: square"/>
   </g>
   <g id="line2d_9">
    <path d="M 49.112687 93.776437 
L 49.112687 93.400301 
" clip-path="url(#pf777d56953)" style="fill: none; stroke: #3d3d3d; stroke-width: 1.5; stroke-linecap: square"/>
   </g>
   <g id="line2d_10">
    <path d="M 45.537173 96.793085 
L 52.688202 96.793085 
" clip-path="url(#pf777d56953)" style="fill: none; stroke: #3d3d3d; stroke-width: 1.5; stroke-linecap: square"/>
   </g>
   <g id="line2d_11">
    <path d="M 45.537173 93.400301 
L 52.688202 93.400301 
" clip-path="url(#pf777d56953)" style="fill: none; stroke: #3d3d3d; stroke-width: 1.5; stroke-linecap: square"/>
   </g>
   <g id="line2d_12"/>
   <g id="line2d_13">
    <path d="M 63.706625 99.282573 
L 63.706625 100.142512 
" clip-path="url(#pf777d56953)" style="fill: none; stroke: #3d3d3d; stroke-width: 1.5; stroke-linecap: square"/>
   </g>
   <g id="line2d_14">
    <path d="M 63.706625 95.983501 
L 63.706625 95.578698 
" clip-path="url(#pf777d56953)" style="fill: none; stroke: #3d3d3d; stroke-width: 1.5; stroke-linecap: square"/>
   </g>
   <g id="line2d_15">
    <path d="M 60.13111 100.142512 
L 67.28214 100.142512 
" clip-path="url(#pf777d56953)" style="fill: none; stroke: #3d3d3d; stroke-width: 1.5; stroke-linecap: square"/>
   </g>
   <g id="line2d_16">
    <path d="M 60.13111 95.578698 
L 67.28214 95.578698 
" clip-path="url(#pf777d56953)" style="fill: none; stroke: #3d3d3d; stroke-width: 1.5; stroke-linecap: square"/>
   </g>
   <g id="line2d_17"/>
   <g id="line2d_18">
    <path d="M 78.300562 99.470747 
L 78.300562 100.221694 
" clip-path="url(#pf777d56953)" style="fill: none; stroke: #3d3d3d; stroke-width: 1.5; stroke-linecap: square"/>
   </g>
   <g id="line2d_19">
    <path d="M 78.300562 98.130947 
L 78.300562 96.400751 
" clip-path="url(#pf777d56953)" style="fill: none; stroke: #3d3d3d; stroke-width: 1.5; stroke-linecap: square"/>
   </g>
   <g id="line2d_20">
    <path d="M 74.725048 100.221694 
L 81.876077 100.221694 
" clip-path="url(#pf777d56953)" style="fill: none; stroke: #3d3d3d; stroke-width: 1.5; stroke-linecap: square"/>
   </g>
   <g id="line2d_21">
    <path d="M 74.725048 96.400751 
L 81.876077 96.400751 
" clip-path="url(#pf777d56953)" style="fill: none; stroke: #3d3d3d; stroke-width: 1.5; stroke-linecap: square"/>
   </g>
   <g id="line2d_22"/>
   <g id="line2d_23">
    <path d="M 92.8945 104.425082 
L 92.8945 104.824022 
" clip-path="url(#pf777d56953)" style="fill: none; stroke: #3d3d3d; stroke-width: 1.5; stroke-linecap: square"/>
   </g>
   <g id="line2d_24">
    <path d="M 92.8945 102.805029 
L 92.8945 102.627689 
" clip-path="url(#pf777d56953)" style="fill: none; stroke: #3d3d3d; stroke-width: 1.5; stroke-linecap: square"/>
   </g>
   <g id="line2d_25">
    <path d="M 89.318985 104.824022 
L 96.470015 104.824022 
" clip-path="url(#pf777d56953)" style="fill: none; stroke: #3d3d3d; stroke-width: 1.5; stroke-linecap: square"/>
   </g>
   <g id="line2d_26">
    <path d="M 89.318985 102.627689 
L 96.470015 102.627689 
" clip-path="url(#pf777d56953)" style="fill: none; stroke: #3d3d3d; stroke-width: 1.5; stroke-linecap: square"/>
   </g>
   <g id="line2d_27"/>
   <g id="line2d_28">
    <path d="M 122.082375 53.406067 
L 122.082375 53.775082 
" clip-path="url(#pf777d56953)" style="fill: none; stroke: #3d3d3d; stroke-width: 1.5; stroke-linecap: square"/>
   </g>
   <g id="line2d_29">
    <path d="M 122.082375 49.296997 
L 122.082375 49.296997 
" clip-path="url(#pf777d56953)" style="fill: none; stroke: #3d3d3d; stroke-width: 1.5; stroke-linecap: square"/>
   </g>
   <g id="line2d_30">
    <path d="M 118.50686 53.775082 
L 125.65789 53.775082 
" clip-path="url(#pf777d56953)" style="fill: none; stroke: #3d3d3d; stroke-width: 1.5; stroke-linecap: square"/>
   </g>
   <g id="line2d_31">
    <path d="M 118.50686 49.296997 
L 125.65789 49.296997 
" clip-path="url(#pf777d56953)" style="fill: none; stroke: #3d3d3d; stroke-width: 1.5; stroke-linecap: square"/>
   </g>
   <g id="line2d_32">
    <defs>
     <path id="mf1c161b7c8" d="M -0 3.535534 
L 2.12132 0 
L -0 -3.535534 
L -2.12132 -0 
z
" style="stroke: #3d3d3d; stroke-linejoin: miter"/>
    </defs>
    <g clip-path="url(#pf777d56953)">
     <use xlink:href="#mf1c161b7c8" x="122.082375" y="34.309625" style="fill: #3d3d3d; stroke: #3d3d3d; stroke-linejoin: miter"/>
    </g>
   </g>
   <g id="line2d_33">
    <path d="M 136.676312 39.63257 
L 136.676312 39.63257 
" clip-path="url(#pf777d56953)" style="fill: none; stroke: #3d3d3d; stroke-width: 1.5; stroke-linecap: square"/>
   </g>
   <g id="line2d_34">
    <path d="M 136.676312 37.620603 
L 136.676312 37.620603 
" clip-path="url(#pf777d56953)" style="fill: none; stroke: #3d3d3d; stroke-width: 1.5; stroke-linecap: square"/>
   </g>
   <g id="line2d_35">
    <path d="M 133.100798 39.63257 
L 140.251827 39.63257 
" clip-path="url(#pf777d56953)" style="fill: none; stroke: #3d3d3d; stroke-width: 1.5; stroke-linecap: square"/>
   </g>
   <g id="line2d_36">
    <path d="M 133.100798 37.620603 
L 140.251827 37.620603 
" clip-path="url(#pf777d56953)" style="fill: none; stroke: #3d3d3d; stroke-width: 1.5; stroke-linecap: square"/>
   </g>
   <g id="line2d_37">
    <g clip-path="url(#pf777d56953)">
     <use xlink:href="#mf1c161b7c8" x="136.676312" y="50.195355" style="fill: #3d3d3d; stroke: #3d3d3d; stroke-linejoin: miter"/>
     <use xlink:href="#mf1c161b7c8" x="136.676312" y="34.545769" style="fill: #3d3d3d; stroke: #3d3d3d; stroke-linejoin: miter"/>
    </g>
   </g>
   <g id="line2d_38">
    <path d="M 151.27025 63.775341 
L 151.27025 68.628675 
" clip-path="url(#pf777d56953)" style="fill: none; stroke: #3d3d3d; stroke-width: 1.5; stroke-linecap: square"/>
   </g>
   <g id="line2d_39">
    <path d="M 151.27025 55.759301 
L 151.27025 52.546772 
" clip-path="url(#pf777d56953)" style="fill: none; stroke: #3d3d3d; stroke-width: 1.5; stroke-linecap: square"/>
   </g>
   <g id="line2d_40">
    <path d="M 147.694735 68.628675 
L 154.845765 68.628675 
" clip-path="url(#pf777d56953)" style="fill: none; stroke: #3d3d3d; stroke-width: 1.5; stroke-linecap: square"/>
   </g>
   <g id="line2d_41">
    <path d="M 147.694735 52.546772 
L 154.845765 52.546772 
" clip-path="url(#pf777d56953)" style="fill: none; stroke: #3d3d3d; stroke-width: 1.5; stroke-linecap: square"/>
   </g>
   <g id="line2d_42"/>
   <g id="line2d_43">
    <path d="M 165.864187 82.613039 
L 165.864187 83.237442 
" clip-path="url(#pf777d56953)" style="fill: none; stroke: #3d3d3d; stroke-width: 1.5; stroke-linecap: square"/>
   </g>
   <g id="line2d_44">
    <path d="M 165.864187 78.370581 
L 165.864187 78.370581 
" clip-path="url(#pf777d56953)" style="fill: none; stroke: #3d3d3d; stroke-width: 1.5; stroke-linecap: square"/>
   </g>
   <g id="line2d_45">
    <path d="M 162.288673 83.237442 
L 169.439702 83.237442 
" clip-path="url(#pf777d56953)" style="fill: none; stroke: #3d3d3d; stroke-width: 1.5; stroke-linecap: square"/>
   </g>
   <g id="line2d_46">
    <path d="M 162.288673 78.370581 
L 169.439702 78.370581 
" clip-path="url(#pf777d56953)" style="fill: none; stroke: #3d3d3d; stroke-width: 1.5; stroke-linecap: square"/>
   </g>
   <g id="line2d_47">
    <g clip-path="url(#pf777d56953)">
     <use xlink:href="#mf1c161b7c8" x="165.864187" y="62.75171" style="fill: #3d3d3d; stroke: #3d3d3d; stroke-linejoin: miter"/>
    </g>
   </g>
   <g id="line2d_48">
    <path d="M 195.052062 95.504735 
L 195.052062 95.504735 
" clip-path="url(#pf777d56953)" style="fill: none; stroke: #3d3d3d; stroke-width: 1.5; stroke-linecap: square"/>
   </g>
   <g id="line2d_49">
    <path d="M 195.052062 94.907387 
L 195.052062 94.907387 
" clip-path="url(#pf777d56953)" style="fill: none; stroke: #3d3d3d; stroke-width: 1.5; stroke-linecap: square"/>
   </g>
   <g id="line2d_50">
    <path d="M 191.476548 95.504735 
L 198.627577 95.504735 
" clip-path="url(#pf777d56953)" style="fill: none; stroke: #3d3d3d; stroke-width: 1.5; stroke-linecap: square"/>
   </g>
   <g id="line2d_51">
    <path d="M 191.476548 94.907387 
L 198.627577 94.907387 
" clip-path="url(#pf777d56953)" style="fill: none; stroke: #3d3d3d; stroke-width: 1.5; stroke-linecap: square"/>
   </g>
   <g id="line2d_52">
    <g clip-path="url(#pf777d56953)">
     <use xlink:href="#mf1c161b7c8" x="195.052062" y="100.244625" style="fill: #3d3d3d; stroke: #3d3d3d; stroke-linejoin: miter"/>
     <use xlink:href="#mf1c161b7c8" x="195.052062" y="93.473253" style="fill: #3d3d3d; stroke: #3d3d3d; stroke-linejoin: miter"/>
    </g>
   </g>
   <g id="line2d_53">
    <path d="M 209.646 97.111137 
L 209.646 97.111137 
" clip-path="url(#pf777d56953)" style="fill: none; stroke: #3d3d3d; stroke-width: 1.5; stroke-linecap: square"/>
   </g>
   <g id="line2d_54">
    <path d="M 209.646 95.679837 
L 209.646 95.522031 
" clip-path="url(#pf777d56953)" style="fill: none; stroke: #3d3d3d; stroke-width: 1.5; stroke-linecap: square"/>
   </g>
   <g id="line2d_55">
    <path d="M 206.070485 97.111137 
L 213.221515 97.111137 
" clip-path="url(#pf777d56953)" style="fill: none; stroke: #3d3d3d; stroke-width: 1.5; stroke-linecap: square"/>
   </g>
   <g id="line2d_56">
    <path d="M 206.070485 95.522031 
L 213.221515 95.522031 
" clip-path="url(#pf777d56953)" style="fill: none; stroke: #3d3d3d; stroke-width: 1.5; stroke-linecap: square"/>
   </g>
   <g id="line2d_57">
    <g clip-path="url(#pf777d56953)">
     <use xlink:href="#mf1c161b7c8" x="209.646" y="101.029513" style="fill: #3d3d3d; stroke: #3d3d3d; stroke-linejoin: miter"/>
    </g>
   </g>
   <g id="line2d_58">
    <path d="M 224.239937 99.833174 
L 224.239937 99.993574 
" clip-path="url(#pf777d56953)" style="fill: none; stroke: #3d3d3d; stroke-width: 1.5; stroke-linecap: square"/>
   </g>
   <g id="line2d_59">
    <path d="M 224.239937 97.083572 
L 224.239937 96.019656 
" clip-path="url(#pf777d56953)" style="fill: none; stroke: #3d3d3d; stroke-width: 1.5; stroke-linecap: square"/>
   </g>
   <g id="line2d_60">
    <path d="M 220.664423 99.993574 
L 227.815452 99.993574 
" clip-path="url(#pf777d56953)" style="fill: none; stroke: #3d3d3d; stroke-width: 1.5; stroke-linecap: square"/>
   </g>
   <g id="line2d_61">
    <path d="M 220.664423 96.019656 
L 227.815452 96.019656 
" clip-path="url(#pf777d56953)" style="fill: none; stroke: #3d3d3d; stroke-width: 1.5; stroke-linecap: square"/>
   </g>
   <g id="line2d_62"/>
   <g id="line2d_63">
    <path d="M 238.833875 104.217059 
L 238.833875 106.031742 
" clip-path="url(#pf777d56953)" style="fill: none; stroke: #3d3d3d; stroke-width: 1.5; stroke-linecap: square"/>
   </g>
   <g id="line2d_64">
    <path d="M 238.833875 101.098237 
L 238.833875 100.648448 
" clip-path="url(#pf777d56953)" style="fill: none; stroke: #3d3d3d; stroke-width: 1.5; stroke-linecap: square"/>
   </g>
   <g id="line2d_65">
    <path d="M 235.25836 106.031742 
L 242.40939 106.031742 
" clip-path="url(#pf777d56953)" style="fill: none; stroke: #3d3d3d; stroke-width: 1.5; stroke-linecap: square"/>
   </g>
   <g id="line2d_66">
    <path d="M 235.25836 100.648448 
L 242.40939 100.648448 
" clip-path="url(#pf777d56953)" style="fill: none; stroke: #3d3d3d; stroke-width: 1.5; stroke-linecap: square"/>
   </g>
   <g id="line2d_67"/>
   <g id="line2d_68">
    <path d="M 268.02175 55.843421 
L 268.02175 63.795003 
" clip-path="url(#pf777d56953)" style="fill: none; stroke: #3d3d3d; stroke-width: 1.5; stroke-linecap: square"/>
   </g>
   <g id="line2d_69">
    <path d="M 268.02175 40.95929 
L 268.02175 37.951692 
" clip-path="url(#pf777d56953)" style="fill: none; stroke: #3d3d3d; stroke-width: 1.5; stroke-linecap: square"/>
   </g>
   <g id="line2d_70">
    <path d="M 264.446235 63.795003 
L 271.597265 63.795003 
" clip-path="url(#pf777d56953)" style="fill: none; stroke: #3d3d3d; stroke-width: 1.5; stroke-linecap: square"/>
   </g>
   <g id="line2d_71">
    <path d="M 264.446235 37.951692 
L 271.597265 37.951692 
" clip-path="url(#pf777d56953)" style="fill: none; stroke: #3d3d3d; stroke-width: 1.5; stroke-linecap: square"/>
   </g>
   <g id="line2d_72"/>
   <g id="line2d_73">
    <path d="M 282.615687 52.505623 
L 282.615687 63.342753 
" clip-path="url(#pf777d56953)" style="fill: none; stroke: #3d3d3d; stroke-width: 1.5; stroke-linecap: square"/>
   </g>
   <g id="line2d_74">
    <path d="M 282.615687 26.681818 
L 282.615687 26.304488 
" clip-path="url(#pf777d56953)" style="fill: none; stroke: #3d3d3d; stroke-width: 1.5; stroke-linecap: square"/>
   </g>
   <g id="line2d_75">
    <path d="M 279.040173 63.342753 
L 286.191202 63.342753 
" clip-path="url(#pf777d56953)" style="fill: none; stroke: #3d3d3d; stroke-width: 1.5; stroke-linecap: square"/>
   </g>
   <g id="line2d_76">
    <path d="M 279.040173 26.304488 
L 286.191202 26.304488 
" clip-path="url(#pf777d56953)" style="fill: none; stroke: #3d3d3d; stroke-width: 1.5; stroke-linecap: square"/>
   </g>
   <g id="line2d_77"/>
   <g id="line2d_78">
    <path d="M 297.209625 65.556275 
L 297.209625 67.221658 
" clip-path="url(#pf777d56953)" style="fill: none; stroke: #3d3d3d; stroke-width: 1.5; stroke-linecap: square"/>
   </g>
   <g id="line2d_79">
    <path d="M 297.209625 41.518575 
L 297.209625 34.733528 
" clip-path="url(#pf777d56953)" style="fill: none; stroke: #3d3d3d; stroke-width: 1.5; stroke-linecap: square"/>
   </g>
   <g id="line2d_80">
    <path d="M 293.63411 67.221658 
L 300.78514 67.221658 
" clip-path="url(#pf777d56953)" style="fill: none; stroke: #3d3d3d; stroke-width: 1.5; stroke-linecap: square"/>
   </g>
   <g id="line2d_81">
    <path d="M 293.63411 34.733528 
L 300.78514 34.733528 
" clip-path="url(#pf777d56953)" style="fill: none; stroke: #3d3d3d; stroke-width: 1.5; stroke-linecap: square"/>
   </g>
   <g id="line2d_82"/>
   <g id="line2d_83">
    <path d="M 311.803562 83.527141 
L 311.803562 88.354299 
" clip-path="url(#pf777d56953)" style="fill: none; stroke: #3d3d3d; stroke-width: 1.5; stroke-linecap: square"/>
   </g>
   <g id="line2d_84">
    <path d="M 311.803562 79.564495 
L 311.803562 79.564495 
" clip-path="url(#pf777d56953)" style="fill: none; stroke: #3d3d3d; stroke-width: 1.5; stroke-linecap: square"/>
   </g>
   <g id="line2d_85">
    <path d="M 308.228048 88.354299 
L 315.379077 88.354299 
" clip-path="url(#pf777d56953)" style="fill: none; stroke: #3d3d3d; stroke-width: 1.5; stroke-linecap: square"/>
   </g>
   <g id="line2d_86">
    <path d="M 308.228048 79.564495 
L 315.379077 79.564495 
" clip-path="url(#pf777d56953)" style="fill: none; stroke: #3d3d3d; stroke-width: 1.5; stroke-linecap: square"/>
   </g>
   <g id="line2d_87">
    <g clip-path="url(#pf777d56953)">
     <use xlink:href="#mf1c161b7c8" x="311.803562" y="72.490838" style="fill: #3d3d3d; stroke: #3d3d3d; stroke-linejoin: miter"/>
    </g>
   </g>
   <g id="line2d_88">
    <path d="M 41.961658 95.705804 
L 56.263717 95.705804 
" clip-path="url(#pf777d56953)" style="fill: none; stroke: #3d3d3d; stroke-width: 1.5; stroke-linecap: square"/>
   </g>
   <g id="line2d_89">
    <path d="M 56.555596 99.12532 
L 70.857654 99.12532 
" clip-path="url(#pf777d56953)" style="fill: none; stroke: #3d3d3d; stroke-width: 1.5; stroke-linecap: square"/>
   </g>
   <g id="line2d_90">
    <path d="M 71.149533 99.172649 
L 85.451592 99.172649 
" clip-path="url(#pf777d56953)" style="fill: none; stroke: #3d3d3d; stroke-width: 1.5; stroke-linecap: square"/>
   </g>
   <g id="line2d_91">
    <path d="M 85.743471 103.384911 
L 100.045529 103.384911 
" clip-path="url(#pf777d56953)" style="fill: none; stroke: #3d3d3d; stroke-width: 1.5; stroke-linecap: square"/>
   </g>
   <g id="line2d_92">
    <path d="M 114.931346 51.65847 
L 129.233404 51.65847 
" clip-path="url(#pf777d56953)" style="fill: none; stroke: #3d3d3d; stroke-width: 1.5; stroke-linecap: square"/>
   </g>
   <g id="line2d_93">
    <path d="M 129.525283 38.438018 
L 143.827342 38.438018 
" clip-path="url(#pf777d56953)" style="fill: none; stroke: #3d3d3d; stroke-width: 1.5; stroke-linecap: square"/>
   </g>
   <g id="line2d_94">
    <path d="M 144.119221 57.834504 
L 158.421279 57.834504 
" clip-path="url(#pf777d56953)" style="fill: none; stroke: #3d3d3d; stroke-width: 1.5; stroke-linecap: square"/>
   </g>
   <g id="line2d_95">
    <path d="M 158.713158 78.698964 
L 173.015217 78.698964 
" clip-path="url(#pf777d56953)" style="fill: none; stroke: #3d3d3d; stroke-width: 1.5; stroke-linecap: square"/>
   </g>
   <g id="line2d_96">
    <path d="M 187.901033 94.951536 
L 202.203092 94.951536 
" clip-path="url(#pf777d56953)" style="fill: none; stroke: #3d3d3d; stroke-width: 1.5; stroke-linecap: square"/>
   </g>
   <g id="line2d_97">
    <path d="M 202.494971 96.811463 
L 216.797029 96.811463 
" clip-path="url(#pf777d56953)" style="fill: none; stroke: #3d3d3d; stroke-width: 1.5; stroke-linecap: square"/>
   </g>
   <g id="line2d_98">
    <path d="M 217.088908 98.335411 
L 231.390967 98.335411 
" clip-path="url(#pf777d56953)" style="fill: none; stroke: #3d3d3d; stroke-width: 1.5; stroke-linecap: square"/>
   </g>
   <g id="line2d_99">
    <path d="M 231.682846 101.554493 
L 245.984904 101.554493 
" clip-path="url(#pf777d56953)" style="fill: none; stroke: #3d3d3d; stroke-width: 1.5; stroke-linecap: square"/>
   </g>
   <g id="line2d_100">
    <path d="M 260.870721 44.337504 
L 275.172779 44.337504 
" clip-path="url(#pf777d56953)" style="fill: none; stroke: #3d3d3d; stroke-width: 1.5; stroke-linecap: square"/>
   </g>
   <g id="line2d_101">
    <path d="M 275.464658 49.866564 
L 289.766717 49.866564 
" clip-path="url(#pf777d56953)" style="fill: none; stroke: #3d3d3d; stroke-width: 1.5; stroke-linecap: square"/>
   </g>
   <g id="line2d_102">
    <path d="M 290.058596 64.466755 
L 304.360654 64.466755 
" clip-path="url(#pf777d56953)" style="fill: none; stroke: #3d3d3d; stroke-width: 1.5; stroke-linecap: square"/>
   </g>
   <g id="line2d_103">
    <path d="M 304.652533 83.017783 
L 318.954592 83.017783 
" clip-path="url(#pf777d56953)" style="fill: none; stroke: #3d3d3d; stroke-width: 1.5; stroke-linecap: square"/>
   </g>
   <g id="patch_23">
    <path d="M 34.51875 110.018105 
L 34.51875 22.318125 
" style="fill: none; stroke: #000000; stroke-width: 0.8; stroke-linejoin: miter; stroke-linecap: square"/>
   </g>
   <g id="patch_24">
    <path d="M 326.3975 110.018105 
L 326.3975 22.318125 
" style="fill: none; stroke: #000000; stroke-width: 0.8; stroke-linejoin: miter; stroke-linecap: square"/>
   </g>
   <g id="patch_25">
    <path d="M 34.51875 110.018105 
L 326.3975 110.018105 
" style="fill: none; stroke: #000000; stroke-width: 0.8; stroke-linejoin: miter; stroke-linecap: square"/>
   </g>
   <g id="patch_26">
    <path d="M 34.51875 22.318125 
L 326.3975 22.318125 
" style="fill: none; stroke: #000000; stroke-width: 0.8; stroke-linejoin: miter; stroke-linecap: square"/>
   </g>
   <g id="PathCollection_1">
    <defs>
     <path id="C0_0_df3d7363c6" d="M 0 1.5 
C 0.397805 1.5 0.77937 1.341951 1.06066 1.06066 
C 1.341951 0.77937 1.5 0.397805 1.5 -0 
C 1.5 -0.397805 1.341951 -0.77937 1.06066 -1.06066 
C 0.77937 -1.341951 0.397805 -1.5 0 -1.5 
C -0.397805 -1.5 -0.77937 -1.341951 -1.06066 -1.06066 
C -1.341951 -0.77937 -1.5 -0.397805 -1.5 0 
C -1.5 0.397805 -1.341951 0.77937 -1.06066 1.06066 
C -0.77937 1.341951 -0.397805 1.5 0 1.5 
z
"/>
    </defs>
    <g clip-path="url(#pf777d56953)">
     <use xlink:href="#C0_0_df3d7363c6" x="49.327537" y="95.705804" style="fill: #262626"/>
    </g>
    <g clip-path="url(#pf777d56953)">
     <use xlink:href="#C0_0_df3d7363c6" x="48.430336" y="96.42811" style="fill: #262626"/>
    </g>
    <g clip-path="url(#pf777d56953)">
     <use xlink:href="#C0_0_df3d7363c6" x="49.133889" y="93.776437" style="fill: #262626"/>
    </g>
    <g clip-path="url(#pf777d56953)">
     <use xlink:href="#C0_0_df3d7363c6" x="50.291856" y="96.793085" style="fill: #262626"/>
    </g>
    <g clip-path="url(#pf777d56953)">
     <use xlink:href="#C0_0_df3d7363c6" x="47.591679" y="93.400301" style="fill: #262626"/>
    </g>
   </g>
   <g id="PathCollection_2">
    <defs>
     <path id="C1_0_63b9f6b37e" d="M 0 1.5 
C 0.397805 1.5 0.77937 1.341951 1.06066 1.06066 
C 1.341951 0.77937 1.5 0.397805 1.5 -0 
C 1.5 -0.397805 1.341951 -0.77937 1.06066 -1.06066 
C 0.77937 -1.341951 0.397805 -1.5 0 -1.5 
C -0.397805 -1.5 -0.77937 -1.341951 -1.06066 -1.06066 
C -1.341951 -0.77937 -1.5 -0.397805 -1.5 0 
C -1.5 0.397805 -1.341951 0.77937 -1.06066 1.06066 
C -0.77937 1.341951 -0.397805 1.5 0 1.5 
z
"/>
    </defs>
    <g clip-path="url(#pf777d56953)">
     <use xlink:href="#C1_0_63b9f6b37e" x="62.723925" y="100.142512" style="fill: #191919"/>
    </g>
    <g clip-path="url(#pf777d56953)">
     <use xlink:href="#C1_0_63b9f6b37e" x="62.595107" y="95.983501" style="fill: #191919"/>
    </g>
    <g clip-path="url(#pf777d56953)">
     <use xlink:href="#C1_0_63b9f6b37e" x="63.920314" y="99.12532" style="fill: #191919"/>
    </g>
    <g clip-path="url(#pf777d56953)">
     <use xlink:href="#C1_0_63b9f6b37e" x="65.128679" y="95.578698" style="fill: #191919"/>
    </g>
    <g clip-path="url(#pf777d56953)">
     <use xlink:href="#C1_0_63b9f6b37e" x="63.685687" y="99.282573" style="fill: #191919"/>
    </g>
   </g>
   <g id="PathCollection_3">
    <defs>
     <path id="C2_0_9c7c5f5e65" d="M 0 1.5 
C 0.397805 1.5 0.77937 1.341951 1.06066 1.06066 
C 1.341951 0.77937 1.5 0.397805 1.5 -0 
C 1.5 -0.397805 1.341951 -0.77937 1.06066 -1.06066 
C 0.77937 -1.341951 0.397805 -1.5 0 -1.5 
C -0.397805 -1.5 -0.77937 -1.341951 -1.06066 -1.06066 
C -1.341951 -0.77937 -1.5 -0.397805 -1.5 0 
C -1.5 0.397805 -1.341951 0.77937 -1.06066 1.06066 
C -0.77937 1.341951 -0.397805 1.5 0 1.5 
z
"/>
    </defs>
    <g clip-path="url(#pf777d56953)">
     <use xlink:href="#C2_0_9c7c5f5e65" x="76.78091" y="99.470747" style="fill: #0d0d0d"/>
    </g>
    <g clip-path="url(#pf777d56953)">
     <use xlink:href="#C2_0_9c7c5f5e65" x="76.738958" y="99.172649" style="fill: #0d0d0d"/>
    </g>
    <g clip-path="url(#pf777d56953)">
     <use xlink:href="#C2_0_9c7c5f5e65" x="78.141783" y="98.130947" style="fill: #0d0d0d"/>
    </g>
    <g clip-path="url(#pf777d56953)">
     <use xlink:href="#C2_0_9c7c5f5e65" x="77.252816" y="100.221694" style="fill: #0d0d0d"/>
    </g>
    <g clip-path="url(#pf777d56953)">
     <use xlink:href="#C2_0_9c7c5f5e65" x="77.273965" y="96.400751" style="fill: #0d0d0d"/>
    </g>
   </g>
   <g id="PathCollection_4">
    <defs>
     <path id="C3_0_c06bf31621" d="M 0 1.5 
C 0.397805 1.5 0.77937 1.341951 1.06066 1.06066 
C 1.341951 0.77937 1.5 0.397805 1.5 -0 
C 1.5 -0.397805 1.341951 -0.77937 1.06066 -1.06066 
C 0.77937 -1.341951 0.397805 -1.5 0 -1.5 
C -0.397805 -1.5 -0.77937 -1.341951 -1.06066 -1.06066 
C -1.341951 -0.77937 -1.5 -0.397805 -1.5 0 
C -1.5 0.397805 -1.341951 0.77937 -1.06066 1.06066 
C -0.77937 1.341951 -0.397805 1.5 0 1.5 
z
"/>
    </defs>
    <g clip-path="url(#pf777d56953)">
     <use xlink:href="#C3_0_c06bf31621" x="94.334363" y="104.425082"/>
    </g>
    <g clip-path="url(#pf777d56953)">
     <use xlink:href="#C3_0_c06bf31621" x="92.95885" y="103.384911"/>
    </g>
    <g clip-path="url(#pf777d56953)">
     <use xlink:href="#C3_0_c06bf31621" x="94.184715" y="102.805029"/>
    </g>
    <g clip-path="url(#pf777d56953)">
     <use xlink:href="#C3_0_c06bf31621" x="92.384176" y="104.824022"/>
    </g>
    <g clip-path="url(#pf777d56953)">
     <use xlink:href="#C3_0_c06bf31621" x="93.496067" y="102.627689"/>
    </g>
   </g>
   <g id="PathCollection_5">
    <defs>
     <path id="C4_0_17ffd6fdde" d="M 0 1.5 
C 0.397805 1.5 0.77937 1.341951 1.06066 1.06066 
C 1.341951 0.77937 1.5 0.397805 1.5 -0 
C 1.5 -0.397805 1.341951 -0.77937 1.06066 -1.06066 
C 0.77937 -1.341951 0.397805 -1.5 0 -1.5 
C -0.397805 -1.5 -0.77937 -1.341951 -1.06066 -1.06066 
C -1.341951 -0.77937 -1.5 -0.397805 -1.5 0 
C -1.5 0.397805 -1.341951 0.77937 -1.06066 1.06066 
C -0.77937 1.341951 -0.397805 1.5 0 1.5 
z
"/>
    </defs>
    <g clip-path="url(#pf777d56953)">
     <use xlink:href="#C4_0_17ffd6fdde" x="121.513365" y="49.296997" style="fill: #262626"/>
    </g>
    <g clip-path="url(#pf777d56953)">
     <use xlink:href="#C4_0_17ffd6fdde" x="120.95945" y="51.65847" style="fill: #262626"/>
    </g>
    <g clip-path="url(#pf777d56953)">
     <use xlink:href="#C4_0_17ffd6fdde" x="121.171945" y="53.406067" style="fill: #262626"/>
    </g>
    <g clip-path="url(#pf777d56953)">
     <use xlink:href="#C4_0_17ffd6fdde" x="121.716872" y="53.775082" style="fill: #262626"/>
    </g>
    <g clip-path="url(#pf777d56953)">
     <use xlink:href="#C4_0_17ffd6fdde" x="121.009467" y="34.309625" style="fill: #262626"/>
    </g>
   </g>
   <g id="PathCollection_6">
    <defs>
     <path id="C5_0_c3fedb2d42" d="M 0 1.5 
C 0.397805 1.5 0.77937 1.341951 1.06066 1.06066 
C 1.341951 0.77937 1.5 0.397805 1.5 -0 
C 1.5 -0.397805 1.341951 -0.77937 1.06066 -1.06066 
C 0.77937 -1.341951 0.397805 -1.5 0 -1.5 
C -0.397805 -1.5 -0.77937 -1.341951 -1.06066 -1.06066 
C -1.341951 -0.77937 -1.5 -0.397805 -1.5 0 
C -1.5 0.397805 -1.341951 0.77937 -1.06066 1.06066 
C -0.77937 1.341951 -0.397805 1.5 0 1.5 
z
"/>
    </defs>
    <g clip-path="url(#pf777d56953)">
     <use xlink:href="#C5_0_c3fedb2d42" x="136.228981" y="37.620603" style="fill: #191919"/>
    </g>
    <g clip-path="url(#pf777d56953)">
     <use xlink:href="#C5_0_c3fedb2d42" x="138.401289" y="39.63257" style="fill: #191919"/>
    </g>
    <g clip-path="url(#pf777d56953)">
     <use xlink:href="#C5_0_c3fedb2d42" x="135.692519" y="50.195355" style="fill: #191919"/>
    </g>
    <g clip-path="url(#pf777d56953)">
     <use xlink:href="#C5_0_c3fedb2d42" x="135.224178" y="38.438018" style="fill: #191919"/>
    </g>
    <g clip-path="url(#pf777d56953)">
     <use xlink:href="#C5_0_c3fedb2d42" x="135.086706" y="34.545769" style="fill: #191919"/>
    </g>
   </g>
   <g id="PathCollection_7">
    <defs>
     <path id="C6_0_00979ce10c" d="M 0 1.5 
C 0.397805 1.5 0.77937 1.341951 1.06066 1.06066 
C 1.341951 0.77937 1.5 0.397805 1.5 -0 
C 1.5 -0.397805 1.341951 -0.77937 1.06066 -1.06066 
C 0.77937 -1.341951 0.397805 -1.5 0 -1.5 
C -0.397805 -1.5 -0.77937 -1.341951 -1.06066 -1.06066 
C -1.341951 -0.77937 -1.5 -0.397805 -1.5 0 
C -1.5 0.397805 -1.341951 0.77937 -1.06066 1.06066 
C -0.77937 1.341951 -0.397805 1.5 0 1.5 
z
"/>
    </defs>
    <g clip-path="url(#pf777d56953)">
     <use xlink:href="#C6_0_00979ce10c" x="152.042112" y="68.628675" style="fill: #0d0d0d"/>
    </g>
    <g clip-path="url(#pf777d56953)">
     <use xlink:href="#C6_0_00979ce10c" x="151.604898" y="57.834504" style="fill: #0d0d0d"/>
    </g>
    <g clip-path="url(#pf777d56953)">
     <use xlink:href="#C6_0_00979ce10c" x="152.506894" y="55.759301" style="fill: #0d0d0d"/>
    </g>
    <g clip-path="url(#pf777d56953)">
     <use xlink:href="#C6_0_00979ce10c" x="152.154951" y="63.775341" style="fill: #0d0d0d"/>
    </g>
    <g clip-path="url(#pf777d56953)">
     <use xlink:href="#C6_0_00979ce10c" x="150.057384" y="52.546772" style="fill: #0d0d0d"/>
    </g>
   </g>
   <g id="PathCollection_8">
    <defs>
     <path id="C7_0_f75ef75031" d="M 0 1.5 
C 0.397805 1.5 0.77937 1.341951 1.06066 1.06066 
C 1.341951 0.77937 1.5 0.397805 1.5 -0 
C 1.5 -0.397805 1.341951 -0.77937 1.06066 -1.06066 
C 0.77937 -1.341951 0.397805 -1.5 0 -1.5 
C -0.397805 -1.5 -0.77937 -1.341951 -1.06066 -1.06066 
C -1.341951 -0.77937 -1.5 -0.397805 -1.5 0 
C -1.5 0.397805 -1.341951 0.77937 -1.06066 1.06066 
C -0.77937 1.341951 -0.397805 1.5 0 1.5 
z
"/>
    </defs>
    <g clip-path="url(#pf777d56953)">
     <use xlink:href="#C7_0_f75ef75031" x="165.039696" y="78.370581"/>
    </g>
    <g clip-path="url(#pf777d56953)">
     <use xlink:href="#C7_0_f75ef75031" x="164.897022" y="78.698964"/>
    </g>
    <g clip-path="url(#pf777d56953)">
     <use xlink:href="#C7_0_f75ef75031" x="165.341725" y="82.613039"/>
    </g>
    <g clip-path="url(#pf777d56953)">
     <use xlink:href="#C7_0_f75ef75031" x="166.971195" y="62.75171"/>
    </g>
    <g clip-path="url(#pf777d56953)">
     <use xlink:href="#C7_0_f75ef75031" x="164.446639" y="83.237442"/>
    </g>
   </g>
   <g id="PathCollection_9">
    <defs>
     <path id="C8_0_702e8e959c" d="M 0 1.5 
C 0.397805 1.5 0.77937 1.341951 1.06066 1.06066 
C 1.341951 0.77937 1.5 0.397805 1.5 -0 
C 1.5 -0.397805 1.341951 -0.77937 1.06066 -1.06066 
C 0.77937 -1.341951 0.397805 -1.5 0 -1.5 
C -0.397805 -1.5 -0.77937 -1.341951 -1.06066 -1.06066 
C -1.341951 -0.77937 -1.5 -0.397805 -1.5 0 
C -1.5 0.397805 -1.341951 0.77937 -1.06066 1.06066 
C -0.77937 1.341951 -0.397805 1.5 0 1.5 
z
"/>
    </defs>
    <g clip-path="url(#pf777d56953)">
     <use xlink:href="#C8_0_702e8e959c" x="195.250207" y="93.473253" style="fill: #262626"/>
    </g>
    <g clip-path="url(#pf777d56953)">
     <use xlink:href="#C8_0_702e8e959c" x="196.861576" y="95.504735" style="fill: #262626"/>
    </g>
    <g clip-path="url(#pf777d56953)">
     <use xlink:href="#C8_0_702e8e959c" x="194.546996" y="100.244625" style="fill: #262626"/>
    </g>
    <g clip-path="url(#pf777d56953)">
     <use xlink:href="#C8_0_702e8e959c" x="193.440789" y="94.907387" style="fill: #262626"/>
    </g>
    <g clip-path="url(#pf777d56953)">
     <use xlink:href="#C8_0_702e8e959c" x="194.04705" y="94.951536" style="fill: #262626"/>
    </g>
   </g>
   <g id="PathCollection_10">
    <defs>
     <path id="C9_0_935ca3e504" d="M 0 1.5 
C 0.397805 1.5 0.77937 1.341951 1.06066 1.06066 
C 1.341951 0.77937 1.5 0.397805 1.5 -0 
C 1.5 -0.397805 1.341951 -0.77937 1.06066 -1.06066 
C 0.77937 -1.341951 0.397805 -1.5 0 -1.5 
C -0.397805 -1.5 -0.77937 -1.341951 -1.06066 -1.06066 
C -1.341951 -0.77937 -1.5 -0.397805 -1.5 0 
C -1.5 0.397805 -1.341951 0.77937 -1.06066 1.06066 
C -0.77937 1.341951 -0.397805 1.5 0 1.5 
z
"/>
    </defs>
    <g clip-path="url(#pf777d56953)">
     <use xlink:href="#C9_0_935ca3e504" x="210.997738" y="101.029513" style="fill: #191919"/>
    </g>
    <g clip-path="url(#pf777d56953)">
     <use xlink:href="#C9_0_935ca3e504" x="209.283121" y="97.111137" style="fill: #191919"/>
    </g>
    <g clip-path="url(#pf777d56953)">
     <use xlink:href="#C9_0_935ca3e504" x="211.253875" y="96.811463" style="fill: #191919"/>
    </g>
    <g clip-path="url(#pf777d56953)">
     <use xlink:href="#C9_0_935ca3e504" x="208.178921" y="95.522031" style="fill: #191919"/>
    </g>
    <g clip-path="url(#pf777d56953)">
     <use xlink:href="#C9_0_935ca3e504" x="209.47441" y="95.679837" style="fill: #191919"/>
    </g>
   </g>
   <g id="PathCollection_11">
    <defs>
     <path id="Ca_0_e64cfccada" d="M 0 1.5 
C 0.397805 1.5 0.77937 1.341951 1.06066 1.06066 
C 1.341951 0.77937 1.5 0.397805 1.5 -0 
C 1.5 -0.397805 1.341951 -0.77937 1.06066 -1.06066 
C 0.77937 -1.341951 0.397805 -1.5 0 -1.5 
C -0.397805 -1.5 -0.77937 -1.341951 -1.06066 -1.06066 
C -1.341951 -0.77937 -1.5 -0.397805 -1.5 0 
C -1.5 0.397805 -1.341951 0.77937 -1.06066 1.06066 
C -0.77937 1.341951 -0.397805 1.5 0 1.5 
z
"/>
    </defs>
    <g clip-path="url(#pf777d56953)">
     <use xlink:href="#Ca_0_e64cfccada" x="223.331936" y="99.833174" style="fill: #0d0d0d"/>
    </g>
    <g clip-path="url(#pf777d56953)">
     <use xlink:href="#Ca_0_e64cfccada" x="225.38975" y="99.993574" style="fill: #0d0d0d"/>
    </g>
    <g clip-path="url(#pf777d56953)">
     <use xlink:href="#Ca_0_e64cfccada" x="223.5789" y="97.083572" style="fill: #0d0d0d"/>
    </g>
    <g clip-path="url(#pf777d56953)">
     <use xlink:href="#Ca_0_e64cfccada" x="222.421729" y="96.019656" style="fill: #0d0d0d"/>
    </g>
    <g clip-path="url(#pf777d56953)">
     <use xlink:href="#Ca_0_e64cfccada" x="225.206363" y="98.335411" style="fill: #0d0d0d"/>
    </g>
   </g>
   <g id="PathCollection_12">
    <defs>
     <path id="Cb_0_dd41486ca6" d="M 0 1.5 
C 0.397805 1.5 0.77937 1.341951 1.06066 1.06066 
C 1.341951 0.77937 1.5 0.397805 1.5 -0 
C 1.5 -0.397805 1.341951 -0.77937 1.06066 -1.06066 
C 0.77937 -1.341951 0.397805 -1.5 0 -1.5 
C -0.397805 -1.5 -0.77937 -1.341951 -1.06066 -1.06066 
C -1.341951 -0.77937 -1.5 -0.397805 -1.5 0 
C -1.5 0.397805 -1.341951 0.77937 -1.06066 1.06066 
C -0.77937 1.341951 -0.397805 1.5 0 1.5 
z
"/>
    </defs>
    <g clip-path="url(#pf777d56953)">
     <use xlink:href="#Cb_0_dd41486ca6" x="237.463812" y="106.031742"/>
    </g>
    <g clip-path="url(#pf777d56953)">
     <use xlink:href="#Cb_0_dd41486ca6" x="240.537088" y="104.217059"/>
    </g>
    <g clip-path="url(#pf777d56953)">
     <use xlink:href="#Cb_0_dd41486ca6" x="239.124" y="101.098237"/>
    </g>
    <g clip-path="url(#pf777d56953)">
     <use xlink:href="#Cb_0_dd41486ca6" x="239.371509" y="101.554493"/>
    </g>
    <g clip-path="url(#pf777d56953)">
     <use xlink:href="#Cb_0_dd41486ca6" x="237.729685" y="100.648448"/>
    </g>
   </g>
   <g id="PathCollection_13">
    <defs>
     <path id="Cc_0_fd568bb6d1" d="M 0 1.5 
C 0.397805 1.5 0.77937 1.341951 1.06066 1.06066 
C 1.341951 0.77937 1.5 0.397805 1.5 -0 
C 1.5 -0.397805 1.341951 -0.77937 1.06066 -1.06066 
C 0.77937 -1.341951 0.397805 -1.5 0 -1.5 
C -0.397805 -1.5 -0.77937 -1.341951 -1.06066 -1.06066 
C -1.341951 -0.77937 -1.5 -0.397805 -1.5 0 
C -1.5 0.397805 -1.341951 0.77937 -1.06066 1.06066 
C -0.77937 1.341951 -0.397805 1.5 0 1.5 
z
"/>
    </defs>
    <g clip-path="url(#pf777d56953)">
     <use xlink:href="#Cc_0_fd568bb6d1" x="269.593193" y="44.337504" style="fill: #262626"/>
    </g>
    <g clip-path="url(#pf777d56953)">
     <use xlink:href="#Cc_0_fd568bb6d1" x="269.046947" y="55.843421" style="fill: #262626"/>
    </g>
    <g clip-path="url(#pf777d56953)">
     <use xlink:href="#Cc_0_fd568bb6d1" x="267.81839" y="37.951692" style="fill: #262626"/>
    </g>
    <g clip-path="url(#pf777d56953)">
     <use xlink:href="#Cc_0_fd568bb6d1" x="268.244015" y="63.795003" style="fill: #262626"/>
    </g>
    <g clip-path="url(#pf777d56953)">
     <use xlink:href="#Cc_0_fd568bb6d1" x="269.719569" y="40.95929" style="fill: #262626"/>
    </g>
   </g>
   <g id="PathCollection_14">
    <defs>
     <path id="Cd_0_cdf0fbf825" d="M 0 1.5 
C 0.397805 1.5 0.77937 1.341951 1.06066 1.06066 
C 1.341951 0.77937 1.5 0.397805 1.5 -0 
C 1.5 -0.397805 1.341951 -0.77937 1.06066 -1.06066 
C 0.77937 -1.341951 0.397805 -1.5 0 -1.5 
C -0.397805 -1.5 -0.77937 -1.341951 -1.06066 -1.06066 
C -1.341951 -0.77937 -1.5 -0.397805 -1.5 0 
C -1.5 0.397805 -1.341951 0.77937 -1.06066 1.06066 
C -0.77937 1.341951 -0.397805 1.5 0 1.5 
z
"/>
    </defs>
    <g clip-path="url(#pf777d56953)">
     <use xlink:href="#Cd_0_cdf0fbf825" x="280.794832" y="49.866564" style="fill: #191919"/>
    </g>
    <g clip-path="url(#pf777d56953)">
     <use xlink:href="#Cd_0_cdf0fbf825" x="281.79162" y="52.505623" style="fill: #191919"/>
    </g>
    <g clip-path="url(#pf777d56953)">
     <use xlink:href="#Cd_0_cdf0fbf825" x="283.18718" y="26.304488" style="fill: #191919"/>
    </g>
    <g clip-path="url(#pf777d56953)">
     <use xlink:href="#Cd_0_cdf0fbf825" x="284.436096" y="26.681818" style="fill: #191919"/>
    </g>
    <g clip-path="url(#pf777d56953)">
     <use xlink:href="#Cd_0_cdf0fbf825" x="282.664116" y="63.342753" style="fill: #191919"/>
    </g>
   </g>
   <g id="PathCollection_15">
    <defs>
     <path id="Ce_0_7ee5c40673" d="M 0 1.5 
C 0.397805 1.5 0.77937 1.341951 1.06066 1.06066 
C 1.341951 0.77937 1.5 0.397805 1.5 -0 
C 1.5 -0.397805 1.341951 -0.77937 1.06066 -1.06066 
C 0.77937 -1.341951 0.397805 -1.5 0 -1.5 
C -0.397805 -1.5 -0.77937 -1.341951 -1.06066 -1.06066 
C -1.341951 -0.77937 -1.5 -0.397805 -1.5 0 
C -1.5 0.397805 -1.341951 0.77937 -1.06066 1.06066 
C -0.77937 1.341951 -0.397805 1.5 0 1.5 
z
"/>
    </defs>
    <g clip-path="url(#pf777d56953)">
     <use xlink:href="#Ce_0_7ee5c40673" x="295.441413" y="41.518575" style="fill: #0d0d0d"/>
    </g>
    <g clip-path="url(#pf777d56953)">
     <use xlink:href="#Ce_0_7ee5c40673" x="297.528098" y="34.733528" style="fill: #0d0d0d"/>
    </g>
    <g clip-path="url(#pf777d56953)">
     <use xlink:href="#Ce_0_7ee5c40673" x="297.1648" y="65.556275" style="fill: #0d0d0d"/>
    </g>
    <g clip-path="url(#pf777d56953)">
     <use xlink:href="#Ce_0_7ee5c40673" x="296.002816" y="67.221658" style="fill: #0d0d0d"/>
    </g>
    <g clip-path="url(#pf777d56953)">
     <use xlink:href="#Ce_0_7ee5c40673" x="297.663202" y="64.466755" style="fill: #0d0d0d"/>
    </g>
   </g>
   <g id="PathCollection_16">
    <defs>
     <path id="Cf_0_7dc852fc16" d="M 0 1.5 
C 0.397805 1.5 0.77937 1.341951 1.06066 1.06066 
C 1.341951 0.77937 1.5 0.397805 1.5 -0 
C 1.5 -0.397805 1.341951 -0.77937 1.06066 -1.06066 
C 0.77937 -1.341951 0.397805 -1.5 0 -1.5 
C -0.397805 -1.5 -0.77937 -1.341951 -1.06066 -1.06066 
C -1.341951 -0.77937 -1.5 -0.397805 -1.5 0 
C -1.5 0.397805 -1.341951 0.77937 -1.06066 1.06066 
C -0.77937 1.341951 -0.397805 1.5 0 1.5 
z
"/>
    </defs>
    <g clip-path="url(#pf777d56953)">
     <use xlink:href="#Cf_0_7dc852fc16" x="311.58597" y="83.017783"/>
    </g>
    <g clip-path="url(#pf777d56953)">
     <use xlink:href="#Cf_0_7dc852fc16" x="310.324082" y="72.490838"/>
    </g>
    <g clip-path="url(#pf777d56953)">
     <use xlink:href="#Cf_0_7dc852fc16" x="311.533123" y="83.527141"/>
    </g>
    <g clip-path="url(#pf777d56953)">
     <use xlink:href="#Cf_0_7dc852fc16" x="313.271302" y="88.354299"/>
    </g>
    <g clip-path="url(#pf777d56953)">
     <use xlink:href="#Cf_0_7dc852fc16" x="311.677938" y="79.564495"/>
    </g>
   </g>
   <g id="text_10">
    <!-- medical -->
    <g transform="translate(156.803125 16.318125) scale(0.12 -0.12)">
     <defs>
      <path id="DejaVuSans-6c" d="M 603 4863 
L 1178 4863 
L 1178 0 
L 603 0 
L 603 4863 
z
" transform="scale(0.015625)"/>
     </defs>
     <use xlink:href="#DejaVuSans-6d"/>
     <use xlink:href="#DejaVuSans-65" x="97.412109"/>
     <use xlink:href="#DejaVuSans-64" x="158.935547"/>
     <use xlink:href="#DejaVuSans-69" x="222.412109"/>
     <use xlink:href="#DejaVuSans-63" x="250.195312"/>
     <use xlink:href="#DejaVuSans-61" x="305.175781"/>
     <use xlink:href="#DejaVuSans-6c" x="366.455078"/>
    </g>
   </g>
   <g id="legend_1">
    <g id="patch_27">
     <path d="M 333.3975 105.018105 
L 400.824062 105.018105 
Q 402.824062 105.018105 402.824062 103.018105 
L 402.824062 45.305605 
Q 402.824062 43.305605 400.824062 43.305605 
L 333.3975 43.305605 
Q 331.3975 43.305605 331.3975 45.305605 
L 331.3975 103.018105 
Q 331.3975 105.018105 333.3975 105.018105 
z
" style="fill: #ffffff; opacity: 0.8; stroke: #cccccc; stroke-linejoin: miter"/>
    </g>
    <g id="patch_28">
     <path d="M 335.3975 54.904043 
L 355.3975 54.904043 
L 355.3975 47.904043 
L 335.3975 47.904043 
z
" style="fill: #3274a1; stroke: #3d3d3d; stroke-width: 0.75; stroke-linejoin: miter"/>
    </g>
    <g id="text_11">
     <!-- none -->
     <g transform="translate(363.3975 54.904043) scale(0.1 -0.1)">
      <use xlink:href="#DejaVuSans-6e"/>
      <use xlink:href="#DejaVuSans-6f" x="63.378906"/>
      <use xlink:href="#DejaVuSans-6e" x="124.560547"/>
      <use xlink:href="#DejaVuSans-65" x="187.939453"/>
     </g>
    </g>
    <g id="patch_29">
     <path d="M 335.3975 69.582168 
L 355.3975 69.582168 
L 355.3975 62.582168 
L 335.3975 62.582168 
z
" style="fill: #e1812c; stroke: #3d3d3d; stroke-width: 0.75; stroke-linejoin: miter"/>
    </g>
    <g id="text_12">
     <!-- drop30 -->
     <g transform="translate(363.3975 69.582168) scale(0.1 -0.1)">
      <defs>
       <path id="DejaVuSans-33" d="M 2597 2516 
Q 3050 2419 3304 2112 
Q 3559 1806 3559 1356 
Q 3559 666 3084 287 
Q 2609 -91 1734 -91 
Q 1441 -91 1130 -33 
Q 819 25 488 141 
L 488 750 
Q 750 597 1062 519 
Q 1375 441 1716 441 
Q 2309 441 2620 675 
Q 2931 909 2931 1356 
Q 2931 1769 2642 2001 
Q 2353 2234 1838 2234 
L 1294 2234 
L 1294 2753 
L 1863 2753 
Q 2328 2753 2575 2939 
Q 2822 3125 2822 3475 
Q 2822 3834 2567 4026 
Q 2313 4219 1838 4219 
Q 1578 4219 1281 4162 
Q 984 4106 628 3988 
L 628 4550 
Q 988 4650 1302 4700 
Q 1616 4750 1894 4750 
Q 2613 4750 3031 4423 
Q 3450 4097 3450 3541 
Q 3450 3153 3228 2886 
Q 3006 2619 2597 2516 
z
" transform="scale(0.015625)"/>
       <path id="DejaVuSans-30" d="M 2034 4250 
Q 1547 4250 1301 3770 
Q 1056 3291 1056 2328 
Q 1056 1369 1301 889 
Q 1547 409 2034 409 
Q 2525 409 2770 889 
Q 3016 1369 3016 2328 
Q 3016 3291 2770 3770 
Q 2525 4250 2034 4250 
z
M 2034 4750 
Q 2819 4750 3233 4129 
Q 3647 3509 3647 2328 
Q 3647 1150 3233 529 
Q 2819 -91 2034 -91 
Q 1250 -91 836 529 
Q 422 1150 422 2328 
Q 422 3509 836 4129 
Q 1250 4750 2034 4750 
z
" transform="scale(0.015625)"/>
      </defs>
      <use xlink:href="#DejaVuSans-64"/>
      <use xlink:href="#DejaVuSans-72" x="63.476562"/>
      <use xlink:href="#DejaVuSans-6f" x="102.339844"/>
      <use xlink:href="#DejaVuSans-70" x="163.521484"/>
      <use xlink:href="#DejaVuSans-33" x="226.998047"/>
      <use xlink:href="#DejaVuSans-30" x="290.621094"/>
     </g>
    </g>
    <g id="patch_30">
     <path d="M 335.3975 84.260293 
L 355.3975 84.260293 
L 355.3975 77.260293 
L 335.3975 77.260293 
z
" style="fill: #3a923a; stroke: #3d3d3d; stroke-width: 0.75; stroke-linejoin: miter"/>
    </g>
    <g id="text_13">
     <!-- drop50 -->
     <g transform="translate(363.3975 84.260293) scale(0.1 -0.1)">
      <defs>
       <path id="DejaVuSans-35" d="M 691 4666 
L 3169 4666 
L 3169 4134 
L 1269 4134 
L 1269 2991 
Q 1406 3038 1543 3061 
Q 1681 3084 1819 3084 
Q 2600 3084 3056 2656 
Q 3513 2228 3513 1497 
Q 3513 744 3044 326 
Q 2575 -91 1722 -91 
Q 1428 -91 1123 -41 
Q 819 9 494 109 
L 494 744 
Q 775 591 1075 516 
Q 1375 441 1709 441 
Q 2250 441 2565 725 
Q 2881 1009 2881 1497 
Q 2881 1984 2565 2268 
Q 2250 2553 1709 2553 
Q 1456 2553 1204 2497 
Q 953 2441 691 2322 
L 691 4666 
z
" transform="scale(0.015625)"/>
      </defs>
      <use xlink:href="#DejaVuSans-64"/>
      <use xlink:href="#DejaVuSans-72" x="63.476562"/>
      <use xlink:href="#DejaVuSans-6f" x="102.339844"/>
      <use xlink:href="#DejaVuSans-70" x="163.521484"/>
      <use xlink:href="#DejaVuSans-35" x="226.998047"/>
      <use xlink:href="#DejaVuSans-30" x="290.621094"/>
     </g>
    </g>
    <g id="patch_31">
     <path d="M 335.3975 98.938418 
L 355.3975 98.938418 
L 355.3975 91.938418 
L 335.3975 91.938418 
z
" style="fill: #c03d3e; stroke: #3d3d3d; stroke-width: 0.75; stroke-linejoin: miter"/>
    </g>
    <g id="text_14">
     <!-- drop80 -->
     <g transform="translate(363.3975 98.938418) scale(0.1 -0.1)">
      <use xlink:href="#DejaVuSans-64"/>
      <use xlink:href="#DejaVuSans-72" x="63.476562"/>
      <use xlink:href="#DejaVuSans-6f" x="102.339844"/>
      <use xlink:href="#DejaVuSans-70" x="163.521484"/>
      <use xlink:href="#DejaVuSans-38" x="226.998047"/>
      <use xlink:href="#DejaVuSans-30" x="290.621094"/>
     </g>
    </g>
   </g>
  </g>
 </g>
 <defs>
  <clipPath id="pf777d56953">
   <rect x="34.51875" y="22.318125" width="291.87875" height="87.69998"/>
  </clipPath>
 </defs>
</svg>
