<?xml version="1.0" encoding="utf-8" standalone="no"?>
<!DOCTYPE svg PUBLIC "-//W3C//DTD SVG 1.1//EN"
  "http://www.w3.org/Graphics/SVG/1.1/DTD/svg11.dtd">
<svg xmlns:xlink="http://www.w3.org/1999/xlink" width="410.086562pt" height="207.302882pt" viewBox="0 0 410.086562 207.302882" xmlns="http://www.w3.org/2000/svg" version="1.1">
 <metadata>
  <rdf:RDF xmlns:dc="http://purl.org/dc/elements/1.1/" xmlns:cc="http://creativecommons.org/ns#" xmlns:rdf="http://www.w3.org/1999/02/22-rdf-syntax-ns#">
   <cc:Work>
    <dc:type rdf:resource="http://purl.org/dc/dcmitype/StillImage"/>
    <dc:date>2023-06-23T11:44:44.215296</dc:date>
    <dc:format>image/svg+xml</dc:format>
    <dc:creator>
     <cc:Agent>
      <dc:title>Matplotlib v3.7.1, https://matplotlib.org/</dc:title>
     </cc:Agent>
    </dc:creator>
   </cc:Work>
  </rdf:RDF>
 </metadata>
 <defs>
  <style type="text/css">*{stroke-linejoin: round; stroke-linecap: butt}</style>
 </defs>
 <g id="figure_1">
  <g id="patch_1">
   <path d="M 0 207.302882 
L 410.086562 207.302882 
L 410.086562 0 
L 0 0 
L 0 207.302882 
z
" style="fill: none"/>
  </g>
  <g id="axes_1">
   <g id="patch_2">
    <path d="M 40.88125 110.018105 
L 326.46 110.018105 
L 326.46 22.318125 
L 40.88125 22.318125 
L 40.88125 110.018105 
z
" style="fill: none"/>
   </g>
   <g id="patch_3">
    <path d="M 48.163508 105.8056 
L 62.156867 105.8056 
L 62.156867 105.764125 
L 48.163508 105.764125 
L 48.163508 105.8056 
z
" clip-path="url(#pcd58856a6c)" style="fill: #3274a1; stroke: #3d3d3d; stroke-width: 1.5; stroke-linejoin: miter"/>
   </g>
   <g id="patch_4">
    <path d="M 62.442446 105.814737 
L 76.435804 105.814737 
L 76.435804 105.77275 
L 62.442446 105.77275 
L 62.442446 105.814737 
z
" clip-path="url(#pcd58856a6c)" style="fill: #e1812c; stroke: #3d3d3d; stroke-width: 1.5; stroke-linejoin: miter"/>
   </g>
   <g id="patch_5">
    <path d="M 76.721383 105.854411 
L 90.714742 105.854411 
L 90.714742 105.730619 
L 76.721383 105.730619 
L 76.721383 105.854411 
z
" clip-path="url(#pcd58856a6c)" style="fill: #3a923a; stroke: #3d3d3d; stroke-width: 1.5; stroke-linejoin: miter"/>
   </g>
   <g id="patch_6">
    <path d="M 91.000321 106.014078 
L 104.993679 106.014078 
L 104.993679 105.869808 
L 91.000321 105.869808 
L 91.000321 106.014078 
z
" clip-path="url(#pcd58856a6c)" style="fill: #c03d3e; stroke: #3d3d3d; stroke-width: 1.5; stroke-linejoin: miter"/>
   </g>
   <g id="patch_7">
    <path d="M 119.558196 59.497725 
L 133.551554 59.497725 
L 133.551554 54.526986 
L 119.558196 54.526986 
L 119.558196 59.497725 
z
" clip-path="url(#pcd58856a6c)" style="fill: #3274a1; stroke: #3d3d3d; stroke-width: 1.5; stroke-linejoin: miter"/>
   </g>
   <g id="patch_8">
    <path d="M 133.837133 55.765628 
L 147.830492 55.765628 
L 147.830492 48.278808 
L 133.837133 48.278808 
L 133.837133 55.765628 
z
" clip-path="url(#pcd58856a6c)" style="fill: #e1812c; stroke: #3d3d3d; stroke-width: 1.5; stroke-linejoin: miter"/>
   </g>
   <g id="patch_9">
    <path d="M 148.116071 61.619559 
L 162.109429 61.619559 
L 162.109429 43.533961 
L 148.116071 43.533961 
L 148.116071 61.619559 
z
" clip-path="url(#pcd58856a6c)" style="fill: #3a923a; stroke: #3d3d3d; stroke-width: 1.5; stroke-linejoin: miter"/>
   </g>
   <g id="patch_10">
    <path d="M 162.395008 71.691982 
L 176.388367 71.691982 
L 176.388367 69.297162 
L 162.395008 69.297162 
L 162.395008 71.691982 
z
" clip-path="url(#pcd58856a6c)" style="fill: #c03d3e; stroke: #3d3d3d; stroke-width: 1.5; stroke-linejoin: miter"/>
   </g>
   <g id="patch_11">
    <path d="M 190.952883 105.87606 
L 204.946242 105.87606 
L 204.946242 105.844711 
L 190.952883 105.844711 
L 190.952883 105.87606 
z
" clip-path="url(#pcd58856a6c)" style="fill: #3274a1; stroke: #3d3d3d; stroke-width: 1.5; stroke-linejoin: miter"/>
   </g>
   <g id="patch_12">
    <path d="M 205.231821 105.80906 
L 219.225179 105.80906 
L 219.225179 105.745783 
L 205.231821 105.745783 
L 205.231821 105.80906 
z
" clip-path="url(#pcd58856a6c)" style="fill: #e1812c; stroke: #3d3d3d; stroke-width: 1.5; stroke-linejoin: miter"/>
   </g>
   <g id="patch_13">
    <path d="M 219.510758 105.885963 
L 233.504117 105.885963 
L 233.504117 105.752475 
L 219.510758 105.752475 
L 219.510758 105.885963 
z
" clip-path="url(#pcd58856a6c)" style="fill: #3a923a; stroke: #3d3d3d; stroke-width: 1.5; stroke-linejoin: miter"/>
   </g>
   <g id="patch_14">
    <path d="M 233.789696 105.994624 
L 247.783054 105.994624 
L 247.783054 105.969229 
L 233.789696 105.969229 
L 233.789696 105.994624 
z
" clip-path="url(#pcd58856a6c)" style="fill: #c03d3e; stroke: #3d3d3d; stroke-width: 1.5; stroke-linejoin: miter"/>
   </g>
   <g id="patch_15">
    <path d="M 262.347571 60.968837 
L 276.340929 60.968837 
L 276.340929 42.156491 
L 262.347571 42.156491 
L 262.347571 60.968837 
z
" clip-path="url(#pcd58856a6c)" style="fill: #3274a1; stroke: #3d3d3d; stroke-width: 1.5; stroke-linejoin: miter"/>
   </g>
   <g id="patch_16">
    <path d="M 276.626508 62.581012 
L 290.619867 62.581012 
L 290.619867 46.978597 
L 276.626508 46.978597 
L 276.626508 62.581012 
z
" clip-path="url(#pcd58856a6c)" style="fill: #e1812c; stroke: #3d3d3d; stroke-width: 1.5; stroke-linejoin: miter"/>
   </g>
   <g id="patch_17">
    <path d="M 290.905446 65.205679 
L 304.898804 65.205679 
L 304.898804 45.481181 
L 290.905446 45.481181 
L 290.905446 65.205679 
z
" clip-path="url(#pcd58856a6c)" style="fill: #3a923a; stroke: #3d3d3d; stroke-width: 1.5; stroke-linejoin: miter"/>
   </g>
   <g id="patch_18">
    <path d="M 305.184383 74.125421 
L 319.177742 74.125421 
L 319.177742 68.137567 
L 305.184383 68.137567 
L 305.184383 74.125421 
z
" clip-path="url(#pcd58856a6c)" style="fill: #c03d3e; stroke: #3d3d3d; stroke-width: 1.5; stroke-linejoin: miter"/>
   </g>
   <g id="patch_19">
    <path d="M 76.578594 108.546827 
L 76.578594 108.546827 
L 76.578594 108.546827 
L 76.578594 108.546827 
z
" clip-path="url(#pcd58856a6c)" style="fill: #3274a1; stroke: #3d3d3d; stroke-width: 0.75; stroke-linejoin: miter"/>
   </g>
   <g id="patch_20">
    <path d="M 76.578594 108.546827 
L 76.578594 108.546827 
L 76.578594 108.546827 
L 76.578594 108.546827 
z
" clip-path="url(#pcd58856a6c)" style="fill: #e1812c; stroke: #3d3d3d; stroke-width: 0.75; stroke-linejoin: miter"/>
   </g>
   <g id="patch_21">
    <path d="M 76.578594 108.546827 
L 76.578594 108.546827 
L 76.578594 108.546827 
L 76.578594 108.546827 
z
" clip-path="url(#pcd58856a6c)" style="fill: #3a923a; stroke: #3d3d3d; stroke-width: 0.75; stroke-linejoin: miter"/>
   </g>
   <g id="patch_22">
    <path d="M 76.578594 108.546827 
L 76.578594 108.546827 
L 76.578594 108.546827 
L 76.578594 108.546827 
z
" clip-path="url(#pcd58856a6c)" style="fill: #c03d3e; stroke: #3d3d3d; stroke-width: 0.75; stroke-linejoin: miter"/>
   </g>
   <g id="matplotlib.axis_1">
    <g id="xtick_1">
     <g id="line2d_1">
      <defs>
       <path id="mca23efc583" d="M 0 0 
L 0 3.5 
" style="stroke: #000000; stroke-width: 0.8"/>
      </defs>
      <g>
       <use xlink:href="#mca23efc583" x="76.578594" y="110.018105" style="stroke: #000000; stroke-width: 0.8"/>
      </g>
     </g>
     <g id="text_1">
      <!-- proba_weak -->
      <g transform="translate(32.428614 164.873766) rotate(-45) scale(0.1 -0.1)">
       <defs>
        <path id="DejaVuSans-70" d="M 1159 525 
L 1159 -1331 
L 581 -1331 
L 581 3500 
L 1159 3500 
L 1159 2969 
Q 1341 3281 1617 3432 
Q 1894 3584 2278 3584 
Q 2916 3584 3314 3078 
Q 3713 2572 3713 1747 
Q 3713 922 3314 415 
Q 2916 -91 2278 -91 
Q 1894 -91 1617 61 
Q 1341 213 1159 525 
z
M 3116 1747 
Q 3116 2381 2855 2742 
Q 2594 3103 2138 3103 
Q 1681 3103 1420 2742 
Q 1159 2381 1159 1747 
Q 1159 1113 1420 752 
Q 1681 391 2138 391 
Q 2594 391 2855 752 
Q 3116 1113 3116 1747 
z
" transform="scale(0.015625)"/>
        <path id="DejaVuSans-72" d="M 2631 2963 
Q 2534 3019 2420 3045 
Q 2306 3072 2169 3072 
Q 1681 3072 1420 2755 
Q 1159 2438 1159 1844 
L 1159 0 
L 581 0 
L 581 3500 
L 1159 3500 
L 1159 2956 
Q 1341 3275 1631 3429 
Q 1922 3584 2338 3584 
Q 2397 3584 2469 3576 
Q 2541 3569 2628 3553 
L 2631 2963 
z
" transform="scale(0.015625)"/>
        <path id="DejaVuSans-6f" d="M 1959 3097 
Q 1497 3097 1228 2736 
Q 959 2375 959 1747 
Q 959 1119 1226 758 
Q 1494 397 1959 397 
Q 2419 397 2687 759 
Q 2956 1122 2956 1747 
Q 2956 2369 2687 2733 
Q 2419 3097 1959 3097 
z
M 1959 3584 
Q 2709 3584 3137 3096 
Q 3566 2609 3566 1747 
Q 3566 888 3137 398 
Q 2709 -91 1959 -91 
Q 1206 -91 779 398 
Q 353 888 353 1747 
Q 353 2609 779 3096 
Q 1206 3584 1959 3584 
z
" transform="scale(0.015625)"/>
        <path id="DejaVuSans-62" d="M 3116 1747 
Q 3116 2381 2855 2742 
Q 2594 3103 2138 3103 
Q 1681 3103 1420 2742 
Q 1159 2381 1159 1747 
Q 1159 1113 1420 752 
Q 1681 391 2138 391 
Q 2594 391 2855 752 
Q 3116 1113 3116 1747 
z
M 1159 2969 
Q 1341 3281 1617 3432 
Q 1894 3584 2278 3584 
Q 2916 3584 3314 3078 
Q 3713 2572 3713 1747 
Q 3713 922 3314 415 
Q 2916 -91 2278 -91 
Q 1894 -91 1617 61 
Q 1341 213 1159 525 
L 1159 0 
L 581 0 
L 581 4863 
L 1159 4863 
L 1159 2969 
z
" transform="scale(0.015625)"/>
        <path id="DejaVuSans-61" d="M 2194 1759 
Q 1497 1759 1228 1600 
Q 959 1441 959 1056 
Q 959 750 1161 570 
Q 1363 391 1709 391 
Q 2188 391 2477 730 
Q 2766 1069 2766 1631 
L 2766 1759 
L 2194 1759 
z
M 3341 1997 
L 3341 0 
L 2766 0 
L 2766 531 
Q 2569 213 2275 61 
Q 1981 -91 1556 -91 
Q 1019 -91 701 211 
Q 384 513 384 1019 
Q 384 1609 779 1909 
Q 1175 2209 1959 2209 
L 2766 2209 
L 2766 2266 
Q 2766 2663 2505 2880 
Q 2244 3097 1772 3097 
Q 1472 3097 1187 3025 
Q 903 2953 641 2809 
L 641 3341 
Q 956 3463 1253 3523 
Q 1550 3584 1831 3584 
Q 2591 3584 2966 3190 
Q 3341 2797 3341 1997 
z
" transform="scale(0.015625)"/>
        <path id="DejaVuSans-5f" d="M 3263 -1063 
L 3263 -1509 
L -63 -1509 
L -63 -1063 
L 3263 -1063 
z
" transform="scale(0.015625)"/>
        <path id="DejaVuSans-77" d="M 269 3500 
L 844 3500 
L 1563 769 
L 2278 3500 
L 2956 3500 
L 3675 769 
L 4391 3500 
L 4966 3500 
L 4050 0 
L 3372 0 
L 2619 2869 
L 1863 0 
L 1184 0 
L 269 3500 
z
" transform="scale(0.015625)"/>
        <path id="DejaVuSans-65" d="M 3597 1894 
L 3597 1613 
L 953 1613 
Q 991 1019 1311 708 
Q 1631 397 2203 397 
Q 2534 397 2845 478 
Q 3156 559 3463 722 
L 3463 178 
Q 3153 47 2828 -22 
Q 2503 -91 2169 -91 
Q 1331 -91 842 396 
Q 353 884 353 1716 
Q 353 2575 817 3079 
Q 1281 3584 2069 3584 
Q 2775 3584 3186 3129 
Q 3597 2675 3597 1894 
z
M 3022 2063 
Q 3016 2534 2758 2815 
Q 2500 3097 2075 3097 
Q 1594 3097 1305 2825 
Q 1016 2553 972 2059 
L 3022 2063 
z
" transform="scale(0.015625)"/>
        <path id="DejaVuSans-6b" d="M 581 4863 
L 1159 4863 
L 1159 1991 
L 2875 3500 
L 3609 3500 
L 1753 1863 
L 3688 0 
L 2938 0 
L 1159 1709 
L 1159 0 
L 581 0 
L 581 4863 
z
" transform="scale(0.015625)"/>
       </defs>
       <use xlink:href="#DejaVuSans-70"/>
       <use xlink:href="#DejaVuSans-72" x="63.476562"/>
       <use xlink:href="#DejaVuSans-6f" x="102.339844"/>
       <use xlink:href="#DejaVuSans-62" x="163.521484"/>
       <use xlink:href="#DejaVuSans-61" x="226.998047"/>
       <use xlink:href="#DejaVuSans-5f" x="288.277344"/>
       <use xlink:href="#DejaVuSans-77" x="338.277344"/>
       <use xlink:href="#DejaVuSans-65" x="420.064453"/>
       <use xlink:href="#DejaVuSans-61" x="481.587891"/>
       <use xlink:href="#DejaVuSans-6b" x="542.867188"/>
      </g>
     </g>
    </g>
    <g id="xtick_2">
     <g id="line2d_2">
      <g>
       <use xlink:href="#mca23efc583" x="147.973281" y="110.018105" style="stroke: #000000; stroke-width: 0.8"/>
      </g>
     </g>
     <g id="text_2">
      <!-- embedding_weak -->
      <g transform="translate(84.217661 184.479407) rotate(-45) scale(0.1 -0.1)">
       <defs>
        <path id="DejaVuSans-6d" d="M 3328 2828 
Q 3544 3216 3844 3400 
Q 4144 3584 4550 3584 
Q 5097 3584 5394 3201 
Q 5691 2819 5691 2113 
L 5691 0 
L 5113 0 
L 5113 2094 
Q 5113 2597 4934 2840 
Q 4756 3084 4391 3084 
Q 3944 3084 3684 2787 
Q 3425 2491 3425 1978 
L 3425 0 
L 2847 0 
L 2847 2094 
Q 2847 2600 2669 2842 
Q 2491 3084 2119 3084 
Q 1678 3084 1418 2786 
Q 1159 2488 1159 1978 
L 1159 0 
L 581 0 
L 581 3500 
L 1159 3500 
L 1159 2956 
Q 1356 3278 1631 3431 
Q 1906 3584 2284 3584 
Q 2666 3584 2933 3390 
Q 3200 3197 3328 2828 
z
" transform="scale(0.015625)"/>
        <path id="DejaVuSans-64" d="M 2906 2969 
L 2906 4863 
L 3481 4863 
L 3481 0 
L 2906 0 
L 2906 525 
Q 2725 213 2448 61 
Q 2172 -91 1784 -91 
Q 1150 -91 751 415 
Q 353 922 353 1747 
Q 353 2572 751 3078 
Q 1150 3584 1784 3584 
Q 2172 3584 2448 3432 
Q 2725 3281 2906 2969 
z
M 947 1747 
Q 947 1113 1208 752 
Q 1469 391 1925 391 
Q 2381 391 2643 752 
Q 2906 1113 2906 1747 
Q 2906 2381 2643 2742 
Q 2381 3103 1925 3103 
Q 1469 3103 1208 2742 
Q 947 2381 947 1747 
z
" transform="scale(0.015625)"/>
        <path id="DejaVuSans-69" d="M 603 3500 
L 1178 3500 
L 1178 0 
L 603 0 
L 603 3500 
z
M 603 4863 
L 1178 4863 
L 1178 4134 
L 603 4134 
L 603 4863 
z
" transform="scale(0.015625)"/>
        <path id="DejaVuSans-6e" d="M 3513 2113 
L 3513 0 
L 2938 0 
L 2938 2094 
Q 2938 2591 2744 2837 
Q 2550 3084 2163 3084 
Q 1697 3084 1428 2787 
Q 1159 2491 1159 1978 
L 1159 0 
L 581 0 
L 581 3500 
L 1159 3500 
L 1159 2956 
Q 1366 3272 1645 3428 
Q 1925 3584 2291 3584 
Q 2894 3584 3203 3211 
Q 3513 2838 3513 2113 
z
" transform="scale(0.015625)"/>
        <path id="DejaVuSans-67" d="M 2906 1791 
Q 2906 2416 2648 2759 
Q 2391 3103 1925 3103 
Q 1463 3103 1205 2759 
Q 947 2416 947 1791 
Q 947 1169 1205 825 
Q 1463 481 1925 481 
Q 2391 481 2648 825 
Q 2906 1169 2906 1791 
z
M 3481 434 
Q 3481 -459 3084 -895 
Q 2688 -1331 1869 -1331 
Q 1566 -1331 1297 -1286 
Q 1028 -1241 775 -1147 
L 775 -588 
Q 1028 -725 1275 -790 
Q 1522 -856 1778 -856 
Q 2344 -856 2625 -561 
Q 2906 -266 2906 331 
L 2906 616 
Q 2728 306 2450 153 
Q 2172 0 1784 0 
Q 1141 0 747 490 
Q 353 981 353 1791 
Q 353 2603 747 3093 
Q 1141 3584 1784 3584 
Q 2172 3584 2450 3431 
Q 2728 3278 2906 2969 
L 2906 3500 
L 3481 3500 
L 3481 434 
z
" transform="scale(0.015625)"/>
       </defs>
       <use xlink:href="#DejaVuSans-65"/>
       <use xlink:href="#DejaVuSans-6d" x="61.523438"/>
       <use xlink:href="#DejaVuSans-62" x="158.935547"/>
       <use xlink:href="#DejaVuSans-65" x="222.412109"/>
       <use xlink:href="#DejaVuSans-64" x="283.935547"/>
       <use xlink:href="#DejaVuSans-64" x="347.412109"/>
       <use xlink:href="#DejaVuSans-69" x="410.888672"/>
       <use xlink:href="#DejaVuSans-6e" x="438.671875"/>
       <use xlink:href="#DejaVuSans-67" x="502.050781"/>
       <use xlink:href="#DejaVuSans-5f" x="565.527344"/>
       <use xlink:href="#DejaVuSans-77" x="615.527344"/>
       <use xlink:href="#DejaVuSans-65" x="697.314453"/>
       <use xlink:href="#DejaVuSans-61" x="758.837891"/>
       <use xlink:href="#DejaVuSans-6b" x="820.117188"/>
      </g>
     </g>
    </g>
    <g id="xtick_3">
     <g id="line2d_3">
      <g>
       <use xlink:href="#mca23efc583" x="219.367969" y="110.018105" style="stroke: #000000; stroke-width: 0.8"/>
      </g>
     </g>
     <g id="text_3">
      <!-- proba -->
      <g transform="translate(197.51174 142.776679) rotate(-45) scale(0.1 -0.1)">
       <use xlink:href="#DejaVuSans-70"/>
       <use xlink:href="#DejaVuSans-72" x="63.476562"/>
       <use xlink:href="#DejaVuSans-6f" x="102.339844"/>
       <use xlink:href="#DejaVuSans-62" x="163.521484"/>
       <use xlink:href="#DejaVuSans-61" x="226.998047"/>
      </g>
     </g>
    </g>
    <g id="xtick_4">
     <g id="line2d_4">
      <g>
       <use xlink:href="#mca23efc583" x="290.762656" y="110.018105" style="stroke: #000000; stroke-width: 0.8"/>
      </g>
     </g>
     <g id="text_4">
      <!-- embedding -->
      <g transform="translate(249.300787 162.38232) rotate(-45) scale(0.1 -0.1)">
       <use xlink:href="#DejaVuSans-65"/>
       <use xlink:href="#DejaVuSans-6d" x="61.523438"/>
       <use xlink:href="#DejaVuSans-62" x="158.935547"/>
       <use xlink:href="#DejaVuSans-65" x="222.412109"/>
       <use xlink:href="#DejaVuSans-64" x="283.935547"/>
       <use xlink:href="#DejaVuSans-64" x="347.412109"/>
       <use xlink:href="#DejaVuSans-69" x="410.888672"/>
       <use xlink:href="#DejaVuSans-6e" x="438.671875"/>
       <use xlink:href="#DejaVuSans-67" x="502.050781"/>
      </g>
     </g>
    </g>
    <g id="text_5">
     <!-- estimator_name -->
     <g transform="translate(142.951094 197.745069) scale(0.1 -0.1)">
      <defs>
       <path id="DejaVuSans-73" d="M 2834 3397 
L 2834 2853 
Q 2591 2978 2328 3040 
Q 2066 3103 1784 3103 
Q 1356 3103 1142 2972 
Q 928 2841 928 2578 
Q 928 2378 1081 2264 
Q 1234 2150 1697 2047 
L 1894 2003 
Q 2506 1872 2764 1633 
Q 3022 1394 3022 966 
Q 3022 478 2636 193 
Q 2250 -91 1575 -91 
Q 1294 -91 989 -36 
Q 684 19 347 128 
L 347 722 
Q 666 556 975 473 
Q 1284 391 1588 391 
Q 1994 391 2212 530 
Q 2431 669 2431 922 
Q 2431 1156 2273 1281 
Q 2116 1406 1581 1522 
L 1381 1569 
Q 847 1681 609 1914 
Q 372 2147 372 2553 
Q 372 3047 722 3315 
Q 1072 3584 1716 3584 
Q 2034 3584 2315 3537 
Q 2597 3491 2834 3397 
z
" transform="scale(0.015625)"/>
       <path id="DejaVuSans-74" d="M 1172 4494 
L 1172 3500 
L 2356 3500 
L 2356 3053 
L 1172 3053 
L 1172 1153 
Q 1172 725 1289 603 
Q 1406 481 1766 481 
L 2356 481 
L 2356 0 
L 1766 0 
Q 1100 0 847 248 
Q 594 497 594 1153 
L 594 3053 
L 172 3053 
L 172 3500 
L 594 3500 
L 594 4494 
L 1172 4494 
z
" transform="scale(0.015625)"/>
      </defs>
      <use xlink:href="#DejaVuSans-65"/>
      <use xlink:href="#DejaVuSans-73" x="61.523438"/>
      <use xlink:href="#DejaVuSans-74" x="113.623047"/>
      <use xlink:href="#DejaVuSans-69" x="152.832031"/>
      <use xlink:href="#DejaVuSans-6d" x="180.615234"/>
      <use xlink:href="#DejaVuSans-61" x="278.027344"/>
      <use xlink:href="#DejaVuSans-74" x="339.306641"/>
      <use xlink:href="#DejaVuSans-6f" x="378.515625"/>
      <use xlink:href="#DejaVuSans-72" x="439.697266"/>
      <use xlink:href="#DejaVuSans-5f" x="480.810547"/>
      <use xlink:href="#DejaVuSans-6e" x="530.810547"/>
      <use xlink:href="#DejaVuSans-61" x="594.189453"/>
      <use xlink:href="#DejaVuSans-6d" x="655.46875"/>
      <use xlink:href="#DejaVuSans-65" x="752.880859"/>
     </g>
    </g>
   </g>
   <g id="matplotlib.axis_2">
    <g id="ytick_1">
     <g id="line2d_5">
      <defs>
       <path id="mde8586edcd" d="M 0 0 
L -3.5 0 
" style="stroke: #000000; stroke-width: 0.8"/>
      </defs>
      <g>
       <use xlink:href="#mde8586edcd" x="40.88125" y="108.546827" style="stroke: #000000; stroke-width: 0.8"/>
      </g>
     </g>
     <g id="text_6">
      <!-- 0 -->
      <g transform="translate(27.51875 112.346046) scale(0.1 -0.1)">
       <defs>
        <path id="DejaVuSans-30" d="M 2034 4250 
Q 1547 4250 1301 3770 
Q 1056 3291 1056 2328 
Q 1056 1369 1301 889 
Q 1547 409 2034 409 
Q 2525 409 2770 889 
Q 3016 1369 3016 2328 
Q 3016 3291 2770 3770 
Q 2525 4250 2034 4250 
z
M 2034 4750 
Q 2819 4750 3233 4129 
Q 3647 3509 3647 2328 
Q 3647 1150 3233 529 
Q 2819 -91 2034 -91 
Q 1250 -91 836 529 
Q 422 1150 422 2328 
Q 422 3509 836 4129 
Q 1250 4750 2034 4750 
z
" transform="scale(0.015625)"/>
       </defs>
       <use xlink:href="#DejaVuSans-30"/>
      </g>
     </g>
    </g>
    <g id="ytick_2">
     <g id="line2d_6">
      <g>
       <use xlink:href="#mde8586edcd" x="40.88125" y="70.870974" style="stroke: #000000; stroke-width: 0.8"/>
      </g>
     </g>
     <g id="text_7">
      <!-- 20 -->
      <g transform="translate(21.15625 74.670193) scale(0.1 -0.1)">
       <defs>
        <path id="DejaVuSans-32" d="M 1228 531 
L 3431 531 
L 3431 0 
L 469 0 
L 469 531 
Q 828 903 1448 1529 
Q 2069 2156 2228 2338 
Q 2531 2678 2651 2914 
Q 2772 3150 2772 3378 
Q 2772 3750 2511 3984 
Q 2250 4219 1831 4219 
Q 1534 4219 1204 4116 
Q 875 4013 500 3803 
L 500 4441 
Q 881 4594 1212 4672 
Q 1544 4750 1819 4750 
Q 2544 4750 2975 4387 
Q 3406 4025 3406 3419 
Q 3406 3131 3298 2873 
Q 3191 2616 2906 2266 
Q 2828 2175 2409 1742 
Q 1991 1309 1228 531 
z
" transform="scale(0.015625)"/>
       </defs>
       <use xlink:href="#DejaVuSans-32"/>
       <use xlink:href="#DejaVuSans-30" x="63.623047"/>
      </g>
     </g>
    </g>
    <g id="ytick_3">
     <g id="line2d_7">
      <g>
       <use xlink:href="#mde8586edcd" x="40.88125" y="33.195121" style="stroke: #000000; stroke-width: 0.8"/>
      </g>
     </g>
     <g id="text_8">
      <!-- 40 -->
      <g transform="translate(21.15625 36.994339) scale(0.1 -0.1)">
       <defs>
        <path id="DejaVuSans-34" d="M 2419 4116 
L 825 1625 
L 2419 1625 
L 2419 4116 
z
M 2253 4666 
L 3047 4666 
L 3047 1625 
L 3713 1625 
L 3713 1100 
L 3047 1100 
L 3047 0 
L 2419 0 
L 2419 1100 
L 313 1100 
L 313 1709 
L 2253 4666 
z
" transform="scale(0.015625)"/>
       </defs>
       <use xlink:href="#DejaVuSans-34"/>
       <use xlink:href="#DejaVuSans-30" x="63.623047"/>
      </g>
     </g>
    </g>
    <g id="text_9">
     <!-- score_time -->
     <g transform="translate(14.798438 93.397021) rotate(-90) scale(0.1 -0.1)">
      <defs>
       <path id="DejaVuSans-63" d="M 3122 3366 
L 3122 2828 
Q 2878 2963 2633 3030 
Q 2388 3097 2138 3097 
Q 1578 3097 1268 2742 
Q 959 2388 959 1747 
Q 959 1106 1268 751 
Q 1578 397 2138 397 
Q 2388 397 2633 464 
Q 2878 531 3122 666 
L 3122 134 
Q 2881 22 2623 -34 
Q 2366 -91 2075 -91 
Q 1284 -91 818 406 
Q 353 903 353 1747 
Q 353 2603 823 3093 
Q 1294 3584 2113 3584 
Q 2378 3584 2631 3529 
Q 2884 3475 3122 3366 
z
" transform="scale(0.015625)"/>
      </defs>
      <use xlink:href="#DejaVuSans-73"/>
      <use xlink:href="#DejaVuSans-63" x="52.099609"/>
      <use xlink:href="#DejaVuSans-6f" x="107.080078"/>
      <use xlink:href="#DejaVuSans-72" x="168.261719"/>
      <use xlink:href="#DejaVuSans-65" x="207.125"/>
      <use xlink:href="#DejaVuSans-5f" x="268.648438"/>
      <use xlink:href="#DejaVuSans-74" x="318.648438"/>
      <use xlink:href="#DejaVuSans-69" x="357.857422"/>
      <use xlink:href="#DejaVuSans-6d" x="385.640625"/>
      <use xlink:href="#DejaVuSans-65" x="483.052734"/>
     </g>
    </g>
   </g>
   <g id="line2d_8">
    <path d="M 55.160188 105.8056 
L 55.160188 105.8056 
" clip-path="url(#pcd58856a6c)" style="fill: none; stroke: #3d3d3d; stroke-width: 1.5; stroke-linecap: square"/>
   </g>
   <g id="line2d_9">
    <path d="M 55.160188 105.764125 
L 55.160188 105.764125 
" clip-path="url(#pcd58856a6c)" style="fill: none; stroke: #3d3d3d; stroke-width: 1.5; stroke-linecap: square"/>
   </g>
   <g id="line2d_10">
    <path d="M 51.661848 105.8056 
L 58.658527 105.8056 
" clip-path="url(#pcd58856a6c)" style="fill: none; stroke: #3d3d3d; stroke-width: 1.5; stroke-linecap: square"/>
   </g>
   <g id="line2d_11">
    <path d="M 51.661848 105.764125 
L 58.658527 105.764125 
" clip-path="url(#pcd58856a6c)" style="fill: none; stroke: #3d3d3d; stroke-width: 1.5; stroke-linecap: square"/>
   </g>
   <g id="line2d_12">
    <defs>
     <path id="m4b7948d6b0" d="M -0 3.535534 
L 2.12132 0 
L -0 -3.535534 
L -2.12132 -0 
z
" style="stroke: #3d3d3d; stroke-linejoin: miter"/>
    </defs>
    <g clip-path="url(#pcd58856a6c)">
     <use xlink:href="#m4b7948d6b0" x="55.160188" y="105.932127" style="fill: #3d3d3d; stroke: #3d3d3d; stroke-linejoin: miter"/>
     <use xlink:href="#m4b7948d6b0" x="55.160188" y="105.19304" style="fill: #3d3d3d; stroke: #3d3d3d; stroke-linejoin: miter"/>
    </g>
   </g>
   <g id="line2d_13">
    <path d="M 69.439125 105.814737 
L 69.439125 105.835033 
" clip-path="url(#pcd58856a6c)" style="fill: none; stroke: #3d3d3d; stroke-width: 1.5; stroke-linecap: square"/>
   </g>
   <g id="line2d_14">
    <path d="M 69.439125 105.77275 
L 69.439125 105.77275 
" clip-path="url(#pcd58856a6c)" style="fill: none; stroke: #3d3d3d; stroke-width: 1.5; stroke-linecap: square"/>
   </g>
   <g id="line2d_15">
    <path d="M 65.940785 105.835033 
L 72.937465 105.835033 
" clip-path="url(#pcd58856a6c)" style="fill: none; stroke: #3d3d3d; stroke-width: 1.5; stroke-linecap: square"/>
   </g>
   <g id="line2d_16">
    <path d="M 65.940785 105.77275 
L 72.937465 105.77275 
" clip-path="url(#pcd58856a6c)" style="fill: none; stroke: #3d3d3d; stroke-width: 1.5; stroke-linecap: square"/>
   </g>
   <g id="line2d_17">
    <g clip-path="url(#pcd58856a6c)">
     <use xlink:href="#m4b7948d6b0" x="69.439125" y="105.617771" style="fill: #3d3d3d; stroke: #3d3d3d; stroke-linejoin: miter"/>
    </g>
   </g>
   <g id="line2d_18">
    <path d="M 83.718063 105.854411 
L 83.718063 105.8858 
" clip-path="url(#pcd58856a6c)" style="fill: none; stroke: #3d3d3d; stroke-width: 1.5; stroke-linecap: square"/>
   </g>
   <g id="line2d_19">
    <path d="M 83.718063 105.730619 
L 83.718063 105.730619 
" clip-path="url(#pcd58856a6c)" style="fill: none; stroke: #3d3d3d; stroke-width: 1.5; stroke-linecap: square"/>
   </g>
   <g id="line2d_20">
    <path d="M 80.219723 105.8858 
L 87.216402 105.8858 
" clip-path="url(#pcd58856a6c)" style="fill: none; stroke: #3d3d3d; stroke-width: 1.5; stroke-linecap: square"/>
   </g>
   <g id="line2d_21">
    <path d="M 80.219723 105.730619 
L 87.216402 105.730619 
" clip-path="url(#pcd58856a6c)" style="fill: none; stroke: #3d3d3d; stroke-width: 1.5; stroke-linecap: square"/>
   </g>
   <g id="line2d_22">
    <g clip-path="url(#pcd58856a6c)">
     <use xlink:href="#m4b7948d6b0" x="83.718063" y="105.406812" style="fill: #3d3d3d; stroke: #3d3d3d; stroke-linejoin: miter"/>
    </g>
   </g>
   <g id="line2d_23">
    <path d="M 97.997 106.014078 
L 97.997 106.016934 
" clip-path="url(#pcd58856a6c)" style="fill: none; stroke: #3d3d3d; stroke-width: 1.5; stroke-linecap: square"/>
   </g>
   <g id="line2d_24">
    <path d="M 97.997 105.869808 
L 97.997 105.849099 
" clip-path="url(#pcd58856a6c)" style="fill: none; stroke: #3d3d3d; stroke-width: 1.5; stroke-linecap: square"/>
   </g>
   <g id="line2d_25">
    <path d="M 94.49866 106.016934 
L 101.49534 106.016934 
" clip-path="url(#pcd58856a6c)" style="fill: none; stroke: #3d3d3d; stroke-width: 1.5; stroke-linecap: square"/>
   </g>
   <g id="line2d_26">
    <path d="M 94.49866 105.849099 
L 101.49534 105.849099 
" clip-path="url(#pcd58856a6c)" style="fill: none; stroke: #3d3d3d; stroke-width: 1.5; stroke-linecap: square"/>
   </g>
   <g id="line2d_27"/>
   <g id="line2d_28">
    <path d="M 126.554875 59.497725 
L 126.554875 63.96464 
" clip-path="url(#pcd58856a6c)" style="fill: none; stroke: #3d3d3d; stroke-width: 1.5; stroke-linecap: square"/>
   </g>
   <g id="line2d_29">
    <path d="M 126.554875 54.526986 
L 126.554875 54.526986 
" clip-path="url(#pcd58856a6c)" style="fill: none; stroke: #3d3d3d; stroke-width: 1.5; stroke-linecap: square"/>
   </g>
   <g id="line2d_30">
    <path d="M 123.056535 63.96464 
L 130.053215 63.96464 
" clip-path="url(#pcd58856a6c)" style="fill: none; stroke: #3d3d3d; stroke-width: 1.5; stroke-linecap: square"/>
   </g>
   <g id="line2d_31">
    <path d="M 123.056535 54.526986 
L 130.053215 54.526986 
" clip-path="url(#pcd58856a6c)" style="fill: none; stroke: #3d3d3d; stroke-width: 1.5; stroke-linecap: square"/>
   </g>
   <g id="line2d_32">
    <g clip-path="url(#pcd58856a6c)">
     <use xlink:href="#m4b7948d6b0" x="126.554875" y="41.445152" style="fill: #3d3d3d; stroke: #3d3d3d; stroke-linejoin: miter"/>
    </g>
   </g>
   <g id="line2d_33">
    <path d="M 140.833813 55.765628 
L 140.833813 57.26946 
" clip-path="url(#pcd58856a6c)" style="fill: none; stroke: #3d3d3d; stroke-width: 1.5; stroke-linecap: square"/>
   </g>
   <g id="line2d_34">
    <path d="M 140.833813 48.278808 
L 140.833813 38.736734 
" clip-path="url(#pcd58856a6c)" style="fill: none; stroke: #3d3d3d; stroke-width: 1.5; stroke-linecap: square"/>
   </g>
   <g id="line2d_35">
    <path d="M 137.335473 57.26946 
L 144.332152 57.26946 
" clip-path="url(#pcd58856a6c)" style="fill: none; stroke: #3d3d3d; stroke-width: 1.5; stroke-linecap: square"/>
   </g>
   <g id="line2d_36">
    <path d="M 137.335473 38.736734 
L 144.332152 38.736734 
" clip-path="url(#pcd58856a6c)" style="fill: none; stroke: #3d3d3d; stroke-width: 1.5; stroke-linecap: square"/>
   </g>
   <g id="line2d_37"/>
   <g id="line2d_38">
    <path d="M 155.11275 61.619559 
L 155.11275 63.847649 
" clip-path="url(#pcd58856a6c)" style="fill: none; stroke: #3d3d3d; stroke-width: 1.5; stroke-linecap: square"/>
   </g>
   <g id="line2d_39">
    <path d="M 155.11275 43.533961 
L 155.11275 26.304488 
" clip-path="url(#pcd58856a6c)" style="fill: none; stroke: #3d3d3d; stroke-width: 1.5; stroke-linecap: square"/>
   </g>
   <g id="line2d_40">
    <path d="M 151.61441 63.847649 
L 158.61109 63.847649 
" clip-path="url(#pcd58856a6c)" style="fill: none; stroke: #3d3d3d; stroke-width: 1.5; stroke-linecap: square"/>
   </g>
   <g id="line2d_41">
    <path d="M 151.61441 26.304488 
L 158.61109 26.304488 
" clip-path="url(#pcd58856a6c)" style="fill: none; stroke: #3d3d3d; stroke-width: 1.5; stroke-linecap: square"/>
   </g>
   <g id="line2d_42"/>
   <g id="line2d_43">
    <path d="M 169.391687 71.691982 
L 169.391687 71.691982 
" clip-path="url(#pcd58856a6c)" style="fill: none; stroke: #3d3d3d; stroke-width: 1.5; stroke-linecap: square"/>
   </g>
   <g id="line2d_44">
    <path d="M 169.391687 69.297162 
L 169.391687 67.893649 
" clip-path="url(#pcd58856a6c)" style="fill: none; stroke: #3d3d3d; stroke-width: 1.5; stroke-linecap: square"/>
   </g>
   <g id="line2d_45">
    <path d="M 165.893348 71.691982 
L 172.890027 71.691982 
" clip-path="url(#pcd58856a6c)" style="fill: none; stroke: #3d3d3d; stroke-width: 1.5; stroke-linecap: square"/>
   </g>
   <g id="line2d_46">
    <path d="M 165.893348 67.893649 
L 172.890027 67.893649 
" clip-path="url(#pcd58856a6c)" style="fill: none; stroke: #3d3d3d; stroke-width: 1.5; stroke-linecap: square"/>
   </g>
   <g id="line2d_47">
    <g clip-path="url(#pcd58856a6c)">
     <use xlink:href="#m4b7948d6b0" x="169.391687" y="75.293401" style="fill: #3d3d3d; stroke: #3d3d3d; stroke-linejoin: miter"/>
    </g>
   </g>
   <g id="line2d_48">
    <path d="M 197.949562 105.87606 
L 197.949562 105.885549 
" clip-path="url(#pcd58856a6c)" style="fill: none; stroke: #3d3d3d; stroke-width: 1.5; stroke-linecap: square"/>
   </g>
   <g id="line2d_49">
    <path d="M 197.949562 105.844711 
L 197.949562 105.844711 
" clip-path="url(#pcd58856a6c)" style="fill: none; stroke: #3d3d3d; stroke-width: 1.5; stroke-linecap: square"/>
   </g>
   <g id="line2d_50">
    <path d="M 194.451223 105.885549 
L 201.447902 105.885549 
" clip-path="url(#pcd58856a6c)" style="fill: none; stroke: #3d3d3d; stroke-width: 1.5; stroke-linecap: square"/>
   </g>
   <g id="line2d_51">
    <path d="M 194.451223 105.844711 
L 201.447902 105.844711 
" clip-path="url(#pcd58856a6c)" style="fill: none; stroke: #3d3d3d; stroke-width: 1.5; stroke-linecap: square"/>
   </g>
   <g id="line2d_52">
    <g clip-path="url(#pcd58856a6c)">
     <use xlink:href="#m4b7948d6b0" x="197.949562" y="105.793101" style="fill: #3d3d3d; stroke: #3d3d3d; stroke-linejoin: miter"/>
    </g>
   </g>
   <g id="line2d_53">
    <path d="M 212.2285 105.80906 
L 212.2285 105.821816 
" clip-path="url(#pcd58856a6c)" style="fill: none; stroke: #3d3d3d; stroke-width: 1.5; stroke-linecap: square"/>
   </g>
   <g id="line2d_54">
    <path d="M 212.2285 105.745783 
L 212.2285 105.738776 
" clip-path="url(#pcd58856a6c)" style="fill: none; stroke: #3d3d3d; stroke-width: 1.5; stroke-linecap: square"/>
   </g>
   <g id="line2d_55">
    <path d="M 208.73016 105.821816 
L 215.72684 105.821816 
" clip-path="url(#pcd58856a6c)" style="fill: none; stroke: #3d3d3d; stroke-width: 1.5; stroke-linecap: square"/>
   </g>
   <g id="line2d_56">
    <path d="M 208.73016 105.738776 
L 215.72684 105.738776 
" clip-path="url(#pcd58856a6c)" style="fill: none; stroke: #3d3d3d; stroke-width: 1.5; stroke-linecap: square"/>
   </g>
   <g id="line2d_57"/>
   <g id="line2d_58">
    <path d="M 226.507437 105.885963 
L 226.507437 105.916713 
" clip-path="url(#pcd58856a6c)" style="fill: none; stroke: #3d3d3d; stroke-width: 1.5; stroke-linecap: square"/>
   </g>
   <g id="line2d_59">
    <path d="M 226.507437 105.752475 
L 226.507437 105.644232 
" clip-path="url(#pcd58856a6c)" style="fill: none; stroke: #3d3d3d; stroke-width: 1.5; stroke-linecap: square"/>
   </g>
   <g id="line2d_60">
    <path d="M 223.009098 105.916713 
L 230.005777 105.916713 
" clip-path="url(#pcd58856a6c)" style="fill: none; stroke: #3d3d3d; stroke-width: 1.5; stroke-linecap: square"/>
   </g>
   <g id="line2d_61">
    <path d="M 223.009098 105.644232 
L 230.005777 105.644232 
" clip-path="url(#pcd58856a6c)" style="fill: none; stroke: #3d3d3d; stroke-width: 1.5; stroke-linecap: square"/>
   </g>
   <g id="line2d_62"/>
   <g id="line2d_63">
    <path d="M 240.786375 105.994624 
L 240.786375 106.031742 
" clip-path="url(#pcd58856a6c)" style="fill: none; stroke: #3d3d3d; stroke-width: 1.5; stroke-linecap: square"/>
   </g>
   <g id="line2d_64">
    <path d="M 240.786375 105.969229 
L 240.786375 105.969229 
" clip-path="url(#pcd58856a6c)" style="fill: none; stroke: #3d3d3d; stroke-width: 1.5; stroke-linecap: square"/>
   </g>
   <g id="line2d_65">
    <path d="M 237.288035 106.031742 
L 244.284715 106.031742 
" clip-path="url(#pcd58856a6c)" style="fill: none; stroke: #3d3d3d; stroke-width: 1.5; stroke-linecap: square"/>
   </g>
   <g id="line2d_66">
    <path d="M 237.288035 105.969229 
L 244.284715 105.969229 
" clip-path="url(#pcd58856a6c)" style="fill: none; stroke: #3d3d3d; stroke-width: 1.5; stroke-linecap: square"/>
   </g>
   <g id="line2d_67">
    <g clip-path="url(#pcd58856a6c)">
     <use xlink:href="#m4b7948d6b0" x="240.786375" y="105.25611" style="fill: #3d3d3d; stroke: #3d3d3d; stroke-linejoin: miter"/>
    </g>
   </g>
   <g id="line2d_68">
    <path d="M 269.34425 60.968837 
L 269.34425 64.076695 
" clip-path="url(#pcd58856a6c)" style="fill: none; stroke: #3d3d3d; stroke-width: 1.5; stroke-linecap: square"/>
   </g>
   <g id="line2d_69">
    <path d="M 269.34425 42.156491 
L 269.34425 40.452228 
" clip-path="url(#pcd58856a6c)" style="fill: none; stroke: #3d3d3d; stroke-width: 1.5; stroke-linecap: square"/>
   </g>
   <g id="line2d_70">
    <path d="M 265.84591 64.076695 
L 272.84259 64.076695 
" clip-path="url(#pcd58856a6c)" style="fill: none; stroke: #3d3d3d; stroke-width: 1.5; stroke-linecap: square"/>
   </g>
   <g id="line2d_71">
    <path d="M 265.84591 40.452228 
L 272.84259 40.452228 
" clip-path="url(#pcd58856a6c)" style="fill: none; stroke: #3d3d3d; stroke-width: 1.5; stroke-linecap: square"/>
   </g>
   <g id="line2d_72"/>
   <g id="line2d_73">
    <path d="M 283.623187 62.581012 
L 283.623187 63.254227 
" clip-path="url(#pcd58856a6c)" style="fill: none; stroke: #3d3d3d; stroke-width: 1.5; stroke-linecap: square"/>
   </g>
   <g id="line2d_74">
    <path d="M 283.623187 46.978597 
L 283.623187 34.316341 
" clip-path="url(#pcd58856a6c)" style="fill: none; stroke: #3d3d3d; stroke-width: 1.5; stroke-linecap: square"/>
   </g>
   <g id="line2d_75">
    <path d="M 280.124848 63.254227 
L 287.121527 63.254227 
" clip-path="url(#pcd58856a6c)" style="fill: none; stroke: #3d3d3d; stroke-width: 1.5; stroke-linecap: square"/>
   </g>
   <g id="line2d_76">
    <path d="M 280.124848 34.316341 
L 287.121527 34.316341 
" clip-path="url(#pcd58856a6c)" style="fill: none; stroke: #3d3d3d; stroke-width: 1.5; stroke-linecap: square"/>
   </g>
   <g id="line2d_77"/>
   <g id="line2d_78">
    <path d="M 297.902125 65.205679 
L 297.902125 65.846105 
" clip-path="url(#pcd58856a6c)" style="fill: none; stroke: #3d3d3d; stroke-width: 1.5; stroke-linecap: square"/>
   </g>
   <g id="line2d_79">
    <path d="M 297.902125 45.481181 
L 297.902125 42.028833 
" clip-path="url(#pcd58856a6c)" style="fill: none; stroke: #3d3d3d; stroke-width: 1.5; stroke-linecap: square"/>
   </g>
   <g id="line2d_80">
    <path d="M 294.403785 65.846105 
L 301.400465 65.846105 
" clip-path="url(#pcd58856a6c)" style="fill: none; stroke: #3d3d3d; stroke-width: 1.5; stroke-linecap: square"/>
   </g>
   <g id="line2d_81">
    <path d="M 294.403785 42.028833 
L 301.400465 42.028833 
" clip-path="url(#pcd58856a6c)" style="fill: none; stroke: #3d3d3d; stroke-width: 1.5; stroke-linecap: square"/>
   </g>
   <g id="line2d_82"/>
   <g id="line2d_83">
    <path d="M 312.181062 74.125421 
L 312.181062 75.474203 
" clip-path="url(#pcd58856a6c)" style="fill: none; stroke: #3d3d3d; stroke-width: 1.5; stroke-linecap: square"/>
   </g>
   <g id="line2d_84">
    <path d="M 312.181062 68.137567 
L 312.181062 66.948305 
" clip-path="url(#pcd58856a6c)" style="fill: none; stroke: #3d3d3d; stroke-width: 1.5; stroke-linecap: square"/>
   </g>
   <g id="line2d_85">
    <path d="M 308.682723 75.474203 
L 315.679402 75.474203 
" clip-path="url(#pcd58856a6c)" style="fill: none; stroke: #3d3d3d; stroke-width: 1.5; stroke-linecap: square"/>
   </g>
   <g id="line2d_86">
    <path d="M 308.682723 66.948305 
L 315.679402 66.948305 
" clip-path="url(#pcd58856a6c)" style="fill: none; stroke: #3d3d3d; stroke-width: 1.5; stroke-linecap: square"/>
   </g>
   <g id="line2d_87"/>
   <g id="line2d_88">
    <path d="M 48.163508 105.802256 
L 62.156867 105.802256 
" clip-path="url(#pcd58856a6c)" style="fill: none; stroke: #3d3d3d; stroke-width: 1.5; stroke-linecap: square"/>
   </g>
   <g id="line2d_89">
    <path d="M 62.442446 105.774772 
L 76.435804 105.774772 
" clip-path="url(#pcd58856a6c)" style="fill: none; stroke: #3d3d3d; stroke-width: 1.5; stroke-linecap: square"/>
   </g>
   <g id="line2d_90">
    <path d="M 76.721383 105.819128 
L 90.714742 105.819128 
" clip-path="url(#pcd58856a6c)" style="fill: none; stroke: #3d3d3d; stroke-width: 1.5; stroke-linecap: square"/>
   </g>
   <g id="line2d_91">
    <path d="M 91.000321 105.923355 
L 104.993679 105.923355 
" clip-path="url(#pcd58856a6c)" style="fill: none; stroke: #3d3d3d; stroke-width: 1.5; stroke-linecap: square"/>
   </g>
   <g id="line2d_92">
    <path d="M 119.558196 55.842625 
L 133.551554 55.842625 
" clip-path="url(#pcd58856a6c)" style="fill: none; stroke: #3d3d3d; stroke-width: 1.5; stroke-linecap: square"/>
   </g>
   <g id="line2d_93">
    <path d="M 133.837133 52.046901 
L 147.830492 52.046901 
" clip-path="url(#pcd58856a6c)" style="fill: none; stroke: #3d3d3d; stroke-width: 1.5; stroke-linecap: square"/>
   </g>
   <g id="line2d_94">
    <path d="M 148.116071 60.429825 
L 162.109429 60.429825 
" clip-path="url(#pcd58856a6c)" style="fill: none; stroke: #3d3d3d; stroke-width: 1.5; stroke-linecap: square"/>
   </g>
   <g id="line2d_95">
    <path d="M 162.395008 71.221126 
L 176.388367 71.221126 
" clip-path="url(#pcd58856a6c)" style="fill: none; stroke: #3d3d3d; stroke-width: 1.5; stroke-linecap: square"/>
   </g>
   <g id="line2d_96">
    <path d="M 190.952883 105.84621 
L 204.946242 105.84621 
" clip-path="url(#pcd58856a6c)" style="fill: none; stroke: #3d3d3d; stroke-width: 1.5; stroke-linecap: square"/>
   </g>
   <g id="line2d_97">
    <path d="M 205.231821 105.793438 
L 219.225179 105.793438 
" clip-path="url(#pcd58856a6c)" style="fill: none; stroke: #3d3d3d; stroke-width: 1.5; stroke-linecap: square"/>
   </g>
   <g id="line2d_98">
    <path d="M 219.510758 105.86262 
L 233.504117 105.86262 
" clip-path="url(#pcd58856a6c)" style="fill: none; stroke: #3d3d3d; stroke-width: 1.5; stroke-linecap: square"/>
   </g>
   <g id="line2d_99">
    <path d="M 233.789696 105.987895 
L 247.783054 105.987895 
" clip-path="url(#pcd58856a6c)" style="fill: none; stroke: #3d3d3d; stroke-width: 1.5; stroke-linecap: square"/>
   </g>
   <g id="line2d_100">
    <path d="M 262.347571 53.313958 
L 276.340929 53.313958 
" clip-path="url(#pcd58856a6c)" style="fill: none; stroke: #3d3d3d; stroke-width: 1.5; stroke-linecap: square"/>
   </g>
   <g id="line2d_101">
    <path d="M 276.626508 47.661708 
L 290.619867 47.661708 
" clip-path="url(#pcd58856a6c)" style="fill: none; stroke: #3d3d3d; stroke-width: 1.5; stroke-linecap: square"/>
   </g>
   <g id="line2d_102">
    <path d="M 290.905446 62.26442 
L 304.898804 62.26442 
" clip-path="url(#pcd58856a6c)" style="fill: none; stroke: #3d3d3d; stroke-width: 1.5; stroke-linecap: square"/>
   </g>
   <g id="line2d_103">
    <path d="M 305.184383 71.998612 
L 319.177742 71.998612 
" clip-path="url(#pcd58856a6c)" style="fill: none; stroke: #3d3d3d; stroke-width: 1.5; stroke-linecap: square"/>
   </g>
   <g id="patch_23">
    <path d="M 40.88125 110.018105 
L 40.88125 22.318125 
" style="fill: none; stroke: #000000; stroke-width: 0.8; stroke-linejoin: miter; stroke-linecap: square"/>
   </g>
   <g id="patch_24">
    <path d="M 326.46 110.018105 
L 326.46 22.318125 
" style="fill: none; stroke: #000000; stroke-width: 0.8; stroke-linejoin: miter; stroke-linecap: square"/>
   </g>
   <g id="patch_25">
    <path d="M 40.88125 110.018105 
L 326.46 110.018105 
" style="fill: none; stroke: #000000; stroke-width: 0.8; stroke-linejoin: miter; stroke-linecap: square"/>
   </g>
   <g id="patch_26">
    <path d="M 40.88125 22.318125 
L 326.46 22.318125 
" style="fill: none; stroke: #000000; stroke-width: 0.8; stroke-linejoin: miter; stroke-linecap: square"/>
   </g>
   <g id="PathCollection_1">
    <defs>
     <path id="C0_0_770f439b9c" d="M 0 1.5 
C 0.397805 1.5 0.77937 1.341951 1.06066 1.06066 
C 1.341951 0.77937 1.5 0.397805 1.5 -0 
C 1.5 -0.397805 1.341951 -0.77937 1.06066 -1.06066 
C 0.77937 -1.341951 0.397805 -1.5 0 -1.5 
C -0.397805 -1.5 -0.77937 -1.341951 -1.06066 -1.06066 
C -1.341951 -0.77937 -1.5 -0.397805 -1.5 0 
C -1.5 0.397805 -1.341951 0.77937 -1.06066 1.06066 
C -0.77937 1.341951 -0.397805 1.5 0 1.5 
z
"/>
    </defs>
    <g clip-path="url(#pcd58856a6c)">
     <use xlink:href="#C0_0_770f439b9c" x="55.771428" y="105.764125" style="fill: #262626"/>
    </g>
    <g clip-path="url(#pcd58856a6c)">
     <use xlink:href="#C0_0_770f439b9c" x="55.936081" y="105.932127" style="fill: #262626"/>
    </g>
    <g clip-path="url(#pcd58856a6c)">
     <use xlink:href="#C0_0_770f439b9c" x="55.012022" y="105.19304" style="fill: #262626"/>
    </g>
    <g clip-path="url(#pcd58856a6c)">
     <use xlink:href="#C0_0_770f439b9c" x="54.141309" y="105.802256" style="fill: #262626"/>
    </g>
    <g clip-path="url(#pcd58856a6c)">
     <use xlink:href="#C0_0_770f439b9c" x="53.553079" y="105.8056" style="fill: #262626"/>
    </g>
   </g>
   <g id="PathCollection_2">
    <defs>
     <path id="C1_0_371b2b7c17" d="M 0 1.5 
C 0.397805 1.5 0.77937 1.341951 1.06066 1.06066 
C 1.341951 0.77937 1.5 0.397805 1.5 -0 
C 1.5 -0.397805 1.341951 -0.77937 1.06066 -1.06066 
C 0.77937 -1.341951 0.397805 -1.5 0 -1.5 
C -0.397805 -1.5 -0.77937 -1.341951 -1.06066 -1.06066 
C -1.341951 -0.77937 -1.5 -0.397805 -1.5 0 
C -1.5 0.397805 -1.341951 0.77937 -1.06066 1.06066 
C -0.77937 1.341951 -0.397805 1.5 0 1.5 
z
"/>
    </defs>
    <g clip-path="url(#pcd58856a6c)">
     <use xlink:href="#C1_0_371b2b7c17" x="68.554325" y="105.814737" style="fill: #191919"/>
    </g>
    <g clip-path="url(#pcd58856a6c)">
     <use xlink:href="#C1_0_371b2b7c17" x="68.479321" y="105.774772" style="fill: #191919"/>
    </g>
    <g clip-path="url(#pcd58856a6c)">
     <use xlink:href="#C1_0_371b2b7c17" x="68.503474" y="105.77275" style="fill: #191919"/>
    </g>
    <g clip-path="url(#pcd58856a6c)">
     <use xlink:href="#C1_0_371b2b7c17" x="67.9773" y="105.835033" style="fill: #191919"/>
    </g>
    <g clip-path="url(#pcd58856a6c)">
     <use xlink:href="#C1_0_371b2b7c17" x="70.309159" y="105.617771" style="fill: #191919"/>
    </g>
   </g>
   <g id="PathCollection_3">
    <defs>
     <path id="C2_0_b01e68d4fd" d="M 0 1.5 
C 0.397805 1.5 0.77937 1.341951 1.06066 1.06066 
C 1.341951 0.77937 1.5 0.397805 1.5 -0 
C 1.5 -0.397805 1.341951 -0.77937 1.06066 -1.06066 
C 0.77937 -1.341951 0.397805 -1.5 0 -1.5 
C -0.397805 -1.5 -0.77937 -1.341951 -1.06066 -1.06066 
C -1.341951 -0.77937 -1.5 -0.397805 -1.5 0 
C -1.5 0.397805 -1.341951 0.77937 -1.06066 1.06066 
C -0.77937 1.341951 -0.397805 1.5 0 1.5 
z
"/>
    </defs>
    <g clip-path="url(#pcd58856a6c)">
     <use xlink:href="#C2_0_b01e68d4fd" x="82.708596" y="105.8858" style="fill: #0d0d0d"/>
    </g>
    <g clip-path="url(#pcd58856a6c)">
     <use xlink:href="#C2_0_b01e68d4fd" x="84.42391" y="105.730619" style="fill: #0d0d0d"/>
    </g>
    <g clip-path="url(#pcd58856a6c)">
     <use xlink:href="#C2_0_b01e68d4fd" x="82.228178" y="105.819128" style="fill: #0d0d0d"/>
    </g>
    <g clip-path="url(#pcd58856a6c)">
     <use xlink:href="#C2_0_b01e68d4fd" x="84.390353" y="105.854411" style="fill: #0d0d0d"/>
    </g>
    <g clip-path="url(#pcd58856a6c)">
     <use xlink:href="#C2_0_b01e68d4fd" x="83.594346" y="105.406812" style="fill: #0d0d0d"/>
    </g>
   </g>
   <g id="PathCollection_4">
    <defs>
     <path id="C3_0_2f4002cbb8" d="M 0 1.5 
C 0.397805 1.5 0.77937 1.341951 1.06066 1.06066 
C 1.341951 0.77937 1.5 0.397805 1.5 -0 
C 1.5 -0.397805 1.341951 -0.77937 1.06066 -1.06066 
C 0.77937 -1.341951 0.397805 -1.5 0 -1.5 
C -0.397805 -1.5 -0.77937 -1.341951 -1.06066 -1.06066 
C -1.341951 -0.77937 -1.5 -0.397805 -1.5 0 
C -1.5 0.397805 -1.341951 0.77937 -1.06066 1.06066 
C -0.77937 1.341951 -0.397805 1.5 0 1.5 
z
"/>
    </defs>
    <g clip-path="url(#pcd58856a6c)">
     <use xlink:href="#C3_0_2f4002cbb8" x="96.358607" y="106.014078"/>
    </g>
    <g clip-path="url(#pcd58856a6c)">
     <use xlink:href="#C3_0_2f4002cbb8" x="96.602698" y="105.923355"/>
    </g>
    <g clip-path="url(#pcd58856a6c)">
     <use xlink:href="#C3_0_2f4002cbb8" x="97.056821" y="105.869808"/>
    </g>
    <g clip-path="url(#pcd58856a6c)">
     <use xlink:href="#C3_0_2f4002cbb8" x="98.214128" y="106.016934"/>
    </g>
    <g clip-path="url(#pcd58856a6c)">
     <use xlink:href="#C3_0_2f4002cbb8" x="99.410318" y="105.849099"/>
    </g>
   </g>
   <g id="PathCollection_5">
    <defs>
     <path id="C4_0_17371b5930" d="M 0 1.5 
C 0.397805 1.5 0.77937 1.341951 1.06066 1.06066 
C 1.341951 0.77937 1.5 0.397805 1.5 -0 
C 1.5 -0.397805 1.341951 -0.77937 1.06066 -1.06066 
C 0.77937 -1.341951 0.397805 -1.5 0 -1.5 
C -0.397805 -1.5 -0.77937 -1.341951 -1.06066 -1.06066 
C -1.341951 -0.77937 -1.5 -0.397805 -1.5 0 
C -1.5 0.397805 -1.341951 0.77937 -1.06066 1.06066 
C -0.77937 1.341951 -0.397805 1.5 0 1.5 
z
"/>
    </defs>
    <g clip-path="url(#pcd58856a6c)">
     <use xlink:href="#C4_0_17371b5930" x="126.497354" y="41.445152" style="fill: #262626"/>
    </g>
    <g clip-path="url(#pcd58856a6c)">
     <use xlink:href="#C4_0_17371b5930" x="128.239914" y="54.526986" style="fill: #262626"/>
    </g>
    <g clip-path="url(#pcd58856a6c)">
     <use xlink:href="#C4_0_17371b5930" x="126.77526" y="59.497725" style="fill: #262626"/>
    </g>
    <g clip-path="url(#pcd58856a6c)">
     <use xlink:href="#C4_0_17371b5930" x="126.097482" y="55.842625" style="fill: #262626"/>
    </g>
    <g clip-path="url(#pcd58856a6c)">
     <use xlink:href="#C4_0_17371b5930" x="125.492274" y="63.96464" style="fill: #262626"/>
    </g>
   </g>
   <g id="PathCollection_6">
    <defs>
     <path id="C5_0_a4e841e984" d="M 0 1.5 
C 0.397805 1.5 0.77937 1.341951 1.06066 1.06066 
C 1.341951 0.77937 1.5 0.397805 1.5 -0 
C 1.5 -0.397805 1.341951 -0.77937 1.06066 -1.06066 
C 0.77937 -1.341951 0.397805 -1.5 0 -1.5 
C -0.397805 -1.5 -0.77937 -1.341951 -1.06066 -1.06066 
C -1.341951 -0.77937 -1.5 -0.397805 -1.5 0 
C -1.5 0.397805 -1.341951 0.77937 -1.06066 1.06066 
C -0.77937 1.341951 -0.397805 1.5 0 1.5 
z
"/>
    </defs>
    <g clip-path="url(#pcd58856a6c)">
     <use xlink:href="#C5_0_a4e841e984" x="139.486371" y="48.278808" style="fill: #191919"/>
    </g>
    <g clip-path="url(#pcd58856a6c)">
     <use xlink:href="#C5_0_a4e841e984" x="139.510019" y="52.046901" style="fill: #191919"/>
    </g>
    <g clip-path="url(#pcd58856a6c)">
     <use xlink:href="#C5_0_a4e841e984" x="141.12866" y="55.765628" style="fill: #191919"/>
    </g>
    <g clip-path="url(#pcd58856a6c)">
     <use xlink:href="#C5_0_a4e841e984" x="141.328017" y="38.736734" style="fill: #191919"/>
    </g>
    <g clip-path="url(#pcd58856a6c)">
     <use xlink:href="#C5_0_a4e841e984" x="142.094909" y="57.26946" style="fill: #191919"/>
    </g>
   </g>
   <g id="PathCollection_7">
    <defs>
     <path id="C6_0_c9b5b0564b" d="M 0 1.5 
C 0.397805 1.5 0.77937 1.341951 1.06066 1.06066 
C 1.341951 0.77937 1.5 0.397805 1.5 -0 
C 1.5 -0.397805 1.341951 -0.77937 1.06066 -1.06066 
C 0.77937 -1.341951 0.397805 -1.5 0 -1.5 
C -0.397805 -1.5 -0.77937 -1.341951 -1.06066 -1.06066 
C -1.341951 -0.77937 -1.5 -0.397805 -1.5 0 
C -1.5 0.397805 -1.341951 0.77937 -1.06066 1.06066 
C -0.77937 1.341951 -0.397805 1.5 0 1.5 
z
"/>
    </defs>
    <g clip-path="url(#pcd58856a6c)">
     <use xlink:href="#C6_0_c9b5b0564b" x="156.185326" y="43.533961" style="fill: #0d0d0d"/>
    </g>
    <g clip-path="url(#pcd58856a6c)">
     <use xlink:href="#C6_0_c9b5b0564b" x="156.171041" y="60.429825" style="fill: #0d0d0d"/>
    </g>
    <g clip-path="url(#pcd58856a6c)">
     <use xlink:href="#C6_0_c9b5b0564b" x="155.569293" y="61.619559" style="fill: #0d0d0d"/>
    </g>
    <g clip-path="url(#pcd58856a6c)">
     <use xlink:href="#C6_0_c9b5b0564b" x="155.059792" y="63.847649" style="fill: #0d0d0d"/>
    </g>
    <g clip-path="url(#pcd58856a6c)">
     <use xlink:href="#C6_0_c9b5b0564b" x="155.198151" y="26.304488" style="fill: #0d0d0d"/>
    </g>
   </g>
   <g id="PathCollection_8">
    <defs>
     <path id="C7_0_089b9c908f" d="M 0 1.5 
C 0.397805 1.5 0.77937 1.341951 1.06066 1.06066 
C 1.341951 0.77937 1.5 0.397805 1.5 -0 
C 1.5 -0.397805 1.341951 -0.77937 1.06066 -1.06066 
C 0.77937 -1.341951 0.397805 -1.5 0 -1.5 
C -0.397805 -1.5 -0.77937 -1.341951 -1.06066 -1.06066 
C -1.341951 -0.77937 -1.5 -0.397805 -1.5 0 
C -1.5 0.397805 -1.341951 0.77937 -1.06066 1.06066 
C -0.77937 1.341951 -0.397805 1.5 0 1.5 
z
"/>
    </defs>
    <g clip-path="url(#pcd58856a6c)">
     <use xlink:href="#C7_0_089b9c908f" x="167.651821" y="69.297162"/>
    </g>
    <g clip-path="url(#pcd58856a6c)">
     <use xlink:href="#C7_0_089b9c908f" x="168.504407" y="71.691982"/>
    </g>
    <g clip-path="url(#pcd58856a6c)">
     <use xlink:href="#C7_0_089b9c908f" x="167.633143" y="67.893649"/>
    </g>
    <g clip-path="url(#pcd58856a6c)">
     <use xlink:href="#C7_0_089b9c908f" x="169.858628" y="75.293401"/>
    </g>
    <g clip-path="url(#pcd58856a6c)">
     <use xlink:href="#C7_0_089b9c908f" x="167.957881" y="71.221126"/>
    </g>
   </g>
   <g id="PathCollection_9">
    <defs>
     <path id="C8_0_af772ec84b" d="M 0 1.5 
C 0.397805 1.5 0.77937 1.341951 1.06066 1.06066 
C 1.341951 0.77937 1.5 0.397805 1.5 -0 
C 1.5 -0.397805 1.341951 -0.77937 1.06066 -1.06066 
C 0.77937 -1.341951 0.397805 -1.5 0 -1.5 
C -0.397805 -1.5 -0.77937 -1.341951 -1.06066 -1.06066 
C -1.341951 -0.77937 -1.5 -0.397805 -1.5 0 
C -1.5 0.397805 -1.341951 0.77937 -1.06066 1.06066 
C -0.77937 1.341951 -0.397805 1.5 0 1.5 
z
"/>
    </defs>
    <g clip-path="url(#pcd58856a6c)">
     <use xlink:href="#C8_0_af772ec84b" x="197.059041" y="105.793101" style="fill: #262626"/>
    </g>
    <g clip-path="url(#pcd58856a6c)">
     <use xlink:href="#C8_0_af772ec84b" x="198.657024" y="105.844711" style="fill: #262626"/>
    </g>
    <g clip-path="url(#pcd58856a6c)">
     <use xlink:href="#C8_0_af772ec84b" x="198.600328" y="105.885549" style="fill: #262626"/>
    </g>
    <g clip-path="url(#pcd58856a6c)">
     <use xlink:href="#C8_0_af772ec84b" x="198.270037" y="105.84621" style="fill: #262626"/>
    </g>
    <g clip-path="url(#pcd58856a6c)">
     <use xlink:href="#C8_0_af772ec84b" x="199.193325" y="105.87606" style="fill: #262626"/>
    </g>
   </g>
   <g id="PathCollection_10">
    <defs>
     <path id="C9_0_c4c77de271" d="M 0 1.5 
C 0.397805 1.5 0.77937 1.341951 1.06066 1.06066 
C 1.341951 0.77937 1.5 0.397805 1.5 -0 
C 1.5 -0.397805 1.341951 -0.77937 1.06066 -1.06066 
C 0.77937 -1.341951 0.397805 -1.5 0 -1.5 
C -0.397805 -1.5 -0.77937 -1.341951 -1.06066 -1.06066 
C -1.341951 -0.77937 -1.5 -0.397805 -1.5 0 
C -1.5 0.397805 -1.341951 0.77937 -1.06066 1.06066 
C -0.77937 1.341951 -0.397805 1.5 0 1.5 
z
"/>
    </defs>
    <g clip-path="url(#pcd58856a6c)">
     <use xlink:href="#C9_0_c4c77de271" x="213.20954" y="105.745783" style="fill: #191919"/>
    </g>
    <g clip-path="url(#pcd58856a6c)">
     <use xlink:href="#C9_0_c4c77de271" x="211.102025" y="105.80906" style="fill: #191919"/>
    </g>
    <g clip-path="url(#pcd58856a6c)">
     <use xlink:href="#C9_0_c4c77de271" x="211.659459" y="105.793438" style="fill: #191919"/>
    </g>
    <g clip-path="url(#pcd58856a6c)">
     <use xlink:href="#C9_0_c4c77de271" x="213.547591" y="105.821816" style="fill: #191919"/>
    </g>
    <g clip-path="url(#pcd58856a6c)">
     <use xlink:href="#C9_0_c4c77de271" x="212.547487" y="105.738776" style="fill: #191919"/>
    </g>
   </g>
   <g id="PathCollection_11">
    <defs>
     <path id="Ca_0_c51daa3ecf" d="M 0 1.5 
C 0.397805 1.5 0.77937 1.341951 1.06066 1.06066 
C 1.341951 0.77937 1.5 0.397805 1.5 -0 
C 1.5 -0.397805 1.341951 -0.77937 1.06066 -1.06066 
C 0.77937 -1.341951 0.397805 -1.5 0 -1.5 
C -0.397805 -1.5 -0.77937 -1.341951 -1.06066 -1.06066 
C -1.341951 -0.77937 -1.5 -0.397805 -1.5 0 
C -1.5 0.397805 -1.341951 0.77937 -1.06066 1.06066 
C -0.77937 1.341951 -0.397805 1.5 0 1.5 
z
"/>
    </defs>
    <g clip-path="url(#pcd58856a6c)">
     <use xlink:href="#Ca_0_c51daa3ecf" x="227.91449" y="105.86262" style="fill: #0d0d0d"/>
    </g>
    <g clip-path="url(#pcd58856a6c)">
     <use xlink:href="#Ca_0_c51daa3ecf" x="227.314579" y="105.916713" style="fill: #0d0d0d"/>
    </g>
    <g clip-path="url(#pcd58856a6c)">
     <use xlink:href="#Ca_0_c51daa3ecf" x="225.892379" y="105.644232" style="fill: #0d0d0d"/>
    </g>
    <g clip-path="url(#pcd58856a6c)">
     <use xlink:href="#Ca_0_c51daa3ecf" x="228.23283" y="105.885963" style="fill: #0d0d0d"/>
    </g>
    <g clip-path="url(#pcd58856a6c)">
     <use xlink:href="#Ca_0_c51daa3ecf" x="228.211527" y="105.752475" style="fill: #0d0d0d"/>
    </g>
   </g>
   <g id="PathCollection_12">
    <defs>
     <path id="Cb_0_7ff1700f21" d="M 0 1.5 
C 0.397805 1.5 0.77937 1.341951 1.06066 1.06066 
C 1.341951 0.77937 1.5 0.397805 1.5 -0 
C 1.5 -0.397805 1.341951 -0.77937 1.06066 -1.06066 
C 0.77937 -1.341951 0.397805 -1.5 0 -1.5 
C -0.397805 -1.5 -0.77937 -1.341951 -1.06066 -1.06066 
C -1.341951 -0.77937 -1.5 -0.397805 -1.5 0 
C -1.5 0.397805 -1.341951 0.77937 -1.06066 1.06066 
C -0.77937 1.341951 -0.397805 1.5 0 1.5 
z
"/>
    </defs>
    <g clip-path="url(#pcd58856a6c)">
     <use xlink:href="#Cb_0_7ff1700f21" x="239.383116" y="105.987895"/>
    </g>
    <g clip-path="url(#pcd58856a6c)">
     <use xlink:href="#Cb_0_7ff1700f21" x="241.859935" y="106.031742"/>
    </g>
    <g clip-path="url(#pcd58856a6c)">
     <use xlink:href="#Cb_0_7ff1700f21" x="242.000866" y="105.25611"/>
    </g>
    <g clip-path="url(#pcd58856a6c)">
     <use xlink:href="#Cb_0_7ff1700f21" x="241.780991" y="105.994624"/>
    </g>
    <g clip-path="url(#pcd58856a6c)">
     <use xlink:href="#Cb_0_7ff1700f21" x="241.709731" y="105.969229"/>
    </g>
   </g>
   <g id="PathCollection_13">
    <defs>
     <path id="Cc_0_7a124a670b" d="M 0 1.5 
C 0.397805 1.5 0.77937 1.341951 1.06066 1.06066 
C 1.341951 0.77937 1.5 0.397805 1.5 -0 
C 1.5 -0.397805 1.341951 -0.77937 1.06066 -1.06066 
C 0.77937 -1.341951 0.397805 -1.5 0 -1.5 
C -0.397805 -1.5 -0.77937 -1.341951 -1.06066 -1.06066 
C -1.341951 -0.77937 -1.5 -0.397805 -1.5 0 
C -1.5 0.397805 -1.341951 0.77937 -1.06066 1.06066 
C -0.77937 1.341951 -0.397805 1.5 0 1.5 
z
"/>
    </defs>
    <g clip-path="url(#pcd58856a6c)">
     <use xlink:href="#Cc_0_7a124a670b" x="269.568882" y="42.156491" style="fill: #262626"/>
    </g>
    <g clip-path="url(#pcd58856a6c)">
     <use xlink:href="#Cc_0_7a124a670b" x="269.092092" y="53.313958" style="fill: #262626"/>
    </g>
    <g clip-path="url(#pcd58856a6c)">
     <use xlink:href="#Cc_0_7a124a670b" x="270.440578" y="64.076695" style="fill: #262626"/>
    </g>
    <g clip-path="url(#pcd58856a6c)">
     <use xlink:href="#Cc_0_7a124a670b" x="268.999463" y="60.968837" style="fill: #262626"/>
    </g>
    <g clip-path="url(#pcd58856a6c)">
     <use xlink:href="#Cc_0_7a124a670b" x="270.896267" y="40.452228" style="fill: #262626"/>
    </g>
   </g>
   <g id="PathCollection_14">
    <defs>
     <path id="Cd_0_ea87b872f6" d="M 0 1.5 
C 0.397805 1.5 0.77937 1.341951 1.06066 1.06066 
C 1.341951 0.77937 1.5 0.397805 1.5 -0 
C 1.5 -0.397805 1.341951 -0.77937 1.06066 -1.06066 
C 0.77937 -1.341951 0.397805 -1.5 0 -1.5 
C -0.397805 -1.5 -0.77937 -1.341951 -1.06066 -1.06066 
C -1.341951 -0.77937 -1.5 -0.397805 -1.5 0 
C -1.5 0.397805 -1.341951 0.77937 -1.06066 1.06066 
C -0.77937 1.341951 -0.397805 1.5 0 1.5 
z
"/>
    </defs>
    <g clip-path="url(#pcd58856a6c)">
     <use xlink:href="#Cd_0_ea87b872f6" x="283.092132" y="46.978597" style="fill: #191919"/>
    </g>
    <g clip-path="url(#pcd58856a6c)">
     <use xlink:href="#Cd_0_ea87b872f6" x="283.819607" y="62.581012" style="fill: #191919"/>
    </g>
    <g clip-path="url(#pcd58856a6c)">
     <use xlink:href="#Cd_0_ea87b872f6" x="283.147849" y="47.661708" style="fill: #191919"/>
    </g>
    <g clip-path="url(#pcd58856a6c)">
     <use xlink:href="#Cd_0_ea87b872f6" x="282.131168" y="34.316341" style="fill: #191919"/>
    </g>
    <g clip-path="url(#pcd58856a6c)">
     <use xlink:href="#Cd_0_ea87b872f6" x="282.25429" y="63.254227" style="fill: #191919"/>
    </g>
   </g>
   <g id="PathCollection_15">
    <defs>
     <path id="Ce_0_1ca5989fd0" d="M 0 1.5 
C 0.397805 1.5 0.77937 1.341951 1.06066 1.06066 
C 1.341951 0.77937 1.5 0.397805 1.5 -0 
C 1.5 -0.397805 1.341951 -0.77937 1.06066 -1.06066 
C 0.77937 -1.341951 0.397805 -1.5 0 -1.5 
C -0.397805 -1.5 -0.77937 -1.341951 -1.06066 -1.06066 
C -1.341951 -0.77937 -1.5 -0.397805 -1.5 0 
C -1.5 0.397805 -1.341951 0.77937 -1.06066 1.06066 
C -0.77937 1.341951 -0.397805 1.5 0 1.5 
z
"/>
    </defs>
    <g clip-path="url(#pcd58856a6c)">
     <use xlink:href="#Ce_0_1ca5989fd0" x="299.495512" y="45.481181" style="fill: #0d0d0d"/>
    </g>
    <g clip-path="url(#pcd58856a6c)">
     <use xlink:href="#Ce_0_1ca5989fd0" x="297.603933" y="65.205679" style="fill: #0d0d0d"/>
    </g>
    <g clip-path="url(#pcd58856a6c)">
     <use xlink:href="#Ce_0_1ca5989fd0" x="298.893254" y="42.028833" style="fill: #0d0d0d"/>
    </g>
    <g clip-path="url(#pcd58856a6c)">
     <use xlink:href="#Ce_0_1ca5989fd0" x="298.706783" y="62.26442" style="fill: #0d0d0d"/>
    </g>
    <g clip-path="url(#pcd58856a6c)">
     <use xlink:href="#Ce_0_1ca5989fd0" x="298.438495" y="65.846105" style="fill: #0d0d0d"/>
    </g>
   </g>
   <g id="PathCollection_16">
    <defs>
     <path id="Cf_0_a29f6b7511" d="M 0 1.5 
C 0.397805 1.5 0.77937 1.341951 1.06066 1.06066 
C 1.341951 0.77937 1.5 0.397805 1.5 -0 
C 1.5 -0.397805 1.341951 -0.77937 1.06066 -1.06066 
C 0.77937 -1.341951 0.397805 -1.5 0 -1.5 
C -0.397805 -1.5 -0.77937 -1.341951 -1.06066 -1.06066 
C -1.341951 -0.77937 -1.5 -0.397805 -1.5 0 
C -1.5 0.397805 -1.341951 0.77937 -1.06066 1.06066 
C -0.77937 1.341951 -0.397805 1.5 0 1.5 
z
"/>
    </defs>
    <g clip-path="url(#pcd58856a6c)">
     <use xlink:href="#Cf_0_a29f6b7511" x="310.529135" y="66.948305"/>
    </g>
    <g clip-path="url(#pcd58856a6c)">
     <use xlink:href="#Cf_0_a29f6b7511" x="310.6829" y="74.125421"/>
    </g>
    <g clip-path="url(#pcd58856a6c)">
     <use xlink:href="#Cf_0_a29f6b7511" x="313.467571" y="68.137567"/>
    </g>
    <g clip-path="url(#pcd58856a6c)">
     <use xlink:href="#Cf_0_a29f6b7511" x="310.770372" y="71.998612"/>
    </g>
    <g clip-path="url(#pcd58856a6c)">
     <use xlink:href="#Cf_0_a29f6b7511" x="311.586195" y="75.474203"/>
    </g>
   </g>
   <g id="text_10">
    <!-- scene -->
    <g transform="translate(166.059687 16.318125) scale(0.12 -0.12)">
     <use xlink:href="#DejaVuSans-73"/>
     <use xlink:href="#DejaVuSans-63" x="52.099609"/>
     <use xlink:href="#DejaVuSans-65" x="107.080078"/>
     <use xlink:href="#DejaVuSans-6e" x="168.603516"/>
     <use xlink:href="#DejaVuSans-65" x="231.982422"/>
    </g>
   </g>
   <g id="legend_1">
    <g id="patch_27">
     <path d="M 333.46 105.018105 
L 400.886562 105.018105 
Q 402.886562 105.018105 402.886562 103.018105 
L 402.886562 45.305605 
Q 402.886562 43.305605 400.886562 43.305605 
L 333.46 43.305605 
Q 331.46 43.305605 331.46 45.305605 
L 331.46 103.018105 
Q 331.46 105.018105 333.46 105.018105 
z
" style="fill: #ffffff; opacity: 0.8; stroke: #cccccc; stroke-linejoin: miter"/>
    </g>
    <g id="patch_28">
     <path d="M 335.46 54.904043 
L 355.46 54.904043 
L 355.46 47.904043 
L 335.46 47.904043 
z
" style="fill: #3274a1; stroke: #3d3d3d; stroke-width: 0.75; stroke-linejoin: miter"/>
    </g>
    <g id="text_11">
     <!-- none -->
     <g transform="translate(363.46 54.904043) scale(0.1 -0.1)">
      <use xlink:href="#DejaVuSans-6e"/>
      <use xlink:href="#DejaVuSans-6f" x="63.378906"/>
      <use xlink:href="#DejaVuSans-6e" x="124.560547"/>
      <use xlink:href="#DejaVuSans-65" x="187.939453"/>
     </g>
    </g>
    <g id="patch_29">
     <path d="M 335.46 69.582168 
L 355.46 69.582168 
L 355.46 62.582168 
L 335.46 62.582168 
z
" style="fill: #e1812c; stroke: #3d3d3d; stroke-width: 0.75; stroke-linejoin: miter"/>
    </g>
    <g id="text_12">
     <!-- drop30 -->
     <g transform="translate(363.46 69.582168) scale(0.1 -0.1)">
      <defs>
       <path id="DejaVuSans-33" d="M 2597 2516 
Q 3050 2419 3304 2112 
Q 3559 1806 3559 1356 
Q 3559 666 3084 287 
Q 2609 -91 1734 -91 
Q 1441 -91 1130 -33 
Q 819 25 488 141 
L 488 750 
Q 750 597 1062 519 
Q 1375 441 1716 441 
Q 2309 441 2620 675 
Q 2931 909 2931 1356 
Q 2931 1769 2642 2001 
Q 2353 2234 1838 2234 
L 1294 2234 
L 1294 2753 
L 1863 2753 
Q 2328 2753 2575 2939 
Q 2822 3125 2822 3475 
Q 2822 3834 2567 4026 
Q 2313 4219 1838 4219 
Q 1578 4219 1281 4162 
Q 984 4106 628 3988 
L 628 4550 
Q 988 4650 1302 4700 
Q 1616 4750 1894 4750 
Q 2613 4750 3031 4423 
Q 3450 4097 3450 3541 
Q 3450 3153 3228 2886 
Q 3006 2619 2597 2516 
z
" transform="scale(0.015625)"/>
      </defs>
      <use xlink:href="#DejaVuSans-64"/>
      <use xlink:href="#DejaVuSans-72" x="63.476562"/>
      <use xlink:href="#DejaVuSans-6f" x="102.339844"/>
      <use xlink:href="#DejaVuSans-70" x="163.521484"/>
      <use xlink:href="#DejaVuSans-33" x="226.998047"/>
      <use xlink:href="#DejaVuSans-30" x="290.621094"/>
     </g>
    </g>
    <g id="patch_30">
     <path d="M 335.46 84.260293 
L 355.46 84.260293 
L 355.46 77.260293 
L 335.46 77.260293 
z
" style="fill: #3a923a; stroke: #3d3d3d; stroke-width: 0.75; stroke-linejoin: miter"/>
    </g>
    <g id="text_13">
     <!-- drop50 -->
     <g transform="translate(363.46 84.260293) scale(0.1 -0.1)">
      <defs>
       <path id="DejaVuSans-35" d="M 691 4666 
L 3169 4666 
L 3169 4134 
L 1269 4134 
L 1269 2991 
Q 1406 3038 1543 3061 
Q 1681 3084 1819 3084 
Q 2600 3084 3056 2656 
Q 3513 2228 3513 1497 
Q 3513 744 3044 326 
Q 2575 -91 1722 -91 
Q 1428 -91 1123 -41 
Q 819 9 494 109 
L 494 744 
Q 775 591 1075 516 
Q 1375 441 1709 441 
Q 2250 441 2565 725 
Q 2881 1009 2881 1497 
Q 2881 1984 2565 2268 
Q 2250 2553 1709 2553 
Q 1456 2553 1204 2497 
Q 953 2441 691 2322 
L 691 4666 
z
" transform="scale(0.015625)"/>
      </defs>
      <use xlink:href="#DejaVuSans-64"/>
      <use xlink:href="#DejaVuSans-72" x="63.476562"/>
      <use xlink:href="#DejaVuSans-6f" x="102.339844"/>
      <use xlink:href="#DejaVuSans-70" x="163.521484"/>
      <use xlink:href="#DejaVuSans-35" x="226.998047"/>
      <use xlink:href="#DejaVuSans-30" x="290.621094"/>
     </g>
    </g>
    <g id="patch_31">
     <path d="M 335.46 98.938418 
L 355.46 98.938418 
L 355.46 91.938418 
L 335.46 91.938418 
z
" style="fill: #c03d3e; stroke: #3d3d3d; stroke-width: 0.75; stroke-linejoin: miter"/>
    </g>
    <g id="text_14">
     <!-- drop80 -->
     <g transform="translate(363.46 98.938418) scale(0.1 -0.1)">
      <defs>
       <path id="DejaVuSans-38" d="M 2034 2216 
Q 1584 2216 1326 1975 
Q 1069 1734 1069 1313 
Q 1069 891 1326 650 
Q 1584 409 2034 409 
Q 2484 409 2743 651 
Q 3003 894 3003 1313 
Q 3003 1734 2745 1975 
Q 2488 2216 2034 2216 
z
M 1403 2484 
Q 997 2584 770 2862 
Q 544 3141 544 3541 
Q 544 4100 942 4425 
Q 1341 4750 2034 4750 
Q 2731 4750 3128 4425 
Q 3525 4100 3525 3541 
Q 3525 3141 3298 2862 
Q 3072 2584 2669 2484 
Q 3125 2378 3379 2068 
Q 3634 1759 3634 1313 
Q 3634 634 3220 271 
Q 2806 -91 2034 -91 
Q 1263 -91 848 271 
Q 434 634 434 1313 
Q 434 1759 690 2068 
Q 947 2378 1403 2484 
z
M 1172 3481 
Q 1172 3119 1398 2916 
Q 1625 2713 2034 2713 
Q 2441 2713 2670 2916 
Q 2900 3119 2900 3481 
Q 2900 3844 2670 4047 
Q 2441 4250 2034 4250 
Q 1625 4250 1398 4047 
Q 1172 3844 1172 3481 
z
" transform="scale(0.015625)"/>
      </defs>
      <use xlink:href="#DejaVuSans-64"/>
      <use xlink:href="#DejaVuSans-72" x="63.476562"/>
      <use xlink:href="#DejaVuSans-6f" x="102.339844"/>
      <use xlink:href="#DejaVuSans-70" x="163.521484"/>
      <use xlink:href="#DejaVuSans-38" x="226.998047"/>
      <use xlink:href="#DejaVuSans-30" x="290.621094"/>
     </g>
    </g>
   </g>
  </g>
 </g>
 <defs>
  <clipPath id="pcd58856a6c">
   <rect x="40.88125" y="22.318125" width="285.57875" height="87.69998"/>
  </clipPath>
 </defs>
</svg>
