<?xml version="1.0" encoding="utf-8" standalone="no"?>
<!DOCTYPE svg PUBLIC "-//W3C//DTD SVG 1.1//EN"
  "http://www.w3.org/Graphics/SVG/1.1/DTD/svg11.dtd">
<svg xmlns:xlink="http://www.w3.org/1999/xlink" width="410.211562pt" height="207.302882pt" viewBox="0 0 410.211562 207.302882" xmlns="http://www.w3.org/2000/svg" version="1.1">
 <metadata>
  <rdf:RDF xmlns:dc="http://purl.org/dc/elements/1.1/" xmlns:cc="http://creativecommons.org/ns#" xmlns:rdf="http://www.w3.org/1999/02/22-rdf-syntax-ns#">
   <cc:Work>
    <dc:type rdf:resource="http://purl.org/dc/dcmitype/StillImage"/>
    <dc:date>2023-06-23T11:44:43.057829</dc:date>
    <dc:format>image/svg+xml</dc:format>
    <dc:creator>
     <cc:Agent>
      <dc:title>Matplotlib v3.7.1, https://matplotlib.org/</dc:title>
     </cc:Agent>
    </dc:creator>
   </cc:Work>
  </rdf:RDF>
 </metadata>
 <defs>
  <style type="text/css">*{stroke-linejoin: round; stroke-linecap: butt}</style>
 </defs>
 <g id="figure_1">
  <g id="patch_1">
   <path d="M -0 207.302882 
L 410.211562 207.302882 
L 410.211562 0 
L -0 0 
L -0 207.302882 
z
" style="fill: none"/>
  </g>
  <g id="axes_1">
   <g id="patch_2">
    <path d="M 53.60625 110.018105 
L 326.585 110.018105 
L 326.585 22.318125 
L 53.60625 22.318125 
L 53.60625 110.018105 
z
" style="fill: none"/>
   </g>
   <g id="patch_3">
    <path d="M 53.749923 104.14281 
L 67.82988 104.14281 
L 67.82988 103.924515 
L 53.749923 103.924515 
L 53.749923 104.14281 
z
" clip-path="url(#pf868b38d26)" style="fill: #3274a1; stroke: #3d3d3d; stroke-width: 1.5; stroke-linejoin: miter"/>
   </g>
   <g id="patch_4">
    <path d="M 68.117226 103.715108 
L 82.197182 103.715108 
L 82.197182 103.584946 
L 68.117226 103.584946 
L 68.117226 103.715108 
z
" clip-path="url(#pf868b38d26)" style="fill: #e1812c; stroke: #3d3d3d; stroke-width: 1.5; stroke-linejoin: miter"/>
   </g>
   <g id="patch_5">
    <path d="M 82.484528 103.471286 
L 96.564485 103.471286 
L 96.564485 103.355054 
L 82.484528 103.355054 
L 82.484528 103.471286 
z
" clip-path="url(#pf868b38d26)" style="fill: #3a923a; stroke: #3d3d3d; stroke-width: 1.5; stroke-linejoin: miter"/>
   </g>
   <g id="patch_6">
    <path d="M 96.851831 102.749525 
L 110.931787 102.749525 
L 110.931787 102.583131 
L 96.851831 102.583131 
L 96.851831 102.749525 
z
" clip-path="url(#pf868b38d26)" style="fill: #c03d3e; stroke: #3d3d3d; stroke-width: 1.5; stroke-linejoin: miter"/>
   </g>
   <g id="patch_7">
    <path d="M 125.586436 43.719205 
L 139.666393 43.719205 
L 139.666393 39.710913 
L 125.586436 39.710913 
L 125.586436 43.719205 
z
" clip-path="url(#pf868b38d26)" style="fill: #3274a1; stroke: #3d3d3d; stroke-width: 1.5; stroke-linejoin: miter"/>
   </g>
   <g id="patch_8">
    <path d="M 139.953739 39.902163 
L 154.033695 39.902163 
L 154.033695 30.171354 
L 139.953739 30.171354 
L 139.953739 39.902163 
z
" clip-path="url(#pf868b38d26)" style="fill: #e1812c; stroke: #3d3d3d; stroke-width: 1.5; stroke-linejoin: miter"/>
   </g>
   <g id="patch_9">
    <path d="M 154.321041 45.513186 
L 168.400998 45.513186 
L 168.400998 40.938538 
L 154.321041 40.938538 
L 154.321041 45.513186 
z
" clip-path="url(#pf868b38d26)" style="fill: #3a923a; stroke: #3d3d3d; stroke-width: 1.5; stroke-linejoin: miter"/>
   </g>
   <g id="patch_10">
    <path d="M 168.688344 48.456059 
L 182.768301 48.456059 
L 182.768301 47.090038 
L 168.688344 47.090038 
L 168.688344 48.456059 
z
" clip-path="url(#pf868b38d26)" style="fill: #c03d3e; stroke: #3d3d3d; stroke-width: 1.5; stroke-linejoin: miter"/>
   </g>
   <g id="patch_11">
    <path d="M 197.422949 105.996767 
L 211.502906 105.996767 
L 211.502906 105.972481 
L 197.422949 105.972481 
L 197.422949 105.996767 
z
" clip-path="url(#pf868b38d26)" style="fill: #3274a1; stroke: #3d3d3d; stroke-width: 1.5; stroke-linejoin: miter"/>
   </g>
   <g id="patch_12">
    <path d="M 211.790252 105.845887 
L 225.870209 105.845887 
L 225.870209 105.797314 
L 211.790252 105.797314 
L 211.790252 105.845887 
z
" clip-path="url(#pf868b38d26)" style="fill: #e1812c; stroke: #3d3d3d; stroke-width: 1.5; stroke-linejoin: miter"/>
   </g>
   <g id="patch_13">
    <path d="M 226.157555 105.730567 
L 240.237511 105.730567 
L 240.237511 105.66477 
L 226.157555 105.66477 
L 226.157555 105.730567 
z
" clip-path="url(#pf868b38d26)" style="fill: #3a923a; stroke: #3d3d3d; stroke-width: 1.5; stroke-linejoin: miter"/>
   </g>
   <g id="patch_14">
    <path d="M 240.524857 105.397837 
L 254.604814 105.397837 
L 254.604814 105.258737 
L 240.524857 105.258737 
L 240.524857 105.397837 
z
" clip-path="url(#pf868b38d26)" style="fill: #c03d3e; stroke: #3d3d3d; stroke-width: 1.5; stroke-linejoin: miter"/>
   </g>
   <g id="patch_15">
    <path d="M 269.259462 47.428483 
L 283.339419 47.428483 
L 283.339419 41.4713 
L 269.259462 41.4713 
L 269.259462 47.428483 
z
" clip-path="url(#pf868b38d26)" style="fill: #3274a1; stroke: #3d3d3d; stroke-width: 1.5; stroke-linejoin: miter"/>
   </g>
   <g id="patch_16">
    <path d="M 283.626765 41.815447 
L 297.706722 41.815447 
L 297.706722 39.923895 
L 283.626765 39.923895 
L 283.626765 41.815447 
z
" clip-path="url(#pf868b38d26)" style="fill: #e1812c; stroke: #3d3d3d; stroke-width: 1.5; stroke-linejoin: miter"/>
   </g>
   <g id="patch_17">
    <path d="M 297.994068 47.177725 
L 312.074024 47.177725 
L 312.074024 42.65219 
L 297.994068 42.65219 
L 297.994068 47.177725 
z
" clip-path="url(#pf868b38d26)" style="fill: #3a923a; stroke: #3d3d3d; stroke-width: 1.5; stroke-linejoin: miter"/>
   </g>
   <g id="patch_18">
    <path d="M 312.36137 60.16629 
L 326.441327 60.16629 
L 326.441327 57.032231 
L 312.36137 57.032231 
L 312.36137 60.16629 
z
" clip-path="url(#pf868b38d26)" style="fill: #c03d3e; stroke: #3d3d3d; stroke-width: 1.5; stroke-linejoin: miter"/>
   </g>
   <g id="patch_19">
    <path d="M 82.340855 108.077211 
L 82.340855 108.077211 
L 82.340855 108.077211 
L 82.340855 108.077211 
z
" clip-path="url(#pf868b38d26)" style="fill: #3274a1; stroke: #3d3d3d; stroke-width: 0.75; stroke-linejoin: miter"/>
   </g>
   <g id="patch_20">
    <path d="M 82.340855 108.077211 
L 82.340855 108.077211 
L 82.340855 108.077211 
L 82.340855 108.077211 
z
" clip-path="url(#pf868b38d26)" style="fill: #e1812c; stroke: #3d3d3d; stroke-width: 0.75; stroke-linejoin: miter"/>
   </g>
   <g id="patch_21">
    <path d="M 82.340855 108.077211 
L 82.340855 108.077211 
L 82.340855 108.077211 
L 82.340855 108.077211 
z
" clip-path="url(#pf868b38d26)" style="fill: #3a923a; stroke: #3d3d3d; stroke-width: 0.75; stroke-linejoin: miter"/>
   </g>
   <g id="patch_22">
    <path d="M 82.340855 108.077211 
L 82.340855 108.077211 
L 82.340855 108.077211 
L 82.340855 108.077211 
z
" clip-path="url(#pf868b38d26)" style="fill: #c03d3e; stroke: #3d3d3d; stroke-width: 0.75; stroke-linejoin: miter"/>
   </g>
   <g id="matplotlib.axis_1">
    <g id="xtick_1">
     <g id="line2d_1">
      <defs>
       <path id="m054309a77e" d="M 0 0 
L 0 3.5 
" style="stroke: #000000; stroke-width: 0.8"/>
      </defs>
      <g>
       <use xlink:href="#m054309a77e" x="82.340855" y="110.018105" style="stroke: #000000; stroke-width: 0.8"/>
      </g>
     </g>
     <g id="text_1">
      <!-- proba_weak -->
      <g transform="translate(38.190876 164.873766) rotate(-45) scale(0.1 -0.1)">
       <defs>
        <path id="DejaVuSans-70" d="M 1159 525 
L 1159 -1331 
L 581 -1331 
L 581 3500 
L 1159 3500 
L 1159 2969 
Q 1341 3281 1617 3432 
Q 1894 3584 2278 3584 
Q 2916 3584 3314 3078 
Q 3713 2572 3713 1747 
Q 3713 922 3314 415 
Q 2916 -91 2278 -91 
Q 1894 -91 1617 61 
Q 1341 213 1159 525 
z
M 3116 1747 
Q 3116 2381 2855 2742 
Q 2594 3103 2138 3103 
Q 1681 3103 1420 2742 
Q 1159 2381 1159 1747 
Q 1159 1113 1420 752 
Q 1681 391 2138 391 
Q 2594 391 2855 752 
Q 3116 1113 3116 1747 
z
" transform="scale(0.015625)"/>
        <path id="DejaVuSans-72" d="M 2631 2963 
Q 2534 3019 2420 3045 
Q 2306 3072 2169 3072 
Q 1681 3072 1420 2755 
Q 1159 2438 1159 1844 
L 1159 0 
L 581 0 
L 581 3500 
L 1159 3500 
L 1159 2956 
Q 1341 3275 1631 3429 
Q 1922 3584 2338 3584 
Q 2397 3584 2469 3576 
Q 2541 3569 2628 3553 
L 2631 2963 
z
" transform="scale(0.015625)"/>
        <path id="DejaVuSans-6f" d="M 1959 3097 
Q 1497 3097 1228 2736 
Q 959 2375 959 1747 
Q 959 1119 1226 758 
Q 1494 397 1959 397 
Q 2419 397 2687 759 
Q 2956 1122 2956 1747 
Q 2956 2369 2687 2733 
Q 2419 3097 1959 3097 
z
M 1959 3584 
Q 2709 3584 3137 3096 
Q 3566 2609 3566 1747 
Q 3566 888 3137 398 
Q 2709 -91 1959 -91 
Q 1206 -91 779 398 
Q 353 888 353 1747 
Q 353 2609 779 3096 
Q 1206 3584 1959 3584 
z
" transform="scale(0.015625)"/>
        <path id="DejaVuSans-62" d="M 3116 1747 
Q 3116 2381 2855 2742 
Q 2594 3103 2138 3103 
Q 1681 3103 1420 2742 
Q 1159 2381 1159 1747 
Q 1159 1113 1420 752 
Q 1681 391 2138 391 
Q 2594 391 2855 752 
Q 3116 1113 3116 1747 
z
M 1159 2969 
Q 1341 3281 1617 3432 
Q 1894 3584 2278 3584 
Q 2916 3584 3314 3078 
Q 3713 2572 3713 1747 
Q 3713 922 3314 415 
Q 2916 -91 2278 -91 
Q 1894 -91 1617 61 
Q 1341 213 1159 525 
L 1159 0 
L 581 0 
L 581 4863 
L 1159 4863 
L 1159 2969 
z
" transform="scale(0.015625)"/>
        <path id="DejaVuSans-61" d="M 2194 1759 
Q 1497 1759 1228 1600 
Q 959 1441 959 1056 
Q 959 750 1161 570 
Q 1363 391 1709 391 
Q 2188 391 2477 730 
Q 2766 1069 2766 1631 
L 2766 1759 
L 2194 1759 
z
M 3341 1997 
L 3341 0 
L 2766 0 
L 2766 531 
Q 2569 213 2275 61 
Q 1981 -91 1556 -91 
Q 1019 -91 701 211 
Q 384 513 384 1019 
Q 384 1609 779 1909 
Q 1175 2209 1959 2209 
L 2766 2209 
L 2766 2266 
Q 2766 2663 2505 2880 
Q 2244 3097 1772 3097 
Q 1472 3097 1187 3025 
Q 903 2953 641 2809 
L 641 3341 
Q 956 3463 1253 3523 
Q 1550 3584 1831 3584 
Q 2591 3584 2966 3190 
Q 3341 2797 3341 1997 
z
" transform="scale(0.015625)"/>
        <path id="DejaVuSans-5f" d="M 3263 -1063 
L 3263 -1509 
L -63 -1509 
L -63 -1063 
L 3263 -1063 
z
" transform="scale(0.015625)"/>
        <path id="DejaVuSans-77" d="M 269 3500 
L 844 3500 
L 1563 769 
L 2278 3500 
L 2956 3500 
L 3675 769 
L 4391 3500 
L 4966 3500 
L 4050 0 
L 3372 0 
L 2619 2869 
L 1863 0 
L 1184 0 
L 269 3500 
z
" transform="scale(0.015625)"/>
        <path id="DejaVuSans-65" d="M 3597 1894 
L 3597 1613 
L 953 1613 
Q 991 1019 1311 708 
Q 1631 397 2203 397 
Q 2534 397 2845 478 
Q 3156 559 3463 722 
L 3463 178 
Q 3153 47 2828 -22 
Q 2503 -91 2169 -91 
Q 1331 -91 842 396 
Q 353 884 353 1716 
Q 353 2575 817 3079 
Q 1281 3584 2069 3584 
Q 2775 3584 3186 3129 
Q 3597 2675 3597 1894 
z
M 3022 2063 
Q 3016 2534 2758 2815 
Q 2500 3097 2075 3097 
Q 1594 3097 1305 2825 
Q 1016 2553 972 2059 
L 3022 2063 
z
" transform="scale(0.015625)"/>
        <path id="DejaVuSans-6b" d="M 581 4863 
L 1159 4863 
L 1159 1991 
L 2875 3500 
L 3609 3500 
L 1753 1863 
L 3688 0 
L 2938 0 
L 1159 1709 
L 1159 0 
L 581 0 
L 581 4863 
z
" transform="scale(0.015625)"/>
       </defs>
       <use xlink:href="#DejaVuSans-70"/>
       <use xlink:href="#DejaVuSans-72" x="63.476562"/>
       <use xlink:href="#DejaVuSans-6f" x="102.339844"/>
       <use xlink:href="#DejaVuSans-62" x="163.521484"/>
       <use xlink:href="#DejaVuSans-61" x="226.998047"/>
       <use xlink:href="#DejaVuSans-5f" x="288.277344"/>
       <use xlink:href="#DejaVuSans-77" x="338.277344"/>
       <use xlink:href="#DejaVuSans-65" x="420.064453"/>
       <use xlink:href="#DejaVuSans-61" x="481.587891"/>
       <use xlink:href="#DejaVuSans-6b" x="542.867188"/>
      </g>
     </g>
    </g>
    <g id="xtick_2">
     <g id="line2d_2">
      <g>
       <use xlink:href="#m054309a77e" x="154.177368" y="110.018105" style="stroke: #000000; stroke-width: 0.8"/>
      </g>
     </g>
     <g id="text_2">
      <!-- embedding_weak -->
      <g transform="translate(90.421748 184.479407) rotate(-45) scale(0.1 -0.1)">
       <defs>
        <path id="DejaVuSans-6d" d="M 3328 2828 
Q 3544 3216 3844 3400 
Q 4144 3584 4550 3584 
Q 5097 3584 5394 3201 
Q 5691 2819 5691 2113 
L 5691 0 
L 5113 0 
L 5113 2094 
Q 5113 2597 4934 2840 
Q 4756 3084 4391 3084 
Q 3944 3084 3684 2787 
Q 3425 2491 3425 1978 
L 3425 0 
L 2847 0 
L 2847 2094 
Q 2847 2600 2669 2842 
Q 2491 3084 2119 3084 
Q 1678 3084 1418 2786 
Q 1159 2488 1159 1978 
L 1159 0 
L 581 0 
L 581 3500 
L 1159 3500 
L 1159 2956 
Q 1356 3278 1631 3431 
Q 1906 3584 2284 3584 
Q 2666 3584 2933 3390 
Q 3200 3197 3328 2828 
z
" transform="scale(0.015625)"/>
        <path id="DejaVuSans-64" d="M 2906 2969 
L 2906 4863 
L 3481 4863 
L 3481 0 
L 2906 0 
L 2906 525 
Q 2725 213 2448 61 
Q 2172 -91 1784 -91 
Q 1150 -91 751 415 
Q 353 922 353 1747 
Q 353 2572 751 3078 
Q 1150 3584 1784 3584 
Q 2172 3584 2448 3432 
Q 2725 3281 2906 2969 
z
M 947 1747 
Q 947 1113 1208 752 
Q 1469 391 1925 391 
Q 2381 391 2643 752 
Q 2906 1113 2906 1747 
Q 2906 2381 2643 2742 
Q 2381 3103 1925 3103 
Q 1469 3103 1208 2742 
Q 947 2381 947 1747 
z
" transform="scale(0.015625)"/>
        <path id="DejaVuSans-69" d="M 603 3500 
L 1178 3500 
L 1178 0 
L 603 0 
L 603 3500 
z
M 603 4863 
L 1178 4863 
L 1178 4134 
L 603 4134 
L 603 4863 
z
" transform="scale(0.015625)"/>
        <path id="DejaVuSans-6e" d="M 3513 2113 
L 3513 0 
L 2938 0 
L 2938 2094 
Q 2938 2591 2744 2837 
Q 2550 3084 2163 3084 
Q 1697 3084 1428 2787 
Q 1159 2491 1159 1978 
L 1159 0 
L 581 0 
L 581 3500 
L 1159 3500 
L 1159 2956 
Q 1366 3272 1645 3428 
Q 1925 3584 2291 3584 
Q 2894 3584 3203 3211 
Q 3513 2838 3513 2113 
z
" transform="scale(0.015625)"/>
        <path id="DejaVuSans-67" d="M 2906 1791 
Q 2906 2416 2648 2759 
Q 2391 3103 1925 3103 
Q 1463 3103 1205 2759 
Q 947 2416 947 1791 
Q 947 1169 1205 825 
Q 1463 481 1925 481 
Q 2391 481 2648 825 
Q 2906 1169 2906 1791 
z
M 3481 434 
Q 3481 -459 3084 -895 
Q 2688 -1331 1869 -1331 
Q 1566 -1331 1297 -1286 
Q 1028 -1241 775 -1147 
L 775 -588 
Q 1028 -725 1275 -790 
Q 1522 -856 1778 -856 
Q 2344 -856 2625 -561 
Q 2906 -266 2906 331 
L 2906 616 
Q 2728 306 2450 153 
Q 2172 0 1784 0 
Q 1141 0 747 490 
Q 353 981 353 1791 
Q 353 2603 747 3093 
Q 1141 3584 1784 3584 
Q 2172 3584 2450 3431 
Q 2728 3278 2906 2969 
L 2906 3500 
L 3481 3500 
L 3481 434 
z
" transform="scale(0.015625)"/>
       </defs>
       <use xlink:href="#DejaVuSans-65"/>
       <use xlink:href="#DejaVuSans-6d" x="61.523438"/>
       <use xlink:href="#DejaVuSans-62" x="158.935547"/>
       <use xlink:href="#DejaVuSans-65" x="222.412109"/>
       <use xlink:href="#DejaVuSans-64" x="283.935547"/>
       <use xlink:href="#DejaVuSans-64" x="347.412109"/>
       <use xlink:href="#DejaVuSans-69" x="410.888672"/>
       <use xlink:href="#DejaVuSans-6e" x="438.671875"/>
       <use xlink:href="#DejaVuSans-67" x="502.050781"/>
       <use xlink:href="#DejaVuSans-5f" x="565.527344"/>
       <use xlink:href="#DejaVuSans-77" x="615.527344"/>
       <use xlink:href="#DejaVuSans-65" x="697.314453"/>
       <use xlink:href="#DejaVuSans-61" x="758.837891"/>
       <use xlink:href="#DejaVuSans-6b" x="820.117188"/>
      </g>
     </g>
    </g>
    <g id="xtick_3">
     <g id="line2d_3">
      <g>
       <use xlink:href="#m054309a77e" x="226.013882" y="110.018105" style="stroke: #000000; stroke-width: 0.8"/>
      </g>
     </g>
     <g id="text_3">
      <!-- proba -->
      <g transform="translate(204.157653 142.776679) rotate(-45) scale(0.1 -0.1)">
       <use xlink:href="#DejaVuSans-70"/>
       <use xlink:href="#DejaVuSans-72" x="63.476562"/>
       <use xlink:href="#DejaVuSans-6f" x="102.339844"/>
       <use xlink:href="#DejaVuSans-62" x="163.521484"/>
       <use xlink:href="#DejaVuSans-61" x="226.998047"/>
      </g>
     </g>
    </g>
    <g id="xtick_4">
     <g id="line2d_4">
      <g>
       <use xlink:href="#m054309a77e" x="297.850395" y="110.018105" style="stroke: #000000; stroke-width: 0.8"/>
      </g>
     </g>
     <g id="text_4">
      <!-- embedding -->
      <g transform="translate(256.388526 162.38232) rotate(-45) scale(0.1 -0.1)">
       <use xlink:href="#DejaVuSans-65"/>
       <use xlink:href="#DejaVuSans-6d" x="61.523438"/>
       <use xlink:href="#DejaVuSans-62" x="158.935547"/>
       <use xlink:href="#DejaVuSans-65" x="222.412109"/>
       <use xlink:href="#DejaVuSans-64" x="283.935547"/>
       <use xlink:href="#DejaVuSans-64" x="347.412109"/>
       <use xlink:href="#DejaVuSans-69" x="410.888672"/>
       <use xlink:href="#DejaVuSans-6e" x="438.671875"/>
       <use xlink:href="#DejaVuSans-67" x="502.050781"/>
      </g>
     </g>
    </g>
    <g id="text_5">
     <!-- estimator_name -->
     <g transform="translate(149.376094 197.745069) scale(0.1 -0.1)">
      <defs>
       <path id="DejaVuSans-73" d="M 2834 3397 
L 2834 2853 
Q 2591 2978 2328 3040 
Q 2066 3103 1784 3103 
Q 1356 3103 1142 2972 
Q 928 2841 928 2578 
Q 928 2378 1081 2264 
Q 1234 2150 1697 2047 
L 1894 2003 
Q 2506 1872 2764 1633 
Q 3022 1394 3022 966 
Q 3022 478 2636 193 
Q 2250 -91 1575 -91 
Q 1294 -91 989 -36 
Q 684 19 347 128 
L 347 722 
Q 666 556 975 473 
Q 1284 391 1588 391 
Q 1994 391 2212 530 
Q 2431 669 2431 922 
Q 2431 1156 2273 1281 
Q 2116 1406 1581 1522 
L 1381 1569 
Q 847 1681 609 1914 
Q 372 2147 372 2553 
Q 372 3047 722 3315 
Q 1072 3584 1716 3584 
Q 2034 3584 2315 3537 
Q 2597 3491 2834 3397 
z
" transform="scale(0.015625)"/>
       <path id="DejaVuSans-74" d="M 1172 4494 
L 1172 3500 
L 2356 3500 
L 2356 3053 
L 1172 3053 
L 1172 1153 
Q 1172 725 1289 603 
Q 1406 481 1766 481 
L 2356 481 
L 2356 0 
L 1766 0 
Q 1100 0 847 248 
Q 594 497 594 1153 
L 594 3053 
L 172 3053 
L 172 3500 
L 594 3500 
L 594 4494 
L 1172 4494 
z
" transform="scale(0.015625)"/>
      </defs>
      <use xlink:href="#DejaVuSans-65"/>
      <use xlink:href="#DejaVuSans-73" x="61.523438"/>
      <use xlink:href="#DejaVuSans-74" x="113.623047"/>
      <use xlink:href="#DejaVuSans-69" x="152.832031"/>
      <use xlink:href="#DejaVuSans-6d" x="180.615234"/>
      <use xlink:href="#DejaVuSans-61" x="278.027344"/>
      <use xlink:href="#DejaVuSans-74" x="339.306641"/>
      <use xlink:href="#DejaVuSans-6f" x="378.515625"/>
      <use xlink:href="#DejaVuSans-72" x="439.697266"/>
      <use xlink:href="#DejaVuSans-5f" x="480.810547"/>
      <use xlink:href="#DejaVuSans-6e" x="530.810547"/>
      <use xlink:href="#DejaVuSans-61" x="594.189453"/>
      <use xlink:href="#DejaVuSans-6d" x="655.46875"/>
      <use xlink:href="#DejaVuSans-65" x="752.880859"/>
     </g>
    </g>
   </g>
   <g id="matplotlib.axis_2">
    <g id="ytick_1">
     <g id="line2d_5">
      <defs>
       <path id="mea8dfc993c" d="M 0 0 
L -3.5 0 
" style="stroke: #000000; stroke-width: 0.8"/>
      </defs>
      <g>
       <use xlink:href="#mea8dfc993c" x="53.60625" y="108.077211" style="stroke: #000000; stroke-width: 0.8"/>
      </g>
     </g>
     <g id="text_6">
      <!-- 0 -->
      <g transform="translate(40.24375 111.87643) scale(0.1 -0.1)">
       <defs>
        <path id="DejaVuSans-30" d="M 2034 4250 
Q 1547 4250 1301 3770 
Q 1056 3291 1056 2328 
Q 1056 1369 1301 889 
Q 1547 409 2034 409 
Q 2525 409 2770 889 
Q 3016 1369 3016 2328 
Q 3016 3291 2770 3770 
Q 2525 4250 2034 4250 
z
M 2034 4750 
Q 2819 4750 3233 4129 
Q 3647 3509 3647 2328 
Q 3647 1150 3233 529 
Q 2819 -91 2034 -91 
Q 1250 -91 836 529 
Q 422 1150 422 2328 
Q 422 3509 836 4129 
Q 1250 4750 2034 4750 
z
" transform="scale(0.015625)"/>
       </defs>
       <use xlink:href="#DejaVuSans-30"/>
      </g>
     </g>
    </g>
    <g id="ytick_2">
     <g id="line2d_6">
      <g>
       <use xlink:href="#mea8dfc993c" x="53.60625" y="71.214551" style="stroke: #000000; stroke-width: 0.8"/>
      </g>
     </g>
     <g id="text_7">
      <!-- 500 -->
      <g transform="translate(27.51875 75.01377) scale(0.1 -0.1)">
       <defs>
        <path id="DejaVuSans-35" d="M 691 4666 
L 3169 4666 
L 3169 4134 
L 1269 4134 
L 1269 2991 
Q 1406 3038 1543 3061 
Q 1681 3084 1819 3084 
Q 2600 3084 3056 2656 
Q 3513 2228 3513 1497 
Q 3513 744 3044 326 
Q 2575 -91 1722 -91 
Q 1428 -91 1123 -41 
Q 819 9 494 109 
L 494 744 
Q 775 591 1075 516 
Q 1375 441 1709 441 
Q 2250 441 2565 725 
Q 2881 1009 2881 1497 
Q 2881 1984 2565 2268 
Q 2250 2553 1709 2553 
Q 1456 2553 1204 2497 
Q 953 2441 691 2322 
L 691 4666 
z
" transform="scale(0.015625)"/>
       </defs>
       <use xlink:href="#DejaVuSans-35"/>
       <use xlink:href="#DejaVuSans-30" x="63.623047"/>
       <use xlink:href="#DejaVuSans-30" x="127.246094"/>
      </g>
     </g>
    </g>
    <g id="ytick_3">
     <g id="line2d_7">
      <g>
       <use xlink:href="#mea8dfc993c" x="53.60625" y="34.351892" style="stroke: #000000; stroke-width: 0.8"/>
      </g>
     </g>
     <g id="text_8">
      <!-- 1000 -->
      <g transform="translate(21.15625 38.15111) scale(0.1 -0.1)">
       <defs>
        <path id="DejaVuSans-31" d="M 794 531 
L 1825 531 
L 1825 4091 
L 703 3866 
L 703 4441 
L 1819 4666 
L 2450 4666 
L 2450 531 
L 3481 531 
L 3481 0 
L 794 0 
L 794 531 
z
" transform="scale(0.015625)"/>
       </defs>
       <use xlink:href="#DejaVuSans-31"/>
       <use xlink:href="#DejaVuSans-30" x="63.623047"/>
       <use xlink:href="#DejaVuSans-30" x="127.246094"/>
       <use xlink:href="#DejaVuSans-30" x="190.869141"/>
      </g>
     </g>
    </g>
    <g id="text_9">
     <!-- fit_time -->
     <g transform="translate(14.798437 85.073584) rotate(-90) scale(0.1 -0.1)">
      <defs>
       <path id="DejaVuSans-66" d="M 2375 4863 
L 2375 4384 
L 1825 4384 
Q 1516 4384 1395 4259 
Q 1275 4134 1275 3809 
L 1275 3500 
L 2222 3500 
L 2222 3053 
L 1275 3053 
L 1275 0 
L 697 0 
L 697 3053 
L 147 3053 
L 147 3500 
L 697 3500 
L 697 3744 
Q 697 4328 969 4595 
Q 1241 4863 1831 4863 
L 2375 4863 
z
" transform="scale(0.015625)"/>
      </defs>
      <use xlink:href="#DejaVuSans-66"/>
      <use xlink:href="#DejaVuSans-69" x="35.205078"/>
      <use xlink:href="#DejaVuSans-74" x="62.988281"/>
      <use xlink:href="#DejaVuSans-5f" x="102.197266"/>
      <use xlink:href="#DejaVuSans-74" x="152.197266"/>
      <use xlink:href="#DejaVuSans-69" x="191.40625"/>
      <use xlink:href="#DejaVuSans-6d" x="219.189453"/>
      <use xlink:href="#DejaVuSans-65" x="316.601562"/>
     </g>
    </g>
   </g>
   <g id="line2d_8">
    <path d="M 60.789901 104.14281 
L 60.789901 104.153329 
" clip-path="url(#pf868b38d26)" style="fill: none; stroke: #3d3d3d; stroke-width: 1.5; stroke-linecap: square"/>
   </g>
   <g id="line2d_9">
    <path d="M 60.789901 103.924515 
L 60.789901 103.910706 
" clip-path="url(#pf868b38d26)" style="fill: none; stroke: #3d3d3d; stroke-width: 1.5; stroke-linecap: square"/>
   </g>
   <g id="line2d_10">
    <path d="M 57.269912 104.153329 
L 64.30989 104.153329 
" clip-path="url(#pf868b38d26)" style="fill: none; stroke: #3d3d3d; stroke-width: 1.5; stroke-linecap: square"/>
   </g>
   <g id="line2d_11">
    <path d="M 57.269912 103.910706 
L 64.30989 103.910706 
" clip-path="url(#pf868b38d26)" style="fill: none; stroke: #3d3d3d; stroke-width: 1.5; stroke-linecap: square"/>
   </g>
   <g id="line2d_12"/>
   <g id="line2d_13">
    <path d="M 75.157204 103.715108 
L 75.157204 103.728215 
" clip-path="url(#pf868b38d26)" style="fill: none; stroke: #3d3d3d; stroke-width: 1.5; stroke-linecap: square"/>
   </g>
   <g id="line2d_14">
    <path d="M 75.157204 103.584946 
L 75.157204 103.567365 
" clip-path="url(#pf868b38d26)" style="fill: none; stroke: #3d3d3d; stroke-width: 1.5; stroke-linecap: square"/>
   </g>
   <g id="line2d_15">
    <path d="M 71.637215 103.728215 
L 78.677193 103.728215 
" clip-path="url(#pf868b38d26)" style="fill: none; stroke: #3d3d3d; stroke-width: 1.5; stroke-linecap: square"/>
   </g>
   <g id="line2d_16">
    <path d="M 71.637215 103.567365 
L 78.677193 103.567365 
" clip-path="url(#pf868b38d26)" style="fill: none; stroke: #3d3d3d; stroke-width: 1.5; stroke-linecap: square"/>
   </g>
   <g id="line2d_17"/>
   <g id="line2d_18">
    <path d="M 89.524507 103.471286 
L 89.524507 103.529135 
" clip-path="url(#pf868b38d26)" style="fill: none; stroke: #3d3d3d; stroke-width: 1.5; stroke-linecap: square"/>
   </g>
   <g id="line2d_19">
    <path d="M 89.524507 103.355054 
L 89.524507 103.338759 
" clip-path="url(#pf868b38d26)" style="fill: none; stroke: #3d3d3d; stroke-width: 1.5; stroke-linecap: square"/>
   </g>
   <g id="line2d_20">
    <path d="M 86.004517 103.529135 
L 93.044496 103.529135 
" clip-path="url(#pf868b38d26)" style="fill: none; stroke: #3d3d3d; stroke-width: 1.5; stroke-linecap: square"/>
   </g>
   <g id="line2d_21">
    <path d="M 86.004517 103.338759 
L 93.044496 103.338759 
" clip-path="url(#pf868b38d26)" style="fill: none; stroke: #3d3d3d; stroke-width: 1.5; stroke-linecap: square"/>
   </g>
   <g id="line2d_22"/>
   <g id="line2d_23">
    <path d="M 103.891809 102.749525 
L 103.891809 102.813935 
" clip-path="url(#pf868b38d26)" style="fill: none; stroke: #3d3d3d; stroke-width: 1.5; stroke-linecap: square"/>
   </g>
   <g id="line2d_24">
    <path d="M 103.891809 102.583131 
L 103.891809 102.561604 
" clip-path="url(#pf868b38d26)" style="fill: none; stroke: #3d3d3d; stroke-width: 1.5; stroke-linecap: square"/>
   </g>
   <g id="line2d_25">
    <path d="M 100.37182 102.813935 
L 107.411798 102.813935 
" clip-path="url(#pf868b38d26)" style="fill: none; stroke: #3d3d3d; stroke-width: 1.5; stroke-linecap: square"/>
   </g>
   <g id="line2d_26">
    <path d="M 100.37182 102.561604 
L 107.411798 102.561604 
" clip-path="url(#pf868b38d26)" style="fill: none; stroke: #3d3d3d; stroke-width: 1.5; stroke-linecap: square"/>
   </g>
   <g id="line2d_27"/>
   <g id="line2d_28">
    <path d="M 132.626414 43.719205 
L 132.626414 45.005576 
" clip-path="url(#pf868b38d26)" style="fill: none; stroke: #3d3d3d; stroke-width: 1.5; stroke-linecap: square"/>
   </g>
   <g id="line2d_29">
    <path d="M 132.626414 39.710913 
L 132.626414 35.190152 
" clip-path="url(#pf868b38d26)" style="fill: none; stroke: #3d3d3d; stroke-width: 1.5; stroke-linecap: square"/>
   </g>
   <g id="line2d_30">
    <path d="M 129.106425 45.005576 
L 136.146404 45.005576 
" clip-path="url(#pf868b38d26)" style="fill: none; stroke: #3d3d3d; stroke-width: 1.5; stroke-linecap: square"/>
   </g>
   <g id="line2d_31">
    <path d="M 129.106425 35.190152 
L 136.146404 35.190152 
" clip-path="url(#pf868b38d26)" style="fill: none; stroke: #3d3d3d; stroke-width: 1.5; stroke-linecap: square"/>
   </g>
   <g id="line2d_32"/>
   <g id="line2d_33">
    <path d="M 146.993717 39.902163 
L 146.993717 47.652492 
" clip-path="url(#pf868b38d26)" style="fill: none; stroke: #3d3d3d; stroke-width: 1.5; stroke-linecap: square"/>
   </g>
   <g id="line2d_34">
    <path d="M 146.993717 30.171354 
L 146.993717 26.304488 
" clip-path="url(#pf868b38d26)" style="fill: none; stroke: #3d3d3d; stroke-width: 1.5; stroke-linecap: square"/>
   </g>
   <g id="line2d_35">
    <path d="M 143.473728 47.652492 
L 150.513706 47.652492 
" clip-path="url(#pf868b38d26)" style="fill: none; stroke: #3d3d3d; stroke-width: 1.5; stroke-linecap: square"/>
   </g>
   <g id="line2d_36">
    <path d="M 143.473728 26.304488 
L 150.513706 26.304488 
" clip-path="url(#pf868b38d26)" style="fill: none; stroke: #3d3d3d; stroke-width: 1.5; stroke-linecap: square"/>
   </g>
   <g id="line2d_37"/>
   <g id="line2d_38">
    <path d="M 161.36102 45.513186 
L 161.36102 47.29965 
" clip-path="url(#pf868b38d26)" style="fill: none; stroke: #3d3d3d; stroke-width: 1.5; stroke-linecap: square"/>
   </g>
   <g id="line2d_39">
    <path d="M 161.36102 40.938538 
L 161.36102 40.938538 
" clip-path="url(#pf868b38d26)" style="fill: none; stroke: #3d3d3d; stroke-width: 1.5; stroke-linecap: square"/>
   </g>
   <g id="line2d_40">
    <path d="M 157.841031 47.29965 
L 164.881009 47.29965 
" clip-path="url(#pf868b38d26)" style="fill: none; stroke: #3d3d3d; stroke-width: 1.5; stroke-linecap: square"/>
   </g>
   <g id="line2d_41">
    <path d="M 157.841031 40.938538 
L 164.881009 40.938538 
" clip-path="url(#pf868b38d26)" style="fill: none; stroke: #3d3d3d; stroke-width: 1.5; stroke-linecap: square"/>
   </g>
   <g id="line2d_42">
    <defs>
     <path id="mdc700fe38b" d="M -0 3.535534 
L 2.12132 0 
L -0 -3.535534 
L -2.12132 -0 
z
" style="stroke: #3d3d3d; stroke-linejoin: miter"/>
    </defs>
    <g clip-path="url(#pf868b38d26)">
     <use xlink:href="#mdc700fe38b" x="161.36102" y="30.321102" style="fill: #3d3d3d; stroke: #3d3d3d; stroke-linejoin: miter"/>
    </g>
   </g>
   <g id="line2d_43">
    <path d="M 175.728322 48.456059 
L 175.728322 49.238751 
" clip-path="url(#pf868b38d26)" style="fill: none; stroke: #3d3d3d; stroke-width: 1.5; stroke-linecap: square"/>
   </g>
   <g id="line2d_44">
    <path d="M 175.728322 47.090038 
L 175.728322 47.090038 
" clip-path="url(#pf868b38d26)" style="fill: none; stroke: #3d3d3d; stroke-width: 1.5; stroke-linecap: square"/>
   </g>
   <g id="line2d_45">
    <path d="M 172.208333 49.238751 
L 179.248312 49.238751 
" clip-path="url(#pf868b38d26)" style="fill: none; stroke: #3d3d3d; stroke-width: 1.5; stroke-linecap: square"/>
   </g>
   <g id="line2d_46">
    <path d="M 172.208333 47.090038 
L 179.248312 47.090038 
" clip-path="url(#pf868b38d26)" style="fill: none; stroke: #3d3d3d; stroke-width: 1.5; stroke-linecap: square"/>
   </g>
   <g id="line2d_47">
    <g clip-path="url(#pf868b38d26)">
     <use xlink:href="#mdc700fe38b" x="175.728322" y="42.948913" style="fill: #3d3d3d; stroke: #3d3d3d; stroke-linejoin: miter"/>
    </g>
   </g>
   <g id="line2d_48">
    <path d="M 204.462928 105.996767 
L 204.462928 106.031742 
" clip-path="url(#pf868b38d26)" style="fill: none; stroke: #3d3d3d; stroke-width: 1.5; stroke-linecap: square"/>
   </g>
   <g id="line2d_49">
    <path d="M 204.462928 105.972481 
L 204.462928 105.95998 
" clip-path="url(#pf868b38d26)" style="fill: none; stroke: #3d3d3d; stroke-width: 1.5; stroke-linecap: square"/>
   </g>
   <g id="line2d_50">
    <path d="M 200.942938 106.031742 
L 207.982917 106.031742 
" clip-path="url(#pf868b38d26)" style="fill: none; stroke: #3d3d3d; stroke-width: 1.5; stroke-linecap: square"/>
   </g>
   <g id="line2d_51">
    <path d="M 200.942938 105.95998 
L 207.982917 105.95998 
" clip-path="url(#pf868b38d26)" style="fill: none; stroke: #3d3d3d; stroke-width: 1.5; stroke-linecap: square"/>
   </g>
   <g id="line2d_52"/>
   <g id="line2d_53">
    <path d="M 218.83023 105.845887 
L 218.83023 105.866735 
" clip-path="url(#pf868b38d26)" style="fill: none; stroke: #3d3d3d; stroke-width: 1.5; stroke-linecap: square"/>
   </g>
   <g id="line2d_54">
    <path d="M 218.83023 105.797314 
L 218.83023 105.78081 
" clip-path="url(#pf868b38d26)" style="fill: none; stroke: #3d3d3d; stroke-width: 1.5; stroke-linecap: square"/>
   </g>
   <g id="line2d_55">
    <path d="M 215.310241 105.866735 
L 222.350219 105.866735 
" clip-path="url(#pf868b38d26)" style="fill: none; stroke: #3d3d3d; stroke-width: 1.5; stroke-linecap: square"/>
   </g>
   <g id="line2d_56">
    <path d="M 215.310241 105.78081 
L 222.350219 105.78081 
" clip-path="url(#pf868b38d26)" style="fill: none; stroke: #3d3d3d; stroke-width: 1.5; stroke-linecap: square"/>
   </g>
   <g id="line2d_57"/>
   <g id="line2d_58">
    <path d="M 233.197533 105.730567 
L 233.197533 105.77533 
" clip-path="url(#pf868b38d26)" style="fill: none; stroke: #3d3d3d; stroke-width: 1.5; stroke-linecap: square"/>
   </g>
   <g id="line2d_59">
    <path d="M 233.197533 105.66477 
L 233.197533 105.635676 
" clip-path="url(#pf868b38d26)" style="fill: none; stroke: #3d3d3d; stroke-width: 1.5; stroke-linecap: square"/>
   </g>
   <g id="line2d_60">
    <path d="M 229.677544 105.77533 
L 236.717522 105.77533 
" clip-path="url(#pf868b38d26)" style="fill: none; stroke: #3d3d3d; stroke-width: 1.5; stroke-linecap: square"/>
   </g>
   <g id="line2d_61">
    <path d="M 229.677544 105.635676 
L 236.717522 105.635676 
" clip-path="url(#pf868b38d26)" style="fill: none; stroke: #3d3d3d; stroke-width: 1.5; stroke-linecap: square"/>
   </g>
   <g id="line2d_62"/>
   <g id="line2d_63">
    <path d="M 247.564836 105.397837 
L 247.564836 105.435879 
" clip-path="url(#pf868b38d26)" style="fill: none; stroke: #3d3d3d; stroke-width: 1.5; stroke-linecap: square"/>
   </g>
   <g id="line2d_64">
    <path d="M 247.564836 105.258737 
L 247.564836 105.225172 
" clip-path="url(#pf868b38d26)" style="fill: none; stroke: #3d3d3d; stroke-width: 1.5; stroke-linecap: square"/>
   </g>
   <g id="line2d_65">
    <path d="M 244.044846 105.435879 
L 251.084825 105.435879 
" clip-path="url(#pf868b38d26)" style="fill: none; stroke: #3d3d3d; stroke-width: 1.5; stroke-linecap: square"/>
   </g>
   <g id="line2d_66">
    <path d="M 244.044846 105.225172 
L 251.084825 105.225172 
" clip-path="url(#pf868b38d26)" style="fill: none; stroke: #3d3d3d; stroke-width: 1.5; stroke-linecap: square"/>
   </g>
   <g id="line2d_67"/>
   <g id="line2d_68">
    <path d="M 276.299441 47.428483 
L 276.299441 52.602851 
" clip-path="url(#pf868b38d26)" style="fill: none; stroke: #3d3d3d; stroke-width: 1.5; stroke-linecap: square"/>
   </g>
   <g id="line2d_69">
    <path d="M 276.299441 41.4713 
L 276.299441 39.408238 
" clip-path="url(#pf868b38d26)" style="fill: none; stroke: #3d3d3d; stroke-width: 1.5; stroke-linecap: square"/>
   </g>
   <g id="line2d_70">
    <path d="M 272.779452 52.602851 
L 279.81943 52.602851 
" clip-path="url(#pf868b38d26)" style="fill: none; stroke: #3d3d3d; stroke-width: 1.5; stroke-linecap: square"/>
   </g>
   <g id="line2d_71">
    <path d="M 272.779452 39.408238 
L 279.81943 39.408238 
" clip-path="url(#pf868b38d26)" style="fill: none; stroke: #3d3d3d; stroke-width: 1.5; stroke-linecap: square"/>
   </g>
   <g id="line2d_72"/>
   <g id="line2d_73">
    <path d="M 290.666743 41.815447 
L 290.666743 41.815447 
" clip-path="url(#pf868b38d26)" style="fill: none; stroke: #3d3d3d; stroke-width: 1.5; stroke-linecap: square"/>
   </g>
   <g id="line2d_74">
    <path d="M 290.666743 39.923895 
L 290.666743 39.923895 
" clip-path="url(#pf868b38d26)" style="fill: none; stroke: #3d3d3d; stroke-width: 1.5; stroke-linecap: square"/>
   </g>
   <g id="line2d_75">
    <path d="M 287.146754 41.815447 
L 294.186733 41.815447 
" clip-path="url(#pf868b38d26)" style="fill: none; stroke: #3d3d3d; stroke-width: 1.5; stroke-linecap: square"/>
   </g>
   <g id="line2d_76">
    <path d="M 287.146754 39.923895 
L 294.186733 39.923895 
" clip-path="url(#pf868b38d26)" style="fill: none; stroke: #3d3d3d; stroke-width: 1.5; stroke-linecap: square"/>
   </g>
   <g id="line2d_77">
    <g clip-path="url(#pf868b38d26)">
     <use xlink:href="#mdc700fe38b" x="290.666743" y="49.05187" style="fill: #3d3d3d; stroke: #3d3d3d; stroke-linejoin: miter"/>
     <use xlink:href="#mdc700fe38b" x="290.666743" y="33.690087" style="fill: #3d3d3d; stroke: #3d3d3d; stroke-linejoin: miter"/>
    </g>
   </g>
   <g id="line2d_78">
    <path d="M 305.034046 47.177725 
L 305.034046 52.198482 
" clip-path="url(#pf868b38d26)" style="fill: none; stroke: #3d3d3d; stroke-width: 1.5; stroke-linecap: square"/>
   </g>
   <g id="line2d_79">
    <path d="M 305.034046 42.65219 
L 305.034046 42.217396 
" clip-path="url(#pf868b38d26)" style="fill: none; stroke: #3d3d3d; stroke-width: 1.5; stroke-linecap: square"/>
   </g>
   <g id="line2d_80">
    <path d="M 301.514057 52.198482 
L 308.554035 52.198482 
" clip-path="url(#pf868b38d26)" style="fill: none; stroke: #3d3d3d; stroke-width: 1.5; stroke-linecap: square"/>
   </g>
   <g id="line2d_81">
    <path d="M 301.514057 42.217396 
L 308.554035 42.217396 
" clip-path="url(#pf868b38d26)" style="fill: none; stroke: #3d3d3d; stroke-width: 1.5; stroke-linecap: square"/>
   </g>
   <g id="line2d_82"/>
   <g id="line2d_83">
    <path d="M 319.401349 60.16629 
L 319.401349 62.385904 
" clip-path="url(#pf868b38d26)" style="fill: none; stroke: #3d3d3d; stroke-width: 1.5; stroke-linecap: square"/>
   </g>
   <g id="line2d_84">
    <path d="M 319.401349 57.032231 
L 319.401349 54.662394 
" clip-path="url(#pf868b38d26)" style="fill: none; stroke: #3d3d3d; stroke-width: 1.5; stroke-linecap: square"/>
   </g>
   <g id="line2d_85">
    <path d="M 315.88136 62.385904 
L 322.921338 62.385904 
" clip-path="url(#pf868b38d26)" style="fill: none; stroke: #3d3d3d; stroke-width: 1.5; stroke-linecap: square"/>
   </g>
   <g id="line2d_86">
    <path d="M 315.88136 54.662394 
L 322.921338 54.662394 
" clip-path="url(#pf868b38d26)" style="fill: none; stroke: #3d3d3d; stroke-width: 1.5; stroke-linecap: square"/>
   </g>
   <g id="line2d_87"/>
   <g id="line2d_88">
    <path d="M 204.462928 99.963174 
L 204.462928 98.209174 
L 247.564836 98.209174 
L 247.564836 99.963174 
" clip-path="url(#pf868b38d26)" style="fill: none; stroke: #333333; stroke-width: 1.5; stroke-linecap: square"/>
   </g>
   <g id="line2d_89">
    <path d="M 60.789901 97.299606 
L 60.789901 95.545606 
L 103.891809 95.545606 
L 103.891809 97.299606 
" clip-path="url(#pf868b38d26)" style="fill: none; stroke: #333333; stroke-width: 1.5; stroke-linecap: square"/>
   </g>
   <g id="line2d_90">
    <path d="M 53.749923 103.947493 
L 67.82988 103.947493 
" clip-path="url(#pf868b38d26)" style="fill: none; stroke: #3d3d3d; stroke-width: 1.5; stroke-linecap: square"/>
   </g>
   <g id="line2d_91">
    <path d="M 68.117226 103.615964 
L 82.197182 103.615964 
" clip-path="url(#pf868b38d26)" style="fill: none; stroke: #3d3d3d; stroke-width: 1.5; stroke-linecap: square"/>
   </g>
   <g id="line2d_92">
    <path d="M 82.484528 103.392887 
L 96.564485 103.392887 
" clip-path="url(#pf868b38d26)" style="fill: none; stroke: #3d3d3d; stroke-width: 1.5; stroke-linecap: square"/>
   </g>
   <g id="line2d_93">
    <path d="M 96.851831 102.668891 
L 110.931787 102.668891 
" clip-path="url(#pf868b38d26)" style="fill: none; stroke: #3d3d3d; stroke-width: 1.5; stroke-linecap: square"/>
   </g>
   <g id="line2d_94">
    <path d="M 125.586436 42.674158 
L 139.666393 42.674158 
" clip-path="url(#pf868b38d26)" style="fill: none; stroke: #3d3d3d; stroke-width: 1.5; stroke-linecap: square"/>
   </g>
   <g id="line2d_95">
    <path d="M 139.953739 31.785621 
L 154.033695 31.785621 
" clip-path="url(#pf868b38d26)" style="fill: none; stroke: #3d3d3d; stroke-width: 1.5; stroke-linecap: square"/>
   </g>
   <g id="line2d_96">
    <path d="M 154.321041 41.495425 
L 168.400998 41.495425 
" clip-path="url(#pf868b38d26)" style="fill: none; stroke: #3d3d3d; stroke-width: 1.5; stroke-linecap: square"/>
   </g>
   <g id="line2d_97">
    <path d="M 168.688344 48.375687 
L 182.768301 48.375687 
" clip-path="url(#pf868b38d26)" style="fill: none; stroke: #3d3d3d; stroke-width: 1.5; stroke-linecap: square"/>
   </g>
   <g id="line2d_98">
    <path d="M 197.422949 105.995224 
L 211.502906 105.995224 
" clip-path="url(#pf868b38d26)" style="fill: none; stroke: #3d3d3d; stroke-width: 1.5; stroke-linecap: square"/>
   </g>
   <g id="line2d_99">
    <path d="M 211.790252 105.801458 
L 225.870209 105.801458 
" clip-path="url(#pf868b38d26)" style="fill: none; stroke: #3d3d3d; stroke-width: 1.5; stroke-linecap: square"/>
   </g>
   <g id="line2d_100">
    <path d="M 226.157555 105.676404 
L 240.237511 105.676404 
" clip-path="url(#pf868b38d26)" style="fill: none; stroke: #3d3d3d; stroke-width: 1.5; stroke-linecap: square"/>
   </g>
   <g id="line2d_101">
    <path d="M 240.524857 105.282444 
L 254.604814 105.282444 
" clip-path="url(#pf868b38d26)" style="fill: none; stroke: #3d3d3d; stroke-width: 1.5; stroke-linecap: square"/>
   </g>
   <g id="line2d_102">
    <path d="M 269.259462 45.32166 
L 283.339419 45.32166 
" clip-path="url(#pf868b38d26)" style="fill: none; stroke: #3d3d3d; stroke-width: 1.5; stroke-linecap: square"/>
   </g>
   <g id="line2d_103">
    <path d="M 283.626765 40.618776 
L 297.706722 40.618776 
" clip-path="url(#pf868b38d26)" style="fill: none; stroke: #3d3d3d; stroke-width: 1.5; stroke-linecap: square"/>
   </g>
   <g id="line2d_104">
    <path d="M 297.994068 43.833311 
L 312.074024 43.833311 
" clip-path="url(#pf868b38d26)" style="fill: none; stroke: #3d3d3d; stroke-width: 1.5; stroke-linecap: square"/>
   </g>
   <g id="line2d_105">
    <path d="M 312.36137 57.438638 
L 326.441327 57.438638 
" clip-path="url(#pf868b38d26)" style="fill: none; stroke: #3d3d3d; stroke-width: 1.5; stroke-linecap: square"/>
   </g>
   <g id="patch_23">
    <path d="M 53.60625 110.018105 
L 53.60625 22.318125 
" style="fill: none; stroke: #000000; stroke-width: 0.8; stroke-linejoin: miter; stroke-linecap: square"/>
   </g>
   <g id="patch_24">
    <path d="M 326.585 110.018105 
L 326.585 22.318125 
" style="fill: none; stroke: #000000; stroke-width: 0.8; stroke-linejoin: miter; stroke-linecap: square"/>
   </g>
   <g id="patch_25">
    <path d="M 53.60625 110.018105 
L 326.585 110.018105 
" style="fill: none; stroke: #000000; stroke-width: 0.8; stroke-linejoin: miter; stroke-linecap: square"/>
   </g>
   <g id="patch_26">
    <path d="M 53.60625 22.318125 
L 326.585 22.318125 
" style="fill: none; stroke: #000000; stroke-width: 0.8; stroke-linejoin: miter; stroke-linecap: square"/>
   </g>
   <g id="PathCollection_1">
    <defs>
     <path id="C0_0_efd0920049" d="M 0 1.5 
C 0.397805 1.5 0.77937 1.341951 1.06066 1.06066 
C 1.341951 0.77937 1.5 0.397805 1.5 -0 
C 1.5 -0.397805 1.341951 -0.77937 1.06066 -1.06066 
C 0.77937 -1.341951 0.397805 -1.5 0 -1.5 
C -0.397805 -1.5 -0.77937 -1.341951 -1.06066 -1.06066 
C -1.341951 -0.77937 -1.5 -0.397805 -1.5 0 
C -1.5 0.397805 -1.341951 0.77937 -1.06066 1.06066 
C -0.77937 1.341951 -0.397805 1.5 0 1.5 
z
"/>
    </defs>
    <g clip-path="url(#pf868b38d26)">
     <use xlink:href="#C0_0_efd0920049" x="59.757522" y="104.153329" style="fill: #262626"/>
    </g>
    <g clip-path="url(#pf868b38d26)">
     <use xlink:href="#C0_0_efd0920049" x="60.18895" y="104.14281" style="fill: #262626"/>
    </g>
    <g clip-path="url(#pf868b38d26)">
     <use xlink:href="#C0_0_efd0920049" x="61.49957" y="103.924515" style="fill: #262626"/>
    </g>
    <g clip-path="url(#pf868b38d26)">
     <use xlink:href="#C0_0_efd0920049" x="61.889272" y="103.947493" style="fill: #262626"/>
    </g>
    <g clip-path="url(#pf868b38d26)">
     <use xlink:href="#C0_0_efd0920049" x="60.033183" y="103.910706" style="fill: #262626"/>
    </g>
   </g>
   <g id="PathCollection_2">
    <defs>
     <path id="C1_0_cce621e9a8" d="M 0 1.5 
C 0.397805 1.5 0.77937 1.341951 1.06066 1.06066 
C 1.341951 0.77937 1.5 0.397805 1.5 -0 
C 1.5 -0.397805 1.341951 -0.77937 1.06066 -1.06066 
C 0.77937 -1.341951 0.397805 -1.5 0 -1.5 
C -0.397805 -1.5 -0.77937 -1.341951 -1.06066 -1.06066 
C -1.341951 -0.77937 -1.5 -0.397805 -1.5 0 
C -1.5 0.397805 -1.341951 0.77937 -1.06066 1.06066 
C -0.77937 1.341951 -0.397805 1.5 0 1.5 
z
"/>
    </defs>
    <g clip-path="url(#pf868b38d26)">
     <use xlink:href="#C1_0_cce621e9a8" x="76.319565" y="103.584946" style="fill: #191919"/>
    </g>
    <g clip-path="url(#pf868b38d26)">
     <use xlink:href="#C1_0_cce621e9a8" x="73.832928" y="103.615964" style="fill: #191919"/>
    </g>
    <g clip-path="url(#pf868b38d26)">
     <use xlink:href="#C1_0_cce621e9a8" x="74.604013" y="103.715108" style="fill: #191919"/>
    </g>
    <g clip-path="url(#pf868b38d26)">
     <use xlink:href="#C1_0_cce621e9a8" x="73.368095" y="103.728215" style="fill: #191919"/>
    </g>
    <g clip-path="url(#pf868b38d26)">
     <use xlink:href="#C1_0_cce621e9a8" x="74.462705" y="103.567365" style="fill: #191919"/>
    </g>
   </g>
   <g id="PathCollection_3">
    <defs>
     <path id="C2_0_c9c9cc6cbb" d="M 0 1.5 
C 0.397805 1.5 0.77937 1.341951 1.06066 1.06066 
C 1.341951 0.77937 1.5 0.397805 1.5 -0 
C 1.5 -0.397805 1.341951 -0.77937 1.06066 -1.06066 
C 0.77937 -1.341951 0.397805 -1.5 0 -1.5 
C -0.397805 -1.5 -0.77937 -1.341951 -1.06066 -1.06066 
C -1.341951 -0.77937 -1.5 -0.397805 -1.5 0 
C -1.5 0.397805 -1.341951 0.77937 -1.06066 1.06066 
C -0.77937 1.341951 -0.397805 1.5 0 1.5 
z
"/>
    </defs>
    <g clip-path="url(#pf868b38d26)">
     <use xlink:href="#C2_0_c9c9cc6cbb" x="91.251938" y="103.529135" style="fill: #0d0d0d"/>
    </g>
    <g clip-path="url(#pf868b38d26)">
     <use xlink:href="#C2_0_c9c9cc6cbb" x="89.528948" y="103.471286" style="fill: #0d0d0d"/>
    </g>
    <g clip-path="url(#pf868b38d26)">
     <use xlink:href="#C2_0_c9c9cc6cbb" x="88.296343" y="103.338759" style="fill: #0d0d0d"/>
    </g>
    <g clip-path="url(#pf868b38d26)">
     <use xlink:href="#C2_0_c9c9cc6cbb" x="88.655683" y="103.392887" style="fill: #0d0d0d"/>
    </g>
    <g clip-path="url(#pf868b38d26)">
     <use xlink:href="#C2_0_c9c9cc6cbb" x="91.287921" y="103.355054" style="fill: #0d0d0d"/>
    </g>
   </g>
   <g id="PathCollection_4">
    <defs>
     <path id="C3_0_66fe856e42" d="M 0 1.5 
C 0.397805 1.5 0.77937 1.341951 1.06066 1.06066 
C 1.341951 0.77937 1.5 0.397805 1.5 -0 
C 1.5 -0.397805 1.341951 -0.77937 1.06066 -1.06066 
C 0.77937 -1.341951 0.397805 -1.5 0 -1.5 
C -0.397805 -1.5 -0.77937 -1.341951 -1.06066 -1.06066 
C -1.341951 -0.77937 -1.5 -0.397805 -1.5 0 
C -1.5 0.397805 -1.341951 0.77937 -1.06066 1.06066 
C -0.77937 1.341951 -0.397805 1.5 0 1.5 
z
"/>
    </defs>
    <g clip-path="url(#pf868b38d26)">
     <use xlink:href="#C3_0_66fe856e42" x="104.512787" y="102.749525"/>
    </g>
    <g clip-path="url(#pf868b38d26)">
     <use xlink:href="#C3_0_66fe856e42" x="103.1084" y="102.813935"/>
    </g>
    <g clip-path="url(#pf868b38d26)">
     <use xlink:href="#C3_0_66fe856e42" x="105.208698" y="102.668891"/>
    </g>
    <g clip-path="url(#pf868b38d26)">
     <use xlink:href="#C3_0_66fe856e42" x="104.869244" y="102.583131"/>
    </g>
    <g clip-path="url(#pf868b38d26)">
     <use xlink:href="#C3_0_66fe856e42" x="103.627116" y="102.561604"/>
    </g>
   </g>
   <g id="PathCollection_5">
    <defs>
     <path id="C4_0_bb1f1980c0" d="M 0 1.5 
C 0.397805 1.5 0.77937 1.341951 1.06066 1.06066 
C 1.341951 0.77937 1.5 0.397805 1.5 -0 
C 1.5 -0.397805 1.341951 -0.77937 1.06066 -1.06066 
C 0.77937 -1.341951 0.397805 -1.5 0 -1.5 
C -0.397805 -1.5 -0.77937 -1.341951 -1.06066 -1.06066 
C -1.341951 -0.77937 -1.5 -0.397805 -1.5 0 
C -1.5 0.397805 -1.341951 0.77937 -1.06066 1.06066 
C -0.77937 1.341951 -0.397805 1.5 0 1.5 
z
"/>
    </defs>
    <g clip-path="url(#pf868b38d26)">
     <use xlink:href="#C4_0_bb1f1980c0" x="131.471638" y="45.005576" style="fill: #262626"/>
    </g>
    <g clip-path="url(#pf868b38d26)">
     <use xlink:href="#C4_0_bb1f1980c0" x="132.201436" y="43.719205" style="fill: #262626"/>
    </g>
    <g clip-path="url(#pf868b38d26)">
     <use xlink:href="#C4_0_bb1f1980c0" x="132.006343" y="39.710913" style="fill: #262626"/>
    </g>
    <g clip-path="url(#pf868b38d26)">
     <use xlink:href="#C4_0_bb1f1980c0" x="131.589493" y="42.674158" style="fill: #262626"/>
    </g>
    <g clip-path="url(#pf868b38d26)">
     <use xlink:href="#C4_0_bb1f1980c0" x="131.449153" y="35.190152" style="fill: #262626"/>
    </g>
   </g>
   <g id="PathCollection_6">
    <defs>
     <path id="C5_0_d5d3aa14df" d="M 0 1.5 
C 0.397805 1.5 0.77937 1.341951 1.06066 1.06066 
C 1.341951 0.77937 1.5 0.397805 1.5 -0 
C 1.5 -0.397805 1.341951 -0.77937 1.06066 -1.06066 
C 0.77937 -1.341951 0.397805 -1.5 0 -1.5 
C -0.397805 -1.5 -0.77937 -1.341951 -1.06066 -1.06066 
C -1.341951 -0.77937 -1.5 -0.397805 -1.5 0 
C -1.5 0.397805 -1.341951 0.77937 -1.06066 1.06066 
C -0.77937 1.341951 -0.397805 1.5 0 1.5 
z
"/>
    </defs>
    <g clip-path="url(#pf868b38d26)">
     <use xlink:href="#C5_0_d5d3aa14df" x="145.649218" y="30.171354" style="fill: #191919"/>
    </g>
    <g clip-path="url(#pf868b38d26)">
     <use xlink:href="#C5_0_d5d3aa14df" x="146.627453" y="47.652492" style="fill: #191919"/>
    </g>
    <g clip-path="url(#pf868b38d26)">
     <use xlink:href="#C5_0_d5d3aa14df" x="145.936673" y="39.902163" style="fill: #191919"/>
    </g>
    <g clip-path="url(#pf868b38d26)">
     <use xlink:href="#C5_0_d5d3aa14df" x="148.30216" y="31.785621" style="fill: #191919"/>
    </g>
    <g clip-path="url(#pf868b38d26)">
     <use xlink:href="#C5_0_d5d3aa14df" x="148.533721" y="26.304488" style="fill: #191919"/>
    </g>
   </g>
   <g id="PathCollection_7">
    <defs>
     <path id="C6_0_0c380e1a73" d="M 0 1.5 
C 0.397805 1.5 0.77937 1.341951 1.06066 1.06066 
C 1.341951 0.77937 1.5 0.397805 1.5 -0 
C 1.5 -0.397805 1.341951 -0.77937 1.06066 -1.06066 
C 0.77937 -1.341951 0.397805 -1.5 0 -1.5 
C -0.397805 -1.5 -0.77937 -1.341951 -1.06066 -1.06066 
C -1.341951 -0.77937 -1.5 -0.397805 -1.5 0 
C -1.5 0.397805 -1.341951 0.77937 -1.06066 1.06066 
C -0.77937 1.341951 -0.397805 1.5 0 1.5 
z
"/>
    </defs>
    <g clip-path="url(#pf868b38d26)">
     <use xlink:href="#C6_0_0c380e1a73" x="161.928779" y="45.513186" style="fill: #0d0d0d"/>
    </g>
    <g clip-path="url(#pf868b38d26)">
     <use xlink:href="#C6_0_0c380e1a73" x="159.820837" y="41.495425" style="fill: #0d0d0d"/>
    </g>
    <g clip-path="url(#pf868b38d26)">
     <use xlink:href="#C6_0_0c380e1a73" x="160.616488" y="40.938538" style="fill: #0d0d0d"/>
    </g>
    <g clip-path="url(#pf868b38d26)">
     <use xlink:href="#C6_0_0c380e1a73" x="162.261969" y="30.321102" style="fill: #0d0d0d"/>
    </g>
    <g clip-path="url(#pf868b38d26)">
     <use xlink:href="#C6_0_0c380e1a73" x="161.081292" y="47.29965" style="fill: #0d0d0d"/>
    </g>
   </g>
   <g id="PathCollection_8">
    <defs>
     <path id="C7_0_87e4d83fea" d="M 0 1.5 
C 0.397805 1.5 0.77937 1.341951 1.06066 1.06066 
C 1.341951 0.77937 1.5 0.397805 1.5 -0 
C 1.5 -0.397805 1.341951 -0.77937 1.06066 -1.06066 
C 0.77937 -1.341951 0.397805 -1.5 0 -1.5 
C -0.397805 -1.5 -0.77937 -1.341951 -1.06066 -1.06066 
C -1.341951 -0.77937 -1.5 -0.397805 -1.5 0 
C -1.5 0.397805 -1.341951 0.77937 -1.06066 1.06066 
C -0.77937 1.341951 -0.397805 1.5 0 1.5 
z
"/>
    </defs>
    <g clip-path="url(#pf868b38d26)">
     <use xlink:href="#C7_0_87e4d83fea" x="175.926871" y="48.375687"/>
    </g>
    <g clip-path="url(#pf868b38d26)">
     <use xlink:href="#C7_0_87e4d83fea" x="174.514233" y="48.456059"/>
    </g>
    <g clip-path="url(#pf868b38d26)">
     <use xlink:href="#C7_0_87e4d83fea" x="174.328946" y="49.238751"/>
    </g>
    <g clip-path="url(#pf868b38d26)">
     <use xlink:href="#C7_0_87e4d83fea" x="177.171219" y="47.090038"/>
    </g>
    <g clip-path="url(#pf868b38d26)">
     <use xlink:href="#C7_0_87e4d83fea" x="174.931475" y="42.948913"/>
    </g>
   </g>
   <g id="PathCollection_9">
    <defs>
     <path id="C8_0_a0de9249f4" d="M 0 1.5 
C 0.397805 1.5 0.77937 1.341951 1.06066 1.06066 
C 1.341951 0.77937 1.5 0.397805 1.5 -0 
C 1.5 -0.397805 1.341951 -0.77937 1.06066 -1.06066 
C 0.77937 -1.341951 0.397805 -1.5 0 -1.5 
C -0.397805 -1.5 -0.77937 -1.341951 -1.06066 -1.06066 
C -1.341951 -0.77937 -1.5 -0.397805 -1.5 0 
C -1.5 0.397805 -1.341951 0.77937 -1.06066 1.06066 
C -0.77937 1.341951 -0.397805 1.5 0 1.5 
z
"/>
    </defs>
    <g clip-path="url(#pf868b38d26)">
     <use xlink:href="#C8_0_a0de9249f4" x="204.684245" y="105.95998" style="fill: #262626"/>
    </g>
    <g clip-path="url(#pf868b38d26)">
     <use xlink:href="#C8_0_a0de9249f4" x="203.759468" y="105.972481" style="fill: #262626"/>
    </g>
    <g clip-path="url(#pf868b38d26)">
     <use xlink:href="#C8_0_a0de9249f4" x="204.669532" y="105.995224" style="fill: #262626"/>
    </g>
    <g clip-path="url(#pf868b38d26)">
     <use xlink:href="#C8_0_a0de9249f4" x="205.758194" y="105.996767" style="fill: #262626"/>
    </g>
    <g clip-path="url(#pf868b38d26)">
     <use xlink:href="#C8_0_a0de9249f4" x="205.324058" y="106.031742" style="fill: #262626"/>
    </g>
   </g>
   <g id="PathCollection_10">
    <defs>
     <path id="C9_0_a2d01e0eff" d="M 0 1.5 
C 0.397805 1.5 0.77937 1.341951 1.06066 1.06066 
C 1.341951 0.77937 1.5 0.397805 1.5 -0 
C 1.5 -0.397805 1.341951 -0.77937 1.06066 -1.06066 
C 0.77937 -1.341951 0.397805 -1.5 0 -1.5 
C -0.397805 -1.5 -0.77937 -1.341951 -1.06066 -1.06066 
C -1.341951 -0.77937 -1.5 -0.397805 -1.5 0 
C -1.5 0.397805 -1.341951 0.77937 -1.06066 1.06066 
C -0.77937 1.341951 -0.397805 1.5 0 1.5 
z
"/>
    </defs>
    <g clip-path="url(#pf868b38d26)">
     <use xlink:href="#C9_0_a2d01e0eff" x="220.231955" y="105.797314" style="fill: #191919"/>
    </g>
    <g clip-path="url(#pf868b38d26)">
     <use xlink:href="#C9_0_a2d01e0eff" x="219.566956" y="105.866735" style="fill: #191919"/>
    </g>
    <g clip-path="url(#pf868b38d26)">
     <use xlink:href="#C9_0_a2d01e0eff" x="219.758883" y="105.78081" style="fill: #191919"/>
    </g>
    <g clip-path="url(#pf868b38d26)">
     <use xlink:href="#C9_0_a2d01e0eff" x="219.165591" y="105.845887" style="fill: #191919"/>
    </g>
    <g clip-path="url(#pf868b38d26)">
     <use xlink:href="#C9_0_a2d01e0eff" x="219.366485" y="105.801458" style="fill: #191919"/>
    </g>
   </g>
   <g id="PathCollection_11">
    <defs>
     <path id="Ca_0_db295f098a" d="M 0 1.5 
C 0.397805 1.5 0.77937 1.341951 1.06066 1.06066 
C 1.341951 0.77937 1.5 0.397805 1.5 -0 
C 1.5 -0.397805 1.341951 -0.77937 1.06066 -1.06066 
C 0.77937 -1.341951 0.397805 -1.5 0 -1.5 
C -0.397805 -1.5 -0.77937 -1.341951 -1.06066 -1.06066 
C -1.341951 -0.77937 -1.5 -0.397805 -1.5 0 
C -1.5 0.397805 -1.341951 0.77937 -1.06066 1.06066 
C -0.77937 1.341951 -0.397805 1.5 0 1.5 
z
"/>
    </defs>
    <g clip-path="url(#pf868b38d26)">
     <use xlink:href="#Ca_0_db295f098a" x="232.634448" y="105.77533" style="fill: #0d0d0d"/>
    </g>
    <g clip-path="url(#pf868b38d26)">
     <use xlink:href="#Ca_0_db295f098a" x="232.249066" y="105.730567" style="fill: #0d0d0d"/>
    </g>
    <g clip-path="url(#pf868b38d26)">
     <use xlink:href="#Ca_0_db295f098a" x="232.220505" y="105.635676" style="fill: #0d0d0d"/>
    </g>
    <g clip-path="url(#pf868b38d26)">
     <use xlink:href="#Ca_0_db295f098a" x="232.810976" y="105.66477" style="fill: #0d0d0d"/>
    </g>
    <g clip-path="url(#pf868b38d26)">
     <use xlink:href="#Ca_0_db295f098a" x="233.856256" y="105.676404" style="fill: #0d0d0d"/>
    </g>
   </g>
   <g id="PathCollection_12">
    <defs>
     <path id="Cb_0_c5eb721ae4" d="M 0 1.5 
C 0.397805 1.5 0.77937 1.341951 1.06066 1.06066 
C 1.341951 0.77937 1.5 0.397805 1.5 -0 
C 1.5 -0.397805 1.341951 -0.77937 1.06066 -1.06066 
C 0.77937 -1.341951 0.397805 -1.5 0 -1.5 
C -0.397805 -1.5 -0.77937 -1.341951 -1.06066 -1.06066 
C -1.341951 -0.77937 -1.5 -0.397805 -1.5 0 
C -1.5 0.397805 -1.341951 0.77937 -1.06066 1.06066 
C -0.77937 1.341951 -0.397805 1.5 0 1.5 
z
"/>
    </defs>
    <g clip-path="url(#pf868b38d26)">
     <use xlink:href="#Cb_0_c5eb721ae4" x="247.824248" y="105.435879"/>
    </g>
    <g clip-path="url(#pf868b38d26)">
     <use xlink:href="#Cb_0_c5eb721ae4" x="245.771107" y="105.397837"/>
    </g>
    <g clip-path="url(#pf868b38d26)">
     <use xlink:href="#Cb_0_c5eb721ae4" x="246.379715" y="105.225172"/>
    </g>
    <g clip-path="url(#pf868b38d26)">
     <use xlink:href="#Cb_0_c5eb721ae4" x="247.562878" y="105.258737"/>
    </g>
    <g clip-path="url(#pf868b38d26)">
     <use xlink:href="#Cb_0_c5eb721ae4" x="246.598205" y="105.282444"/>
    </g>
   </g>
   <g id="PathCollection_13">
    <defs>
     <path id="Cc_0_03762d129f" d="M 0 1.5 
C 0.397805 1.5 0.77937 1.341951 1.06066 1.06066 
C 1.341951 0.77937 1.5 0.397805 1.5 -0 
C 1.5 -0.397805 1.341951 -0.77937 1.06066 -1.06066 
C 0.77937 -1.341951 0.397805 -1.5 0 -1.5 
C -0.397805 -1.5 -0.77937 -1.341951 -1.06066 -1.06066 
C -1.341951 -0.77937 -1.5 -0.397805 -1.5 0 
C -1.5 0.397805 -1.341951 0.77937 -1.06066 1.06066 
C -0.77937 1.341951 -0.397805 1.5 0 1.5 
z
"/>
    </defs>
    <g clip-path="url(#pf868b38d26)">
     <use xlink:href="#Cc_0_03762d129f" x="275.23272" y="52.602851" style="fill: #262626"/>
    </g>
    <g clip-path="url(#pf868b38d26)">
     <use xlink:href="#Cc_0_03762d129f" x="277.484125" y="47.428483" style="fill: #262626"/>
    </g>
    <g clip-path="url(#pf868b38d26)">
     <use xlink:href="#Cc_0_03762d129f" x="277.437673" y="39.408238" style="fill: #262626"/>
    </g>
    <g clip-path="url(#pf868b38d26)">
     <use xlink:href="#Cc_0_03762d129f" x="276.758573" y="41.4713" style="fill: #262626"/>
    </g>
    <g clip-path="url(#pf868b38d26)">
     <use xlink:href="#Cc_0_03762d129f" x="276.518224" y="45.32166" style="fill: #262626"/>
    </g>
   </g>
   <g id="PathCollection_14">
    <defs>
     <path id="Cd_0_4b40b9f057" d="M 0 1.5 
C 0.397805 1.5 0.77937 1.341951 1.06066 1.06066 
C 1.341951 0.77937 1.5 0.397805 1.5 -0 
C 1.5 -0.397805 1.341951 -0.77937 1.06066 -1.06066 
C 0.77937 -1.341951 0.397805 -1.5 0 -1.5 
C -0.397805 -1.5 -0.77937 -1.341951 -1.06066 -1.06066 
C -1.341951 -0.77937 -1.5 -0.397805 -1.5 0 
C -1.5 0.397805 -1.341951 0.77937 -1.06066 1.06066 
C -0.77937 1.341951 -0.397805 1.5 0 1.5 
z
"/>
    </defs>
    <g clip-path="url(#pf868b38d26)">
     <use xlink:href="#Cd_0_4b40b9f057" x="291.52196" y="49.05187" style="fill: #191919"/>
    </g>
    <g clip-path="url(#pf868b38d26)">
     <use xlink:href="#Cd_0_4b40b9f057" x="292.461501" y="39.923895" style="fill: #191919"/>
    </g>
    <g clip-path="url(#pf868b38d26)">
     <use xlink:href="#Cd_0_4b40b9f057" x="291.656087" y="40.618776" style="fill: #191919"/>
    </g>
    <g clip-path="url(#pf868b38d26)">
     <use xlink:href="#Cd_0_4b40b9f057" x="291.889906" y="41.815447" style="fill: #191919"/>
    </g>
    <g clip-path="url(#pf868b38d26)">
     <use xlink:href="#Cd_0_4b40b9f057" x="290.441239" y="33.690087" style="fill: #191919"/>
    </g>
   </g>
   <g id="PathCollection_15">
    <defs>
     <path id="Ce_0_a118e2942f" d="M 0 1.5 
C 0.397805 1.5 0.77937 1.341951 1.06066 1.06066 
C 1.341951 0.77937 1.5 0.397805 1.5 -0 
C 1.5 -0.397805 1.341951 -0.77937 1.06066 -1.06066 
C 0.77937 -1.341951 0.397805 -1.5 0 -1.5 
C -0.397805 -1.5 -0.77937 -1.341951 -1.06066 -1.06066 
C -1.341951 -0.77937 -1.5 -0.397805 -1.5 0 
C -1.5 0.397805 -1.341951 0.77937 -1.06066 1.06066 
C -0.77937 1.341951 -0.397805 1.5 0 1.5 
z
"/>
    </defs>
    <g clip-path="url(#pf868b38d26)">
     <use xlink:href="#Ce_0_a118e2942f" x="304.470409" y="47.177725" style="fill: #0d0d0d"/>
    </g>
    <g clip-path="url(#pf868b38d26)">
     <use xlink:href="#Ce_0_a118e2942f" x="303.292452" y="42.65219" style="fill: #0d0d0d"/>
    </g>
    <g clip-path="url(#pf868b38d26)">
     <use xlink:href="#Ce_0_a118e2942f" x="304.821071" y="52.198482" style="fill: #0d0d0d"/>
    </g>
    <g clip-path="url(#pf868b38d26)">
     <use xlink:href="#Ce_0_a118e2942f" x="306.352378" y="43.833311" style="fill: #0d0d0d"/>
    </g>
    <g clip-path="url(#pf868b38d26)">
     <use xlink:href="#Ce_0_a118e2942f" x="305.426744" y="42.217396" style="fill: #0d0d0d"/>
    </g>
   </g>
   <g id="PathCollection_16">
    <defs>
     <path id="Cf_0_27fda87bc7" d="M 0 1.5 
C 0.397805 1.5 0.77937 1.341951 1.06066 1.06066 
C 1.341951 0.77937 1.5 0.397805 1.5 -0 
C 1.5 -0.397805 1.341951 -0.77937 1.06066 -1.06066 
C 0.77937 -1.341951 0.397805 -1.5 0 -1.5 
C -0.397805 -1.5 -0.77937 -1.341951 -1.06066 -1.06066 
C -1.341951 -0.77937 -1.5 -0.397805 -1.5 0 
C -1.5 0.397805 -1.341951 0.77937 -1.06066 1.06066 
C -0.77937 1.341951 -0.397805 1.5 0 1.5 
z
"/>
    </defs>
    <g clip-path="url(#pf868b38d26)">
     <use xlink:href="#Cf_0_27fda87bc7" x="317.883457" y="62.385904"/>
    </g>
    <g clip-path="url(#pf868b38d26)">
     <use xlink:href="#Cf_0_27fda87bc7" x="320.50259" y="57.438638"/>
    </g>
    <g clip-path="url(#pf868b38d26)">
     <use xlink:href="#Cf_0_27fda87bc7" x="320.231525" y="57.032231"/>
    </g>
    <g clip-path="url(#pf868b38d26)">
     <use xlink:href="#Cf_0_27fda87bc7" x="319.106202" y="60.16629"/>
    </g>
    <g clip-path="url(#pf868b38d26)">
     <use xlink:href="#Cf_0_27fda87bc7" x="319.216917" y="54.662394"/>
    </g>
   </g>
   <g id="text_10">
    <!-- * -->
    <g transform="translate(223.513882 95.129486) scale(0.1 -0.1)">
     <defs>
      <path id="DejaVuSans-2a" d="M 3009 3897 
L 1888 3291 
L 3009 2681 
L 2828 2375 
L 1778 3009 
L 1778 1831 
L 1422 1831 
L 1422 3009 
L 372 2375 
L 191 2681 
L 1313 3291 
L 191 3897 
L 372 4206 
L 1422 3572 
L 1422 4750 
L 1778 4750 
L 1778 3572 
L 2828 4206 
L 3009 3897 
z
" transform="scale(0.015625)"/>
     </defs>
     <use xlink:href="#DejaVuSans-2a"/>
    </g>
   </g>
   <g id="text_11">
    <!-- * -->
    <g transform="translate(79.840855 92.465919) scale(0.1 -0.1)">
     <use xlink:href="#DejaVuSans-2a"/>
    </g>
   </g>
   <g id="text_12">
    <!-- scene -->
    <g transform="translate(172.484687 16.318125) scale(0.12 -0.12)">
     <defs>
      <path id="DejaVuSans-63" d="M 3122 3366 
L 3122 2828 
Q 2878 2963 2633 3030 
Q 2388 3097 2138 3097 
Q 1578 3097 1268 2742 
Q 959 2388 959 1747 
Q 959 1106 1268 751 
Q 1578 397 2138 397 
Q 2388 397 2633 464 
Q 2878 531 3122 666 
L 3122 134 
Q 2881 22 2623 -34 
Q 2366 -91 2075 -91 
Q 1284 -91 818 406 
Q 353 903 353 1747 
Q 353 2603 823 3093 
Q 1294 3584 2113 3584 
Q 2378 3584 2631 3529 
Q 2884 3475 3122 3366 
z
" transform="scale(0.015625)"/>
     </defs>
     <use xlink:href="#DejaVuSans-73"/>
     <use xlink:href="#DejaVuSans-63" x="52.099609"/>
     <use xlink:href="#DejaVuSans-65" x="107.080078"/>
     <use xlink:href="#DejaVuSans-6e" x="168.603516"/>
     <use xlink:href="#DejaVuSans-65" x="231.982422"/>
    </g>
   </g>
   <g id="legend_1">
    <g id="patch_27">
     <path d="M 333.585 105.018105 
L 401.011562 105.018105 
Q 403.011562 105.018105 403.011562 103.018105 
L 403.011562 45.305605 
Q 403.011562 43.305605 401.011562 43.305605 
L 333.585 43.305605 
Q 331.585 43.305605 331.585 45.305605 
L 331.585 103.018105 
Q 331.585 105.018105 333.585 105.018105 
z
" style="fill: #ffffff; opacity: 0.8; stroke: #cccccc; stroke-linejoin: miter"/>
    </g>
    <g id="patch_28">
     <path d="M 335.585 54.904043 
L 355.585 54.904043 
L 355.585 47.904043 
L 335.585 47.904043 
z
" style="fill: #3274a1; stroke: #3d3d3d; stroke-width: 0.75; stroke-linejoin: miter"/>
    </g>
    <g id="text_13">
     <!-- none -->
     <g transform="translate(363.585 54.904043) scale(0.1 -0.1)">
      <use xlink:href="#DejaVuSans-6e"/>
      <use xlink:href="#DejaVuSans-6f" x="63.378906"/>
      <use xlink:href="#DejaVuSans-6e" x="124.560547"/>
      <use xlink:href="#DejaVuSans-65" x="187.939453"/>
     </g>
    </g>
    <g id="patch_29">
     <path d="M 335.585 69.582168 
L 355.585 69.582168 
L 355.585 62.582168 
L 335.585 62.582168 
z
" style="fill: #e1812c; stroke: #3d3d3d; stroke-width: 0.75; stroke-linejoin: miter"/>
    </g>
    <g id="text_14">
     <!-- drop30 -->
     <g transform="translate(363.585 69.582168) scale(0.1 -0.1)">
      <defs>
       <path id="DejaVuSans-33" d="M 2597 2516 
Q 3050 2419 3304 2112 
Q 3559 1806 3559 1356 
Q 3559 666 3084 287 
Q 2609 -91 1734 -91 
Q 1441 -91 1130 -33 
Q 819 25 488 141 
L 488 750 
Q 750 597 1062 519 
Q 1375 441 1716 441 
Q 2309 441 2620 675 
Q 2931 909 2931 1356 
Q 2931 1769 2642 2001 
Q 2353 2234 1838 2234 
L 1294 2234 
L 1294 2753 
L 1863 2753 
Q 2328 2753 2575 2939 
Q 2822 3125 2822 3475 
Q 2822 3834 2567 4026 
Q 2313 4219 1838 4219 
Q 1578 4219 1281 4162 
Q 984 4106 628 3988 
L 628 4550 
Q 988 4650 1302 4700 
Q 1616 4750 1894 4750 
Q 2613 4750 3031 4423 
Q 3450 4097 3450 3541 
Q 3450 3153 3228 2886 
Q 3006 2619 2597 2516 
z
" transform="scale(0.015625)"/>
      </defs>
      <use xlink:href="#DejaVuSans-64"/>
      <use xlink:href="#DejaVuSans-72" x="63.476562"/>
      <use xlink:href="#DejaVuSans-6f" x="102.339844"/>
      <use xlink:href="#DejaVuSans-70" x="163.521484"/>
      <use xlink:href="#DejaVuSans-33" x="226.998047"/>
      <use xlink:href="#DejaVuSans-30" x="290.621094"/>
     </g>
    </g>
    <g id="patch_30">
     <path d="M 335.585 84.260293 
L 355.585 84.260293 
L 355.585 77.260293 
L 335.585 77.260293 
z
" style="fill: #3a923a; stroke: #3d3d3d; stroke-width: 0.75; stroke-linejoin: miter"/>
    </g>
    <g id="text_15">
     <!-- drop50 -->
     <g transform="translate(363.585 84.260293) scale(0.1 -0.1)">
      <use xlink:href="#DejaVuSans-64"/>
      <use xlink:href="#DejaVuSans-72" x="63.476562"/>
      <use xlink:href="#DejaVuSans-6f" x="102.339844"/>
      <use xlink:href="#DejaVuSans-70" x="163.521484"/>
      <use xlink:href="#DejaVuSans-35" x="226.998047"/>
      <use xlink:href="#DejaVuSans-30" x="290.621094"/>
     </g>
    </g>
    <g id="patch_31">
     <path d="M 335.585 98.938418 
L 355.585 98.938418 
L 355.585 91.938418 
L 335.585 91.938418 
z
" style="fill: #c03d3e; stroke: #3d3d3d; stroke-width: 0.75; stroke-linejoin: miter"/>
    </g>
    <g id="text_16">
     <!-- drop80 -->
     <g transform="translate(363.585 98.938418) scale(0.1 -0.1)">
      <defs>
       <path id="DejaVuSans-38" d="M 2034 2216 
Q 1584 2216 1326 1975 
Q 1069 1734 1069 1313 
Q 1069 891 1326 650 
Q 1584 409 2034 409 
Q 2484 409 2743 651 
Q 3003 894 3003 1313 
Q 3003 1734 2745 1975 
Q 2488 2216 2034 2216 
z
M 1403 2484 
Q 997 2584 770 2862 
Q 544 3141 544 3541 
Q 544 4100 942 4425 
Q 1341 4750 2034 4750 
Q 2731 4750 3128 4425 
Q 3525 4100 3525 3541 
Q 3525 3141 3298 2862 
Q 3072 2584 2669 2484 
Q 3125 2378 3379 2068 
Q 3634 1759 3634 1313 
Q 3634 634 3220 271 
Q 2806 -91 2034 -91 
Q 1263 -91 848 271 
Q 434 634 434 1313 
Q 434 1759 690 2068 
Q 947 2378 1403 2484 
z
M 1172 3481 
Q 1172 3119 1398 2916 
Q 1625 2713 2034 2713 
Q 2441 2713 2670 2916 
Q 2900 3119 2900 3481 
Q 2900 3844 2670 4047 
Q 2441 4250 2034 4250 
Q 1625 4250 1398 4047 
Q 1172 3844 1172 3481 
z
" transform="scale(0.015625)"/>
      </defs>
      <use xlink:href="#DejaVuSans-64"/>
      <use xlink:href="#DejaVuSans-72" x="63.476562"/>
      <use xlink:href="#DejaVuSans-6f" x="102.339844"/>
      <use xlink:href="#DejaVuSans-70" x="163.521484"/>
      <use xlink:href="#DejaVuSans-38" x="226.998047"/>
      <use xlink:href="#DejaVuSans-30" x="290.621094"/>
     </g>
    </g>
   </g>
  </g>
 </g>
 <defs>
  <clipPath id="pf868b38d26">
   <rect x="53.60625" y="22.318125" width="272.97875" height="87.69998"/>
  </clipPath>
 </defs>
</svg>
