<?xml version="1.0" encoding="utf-8" standalone="no"?>
<!DOCTYPE svg PUBLIC "-//W3C//DTD SVG 1.1//EN"
  "http://www.w3.org/Graphics/SVG/1.1/DTD/svg11.dtd">
<svg xmlns:xlink="http://www.w3.org/1999/xlink" width="410.086562pt" height="207.302882pt" viewBox="0 0 410.086562 207.302882" xmlns="http://www.w3.org/2000/svg" version="1.1">
 <metadata>
  <rdf:RDF xmlns:dc="http://purl.org/dc/elements/1.1/" xmlns:cc="http://creativecommons.org/ns#" xmlns:rdf="http://www.w3.org/1999/02/22-rdf-syntax-ns#">
   <cc:Work>
    <dc:type rdf:resource="http://purl.org/dc/dcmitype/StillImage"/>
    <dc:date>2023-06-23T11:47:18.732780</dc:date>
    <dc:format>image/svg+xml</dc:format>
    <dc:creator>
     <cc:Agent>
      <dc:title>Matplotlib v3.7.1, https://matplotlib.org/</dc:title>
     </cc:Agent>
    </dc:creator>
   </cc:Work>
  </rdf:RDF>
 </metadata>
 <defs>
  <style type="text/css">*{stroke-linejoin: round; stroke-linecap: butt}</style>
 </defs>
 <g id="figure_1">
  <g id="patch_1">
   <path d="M 0 207.302882 
L 410.086562 207.302882 
L 410.086562 0 
L 0 0 
L 0 207.302882 
z
" style="fill: none"/>
  </g>
  <g id="axes_1">
   <g id="patch_2">
    <path d="M 40.88125 110.018105 
L 326.46 110.018105 
L 326.46 22.318125 
L 40.88125 22.318125 
L 40.88125 110.018105 
z
" style="fill: none"/>
   </g>
   <g id="patch_3">
    <path d="M 41.031555 106.203879 
L 55.761406 106.203879 
L 55.761406 106.136233 
L 41.031555 106.136233 
L 41.031555 106.203879 
z
" clip-path="url(#pef40bfe995)" style="fill: #3274a1; stroke: #3d3d3d; stroke-width: 1.5; stroke-linejoin: miter"/>
   </g>
   <g id="patch_4">
    <path d="M 56.062015 106.064627 
L 70.791866 106.064627 
L 70.791866 105.996658 
L 56.062015 105.996658 
L 56.062015 106.064627 
z
" clip-path="url(#pef40bfe995)" style="fill: #e1812c; stroke: #3d3d3d; stroke-width: 1.5; stroke-linejoin: miter"/>
   </g>
   <g id="patch_5">
    <path d="M 71.092476 106.138148 
L 85.822327 106.138148 
L 85.822327 105.807192 
L 71.092476 105.807192 
L 71.092476 106.138148 
z
" clip-path="url(#pef40bfe995)" style="fill: #3a923a; stroke: #3d3d3d; stroke-width: 1.5; stroke-linejoin: miter"/>
   </g>
   <g id="patch_6">
    <path d="M 86.122936 106.136193 
L 100.852788 106.136193 
L 100.852788 106.041931 
L 86.122936 106.041931 
L 86.122936 106.136193 
z
" clip-path="url(#pef40bfe995)" style="fill: #c03d3e; stroke: #3d3d3d; stroke-width: 1.5; stroke-linejoin: miter"/>
   </g>
   <g id="patch_7">
    <path d="M 116.183857 59.402904 
L 130.913709 59.402904 
L 130.913709 53.634619 
L 116.183857 53.634619 
L 116.183857 59.402904 
z
" clip-path="url(#pef40bfe995)" style="fill: #3274a1; stroke: #3d3d3d; stroke-width: 1.5; stroke-linejoin: miter"/>
   </g>
   <g id="patch_8">
    <path d="M 131.214318 49.523086 
L 145.944169 49.523086 
L 145.944169 45.925778 
L 131.214318 45.925778 
L 131.214318 49.523086 
z
" clip-path="url(#pef40bfe995)" style="fill: #e1812c; stroke: #3d3d3d; stroke-width: 1.5; stroke-linejoin: miter"/>
   </g>
   <g id="patch_9">
    <path d="M 146.244778 60.114739 
L 160.97463 60.114739 
L 160.97463 55.581087 
L 146.244778 55.581087 
L 146.244778 60.114739 
z
" clip-path="url(#pef40bfe995)" style="fill: #3a923a; stroke: #3d3d3d; stroke-width: 1.5; stroke-linejoin: miter"/>
   </g>
   <g id="patch_10">
    <path d="M 161.275239 71.204629 
L 176.00509 71.204629 
L 176.00509 69.656884 
L 161.275239 69.656884 
L 161.275239 71.204629 
z
" clip-path="url(#pef40bfe995)" style="fill: #c03d3e; stroke: #3d3d3d; stroke-width: 1.5; stroke-linejoin: miter"/>
   </g>
   <g id="patch_11">
    <path d="M 191.33616 106.250788 
L 206.066011 106.250788 
L 206.066011 106.121864 
L 191.33616 106.121864 
L 191.33616 106.250788 
z
" clip-path="url(#pef40bfe995)" style="fill: #3274a1; stroke: #3d3d3d; stroke-width: 1.5; stroke-linejoin: miter"/>
   </g>
   <g id="patch_12">
    <path d="M 206.36662 106.129776 
L 221.096472 106.129776 
L 221.096472 106.023077 
L 206.36662 106.023077 
L 206.36662 106.129776 
z
" clip-path="url(#pef40bfe995)" style="fill: #e1812c; stroke: #3d3d3d; stroke-width: 1.5; stroke-linejoin: miter"/>
   </g>
   <g id="patch_13">
    <path d="M 221.397081 106.282503 
L 236.126932 106.282503 
L 236.126932 106.022554 
L 221.397081 106.022554 
L 221.397081 106.282503 
z
" clip-path="url(#pef40bfe995)" style="fill: #3a923a; stroke: #3d3d3d; stroke-width: 1.5; stroke-linejoin: miter"/>
   </g>
   <g id="patch_14">
    <path d="M 236.427541 106.255578 
L 251.157393 106.255578 
L 251.157393 106.133173 
L 236.427541 106.133173 
L 236.427541 106.255578 
z
" clip-path="url(#pef40bfe995)" style="fill: #c03d3e; stroke: #3d3d3d; stroke-width: 1.5; stroke-linejoin: miter"/>
   </g>
   <g id="patch_15">
    <path d="M 266.488462 62.427119 
L 281.218314 62.427119 
L 281.218314 51.144289 
L 266.488462 51.144289 
L 266.488462 62.427119 
z
" clip-path="url(#pef40bfe995)" style="fill: #3274a1; stroke: #3d3d3d; stroke-width: 1.5; stroke-linejoin: miter"/>
   </g>
   <g id="patch_16">
    <path d="M 281.518923 48.951884 
L 296.248774 48.951884 
L 296.248774 41.668473 
L 281.518923 41.668473 
L 281.518923 48.951884 
z
" clip-path="url(#pef40bfe995)" style="fill: #e1812c; stroke: #3d3d3d; stroke-width: 1.5; stroke-linejoin: miter"/>
   </g>
   <g id="patch_17">
    <path d="M 296.549384 57.248046 
L 311.279235 57.248046 
L 311.279235 48.674772 
L 296.549384 48.674772 
L 296.549384 57.248046 
z
" clip-path="url(#pef40bfe995)" style="fill: #3a923a; stroke: #3d3d3d; stroke-width: 1.5; stroke-linejoin: miter"/>
   </g>
   <g id="patch_18">
    <path d="M 311.579844 68.684169 
L 326.309695 68.684169 
L 326.309695 67.289793 
L 311.579844 67.289793 
L 311.579844 68.684169 
z
" clip-path="url(#pef40bfe995)" style="fill: #c03d3e; stroke: #3d3d3d; stroke-width: 1.5; stroke-linejoin: miter"/>
   </g>
   <g id="patch_19">
    <path d="M 70.942171 109.554014 
L 70.942171 109.554014 
L 70.942171 109.554014 
L 70.942171 109.554014 
z
" clip-path="url(#pef40bfe995)" style="fill: #3274a1; stroke: #3d3d3d; stroke-width: 0.75; stroke-linejoin: miter"/>
   </g>
   <g id="patch_20">
    <path d="M 70.942171 109.554014 
L 70.942171 109.554014 
L 70.942171 109.554014 
L 70.942171 109.554014 
z
" clip-path="url(#pef40bfe995)" style="fill: #e1812c; stroke: #3d3d3d; stroke-width: 0.75; stroke-linejoin: miter"/>
   </g>
   <g id="patch_21">
    <path d="M 70.942171 109.554014 
L 70.942171 109.554014 
L 70.942171 109.554014 
L 70.942171 109.554014 
z
" clip-path="url(#pef40bfe995)" style="fill: #3a923a; stroke: #3d3d3d; stroke-width: 0.75; stroke-linejoin: miter"/>
   </g>
   <g id="patch_22">
    <path d="M 70.942171 109.554014 
L 70.942171 109.554014 
L 70.942171 109.554014 
L 70.942171 109.554014 
z
" clip-path="url(#pef40bfe995)" style="fill: #c03d3e; stroke: #3d3d3d; stroke-width: 0.75; stroke-linejoin: miter"/>
   </g>
   <g id="matplotlib.axis_1">
    <g id="xtick_1">
     <g id="line2d_1">
      <defs>
       <path id="m1147135e10" d="M 0 0 
L 0 3.5 
" style="stroke: #000000; stroke-width: 0.8"/>
      </defs>
      <g>
       <use xlink:href="#m1147135e10" x="70.942171" y="110.018105" style="stroke: #000000; stroke-width: 0.8"/>
      </g>
     </g>
     <g id="text_1">
      <!-- proba_weak -->
      <g transform="translate(26.792191 164.873766) rotate(-45) scale(0.1 -0.1)">
       <defs>
        <path id="DejaVuSans-70" d="M 1159 525 
L 1159 -1331 
L 581 -1331 
L 581 3500 
L 1159 3500 
L 1159 2969 
Q 1341 3281 1617 3432 
Q 1894 3584 2278 3584 
Q 2916 3584 3314 3078 
Q 3713 2572 3713 1747 
Q 3713 922 3314 415 
Q 2916 -91 2278 -91 
Q 1894 -91 1617 61 
Q 1341 213 1159 525 
z
M 3116 1747 
Q 3116 2381 2855 2742 
Q 2594 3103 2138 3103 
Q 1681 3103 1420 2742 
Q 1159 2381 1159 1747 
Q 1159 1113 1420 752 
Q 1681 391 2138 391 
Q 2594 391 2855 752 
Q 3116 1113 3116 1747 
z
" transform="scale(0.015625)"/>
        <path id="DejaVuSans-72" d="M 2631 2963 
Q 2534 3019 2420 3045 
Q 2306 3072 2169 3072 
Q 1681 3072 1420 2755 
Q 1159 2438 1159 1844 
L 1159 0 
L 581 0 
L 581 3500 
L 1159 3500 
L 1159 2956 
Q 1341 3275 1631 3429 
Q 1922 3584 2338 3584 
Q 2397 3584 2469 3576 
Q 2541 3569 2628 3553 
L 2631 2963 
z
" transform="scale(0.015625)"/>
        <path id="DejaVuSans-6f" d="M 1959 3097 
Q 1497 3097 1228 2736 
Q 959 2375 959 1747 
Q 959 1119 1226 758 
Q 1494 397 1959 397 
Q 2419 397 2687 759 
Q 2956 1122 2956 1747 
Q 2956 2369 2687 2733 
Q 2419 3097 1959 3097 
z
M 1959 3584 
Q 2709 3584 3137 3096 
Q 3566 2609 3566 1747 
Q 3566 888 3137 398 
Q 2709 -91 1959 -91 
Q 1206 -91 779 398 
Q 353 888 353 1747 
Q 353 2609 779 3096 
Q 1206 3584 1959 3584 
z
" transform="scale(0.015625)"/>
        <path id="DejaVuSans-62" d="M 3116 1747 
Q 3116 2381 2855 2742 
Q 2594 3103 2138 3103 
Q 1681 3103 1420 2742 
Q 1159 2381 1159 1747 
Q 1159 1113 1420 752 
Q 1681 391 2138 391 
Q 2594 391 2855 752 
Q 3116 1113 3116 1747 
z
M 1159 2969 
Q 1341 3281 1617 3432 
Q 1894 3584 2278 3584 
Q 2916 3584 3314 3078 
Q 3713 2572 3713 1747 
Q 3713 922 3314 415 
Q 2916 -91 2278 -91 
Q 1894 -91 1617 61 
Q 1341 213 1159 525 
L 1159 0 
L 581 0 
L 581 4863 
L 1159 4863 
L 1159 2969 
z
" transform="scale(0.015625)"/>
        <path id="DejaVuSans-61" d="M 2194 1759 
Q 1497 1759 1228 1600 
Q 959 1441 959 1056 
Q 959 750 1161 570 
Q 1363 391 1709 391 
Q 2188 391 2477 730 
Q 2766 1069 2766 1631 
L 2766 1759 
L 2194 1759 
z
M 3341 1997 
L 3341 0 
L 2766 0 
L 2766 531 
Q 2569 213 2275 61 
Q 1981 -91 1556 -91 
Q 1019 -91 701 211 
Q 384 513 384 1019 
Q 384 1609 779 1909 
Q 1175 2209 1959 2209 
L 2766 2209 
L 2766 2266 
Q 2766 2663 2505 2880 
Q 2244 3097 1772 3097 
Q 1472 3097 1187 3025 
Q 903 2953 641 2809 
L 641 3341 
Q 956 3463 1253 3523 
Q 1550 3584 1831 3584 
Q 2591 3584 2966 3190 
Q 3341 2797 3341 1997 
z
" transform="scale(0.015625)"/>
        <path id="DejaVuSans-5f" d="M 3263 -1063 
L 3263 -1509 
L -63 -1509 
L -63 -1063 
L 3263 -1063 
z
" transform="scale(0.015625)"/>
        <path id="DejaVuSans-77" d="M 269 3500 
L 844 3500 
L 1563 769 
L 2278 3500 
L 2956 3500 
L 3675 769 
L 4391 3500 
L 4966 3500 
L 4050 0 
L 3372 0 
L 2619 2869 
L 1863 0 
L 1184 0 
L 269 3500 
z
" transform="scale(0.015625)"/>
        <path id="DejaVuSans-65" d="M 3597 1894 
L 3597 1613 
L 953 1613 
Q 991 1019 1311 708 
Q 1631 397 2203 397 
Q 2534 397 2845 478 
Q 3156 559 3463 722 
L 3463 178 
Q 3153 47 2828 -22 
Q 2503 -91 2169 -91 
Q 1331 -91 842 396 
Q 353 884 353 1716 
Q 353 2575 817 3079 
Q 1281 3584 2069 3584 
Q 2775 3584 3186 3129 
Q 3597 2675 3597 1894 
z
M 3022 2063 
Q 3016 2534 2758 2815 
Q 2500 3097 2075 3097 
Q 1594 3097 1305 2825 
Q 1016 2553 972 2059 
L 3022 2063 
z
" transform="scale(0.015625)"/>
        <path id="DejaVuSans-6b" d="M 581 4863 
L 1159 4863 
L 1159 1991 
L 2875 3500 
L 3609 3500 
L 1753 1863 
L 3688 0 
L 2938 0 
L 1159 1709 
L 1159 0 
L 581 0 
L 581 4863 
z
" transform="scale(0.015625)"/>
       </defs>
       <use xlink:href="#DejaVuSans-70"/>
       <use xlink:href="#DejaVuSans-72" x="63.476562"/>
       <use xlink:href="#DejaVuSans-6f" x="102.339844"/>
       <use xlink:href="#DejaVuSans-62" x="163.521484"/>
       <use xlink:href="#DejaVuSans-61" x="226.998047"/>
       <use xlink:href="#DejaVuSans-5f" x="288.277344"/>
       <use xlink:href="#DejaVuSans-77" x="338.277344"/>
       <use xlink:href="#DejaVuSans-65" x="420.064453"/>
       <use xlink:href="#DejaVuSans-61" x="481.587891"/>
       <use xlink:href="#DejaVuSans-6b" x="542.867188"/>
      </g>
     </g>
    </g>
    <g id="xtick_2">
     <g id="line2d_2">
      <g>
       <use xlink:href="#m1147135e10" x="146.094474" y="110.018105" style="stroke: #000000; stroke-width: 0.8"/>
      </g>
     </g>
     <g id="text_2">
      <!-- embedding_weak -->
      <g transform="translate(82.338854 184.479407) rotate(-45) scale(0.1 -0.1)">
       <defs>
        <path id="DejaVuSans-6d" d="M 3328 2828 
Q 3544 3216 3844 3400 
Q 4144 3584 4550 3584 
Q 5097 3584 5394 3201 
Q 5691 2819 5691 2113 
L 5691 0 
L 5113 0 
L 5113 2094 
Q 5113 2597 4934 2840 
Q 4756 3084 4391 3084 
Q 3944 3084 3684 2787 
Q 3425 2491 3425 1978 
L 3425 0 
L 2847 0 
L 2847 2094 
Q 2847 2600 2669 2842 
Q 2491 3084 2119 3084 
Q 1678 3084 1418 2786 
Q 1159 2488 1159 1978 
L 1159 0 
L 581 0 
L 581 3500 
L 1159 3500 
L 1159 2956 
Q 1356 3278 1631 3431 
Q 1906 3584 2284 3584 
Q 2666 3584 2933 3390 
Q 3200 3197 3328 2828 
z
" transform="scale(0.015625)"/>
        <path id="DejaVuSans-64" d="M 2906 2969 
L 2906 4863 
L 3481 4863 
L 3481 0 
L 2906 0 
L 2906 525 
Q 2725 213 2448 61 
Q 2172 -91 1784 -91 
Q 1150 -91 751 415 
Q 353 922 353 1747 
Q 353 2572 751 3078 
Q 1150 3584 1784 3584 
Q 2172 3584 2448 3432 
Q 2725 3281 2906 2969 
z
M 947 1747 
Q 947 1113 1208 752 
Q 1469 391 1925 391 
Q 2381 391 2643 752 
Q 2906 1113 2906 1747 
Q 2906 2381 2643 2742 
Q 2381 3103 1925 3103 
Q 1469 3103 1208 2742 
Q 947 2381 947 1747 
z
" transform="scale(0.015625)"/>
        <path id="DejaVuSans-69" d="M 603 3500 
L 1178 3500 
L 1178 0 
L 603 0 
L 603 3500 
z
M 603 4863 
L 1178 4863 
L 1178 4134 
L 603 4134 
L 603 4863 
z
" transform="scale(0.015625)"/>
        <path id="DejaVuSans-6e" d="M 3513 2113 
L 3513 0 
L 2938 0 
L 2938 2094 
Q 2938 2591 2744 2837 
Q 2550 3084 2163 3084 
Q 1697 3084 1428 2787 
Q 1159 2491 1159 1978 
L 1159 0 
L 581 0 
L 581 3500 
L 1159 3500 
L 1159 2956 
Q 1366 3272 1645 3428 
Q 1925 3584 2291 3584 
Q 2894 3584 3203 3211 
Q 3513 2838 3513 2113 
z
" transform="scale(0.015625)"/>
        <path id="DejaVuSans-67" d="M 2906 1791 
Q 2906 2416 2648 2759 
Q 2391 3103 1925 3103 
Q 1463 3103 1205 2759 
Q 947 2416 947 1791 
Q 947 1169 1205 825 
Q 1463 481 1925 481 
Q 2391 481 2648 825 
Q 2906 1169 2906 1791 
z
M 3481 434 
Q 3481 -459 3084 -895 
Q 2688 -1331 1869 -1331 
Q 1566 -1331 1297 -1286 
Q 1028 -1241 775 -1147 
L 775 -588 
Q 1028 -725 1275 -790 
Q 1522 -856 1778 -856 
Q 2344 -856 2625 -561 
Q 2906 -266 2906 331 
L 2906 616 
Q 2728 306 2450 153 
Q 2172 0 1784 0 
Q 1141 0 747 490 
Q 353 981 353 1791 
Q 353 2603 747 3093 
Q 1141 3584 1784 3584 
Q 2172 3584 2450 3431 
Q 2728 3278 2906 2969 
L 2906 3500 
L 3481 3500 
L 3481 434 
z
" transform="scale(0.015625)"/>
       </defs>
       <use xlink:href="#DejaVuSans-65"/>
       <use xlink:href="#DejaVuSans-6d" x="61.523438"/>
       <use xlink:href="#DejaVuSans-62" x="158.935547"/>
       <use xlink:href="#DejaVuSans-65" x="222.412109"/>
       <use xlink:href="#DejaVuSans-64" x="283.935547"/>
       <use xlink:href="#DejaVuSans-64" x="347.412109"/>
       <use xlink:href="#DejaVuSans-69" x="410.888672"/>
       <use xlink:href="#DejaVuSans-6e" x="438.671875"/>
       <use xlink:href="#DejaVuSans-67" x="502.050781"/>
       <use xlink:href="#DejaVuSans-5f" x="565.527344"/>
       <use xlink:href="#DejaVuSans-77" x="615.527344"/>
       <use xlink:href="#DejaVuSans-65" x="697.314453"/>
       <use xlink:href="#DejaVuSans-61" x="758.837891"/>
       <use xlink:href="#DejaVuSans-6b" x="820.117188"/>
      </g>
     </g>
    </g>
    <g id="xtick_3">
     <g id="line2d_3">
      <g>
       <use xlink:href="#m1147135e10" x="221.246776" y="110.018105" style="stroke: #000000; stroke-width: 0.8"/>
      </g>
     </g>
     <g id="text_3">
      <!-- proba -->
      <g transform="translate(199.390548 142.776679) rotate(-45) scale(0.1 -0.1)">
       <use xlink:href="#DejaVuSans-70"/>
       <use xlink:href="#DejaVuSans-72" x="63.476562"/>
       <use xlink:href="#DejaVuSans-6f" x="102.339844"/>
       <use xlink:href="#DejaVuSans-62" x="163.521484"/>
       <use xlink:href="#DejaVuSans-61" x="226.998047"/>
      </g>
     </g>
    </g>
    <g id="xtick_4">
     <g id="line2d_4">
      <g>
       <use xlink:href="#m1147135e10" x="296.399079" y="110.018105" style="stroke: #000000; stroke-width: 0.8"/>
      </g>
     </g>
     <g id="text_4">
      <!-- embedding -->
      <g transform="translate(254.93721 162.38232) rotate(-45) scale(0.1 -0.1)">
       <use xlink:href="#DejaVuSans-65"/>
       <use xlink:href="#DejaVuSans-6d" x="61.523438"/>
       <use xlink:href="#DejaVuSans-62" x="158.935547"/>
       <use xlink:href="#DejaVuSans-65" x="222.412109"/>
       <use xlink:href="#DejaVuSans-64" x="283.935547"/>
       <use xlink:href="#DejaVuSans-64" x="347.412109"/>
       <use xlink:href="#DejaVuSans-69" x="410.888672"/>
       <use xlink:href="#DejaVuSans-6e" x="438.671875"/>
       <use xlink:href="#DejaVuSans-67" x="502.050781"/>
      </g>
     </g>
    </g>
    <g id="text_5">
     <!-- estimator_name -->
     <g transform="translate(142.951094 197.745069) scale(0.1 -0.1)">
      <defs>
       <path id="DejaVuSans-73" d="M 2834 3397 
L 2834 2853 
Q 2591 2978 2328 3040 
Q 2066 3103 1784 3103 
Q 1356 3103 1142 2972 
Q 928 2841 928 2578 
Q 928 2378 1081 2264 
Q 1234 2150 1697 2047 
L 1894 2003 
Q 2506 1872 2764 1633 
Q 3022 1394 3022 966 
Q 3022 478 2636 193 
Q 2250 -91 1575 -91 
Q 1294 -91 989 -36 
Q 684 19 347 128 
L 347 722 
Q 666 556 975 473 
Q 1284 391 1588 391 
Q 1994 391 2212 530 
Q 2431 669 2431 922 
Q 2431 1156 2273 1281 
Q 2116 1406 1581 1522 
L 1381 1569 
Q 847 1681 609 1914 
Q 372 2147 372 2553 
Q 372 3047 722 3315 
Q 1072 3584 1716 3584 
Q 2034 3584 2315 3537 
Q 2597 3491 2834 3397 
z
" transform="scale(0.015625)"/>
       <path id="DejaVuSans-74" d="M 1172 4494 
L 1172 3500 
L 2356 3500 
L 2356 3053 
L 1172 3053 
L 1172 1153 
Q 1172 725 1289 603 
Q 1406 481 1766 481 
L 2356 481 
L 2356 0 
L 1766 0 
Q 1100 0 847 248 
Q 594 497 594 1153 
L 594 3053 
L 172 3053 
L 172 3500 
L 594 3500 
L 594 4494 
L 1172 4494 
z
" transform="scale(0.015625)"/>
      </defs>
      <use xlink:href="#DejaVuSans-65"/>
      <use xlink:href="#DejaVuSans-73" x="61.523438"/>
      <use xlink:href="#DejaVuSans-74" x="113.623047"/>
      <use xlink:href="#DejaVuSans-69" x="152.832031"/>
      <use xlink:href="#DejaVuSans-6d" x="180.615234"/>
      <use xlink:href="#DejaVuSans-61" x="278.027344"/>
      <use xlink:href="#DejaVuSans-74" x="339.306641"/>
      <use xlink:href="#DejaVuSans-6f" x="378.515625"/>
      <use xlink:href="#DejaVuSans-72" x="439.697266"/>
      <use xlink:href="#DejaVuSans-5f" x="480.810547"/>
      <use xlink:href="#DejaVuSans-6e" x="530.810547"/>
      <use xlink:href="#DejaVuSans-61" x="594.189453"/>
      <use xlink:href="#DejaVuSans-6d" x="655.46875"/>
      <use xlink:href="#DejaVuSans-65" x="752.880859"/>
     </g>
    </g>
   </g>
   <g id="matplotlib.axis_2">
    <g id="ytick_1">
     <g id="line2d_5">
      <defs>
       <path id="mba0460453d" d="M 0 0 
L -3.5 0 
" style="stroke: #000000; stroke-width: 0.8"/>
      </defs>
      <g>
       <use xlink:href="#mba0460453d" x="40.88125" y="109.554014" style="stroke: #000000; stroke-width: 0.8"/>
      </g>
     </g>
     <g id="text_6">
      <!-- 0 -->
      <g transform="translate(27.51875 113.353233) scale(0.1 -0.1)">
       <defs>
        <path id="DejaVuSans-30" d="M 2034 4250 
Q 1547 4250 1301 3770 
Q 1056 3291 1056 2328 
Q 1056 1369 1301 889 
Q 1547 409 2034 409 
Q 2525 409 2770 889 
Q 3016 1369 3016 2328 
Q 3016 3291 2770 3770 
Q 2525 4250 2034 4250 
z
M 2034 4750 
Q 2819 4750 3233 4129 
Q 3647 3509 3647 2328 
Q 3647 1150 3233 529 
Q 2819 -91 2034 -91 
Q 1250 -91 836 529 
Q 422 1150 422 2328 
Q 422 3509 836 4129 
Q 1250 4750 2034 4750 
z
" transform="scale(0.015625)"/>
       </defs>
       <use xlink:href="#DejaVuSans-30"/>
      </g>
     </g>
    </g>
    <g id="ytick_2">
     <g id="line2d_6">
      <g>
       <use xlink:href="#mba0460453d" x="40.88125" y="79.435438" style="stroke: #000000; stroke-width: 0.8"/>
      </g>
     </g>
     <g id="text_7">
      <!-- 20 -->
      <g transform="translate(21.15625 83.234657) scale(0.1 -0.1)">
       <defs>
        <path id="DejaVuSans-32" d="M 1228 531 
L 3431 531 
L 3431 0 
L 469 0 
L 469 531 
Q 828 903 1448 1529 
Q 2069 2156 2228 2338 
Q 2531 2678 2651 2914 
Q 2772 3150 2772 3378 
Q 2772 3750 2511 3984 
Q 2250 4219 1831 4219 
Q 1534 4219 1204 4116 
Q 875 4013 500 3803 
L 500 4441 
Q 881 4594 1212 4672 
Q 1544 4750 1819 4750 
Q 2544 4750 2975 4387 
Q 3406 4025 3406 3419 
Q 3406 3131 3298 2873 
Q 3191 2616 2906 2266 
Q 2828 2175 2409 1742 
Q 1991 1309 1228 531 
z
" transform="scale(0.015625)"/>
       </defs>
       <use xlink:href="#DejaVuSans-32"/>
       <use xlink:href="#DejaVuSans-30" x="63.623047"/>
      </g>
     </g>
    </g>
    <g id="ytick_3">
     <g id="line2d_7">
      <g>
       <use xlink:href="#mba0460453d" x="40.88125" y="49.316861" style="stroke: #000000; stroke-width: 0.8"/>
      </g>
     </g>
     <g id="text_8">
      <!-- 40 -->
      <g transform="translate(21.15625 53.11608) scale(0.1 -0.1)">
       <defs>
        <path id="DejaVuSans-34" d="M 2419 4116 
L 825 1625 
L 2419 1625 
L 2419 4116 
z
M 2253 4666 
L 3047 4666 
L 3047 1625 
L 3713 1625 
L 3713 1100 
L 3047 1100 
L 3047 0 
L 2419 0 
L 2419 1100 
L 313 1100 
L 313 1709 
L 2253 4666 
z
" transform="scale(0.015625)"/>
       </defs>
       <use xlink:href="#DejaVuSans-34"/>
       <use xlink:href="#DejaVuSans-30" x="63.623047"/>
      </g>
     </g>
    </g>
    <g id="text_9">
     <!-- score_time -->
     <g transform="translate(14.798438 93.397021) rotate(-90) scale(0.1 -0.1)">
      <defs>
       <path id="DejaVuSans-63" d="M 3122 3366 
L 3122 2828 
Q 2878 2963 2633 3030 
Q 2388 3097 2138 3097 
Q 1578 3097 1268 2742 
Q 959 2388 959 1747 
Q 959 1106 1268 751 
Q 1578 397 2138 397 
Q 2388 397 2633 464 
Q 2878 531 3122 666 
L 3122 134 
Q 2881 22 2623 -34 
Q 2366 -91 2075 -91 
Q 1284 -91 818 406 
Q 353 903 353 1747 
Q 353 2603 823 3093 
Q 1294 3584 2113 3584 
Q 2378 3584 2631 3529 
Q 2884 3475 3122 3366 
z
" transform="scale(0.015625)"/>
      </defs>
      <use xlink:href="#DejaVuSans-73"/>
      <use xlink:href="#DejaVuSans-63" x="52.099609"/>
      <use xlink:href="#DejaVuSans-6f" x="107.080078"/>
      <use xlink:href="#DejaVuSans-72" x="168.261719"/>
      <use xlink:href="#DejaVuSans-65" x="207.125"/>
      <use xlink:href="#DejaVuSans-5f" x="268.648438"/>
      <use xlink:href="#DejaVuSans-74" x="318.648438"/>
      <use xlink:href="#DejaVuSans-69" x="357.857422"/>
      <use xlink:href="#DejaVuSans-6d" x="385.640625"/>
      <use xlink:href="#DejaVuSans-65" x="483.052734"/>
     </g>
    </g>
   </g>
   <g id="line2d_8">
    <path d="M 48.39648 106.203879 
L 48.39648 106.247734 
" clip-path="url(#pef40bfe995)" style="fill: none; stroke: #3d3d3d; stroke-width: 1.5; stroke-linecap: square"/>
   </g>
   <g id="line2d_9">
    <path d="M 48.39648 106.136233 
L 48.39648 106.136233 
" clip-path="url(#pef40bfe995)" style="fill: none; stroke: #3d3d3d; stroke-width: 1.5; stroke-linecap: square"/>
   </g>
   <g id="line2d_10">
    <path d="M 44.714017 106.247734 
L 52.078943 106.247734 
" clip-path="url(#pef40bfe995)" style="fill: none; stroke: #3d3d3d; stroke-width: 1.5; stroke-linecap: square"/>
   </g>
   <g id="line2d_11">
    <path d="M 44.714017 106.136233 
L 52.078943 106.136233 
" clip-path="url(#pef40bfe995)" style="fill: none; stroke: #3d3d3d; stroke-width: 1.5; stroke-linecap: square"/>
   </g>
   <g id="line2d_12">
    <defs>
     <path id="mf0b6fab1f3" d="M -0 3.535534 
L 2.12132 0 
L -0 -3.535534 
L -2.12132 -0 
z
" style="stroke: #3d3d3d; stroke-linejoin: miter"/>
    </defs>
    <g clip-path="url(#pef40bfe995)">
     <use xlink:href="#mf0b6fab1f3" x="48.39648" y="105.973339" style="fill: #3d3d3d; stroke: #3d3d3d; stroke-linejoin: miter"/>
    </g>
   </g>
   <g id="line2d_13">
    <path d="M 63.426941 106.064627 
L 63.426941 106.156543 
" clip-path="url(#pef40bfe995)" style="fill: none; stroke: #3d3d3d; stroke-width: 1.5; stroke-linecap: square"/>
   </g>
   <g id="line2d_14">
    <path d="M 63.426941 105.996658 
L 63.426941 105.979296 
" clip-path="url(#pef40bfe995)" style="fill: none; stroke: #3d3d3d; stroke-width: 1.5; stroke-linecap: square"/>
   </g>
   <g id="line2d_15">
    <path d="M 59.744478 106.156543 
L 67.109404 106.156543 
" clip-path="url(#pef40bfe995)" style="fill: none; stroke: #3d3d3d; stroke-width: 1.5; stroke-linecap: square"/>
   </g>
   <g id="line2d_16">
    <path d="M 59.744478 105.979296 
L 67.109404 105.979296 
" clip-path="url(#pef40bfe995)" style="fill: none; stroke: #3d3d3d; stroke-width: 1.5; stroke-linecap: square"/>
   </g>
   <g id="line2d_17"/>
   <g id="line2d_18">
    <path d="M 78.457401 106.138148 
L 78.457401 106.229539 
" clip-path="url(#pef40bfe995)" style="fill: none; stroke: #3d3d3d; stroke-width: 1.5; stroke-linecap: square"/>
   </g>
   <g id="line2d_19">
    <path d="M 78.457401 105.807192 
L 78.457401 105.807192 
" clip-path="url(#pef40bfe995)" style="fill: none; stroke: #3d3d3d; stroke-width: 1.5; stroke-linecap: square"/>
   </g>
   <g id="line2d_20">
    <path d="M 74.774938 106.229539 
L 82.139864 106.229539 
" clip-path="url(#pef40bfe995)" style="fill: none; stroke: #3d3d3d; stroke-width: 1.5; stroke-linecap: square"/>
   </g>
   <g id="line2d_21">
    <path d="M 74.774938 105.807192 
L 82.139864 105.807192 
" clip-path="url(#pef40bfe995)" style="fill: none; stroke: #3d3d3d; stroke-width: 1.5; stroke-linecap: square"/>
   </g>
   <g id="line2d_22">
    <g clip-path="url(#pef40bfe995)">
     <use xlink:href="#mf0b6fab1f3" x="78.457401" y="105.275701" style="fill: #3d3d3d; stroke: #3d3d3d; stroke-linejoin: miter"/>
    </g>
   </g>
   <g id="line2d_23">
    <path d="M 93.487862 106.136193 
L 93.487862 106.195812 
" clip-path="url(#pef40bfe995)" style="fill: none; stroke: #3d3d3d; stroke-width: 1.5; stroke-linecap: square"/>
   </g>
   <g id="line2d_24">
    <path d="M 93.487862 106.041931 
L 93.487862 106.004881 
" clip-path="url(#pef40bfe995)" style="fill: none; stroke: #3d3d3d; stroke-width: 1.5; stroke-linecap: square"/>
   </g>
   <g id="line2d_25">
    <path d="M 89.805399 106.195812 
L 97.170325 106.195812 
" clip-path="url(#pef40bfe995)" style="fill: none; stroke: #3d3d3d; stroke-width: 1.5; stroke-linecap: square"/>
   </g>
   <g id="line2d_26">
    <path d="M 89.805399 106.004881 
L 97.170325 106.004881 
" clip-path="url(#pef40bfe995)" style="fill: none; stroke: #3d3d3d; stroke-width: 1.5; stroke-linecap: square"/>
   </g>
   <g id="line2d_27"/>
   <g id="line2d_28">
    <path d="M 123.548783 59.402904 
L 123.548783 63.22311 
" clip-path="url(#pef40bfe995)" style="fill: none; stroke: #3d3d3d; stroke-width: 1.5; stroke-linecap: square"/>
   </g>
   <g id="line2d_29">
    <path d="M 123.548783 53.634619 
L 123.548783 48.199454 
" clip-path="url(#pef40bfe995)" style="fill: none; stroke: #3d3d3d; stroke-width: 1.5; stroke-linecap: square"/>
   </g>
   <g id="line2d_30">
    <path d="M 119.86632 63.22311 
L 127.231246 63.22311 
" clip-path="url(#pef40bfe995)" style="fill: none; stroke: #3d3d3d; stroke-width: 1.5; stroke-linecap: square"/>
   </g>
   <g id="line2d_31">
    <path d="M 119.86632 48.199454 
L 127.231246 48.199454 
" clip-path="url(#pef40bfe995)" style="fill: none; stroke: #3d3d3d; stroke-width: 1.5; stroke-linecap: square"/>
   </g>
   <g id="line2d_32"/>
   <g id="line2d_33">
    <path d="M 138.579243 49.523086 
L 138.579243 49.523086 
" clip-path="url(#pef40bfe995)" style="fill: none; stroke: #3d3d3d; stroke-width: 1.5; stroke-linecap: square"/>
   </g>
   <g id="line2d_34">
    <path d="M 138.579243 45.925778 
L 138.579243 44.904944 
" clip-path="url(#pef40bfe995)" style="fill: none; stroke: #3d3d3d; stroke-width: 1.5; stroke-linecap: square"/>
   </g>
   <g id="line2d_35">
    <path d="M 134.896781 49.523086 
L 142.261706 49.523086 
" clip-path="url(#pef40bfe995)" style="fill: none; stroke: #3d3d3d; stroke-width: 1.5; stroke-linecap: square"/>
   </g>
   <g id="line2d_36">
    <path d="M 134.896781 44.904944 
L 142.261706 44.904944 
" clip-path="url(#pef40bfe995)" style="fill: none; stroke: #3d3d3d; stroke-width: 1.5; stroke-linecap: square"/>
   </g>
   <g id="line2d_37">
    <g clip-path="url(#pef40bfe995)">
     <use xlink:href="#mf0b6fab1f3" x="138.579243" y="58.664931" style="fill: #3d3d3d; stroke: #3d3d3d; stroke-linejoin: miter"/>
    </g>
   </g>
   <g id="line2d_38">
    <path d="M 153.609704 60.114739 
L 153.609704 61.120992 
" clip-path="url(#pef40bfe995)" style="fill: none; stroke: #3d3d3d; stroke-width: 1.5; stroke-linecap: square"/>
   </g>
   <g id="line2d_39">
    <path d="M 153.609704 55.581087 
L 153.609704 55.581087 
" clip-path="url(#pef40bfe995)" style="fill: none; stroke: #3d3d3d; stroke-width: 1.5; stroke-linecap: square"/>
   </g>
   <g id="line2d_40">
    <path d="M 149.927241 61.120992 
L 157.292167 61.120992 
" clip-path="url(#pef40bfe995)" style="fill: none; stroke: #3d3d3d; stroke-width: 1.5; stroke-linecap: square"/>
   </g>
   <g id="line2d_41">
    <path d="M 149.927241 55.581087 
L 157.292167 55.581087 
" clip-path="url(#pef40bfe995)" style="fill: none; stroke: #3d3d3d; stroke-width: 1.5; stroke-linecap: square"/>
   </g>
   <g id="line2d_42">
    <g clip-path="url(#pef40bfe995)">
     <use xlink:href="#mf0b6fab1f3" x="153.609704" y="38.626656" style="fill: #3d3d3d; stroke: #3d3d3d; stroke-linejoin: miter"/>
    </g>
   </g>
   <g id="line2d_43">
    <path d="M 168.640164 71.204629 
L 168.640164 72.553875 
" clip-path="url(#pef40bfe995)" style="fill: none; stroke: #3d3d3d; stroke-width: 1.5; stroke-linecap: square"/>
   </g>
   <g id="line2d_44">
    <path d="M 168.640164 69.656884 
L 168.640164 69.084681 
" clip-path="url(#pef40bfe995)" style="fill: none; stroke: #3d3d3d; stroke-width: 1.5; stroke-linecap: square"/>
   </g>
   <g id="line2d_45">
    <path d="M 164.957702 72.553875 
L 172.322627 72.553875 
" clip-path="url(#pef40bfe995)" style="fill: none; stroke: #3d3d3d; stroke-width: 1.5; stroke-linecap: square"/>
   </g>
   <g id="line2d_46">
    <path d="M 164.957702 69.084681 
L 172.322627 69.084681 
" clip-path="url(#pef40bfe995)" style="fill: none; stroke: #3d3d3d; stroke-width: 1.5; stroke-linecap: square"/>
   </g>
   <g id="line2d_47"/>
   <g id="line2d_48">
    <path d="M 198.701086 106.250788 
L 198.701086 106.256361 
" clip-path="url(#pef40bfe995)" style="fill: none; stroke: #3d3d3d; stroke-width: 1.5; stroke-linecap: square"/>
   </g>
   <g id="line2d_49">
    <path d="M 198.701086 106.121864 
L 198.701086 106.117738 
" clip-path="url(#pef40bfe995)" style="fill: none; stroke: #3d3d3d; stroke-width: 1.5; stroke-linecap: square"/>
   </g>
   <g id="line2d_50">
    <path d="M 195.018623 106.256361 
L 202.383548 106.256361 
" clip-path="url(#pef40bfe995)" style="fill: none; stroke: #3d3d3d; stroke-width: 1.5; stroke-linecap: square"/>
   </g>
   <g id="line2d_51">
    <path d="M 195.018623 106.117738 
L 202.383548 106.117738 
" clip-path="url(#pef40bfe995)" style="fill: none; stroke: #3d3d3d; stroke-width: 1.5; stroke-linecap: square"/>
   </g>
   <g id="line2d_52"/>
   <g id="line2d_53">
    <path d="M 213.731546 106.129776 
L 213.731546 106.133369 
" clip-path="url(#pef40bfe995)" style="fill: none; stroke: #3d3d3d; stroke-width: 1.5; stroke-linecap: square"/>
   </g>
   <g id="line2d_54">
    <path d="M 213.731546 106.023077 
L 213.731546 106.023077 
" clip-path="url(#pef40bfe995)" style="fill: none; stroke: #3d3d3d; stroke-width: 1.5; stroke-linecap: square"/>
   </g>
   <g id="line2d_55">
    <path d="M 210.049083 106.133369 
L 217.414009 106.133369 
" clip-path="url(#pef40bfe995)" style="fill: none; stroke: #3d3d3d; stroke-width: 1.5; stroke-linecap: square"/>
   </g>
   <g id="line2d_56">
    <path d="M 210.049083 106.023077 
L 217.414009 106.023077 
" clip-path="url(#pef40bfe995)" style="fill: none; stroke: #3d3d3d; stroke-width: 1.5; stroke-linecap: square"/>
   </g>
   <g id="line2d_57">
    <g clip-path="url(#pef40bfe995)">
     <use xlink:href="#mf0b6fab1f3" x="213.731546" y="105.669536" style="fill: #3d3d3d; stroke: #3d3d3d; stroke-linejoin: miter"/>
    </g>
   </g>
   <g id="line2d_58">
    <path d="M 228.762007 106.282503 
L 228.762007 106.380766 
" clip-path="url(#pef40bfe995)" style="fill: none; stroke: #3d3d3d; stroke-width: 1.5; stroke-linecap: square"/>
   </g>
   <g id="line2d_59">
    <path d="M 228.762007 106.022554 
L 228.762007 105.819383 
" clip-path="url(#pef40bfe995)" style="fill: none; stroke: #3d3d3d; stroke-width: 1.5; stroke-linecap: square"/>
   </g>
   <g id="line2d_60">
    <path d="M 225.079544 106.380766 
L 232.444469 106.380766 
" clip-path="url(#pef40bfe995)" style="fill: none; stroke: #3d3d3d; stroke-width: 1.5; stroke-linecap: square"/>
   </g>
   <g id="line2d_61">
    <path d="M 225.079544 105.819383 
L 232.444469 105.819383 
" clip-path="url(#pef40bfe995)" style="fill: none; stroke: #3d3d3d; stroke-width: 1.5; stroke-linecap: square"/>
   </g>
   <g id="line2d_62"/>
   <g id="line2d_63">
    <path d="M 243.792467 106.255578 
L 243.792467 106.264307 
" clip-path="url(#pef40bfe995)" style="fill: none; stroke: #3d3d3d; stroke-width: 1.5; stroke-linecap: square"/>
   </g>
   <g id="line2d_64">
    <path d="M 243.792467 106.133173 
L 243.792467 106.05742 
" clip-path="url(#pef40bfe995)" style="fill: none; stroke: #3d3d3d; stroke-width: 1.5; stroke-linecap: square"/>
   </g>
   <g id="line2d_65">
    <path d="M 240.110004 106.264307 
L 247.47493 106.264307 
" clip-path="url(#pef40bfe995)" style="fill: none; stroke: #3d3d3d; stroke-width: 1.5; stroke-linecap: square"/>
   </g>
   <g id="line2d_66">
    <path d="M 240.110004 106.05742 
L 247.47493 106.05742 
" clip-path="url(#pef40bfe995)" style="fill: none; stroke: #3d3d3d; stroke-width: 1.5; stroke-linecap: square"/>
   </g>
   <g id="line2d_67"/>
   <g id="line2d_68">
    <path d="M 273.853388 62.427119 
L 273.853388 63.643043 
" clip-path="url(#pef40bfe995)" style="fill: none; stroke: #3d3d3d; stroke-width: 1.5; stroke-linecap: square"/>
   </g>
   <g id="line2d_69">
    <path d="M 273.853388 51.144289 
L 273.853388 51.144289 
" clip-path="url(#pef40bfe995)" style="fill: none; stroke: #3d3d3d; stroke-width: 1.5; stroke-linecap: square"/>
   </g>
   <g id="line2d_70">
    <path d="M 270.170925 63.643043 
L 277.535851 63.643043 
" clip-path="url(#pef40bfe995)" style="fill: none; stroke: #3d3d3d; stroke-width: 1.5; stroke-linecap: square"/>
   </g>
   <g id="line2d_71">
    <path d="M 270.170925 51.144289 
L 277.535851 51.144289 
" clip-path="url(#pef40bfe995)" style="fill: none; stroke: #3d3d3d; stroke-width: 1.5; stroke-linecap: square"/>
   </g>
   <g id="line2d_72">
    <g clip-path="url(#pef40bfe995)">
     <use xlink:href="#mf0b6fab1f3" x="273.853388" y="33.63399" style="fill: #3d3d3d; stroke: #3d3d3d; stroke-linejoin: miter"/>
    </g>
   </g>
   <g id="line2d_73">
    <path d="M 288.883849 48.951884 
L 288.883849 48.951884 
" clip-path="url(#pef40bfe995)" style="fill: none; stroke: #3d3d3d; stroke-width: 1.5; stroke-linecap: square"/>
   </g>
   <g id="line2d_74">
    <path d="M 288.883849 41.668473 
L 288.883849 41.244435 
" clip-path="url(#pef40bfe995)" style="fill: none; stroke: #3d3d3d; stroke-width: 1.5; stroke-linecap: square"/>
   </g>
   <g id="line2d_75">
    <path d="M 285.201386 48.951884 
L 292.566312 48.951884 
" clip-path="url(#pef40bfe995)" style="fill: none; stroke: #3d3d3d; stroke-width: 1.5; stroke-linecap: square"/>
   </g>
   <g id="line2d_76">
    <path d="M 285.201386 41.244435 
L 292.566312 41.244435 
" clip-path="url(#pef40bfe995)" style="fill: none; stroke: #3d3d3d; stroke-width: 1.5; stroke-linecap: square"/>
   </g>
   <g id="line2d_77">
    <g clip-path="url(#pef40bfe995)">
     <use xlink:href="#mf0b6fab1f3" x="288.883849" y="60.327283" style="fill: #3d3d3d; stroke: #3d3d3d; stroke-linejoin: miter"/>
    </g>
   </g>
   <g id="line2d_78">
    <path d="M 303.914309 57.248046 
L 303.914309 57.848223 
" clip-path="url(#pef40bfe995)" style="fill: none; stroke: #3d3d3d; stroke-width: 1.5; stroke-linecap: square"/>
   </g>
   <g id="line2d_79">
    <path d="M 303.914309 48.674772 
L 303.914309 47.149409 
" clip-path="url(#pef40bfe995)" style="fill: none; stroke: #3d3d3d; stroke-width: 1.5; stroke-linecap: square"/>
   </g>
   <g id="line2d_80">
    <path d="M 300.231846 57.848223 
L 307.596772 57.848223 
" clip-path="url(#pef40bfe995)" style="fill: none; stroke: #3d3d3d; stroke-width: 1.5; stroke-linecap: square"/>
   </g>
   <g id="line2d_81">
    <path d="M 300.231846 47.149409 
L 307.596772 47.149409 
" clip-path="url(#pef40bfe995)" style="fill: none; stroke: #3d3d3d; stroke-width: 1.5; stroke-linecap: square"/>
   </g>
   <g id="line2d_82"/>
   <g id="line2d_83">
    <path d="M 318.94477 68.684169 
L 318.94477 69.534438 
" clip-path="url(#pef40bfe995)" style="fill: none; stroke: #3d3d3d; stroke-width: 1.5; stroke-linecap: square"/>
   </g>
   <g id="line2d_84">
    <path d="M 318.94477 67.289793 
L 318.94477 67.289793 
" clip-path="url(#pef40bfe995)" style="fill: none; stroke: #3d3d3d; stroke-width: 1.5; stroke-linecap: square"/>
   </g>
   <g id="line2d_85">
    <path d="M 315.262307 69.534438 
L 322.627233 69.534438 
" clip-path="url(#pef40bfe995)" style="fill: none; stroke: #3d3d3d; stroke-width: 1.5; stroke-linecap: square"/>
   </g>
   <g id="line2d_86">
    <path d="M 315.262307 67.289793 
L 322.627233 67.289793 
" clip-path="url(#pef40bfe995)" style="fill: none; stroke: #3d3d3d; stroke-width: 1.5; stroke-linecap: square"/>
   </g>
   <g id="line2d_87">
    <g clip-path="url(#pef40bfe995)">
     <use xlink:href="#mf0b6fab1f3" x="318.94477" y="64.106596" style="fill: #3d3d3d; stroke: #3d3d3d; stroke-linejoin: miter"/>
    </g>
   </g>
   <g id="line2d_88">
    <path d="M 138.579243 32.622545 
L 138.579243 31.022116 
L 168.640164 31.022116 
L 168.640164 32.622545 
" clip-path="url(#pef40bfe995)" style="fill: none; stroke: #333333; stroke-width: 1.5; stroke-linecap: square"/>
   </g>
   <g id="line2d_89">
    <path d="M 41.031555 106.202011 
L 55.761406 106.202011 
" clip-path="url(#pef40bfe995)" style="fill: none; stroke: #3d3d3d; stroke-width: 1.5; stroke-linecap: square"/>
   </g>
   <g id="line2d_90">
    <path d="M 56.062015 106.024236 
L 70.791866 106.024236 
" clip-path="url(#pef40bfe995)" style="fill: none; stroke: #3d3d3d; stroke-width: 1.5; stroke-linecap: square"/>
   </g>
   <g id="line2d_91">
    <path d="M 71.092476 106.042344 
L 85.822327 106.042344 
" clip-path="url(#pef40bfe995)" style="fill: none; stroke: #3d3d3d; stroke-width: 1.5; stroke-linecap: square"/>
   </g>
   <g id="line2d_92">
    <path d="M 86.122936 106.095849 
L 100.852788 106.095849 
" clip-path="url(#pef40bfe995)" style="fill: none; stroke: #3d3d3d; stroke-width: 1.5; stroke-linecap: square"/>
   </g>
   <g id="line2d_93">
    <path d="M 116.183857 59.239319 
L 130.913709 59.239319 
" clip-path="url(#pef40bfe995)" style="fill: none; stroke: #3d3d3d; stroke-width: 1.5; stroke-linecap: square"/>
   </g>
   <g id="line2d_94">
    <path d="M 131.214318 47.455265 
L 145.944169 47.455265 
" clip-path="url(#pef40bfe995)" style="fill: none; stroke: #3d3d3d; stroke-width: 1.5; stroke-linecap: square"/>
   </g>
   <g id="line2d_95">
    <path d="M 146.244778 59.964378 
L 160.97463 59.964378 
" clip-path="url(#pef40bfe995)" style="fill: none; stroke: #3d3d3d; stroke-width: 1.5; stroke-linecap: square"/>
   </g>
   <g id="line2d_96">
    <path d="M 161.275239 71.183234 
L 176.00509 71.183234 
" clip-path="url(#pef40bfe995)" style="fill: none; stroke: #3d3d3d; stroke-width: 1.5; stroke-linecap: square"/>
   </g>
   <g id="line2d_97">
    <path d="M 191.33616 106.124263 
L 206.066011 106.124263 
" clip-path="url(#pef40bfe995)" style="fill: none; stroke: #3d3d3d; stroke-width: 1.5; stroke-linecap: square"/>
   </g>
   <g id="line2d_98">
    <path d="M 206.36662 106.111145 
L 221.096472 106.111145 
" clip-path="url(#pef40bfe995)" style="fill: none; stroke: #3d3d3d; stroke-width: 1.5; stroke-linecap: square"/>
   </g>
   <g id="line2d_99">
    <path d="M 221.397081 106.026382 
L 236.126932 106.026382 
" clip-path="url(#pef40bfe995)" style="fill: none; stroke: #3d3d3d; stroke-width: 1.5; stroke-linecap: square"/>
   </g>
   <g id="line2d_100">
    <path d="M 236.427541 106.240095 
L 251.157393 106.240095 
" clip-path="url(#pef40bfe995)" style="fill: none; stroke: #3d3d3d; stroke-width: 1.5; stroke-linecap: square"/>
   </g>
   <g id="line2d_101">
    <path d="M 266.488462 55.560654 
L 281.218314 55.560654 
" clip-path="url(#pef40bfe995)" style="fill: none; stroke: #3d3d3d; stroke-width: 1.5; stroke-linecap: square"/>
   </g>
   <g id="line2d_102">
    <path d="M 281.518923 47.831396 
L 296.248774 47.831396 
" clip-path="url(#pef40bfe995)" style="fill: none; stroke: #3d3d3d; stroke-width: 1.5; stroke-linecap: square"/>
   </g>
   <g id="line2d_103">
    <path d="M 296.549384 49.7828 
L 311.279235 49.7828 
" clip-path="url(#pef40bfe995)" style="fill: none; stroke: #3d3d3d; stroke-width: 1.5; stroke-linecap: square"/>
   </g>
   <g id="line2d_104">
    <path d="M 311.579844 67.975972 
L 326.309695 67.975972 
" clip-path="url(#pef40bfe995)" style="fill: none; stroke: #3d3d3d; stroke-width: 1.5; stroke-linecap: square"/>
   </g>
   <g id="patch_23">
    <path d="M 40.88125 110.018105 
L 40.88125 22.318125 
" style="fill: none; stroke: #000000; stroke-width: 0.8; stroke-linejoin: miter; stroke-linecap: square"/>
   </g>
   <g id="patch_24">
    <path d="M 326.46 110.018105 
L 326.46 22.318125 
" style="fill: none; stroke: #000000; stroke-width: 0.8; stroke-linejoin: miter; stroke-linecap: square"/>
   </g>
   <g id="patch_25">
    <path d="M 40.88125 110.018105 
L 326.46 110.018105 
" style="fill: none; stroke: #000000; stroke-width: 0.8; stroke-linejoin: miter; stroke-linecap: square"/>
   </g>
   <g id="patch_26">
    <path d="M 40.88125 22.318125 
L 326.46 22.318125 
" style="fill: none; stroke: #000000; stroke-width: 0.8; stroke-linejoin: miter; stroke-linecap: square"/>
   </g>
   <g id="PathCollection_1">
    <defs>
     <path id="C0_0_301bc03723" d="M 0 1.5 
C 0.397805 1.5 0.77937 1.341951 1.06066 1.06066 
C 1.341951 0.77937 1.5 0.397805 1.5 -0 
C 1.5 -0.397805 1.341951 -0.77937 1.06066 -1.06066 
C 0.77937 -1.341951 0.397805 -1.5 0 -1.5 
C -0.397805 -1.5 -0.77937 -1.341951 -1.06066 -1.06066 
C -1.341951 -0.77937 -1.5 -0.397805 -1.5 0 
C -1.5 0.397805 -1.341951 0.77937 -1.06066 1.06066 
C -0.77937 1.341951 -0.397805 1.5 0 1.5 
z
"/>
    </defs>
    <g clip-path="url(#pef40bfe995)">
     <use xlink:href="#C0_0_301bc03723" x="48.700244" y="106.136233" style="fill: #262626"/>
    </g>
    <g clip-path="url(#pef40bfe995)">
     <use xlink:href="#C0_0_301bc03723" x="47.137458" y="106.203879" style="fill: #262626"/>
    </g>
    <g clip-path="url(#pef40bfe995)">
     <use xlink:href="#C0_0_301bc03723" x="49.806684" y="106.247734" style="fill: #262626"/>
    </g>
    <g clip-path="url(#pef40bfe995)">
     <use xlink:href="#C0_0_301bc03723" x="47.584537" y="106.202011" style="fill: #262626"/>
    </g>
    <g clip-path="url(#pef40bfe995)">
     <use xlink:href="#C0_0_301bc03723" x="47.136199" y="105.973339" style="fill: #262626"/>
    </g>
   </g>
   <g id="PathCollection_2">
    <defs>
     <path id="C1_0_8a883463b7" d="M 0 1.5 
C 0.397805 1.5 0.77937 1.341951 1.06066 1.06066 
C 1.341951 0.77937 1.5 0.397805 1.5 -0 
C 1.5 -0.397805 1.341951 -0.77937 1.06066 -1.06066 
C 0.77937 -1.341951 0.397805 -1.5 0 -1.5 
C -0.397805 -1.5 -0.77937 -1.341951 -1.06066 -1.06066 
C -1.341951 -0.77937 -1.5 -0.397805 -1.5 0 
C -1.5 0.397805 -1.341951 0.77937 -1.06066 1.06066 
C -0.77937 1.341951 -0.397805 1.5 0 1.5 
z
"/>
    </defs>
    <g clip-path="url(#pef40bfe995)">
     <use xlink:href="#C1_0_8a883463b7" x="62.845822" y="106.156543" style="fill: #191919"/>
    </g>
    <g clip-path="url(#pef40bfe995)">
     <use xlink:href="#C1_0_8a883463b7" x="61.569958" y="105.979296" style="fill: #191919"/>
    </g>
    <g clip-path="url(#pef40bfe995)">
     <use xlink:href="#C1_0_8a883463b7" x="62.934612" y="105.996658" style="fill: #191919"/>
    </g>
    <g clip-path="url(#pef40bfe995)">
     <use xlink:href="#C1_0_8a883463b7" x="62.750815" y="106.024236" style="fill: #191919"/>
    </g>
    <g clip-path="url(#pef40bfe995)">
     <use xlink:href="#C1_0_8a883463b7" x="62.520993" y="106.064627" style="fill: #191919"/>
    </g>
   </g>
   <g id="PathCollection_3">
    <defs>
     <path id="C2_0_a66c524738" d="M 0 1.5 
C 0.397805 1.5 0.77937 1.341951 1.06066 1.06066 
C 1.341951 0.77937 1.5 0.397805 1.5 -0 
C 1.5 -0.397805 1.341951 -0.77937 1.06066 -1.06066 
C 0.77937 -1.341951 0.397805 -1.5 0 -1.5 
C -0.397805 -1.5 -0.77937 -1.341951 -1.06066 -1.06066 
C -1.341951 -0.77937 -1.5 -0.397805 -1.5 0 
C -1.5 0.397805 -1.341951 0.77937 -1.06066 1.06066 
C -0.77937 1.341951 -0.397805 1.5 0 1.5 
z
"/>
    </defs>
    <g clip-path="url(#pef40bfe995)">
     <use xlink:href="#C2_0_a66c524738" x="78.026623" y="106.042344" style="fill: #0d0d0d"/>
    </g>
    <g clip-path="url(#pef40bfe995)">
     <use xlink:href="#C2_0_a66c524738" x="79.620192" y="106.138148" style="fill: #0d0d0d"/>
    </g>
    <g clip-path="url(#pef40bfe995)">
     <use xlink:href="#C2_0_a66c524738" x="77.198055" y="105.807192" style="fill: #0d0d0d"/>
    </g>
    <g clip-path="url(#pef40bfe995)">
     <use xlink:href="#C2_0_a66c524738" x="78.86814" y="105.275701" style="fill: #0d0d0d"/>
    </g>
    <g clip-path="url(#pef40bfe995)">
     <use xlink:href="#C2_0_a66c524738" x="79.537201" y="106.229539" style="fill: #0d0d0d"/>
    </g>
   </g>
   <g id="PathCollection_4">
    <defs>
     <path id="C3_0_ed32867a0d" d="M 0 1.5 
C 0.397805 1.5 0.77937 1.341951 1.06066 1.06066 
C 1.341951 0.77937 1.5 0.397805 1.5 -0 
C 1.5 -0.397805 1.341951 -0.77937 1.06066 -1.06066 
C 0.77937 -1.341951 0.397805 -1.5 0 -1.5 
C -0.397805 -1.5 -0.77937 -1.341951 -1.06066 -1.06066 
C -1.341951 -0.77937 -1.5 -0.397805 -1.5 0 
C -1.5 0.397805 -1.341951 0.77937 -1.06066 1.06066 
C -0.77937 1.341951 -0.397805 1.5 0 1.5 
z
"/>
    </defs>
    <g clip-path="url(#pef40bfe995)">
     <use xlink:href="#C3_0_ed32867a0d" x="95.180297" y="106.136193"/>
    </g>
    <g clip-path="url(#pef40bfe995)">
     <use xlink:href="#C3_0_ed32867a0d" x="94.500032" y="106.041931"/>
    </g>
    <g clip-path="url(#pef40bfe995)">
     <use xlink:href="#C3_0_ed32867a0d" x="92.765706" y="106.195812"/>
    </g>
    <g clip-path="url(#pef40bfe995)">
     <use xlink:href="#C3_0_ed32867a0d" x="91.868875" y="106.095849"/>
    </g>
    <g clip-path="url(#pef40bfe995)">
     <use xlink:href="#C3_0_ed32867a0d" x="92.952915" y="106.004881"/>
    </g>
   </g>
   <g id="PathCollection_5">
    <defs>
     <path id="C4_0_762438db45" d="M 0 1.5 
C 0.397805 1.5 0.77937 1.341951 1.06066 1.06066 
C 1.341951 0.77937 1.5 0.397805 1.5 -0 
C 1.5 -0.397805 1.341951 -0.77937 1.06066 -1.06066 
C 0.77937 -1.341951 0.397805 -1.5 0 -1.5 
C -0.397805 -1.5 -0.77937 -1.341951 -1.06066 -1.06066 
C -1.341951 -0.77937 -1.5 -0.397805 -1.5 0 
C -1.5 0.397805 -1.341951 0.77937 -1.06066 1.06066 
C -0.77937 1.341951 -0.397805 1.5 0 1.5 
z
"/>
    </defs>
    <g clip-path="url(#pef40bfe995)">
     <use xlink:href="#C4_0_762438db45" x="124.173611" y="59.239319" style="fill: #262626"/>
    </g>
    <g clip-path="url(#pef40bfe995)">
     <use xlink:href="#C4_0_762438db45" x="123.540327" y="48.199454" style="fill: #262626"/>
    </g>
    <g clip-path="url(#pef40bfe995)">
     <use xlink:href="#C4_0_762438db45" x="123.293318" y="59.402904" style="fill: #262626"/>
    </g>
    <g clip-path="url(#pef40bfe995)">
     <use xlink:href="#C4_0_762438db45" x="122.396517" y="53.634619" style="fill: #262626"/>
    </g>
    <g clip-path="url(#pef40bfe995)">
     <use xlink:href="#C4_0_762438db45" x="122.303606" y="63.22311" style="fill: #262626"/>
    </g>
   </g>
   <g id="PathCollection_6">
    <defs>
     <path id="C5_0_6fcc17d76f" d="M 0 1.5 
C 0.397805 1.5 0.77937 1.341951 1.06066 1.06066 
C 1.341951 0.77937 1.5 0.397805 1.5 -0 
C 1.5 -0.397805 1.341951 -0.77937 1.06066 -1.06066 
C 0.77937 -1.341951 0.397805 -1.5 0 -1.5 
C -0.397805 -1.5 -0.77937 -1.341951 -1.06066 -1.06066 
C -1.341951 -0.77937 -1.5 -0.397805 -1.5 0 
C -1.5 0.397805 -1.341951 0.77937 -1.06066 1.06066 
C -0.77937 1.341951 -0.397805 1.5 0 1.5 
z
"/>
    </defs>
    <g clip-path="url(#pef40bfe995)">
     <use xlink:href="#C5_0_6fcc17d76f" x="140.228355" y="47.455265" style="fill: #191919"/>
    </g>
    <g clip-path="url(#pef40bfe995)">
     <use xlink:href="#C5_0_6fcc17d76f" x="140.165985" y="44.904944" style="fill: #191919"/>
    </g>
    <g clip-path="url(#pef40bfe995)">
     <use xlink:href="#C5_0_6fcc17d76f" x="137.844657" y="45.925778" style="fill: #191919"/>
    </g>
    <g clip-path="url(#pef40bfe995)">
     <use xlink:href="#C5_0_6fcc17d76f" x="140.229437" y="49.523086" style="fill: #191919"/>
    </g>
    <g clip-path="url(#pef40bfe995)">
     <use xlink:href="#C5_0_6fcc17d76f" x="138.643964" y="58.664931" style="fill: #191919"/>
    </g>
   </g>
   <g id="PathCollection_7">
    <defs>
     <path id="C6_0_247a495dd9" d="M 0 1.5 
C 0.397805 1.5 0.77937 1.341951 1.06066 1.06066 
C 1.341951 0.77937 1.5 0.397805 1.5 -0 
C 1.5 -0.397805 1.341951 -0.77937 1.06066 -1.06066 
C 0.77937 -1.341951 0.397805 -1.5 0 -1.5 
C -0.397805 -1.5 -0.77937 -1.341951 -1.06066 -1.06066 
C -1.341951 -0.77937 -1.5 -0.397805 -1.5 0 
C -1.5 0.397805 -1.341951 0.77937 -1.06066 1.06066 
C -0.77937 1.341951 -0.397805 1.5 0 1.5 
z
"/>
    </defs>
    <g clip-path="url(#pef40bfe995)">
     <use xlink:href="#C6_0_247a495dd9" x="154.743577" y="38.626656" style="fill: #0d0d0d"/>
    </g>
    <g clip-path="url(#pef40bfe995)">
     <use xlink:href="#C6_0_247a495dd9" x="153.939939" y="61.120992" style="fill: #0d0d0d"/>
    </g>
    <g clip-path="url(#pef40bfe995)">
     <use xlink:href="#C6_0_247a495dd9" x="153.397559" y="60.114739" style="fill: #0d0d0d"/>
    </g>
    <g clip-path="url(#pef40bfe995)">
     <use xlink:href="#C6_0_247a495dd9" x="152.535208" y="55.581087" style="fill: #0d0d0d"/>
    </g>
    <g clip-path="url(#pef40bfe995)">
     <use xlink:href="#C6_0_247a495dd9" x="151.78877" y="59.964378" style="fill: #0d0d0d"/>
    </g>
   </g>
   <g id="PathCollection_8">
    <defs>
     <path id="C7_0_93606d2adf" d="M 0 1.5 
C 0.397805 1.5 0.77937 1.341951 1.06066 1.06066 
C 1.341951 0.77937 1.5 0.397805 1.5 -0 
C 1.5 -0.397805 1.341951 -0.77937 1.06066 -1.06066 
C 0.77937 -1.341951 0.397805 -1.5 0 -1.5 
C -0.397805 -1.5 -0.77937 -1.341951 -1.06066 -1.06066 
C -1.341951 -0.77937 -1.5 -0.397805 -1.5 0 
C -1.5 0.397805 -1.341951 0.77937 -1.06066 1.06066 
C -0.77937 1.341951 -0.397805 1.5 0 1.5 
z
"/>
    </defs>
    <g clip-path="url(#pef40bfe995)">
     <use xlink:href="#C7_0_93606d2adf" x="169.052177" y="71.183234"/>
    </g>
    <g clip-path="url(#pef40bfe995)">
     <use xlink:href="#C7_0_93606d2adf" x="168.594541" y="72.553875"/>
    </g>
    <g clip-path="url(#pef40bfe995)">
     <use xlink:href="#C7_0_93606d2adf" x="167.029112" y="71.204629"/>
    </g>
    <g clip-path="url(#pef40bfe995)">
     <use xlink:href="#C7_0_93606d2adf" x="167.237942" y="69.084681"/>
    </g>
    <g clip-path="url(#pef40bfe995)">
     <use xlink:href="#C7_0_93606d2adf" x="170.342321" y="69.656884"/>
    </g>
   </g>
   <g id="PathCollection_9">
    <defs>
     <path id="C8_0_269c3f1eb9" d="M 0 1.5 
C 0.397805 1.5 0.77937 1.341951 1.06066 1.06066 
C 1.341951 0.77937 1.5 0.397805 1.5 -0 
C 1.5 -0.397805 1.341951 -0.77937 1.06066 -1.06066 
C 0.77937 -1.341951 0.397805 -1.5 0 -1.5 
C -0.397805 -1.5 -0.77937 -1.341951 -1.06066 -1.06066 
C -1.341951 -0.77937 -1.5 -0.397805 -1.5 0 
C -1.5 0.397805 -1.341951 0.77937 -1.06066 1.06066 
C -0.77937 1.341951 -0.397805 1.5 0 1.5 
z
"/>
    </defs>
    <g clip-path="url(#pef40bfe995)">
     <use xlink:href="#C8_0_269c3f1eb9" x="198.827719" y="106.121864" style="fill: #262626"/>
    </g>
    <g clip-path="url(#pef40bfe995)">
     <use xlink:href="#C8_0_269c3f1eb9" x="198.49041" y="106.256361" style="fill: #262626"/>
    </g>
    <g clip-path="url(#pef40bfe995)">
     <use xlink:href="#C8_0_269c3f1eb9" x="197.061383" y="106.117738" style="fill: #262626"/>
    </g>
    <g clip-path="url(#pef40bfe995)">
     <use xlink:href="#C8_0_269c3f1eb9" x="196.864913" y="106.250788" style="fill: #262626"/>
    </g>
    <g clip-path="url(#pef40bfe995)">
     <use xlink:href="#C8_0_269c3f1eb9" x="199.476907" y="106.124263" style="fill: #262626"/>
    </g>
   </g>
   <g id="PathCollection_10">
    <defs>
     <path id="C9_0_57917c3f3f" d="M 0 1.5 
C 0.397805 1.5 0.77937 1.341951 1.06066 1.06066 
C 1.341951 0.77937 1.5 0.397805 1.5 -0 
C 1.5 -0.397805 1.341951 -0.77937 1.06066 -1.06066 
C 0.77937 -1.341951 0.397805 -1.5 0 -1.5 
C -0.397805 -1.5 -0.77937 -1.341951 -1.06066 -1.06066 
C -1.341951 -0.77937 -1.5 -0.397805 -1.5 0 
C -1.5 0.397805 -1.341951 0.77937 -1.06066 1.06066 
C -0.77937 1.341951 -0.397805 1.5 0 1.5 
z
"/>
    </defs>
    <g clip-path="url(#pef40bfe995)">
     <use xlink:href="#C9_0_57917c3f3f" x="211.961949" y="106.111145" style="fill: #191919"/>
    </g>
    <g clip-path="url(#pef40bfe995)">
     <use xlink:href="#C9_0_57917c3f3f" x="214.451277" y="106.129776" style="fill: #191919"/>
    </g>
    <g clip-path="url(#pef40bfe995)">
     <use xlink:href="#C9_0_57917c3f3f" x="214.177718" y="106.133369" style="fill: #191919"/>
    </g>
    <g clip-path="url(#pef40bfe995)">
     <use xlink:href="#C9_0_57917c3f3f" x="214.708038" y="105.669536" style="fill: #191919"/>
    </g>
    <g clip-path="url(#pef40bfe995)">
     <use xlink:href="#C9_0_57917c3f3f" x="211.950679" y="106.023077" style="fill: #191919"/>
    </g>
   </g>
   <g id="PathCollection_11">
    <defs>
     <path id="Ca_0_e56fa285c5" d="M 0 1.5 
C 0.397805 1.5 0.77937 1.341951 1.06066 1.06066 
C 1.341951 0.77937 1.5 0.397805 1.5 -0 
C 1.5 -0.397805 1.341951 -0.77937 1.06066 -1.06066 
C 0.77937 -1.341951 0.397805 -1.5 0 -1.5 
C -0.397805 -1.5 -0.77937 -1.341951 -1.06066 -1.06066 
C -1.341951 -0.77937 -1.5 -0.397805 -1.5 0 
C -1.5 0.397805 -1.341951 0.77937 -1.06066 1.06066 
C -0.77937 1.341951 -0.397805 1.5 0 1.5 
z
"/>
    </defs>
    <g clip-path="url(#pef40bfe995)">
     <use xlink:href="#Ca_0_e56fa285c5" x="227.805971" y="106.380766" style="fill: #0d0d0d"/>
    </g>
    <g clip-path="url(#pef40bfe995)">
     <use xlink:href="#Ca_0_e56fa285c5" x="229.258957" y="106.282503" style="fill: #0d0d0d"/>
    </g>
    <g clip-path="url(#pef40bfe995)">
     <use xlink:href="#Ca_0_e56fa285c5" x="228.455265" y="106.022554" style="fill: #0d0d0d"/>
    </g>
    <g clip-path="url(#pef40bfe995)">
     <use xlink:href="#Ca_0_e56fa285c5" x="230.265364" y="106.026382" style="fill: #0d0d0d"/>
    </g>
    <g clip-path="url(#pef40bfe995)">
     <use xlink:href="#Ca_0_e56fa285c5" x="228.184966" y="105.819383" style="fill: #0d0d0d"/>
    </g>
   </g>
   <g id="PathCollection_12">
    <defs>
     <path id="Cb_0_f2c4124858" d="M 0 1.5 
C 0.397805 1.5 0.77937 1.341951 1.06066 1.06066 
C 1.341951 0.77937 1.5 0.397805 1.5 -0 
C 1.5 -0.397805 1.341951 -0.77937 1.06066 -1.06066 
C 0.77937 -1.341951 0.397805 -1.5 0 -1.5 
C -0.397805 -1.5 -0.77937 -1.341951 -1.06066 -1.06066 
C -1.341951 -0.77937 -1.5 -0.397805 -1.5 0 
C -1.5 0.397805 -1.341951 0.77937 -1.06066 1.06066 
C -0.77937 1.341951 -0.397805 1.5 0 1.5 
z
"/>
    </defs>
    <g clip-path="url(#pef40bfe995)">
     <use xlink:href="#Cb_0_f2c4124858" x="243.917726" y="106.240095"/>
    </g>
    <g clip-path="url(#pef40bfe995)">
     <use xlink:href="#Cb_0_f2c4124858" x="245.451099" y="106.255578"/>
    </g>
    <g clip-path="url(#pef40bfe995)">
     <use xlink:href="#Cb_0_f2c4124858" x="245.445648" y="106.05742"/>
    </g>
    <g clip-path="url(#pef40bfe995)">
     <use xlink:href="#Cb_0_f2c4124858" x="243.345714" y="106.264307"/>
    </g>
    <g clip-path="url(#pef40bfe995)">
     <use xlink:href="#Cb_0_f2c4124858" x="245.328043" y="106.133173"/>
    </g>
   </g>
   <g id="PathCollection_13">
    <defs>
     <path id="Cc_0_97de76dbfb" d="M 0 1.5 
C 0.397805 1.5 0.77937 1.341951 1.06066 1.06066 
C 1.341951 0.77937 1.5 0.397805 1.5 -0 
C 1.5 -0.397805 1.341951 -0.77937 1.06066 -1.06066 
C 0.77937 -1.341951 0.397805 -1.5 0 -1.5 
C -0.397805 -1.5 -0.77937 -1.341951 -1.06066 -1.06066 
C -1.341951 -0.77937 -1.5 -0.397805 -1.5 0 
C -1.5 0.397805 -1.341951 0.77937 -1.06066 1.06066 
C -0.77937 1.341951 -0.397805 1.5 0 1.5 
z
"/>
    </defs>
    <g clip-path="url(#pef40bfe995)">
     <use xlink:href="#Cc_0_97de76dbfb" x="272.491936" y="33.63399" style="fill: #262626"/>
    </g>
    <g clip-path="url(#pef40bfe995)">
     <use xlink:href="#Cc_0_97de76dbfb" x="275.167262" y="63.643043" style="fill: #262626"/>
    </g>
    <g clip-path="url(#pef40bfe995)">
     <use xlink:href="#Cc_0_97de76dbfb" x="273.167414" y="51.144289" style="fill: #262626"/>
    </g>
    <g clip-path="url(#pef40bfe995)">
     <use xlink:href="#Cc_0_97de76dbfb" x="272.142918" y="55.560654" style="fill: #262626"/>
    </g>
    <g clip-path="url(#pef40bfe995)">
     <use xlink:href="#Cc_0_97de76dbfb" x="272.808152" y="62.427119" style="fill: #262626"/>
    </g>
   </g>
   <g id="PathCollection_14">
    <defs>
     <path id="Cd_0_34a7a3e880" d="M 0 1.5 
C 0.397805 1.5 0.77937 1.341951 1.06066 1.06066 
C 1.341951 0.77937 1.5 0.397805 1.5 -0 
C 1.5 -0.397805 1.341951 -0.77937 1.06066 -1.06066 
C 0.77937 -1.341951 0.397805 -1.5 0 -1.5 
C -0.397805 -1.5 -0.77937 -1.341951 -1.06066 -1.06066 
C -1.341951 -0.77937 -1.5 -0.397805 -1.5 0 
C -1.5 0.397805 -1.341951 0.77937 -1.06066 1.06066 
C -0.77937 1.341951 -0.397805 1.5 0 1.5 
z
"/>
    </defs>
    <g clip-path="url(#pef40bfe995)">
     <use xlink:href="#Cd_0_34a7a3e880" x="287.984869" y="47.831396" style="fill: #191919"/>
    </g>
    <g clip-path="url(#pef40bfe995)">
     <use xlink:href="#Cd_0_34a7a3e880" x="289.259014" y="48.951884" style="fill: #191919"/>
    </g>
    <g clip-path="url(#pef40bfe995)">
     <use xlink:href="#Cd_0_34a7a3e880" x="289.824805" y="41.668473" style="fill: #191919"/>
    </g>
    <g clip-path="url(#pef40bfe995)">
     <use xlink:href="#Cd_0_34a7a3e880" x="290.556523" y="41.244435" style="fill: #191919"/>
    </g>
    <g clip-path="url(#pef40bfe995)">
     <use xlink:href="#Cd_0_34a7a3e880" x="287.642713" y="60.327283" style="fill: #191919"/>
    </g>
   </g>
   <g id="PathCollection_15">
    <defs>
     <path id="Ce_0_0e3cd85dd5" d="M 0 1.5 
C 0.397805 1.5 0.77937 1.341951 1.06066 1.06066 
C 1.341951 0.77937 1.5 0.397805 1.5 -0 
C 1.5 -0.397805 1.341951 -0.77937 1.06066 -1.06066 
C 0.77937 -1.341951 0.397805 -1.5 0 -1.5 
C -0.397805 -1.5 -0.77937 -1.341951 -1.06066 -1.06066 
C -1.341951 -0.77937 -1.5 -0.397805 -1.5 0 
C -1.5 0.397805 -1.341951 0.77937 -1.06066 1.06066 
C -0.77937 1.341951 -0.397805 1.5 0 1.5 
z
"/>
    </defs>
    <g clip-path="url(#pef40bfe995)">
     <use xlink:href="#Ce_0_0e3cd85dd5" x="304.719534" y="47.149409" style="fill: #0d0d0d"/>
    </g>
    <g clip-path="url(#pef40bfe995)">
     <use xlink:href="#Ce_0_0e3cd85dd5" x="303.412828" y="49.7828" style="fill: #0d0d0d"/>
    </g>
    <g clip-path="url(#pef40bfe995)">
     <use xlink:href="#Ce_0_0e3cd85dd5" x="305.346637" y="48.674772" style="fill: #0d0d0d"/>
    </g>
    <g clip-path="url(#pef40bfe995)">
     <use xlink:href="#Ce_0_0e3cd85dd5" x="303.376716" y="57.848223" style="fill: #0d0d0d"/>
    </g>
    <g clip-path="url(#pef40bfe995)">
     <use xlink:href="#Ce_0_0e3cd85dd5" x="303.957376" y="57.248046" style="fill: #0d0d0d"/>
    </g>
   </g>
   <g id="PathCollection_16">
    <defs>
     <path id="Cf_0_f8735307fa" d="M 0 1.5 
C 0.397805 1.5 0.77937 1.341951 1.06066 1.06066 
C 1.341951 0.77937 1.5 0.397805 1.5 -0 
C 1.5 -0.397805 1.341951 -0.77937 1.06066 -1.06066 
C 0.77937 -1.341951 0.397805 -1.5 0 -1.5 
C -0.397805 -1.5 -0.77937 -1.341951 -1.06066 -1.06066 
C -1.341951 -0.77937 -1.5 -0.397805 -1.5 0 
C -1.5 0.397805 -1.341951 0.77937 -1.06066 1.06066 
C -0.77937 1.341951 -0.397805 1.5 0 1.5 
z
"/>
    </defs>
    <g clip-path="url(#pef40bfe995)">
     <use xlink:href="#Cf_0_f8735307fa" x="317.947466" y="67.975972"/>
    </g>
    <g clip-path="url(#pef40bfe995)">
     <use xlink:href="#Cf_0_f8735307fa" x="319.407513" y="68.684169"/>
    </g>
    <g clip-path="url(#pef40bfe995)">
     <use xlink:href="#Cf_0_f8735307fa" x="320.773558" y="69.534438"/>
    </g>
    <g clip-path="url(#pef40bfe995)">
     <use xlink:href="#Cf_0_f8735307fa" x="319.655568" y="67.289793"/>
    </g>
    <g clip-path="url(#pef40bfe995)">
     <use xlink:href="#Cf_0_f8735307fa" x="319.325621" y="64.106596"/>
    </g>
   </g>
   <g id="text_10">
    <!-- * -->
    <g transform="translate(151.109704 27.942428) scale(0.1 -0.1)">
     <defs>
      <path id="DejaVuSans-2a" d="M 3009 3897 
L 1888 3291 
L 3009 2681 
L 2828 2375 
L 1778 3009 
L 1778 1831 
L 1422 1831 
L 1422 3009 
L 372 2375 
L 191 2681 
L 1313 3291 
L 191 3897 
L 372 4206 
L 1422 3572 
L 1422 4750 
L 1778 4750 
L 1778 3572 
L 2828 4206 
L 3009 3897 
z
" transform="scale(0.015625)"/>
     </defs>
     <use xlink:href="#DejaVuSans-2a"/>
    </g>
   </g>
   <g id="text_11">
    <!-- yeast -->
    <g transform="translate(167.272812 16.318125) scale(0.12 -0.12)">
     <defs>
      <path id="DejaVuSans-79" d="M 2059 -325 
Q 1816 -950 1584 -1140 
Q 1353 -1331 966 -1331 
L 506 -1331 
L 506 -850 
L 844 -850 
Q 1081 -850 1212 -737 
Q 1344 -625 1503 -206 
L 1606 56 
L 191 3500 
L 800 3500 
L 1894 763 
L 2988 3500 
L 3597 3500 
L 2059 -325 
z
" transform="scale(0.015625)"/>
     </defs>
     <use xlink:href="#DejaVuSans-79"/>
     <use xlink:href="#DejaVuSans-65" x="59.179688"/>
     <use xlink:href="#DejaVuSans-61" x="120.703125"/>
     <use xlink:href="#DejaVuSans-73" x="181.982422"/>
     <use xlink:href="#DejaVuSans-74" x="234.082031"/>
    </g>
   </g>
   <g id="legend_1">
    <g id="patch_27">
     <path d="M 333.46 105.018105 
L 400.886562 105.018105 
Q 402.886562 105.018105 402.886562 103.018105 
L 402.886562 45.305605 
Q 402.886562 43.305605 400.886562 43.305605 
L 333.46 43.305605 
Q 331.46 43.305605 331.46 45.305605 
L 331.46 103.018105 
Q 331.46 105.018105 333.46 105.018105 
z
" style="fill: #ffffff; opacity: 0.8; stroke: #cccccc; stroke-linejoin: miter"/>
    </g>
    <g id="patch_28">
     <path d="M 335.46 54.904043 
L 355.46 54.904043 
L 355.46 47.904043 
L 335.46 47.904043 
z
" style="fill: #3274a1; stroke: #3d3d3d; stroke-width: 0.75; stroke-linejoin: miter"/>
    </g>
    <g id="text_12">
     <!-- none -->
     <g transform="translate(363.46 54.904043) scale(0.1 -0.1)">
      <use xlink:href="#DejaVuSans-6e"/>
      <use xlink:href="#DejaVuSans-6f" x="63.378906"/>
      <use xlink:href="#DejaVuSans-6e" x="124.560547"/>
      <use xlink:href="#DejaVuSans-65" x="187.939453"/>
     </g>
    </g>
    <g id="patch_29">
     <path d="M 335.46 69.582168 
L 355.46 69.582168 
L 355.46 62.582168 
L 335.46 62.582168 
z
" style="fill: #e1812c; stroke: #3d3d3d; stroke-width: 0.75; stroke-linejoin: miter"/>
    </g>
    <g id="text_13">
     <!-- drop30 -->
     <g transform="translate(363.46 69.582168) scale(0.1 -0.1)">
      <defs>
       <path id="DejaVuSans-33" d="M 2597 2516 
Q 3050 2419 3304 2112 
Q 3559 1806 3559 1356 
Q 3559 666 3084 287 
Q 2609 -91 1734 -91 
Q 1441 -91 1130 -33 
Q 819 25 488 141 
L 488 750 
Q 750 597 1062 519 
Q 1375 441 1716 441 
Q 2309 441 2620 675 
Q 2931 909 2931 1356 
Q 2931 1769 2642 2001 
Q 2353 2234 1838 2234 
L 1294 2234 
L 1294 2753 
L 1863 2753 
Q 2328 2753 2575 2939 
Q 2822 3125 2822 3475 
Q 2822 3834 2567 4026 
Q 2313 4219 1838 4219 
Q 1578 4219 1281 4162 
Q 984 4106 628 3988 
L 628 4550 
Q 988 4650 1302 4700 
Q 1616 4750 1894 4750 
Q 2613 4750 3031 4423 
Q 3450 4097 3450 3541 
Q 3450 3153 3228 2886 
Q 3006 2619 2597 2516 
z
" transform="scale(0.015625)"/>
      </defs>
      <use xlink:href="#DejaVuSans-64"/>
      <use xlink:href="#DejaVuSans-72" x="63.476562"/>
      <use xlink:href="#DejaVuSans-6f" x="102.339844"/>
      <use xlink:href="#DejaVuSans-70" x="163.521484"/>
      <use xlink:href="#DejaVuSans-33" x="226.998047"/>
      <use xlink:href="#DejaVuSans-30" x="290.621094"/>
     </g>
    </g>
    <g id="patch_30">
     <path d="M 335.46 84.260293 
L 355.46 84.260293 
L 355.46 77.260293 
L 335.46 77.260293 
z
" style="fill: #3a923a; stroke: #3d3d3d; stroke-width: 0.75; stroke-linejoin: miter"/>
    </g>
    <g id="text_14">
     <!-- drop50 -->
     <g transform="translate(363.46 84.260293) scale(0.1 -0.1)">
      <defs>
       <path id="DejaVuSans-35" d="M 691 4666 
L 3169 4666 
L 3169 4134 
L 1269 4134 
L 1269 2991 
Q 1406 3038 1543 3061 
Q 1681 3084 1819 3084 
Q 2600 3084 3056 2656 
Q 3513 2228 3513 1497 
Q 3513 744 3044 326 
Q 2575 -91 1722 -91 
Q 1428 -91 1123 -41 
Q 819 9 494 109 
L 494 744 
Q 775 591 1075 516 
Q 1375 441 1709 441 
Q 2250 441 2565 725 
Q 2881 1009 2881 1497 
Q 2881 1984 2565 2268 
Q 2250 2553 1709 2553 
Q 1456 2553 1204 2497 
Q 953 2441 691 2322 
L 691 4666 
z
" transform="scale(0.015625)"/>
      </defs>
      <use xlink:href="#DejaVuSans-64"/>
      <use xlink:href="#DejaVuSans-72" x="63.476562"/>
      <use xlink:href="#DejaVuSans-6f" x="102.339844"/>
      <use xlink:href="#DejaVuSans-70" x="163.521484"/>
      <use xlink:href="#DejaVuSans-35" x="226.998047"/>
      <use xlink:href="#DejaVuSans-30" x="290.621094"/>
     </g>
    </g>
    <g id="patch_31">
     <path d="M 335.46 98.938418 
L 355.46 98.938418 
L 355.46 91.938418 
L 335.46 91.938418 
z
" style="fill: #c03d3e; stroke: #3d3d3d; stroke-width: 0.75; stroke-linejoin: miter"/>
    </g>
    <g id="text_15">
     <!-- drop80 -->
     <g transform="translate(363.46 98.938418) scale(0.1 -0.1)">
      <defs>
       <path id="DejaVuSans-38" d="M 2034 2216 
Q 1584 2216 1326 1975 
Q 1069 1734 1069 1313 
Q 1069 891 1326 650 
Q 1584 409 2034 409 
Q 2484 409 2743 651 
Q 3003 894 3003 1313 
Q 3003 1734 2745 1975 
Q 2488 2216 2034 2216 
z
M 1403 2484 
Q 997 2584 770 2862 
Q 544 3141 544 3541 
Q 544 4100 942 4425 
Q 1341 4750 2034 4750 
Q 2731 4750 3128 4425 
Q 3525 4100 3525 3541 
Q 3525 3141 3298 2862 
Q 3072 2584 2669 2484 
Q 3125 2378 3379 2068 
Q 3634 1759 3634 1313 
Q 3634 634 3220 271 
Q 2806 -91 2034 -91 
Q 1263 -91 848 271 
Q 434 634 434 1313 
Q 434 1759 690 2068 
Q 947 2378 1403 2484 
z
M 1172 3481 
Q 1172 3119 1398 2916 
Q 1625 2713 2034 2713 
Q 2441 2713 2670 2916 
Q 2900 3119 2900 3481 
Q 2900 3844 2670 4047 
Q 2441 4250 2034 4250 
Q 1625 4250 1398 4047 
Q 1172 3844 1172 3481 
z
" transform="scale(0.015625)"/>
      </defs>
      <use xlink:href="#DejaVuSans-64"/>
      <use xlink:href="#DejaVuSans-72" x="63.476562"/>
      <use xlink:href="#DejaVuSans-6f" x="102.339844"/>
      <use xlink:href="#DejaVuSans-70" x="163.521484"/>
      <use xlink:href="#DejaVuSans-38" x="226.998047"/>
      <use xlink:href="#DejaVuSans-30" x="290.621094"/>
     </g>
    </g>
   </g>
  </g>
 </g>
 <defs>
  <clipPath id="pef40bfe995">
   <rect x="40.88125" y="22.318125" width="285.57875" height="87.69998"/>
  </clipPath>
 </defs>
</svg>
