<?xml version="1.0" encoding="utf-8" standalone="no"?>
<!DOCTYPE svg PUBLIC "-//W3C//DTD SVG 1.1//EN"
  "http://www.w3.org/Graphics/SVG/1.1/DTD/svg11.dtd">
<svg xmlns:xlink="http://www.w3.org/1999/xlink" width="410.211562pt" height="207.302882pt" viewBox="0 0 410.211562 207.302882" xmlns="http://www.w3.org/2000/svg" version="1.1">
 <metadata>
  <rdf:RDF xmlns:dc="http://purl.org/dc/elements/1.1/" xmlns:cc="http://creativecommons.org/ns#" xmlns:rdf="http://www.w3.org/1999/02/22-rdf-syntax-ns#">
   <cc:Work>
    <dc:type rdf:resource="http://purl.org/dc/dcmitype/StillImage"/>
    <dc:date>2023-06-23T11:47:16.328474</dc:date>
    <dc:format>image/svg+xml</dc:format>
    <dc:creator>
     <cc:Agent>
      <dc:title>Matplotlib v3.7.1, https://matplotlib.org/</dc:title>
     </cc:Agent>
    </dc:creator>
   </cc:Work>
  </rdf:RDF>
 </metadata>
 <defs>
  <style type="text/css">*{stroke-linejoin: round; stroke-linecap: butt}</style>
 </defs>
 <g id="figure_1">
  <g id="patch_1">
   <path d="M -0 207.302882 
L 410.211562 207.302882 
L 410.211562 0 
L -0 0 
L -0 207.302882 
z
" style="fill: none"/>
  </g>
  <g id="axes_1">
   <g id="patch_2">
    <path d="M 53.60625 110.018105 
L 326.585 110.018105 
L 326.585 22.318125 
L 53.60625 22.318125 
L 53.60625 110.018105 
z
" style="fill: none"/>
   </g>
   <g id="patch_3">
    <path d="M 53.749923 105.247907 
L 67.82988 105.247907 
L 67.82988 105.196475 
L 53.749923 105.196475 
L 53.749923 105.247907 
z
" clip-path="url(#p26adc2e880)" style="fill: #3274a1; stroke: #3d3d3d; stroke-width: 1.5; stroke-linejoin: miter"/>
   </g>
   <g id="patch_4">
    <path d="M 68.117226 104.998155 
L 82.197182 104.998155 
L 82.197182 104.899711 
L 68.117226 104.899711 
L 68.117226 104.998155 
z
" clip-path="url(#p26adc2e880)" style="fill: #e1812c; stroke: #3d3d3d; stroke-width: 1.5; stroke-linejoin: miter"/>
   </g>
   <g id="patch_5">
    <path d="M 82.484528 104.863176 
L 96.564485 104.863176 
L 96.564485 104.767437 
L 82.484528 104.767437 
L 82.484528 104.863176 
z
" clip-path="url(#p26adc2e880)" style="fill: #3a923a; stroke: #3d3d3d; stroke-width: 1.5; stroke-linejoin: miter"/>
   </g>
   <g id="patch_6">
    <path d="M 96.851831 104.246478 
L 110.931787 104.246478 
L 110.931787 104.178807 
L 96.851831 104.178807 
L 96.851831 104.246478 
z
" clip-path="url(#p26adc2e880)" style="fill: #c03d3e; stroke: #3d3d3d; stroke-width: 1.5; stroke-linejoin: miter"/>
   </g>
   <g id="patch_7">
    <path d="M 125.586436 60.173624 
L 139.666393 60.173624 
L 139.666393 59.471219 
L 125.586436 59.471219 
L 125.586436 60.173624 
z
" clip-path="url(#p26adc2e880)" style="fill: #3274a1; stroke: #3d3d3d; stroke-width: 1.5; stroke-linejoin: miter"/>
   </g>
   <g id="patch_8">
    <path d="M 139.953739 57.981562 
L 154.033695 57.981562 
L 154.033695 56.473265 
L 139.953739 56.473265 
L 139.953739 57.981562 
z
" clip-path="url(#p26adc2e880)" style="fill: #e1812c; stroke: #3d3d3d; stroke-width: 1.5; stroke-linejoin: miter"/>
   </g>
   <g id="patch_9">
    <path d="M 154.321041 57.502079 
L 168.400998 57.502079 
L 168.400998 55.083461 
L 154.321041 55.083461 
L 154.321041 57.502079 
z
" clip-path="url(#p26adc2e880)" style="fill: #3a923a; stroke: #3d3d3d; stroke-width: 1.5; stroke-linejoin: miter"/>
   </g>
   <g id="patch_10">
    <path d="M 168.688344 39.088952 
L 182.768301 39.088952 
L 182.768301 37.214689 
L 168.688344 37.214689 
L 168.688344 39.088952 
z
" clip-path="url(#p26adc2e880)" style="fill: #c03d3e; stroke: #3d3d3d; stroke-width: 1.5; stroke-linejoin: miter"/>
   </g>
   <g id="patch_11">
    <path d="M 197.422949 106.518881 
L 211.502906 106.518881 
L 211.502906 106.483329 
L 197.422949 106.483329 
L 197.422949 106.518881 
z
" clip-path="url(#p26adc2e880)" style="fill: #3274a1; stroke: #3d3d3d; stroke-width: 1.5; stroke-linejoin: miter"/>
   </g>
   <g id="patch_12">
    <path d="M 211.790252 106.372772 
L 225.870209 106.372772 
L 225.870209 106.343585 
L 211.790252 106.343585 
L 211.790252 106.372772 
z
" clip-path="url(#p26adc2e880)" style="fill: #e1812c; stroke: #3d3d3d; stroke-width: 1.5; stroke-linejoin: miter"/>
   </g>
   <g id="patch_13">
    <path d="M 226.157555 106.324966 
L 240.237511 106.324966 
L 240.237511 106.28588 
L 226.157555 106.28588 
L 226.157555 106.324966 
z
" clip-path="url(#p26adc2e880)" style="fill: #3a923a; stroke: #3d3d3d; stroke-width: 1.5; stroke-linejoin: miter"/>
   </g>
   <g id="patch_14">
    <path d="M 240.524857 105.997229 
L 254.604814 105.997229 
L 254.604814 105.888948 
L 240.524857 105.888948 
L 240.524857 105.997229 
z
" clip-path="url(#p26adc2e880)" style="fill: #c03d3e; stroke: #3d3d3d; stroke-width: 1.5; stroke-linejoin: miter"/>
   </g>
   <g id="patch_15">
    <path d="M 269.259462 64.936265 
L 283.339419 64.936265 
L 283.339419 61.363499 
L 269.259462 61.363499 
L 269.259462 64.936265 
z
" clip-path="url(#p26adc2e880)" style="fill: #3274a1; stroke: #3d3d3d; stroke-width: 1.5; stroke-linejoin: miter"/>
   </g>
   <g id="patch_16">
    <path d="M 283.626765 62.017505 
L 297.706722 62.017505 
L 297.706722 58.917734 
L 283.626765 58.917734 
L 283.626765 62.017505 
z
" clip-path="url(#p26adc2e880)" style="fill: #e1812c; stroke: #3d3d3d; stroke-width: 1.5; stroke-linejoin: miter"/>
   </g>
   <g id="patch_17">
    <path d="M 297.994068 61.85726 
L 312.074024 61.85726 
L 312.074024 57.318589 
L 297.994068 57.318589 
L 297.994068 61.85726 
z
" clip-path="url(#p26adc2e880)" style="fill: #3a923a; stroke: #3d3d3d; stroke-width: 1.5; stroke-linejoin: miter"/>
   </g>
   <g id="patch_18">
    <path d="M 312.36137 58.949208 
L 326.441327 58.949208 
L 326.441327 57.928331 
L 312.36137 57.928331 
L 312.36137 58.949208 
z
" clip-path="url(#p26adc2e880)" style="fill: #c03d3e; stroke: #3d3d3d; stroke-width: 1.5; stroke-linejoin: miter"/>
   </g>
   <g id="patch_19">
    <path d="M 82.340855 107.807282 
L 82.340855 107.807282 
L 82.340855 107.807282 
L 82.340855 107.807282 
z
" clip-path="url(#p26adc2e880)" style="fill: #3274a1; stroke: #3d3d3d; stroke-width: 0.75; stroke-linejoin: miter"/>
   </g>
   <g id="patch_20">
    <path d="M 82.340855 107.807282 
L 82.340855 107.807282 
L 82.340855 107.807282 
L 82.340855 107.807282 
z
" clip-path="url(#p26adc2e880)" style="fill: #e1812c; stroke: #3d3d3d; stroke-width: 0.75; stroke-linejoin: miter"/>
   </g>
   <g id="patch_21">
    <path d="M 82.340855 107.807282 
L 82.340855 107.807282 
L 82.340855 107.807282 
L 82.340855 107.807282 
z
" clip-path="url(#p26adc2e880)" style="fill: #3a923a; stroke: #3d3d3d; stroke-width: 0.75; stroke-linejoin: miter"/>
   </g>
   <g id="patch_22">
    <path d="M 82.340855 107.807282 
L 82.340855 107.807282 
L 82.340855 107.807282 
L 82.340855 107.807282 
z
" clip-path="url(#p26adc2e880)" style="fill: #c03d3e; stroke: #3d3d3d; stroke-width: 0.75; stroke-linejoin: miter"/>
   </g>
   <g id="matplotlib.axis_1">
    <g id="xtick_1">
     <g id="line2d_1">
      <defs>
       <path id="ma9af31d51e" d="M 0 0 
L 0 3.5 
" style="stroke: #000000; stroke-width: 0.8"/>
      </defs>
      <g>
       <use xlink:href="#ma9af31d51e" x="82.340855" y="110.018105" style="stroke: #000000; stroke-width: 0.8"/>
      </g>
     </g>
     <g id="text_1">
      <!-- proba_weak -->
      <g transform="translate(38.190876 164.873766) rotate(-45) scale(0.1 -0.1)">
       <defs>
        <path id="DejaVuSans-70" d="M 1159 525 
L 1159 -1331 
L 581 -1331 
L 581 3500 
L 1159 3500 
L 1159 2969 
Q 1341 3281 1617 3432 
Q 1894 3584 2278 3584 
Q 2916 3584 3314 3078 
Q 3713 2572 3713 1747 
Q 3713 922 3314 415 
Q 2916 -91 2278 -91 
Q 1894 -91 1617 61 
Q 1341 213 1159 525 
z
M 3116 1747 
Q 3116 2381 2855 2742 
Q 2594 3103 2138 3103 
Q 1681 3103 1420 2742 
Q 1159 2381 1159 1747 
Q 1159 1113 1420 752 
Q 1681 391 2138 391 
Q 2594 391 2855 752 
Q 3116 1113 3116 1747 
z
" transform="scale(0.015625)"/>
        <path id="DejaVuSans-72" d="M 2631 2963 
Q 2534 3019 2420 3045 
Q 2306 3072 2169 3072 
Q 1681 3072 1420 2755 
Q 1159 2438 1159 1844 
L 1159 0 
L 581 0 
L 581 3500 
L 1159 3500 
L 1159 2956 
Q 1341 3275 1631 3429 
Q 1922 3584 2338 3584 
Q 2397 3584 2469 3576 
Q 2541 3569 2628 3553 
L 2631 2963 
z
" transform="scale(0.015625)"/>
        <path id="DejaVuSans-6f" d="M 1959 3097 
Q 1497 3097 1228 2736 
Q 959 2375 959 1747 
Q 959 1119 1226 758 
Q 1494 397 1959 397 
Q 2419 397 2687 759 
Q 2956 1122 2956 1747 
Q 2956 2369 2687 2733 
Q 2419 3097 1959 3097 
z
M 1959 3584 
Q 2709 3584 3137 3096 
Q 3566 2609 3566 1747 
Q 3566 888 3137 398 
Q 2709 -91 1959 -91 
Q 1206 -91 779 398 
Q 353 888 353 1747 
Q 353 2609 779 3096 
Q 1206 3584 1959 3584 
z
" transform="scale(0.015625)"/>
        <path id="DejaVuSans-62" d="M 3116 1747 
Q 3116 2381 2855 2742 
Q 2594 3103 2138 3103 
Q 1681 3103 1420 2742 
Q 1159 2381 1159 1747 
Q 1159 1113 1420 752 
Q 1681 391 2138 391 
Q 2594 391 2855 752 
Q 3116 1113 3116 1747 
z
M 1159 2969 
Q 1341 3281 1617 3432 
Q 1894 3584 2278 3584 
Q 2916 3584 3314 3078 
Q 3713 2572 3713 1747 
Q 3713 922 3314 415 
Q 2916 -91 2278 -91 
Q 1894 -91 1617 61 
Q 1341 213 1159 525 
L 1159 0 
L 581 0 
L 581 4863 
L 1159 4863 
L 1159 2969 
z
" transform="scale(0.015625)"/>
        <path id="DejaVuSans-61" d="M 2194 1759 
Q 1497 1759 1228 1600 
Q 959 1441 959 1056 
Q 959 750 1161 570 
Q 1363 391 1709 391 
Q 2188 391 2477 730 
Q 2766 1069 2766 1631 
L 2766 1759 
L 2194 1759 
z
M 3341 1997 
L 3341 0 
L 2766 0 
L 2766 531 
Q 2569 213 2275 61 
Q 1981 -91 1556 -91 
Q 1019 -91 701 211 
Q 384 513 384 1019 
Q 384 1609 779 1909 
Q 1175 2209 1959 2209 
L 2766 2209 
L 2766 2266 
Q 2766 2663 2505 2880 
Q 2244 3097 1772 3097 
Q 1472 3097 1187 3025 
Q 903 2953 641 2809 
L 641 3341 
Q 956 3463 1253 3523 
Q 1550 3584 1831 3584 
Q 2591 3584 2966 3190 
Q 3341 2797 3341 1997 
z
" transform="scale(0.015625)"/>
        <path id="DejaVuSans-5f" d="M 3263 -1063 
L 3263 -1509 
L -63 -1509 
L -63 -1063 
L 3263 -1063 
z
" transform="scale(0.015625)"/>
        <path id="DejaVuSans-77" d="M 269 3500 
L 844 3500 
L 1563 769 
L 2278 3500 
L 2956 3500 
L 3675 769 
L 4391 3500 
L 4966 3500 
L 4050 0 
L 3372 0 
L 2619 2869 
L 1863 0 
L 1184 0 
L 269 3500 
z
" transform="scale(0.015625)"/>
        <path id="DejaVuSans-65" d="M 3597 1894 
L 3597 1613 
L 953 1613 
Q 991 1019 1311 708 
Q 1631 397 2203 397 
Q 2534 397 2845 478 
Q 3156 559 3463 722 
L 3463 178 
Q 3153 47 2828 -22 
Q 2503 -91 2169 -91 
Q 1331 -91 842 396 
Q 353 884 353 1716 
Q 353 2575 817 3079 
Q 1281 3584 2069 3584 
Q 2775 3584 3186 3129 
Q 3597 2675 3597 1894 
z
M 3022 2063 
Q 3016 2534 2758 2815 
Q 2500 3097 2075 3097 
Q 1594 3097 1305 2825 
Q 1016 2553 972 2059 
L 3022 2063 
z
" transform="scale(0.015625)"/>
        <path id="DejaVuSans-6b" d="M 581 4863 
L 1159 4863 
L 1159 1991 
L 2875 3500 
L 3609 3500 
L 1753 1863 
L 3688 0 
L 2938 0 
L 1159 1709 
L 1159 0 
L 581 0 
L 581 4863 
z
" transform="scale(0.015625)"/>
       </defs>
       <use xlink:href="#DejaVuSans-70"/>
       <use xlink:href="#DejaVuSans-72" x="63.476562"/>
       <use xlink:href="#DejaVuSans-6f" x="102.339844"/>
       <use xlink:href="#DejaVuSans-62" x="163.521484"/>
       <use xlink:href="#DejaVuSans-61" x="226.998047"/>
       <use xlink:href="#DejaVuSans-5f" x="288.277344"/>
       <use xlink:href="#DejaVuSans-77" x="338.277344"/>
       <use xlink:href="#DejaVuSans-65" x="420.064453"/>
       <use xlink:href="#DejaVuSans-61" x="481.587891"/>
       <use xlink:href="#DejaVuSans-6b" x="542.867188"/>
      </g>
     </g>
    </g>
    <g id="xtick_2">
     <g id="line2d_2">
      <g>
       <use xlink:href="#ma9af31d51e" x="154.177368" y="110.018105" style="stroke: #000000; stroke-width: 0.8"/>
      </g>
     </g>
     <g id="text_2">
      <!-- embedding_weak -->
      <g transform="translate(90.421748 184.479407) rotate(-45) scale(0.1 -0.1)">
       <defs>
        <path id="DejaVuSans-6d" d="M 3328 2828 
Q 3544 3216 3844 3400 
Q 4144 3584 4550 3584 
Q 5097 3584 5394 3201 
Q 5691 2819 5691 2113 
L 5691 0 
L 5113 0 
L 5113 2094 
Q 5113 2597 4934 2840 
Q 4756 3084 4391 3084 
Q 3944 3084 3684 2787 
Q 3425 2491 3425 1978 
L 3425 0 
L 2847 0 
L 2847 2094 
Q 2847 2600 2669 2842 
Q 2491 3084 2119 3084 
Q 1678 3084 1418 2786 
Q 1159 2488 1159 1978 
L 1159 0 
L 581 0 
L 581 3500 
L 1159 3500 
L 1159 2956 
Q 1356 3278 1631 3431 
Q 1906 3584 2284 3584 
Q 2666 3584 2933 3390 
Q 3200 3197 3328 2828 
z
" transform="scale(0.015625)"/>
        <path id="DejaVuSans-64" d="M 2906 2969 
L 2906 4863 
L 3481 4863 
L 3481 0 
L 2906 0 
L 2906 525 
Q 2725 213 2448 61 
Q 2172 -91 1784 -91 
Q 1150 -91 751 415 
Q 353 922 353 1747 
Q 353 2572 751 3078 
Q 1150 3584 1784 3584 
Q 2172 3584 2448 3432 
Q 2725 3281 2906 2969 
z
M 947 1747 
Q 947 1113 1208 752 
Q 1469 391 1925 391 
Q 2381 391 2643 752 
Q 2906 1113 2906 1747 
Q 2906 2381 2643 2742 
Q 2381 3103 1925 3103 
Q 1469 3103 1208 2742 
Q 947 2381 947 1747 
z
" transform="scale(0.015625)"/>
        <path id="DejaVuSans-69" d="M 603 3500 
L 1178 3500 
L 1178 0 
L 603 0 
L 603 3500 
z
M 603 4863 
L 1178 4863 
L 1178 4134 
L 603 4134 
L 603 4863 
z
" transform="scale(0.015625)"/>
        <path id="DejaVuSans-6e" d="M 3513 2113 
L 3513 0 
L 2938 0 
L 2938 2094 
Q 2938 2591 2744 2837 
Q 2550 3084 2163 3084 
Q 1697 3084 1428 2787 
Q 1159 2491 1159 1978 
L 1159 0 
L 581 0 
L 581 3500 
L 1159 3500 
L 1159 2956 
Q 1366 3272 1645 3428 
Q 1925 3584 2291 3584 
Q 2894 3584 3203 3211 
Q 3513 2838 3513 2113 
z
" transform="scale(0.015625)"/>
        <path id="DejaVuSans-67" d="M 2906 1791 
Q 2906 2416 2648 2759 
Q 2391 3103 1925 3103 
Q 1463 3103 1205 2759 
Q 947 2416 947 1791 
Q 947 1169 1205 825 
Q 1463 481 1925 481 
Q 2391 481 2648 825 
Q 2906 1169 2906 1791 
z
M 3481 434 
Q 3481 -459 3084 -895 
Q 2688 -1331 1869 -1331 
Q 1566 -1331 1297 -1286 
Q 1028 -1241 775 -1147 
L 775 -588 
Q 1028 -725 1275 -790 
Q 1522 -856 1778 -856 
Q 2344 -856 2625 -561 
Q 2906 -266 2906 331 
L 2906 616 
Q 2728 306 2450 153 
Q 2172 0 1784 0 
Q 1141 0 747 490 
Q 353 981 353 1791 
Q 353 2603 747 3093 
Q 1141 3584 1784 3584 
Q 2172 3584 2450 3431 
Q 2728 3278 2906 2969 
L 2906 3500 
L 3481 3500 
L 3481 434 
z
" transform="scale(0.015625)"/>
       </defs>
       <use xlink:href="#DejaVuSans-65"/>
       <use xlink:href="#DejaVuSans-6d" x="61.523438"/>
       <use xlink:href="#DejaVuSans-62" x="158.935547"/>
       <use xlink:href="#DejaVuSans-65" x="222.412109"/>
       <use xlink:href="#DejaVuSans-64" x="283.935547"/>
       <use xlink:href="#DejaVuSans-64" x="347.412109"/>
       <use xlink:href="#DejaVuSans-69" x="410.888672"/>
       <use xlink:href="#DejaVuSans-6e" x="438.671875"/>
       <use xlink:href="#DejaVuSans-67" x="502.050781"/>
       <use xlink:href="#DejaVuSans-5f" x="565.527344"/>
       <use xlink:href="#DejaVuSans-77" x="615.527344"/>
       <use xlink:href="#DejaVuSans-65" x="697.314453"/>
       <use xlink:href="#DejaVuSans-61" x="758.837891"/>
       <use xlink:href="#DejaVuSans-6b" x="820.117188"/>
      </g>
     </g>
    </g>
    <g id="xtick_3">
     <g id="line2d_3">
      <g>
       <use xlink:href="#ma9af31d51e" x="226.013882" y="110.018105" style="stroke: #000000; stroke-width: 0.8"/>
      </g>
     </g>
     <g id="text_3">
      <!-- proba -->
      <g transform="translate(204.157653 142.776679) rotate(-45) scale(0.1 -0.1)">
       <use xlink:href="#DejaVuSans-70"/>
       <use xlink:href="#DejaVuSans-72" x="63.476562"/>
       <use xlink:href="#DejaVuSans-6f" x="102.339844"/>
       <use xlink:href="#DejaVuSans-62" x="163.521484"/>
       <use xlink:href="#DejaVuSans-61" x="226.998047"/>
      </g>
     </g>
    </g>
    <g id="xtick_4">
     <g id="line2d_4">
      <g>
       <use xlink:href="#ma9af31d51e" x="297.850395" y="110.018105" style="stroke: #000000; stroke-width: 0.8"/>
      </g>
     </g>
     <g id="text_4">
      <!-- embedding -->
      <g transform="translate(256.388526 162.38232) rotate(-45) scale(0.1 -0.1)">
       <use xlink:href="#DejaVuSans-65"/>
       <use xlink:href="#DejaVuSans-6d" x="61.523438"/>
       <use xlink:href="#DejaVuSans-62" x="158.935547"/>
       <use xlink:href="#DejaVuSans-65" x="222.412109"/>
       <use xlink:href="#DejaVuSans-64" x="283.935547"/>
       <use xlink:href="#DejaVuSans-64" x="347.412109"/>
       <use xlink:href="#DejaVuSans-69" x="410.888672"/>
       <use xlink:href="#DejaVuSans-6e" x="438.671875"/>
       <use xlink:href="#DejaVuSans-67" x="502.050781"/>
      </g>
     </g>
    </g>
    <g id="text_5">
     <!-- estimator_name -->
     <g transform="translate(149.376094 197.745069) scale(0.1 -0.1)">
      <defs>
       <path id="DejaVuSans-73" d="M 2834 3397 
L 2834 2853 
Q 2591 2978 2328 3040 
Q 2066 3103 1784 3103 
Q 1356 3103 1142 2972 
Q 928 2841 928 2578 
Q 928 2378 1081 2264 
Q 1234 2150 1697 2047 
L 1894 2003 
Q 2506 1872 2764 1633 
Q 3022 1394 3022 966 
Q 3022 478 2636 193 
Q 2250 -91 1575 -91 
Q 1294 -91 989 -36 
Q 684 19 347 128 
L 347 722 
Q 666 556 975 473 
Q 1284 391 1588 391 
Q 1994 391 2212 530 
Q 2431 669 2431 922 
Q 2431 1156 2273 1281 
Q 2116 1406 1581 1522 
L 1381 1569 
Q 847 1681 609 1914 
Q 372 2147 372 2553 
Q 372 3047 722 3315 
Q 1072 3584 1716 3584 
Q 2034 3584 2315 3537 
Q 2597 3491 2834 3397 
z
" transform="scale(0.015625)"/>
       <path id="DejaVuSans-74" d="M 1172 4494 
L 1172 3500 
L 2356 3500 
L 2356 3053 
L 1172 3053 
L 1172 1153 
Q 1172 725 1289 603 
Q 1406 481 1766 481 
L 2356 481 
L 2356 0 
L 1766 0 
Q 1100 0 847 248 
Q 594 497 594 1153 
L 594 3053 
L 172 3053 
L 172 3500 
L 594 3500 
L 594 4494 
L 1172 4494 
z
" transform="scale(0.015625)"/>
      </defs>
      <use xlink:href="#DejaVuSans-65"/>
      <use xlink:href="#DejaVuSans-73" x="61.523438"/>
      <use xlink:href="#DejaVuSans-74" x="113.623047"/>
      <use xlink:href="#DejaVuSans-69" x="152.832031"/>
      <use xlink:href="#DejaVuSans-6d" x="180.615234"/>
      <use xlink:href="#DejaVuSans-61" x="278.027344"/>
      <use xlink:href="#DejaVuSans-74" x="339.306641"/>
      <use xlink:href="#DejaVuSans-6f" x="378.515625"/>
      <use xlink:href="#DejaVuSans-72" x="439.697266"/>
      <use xlink:href="#DejaVuSans-5f" x="480.810547"/>
      <use xlink:href="#DejaVuSans-6e" x="530.810547"/>
      <use xlink:href="#DejaVuSans-61" x="594.189453"/>
      <use xlink:href="#DejaVuSans-6d" x="655.46875"/>
      <use xlink:href="#DejaVuSans-65" x="752.880859"/>
     </g>
    </g>
   </g>
   <g id="matplotlib.axis_2">
    <g id="ytick_1">
     <g id="line2d_5">
      <defs>
       <path id="mde98e793fd" d="M 0 0 
L -3.5 0 
" style="stroke: #000000; stroke-width: 0.8"/>
      </defs>
      <g>
       <use xlink:href="#mde98e793fd" x="53.60625" y="107.807282" style="stroke: #000000; stroke-width: 0.8"/>
      </g>
     </g>
     <g id="text_6">
      <!-- 0 -->
      <g transform="translate(40.24375 111.6065) scale(0.1 -0.1)">
       <defs>
        <path id="DejaVuSans-30" d="M 2034 4250 
Q 1547 4250 1301 3770 
Q 1056 3291 1056 2328 
Q 1056 1369 1301 889 
Q 1547 409 2034 409 
Q 2525 409 2770 889 
Q 3016 1369 3016 2328 
Q 3016 3291 2770 3770 
Q 2525 4250 2034 4250 
z
M 2034 4750 
Q 2819 4750 3233 4129 
Q 3647 3509 3647 2328 
Q 3647 1150 3233 529 
Q 2819 -91 2034 -91 
Q 1250 -91 836 529 
Q 422 1150 422 2328 
Q 422 3509 836 4129 
Q 1250 4750 2034 4750 
z
" transform="scale(0.015625)"/>
       </defs>
       <use xlink:href="#DejaVuSans-30"/>
      </g>
     </g>
    </g>
    <g id="ytick_2">
     <g id="line2d_6">
      <g>
       <use xlink:href="#mde98e793fd" x="53.60625" y="67.458688" style="stroke: #000000; stroke-width: 0.8"/>
      </g>
     </g>
     <g id="text_7">
      <!-- 1000 -->
      <g transform="translate(21.15625 71.257907) scale(0.1 -0.1)">
       <defs>
        <path id="DejaVuSans-31" d="M 794 531 
L 1825 531 
L 1825 4091 
L 703 3866 
L 703 4441 
L 1819 4666 
L 2450 4666 
L 2450 531 
L 3481 531 
L 3481 0 
L 794 0 
L 794 531 
z
" transform="scale(0.015625)"/>
       </defs>
       <use xlink:href="#DejaVuSans-31"/>
       <use xlink:href="#DejaVuSans-30" x="63.623047"/>
       <use xlink:href="#DejaVuSans-30" x="127.246094"/>
       <use xlink:href="#DejaVuSans-30" x="190.869141"/>
      </g>
     </g>
    </g>
    <g id="ytick_3">
     <g id="line2d_7">
      <g>
       <use xlink:href="#mde98e793fd" x="53.60625" y="27.110094" style="stroke: #000000; stroke-width: 0.8"/>
      </g>
     </g>
     <g id="text_8">
      <!-- 2000 -->
      <g transform="translate(21.15625 30.909313) scale(0.1 -0.1)">
       <defs>
        <path id="DejaVuSans-32" d="M 1228 531 
L 3431 531 
L 3431 0 
L 469 0 
L 469 531 
Q 828 903 1448 1529 
Q 2069 2156 2228 2338 
Q 2531 2678 2651 2914 
Q 2772 3150 2772 3378 
Q 2772 3750 2511 3984 
Q 2250 4219 1831 4219 
Q 1534 4219 1204 4116 
Q 875 4013 500 3803 
L 500 4441 
Q 881 4594 1212 4672 
Q 1544 4750 1819 4750 
Q 2544 4750 2975 4387 
Q 3406 4025 3406 3419 
Q 3406 3131 3298 2873 
Q 3191 2616 2906 2266 
Q 2828 2175 2409 1742 
Q 1991 1309 1228 531 
z
" transform="scale(0.015625)"/>
       </defs>
       <use xlink:href="#DejaVuSans-32"/>
       <use xlink:href="#DejaVuSans-30" x="63.623047"/>
       <use xlink:href="#DejaVuSans-30" x="127.246094"/>
       <use xlink:href="#DejaVuSans-30" x="190.869141"/>
      </g>
     </g>
    </g>
    <g id="text_9">
     <!-- fit_time -->
     <g transform="translate(14.798437 85.073584) rotate(-90) scale(0.1 -0.1)">
      <defs>
       <path id="DejaVuSans-66" d="M 2375 4863 
L 2375 4384 
L 1825 4384 
Q 1516 4384 1395 4259 
Q 1275 4134 1275 3809 
L 1275 3500 
L 2222 3500 
L 2222 3053 
L 1275 3053 
L 1275 0 
L 697 0 
L 697 3053 
L 147 3053 
L 147 3500 
L 697 3500 
L 697 3744 
Q 697 4328 969 4595 
Q 1241 4863 1831 4863 
L 2375 4863 
z
" transform="scale(0.015625)"/>
      </defs>
      <use xlink:href="#DejaVuSans-66"/>
      <use xlink:href="#DejaVuSans-69" x="35.205078"/>
      <use xlink:href="#DejaVuSans-74" x="62.988281"/>
      <use xlink:href="#DejaVuSans-5f" x="102.197266"/>
      <use xlink:href="#DejaVuSans-74" x="152.197266"/>
      <use xlink:href="#DejaVuSans-69" x="191.40625"/>
      <use xlink:href="#DejaVuSans-6d" x="219.189453"/>
      <use xlink:href="#DejaVuSans-65" x="316.601562"/>
     </g>
    </g>
   </g>
   <g id="line2d_8">
    <path d="M 60.789901 105.247907 
L 60.789901 105.276129 
" clip-path="url(#p26adc2e880)" style="fill: none; stroke: #3d3d3d; stroke-width: 1.5; stroke-linecap: square"/>
   </g>
   <g id="line2d_9">
    <path d="M 60.789901 105.196475 
L 60.789901 105.183728 
" clip-path="url(#p26adc2e880)" style="fill: none; stroke: #3d3d3d; stroke-width: 1.5; stroke-linecap: square"/>
   </g>
   <g id="line2d_10">
    <path d="M 57.269912 105.276129 
L 64.30989 105.276129 
" clip-path="url(#p26adc2e880)" style="fill: none; stroke: #3d3d3d; stroke-width: 1.5; stroke-linecap: square"/>
   </g>
   <g id="line2d_11">
    <path d="M 57.269912 105.183728 
L 64.30989 105.183728 
" clip-path="url(#p26adc2e880)" style="fill: none; stroke: #3d3d3d; stroke-width: 1.5; stroke-linecap: square"/>
   </g>
   <g id="line2d_12"/>
   <g id="line2d_13">
    <path d="M 75.157204 104.998155 
L 75.157204 105.002166 
" clip-path="url(#p26adc2e880)" style="fill: none; stroke: #3d3d3d; stroke-width: 1.5; stroke-linecap: square"/>
   </g>
   <g id="line2d_14">
    <path d="M 75.157204 104.899711 
L 75.157204 104.891858 
" clip-path="url(#p26adc2e880)" style="fill: none; stroke: #3d3d3d; stroke-width: 1.5; stroke-linecap: square"/>
   </g>
   <g id="line2d_15">
    <path d="M 71.637215 105.002166 
L 78.677193 105.002166 
" clip-path="url(#p26adc2e880)" style="fill: none; stroke: #3d3d3d; stroke-width: 1.5; stroke-linecap: square"/>
   </g>
   <g id="line2d_16">
    <path d="M 71.637215 104.891858 
L 78.677193 104.891858 
" clip-path="url(#p26adc2e880)" style="fill: none; stroke: #3d3d3d; stroke-width: 1.5; stroke-linecap: square"/>
   </g>
   <g id="line2d_17"/>
   <g id="line2d_18">
    <path d="M 89.524507 104.863176 
L 89.524507 104.891748 
" clip-path="url(#p26adc2e880)" style="fill: none; stroke: #3d3d3d; stroke-width: 1.5; stroke-linecap: square"/>
   </g>
   <g id="line2d_19">
    <path d="M 89.524507 104.767437 
L 89.524507 104.758637 
" clip-path="url(#p26adc2e880)" style="fill: none; stroke: #3d3d3d; stroke-width: 1.5; stroke-linecap: square"/>
   </g>
   <g id="line2d_20">
    <path d="M 86.004517 104.891748 
L 93.044496 104.891748 
" clip-path="url(#p26adc2e880)" style="fill: none; stroke: #3d3d3d; stroke-width: 1.5; stroke-linecap: square"/>
   </g>
   <g id="line2d_21">
    <path d="M 86.004517 104.758637 
L 93.044496 104.758637 
" clip-path="url(#p26adc2e880)" style="fill: none; stroke: #3d3d3d; stroke-width: 1.5; stroke-linecap: square"/>
   </g>
   <g id="line2d_22"/>
   <g id="line2d_23">
    <path d="M 103.891809 104.246478 
L 103.891809 104.266014 
" clip-path="url(#p26adc2e880)" style="fill: none; stroke: #3d3d3d; stroke-width: 1.5; stroke-linecap: square"/>
   </g>
   <g id="line2d_24">
    <path d="M 103.891809 104.178807 
L 103.891809 104.149078 
" clip-path="url(#p26adc2e880)" style="fill: none; stroke: #3d3d3d; stroke-width: 1.5; stroke-linecap: square"/>
   </g>
   <g id="line2d_25">
    <path d="M 100.37182 104.266014 
L 107.411798 104.266014 
" clip-path="url(#p26adc2e880)" style="fill: none; stroke: #3d3d3d; stroke-width: 1.5; stroke-linecap: square"/>
   </g>
   <g id="line2d_26">
    <path d="M 100.37182 104.149078 
L 107.411798 104.149078 
" clip-path="url(#p26adc2e880)" style="fill: none; stroke: #3d3d3d; stroke-width: 1.5; stroke-linecap: square"/>
   </g>
   <g id="line2d_27"/>
   <g id="line2d_28">
    <path d="M 132.626414 60.173624 
L 132.626414 60.173624 
" clip-path="url(#p26adc2e880)" style="fill: none; stroke: #3d3d3d; stroke-width: 1.5; stroke-linecap: square"/>
   </g>
   <g id="line2d_29">
    <path d="M 132.626414 59.471219 
L 132.626414 59.471219 
" clip-path="url(#p26adc2e880)" style="fill: none; stroke: #3d3d3d; stroke-width: 1.5; stroke-linecap: square"/>
   </g>
   <g id="line2d_30">
    <path d="M 129.106425 60.173624 
L 136.146404 60.173624 
" clip-path="url(#p26adc2e880)" style="fill: none; stroke: #3d3d3d; stroke-width: 1.5; stroke-linecap: square"/>
   </g>
   <g id="line2d_31">
    <path d="M 129.106425 59.471219 
L 136.146404 59.471219 
" clip-path="url(#p26adc2e880)" style="fill: none; stroke: #3d3d3d; stroke-width: 1.5; stroke-linecap: square"/>
   </g>
   <g id="line2d_32">
    <defs>
     <path id="mb568d0a8fb" d="M -0 3.535534 
L 2.12132 0 
L -0 -3.535534 
L -2.12132 -0 
z
" style="stroke: #3d3d3d; stroke-linejoin: miter"/>
    </defs>
    <g clip-path="url(#p26adc2e880)">
     <use xlink:href="#mb568d0a8fb" x="132.626414" y="61.872647" style="fill: #3d3d3d; stroke: #3d3d3d; stroke-linejoin: miter"/>
     <use xlink:href="#mb568d0a8fb" x="132.626414" y="54.51035" style="fill: #3d3d3d; stroke: #3d3d3d; stroke-linejoin: miter"/>
    </g>
   </g>
   <g id="line2d_33">
    <path d="M 146.993717 57.981562 
L 146.993717 58.438763 
" clip-path="url(#p26adc2e880)" style="fill: none; stroke: #3d3d3d; stroke-width: 1.5; stroke-linecap: square"/>
   </g>
   <g id="line2d_34">
    <path d="M 146.993717 56.473265 
L 146.993717 56.473265 
" clip-path="url(#p26adc2e880)" style="fill: none; stroke: #3d3d3d; stroke-width: 1.5; stroke-linecap: square"/>
   </g>
   <g id="line2d_35">
    <path d="M 143.473728 58.438763 
L 150.513706 58.438763 
" clip-path="url(#p26adc2e880)" style="fill: none; stroke: #3d3d3d; stroke-width: 1.5; stroke-linecap: square"/>
   </g>
   <g id="line2d_36">
    <path d="M 143.473728 56.473265 
L 150.513706 56.473265 
" clip-path="url(#p26adc2e880)" style="fill: none; stroke: #3d3d3d; stroke-width: 1.5; stroke-linecap: square"/>
   </g>
   <g id="line2d_37">
    <g clip-path="url(#p26adc2e880)">
     <use xlink:href="#mb568d0a8fb" x="146.993717" y="49.7128" style="fill: #3d3d3d; stroke: #3d3d3d; stroke-linejoin: miter"/>
    </g>
   </g>
   <g id="line2d_38">
    <path d="M 161.36102 57.502079 
L 161.36102 57.847873 
" clip-path="url(#p26adc2e880)" style="fill: none; stroke: #3d3d3d; stroke-width: 1.5; stroke-linecap: square"/>
   </g>
   <g id="line2d_39">
    <path d="M 161.36102 55.083461 
L 161.36102 55.083461 
" clip-path="url(#p26adc2e880)" style="fill: none; stroke: #3d3d3d; stroke-width: 1.5; stroke-linecap: square"/>
   </g>
   <g id="line2d_40">
    <path d="M 157.841031 57.847873 
L 164.881009 57.847873 
" clip-path="url(#p26adc2e880)" style="fill: none; stroke: #3d3d3d; stroke-width: 1.5; stroke-linecap: square"/>
   </g>
   <g id="line2d_41">
    <path d="M 157.841031 55.083461 
L 164.881009 55.083461 
" clip-path="url(#p26adc2e880)" style="fill: none; stroke: #3d3d3d; stroke-width: 1.5; stroke-linecap: square"/>
   </g>
   <g id="line2d_42">
    <g clip-path="url(#p26adc2e880)">
     <use xlink:href="#mb568d0a8fb" x="161.36102" y="50.083458" style="fill: #3d3d3d; stroke: #3d3d3d; stroke-linejoin: miter"/>
    </g>
   </g>
   <g id="line2d_43">
    <path d="M 175.728322 39.088952 
L 175.728322 39.928412 
" clip-path="url(#p26adc2e880)" style="fill: none; stroke: #3d3d3d; stroke-width: 1.5; stroke-linecap: square"/>
   </g>
   <g id="line2d_44">
    <path d="M 175.728322 37.214689 
L 175.728322 36.919219 
" clip-path="url(#p26adc2e880)" style="fill: none; stroke: #3d3d3d; stroke-width: 1.5; stroke-linecap: square"/>
   </g>
   <g id="line2d_45">
    <path d="M 172.208333 39.928412 
L 179.248312 39.928412 
" clip-path="url(#p26adc2e880)" style="fill: none; stroke: #3d3d3d; stroke-width: 1.5; stroke-linecap: square"/>
   </g>
   <g id="line2d_46">
    <path d="M 172.208333 36.919219 
L 179.248312 36.919219 
" clip-path="url(#p26adc2e880)" style="fill: none; stroke: #3d3d3d; stroke-width: 1.5; stroke-linecap: square"/>
   </g>
   <g id="line2d_47"/>
   <g id="line2d_48">
    <path d="M 204.462928 106.518881 
L 204.462928 106.537206 
" clip-path="url(#p26adc2e880)" style="fill: none; stroke: #3d3d3d; stroke-width: 1.5; stroke-linecap: square"/>
   </g>
   <g id="line2d_49">
    <path d="M 204.462928 106.483329 
L 204.462928 106.480008 
" clip-path="url(#p26adc2e880)" style="fill: none; stroke: #3d3d3d; stroke-width: 1.5; stroke-linecap: square"/>
   </g>
   <g id="line2d_50">
    <path d="M 200.942938 106.537206 
L 207.982917 106.537206 
" clip-path="url(#p26adc2e880)" style="fill: none; stroke: #3d3d3d; stroke-width: 1.5; stroke-linecap: square"/>
   </g>
   <g id="line2d_51">
    <path d="M 200.942938 106.480008 
L 207.982917 106.480008 
" clip-path="url(#p26adc2e880)" style="fill: none; stroke: #3d3d3d; stroke-width: 1.5; stroke-linecap: square"/>
   </g>
   <g id="line2d_52"/>
   <g id="line2d_53">
    <path d="M 218.83023 106.372772 
L 218.83023 106.401696 
" clip-path="url(#p26adc2e880)" style="fill: none; stroke: #3d3d3d; stroke-width: 1.5; stroke-linecap: square"/>
   </g>
   <g id="line2d_54">
    <path d="M 218.83023 106.343585 
L 218.83023 106.334128 
" clip-path="url(#p26adc2e880)" style="fill: none; stroke: #3d3d3d; stroke-width: 1.5; stroke-linecap: square"/>
   </g>
   <g id="line2d_55">
    <path d="M 215.310241 106.401696 
L 222.350219 106.401696 
" clip-path="url(#p26adc2e880)" style="fill: none; stroke: #3d3d3d; stroke-width: 1.5; stroke-linecap: square"/>
   </g>
   <g id="line2d_56">
    <path d="M 215.310241 106.334128 
L 222.350219 106.334128 
" clip-path="url(#p26adc2e880)" style="fill: none; stroke: #3d3d3d; stroke-width: 1.5; stroke-linecap: square"/>
   </g>
   <g id="line2d_57"/>
   <g id="line2d_58">
    <path d="M 233.197533 106.324966 
L 233.197533 106.327318 
" clip-path="url(#p26adc2e880)" style="fill: none; stroke: #3d3d3d; stroke-width: 1.5; stroke-linecap: square"/>
   </g>
   <g id="line2d_59">
    <path d="M 233.197533 106.28588 
L 233.197533 106.279285 
" clip-path="url(#p26adc2e880)" style="fill: none; stroke: #3d3d3d; stroke-width: 1.5; stroke-linecap: square"/>
   </g>
   <g id="line2d_60">
    <path d="M 229.677544 106.327318 
L 236.717522 106.327318 
" clip-path="url(#p26adc2e880)" style="fill: none; stroke: #3d3d3d; stroke-width: 1.5; stroke-linecap: square"/>
   </g>
   <g id="line2d_61">
    <path d="M 229.677544 106.279285 
L 236.717522 106.279285 
" clip-path="url(#p26adc2e880)" style="fill: none; stroke: #3d3d3d; stroke-width: 1.5; stroke-linecap: square"/>
   </g>
   <g id="line2d_62"/>
   <g id="line2d_63">
    <path d="M 247.564836 105.997229 
L 247.564836 106.00042 
" clip-path="url(#p26adc2e880)" style="fill: none; stroke: #3d3d3d; stroke-width: 1.5; stroke-linecap: square"/>
   </g>
   <g id="line2d_64">
    <path d="M 247.564836 105.888948 
L 247.564836 105.880317 
" clip-path="url(#p26adc2e880)" style="fill: none; stroke: #3d3d3d; stroke-width: 1.5; stroke-linecap: square"/>
   </g>
   <g id="line2d_65">
    <path d="M 244.044846 106.00042 
L 251.084825 106.00042 
" clip-path="url(#p26adc2e880)" style="fill: none; stroke: #3d3d3d; stroke-width: 1.5; stroke-linecap: square"/>
   </g>
   <g id="line2d_66">
    <path d="M 244.044846 105.880317 
L 251.084825 105.880317 
" clip-path="url(#p26adc2e880)" style="fill: none; stroke: #3d3d3d; stroke-width: 1.5; stroke-linecap: square"/>
   </g>
   <g id="line2d_67"/>
   <g id="line2d_68">
    <path d="M 276.299441 64.936265 
L 276.299441 65.964503 
" clip-path="url(#p26adc2e880)" style="fill: none; stroke: #3d3d3d; stroke-width: 1.5; stroke-linecap: square"/>
   </g>
   <g id="line2d_69">
    <path d="M 276.299441 61.363499 
L 276.299441 57.818516 
" clip-path="url(#p26adc2e880)" style="fill: none; stroke: #3d3d3d; stroke-width: 1.5; stroke-linecap: square"/>
   </g>
   <g id="line2d_70">
    <path d="M 272.779452 65.964503 
L 279.81943 65.964503 
" clip-path="url(#p26adc2e880)" style="fill: none; stroke: #3d3d3d; stroke-width: 1.5; stroke-linecap: square"/>
   </g>
   <g id="line2d_71">
    <path d="M 272.779452 57.818516 
L 279.81943 57.818516 
" clip-path="url(#p26adc2e880)" style="fill: none; stroke: #3d3d3d; stroke-width: 1.5; stroke-linecap: square"/>
   </g>
   <g id="line2d_72"/>
   <g id="line2d_73">
    <path d="M 290.666743 62.017505 
L 290.666743 62.442508 
" clip-path="url(#p26adc2e880)" style="fill: none; stroke: #3d3d3d; stroke-width: 1.5; stroke-linecap: square"/>
   </g>
   <g id="line2d_74">
    <path d="M 290.666743 58.917734 
L 290.666743 54.633571 
" clip-path="url(#p26adc2e880)" style="fill: none; stroke: #3d3d3d; stroke-width: 1.5; stroke-linecap: square"/>
   </g>
   <g id="line2d_75">
    <path d="M 287.146754 62.442508 
L 294.186733 62.442508 
" clip-path="url(#p26adc2e880)" style="fill: none; stroke: #3d3d3d; stroke-width: 1.5; stroke-linecap: square"/>
   </g>
   <g id="line2d_76">
    <path d="M 287.146754 54.633571 
L 294.186733 54.633571 
" clip-path="url(#p26adc2e880)" style="fill: none; stroke: #3d3d3d; stroke-width: 1.5; stroke-linecap: square"/>
   </g>
   <g id="line2d_77"/>
   <g id="line2d_78">
    <path d="M 305.034046 61.85726 
L 305.034046 62.733306 
" clip-path="url(#p26adc2e880)" style="fill: none; stroke: #3d3d3d; stroke-width: 1.5; stroke-linecap: square"/>
   </g>
   <g id="line2d_79">
    <path d="M 305.034046 57.318589 
L 305.034046 55.681601 
" clip-path="url(#p26adc2e880)" style="fill: none; stroke: #3d3d3d; stroke-width: 1.5; stroke-linecap: square"/>
   </g>
   <g id="line2d_80">
    <path d="M 301.514057 62.733306 
L 308.554035 62.733306 
" clip-path="url(#p26adc2e880)" style="fill: none; stroke: #3d3d3d; stroke-width: 1.5; stroke-linecap: square"/>
   </g>
   <g id="line2d_81">
    <path d="M 301.514057 55.681601 
L 308.554035 55.681601 
" clip-path="url(#p26adc2e880)" style="fill: none; stroke: #3d3d3d; stroke-width: 1.5; stroke-linecap: square"/>
   </g>
   <g id="line2d_82"/>
   <g id="line2d_83">
    <path d="M 319.401349 58.949208 
L 319.401349 60.073268 
" clip-path="url(#p26adc2e880)" style="fill: none; stroke: #3d3d3d; stroke-width: 1.5; stroke-linecap: square"/>
   </g>
   <g id="line2d_84">
    <path d="M 319.401349 57.928331 
L 319.401349 57.928331 
" clip-path="url(#p26adc2e880)" style="fill: none; stroke: #3d3d3d; stroke-width: 1.5; stroke-linecap: square"/>
   </g>
   <g id="line2d_85">
    <path d="M 315.88136 60.073268 
L 322.921338 60.073268 
" clip-path="url(#p26adc2e880)" style="fill: none; stroke: #3d3d3d; stroke-width: 1.5; stroke-linecap: square"/>
   </g>
   <g id="line2d_86">
    <path d="M 315.88136 57.928331 
L 322.921338 57.928331 
" clip-path="url(#p26adc2e880)" style="fill: none; stroke: #3d3d3d; stroke-width: 1.5; stroke-linecap: square"/>
   </g>
   <g id="line2d_87">
    <g clip-path="url(#p26adc2e880)">
     <use xlink:href="#mb568d0a8fb" x="319.401349" y="55.427841" style="fill: #3d3d3d; stroke: #3d3d3d; stroke-linejoin: miter"/>
    </g>
   </g>
   <g id="line2d_88">
    <path d="M 204.462928 101.28553 
L 204.462928 99.753935 
L 247.564836 99.753935 
L 247.564836 101.28553 
" clip-path="url(#p26adc2e880)" style="fill: none; stroke: #333333; stroke-width: 1.5; stroke-linecap: square"/>
   </g>
   <g id="line2d_89">
    <path d="M 60.789901 99.554291 
L 60.789901 98.022696 
L 103.891809 98.022696 
L 103.891809 99.554291 
" clip-path="url(#p26adc2e880)" style="fill: none; stroke: #333333; stroke-width: 1.5; stroke-linecap: square"/>
   </g>
   <g id="line2d_90">
    <path d="M 132.626414 32.324432 
L 132.626414 30.792837 
L 175.728322 30.792837 
L 175.728322 32.324432 
" clip-path="url(#p26adc2e880)" style="fill: none; stroke: #333333; stroke-width: 1.5; stroke-linecap: square"/>
   </g>
   <g id="line2d_91">
    <path d="M 53.749923 105.206171 
L 67.82988 105.206171 
" clip-path="url(#p26adc2e880)" style="fill: none; stroke: #3d3d3d; stroke-width: 1.5; stroke-linecap: square"/>
   </g>
   <g id="line2d_92">
    <path d="M 68.117226 104.90939 
L 82.197182 104.90939 
" clip-path="url(#p26adc2e880)" style="fill: none; stroke: #3d3d3d; stroke-width: 1.5; stroke-linecap: square"/>
   </g>
   <g id="line2d_93">
    <path d="M 82.484528 104.821235 
L 96.564485 104.821235 
" clip-path="url(#p26adc2e880)" style="fill: none; stroke: #3d3d3d; stroke-width: 1.5; stroke-linecap: square"/>
   </g>
   <g id="line2d_94">
    <path d="M 96.851831 104.217021 
L 110.931787 104.217021 
" clip-path="url(#p26adc2e880)" style="fill: none; stroke: #3d3d3d; stroke-width: 1.5; stroke-linecap: square"/>
   </g>
   <g id="line2d_95">
    <path d="M 125.586436 59.911081 
L 139.666393 59.911081 
" clip-path="url(#p26adc2e880)" style="fill: none; stroke: #3d3d3d; stroke-width: 1.5; stroke-linecap: square"/>
   </g>
   <g id="line2d_96">
    <path d="M 139.953739 57.789804 
L 154.033695 57.789804 
" clip-path="url(#p26adc2e880)" style="fill: none; stroke: #3d3d3d; stroke-width: 1.5; stroke-linecap: square"/>
   </g>
   <g id="line2d_97">
    <path d="M 154.321041 55.896366 
L 168.400998 55.896366 
" clip-path="url(#p26adc2e880)" style="fill: none; stroke: #3d3d3d; stroke-width: 1.5; stroke-linecap: square"/>
   </g>
   <g id="line2d_98">
    <path d="M 168.688344 38.564319 
L 182.768301 38.564319 
" clip-path="url(#p26adc2e880)" style="fill: none; stroke: #3d3d3d; stroke-width: 1.5; stroke-linecap: square"/>
   </g>
   <g id="line2d_99">
    <path d="M 197.422949 106.507651 
L 211.502906 106.507651 
" clip-path="url(#p26adc2e880)" style="fill: none; stroke: #3d3d3d; stroke-width: 1.5; stroke-linecap: square"/>
   </g>
   <g id="line2d_100">
    <path d="M 211.790252 106.349895 
L 225.870209 106.349895 
" clip-path="url(#p26adc2e880)" style="fill: none; stroke: #3d3d3d; stroke-width: 1.5; stroke-linecap: square"/>
   </g>
   <g id="line2d_101">
    <path d="M 226.157555 106.287086 
L 240.237511 106.287086 
" clip-path="url(#p26adc2e880)" style="fill: none; stroke: #3d3d3d; stroke-width: 1.5; stroke-linecap: square"/>
   </g>
   <g id="line2d_102">
    <path d="M 240.524857 105.945831 
L 254.604814 105.945831 
" clip-path="url(#p26adc2e880)" style="fill: none; stroke: #3d3d3d; stroke-width: 1.5; stroke-linecap: square"/>
   </g>
   <g id="line2d_103">
    <path d="M 269.259462 64.522839 
L 283.339419 64.522839 
" clip-path="url(#p26adc2e880)" style="fill: none; stroke: #3d3d3d; stroke-width: 1.5; stroke-linecap: square"/>
   </g>
   <g id="line2d_104">
    <path d="M 283.626765 60.470154 
L 297.706722 60.470154 
" clip-path="url(#p26adc2e880)" style="fill: none; stroke: #3d3d3d; stroke-width: 1.5; stroke-linecap: square"/>
   </g>
   <g id="line2d_105">
    <path d="M 297.994068 59.882193 
L 312.074024 59.882193 
" clip-path="url(#p26adc2e880)" style="fill: none; stroke: #3d3d3d; stroke-width: 1.5; stroke-linecap: square"/>
   </g>
   <g id="line2d_106">
    <path d="M 312.36137 58.702297 
L 326.441327 58.702297 
" clip-path="url(#p26adc2e880)" style="fill: none; stroke: #3d3d3d; stroke-width: 1.5; stroke-linecap: square"/>
   </g>
   <g id="patch_23">
    <path d="M 53.60625 110.018105 
L 53.60625 22.318125 
" style="fill: none; stroke: #000000; stroke-width: 0.8; stroke-linejoin: miter; stroke-linecap: square"/>
   </g>
   <g id="patch_24">
    <path d="M 326.585 110.018105 
L 326.585 22.318125 
" style="fill: none; stroke: #000000; stroke-width: 0.8; stroke-linejoin: miter; stroke-linecap: square"/>
   </g>
   <g id="patch_25">
    <path d="M 53.60625 110.018105 
L 326.585 110.018105 
" style="fill: none; stroke: #000000; stroke-width: 0.8; stroke-linejoin: miter; stroke-linecap: square"/>
   </g>
   <g id="patch_26">
    <path d="M 53.60625 22.318125 
L 326.585 22.318125 
" style="fill: none; stroke: #000000; stroke-width: 0.8; stroke-linejoin: miter; stroke-linecap: square"/>
   </g>
   <g id="PathCollection_1">
    <defs>
     <path id="C0_0_5157bb3510" d="M 0 1.5 
C 0.397805 1.5 0.77937 1.341951 1.06066 1.06066 
C 1.341951 0.77937 1.5 0.397805 1.5 -0 
C 1.5 -0.397805 1.341951 -0.77937 1.06066 -1.06066 
C 0.77937 -1.341951 0.397805 -1.5 0 -1.5 
C -0.397805 -1.5 -0.77937 -1.341951 -1.06066 -1.06066 
C -1.341951 -0.77937 -1.5 -0.397805 -1.5 0 
C -1.5 0.397805 -1.341951 0.77937 -1.06066 1.06066 
C -0.77937 1.341951 -0.397805 1.5 0 1.5 
z
"/>
    </defs>
    <g clip-path="url(#p26adc2e880)">
     <use xlink:href="#C0_0_5157bb3510" x="60.915655" y="105.276129" style="fill: #262626"/>
    </g>
    <g clip-path="url(#p26adc2e880)">
     <use xlink:href="#C0_0_5157bb3510" x="60.879282" y="105.247907" style="fill: #262626"/>
    </g>
    <g clip-path="url(#p26adc2e880)">
     <use xlink:href="#C0_0_5157bb3510" x="62.566579" y="105.183728" style="fill: #262626"/>
    </g>
    <g clip-path="url(#p26adc2e880)">
     <use xlink:href="#C0_0_5157bb3510" x="60.491741" y="105.196475" style="fill: #262626"/>
    </g>
    <g clip-path="url(#p26adc2e880)">
     <use xlink:href="#C0_0_5157bb3510" x="60.486762" y="105.206171" style="fill: #262626"/>
    </g>
   </g>
   <g id="PathCollection_2">
    <defs>
     <path id="C1_0_f8f38a4952" d="M 0 1.5 
C 0.397805 1.5 0.77937 1.341951 1.06066 1.06066 
C 1.341951 0.77937 1.5 0.397805 1.5 -0 
C 1.5 -0.397805 1.341951 -0.77937 1.06066 -1.06066 
C 0.77937 -1.341951 0.397805 -1.5 0 -1.5 
C -0.397805 -1.5 -0.77937 -1.341951 -1.06066 -1.06066 
C -1.341951 -0.77937 -1.5 -0.397805 -1.5 0 
C -1.5 0.397805 -1.341951 0.77937 -1.06066 1.06066 
C -0.77937 1.341951 -0.397805 1.5 0 1.5 
z
"/>
    </defs>
    <g clip-path="url(#p26adc2e880)">
     <use xlink:href="#C1_0_f8f38a4952" x="75.666055" y="104.998155" style="fill: #191919"/>
    </g>
    <g clip-path="url(#p26adc2e880)">
     <use xlink:href="#C1_0_f8f38a4952" x="76.362229" y="105.002166" style="fill: #191919"/>
    </g>
    <g clip-path="url(#p26adc2e880)">
     <use xlink:href="#C1_0_f8f38a4952" x="76.777924" y="104.899711" style="fill: #191919"/>
    </g>
    <g clip-path="url(#p26adc2e880)">
     <use xlink:href="#C1_0_f8f38a4952" x="73.954032" y="104.891858" style="fill: #191919"/>
    </g>
    <g clip-path="url(#p26adc2e880)">
     <use xlink:href="#C1_0_f8f38a4952" x="73.387813" y="104.90939" style="fill: #191919"/>
    </g>
   </g>
   <g id="PathCollection_3">
    <defs>
     <path id="C2_0_bdaeb751aa" d="M 0 1.5 
C 0.397805 1.5 0.77937 1.341951 1.06066 1.06066 
C 1.341951 0.77937 1.5 0.397805 1.5 -0 
C 1.5 -0.397805 1.341951 -0.77937 1.06066 -1.06066 
C 0.77937 -1.341951 0.397805 -1.5 0 -1.5 
C -0.397805 -1.5 -0.77937 -1.341951 -1.06066 -1.06066 
C -1.341951 -0.77937 -1.5 -0.397805 -1.5 0 
C -1.5 0.397805 -1.341951 0.77937 -1.06066 1.06066 
C -0.77937 1.341951 -0.397805 1.5 0 1.5 
z
"/>
    </defs>
    <g clip-path="url(#p26adc2e880)">
     <use xlink:href="#C2_0_bdaeb751aa" x="87.814531" y="104.891748" style="fill: #0d0d0d"/>
    </g>
    <g clip-path="url(#p26adc2e880)">
     <use xlink:href="#C2_0_bdaeb751aa" x="89.169846" y="104.863176" style="fill: #0d0d0d"/>
    </g>
    <g clip-path="url(#p26adc2e880)">
     <use xlink:href="#C2_0_bdaeb751aa" x="87.966537" y="104.821235" style="fill: #0d0d0d"/>
    </g>
    <g clip-path="url(#p26adc2e880)">
     <use xlink:href="#C2_0_bdaeb751aa" x="87.777644" y="104.767437" style="fill: #0d0d0d"/>
    </g>
    <g clip-path="url(#p26adc2e880)">
     <use xlink:href="#C2_0_bdaeb751aa" x="90.482396" y="104.758637" style="fill: #0d0d0d"/>
    </g>
   </g>
   <g id="PathCollection_4">
    <defs>
     <path id="C3_0_bbbda5f6e1" d="M 0 1.5 
C 0.397805 1.5 0.77937 1.341951 1.06066 1.06066 
C 1.341951 0.77937 1.5 0.397805 1.5 -0 
C 1.5 -0.397805 1.341951 -0.77937 1.06066 -1.06066 
C 0.77937 -1.341951 0.397805 -1.5 0 -1.5 
C -0.397805 -1.5 -0.77937 -1.341951 -1.06066 -1.06066 
C -1.341951 -0.77937 -1.5 -0.397805 -1.5 0 
C -1.5 0.397805 -1.341951 0.77937 -1.06066 1.06066 
C -0.77937 1.341951 -0.397805 1.5 0 1.5 
z
"/>
    </defs>
    <g clip-path="url(#p26adc2e880)">
     <use xlink:href="#C3_0_bbbda5f6e1" x="105.53336" y="104.246478"/>
    </g>
    <g clip-path="url(#p26adc2e880)">
     <use xlink:href="#C3_0_bbbda5f6e1" x="103.186531" y="104.266014"/>
    </g>
    <g clip-path="url(#p26adc2e880)">
     <use xlink:href="#C3_0_bbbda5f6e1" x="105.274175" y="104.178807"/>
    </g>
    <g clip-path="url(#p26adc2e880)">
     <use xlink:href="#C3_0_bbbda5f6e1" x="102.615634" y="104.217021"/>
    </g>
    <g clip-path="url(#p26adc2e880)">
     <use xlink:href="#C3_0_bbbda5f6e1" x="104.834039" y="104.149078"/>
    </g>
   </g>
   <g id="PathCollection_5">
    <defs>
     <path id="C4_0_b4475675e9" d="M 0 1.5 
C 0.397805 1.5 0.77937 1.341951 1.06066 1.06066 
C 1.341951 0.77937 1.5 0.397805 1.5 -0 
C 1.5 -0.397805 1.341951 -0.77937 1.06066 -1.06066 
C 0.77937 -1.341951 0.397805 -1.5 0 -1.5 
C -0.397805 -1.5 -0.77937 -1.341951 -1.06066 -1.06066 
C -1.341951 -0.77937 -1.5 -0.397805 -1.5 0 
C -1.5 0.397805 -1.341951 0.77937 -1.06066 1.06066 
C -0.77937 1.341951 -0.397805 1.5 0 1.5 
z
"/>
    </defs>
    <g clip-path="url(#p26adc2e880)">
     <use xlink:href="#C4_0_b4475675e9" x="131.270775" y="60.173624" style="fill: #262626"/>
    </g>
    <g clip-path="url(#p26adc2e880)">
     <use xlink:href="#C4_0_b4475675e9" x="131.314264" y="61.872647" style="fill: #262626"/>
    </g>
    <g clip-path="url(#p26adc2e880)">
     <use xlink:href="#C4_0_b4475675e9" x="133.115412" y="59.471219" style="fill: #262626"/>
    </g>
    <g clip-path="url(#p26adc2e880)">
     <use xlink:href="#C4_0_b4475675e9" x="131.981428" y="59.911081" style="fill: #262626"/>
    </g>
    <g clip-path="url(#p26adc2e880)">
     <use xlink:href="#C4_0_b4475675e9" x="131.040934" y="54.51035" style="fill: #262626"/>
    </g>
   </g>
   <g id="PathCollection_6">
    <defs>
     <path id="C5_0_8bf7c14169" d="M 0 1.5 
C 0.397805 1.5 0.77937 1.341951 1.06066 1.06066 
C 1.341951 0.77937 1.5 0.397805 1.5 -0 
C 1.5 -0.397805 1.341951 -0.77937 1.06066 -1.06066 
C 0.77937 -1.341951 0.397805 -1.5 0 -1.5 
C -0.397805 -1.5 -0.77937 -1.341951 -1.06066 -1.06066 
C -1.341951 -0.77937 -1.5 -0.397805 -1.5 0 
C -1.5 0.397805 -1.341951 0.77937 -1.06066 1.06066 
C -0.77937 1.341951 -0.397805 1.5 0 1.5 
z
"/>
    </defs>
    <g clip-path="url(#p26adc2e880)">
     <use xlink:href="#C5_0_8bf7c14169" x="147.301145" y="58.438763" style="fill: #191919"/>
    </g>
    <g clip-path="url(#p26adc2e880)">
     <use xlink:href="#C5_0_8bf7c14169" x="148.129521" y="57.981562" style="fill: #191919"/>
    </g>
    <g clip-path="url(#p26adc2e880)">
     <use xlink:href="#C5_0_8bf7c14169" x="146.902104" y="57.789804" style="fill: #191919"/>
    </g>
    <g clip-path="url(#p26adc2e880)">
     <use xlink:href="#C5_0_8bf7c14169" x="145.443387" y="56.473265" style="fill: #191919"/>
    </g>
    <g clip-path="url(#p26adc2e880)">
     <use xlink:href="#C5_0_8bf7c14169" x="147.878657" y="49.7128" style="fill: #191919"/>
    </g>
   </g>
   <g id="PathCollection_7">
    <defs>
     <path id="C6_0_9a9c73b220" d="M 0 1.5 
C 0.397805 1.5 0.77937 1.341951 1.06066 1.06066 
C 1.341951 0.77937 1.5 0.397805 1.5 -0 
C 1.5 -0.397805 1.341951 -0.77937 1.06066 -1.06066 
C 0.77937 -1.341951 0.397805 -1.5 0 -1.5 
C -0.397805 -1.5 -0.77937 -1.341951 -1.06066 -1.06066 
C -1.341951 -0.77937 -1.5 -0.397805 -1.5 0 
C -1.5 0.397805 -1.341951 0.77937 -1.06066 1.06066 
C -0.77937 1.341951 -0.397805 1.5 0 1.5 
z
"/>
    </defs>
    <g clip-path="url(#p26adc2e880)">
     <use xlink:href="#C6_0_9a9c73b220" x="161.548319" y="57.847873" style="fill: #0d0d0d"/>
    </g>
    <g clip-path="url(#p26adc2e880)">
     <use xlink:href="#C6_0_9a9c73b220" x="159.586398" y="55.083461" style="fill: #0d0d0d"/>
    </g>
    <g clip-path="url(#p26adc2e880)">
     <use xlink:href="#C6_0_9a9c73b220" x="160.361907" y="55.896366" style="fill: #0d0d0d"/>
    </g>
    <g clip-path="url(#p26adc2e880)">
     <use xlink:href="#C6_0_9a9c73b220" x="160.824832" y="57.502079" style="fill: #0d0d0d"/>
    </g>
    <g clip-path="url(#p26adc2e880)">
     <use xlink:href="#C6_0_9a9c73b220" x="162.374341" y="50.083458" style="fill: #0d0d0d"/>
    </g>
   </g>
   <g id="PathCollection_8">
    <defs>
     <path id="C7_0_ccc7179c80" d="M 0 1.5 
C 0.397805 1.5 0.77937 1.341951 1.06066 1.06066 
C 1.341951 0.77937 1.5 0.397805 1.5 -0 
C 1.5 -0.397805 1.341951 -0.77937 1.06066 -1.06066 
C 0.77937 -1.341951 0.397805 -1.5 0 -1.5 
C -0.397805 -1.5 -0.77937 -1.341951 -1.06066 -1.06066 
C -1.341951 -0.77937 -1.5 -0.397805 -1.5 0 
C -1.5 0.397805 -1.341951 0.77937 -1.06066 1.06066 
C -0.77937 1.341951 -0.397805 1.5 0 1.5 
z
"/>
    </defs>
    <g clip-path="url(#p26adc2e880)">
     <use xlink:href="#C7_0_ccc7179c80" x="177.327979" y="39.088952"/>
    </g>
    <g clip-path="url(#p26adc2e880)">
     <use xlink:href="#C7_0_ccc7179c80" x="176.996621" y="39.928412"/>
    </g>
    <g clip-path="url(#p26adc2e880)">
     <use xlink:href="#C7_0_ccc7179c80" x="174.445031" y="36.919219"/>
    </g>
    <g clip-path="url(#p26adc2e880)">
     <use xlink:href="#C7_0_ccc7179c80" x="176.785307" y="37.214689"/>
    </g>
    <g clip-path="url(#p26adc2e880)">
     <use xlink:href="#C7_0_ccc7179c80" x="174.835265" y="38.564319"/>
    </g>
   </g>
   <g id="PathCollection_9">
    <defs>
     <path id="C8_0_3870340bfd" d="M 0 1.5 
C 0.397805 1.5 0.77937 1.341951 1.06066 1.06066 
C 1.341951 0.77937 1.5 0.397805 1.5 -0 
C 1.5 -0.397805 1.341951 -0.77937 1.06066 -1.06066 
C 0.77937 -1.341951 0.397805 -1.5 0 -1.5 
C -0.397805 -1.5 -0.77937 -1.341951 -1.06066 -1.06066 
C -1.341951 -0.77937 -1.5 -0.397805 -1.5 0 
C -1.5 0.397805 -1.341951 0.77937 -1.06066 1.06066 
C -0.77937 1.341951 -0.397805 1.5 0 1.5 
z
"/>
    </defs>
    <g clip-path="url(#p26adc2e880)">
     <use xlink:href="#C8_0_3870340bfd" x="205.41708" y="106.507651" style="fill: #262626"/>
    </g>
    <g clip-path="url(#p26adc2e880)">
     <use xlink:href="#C8_0_3870340bfd" x="204.736657" y="106.483329" style="fill: #262626"/>
    </g>
    <g clip-path="url(#p26adc2e880)">
     <use xlink:href="#C8_0_3870340bfd" x="206.013725" y="106.518881" style="fill: #262626"/>
    </g>
    <g clip-path="url(#p26adc2e880)">
     <use xlink:href="#C8_0_3870340bfd" x="204.03494" y="106.537206" style="fill: #262626"/>
    </g>
    <g clip-path="url(#p26adc2e880)">
     <use xlink:href="#C8_0_3870340bfd" x="205.43593" y="106.480008" style="fill: #262626"/>
    </g>
   </g>
   <g id="PathCollection_10">
    <defs>
     <path id="C9_0_8b5f73e14c" d="M 0 1.5 
C 0.397805 1.5 0.77937 1.341951 1.06066 1.06066 
C 1.341951 0.77937 1.5 0.397805 1.5 -0 
C 1.5 -0.397805 1.341951 -0.77937 1.06066 -1.06066 
C 0.77937 -1.341951 0.397805 -1.5 0 -1.5 
C -0.397805 -1.5 -0.77937 -1.341951 -1.06066 -1.06066 
C -1.341951 -0.77937 -1.5 -0.397805 -1.5 0 
C -1.5 0.397805 -1.341951 0.77937 -1.06066 1.06066 
C -0.77937 1.341951 -0.397805 1.5 0 1.5 
z
"/>
    </defs>
    <g clip-path="url(#p26adc2e880)">
     <use xlink:href="#C9_0_8b5f73e14c" x="219.735293" y="106.401696" style="fill: #191919"/>
    </g>
    <g clip-path="url(#p26adc2e880)">
     <use xlink:href="#C9_0_8b5f73e14c" x="218.655374" y="106.372772" style="fill: #191919"/>
    </g>
    <g clip-path="url(#p26adc2e880)">
     <use xlink:href="#C9_0_8b5f73e14c" x="219.481197" y="106.334128" style="fill: #191919"/>
    </g>
    <g clip-path="url(#p26adc2e880)">
     <use xlink:href="#C9_0_8b5f73e14c" x="217.853628" y="106.343585" style="fill: #191919"/>
    </g>
    <g clip-path="url(#p26adc2e880)">
     <use xlink:href="#C9_0_8b5f73e14c" x="219.576622" y="106.349895" style="fill: #191919"/>
    </g>
   </g>
   <g id="PathCollection_11">
    <defs>
     <path id="Ca_0_7d18c93c4d" d="M 0 1.5 
C 0.397805 1.5 0.77937 1.341951 1.06066 1.06066 
C 1.341951 0.77937 1.5 0.397805 1.5 -0 
C 1.5 -0.397805 1.341951 -0.77937 1.06066 -1.06066 
C 0.77937 -1.341951 0.397805 -1.5 0 -1.5 
C -0.397805 -1.5 -0.77937 -1.341951 -1.06066 -1.06066 
C -1.341951 -0.77937 -1.5 -0.397805 -1.5 0 
C -1.5 0.397805 -1.341951 0.77937 -1.06066 1.06066 
C -0.77937 1.341951 -0.397805 1.5 0 1.5 
z
"/>
    </defs>
    <g clip-path="url(#p26adc2e880)">
     <use xlink:href="#Ca_0_7d18c93c4d" x="231.479651" y="106.327318" style="fill: #0d0d0d"/>
    </g>
    <g clip-path="url(#p26adc2e880)">
     <use xlink:href="#Ca_0_7d18c93c4d" x="232.812522" y="106.324966" style="fill: #0d0d0d"/>
    </g>
    <g clip-path="url(#p26adc2e880)">
     <use xlink:href="#Ca_0_7d18c93c4d" x="232.912597" y="106.287086" style="fill: #0d0d0d"/>
    </g>
    <g clip-path="url(#p26adc2e880)">
     <use xlink:href="#Ca_0_7d18c93c4d" x="233.23413" y="106.28588" style="fill: #0d0d0d"/>
    </g>
    <g clip-path="url(#p26adc2e880)">
     <use xlink:href="#Ca_0_7d18c93c4d" x="233.688619" y="106.279285" style="fill: #0d0d0d"/>
    </g>
   </g>
   <g id="PathCollection_12">
    <defs>
     <path id="Cb_0_3573c63b6c" d="M 0 1.5 
C 0.397805 1.5 0.77937 1.341951 1.06066 1.06066 
C 1.341951 0.77937 1.5 0.397805 1.5 -0 
C 1.5 -0.397805 1.341951 -0.77937 1.06066 -1.06066 
C 0.77937 -1.341951 0.397805 -1.5 0 -1.5 
C -0.397805 -1.5 -0.77937 -1.341951 -1.06066 -1.06066 
C -1.341951 -0.77937 -1.5 -0.397805 -1.5 0 
C -1.5 0.397805 -1.341951 0.77937 -1.06066 1.06066 
C -0.77937 1.341951 -0.397805 1.5 0 1.5 
z
"/>
    </defs>
    <g clip-path="url(#p26adc2e880)">
     <use xlink:href="#Cb_0_3573c63b6c" x="248.095778" y="106.00042"/>
    </g>
    <g clip-path="url(#p26adc2e880)">
     <use xlink:href="#Cb_0_3573c63b6c" x="248.390538" y="105.997229"/>
    </g>
    <g clip-path="url(#p26adc2e880)">
     <use xlink:href="#Cb_0_3573c63b6c" x="246.143725" y="105.945831"/>
    </g>
    <g clip-path="url(#p26adc2e880)">
     <use xlink:href="#Cb_0_3573c63b6c" x="247.002526" y="105.880317"/>
    </g>
    <g clip-path="url(#p26adc2e880)">
     <use xlink:href="#Cb_0_3573c63b6c" x="246.320945" y="105.888948"/>
    </g>
   </g>
   <g id="PathCollection_13">
    <defs>
     <path id="Cc_0_3079c0c353" d="M 0 1.5 
C 0.397805 1.5 0.77937 1.341951 1.06066 1.06066 
C 1.341951 0.77937 1.5 0.397805 1.5 -0 
C 1.5 -0.397805 1.341951 -0.77937 1.06066 -1.06066 
C 0.77937 -1.341951 0.397805 -1.5 0 -1.5 
C -0.397805 -1.5 -0.77937 -1.341951 -1.06066 -1.06066 
C -1.341951 -0.77937 -1.5 -0.397805 -1.5 0 
C -1.5 0.397805 -1.341951 0.77937 -1.06066 1.06066 
C -0.77937 1.341951 -0.397805 1.5 0 1.5 
z
"/>
    </defs>
    <g clip-path="url(#p26adc2e880)">
     <use xlink:href="#Cc_0_3079c0c353" x="275.792269" y="64.522839" style="fill: #262626"/>
    </g>
    <g clip-path="url(#p26adc2e880)">
     <use xlink:href="#Cc_0_3079c0c353" x="275.994963" y="61.363499" style="fill: #262626"/>
    </g>
    <g clip-path="url(#p26adc2e880)">
     <use xlink:href="#Cc_0_3079c0c353" x="275.591694" y="65.964503" style="fill: #262626"/>
    </g>
    <g clip-path="url(#p26adc2e880)">
     <use xlink:href="#Cc_0_3079c0c353" x="276.487187" y="64.936265" style="fill: #262626"/>
    </g>
    <g clip-path="url(#p26adc2e880)">
     <use xlink:href="#Cc_0_3079c0c353" x="276.741322" y="57.818516" style="fill: #262626"/>
    </g>
   </g>
   <g id="PathCollection_14">
    <defs>
     <path id="Cd_0_01b9dee0c5" d="M 0 1.5 
C 0.397805 1.5 0.77937 1.341951 1.06066 1.06066 
C 1.341951 0.77937 1.5 0.397805 1.5 -0 
C 1.5 -0.397805 1.341951 -0.77937 1.06066 -1.06066 
C 0.77937 -1.341951 0.397805 -1.5 0 -1.5 
C -0.397805 -1.5 -0.77937 -1.341951 -1.06066 -1.06066 
C -1.341951 -0.77937 -1.5 -0.397805 -1.5 0 
C -1.5 0.397805 -1.341951 0.77937 -1.06066 1.06066 
C -0.77937 1.341951 -0.397805 1.5 0 1.5 
z
"/>
    </defs>
    <g clip-path="url(#p26adc2e880)">
     <use xlink:href="#Cd_0_01b9dee0c5" x="289.855125" y="60.470154" style="fill: #191919"/>
    </g>
    <g clip-path="url(#p26adc2e880)">
     <use xlink:href="#Cd_0_01b9dee0c5" x="290.538689" y="58.917734" style="fill: #191919"/>
    </g>
    <g clip-path="url(#p26adc2e880)">
     <use xlink:href="#Cd_0_01b9dee0c5" x="289.606124" y="62.442508" style="fill: #191919"/>
    </g>
    <g clip-path="url(#p26adc2e880)">
     <use xlink:href="#Cd_0_01b9dee0c5" x="289.946589" y="62.017505" style="fill: #191919"/>
    </g>
    <g clip-path="url(#p26adc2e880)">
     <use xlink:href="#Cd_0_01b9dee0c5" x="292.05068" y="54.633571" style="fill: #191919"/>
    </g>
   </g>
   <g id="PathCollection_15">
    <defs>
     <path id="Ce_0_f3a5038b86" d="M 0 1.5 
C 0.397805 1.5 0.77937 1.341951 1.06066 1.06066 
C 1.341951 0.77937 1.5 0.397805 1.5 -0 
C 1.5 -0.397805 1.341951 -0.77937 1.06066 -1.06066 
C 0.77937 -1.341951 0.397805 -1.5 0 -1.5 
C -0.397805 -1.5 -0.77937 -1.341951 -1.06066 -1.06066 
C -1.341951 -0.77937 -1.5 -0.397805 -1.5 0 
C -1.5 0.397805 -1.341951 0.77937 -1.06066 1.06066 
C -0.77937 1.341951 -0.397805 1.5 0 1.5 
z
"/>
    </defs>
    <g clip-path="url(#p26adc2e880)">
     <use xlink:href="#Ce_0_f3a5038b86" x="304.786252" y="61.85726" style="fill: #0d0d0d"/>
    </g>
    <g clip-path="url(#p26adc2e880)">
     <use xlink:href="#Ce_0_f3a5038b86" x="304.619865" y="59.882193" style="fill: #0d0d0d"/>
    </g>
    <g clip-path="url(#p26adc2e880)">
     <use xlink:href="#Ce_0_f3a5038b86" x="304.085052" y="62.733306" style="fill: #0d0d0d"/>
    </g>
    <g clip-path="url(#p26adc2e880)">
     <use xlink:href="#Ce_0_f3a5038b86" x="303.296392" y="55.681601" style="fill: #0d0d0d"/>
    </g>
    <g clip-path="url(#p26adc2e880)">
     <use xlink:href="#Ce_0_f3a5038b86" x="304.396449" y="57.318589" style="fill: #0d0d0d"/>
    </g>
   </g>
   <g id="PathCollection_16">
    <defs>
     <path id="Cf_0_801ba6edcd" d="M 0 1.5 
C 0.397805 1.5 0.77937 1.341951 1.06066 1.06066 
C 1.341951 0.77937 1.5 0.397805 1.5 -0 
C 1.5 -0.397805 1.341951 -0.77937 1.06066 -1.06066 
C 0.77937 -1.341951 0.397805 -1.5 0 -1.5 
C -0.397805 -1.5 -0.77937 -1.341951 -1.06066 -1.06066 
C -1.341951 -0.77937 -1.5 -0.397805 -1.5 0 
C -1.5 0.397805 -1.341951 0.77937 -1.06066 1.06066 
C -0.77937 1.341951 -0.397805 1.5 0 1.5 
z
"/>
    </defs>
    <g clip-path="url(#p26adc2e880)">
     <use xlink:href="#Cf_0_801ba6edcd" x="319.256452" y="58.702297"/>
    </g>
    <g clip-path="url(#p26adc2e880)">
     <use xlink:href="#Cf_0_801ba6edcd" x="318.74391" y="60.073268"/>
    </g>
    <g clip-path="url(#p26adc2e880)">
     <use xlink:href="#Cf_0_801ba6edcd" x="318.277234" y="58.949208"/>
    </g>
    <g clip-path="url(#p26adc2e880)">
     <use xlink:href="#Cf_0_801ba6edcd" x="317.820173" y="57.928331"/>
    </g>
    <g clip-path="url(#p26adc2e880)">
     <use xlink:href="#Cf_0_801ba6edcd" x="320.817283" y="55.427841"/>
    </g>
   </g>
   <g id="text_10">
    <!-- * -->
    <g transform="translate(223.513882 96.674247) scale(0.1 -0.1)">
     <defs>
      <path id="DejaVuSans-2a" d="M 3009 3897 
L 1888 3291 
L 3009 2681 
L 2828 2375 
L 1778 3009 
L 1778 1831 
L 1422 1831 
L 1422 3009 
L 372 2375 
L 191 2681 
L 1313 3291 
L 191 3897 
L 372 4206 
L 1422 3572 
L 1422 4750 
L 1778 4750 
L 1778 3572 
L 2828 4206 
L 3009 3897 
z
" transform="scale(0.015625)"/>
     </defs>
     <use xlink:href="#DejaVuSans-2a"/>
    </g>
   </g>
   <g id="text_11">
    <!-- * -->
    <g transform="translate(79.840855 94.943008) scale(0.1 -0.1)">
     <use xlink:href="#DejaVuSans-2a"/>
    </g>
   </g>
   <g id="text_12">
    <!-- * -->
    <g transform="translate(151.677368 27.713149) scale(0.1 -0.1)">
     <use xlink:href="#DejaVuSans-2a"/>
    </g>
   </g>
   <g id="text_13">
    <!-- yeast -->
    <g transform="translate(173.697812 16.318125) scale(0.12 -0.12)">
     <defs>
      <path id="DejaVuSans-79" d="M 2059 -325 
Q 1816 -950 1584 -1140 
Q 1353 -1331 966 -1331 
L 506 -1331 
L 506 -850 
L 844 -850 
Q 1081 -850 1212 -737 
Q 1344 -625 1503 -206 
L 1606 56 
L 191 3500 
L 800 3500 
L 1894 763 
L 2988 3500 
L 3597 3500 
L 2059 -325 
z
" transform="scale(0.015625)"/>
     </defs>
     <use xlink:href="#DejaVuSans-79"/>
     <use xlink:href="#DejaVuSans-65" x="59.179688"/>
     <use xlink:href="#DejaVuSans-61" x="120.703125"/>
     <use xlink:href="#DejaVuSans-73" x="181.982422"/>
     <use xlink:href="#DejaVuSans-74" x="234.082031"/>
    </g>
   </g>
   <g id="legend_1">
    <g id="patch_27">
     <path d="M 333.585 105.018105 
L 401.011562 105.018105 
Q 403.011562 105.018105 403.011562 103.018105 
L 403.011562 45.305605 
Q 403.011562 43.305605 401.011562 43.305605 
L 333.585 43.305605 
Q 331.585 43.305605 331.585 45.305605 
L 331.585 103.018105 
Q 331.585 105.018105 333.585 105.018105 
z
" style="fill: #ffffff; opacity: 0.8; stroke: #cccccc; stroke-linejoin: miter"/>
    </g>
    <g id="patch_28">
     <path d="M 335.585 54.904043 
L 355.585 54.904043 
L 355.585 47.904043 
L 335.585 47.904043 
z
" style="fill: #3274a1; stroke: #3d3d3d; stroke-width: 0.75; stroke-linejoin: miter"/>
    </g>
    <g id="text_14">
     <!-- none -->
     <g transform="translate(363.585 54.904043) scale(0.1 -0.1)">
      <use xlink:href="#DejaVuSans-6e"/>
      <use xlink:href="#DejaVuSans-6f" x="63.378906"/>
      <use xlink:href="#DejaVuSans-6e" x="124.560547"/>
      <use xlink:href="#DejaVuSans-65" x="187.939453"/>
     </g>
    </g>
    <g id="patch_29">
     <path d="M 335.585 69.582168 
L 355.585 69.582168 
L 355.585 62.582168 
L 335.585 62.582168 
z
" style="fill: #e1812c; stroke: #3d3d3d; stroke-width: 0.75; stroke-linejoin: miter"/>
    </g>
    <g id="text_15">
     <!-- drop30 -->
     <g transform="translate(363.585 69.582168) scale(0.1 -0.1)">
      <defs>
       <path id="DejaVuSans-33" d="M 2597 2516 
Q 3050 2419 3304 2112 
Q 3559 1806 3559 1356 
Q 3559 666 3084 287 
Q 2609 -91 1734 -91 
Q 1441 -91 1130 -33 
Q 819 25 488 141 
L 488 750 
Q 750 597 1062 519 
Q 1375 441 1716 441 
Q 2309 441 2620 675 
Q 2931 909 2931 1356 
Q 2931 1769 2642 2001 
Q 2353 2234 1838 2234 
L 1294 2234 
L 1294 2753 
L 1863 2753 
Q 2328 2753 2575 2939 
Q 2822 3125 2822 3475 
Q 2822 3834 2567 4026 
Q 2313 4219 1838 4219 
Q 1578 4219 1281 4162 
Q 984 4106 628 3988 
L 628 4550 
Q 988 4650 1302 4700 
Q 1616 4750 1894 4750 
Q 2613 4750 3031 4423 
Q 3450 4097 3450 3541 
Q 3450 3153 3228 2886 
Q 3006 2619 2597 2516 
z
" transform="scale(0.015625)"/>
      </defs>
      <use xlink:href="#DejaVuSans-64"/>
      <use xlink:href="#DejaVuSans-72" x="63.476562"/>
      <use xlink:href="#DejaVuSans-6f" x="102.339844"/>
      <use xlink:href="#DejaVuSans-70" x="163.521484"/>
      <use xlink:href="#DejaVuSans-33" x="226.998047"/>
      <use xlink:href="#DejaVuSans-30" x="290.621094"/>
     </g>
    </g>
    <g id="patch_30">
     <path d="M 335.585 84.260293 
L 355.585 84.260293 
L 355.585 77.260293 
L 335.585 77.260293 
z
" style="fill: #3a923a; stroke: #3d3d3d; stroke-width: 0.75; stroke-linejoin: miter"/>
    </g>
    <g id="text_16">
     <!-- drop50 -->
     <g transform="translate(363.585 84.260293) scale(0.1 -0.1)">
      <defs>
       <path id="DejaVuSans-35" d="M 691 4666 
L 3169 4666 
L 3169 4134 
L 1269 4134 
L 1269 2991 
Q 1406 3038 1543 3061 
Q 1681 3084 1819 3084 
Q 2600 3084 3056 2656 
Q 3513 2228 3513 1497 
Q 3513 744 3044 326 
Q 2575 -91 1722 -91 
Q 1428 -91 1123 -41 
Q 819 9 494 109 
L 494 744 
Q 775 591 1075 516 
Q 1375 441 1709 441 
Q 2250 441 2565 725 
Q 2881 1009 2881 1497 
Q 2881 1984 2565 2268 
Q 2250 2553 1709 2553 
Q 1456 2553 1204 2497 
Q 953 2441 691 2322 
L 691 4666 
z
" transform="scale(0.015625)"/>
      </defs>
      <use xlink:href="#DejaVuSans-64"/>
      <use xlink:href="#DejaVuSans-72" x="63.476562"/>
      <use xlink:href="#DejaVuSans-6f" x="102.339844"/>
      <use xlink:href="#DejaVuSans-70" x="163.521484"/>
      <use xlink:href="#DejaVuSans-35" x="226.998047"/>
      <use xlink:href="#DejaVuSans-30" x="290.621094"/>
     </g>
    </g>
    <g id="patch_31">
     <path d="M 335.585 98.938418 
L 355.585 98.938418 
L 355.585 91.938418 
L 335.585 91.938418 
z
" style="fill: #c03d3e; stroke: #3d3d3d; stroke-width: 0.75; stroke-linejoin: miter"/>
    </g>
    <g id="text_17">
     <!-- drop80 -->
     <g transform="translate(363.585 98.938418) scale(0.1 -0.1)">
      <defs>
       <path id="DejaVuSans-38" d="M 2034 2216 
Q 1584 2216 1326 1975 
Q 1069 1734 1069 1313 
Q 1069 891 1326 650 
Q 1584 409 2034 409 
Q 2484 409 2743 651 
Q 3003 894 3003 1313 
Q 3003 1734 2745 1975 
Q 2488 2216 2034 2216 
z
M 1403 2484 
Q 997 2584 770 2862 
Q 544 3141 544 3541 
Q 544 4100 942 4425 
Q 1341 4750 2034 4750 
Q 2731 4750 3128 4425 
Q 3525 4100 3525 3541 
Q 3525 3141 3298 2862 
Q 3072 2584 2669 2484 
Q 3125 2378 3379 2068 
Q 3634 1759 3634 1313 
Q 3634 634 3220 271 
Q 2806 -91 2034 -91 
Q 1263 -91 848 271 
Q 434 634 434 1313 
Q 434 1759 690 2068 
Q 947 2378 1403 2484 
z
M 1172 3481 
Q 1172 3119 1398 2916 
Q 1625 2713 2034 2713 
Q 2441 2713 2670 2916 
Q 2900 3119 2900 3481 
Q 2900 3844 2670 4047 
Q 2441 4250 2034 4250 
Q 1625 4250 1398 4047 
Q 1172 3844 1172 3481 
z
" transform="scale(0.015625)"/>
      </defs>
      <use xlink:href="#DejaVuSans-64"/>
      <use xlink:href="#DejaVuSans-72" x="63.476562"/>
      <use xlink:href="#DejaVuSans-6f" x="102.339844"/>
      <use xlink:href="#DejaVuSans-70" x="163.521484"/>
      <use xlink:href="#DejaVuSans-38" x="226.998047"/>
      <use xlink:href="#DejaVuSans-30" x="290.621094"/>
     </g>
    </g>
   </g>
  </g>
 </g>
 <defs>
  <clipPath id="p26adc2e880">
   <rect x="53.60625" y="22.318125" width="272.97875" height="87.69998"/>
  </clipPath>
 </defs>
</svg>
