<?xml version="1.0" encoding="utf-8" standalone="no"?>
<!DOCTYPE svg PUBLIC "-//W3C//DTD SVG 1.1//EN"
  "http://www.w3.org/Graphics/SVG/1.1/DTD/svg11.dtd">
<svg xmlns:xlink="http://www.w3.org/1999/xlink" width="410.024375pt" height="207.241673pt" viewBox="0 0 410.024375 207.241673" xmlns="http://www.w3.org/2000/svg" version="1.1">
 <metadata>
  <rdf:RDF xmlns:dc="http://purl.org/dc/elements/1.1/" xmlns:cc="http://creativecommons.org/ns#" xmlns:rdf="http://www.w3.org/1999/02/22-rdf-syntax-ns#">
   <cc:Work>
    <dc:type rdf:resource="http://purl.org/dc/dcmitype/StillImage"/>
    <dc:date>2023-06-23T11:35:47.930659</dc:date>
    <dc:format>image/svg+xml</dc:format>
    <dc:creator>
     <cc:Agent>
      <dc:title>Matplotlib v3.7.1, https://matplotlib.org/</dc:title>
     </cc:Agent>
    </dc:creator>
   </cc:Work>
  </rdf:RDF>
 </metadata>
 <defs>
  <style type="text/css">*{stroke-linejoin: round; stroke-linecap: butt}</style>
 </defs>
 <g id="figure_1">
  <g id="patch_1">
   <path d="M 0 207.241673 
L 410.024375 207.241673 
L 410.024375 0 
L 0 0 
L 0 207.241673 
z
" style="fill: none"/>
  </g>
  <g id="axes_1">
   <g id="patch_2">
    <path d="M 44.059375 147.191593 
L 274.018125 147.191593 
L 274.018125 22.318125 
L 44.059375 22.318125 
L 44.059375 147.191593 
z
" style="fill: none"/>
   </g>
   <g id="patch_3">
    <path d="M 49.923323 137.575762 
L 61.191302 137.575762 
L 61.191302 135.240773 
L 49.923323 135.240773 
L 49.923323 137.575762 
z
" clip-path="url(#p603dde3e94)" style="fill: #3274a1; stroke: #3d3d3d; stroke-width: 1.5; stroke-linejoin: miter"/>
   </g>
   <g id="patch_4">
    <path d="M 61.421261 74.481552 
L 72.689239 74.481552 
L 72.689239 55.596513 
L 61.421261 55.596513 
L 61.421261 74.481552 
z
" clip-path="url(#p603dde3e94)" style="fill: #e1812c; stroke: #3d3d3d; stroke-width: 1.5; stroke-linejoin: miter"/>
   </g>
   <g id="patch_5">
    <path d="M 72.919198 135.170431 
L 84.187177 135.170431 
L 84.187177 128.350768 
L 72.919198 128.350768 
L 72.919198 135.170431 
z
" clip-path="url(#p603dde3e94)" style="fill: #3a923a; stroke: #3d3d3d; stroke-width: 1.5; stroke-linejoin: miter"/>
   </g>
   <g id="patch_6">
    <path d="M 84.417136 57.216571 
L 95.685114 57.216571 
L 95.685114 31.764055 
L 84.417136 31.764055 
L 84.417136 57.216571 
z
" clip-path="url(#p603dde3e94)" style="fill: #c03d3e; stroke: #3d3d3d; stroke-width: 1.5; stroke-linejoin: miter"/>
   </g>
   <g id="patch_7">
    <path d="M 107.413011 137.868019 
L 118.680989 137.868019 
L 118.680989 136.855697 
L 107.413011 136.855697 
L 107.413011 137.868019 
z
" clip-path="url(#p603dde3e94)" style="fill: #3274a1; stroke: #3d3d3d; stroke-width: 1.5; stroke-linejoin: miter"/>
   </g>
   <g id="patch_8">
    <path d="M 118.910948 76.596725 
L 130.178927 76.596725 
L 130.178927 68.592643 
L 118.910948 68.592643 
L 118.910948 76.596725 
z
" clip-path="url(#p603dde3e94)" style="fill: #e1812c; stroke: #3d3d3d; stroke-width: 1.5; stroke-linejoin: miter"/>
   </g>
   <g id="patch_9">
    <path d="M 130.408886 137.040717 
L 141.676864 137.040717 
L 141.676864 136.710912 
L 130.408886 136.710912 
L 130.408886 137.040717 
z
" clip-path="url(#p603dde3e94)" style="fill: #3a923a; stroke: #3d3d3d; stroke-width: 1.5; stroke-linejoin: miter"/>
   </g>
   <g id="patch_10">
    <path d="M 141.906823 82.257671 
L 153.174802 82.257671 
L 153.174802 47.205054 
L 141.906823 47.205054 
L 141.906823 82.257671 
z
" clip-path="url(#p603dde3e94)" style="fill: #c03d3e; stroke: #3d3d3d; stroke-width: 1.5; stroke-linejoin: miter"/>
   </g>
   <g id="patch_11">
    <path d="M 164.902698 138.312055 
L 176.170677 138.312055 
L 176.170677 136.445185 
L 164.902698 136.445185 
L 164.902698 138.312055 
z
" clip-path="url(#p603dde3e94)" style="fill: #3274a1; stroke: #3d3d3d; stroke-width: 1.5; stroke-linejoin: miter"/>
   </g>
   <g id="patch_12">
    <path d="M 176.400636 85.248407 
L 187.668614 85.248407 
L 187.668614 55.980943 
L 176.400636 55.980943 
L 176.400636 85.248407 
z
" clip-path="url(#p603dde3e94)" style="fill: #e1812c; stroke: #3d3d3d; stroke-width: 1.5; stroke-linejoin: miter"/>
   </g>
   <g id="patch_13">
    <path d="M 187.898573 138.100343 
L 199.166552 138.100343 
L 199.166552 138.023735 
L 187.898573 138.023735 
L 187.898573 138.100343 
z
" clip-path="url(#p603dde3e94)" style="fill: #3a923a; stroke: #3d3d3d; stroke-width: 1.5; stroke-linejoin: miter"/>
   </g>
   <g id="patch_14">
    <path d="M 199.396511 82.32996 
L 210.664489 82.32996 
L 210.664489 51.083069 
L 199.396511 51.083069 
L 199.396511 82.32996 
z
" clip-path="url(#p603dde3e94)" style="fill: #c03d3e; stroke: #3d3d3d; stroke-width: 1.5; stroke-linejoin: miter"/>
   </g>
   <g id="patch_15">
    <path d="M 222.392386 140.434461 
L 233.660364 140.434461 
L 233.660364 139.047402 
L 222.392386 139.047402 
L 222.392386 140.434461 
z
" clip-path="url(#p603dde3e94)" style="fill: #3274a1; stroke: #3d3d3d; stroke-width: 1.5; stroke-linejoin: miter"/>
   </g>
   <g id="patch_16">
    <path d="M 233.890323 102.12972 
L 245.158302 102.12972 
L 245.158302 86.029438 
L 233.890323 86.029438 
L 233.890323 102.12972 
z
" clip-path="url(#p603dde3e94)" style="fill: #e1812c; stroke: #3d3d3d; stroke-width: 1.5; stroke-linejoin: miter"/>
   </g>
   <g id="patch_17">
    <path d="M 245.388261 140.376715 
L 256.656239 140.376715 
L 256.656239 138.773636 
L 245.388261 138.773636 
L 245.388261 140.376715 
z
" clip-path="url(#p603dde3e94)" style="fill: #3a923a; stroke: #3d3d3d; stroke-width: 1.5; stroke-linejoin: miter"/>
   </g>
   <g id="patch_18">
    <path d="M 256.886198 111.322332 
L 268.154177 111.322332 
L 268.154177 83.956642 
L 256.886198 83.956642 
L 256.886198 111.322332 
z
" clip-path="url(#p603dde3e94)" style="fill: #c03d3e; stroke: #3d3d3d; stroke-width: 1.5; stroke-linejoin: miter"/>
   </g>
   <g id="patch_19">
    <path d="M 72.804219 200.441314 
L 72.804219 200.441314 
L 72.804219 200.441314 
L 72.804219 200.441314 
z
" clip-path="url(#p603dde3e94)" style="fill: #3274a1; stroke: #3d3d3d; stroke-width: 0.75; stroke-linejoin: miter"/>
   </g>
   <g id="patch_20">
    <path d="M 72.804219 200.441314 
L 72.804219 200.441314 
L 72.804219 200.441314 
L 72.804219 200.441314 
z
" clip-path="url(#p603dde3e94)" style="fill: #e1812c; stroke: #3d3d3d; stroke-width: 0.75; stroke-linejoin: miter"/>
   </g>
   <g id="patch_21">
    <path d="M 72.804219 200.441314 
L 72.804219 200.441314 
L 72.804219 200.441314 
L 72.804219 200.441314 
z
" clip-path="url(#p603dde3e94)" style="fill: #3a923a; stroke: #3d3d3d; stroke-width: 0.75; stroke-linejoin: miter"/>
   </g>
   <g id="patch_22">
    <path d="M 72.804219 200.441314 
L 72.804219 200.441314 
L 72.804219 200.441314 
L 72.804219 200.441314 
z
" clip-path="url(#p603dde3e94)" style="fill: #c03d3e; stroke: #3d3d3d; stroke-width: 0.75; stroke-linejoin: miter"/>
   </g>
   <g id="matplotlib.axis_1">
    <g id="xtick_1">
     <g id="line2d_1">
      <defs>
       <path id="m1bc7297d6e" d="M 0 0 
L 0 3.5 
" style="stroke: #000000; stroke-width: 0.8"/>
      </defs>
      <g>
       <use xlink:href="#m1bc7297d6e" x="72.804219" y="147.191593" style="stroke: #000000; stroke-width: 0.8"/>
      </g>
     </g>
     <g id="text_1">
      <!-- none -->
      <g transform="translate(53.693553 177.204604) rotate(-45) scale(0.1 -0.1)">
       <defs>
        <path id="DejaVuSans-6e" d="M 3513 2113 
L 3513 0 
L 2938 0 
L 2938 2094 
Q 2938 2591 2744 2837 
Q 2550 3084 2163 3084 
Q 1697 3084 1428 2787 
Q 1159 2491 1159 1978 
L 1159 0 
L 581 0 
L 581 3500 
L 1159 3500 
L 1159 2956 
Q 1366 3272 1645 3428 
Q 1925 3584 2291 3584 
Q 2894 3584 3203 3211 
Q 3513 2838 3513 2113 
z
" transform="scale(0.015625)"/>
        <path id="DejaVuSans-6f" d="M 1959 3097 
Q 1497 3097 1228 2736 
Q 959 2375 959 1747 
Q 959 1119 1226 758 
Q 1494 397 1959 397 
Q 2419 397 2687 759 
Q 2956 1122 2956 1747 
Q 2956 2369 2687 2733 
Q 2419 3097 1959 3097 
z
M 1959 3584 
Q 2709 3584 3137 3096 
Q 3566 2609 3566 1747 
Q 3566 888 3137 398 
Q 2709 -91 1959 -91 
Q 1206 -91 779 398 
Q 353 888 353 1747 
Q 353 2609 779 3096 
Q 1206 3584 1959 3584 
z
" transform="scale(0.015625)"/>
        <path id="DejaVuSans-65" d="M 3597 1894 
L 3597 1613 
L 953 1613 
Q 991 1019 1311 708 
Q 1631 397 2203 397 
Q 2534 397 2845 478 
Q 3156 559 3463 722 
L 3463 178 
Q 3153 47 2828 -22 
Q 2503 -91 2169 -91 
Q 1331 -91 842 396 
Q 353 884 353 1716 
Q 353 2575 817 3079 
Q 1281 3584 2069 3584 
Q 2775 3584 3186 3129 
Q 3597 2675 3597 1894 
z
M 3022 2063 
Q 3016 2534 2758 2815 
Q 2500 3097 2075 3097 
Q 1594 3097 1305 2825 
Q 1016 2553 972 2059 
L 3022 2063 
z
" transform="scale(0.015625)"/>
       </defs>
       <use xlink:href="#DejaVuSans-6e"/>
       <use xlink:href="#DejaVuSans-6f" x="63.378906"/>
       <use xlink:href="#DejaVuSans-6e" x="124.560547"/>
       <use xlink:href="#DejaVuSans-65" x="187.939453"/>
      </g>
     </g>
    </g>
    <g id="xtick_2">
     <g id="line2d_2">
      <g>
       <use xlink:href="#m1bc7297d6e" x="130.293906" y="147.191593" style="stroke: #000000; stroke-width: 0.8"/>
      </g>
     </g>
     <g id="text_2">
      <!-- drop30 -->
      <g transform="translate(103.772983 184.614862) rotate(-45) scale(0.1 -0.1)">
       <defs>
        <path id="DejaVuSans-64" d="M 2906 2969 
L 2906 4863 
L 3481 4863 
L 3481 0 
L 2906 0 
L 2906 525 
Q 2725 213 2448 61 
Q 2172 -91 1784 -91 
Q 1150 -91 751 415 
Q 353 922 353 1747 
Q 353 2572 751 3078 
Q 1150 3584 1784 3584 
Q 2172 3584 2448 3432 
Q 2725 3281 2906 2969 
z
M 947 1747 
Q 947 1113 1208 752 
Q 1469 391 1925 391 
Q 2381 391 2643 752 
Q 2906 1113 2906 1747 
Q 2906 2381 2643 2742 
Q 2381 3103 1925 3103 
Q 1469 3103 1208 2742 
Q 947 2381 947 1747 
z
" transform="scale(0.015625)"/>
        <path id="DejaVuSans-72" d="M 2631 2963 
Q 2534 3019 2420 3045 
Q 2306 3072 2169 3072 
Q 1681 3072 1420 2755 
Q 1159 2438 1159 1844 
L 1159 0 
L 581 0 
L 581 3500 
L 1159 3500 
L 1159 2956 
Q 1341 3275 1631 3429 
Q 1922 3584 2338 3584 
Q 2397 3584 2469 3576 
Q 2541 3569 2628 3553 
L 2631 2963 
z
" transform="scale(0.015625)"/>
        <path id="DejaVuSans-70" d="M 1159 525 
L 1159 -1331 
L 581 -1331 
L 581 3500 
L 1159 3500 
L 1159 2969 
Q 1341 3281 1617 3432 
Q 1894 3584 2278 3584 
Q 2916 3584 3314 3078 
Q 3713 2572 3713 1747 
Q 3713 922 3314 415 
Q 2916 -91 2278 -91 
Q 1894 -91 1617 61 
Q 1341 213 1159 525 
z
M 3116 1747 
Q 3116 2381 2855 2742 
Q 2594 3103 2138 3103 
Q 1681 3103 1420 2742 
Q 1159 2381 1159 1747 
Q 1159 1113 1420 752 
Q 1681 391 2138 391 
Q 2594 391 2855 752 
Q 3116 1113 3116 1747 
z
" transform="scale(0.015625)"/>
        <path id="DejaVuSans-33" d="M 2597 2516 
Q 3050 2419 3304 2112 
Q 3559 1806 3559 1356 
Q 3559 666 3084 287 
Q 2609 -91 1734 -91 
Q 1441 -91 1130 -33 
Q 819 25 488 141 
L 488 750 
Q 750 597 1062 519 
Q 1375 441 1716 441 
Q 2309 441 2620 675 
Q 2931 909 2931 1356 
Q 2931 1769 2642 2001 
Q 2353 2234 1838 2234 
L 1294 2234 
L 1294 2753 
L 1863 2753 
Q 2328 2753 2575 2939 
Q 2822 3125 2822 3475 
Q 2822 3834 2567 4026 
Q 2313 4219 1838 4219 
Q 1578 4219 1281 4162 
Q 984 4106 628 3988 
L 628 4550 
Q 988 4650 1302 4700 
Q 1616 4750 1894 4750 
Q 2613 4750 3031 4423 
Q 3450 4097 3450 3541 
Q 3450 3153 3228 2886 
Q 3006 2619 2597 2516 
z
" transform="scale(0.015625)"/>
        <path id="DejaVuSans-30" d="M 2034 4250 
Q 1547 4250 1301 3770 
Q 1056 3291 1056 2328 
Q 1056 1369 1301 889 
Q 1547 409 2034 409 
Q 2525 409 2770 889 
Q 3016 1369 3016 2328 
Q 3016 3291 2770 3770 
Q 2525 4250 2034 4250 
z
M 2034 4750 
Q 2819 4750 3233 4129 
Q 3647 3509 3647 2328 
Q 3647 1150 3233 529 
Q 2819 -91 2034 -91 
Q 1250 -91 836 529 
Q 422 1150 422 2328 
Q 422 3509 836 4129 
Q 1250 4750 2034 4750 
z
" transform="scale(0.015625)"/>
       </defs>
       <use xlink:href="#DejaVuSans-64"/>
       <use xlink:href="#DejaVuSans-72" x="63.476562"/>
       <use xlink:href="#DejaVuSans-6f" x="102.339844"/>
       <use xlink:href="#DejaVuSans-70" x="163.521484"/>
       <use xlink:href="#DejaVuSans-33" x="226.998047"/>
       <use xlink:href="#DejaVuSans-30" x="290.621094"/>
      </g>
     </g>
    </g>
    <g id="xtick_3">
     <g id="line2d_3">
      <g>
       <use xlink:href="#m1bc7297d6e" x="187.783594" y="147.191593" style="stroke: #000000; stroke-width: 0.8"/>
      </g>
     </g>
     <g id="text_3">
      <!-- drop50 -->
      <g transform="translate(161.26267 184.614862) rotate(-45) scale(0.1 -0.1)">
       <defs>
        <path id="DejaVuSans-35" d="M 691 4666 
L 3169 4666 
L 3169 4134 
L 1269 4134 
L 1269 2991 
Q 1406 3038 1543 3061 
Q 1681 3084 1819 3084 
Q 2600 3084 3056 2656 
Q 3513 2228 3513 1497 
Q 3513 744 3044 326 
Q 2575 -91 1722 -91 
Q 1428 -91 1123 -41 
Q 819 9 494 109 
L 494 744 
Q 775 591 1075 516 
Q 1375 441 1709 441 
Q 2250 441 2565 725 
Q 2881 1009 2881 1497 
Q 2881 1984 2565 2268 
Q 2250 2553 1709 2553 
Q 1456 2553 1204 2497 
Q 953 2441 691 2322 
L 691 4666 
z
" transform="scale(0.015625)"/>
       </defs>
       <use xlink:href="#DejaVuSans-64"/>
       <use xlink:href="#DejaVuSans-72" x="63.476562"/>
       <use xlink:href="#DejaVuSans-6f" x="102.339844"/>
       <use xlink:href="#DejaVuSans-70" x="163.521484"/>
       <use xlink:href="#DejaVuSans-35" x="226.998047"/>
       <use xlink:href="#DejaVuSans-30" x="290.621094"/>
      </g>
     </g>
    </g>
    <g id="xtick_4">
     <g id="line2d_4">
      <g>
       <use xlink:href="#m1bc7297d6e" x="245.273281" y="147.191593" style="stroke: #000000; stroke-width: 0.8"/>
      </g>
     </g>
     <g id="text_4">
      <!-- drop80 -->
      <g transform="translate(218.752358 184.614862) rotate(-45) scale(0.1 -0.1)">
       <defs>
        <path id="DejaVuSans-38" d="M 2034 2216 
Q 1584 2216 1326 1975 
Q 1069 1734 1069 1313 
Q 1069 891 1326 650 
Q 1584 409 2034 409 
Q 2484 409 2743 651 
Q 3003 894 3003 1313 
Q 3003 1734 2745 1975 
Q 2488 2216 2034 2216 
z
M 1403 2484 
Q 997 2584 770 2862 
Q 544 3141 544 3541 
Q 544 4100 942 4425 
Q 1341 4750 2034 4750 
Q 2731 4750 3128 4425 
Q 3525 4100 3525 3541 
Q 3525 3141 3298 2862 
Q 3072 2584 2669 2484 
Q 3125 2378 3379 2068 
Q 3634 1759 3634 1313 
Q 3634 634 3220 271 
Q 2806 -91 2034 -91 
Q 1263 -91 848 271 
Q 434 634 434 1313 
Q 434 1759 690 2068 
Q 947 2378 1403 2484 
z
M 1172 3481 
Q 1172 3119 1398 2916 
Q 1625 2713 2034 2713 
Q 2441 2713 2670 2916 
Q 2900 3119 2900 3481 
Q 2900 3844 2670 4047 
Q 2441 4250 2034 4250 
Q 1625 4250 1398 4047 
Q 1172 3844 1172 3481 
z
" transform="scale(0.015625)"/>
       </defs>
       <use xlink:href="#DejaVuSans-64"/>
       <use xlink:href="#DejaVuSans-72" x="63.476562"/>
       <use xlink:href="#DejaVuSans-6f" x="102.339844"/>
       <use xlink:href="#DejaVuSans-70" x="163.521484"/>
       <use xlink:href="#DejaVuSans-38" x="226.998047"/>
       <use xlink:href="#DejaVuSans-30" x="290.621094"/>
      </g>
     </g>
    </g>
    <g id="text_5">
     <!-- estimator_suffix -->
     <g transform="translate(118.856719 197.68386) scale(0.1 -0.1)">
      <defs>
       <path id="DejaVuSans-73" d="M 2834 3397 
L 2834 2853 
Q 2591 2978 2328 3040 
Q 2066 3103 1784 3103 
Q 1356 3103 1142 2972 
Q 928 2841 928 2578 
Q 928 2378 1081 2264 
Q 1234 2150 1697 2047 
L 1894 2003 
Q 2506 1872 2764 1633 
Q 3022 1394 3022 966 
Q 3022 478 2636 193 
Q 2250 -91 1575 -91 
Q 1294 -91 989 -36 
Q 684 19 347 128 
L 347 722 
Q 666 556 975 473 
Q 1284 391 1588 391 
Q 1994 391 2212 530 
Q 2431 669 2431 922 
Q 2431 1156 2273 1281 
Q 2116 1406 1581 1522 
L 1381 1569 
Q 847 1681 609 1914 
Q 372 2147 372 2553 
Q 372 3047 722 3315 
Q 1072 3584 1716 3584 
Q 2034 3584 2315 3537 
Q 2597 3491 2834 3397 
z
" transform="scale(0.015625)"/>
       <path id="DejaVuSans-74" d="M 1172 4494 
L 1172 3500 
L 2356 3500 
L 2356 3053 
L 1172 3053 
L 1172 1153 
Q 1172 725 1289 603 
Q 1406 481 1766 481 
L 2356 481 
L 2356 0 
L 1766 0 
Q 1100 0 847 248 
Q 594 497 594 1153 
L 594 3053 
L 172 3053 
L 172 3500 
L 594 3500 
L 594 4494 
L 1172 4494 
z
" transform="scale(0.015625)"/>
       <path id="DejaVuSans-69" d="M 603 3500 
L 1178 3500 
L 1178 0 
L 603 0 
L 603 3500 
z
M 603 4863 
L 1178 4863 
L 1178 4134 
L 603 4134 
L 603 4863 
z
" transform="scale(0.015625)"/>
       <path id="DejaVuSans-6d" d="M 3328 2828 
Q 3544 3216 3844 3400 
Q 4144 3584 4550 3584 
Q 5097 3584 5394 3201 
Q 5691 2819 5691 2113 
L 5691 0 
L 5113 0 
L 5113 2094 
Q 5113 2597 4934 2840 
Q 4756 3084 4391 3084 
Q 3944 3084 3684 2787 
Q 3425 2491 3425 1978 
L 3425 0 
L 2847 0 
L 2847 2094 
Q 2847 2600 2669 2842 
Q 2491 3084 2119 3084 
Q 1678 3084 1418 2786 
Q 1159 2488 1159 1978 
L 1159 0 
L 581 0 
L 581 3500 
L 1159 3500 
L 1159 2956 
Q 1356 3278 1631 3431 
Q 1906 3584 2284 3584 
Q 2666 3584 2933 3390 
Q 3200 3197 3328 2828 
z
" transform="scale(0.015625)"/>
       <path id="DejaVuSans-61" d="M 2194 1759 
Q 1497 1759 1228 1600 
Q 959 1441 959 1056 
Q 959 750 1161 570 
Q 1363 391 1709 391 
Q 2188 391 2477 730 
Q 2766 1069 2766 1631 
L 2766 1759 
L 2194 1759 
z
M 3341 1997 
L 3341 0 
L 2766 0 
L 2766 531 
Q 2569 213 2275 61 
Q 1981 -91 1556 -91 
Q 1019 -91 701 211 
Q 384 513 384 1019 
Q 384 1609 779 1909 
Q 1175 2209 1959 2209 
L 2766 2209 
L 2766 2266 
Q 2766 2663 2505 2880 
Q 2244 3097 1772 3097 
Q 1472 3097 1187 3025 
Q 903 2953 641 2809 
L 641 3341 
Q 956 3463 1253 3523 
Q 1550 3584 1831 3584 
Q 2591 3584 2966 3190 
Q 3341 2797 3341 1997 
z
" transform="scale(0.015625)"/>
       <path id="DejaVuSans-5f" d="M 3263 -1063 
L 3263 -1509 
L -63 -1509 
L -63 -1063 
L 3263 -1063 
z
" transform="scale(0.015625)"/>
       <path id="DejaVuSans-75" d="M 544 1381 
L 544 3500 
L 1119 3500 
L 1119 1403 
Q 1119 906 1312 657 
Q 1506 409 1894 409 
Q 2359 409 2629 706 
Q 2900 1003 2900 1516 
L 2900 3500 
L 3475 3500 
L 3475 0 
L 2900 0 
L 2900 538 
Q 2691 219 2414 64 
Q 2138 -91 1772 -91 
Q 1169 -91 856 284 
Q 544 659 544 1381 
z
M 1991 3584 
L 1991 3584 
z
" transform="scale(0.015625)"/>
       <path id="DejaVuSans-66" d="M 2375 4863 
L 2375 4384 
L 1825 4384 
Q 1516 4384 1395 4259 
Q 1275 4134 1275 3809 
L 1275 3500 
L 2222 3500 
L 2222 3053 
L 1275 3053 
L 1275 0 
L 697 0 
L 697 3053 
L 147 3053 
L 147 3500 
L 697 3500 
L 697 3744 
Q 697 4328 969 4595 
Q 1241 4863 1831 4863 
L 2375 4863 
z
" transform="scale(0.015625)"/>
       <path id="DejaVuSans-78" d="M 3513 3500 
L 2247 1797 
L 3578 0 
L 2900 0 
L 1881 1375 
L 863 0 
L 184 0 
L 1544 1831 
L 300 3500 
L 978 3500 
L 1906 2253 
L 2834 3500 
L 3513 3500 
z
" transform="scale(0.015625)"/>
      </defs>
      <use xlink:href="#DejaVuSans-65"/>
      <use xlink:href="#DejaVuSans-73" x="61.523438"/>
      <use xlink:href="#DejaVuSans-74" x="113.623047"/>
      <use xlink:href="#DejaVuSans-69" x="152.832031"/>
      <use xlink:href="#DejaVuSans-6d" x="180.615234"/>
      <use xlink:href="#DejaVuSans-61" x="278.027344"/>
      <use xlink:href="#DejaVuSans-74" x="339.306641"/>
      <use xlink:href="#DejaVuSans-6f" x="378.515625"/>
      <use xlink:href="#DejaVuSans-72" x="439.697266"/>
      <use xlink:href="#DejaVuSans-5f" x="480.810547"/>
      <use xlink:href="#DejaVuSans-73" x="530.810547"/>
      <use xlink:href="#DejaVuSans-75" x="582.910156"/>
      <use xlink:href="#DejaVuSans-66" x="646.289062"/>
      <use xlink:href="#DejaVuSans-66" x="681.494141"/>
      <use xlink:href="#DejaVuSans-69" x="716.699219"/>
      <use xlink:href="#DejaVuSans-78" x="744.482422"/>
     </g>
    </g>
   </g>
   <g id="matplotlib.axis_2">
    <g id="ytick_1">
     <g id="line2d_5">
      <defs>
       <path id="mb79d381c63" d="M 0 0 
L -3.5 0 
" style="stroke: #000000; stroke-width: 0.8"/>
      </defs>
      <g>
       <use xlink:href="#mb79d381c63" x="44.059375" y="132.008478" style="stroke: #000000; stroke-width: 0.8"/>
      </g>
     </g>
     <g id="text_6">
      <!-- 1.5 -->
      <g transform="translate(21.15625 135.807697) scale(0.1 -0.1)">
       <defs>
        <path id="DejaVuSans-31" d="M 794 531 
L 1825 531 
L 1825 4091 
L 703 3866 
L 703 4441 
L 1819 4666 
L 2450 4666 
L 2450 531 
L 3481 531 
L 3481 0 
L 794 0 
L 794 531 
z
" transform="scale(0.015625)"/>
        <path id="DejaVuSans-2e" d="M 684 794 
L 1344 794 
L 1344 0 
L 684 0 
L 684 794 
z
" transform="scale(0.015625)"/>
       </defs>
       <use xlink:href="#DejaVuSans-31"/>
       <use xlink:href="#DejaVuSans-2e" x="63.623047"/>
       <use xlink:href="#DejaVuSans-35" x="95.410156"/>
      </g>
     </g>
    </g>
    <g id="ytick_2">
     <g id="line2d_6">
      <g>
       <use xlink:href="#mb79d381c63" x="44.059375" y="109.197533" style="stroke: #000000; stroke-width: 0.8"/>
      </g>
     </g>
     <g id="text_7">
      <!-- 2.0 -->
      <g transform="translate(21.15625 112.996752) scale(0.1 -0.1)">
       <defs>
        <path id="DejaVuSans-32" d="M 1228 531 
L 3431 531 
L 3431 0 
L 469 0 
L 469 531 
Q 828 903 1448 1529 
Q 2069 2156 2228 2338 
Q 2531 2678 2651 2914 
Q 2772 3150 2772 3378 
Q 2772 3750 2511 3984 
Q 2250 4219 1831 4219 
Q 1534 4219 1204 4116 
Q 875 4013 500 3803 
L 500 4441 
Q 881 4594 1212 4672 
Q 1544 4750 1819 4750 
Q 2544 4750 2975 4387 
Q 3406 4025 3406 3419 
Q 3406 3131 3298 2873 
Q 3191 2616 2906 2266 
Q 2828 2175 2409 1742 
Q 1991 1309 1228 531 
z
" transform="scale(0.015625)"/>
       </defs>
       <use xlink:href="#DejaVuSans-32"/>
       <use xlink:href="#DejaVuSans-2e" x="63.623047"/>
       <use xlink:href="#DejaVuSans-30" x="95.410156"/>
      </g>
     </g>
    </g>
    <g id="ytick_3">
     <g id="line2d_7">
      <g>
       <use xlink:href="#mb79d381c63" x="44.059375" y="86.386588" style="stroke: #000000; stroke-width: 0.8"/>
      </g>
     </g>
     <g id="text_8">
      <!-- 2.5 -->
      <g transform="translate(21.15625 90.185807) scale(0.1 -0.1)">
       <use xlink:href="#DejaVuSans-32"/>
       <use xlink:href="#DejaVuSans-2e" x="63.623047"/>
       <use xlink:href="#DejaVuSans-35" x="95.410156"/>
      </g>
     </g>
    </g>
    <g id="ytick_4">
     <g id="line2d_8">
      <g>
       <use xlink:href="#mb79d381c63" x="44.059375" y="63.575643" style="stroke: #000000; stroke-width: 0.8"/>
      </g>
     </g>
     <g id="text_9">
      <!-- 3.0 -->
      <g transform="translate(21.15625 67.374861) scale(0.1 -0.1)">
       <use xlink:href="#DejaVuSans-33"/>
       <use xlink:href="#DejaVuSans-2e" x="63.623047"/>
       <use xlink:href="#DejaVuSans-30" x="95.410156"/>
      </g>
     </g>
    </g>
    <g id="ytick_5">
     <g id="line2d_9">
      <g>
       <use xlink:href="#mb79d381c63" x="44.059375" y="40.764698" style="stroke: #000000; stroke-width: 0.8"/>
      </g>
     </g>
     <g id="text_10">
      <!-- 3.5 -->
      <g transform="translate(21.15625 44.563916) scale(0.1 -0.1)">
       <use xlink:href="#DejaVuSans-33"/>
       <use xlink:href="#DejaVuSans-2e" x="63.623047"/>
       <use xlink:href="#DejaVuSans-35" x="95.410156"/>
      </g>
     </g>
    </g>
    <g id="text_11">
     <!-- score_time -->
     <g transform="translate(14.798437 111.983765) rotate(-90) scale(0.1 -0.1)">
      <defs>
       <path id="DejaVuSans-63" d="M 3122 3366 
L 3122 2828 
Q 2878 2963 2633 3030 
Q 2388 3097 2138 3097 
Q 1578 3097 1268 2742 
Q 959 2388 959 1747 
Q 959 1106 1268 751 
Q 1578 397 2138 397 
Q 2388 397 2633 464 
Q 2878 531 3122 666 
L 3122 134 
Q 2881 22 2623 -34 
Q 2366 -91 2075 -91 
Q 1284 -91 818 406 
Q 353 903 353 1747 
Q 353 2603 823 3093 
Q 1294 3584 2113 3584 
Q 2378 3584 2631 3529 
Q 2884 3475 3122 3366 
z
" transform="scale(0.015625)"/>
      </defs>
      <use xlink:href="#DejaVuSans-73"/>
      <use xlink:href="#DejaVuSans-63" x="52.099609"/>
      <use xlink:href="#DejaVuSans-6f" x="107.080078"/>
      <use xlink:href="#DejaVuSans-72" x="168.261719"/>
      <use xlink:href="#DejaVuSans-65" x="207.125"/>
      <use xlink:href="#DejaVuSans-5f" x="268.648438"/>
      <use xlink:href="#DejaVuSans-74" x="318.648438"/>
      <use xlink:href="#DejaVuSans-69" x="357.857422"/>
      <use xlink:href="#DejaVuSans-6d" x="385.640625"/>
      <use xlink:href="#DejaVuSans-65" x="483.052734"/>
     </g>
    </g>
   </g>
   <g id="line2d_10">
    <path d="M 55.557313 137.575762 
L 55.557313 137.619444 
" clip-path="url(#p603dde3e94)" style="fill: none; stroke: #3d3d3d; stroke-width: 1.5; stroke-linecap: square"/>
   </g>
   <g id="line2d_11">
    <path d="M 55.557313 135.240773 
L 55.557313 134.671825 
" clip-path="url(#p603dde3e94)" style="fill: none; stroke: #3d3d3d; stroke-width: 1.5; stroke-linecap: square"/>
   </g>
   <g id="line2d_12">
    <path d="M 52.740318 137.619444 
L 58.374307 137.619444 
" clip-path="url(#p603dde3e94)" style="fill: none; stroke: #3d3d3d; stroke-width: 1.5; stroke-linecap: square"/>
   </g>
   <g id="line2d_13">
    <path d="M 52.740318 134.671825 
L 58.374307 134.671825 
" clip-path="url(#p603dde3e94)" style="fill: none; stroke: #3d3d3d; stroke-width: 1.5; stroke-linecap: square"/>
   </g>
   <g id="line2d_14"/>
   <g id="line2d_15">
    <path d="M 67.05525 74.481552 
L 67.05525 83.286428 
" clip-path="url(#p603dde3e94)" style="fill: none; stroke: #3d3d3d; stroke-width: 1.5; stroke-linecap: square"/>
   </g>
   <g id="line2d_16">
    <path d="M 67.05525 55.596513 
L 67.05525 39.202071 
" clip-path="url(#p603dde3e94)" style="fill: none; stroke: #3d3d3d; stroke-width: 1.5; stroke-linecap: square"/>
   </g>
   <g id="line2d_17">
    <path d="M 64.238255 83.286428 
L 69.872245 83.286428 
" clip-path="url(#p603dde3e94)" style="fill: none; stroke: #3d3d3d; stroke-width: 1.5; stroke-linecap: square"/>
   </g>
   <g id="line2d_18">
    <path d="M 64.238255 39.202071 
L 69.872245 39.202071 
" clip-path="url(#p603dde3e94)" style="fill: none; stroke: #3d3d3d; stroke-width: 1.5; stroke-linecap: square"/>
   </g>
   <g id="line2d_19"/>
   <g id="line2d_20">
    <path d="M 78.553188 135.170431 
L 78.553188 135.745352 
" clip-path="url(#p603dde3e94)" style="fill: none; stroke: #3d3d3d; stroke-width: 1.5; stroke-linecap: square"/>
   </g>
   <g id="line2d_21">
    <path d="M 78.553188 128.350768 
L 78.553188 123.741964 
" clip-path="url(#p603dde3e94)" style="fill: none; stroke: #3d3d3d; stroke-width: 1.5; stroke-linecap: square"/>
   </g>
   <g id="line2d_22">
    <path d="M 75.736193 135.745352 
L 81.370182 135.745352 
" clip-path="url(#p603dde3e94)" style="fill: none; stroke: #3d3d3d; stroke-width: 1.5; stroke-linecap: square"/>
   </g>
   <g id="line2d_23">
    <path d="M 75.736193 123.741964 
L 81.370182 123.741964 
" clip-path="url(#p603dde3e94)" style="fill: none; stroke: #3d3d3d; stroke-width: 1.5; stroke-linecap: square"/>
   </g>
   <g id="line2d_24"/>
   <g id="line2d_25">
    <path d="M 90.051125 57.216571 
L 90.051125 57.216571 
" clip-path="url(#p603dde3e94)" style="fill: none; stroke: #3d3d3d; stroke-width: 1.5; stroke-linecap: square"/>
   </g>
   <g id="line2d_26">
    <path d="M 90.051125 31.764055 
L 90.051125 27.994192 
" clip-path="url(#p603dde3e94)" style="fill: none; stroke: #3d3d3d; stroke-width: 1.5; stroke-linecap: square"/>
   </g>
   <g id="line2d_27">
    <path d="M 87.23413 57.216571 
L 92.86812 57.216571 
" clip-path="url(#p603dde3e94)" style="fill: none; stroke: #3d3d3d; stroke-width: 1.5; stroke-linecap: square"/>
   </g>
   <g id="line2d_28">
    <path d="M 87.23413 27.994192 
L 92.86812 27.994192 
" clip-path="url(#p603dde3e94)" style="fill: none; stroke: #3d3d3d; stroke-width: 1.5; stroke-linecap: square"/>
   </g>
   <g id="line2d_29">
    <defs>
     <path id="m238b59226d" d="M -0 3.535534 
L 2.12132 0 
L -0 -3.535534 
L -2.12132 -0 
z
" style="stroke: #3d3d3d; stroke-linejoin: miter"/>
    </defs>
    <g clip-path="url(#p603dde3e94)">
     <use xlink:href="#m238b59226d" x="90.051125" y="103.420691" style="fill: #3d3d3d; stroke: #3d3d3d; stroke-linejoin: miter"/>
    </g>
   </g>
   <g id="line2d_30">
    <path d="M 113.047 137.868019 
L 113.047 138.42162 
" clip-path="url(#p603dde3e94)" style="fill: none; stroke: #3d3d3d; stroke-width: 1.5; stroke-linecap: square"/>
   </g>
   <g id="line2d_31">
    <path d="M 113.047 136.855697 
L 113.047 136.855697 
" clip-path="url(#p603dde3e94)" style="fill: none; stroke: #3d3d3d; stroke-width: 1.5; stroke-linecap: square"/>
   </g>
   <g id="line2d_32">
    <path d="M 110.230005 138.42162 
L 115.863995 138.42162 
" clip-path="url(#p603dde3e94)" style="fill: none; stroke: #3d3d3d; stroke-width: 1.5; stroke-linecap: square"/>
   </g>
   <g id="line2d_33">
    <path d="M 110.230005 136.855697 
L 115.863995 136.855697 
" clip-path="url(#p603dde3e94)" style="fill: none; stroke: #3d3d3d; stroke-width: 1.5; stroke-linecap: square"/>
   </g>
   <g id="line2d_34">
    <g clip-path="url(#p603dde3e94)">
     <use xlink:href="#m238b59226d" x="113.047" y="135.163057" style="fill: #3d3d3d; stroke: #3d3d3d; stroke-linejoin: miter"/>
    </g>
   </g>
   <g id="line2d_35">
    <path d="M 124.544938 76.596725 
L 124.544938 76.596725 
" clip-path="url(#p603dde3e94)" style="fill: none; stroke: #3d3d3d; stroke-width: 1.5; stroke-linecap: square"/>
   </g>
   <g id="line2d_36">
    <path d="M 124.544938 68.592643 
L 124.544938 66.626562 
" clip-path="url(#p603dde3e94)" style="fill: none; stroke: #3d3d3d; stroke-width: 1.5; stroke-linecap: square"/>
   </g>
   <g id="line2d_37">
    <path d="M 121.727943 76.596725 
L 127.361932 76.596725 
" clip-path="url(#p603dde3e94)" style="fill: none; stroke: #3d3d3d; stroke-width: 1.5; stroke-linecap: square"/>
   </g>
   <g id="line2d_38">
    <path d="M 121.727943 66.626562 
L 127.361932 66.626562 
" clip-path="url(#p603dde3e94)" style="fill: none; stroke: #3d3d3d; stroke-width: 1.5; stroke-linecap: square"/>
   </g>
   <g id="line2d_39">
    <g clip-path="url(#p603dde3e94)">
     <use xlink:href="#m238b59226d" x="124.544938" y="94.223858" style="fill: #3d3d3d; stroke: #3d3d3d; stroke-linejoin: miter"/>
    </g>
   </g>
   <g id="line2d_40">
    <path d="M 136.042875 137.040717 
L 136.042875 137.040717 
" clip-path="url(#p603dde3e94)" style="fill: none; stroke: #3d3d3d; stroke-width: 1.5; stroke-linecap: square"/>
   </g>
   <g id="line2d_41">
    <path d="M 136.042875 136.710912 
L 136.042875 136.710912 
" clip-path="url(#p603dde3e94)" style="fill: none; stroke: #3d3d3d; stroke-width: 1.5; stroke-linecap: square"/>
   </g>
   <g id="line2d_42">
    <path d="M 133.22588 137.040717 
L 138.85987 137.040717 
" clip-path="url(#p603dde3e94)" style="fill: none; stroke: #3d3d3d; stroke-width: 1.5; stroke-linecap: square"/>
   </g>
   <g id="line2d_43">
    <path d="M 133.22588 136.710912 
L 138.85987 136.710912 
" clip-path="url(#p603dde3e94)" style="fill: none; stroke: #3d3d3d; stroke-width: 1.5; stroke-linecap: square"/>
   </g>
   <g id="line2d_44">
    <g clip-path="url(#p603dde3e94)">
     <use xlink:href="#m238b59226d" x="136.042875" y="138.625957" style="fill: #3d3d3d; stroke: #3d3d3d; stroke-linejoin: miter"/>
     <use xlink:href="#m238b59226d" x="136.042875" y="131.176749" style="fill: #3d3d3d; stroke: #3d3d3d; stroke-linejoin: miter"/>
    </g>
   </g>
   <g id="line2d_45">
    <path d="M 147.540813 82.257671 
L 147.540813 108.650948 
" clip-path="url(#p603dde3e94)" style="fill: none; stroke: #3d3d3d; stroke-width: 1.5; stroke-linecap: square"/>
   </g>
   <g id="line2d_46">
    <path d="M 147.540813 47.205054 
L 147.540813 45.516264 
" clip-path="url(#p603dde3e94)" style="fill: none; stroke: #3d3d3d; stroke-width: 1.5; stroke-linecap: square"/>
   </g>
   <g id="line2d_47">
    <path d="M 144.723818 108.650948 
L 150.357807 108.650948 
" clip-path="url(#p603dde3e94)" style="fill: none; stroke: #3d3d3d; stroke-width: 1.5; stroke-linecap: square"/>
   </g>
   <g id="line2d_48">
    <path d="M 144.723818 45.516264 
L 150.357807 45.516264 
" clip-path="url(#p603dde3e94)" style="fill: none; stroke: #3d3d3d; stroke-width: 1.5; stroke-linecap: square"/>
   </g>
   <g id="line2d_49"/>
   <g id="line2d_50">
    <path d="M 170.536687 138.312055 
L 170.536687 138.777193 
" clip-path="url(#p603dde3e94)" style="fill: none; stroke: #3d3d3d; stroke-width: 1.5; stroke-linecap: square"/>
   </g>
   <g id="line2d_51">
    <path d="M 170.536687 136.445185 
L 170.536687 136.387155 
" clip-path="url(#p603dde3e94)" style="fill: none; stroke: #3d3d3d; stroke-width: 1.5; stroke-linecap: square"/>
   </g>
   <g id="line2d_52">
    <path d="M 167.719693 138.777193 
L 173.353682 138.777193 
" clip-path="url(#p603dde3e94)" style="fill: none; stroke: #3d3d3d; stroke-width: 1.5; stroke-linecap: square"/>
   </g>
   <g id="line2d_53">
    <path d="M 167.719693 136.387155 
L 173.353682 136.387155 
" clip-path="url(#p603dde3e94)" style="fill: none; stroke: #3d3d3d; stroke-width: 1.5; stroke-linecap: square"/>
   </g>
   <g id="line2d_54"/>
   <g id="line2d_55">
    <path d="M 182.034625 85.248407 
L 182.034625 87.8368 
" clip-path="url(#p603dde3e94)" style="fill: none; stroke: #3d3d3d; stroke-width: 1.5; stroke-linecap: square"/>
   </g>
   <g id="line2d_56">
    <path d="M 182.034625 55.980943 
L 182.034625 42.406031 
" clip-path="url(#p603dde3e94)" style="fill: none; stroke: #3d3d3d; stroke-width: 1.5; stroke-linecap: square"/>
   </g>
   <g id="line2d_57">
    <path d="M 179.21763 87.8368 
L 184.85162 87.8368 
" clip-path="url(#p603dde3e94)" style="fill: none; stroke: #3d3d3d; stroke-width: 1.5; stroke-linecap: square"/>
   </g>
   <g id="line2d_58">
    <path d="M 179.21763 42.406031 
L 184.85162 42.406031 
" clip-path="url(#p603dde3e94)" style="fill: none; stroke: #3d3d3d; stroke-width: 1.5; stroke-linecap: square"/>
   </g>
   <g id="line2d_59"/>
   <g id="line2d_60">
    <path d="M 193.532563 138.100343 
L 193.532563 138.100343 
" clip-path="url(#p603dde3e94)" style="fill: none; stroke: #3d3d3d; stroke-width: 1.5; stroke-linecap: square"/>
   </g>
   <g id="line2d_61">
    <path d="M 193.532563 138.023735 
L 193.532563 138.023735 
" clip-path="url(#p603dde3e94)" style="fill: none; stroke: #3d3d3d; stroke-width: 1.5; stroke-linecap: square"/>
   </g>
   <g id="line2d_62">
    <path d="M 190.715568 138.100343 
L 196.349557 138.100343 
" clip-path="url(#p603dde3e94)" style="fill: none; stroke: #3d3d3d; stroke-width: 1.5; stroke-linecap: square"/>
   </g>
   <g id="line2d_63">
    <path d="M 190.715568 138.023735 
L 196.349557 138.023735 
" clip-path="url(#p603dde3e94)" style="fill: none; stroke: #3d3d3d; stroke-width: 1.5; stroke-linecap: square"/>
   </g>
   <g id="line2d_64">
    <g clip-path="url(#p603dde3e94)">
     <use xlink:href="#m238b59226d" x="193.532563" y="138.258496" style="fill: #3d3d3d; stroke: #3d3d3d; stroke-linejoin: miter"/>
     <use xlink:href="#m238b59226d" x="193.532563" y="133.582178" style="fill: #3d3d3d; stroke: #3d3d3d; stroke-linejoin: miter"/>
    </g>
   </g>
   <g id="line2d_65">
    <path d="M 205.0305 82.32996 
L 205.0305 108.277645 
" clip-path="url(#p603dde3e94)" style="fill: none; stroke: #3d3d3d; stroke-width: 1.5; stroke-linecap: square"/>
   </g>
   <g id="line2d_66">
    <path d="M 205.0305 51.083069 
L 205.0305 41.175352 
" clip-path="url(#p603dde3e94)" style="fill: none; stroke: #3d3d3d; stroke-width: 1.5; stroke-linecap: square"/>
   </g>
   <g id="line2d_67">
    <path d="M 202.213505 108.277645 
L 207.847495 108.277645 
" clip-path="url(#p603dde3e94)" style="fill: none; stroke: #3d3d3d; stroke-width: 1.5; stroke-linecap: square"/>
   </g>
   <g id="line2d_68">
    <path d="M 202.213505 41.175352 
L 207.847495 41.175352 
" clip-path="url(#p603dde3e94)" style="fill: none; stroke: #3d3d3d; stroke-width: 1.5; stroke-linecap: square"/>
   </g>
   <g id="line2d_69"/>
   <g id="line2d_70">
    <path d="M 228.026375 140.434461 
L 228.026375 140.761166 
" clip-path="url(#p603dde3e94)" style="fill: none; stroke: #3d3d3d; stroke-width: 1.5; stroke-linecap: square"/>
   </g>
   <g id="line2d_71">
    <path d="M 228.026375 139.047402 
L 228.026375 137.894439 
" clip-path="url(#p603dde3e94)" style="fill: none; stroke: #3d3d3d; stroke-width: 1.5; stroke-linecap: square"/>
   </g>
   <g id="line2d_72">
    <path d="M 225.20938 140.761166 
L 230.84337 140.761166 
" clip-path="url(#p603dde3e94)" style="fill: none; stroke: #3d3d3d; stroke-width: 1.5; stroke-linecap: square"/>
   </g>
   <g id="line2d_73">
    <path d="M 225.20938 137.894439 
L 230.84337 137.894439 
" clip-path="url(#p603dde3e94)" style="fill: none; stroke: #3d3d3d; stroke-width: 1.5; stroke-linecap: square"/>
   </g>
   <g id="line2d_74"/>
   <g id="line2d_75">
    <path d="M 239.524313 102.12972 
L 239.524313 111.676317 
" clip-path="url(#p603dde3e94)" style="fill: none; stroke: #3d3d3d; stroke-width: 1.5; stroke-linecap: square"/>
   </g>
   <g id="line2d_76">
    <path d="M 239.524313 86.029438 
L 239.524313 83.66159 
" clip-path="url(#p603dde3e94)" style="fill: none; stroke: #3d3d3d; stroke-width: 1.5; stroke-linecap: square"/>
   </g>
   <g id="line2d_77">
    <path d="M 236.707318 111.676317 
L 242.341307 111.676317 
" clip-path="url(#p603dde3e94)" style="fill: none; stroke: #3d3d3d; stroke-width: 1.5; stroke-linecap: square"/>
   </g>
   <g id="line2d_78">
    <path d="M 236.707318 83.66159 
L 242.341307 83.66159 
" clip-path="url(#p603dde3e94)" style="fill: none; stroke: #3d3d3d; stroke-width: 1.5; stroke-linecap: square"/>
   </g>
   <g id="line2d_79"/>
   <g id="line2d_80">
    <path d="M 251.02225 140.376715 
L 251.02225 141.515526 
" clip-path="url(#p603dde3e94)" style="fill: none; stroke: #3d3d3d; stroke-width: 1.5; stroke-linecap: square"/>
   </g>
   <g id="line2d_81">
    <path d="M 251.02225 138.773636 
L 251.02225 138.463377 
" clip-path="url(#p603dde3e94)" style="fill: none; stroke: #3d3d3d; stroke-width: 1.5; stroke-linecap: square"/>
   </g>
   <g id="line2d_82">
    <path d="M 248.205255 141.515526 
L 253.839245 141.515526 
" clip-path="url(#p603dde3e94)" style="fill: none; stroke: #3d3d3d; stroke-width: 1.5; stroke-linecap: square"/>
   </g>
   <g id="line2d_83">
    <path d="M 248.205255 138.463377 
L 253.839245 138.463377 
" clip-path="url(#p603dde3e94)" style="fill: none; stroke: #3d3d3d; stroke-width: 1.5; stroke-linecap: square"/>
   </g>
   <g id="line2d_84"/>
   <g id="line2d_85">
    <path d="M 262.520188 111.322332 
L 262.520188 118.5637 
" clip-path="url(#p603dde3e94)" style="fill: none; stroke: #3d3d3d; stroke-width: 1.5; stroke-linecap: square"/>
   </g>
   <g id="line2d_86">
    <path d="M 262.520188 83.956642 
L 262.520188 79.28164 
" clip-path="url(#p603dde3e94)" style="fill: none; stroke: #3d3d3d; stroke-width: 1.5; stroke-linecap: square"/>
   </g>
   <g id="line2d_87">
    <path d="M 259.703193 118.5637 
L 265.337182 118.5637 
" clip-path="url(#p603dde3e94)" style="fill: none; stroke: #3d3d3d; stroke-width: 1.5; stroke-linecap: square"/>
   </g>
   <g id="line2d_88">
    <path d="M 259.703193 79.28164 
L 265.337182 79.28164 
" clip-path="url(#p603dde3e94)" style="fill: none; stroke: #3d3d3d; stroke-width: 1.5; stroke-linecap: square"/>
   </g>
   <g id="line2d_89"/>
   <g id="line2d_90">
    <path d="M 49.923323 137.052878 
L 61.191302 137.052878 
" clip-path="url(#p603dde3e94)" style="fill: none; stroke: #3d3d3d; stroke-width: 1.5; stroke-linecap: square"/>
   </g>
   <g id="line2d_91">
    <path d="M 61.421261 55.823333 
L 72.689239 55.823333 
" clip-path="url(#p603dde3e94)" style="fill: none; stroke: #3d3d3d; stroke-width: 1.5; stroke-linecap: square"/>
   </g>
   <g id="line2d_92">
    <path d="M 72.919198 134.391358 
L 84.187177 134.391358 
" clip-path="url(#p603dde3e94)" style="fill: none; stroke: #3d3d3d; stroke-width: 1.5; stroke-linecap: square"/>
   </g>
   <g id="line2d_93">
    <path d="M 84.417136 51.283175 
L 95.685114 51.283175 
" clip-path="url(#p603dde3e94)" style="fill: none; stroke: #3d3d3d; stroke-width: 1.5; stroke-linecap: square"/>
   </g>
   <g id="line2d_94">
    <path d="M 107.413011 137.807205 
L 118.680989 137.807205 
" clip-path="url(#p603dde3e94)" style="fill: none; stroke: #3d3d3d; stroke-width: 1.5; stroke-linecap: square"/>
   </g>
   <g id="line2d_95">
    <path d="M 118.910948 74.210364 
L 130.178927 74.210364 
" clip-path="url(#p603dde3e94)" style="fill: none; stroke: #3d3d3d; stroke-width: 1.5; stroke-linecap: square"/>
   </g>
   <g id="line2d_96">
    <path d="M 130.408886 136.794253 
L 141.676864 136.794253 
" clip-path="url(#p603dde3e94)" style="fill: none; stroke: #3d3d3d; stroke-width: 1.5; stroke-linecap: square"/>
   </g>
   <g id="line2d_97">
    <path d="M 141.906823 69.334135 
L 153.174802 69.334135 
" clip-path="url(#p603dde3e94)" style="fill: none; stroke: #3d3d3d; stroke-width: 1.5; stroke-linecap: square"/>
   </g>
   <g id="line2d_98">
    <path d="M 164.902698 137.879799 
L 176.170677 137.879799 
" clip-path="url(#p603dde3e94)" style="fill: none; stroke: #3d3d3d; stroke-width: 1.5; stroke-linecap: square"/>
   </g>
   <g id="line2d_99">
    <path d="M 176.400636 79.939716 
L 187.668614 79.939716 
" clip-path="url(#p603dde3e94)" style="fill: none; stroke: #3d3d3d; stroke-width: 1.5; stroke-linecap: square"/>
   </g>
   <g id="line2d_100">
    <path d="M 187.898573 138.02664 
L 199.166552 138.02664 
" clip-path="url(#p603dde3e94)" style="fill: none; stroke: #3d3d3d; stroke-width: 1.5; stroke-linecap: square"/>
   </g>
   <g id="line2d_101">
    <path d="M 199.396511 74.190502 
L 210.664489 74.190502 
" clip-path="url(#p603dde3e94)" style="fill: none; stroke: #3d3d3d; stroke-width: 1.5; stroke-linecap: square"/>
   </g>
   <g id="line2d_102">
    <path d="M 222.392386 139.414319 
L 233.660364 139.414319 
" clip-path="url(#p603dde3e94)" style="fill: none; stroke: #3d3d3d; stroke-width: 1.5; stroke-linecap: square"/>
   </g>
   <g id="line2d_103">
    <path d="M 233.890323 100.492715 
L 245.158302 100.492715 
" clip-path="url(#p603dde3e94)" style="fill: none; stroke: #3d3d3d; stroke-width: 1.5; stroke-linecap: square"/>
   </g>
   <g id="line2d_104">
    <path d="M 245.388261 138.855116 
L 256.656239 138.855116 
" clip-path="url(#p603dde3e94)" style="fill: none; stroke: #3d3d3d; stroke-width: 1.5; stroke-linecap: square"/>
   </g>
   <g id="line2d_105">
    <path d="M 256.886198 110.131441 
L 268.154177 110.131441 
" clip-path="url(#p603dde3e94)" style="fill: none; stroke: #3d3d3d; stroke-width: 1.5; stroke-linecap: square"/>
   </g>
   <g id="patch_23">
    <path d="M 44.059375 147.191593 
L 44.059375 22.318125 
" style="fill: none; stroke: #000000; stroke-width: 0.8; stroke-linejoin: miter; stroke-linecap: square"/>
   </g>
   <g id="patch_24">
    <path d="M 274.018125 147.191593 
L 274.018125 22.318125 
" style="fill: none; stroke: #000000; stroke-width: 0.8; stroke-linejoin: miter; stroke-linecap: square"/>
   </g>
   <g id="patch_25">
    <path d="M 44.059375 147.191593 
L 274.018125 147.191593 
" style="fill: none; stroke: #000000; stroke-width: 0.8; stroke-linejoin: miter; stroke-linecap: square"/>
   </g>
   <g id="patch_26">
    <path d="M 44.059375 22.318125 
L 274.018125 22.318125 
" style="fill: none; stroke: #000000; stroke-width: 0.8; stroke-linejoin: miter; stroke-linecap: square"/>
   </g>
   <g id="PathCollection_1">
    <defs>
     <path id="C0_0_e661674b5d" d="M 0 1.5 
C 0.397805 1.5 0.77937 1.341951 1.06066 1.06066 
C 1.341951 0.77937 1.5 0.397805 1.5 -0 
C 1.5 -0.397805 1.341951 -0.77937 1.06066 -1.06066 
C 0.77937 -1.341951 0.397805 -1.5 0 -1.5 
C -0.397805 -1.5 -0.77937 -1.341951 -1.06066 -1.06066 
C -1.341951 -0.77937 -1.5 -0.397805 -1.5 0 
C -1.5 0.397805 -1.341951 0.77937 -1.06066 1.06066 
C -0.77937 1.341951 -0.397805 1.5 0 1.5 
z
"/>
    </defs>
    <g clip-path="url(#p603dde3e94)">
     <use xlink:href="#C0_0_e661674b5d" x="54.992458" y="137.575762" style="fill: #262626"/>
    </g>
    <g clip-path="url(#p603dde3e94)">
     <use xlink:href="#C0_0_e661674b5d" x="55.558357" y="135.240773" style="fill: #262626"/>
    </g>
    <g clip-path="url(#p603dde3e94)">
     <use xlink:href="#C0_0_e661674b5d" x="55.60414" y="134.671825" style="fill: #262626"/>
    </g>
    <g clip-path="url(#p603dde3e94)">
     <use xlink:href="#C0_0_e661674b5d" x="54.302784" y="137.052878" style="fill: #262626"/>
    </g>
    <g clip-path="url(#p603dde3e94)">
     <use xlink:href="#C0_0_e661674b5d" x="56.133765" y="137.619444" style="fill: #262626"/>
    </g>
   </g>
   <g id="PathCollection_2">
    <defs>
     <path id="C1_0_67c8f8db5c" d="M 0 1.5 
C 0.397805 1.5 0.77937 1.341951 1.06066 1.06066 
C 1.341951 0.77937 1.5 0.397805 1.5 -0 
C 1.5 -0.397805 1.341951 -0.77937 1.06066 -1.06066 
C 0.77937 -1.341951 0.397805 -1.5 0 -1.5 
C -0.397805 -1.5 -0.77937 -1.341951 -1.06066 -1.06066 
C -1.341951 -0.77937 -1.5 -0.397805 -1.5 0 
C -1.5 0.397805 -1.341951 0.77937 -1.06066 1.06066 
C -0.77937 1.341951 -0.397805 1.5 0 1.5 
z
"/>
    </defs>
    <g clip-path="url(#p603dde3e94)">
     <use xlink:href="#C1_0_67c8f8db5c" x="66.086573" y="55.823333" style="fill: #191919"/>
    </g>
    <g clip-path="url(#p603dde3e94)">
     <use xlink:href="#C1_0_67c8f8db5c" x="68.408583" y="55.596513" style="fill: #191919"/>
    </g>
    <g clip-path="url(#p603dde3e94)">
     <use xlink:href="#C1_0_67c8f8db5c" x="68.130744" y="39.202071" style="fill: #191919"/>
    </g>
    <g clip-path="url(#p603dde3e94)">
     <use xlink:href="#C1_0_67c8f8db5c" x="67.856761" y="74.481552" style="fill: #191919"/>
    </g>
    <g clip-path="url(#p603dde3e94)">
     <use xlink:href="#C1_0_67c8f8db5c" x="65.942998" y="83.286428" style="fill: #191919"/>
    </g>
   </g>
   <g id="PathCollection_3">
    <defs>
     <path id="C2_0_668bbd15c4" d="M 0 1.5 
C 0.397805 1.5 0.77937 1.341951 1.06066 1.06066 
C 1.341951 0.77937 1.5 0.397805 1.5 -0 
C 1.5 -0.397805 1.341951 -0.77937 1.06066 -1.06066 
C 0.77937 -1.341951 0.397805 -1.5 0 -1.5 
C -0.397805 -1.5 -0.77937 -1.341951 -1.06066 -1.06066 
C -1.341951 -0.77937 -1.5 -0.397805 -1.5 0 
C -1.5 0.397805 -1.341951 0.77937 -1.06066 1.06066 
C -0.77937 1.341951 -0.397805 1.5 0 1.5 
z
"/>
    </defs>
    <g clip-path="url(#p603dde3e94)">
     <use xlink:href="#C2_0_668bbd15c4" x="77.459552" y="128.350768" style="fill: #0d0d0d"/>
    </g>
    <g clip-path="url(#p603dde3e94)">
     <use xlink:href="#C2_0_668bbd15c4" x="79.699029" y="134.391358" style="fill: #0d0d0d"/>
    </g>
    <g clip-path="url(#p603dde3e94)">
     <use xlink:href="#C2_0_668bbd15c4" x="79.525485" y="135.170431" style="fill: #0d0d0d"/>
    </g>
    <g clip-path="url(#p603dde3e94)">
     <use xlink:href="#C2_0_668bbd15c4" x="78.026628" y="123.741964" style="fill: #0d0d0d"/>
    </g>
    <g clip-path="url(#p603dde3e94)">
     <use xlink:href="#C2_0_668bbd15c4" x="77.216103" y="135.745352" style="fill: #0d0d0d"/>
    </g>
   </g>
   <g id="PathCollection_4">
    <defs>
     <path id="C3_0_98f6f30a3e" d="M 0 1.5 
C 0.397805 1.5 0.77937 1.341951 1.06066 1.06066 
C 1.341951 0.77937 1.5 0.397805 1.5 -0 
C 1.5 -0.397805 1.341951 -0.77937 1.06066 -1.06066 
C 0.77937 -1.341951 0.397805 -1.5 0 -1.5 
C -0.397805 -1.5 -0.77937 -1.341951 -1.06066 -1.06066 
C -1.341951 -0.77937 -1.5 -0.397805 -1.5 0 
C -1.5 0.397805 -1.341951 0.77937 -1.06066 1.06066 
C -0.77937 1.341951 -0.397805 1.5 0 1.5 
z
"/>
    </defs>
    <g clip-path="url(#p603dde3e94)">
     <use xlink:href="#C3_0_98f6f30a3e" x="90.295809" y="31.764055"/>
    </g>
    <g clip-path="url(#p603dde3e94)">
     <use xlink:href="#C3_0_98f6f30a3e" x="90.242588" y="27.994192"/>
    </g>
    <g clip-path="url(#p603dde3e94)">
     <use xlink:href="#C3_0_98f6f30a3e" x="89.139737" y="57.216571"/>
    </g>
    <g clip-path="url(#p603dde3e94)">
     <use xlink:href="#C3_0_98f6f30a3e" x="89.633147" y="51.283175"/>
    </g>
    <g clip-path="url(#p603dde3e94)">
     <use xlink:href="#C3_0_98f6f30a3e" x="90.622135" y="103.420691"/>
    </g>
   </g>
   <g id="PathCollection_5">
    <defs>
     <path id="C4_0_0ad99d7500" d="M 0 1.5 
C 0.397805 1.5 0.77937 1.341951 1.06066 1.06066 
C 1.341951 0.77937 1.5 0.397805 1.5 -0 
C 1.5 -0.397805 1.341951 -0.77937 1.06066 -1.06066 
C 0.77937 -1.341951 0.397805 -1.5 0 -1.5 
C -0.397805 -1.5 -0.77937 -1.341951 -1.06066 -1.06066 
C -1.341951 -0.77937 -1.5 -0.397805 -1.5 0 
C -1.5 0.397805 -1.341951 0.77937 -1.06066 1.06066 
C -0.77937 1.341951 -0.397805 1.5 0 1.5 
z
"/>
    </defs>
    <g clip-path="url(#p603dde3e94)">
     <use xlink:href="#C4_0_0ad99d7500" x="113.271331" y="136.855697" style="fill: #262626"/>
    </g>
    <g clip-path="url(#p603dde3e94)">
     <use xlink:href="#C4_0_0ad99d7500" x="114.450531" y="137.868019" style="fill: #262626"/>
    </g>
    <g clip-path="url(#p603dde3e94)">
     <use xlink:href="#C4_0_0ad99d7500" x="113.41628" y="135.163057" style="fill: #262626"/>
    </g>
    <g clip-path="url(#p603dde3e94)">
     <use xlink:href="#C4_0_0ad99d7500" x="112.076558" y="137.807205" style="fill: #262626"/>
    </g>
    <g clip-path="url(#p603dde3e94)">
     <use xlink:href="#C4_0_0ad99d7500" x="112.721007" y="138.42162" style="fill: #262626"/>
    </g>
   </g>
   <g id="PathCollection_6">
    <defs>
     <path id="C5_0_cd6307af58" d="M 0 1.5 
C 0.397805 1.5 0.77937 1.341951 1.06066 1.06066 
C 1.341951 0.77937 1.5 0.397805 1.5 -0 
C 1.5 -0.397805 1.341951 -0.77937 1.06066 -1.06066 
C 0.77937 -1.341951 0.397805 -1.5 0 -1.5 
C -0.397805 -1.5 -0.77937 -1.341951 -1.06066 -1.06066 
C -1.341951 -0.77937 -1.5 -0.397805 -1.5 0 
C -1.5 0.397805 -1.341951 0.77937 -1.06066 1.06066 
C -0.77937 1.341951 -0.397805 1.5 0 1.5 
z
"/>
    </defs>
    <g clip-path="url(#p603dde3e94)">
     <use xlink:href="#C5_0_cd6307af58" x="124.237275" y="76.596725" style="fill: #191919"/>
    </g>
    <g clip-path="url(#p603dde3e94)">
     <use xlink:href="#C5_0_cd6307af58" x="125.384453" y="66.626562" style="fill: #191919"/>
    </g>
    <g clip-path="url(#p603dde3e94)">
     <use xlink:href="#C5_0_cd6307af58" x="124.081498" y="68.592643" style="fill: #191919"/>
    </g>
    <g clip-path="url(#p603dde3e94)">
     <use xlink:href="#C5_0_cd6307af58" x="125.570371" y="74.210364" style="fill: #191919"/>
    </g>
    <g clip-path="url(#p603dde3e94)">
     <use xlink:href="#C5_0_cd6307af58" x="123.476399" y="94.223858" style="fill: #191919"/>
    </g>
   </g>
   <g id="PathCollection_7">
    <defs>
     <path id="C6_0_952f5357d2" d="M 0 1.5 
C 0.397805 1.5 0.77937 1.341951 1.06066 1.06066 
C 1.341951 0.77937 1.5 0.397805 1.5 -0 
C 1.5 -0.397805 1.341951 -0.77937 1.06066 -1.06066 
C 0.77937 -1.341951 0.397805 -1.5 0 -1.5 
C -0.397805 -1.5 -0.77937 -1.341951 -1.06066 -1.06066 
C -1.341951 -0.77937 -1.5 -0.397805 -1.5 0 
C -1.5 0.397805 -1.341951 0.77937 -1.06066 1.06066 
C -0.77937 1.341951 -0.397805 1.5 0 1.5 
z
"/>
    </defs>
    <g clip-path="url(#p603dde3e94)">
     <use xlink:href="#C6_0_952f5357d2" x="136.241052" y="136.794253" style="fill: #0d0d0d"/>
    </g>
    <g clip-path="url(#p603dde3e94)">
     <use xlink:href="#C6_0_952f5357d2" x="136.549061" y="137.040717" style="fill: #0d0d0d"/>
    </g>
    <g clip-path="url(#p603dde3e94)">
     <use xlink:href="#C6_0_952f5357d2" x="137.110468" y="136.710912" style="fill: #0d0d0d"/>
    </g>
    <g clip-path="url(#p603dde3e94)">
     <use xlink:href="#C6_0_952f5357d2" x="136.257935" y="138.625957" style="fill: #0d0d0d"/>
    </g>
    <g clip-path="url(#p603dde3e94)">
     <use xlink:href="#C6_0_952f5357d2" x="134.842419" y="131.176749" style="fill: #0d0d0d"/>
    </g>
   </g>
   <g id="PathCollection_8">
    <defs>
     <path id="C7_0_d25e0441eb" d="M 0 1.5 
C 0.397805 1.5 0.77937 1.341951 1.06066 1.06066 
C 1.341951 0.77937 1.5 0.397805 1.5 -0 
C 1.5 -0.397805 1.341951 -0.77937 1.06066 -1.06066 
C 0.77937 -1.341951 0.397805 -1.5 0 -1.5 
C -0.397805 -1.5 -0.77937 -1.341951 -1.06066 -1.06066 
C -1.341951 -0.77937 -1.5 -0.397805 -1.5 0 
C -1.5 0.397805 -1.341951 0.77937 -1.06066 1.06066 
C -0.77937 1.341951 -0.397805 1.5 0 1.5 
z
"/>
    </defs>
    <g clip-path="url(#p603dde3e94)">
     <use xlink:href="#C7_0_d25e0441eb" x="147.813393" y="82.257671"/>
    </g>
    <g clip-path="url(#p603dde3e94)">
     <use xlink:href="#C7_0_d25e0441eb" x="147.446888" y="47.205054"/>
    </g>
    <g clip-path="url(#p603dde3e94)">
     <use xlink:href="#C7_0_d25e0441eb" x="148.790623" y="69.334135"/>
    </g>
    <g clip-path="url(#p603dde3e94)">
     <use xlink:href="#C7_0_d25e0441eb" x="146.236972" y="45.516264"/>
    </g>
    <g clip-path="url(#p603dde3e94)">
     <use xlink:href="#C7_0_d25e0441eb" x="148.168953" y="108.650948"/>
    </g>
   </g>
   <g id="PathCollection_9">
    <defs>
     <path id="C8_0_38224cbc15" d="M 0 1.5 
C 0.397805 1.5 0.77937 1.341951 1.06066 1.06066 
C 1.341951 0.77937 1.5 0.397805 1.5 -0 
C 1.5 -0.397805 1.341951 -0.77937 1.06066 -1.06066 
C 0.77937 -1.341951 0.397805 -1.5 0 -1.5 
C -0.397805 -1.5 -0.77937 -1.341951 -1.06066 -1.06066 
C -1.341951 -0.77937 -1.5 -0.397805 -1.5 0 
C -1.5 0.397805 -1.341951 0.77937 -1.06066 1.06066 
C -0.77937 1.341951 -0.397805 1.5 0 1.5 
z
"/>
    </defs>
    <g clip-path="url(#p603dde3e94)">
     <use xlink:href="#C8_0_38224cbc15" x="169.391341" y="136.445185" style="fill: #262626"/>
    </g>
    <g clip-path="url(#p603dde3e94)">
     <use xlink:href="#C8_0_38224cbc15" x="171.69943" y="138.312055" style="fill: #262626"/>
    </g>
    <g clip-path="url(#p603dde3e94)">
     <use xlink:href="#C8_0_38224cbc15" x="171.822737" y="136.387155" style="fill: #262626"/>
    </g>
    <g clip-path="url(#p603dde3e94)">
     <use xlink:href="#C8_0_38224cbc15" x="170.860616" y="137.879799" style="fill: #262626"/>
    </g>
    <g clip-path="url(#p603dde3e94)">
     <use xlink:href="#C8_0_38224cbc15" x="169.791676" y="138.777193" style="fill: #262626"/>
    </g>
   </g>
   <g id="PathCollection_10">
    <defs>
     <path id="C9_0_9b7eea9da1" d="M 0 1.5 
C 0.397805 1.5 0.77937 1.341951 1.06066 1.06066 
C 1.341951 0.77937 1.5 0.397805 1.5 -0 
C 1.5 -0.397805 1.341951 -0.77937 1.06066 -1.06066 
C 0.77937 -1.341951 0.397805 -1.5 0 -1.5 
C -0.397805 -1.5 -0.77937 -1.341951 -1.06066 -1.06066 
C -1.341951 -0.77937 -1.5 -0.397805 -1.5 0 
C -1.5 0.397805 -1.341951 0.77937 -1.06066 1.06066 
C -0.77937 1.341951 -0.397805 1.5 0 1.5 
z
"/>
    </defs>
    <g clip-path="url(#p603dde3e94)">
     <use xlink:href="#C9_0_9b7eea9da1" x="182.750775" y="87.8368" style="fill: #191919"/>
    </g>
    <g clip-path="url(#p603dde3e94)">
     <use xlink:href="#C9_0_9b7eea9da1" x="181.233651" y="85.248407" style="fill: #191919"/>
    </g>
    <g clip-path="url(#p603dde3e94)">
     <use xlink:href="#C9_0_9b7eea9da1" x="183.072757" y="42.406031" style="fill: #191919"/>
    </g>
    <g clip-path="url(#p603dde3e94)">
     <use xlink:href="#C9_0_9b7eea9da1" x="183.431132" y="79.939716" style="fill: #191919"/>
    </g>
    <g clip-path="url(#p603dde3e94)">
     <use xlink:href="#C9_0_9b7eea9da1" x="182.833106" y="55.980943" style="fill: #191919"/>
    </g>
   </g>
   <g id="PathCollection_11">
    <defs>
     <path id="Ca_0_eb2b39cc75" d="M 0 1.5 
C 0.397805 1.5 0.77937 1.341951 1.06066 1.06066 
C 1.341951 0.77937 1.5 0.397805 1.5 -0 
C 1.5 -0.397805 1.341951 -0.77937 1.06066 -1.06066 
C 0.77937 -1.341951 0.397805 -1.5 0 -1.5 
C -0.397805 -1.5 -0.77937 -1.341951 -1.06066 -1.06066 
C -1.341951 -0.77937 -1.5 -0.397805 -1.5 0 
C -1.5 0.397805 -1.341951 0.77937 -1.06066 1.06066 
C -0.77937 1.341951 -0.397805 1.5 0 1.5 
z
"/>
    </defs>
    <g clip-path="url(#p603dde3e94)">
     <use xlink:href="#Ca_0_eb2b39cc75" x="192.639431" y="138.023735" style="fill: #0d0d0d"/>
    </g>
    <g clip-path="url(#p603dde3e94)">
     <use xlink:href="#Ca_0_eb2b39cc75" x="194.341612" y="138.02664" style="fill: #0d0d0d"/>
    </g>
    <g clip-path="url(#p603dde3e94)">
     <use xlink:href="#Ca_0_eb2b39cc75" x="192.89339" y="133.582178" style="fill: #0d0d0d"/>
    </g>
    <g clip-path="url(#p603dde3e94)">
     <use xlink:href="#Ca_0_eb2b39cc75" x="193.626668" y="138.100343" style="fill: #0d0d0d"/>
    </g>
    <g clip-path="url(#p603dde3e94)">
     <use xlink:href="#Ca_0_eb2b39cc75" x="194.195695" y="138.258496" style="fill: #0d0d0d"/>
    </g>
   </g>
   <g id="PathCollection_12">
    <defs>
     <path id="Cb_0_b594dd3dca" d="M 0 1.5 
C 0.397805 1.5 0.77937 1.341951 1.06066 1.06066 
C 1.341951 0.77937 1.5 0.397805 1.5 -0 
C 1.5 -0.397805 1.341951 -0.77937 1.06066 -1.06066 
C 0.77937 -1.341951 0.397805 -1.5 0 -1.5 
C -0.397805 -1.5 -0.77937 -1.341951 -1.06066 -1.06066 
C -1.341951 -0.77937 -1.5 -0.397805 -1.5 0 
C -1.5 0.397805 -1.341951 0.77937 -1.06066 1.06066 
C -0.77937 1.341951 -0.397805 1.5 0 1.5 
z
"/>
    </defs>
    <g clip-path="url(#p603dde3e94)">
     <use xlink:href="#Cb_0_b594dd3dca" x="205.037007" y="41.175352"/>
    </g>
    <g clip-path="url(#p603dde3e94)">
     <use xlink:href="#Cb_0_b594dd3dca" x="206.379832" y="51.083069"/>
    </g>
    <g clip-path="url(#p603dde3e94)">
     <use xlink:href="#Cb_0_b594dd3dca" x="205.735147" y="82.32996"/>
    </g>
    <g clip-path="url(#p603dde3e94)">
     <use xlink:href="#Cb_0_b594dd3dca" x="205.532622" y="74.190502"/>
    </g>
    <g clip-path="url(#p603dde3e94)">
     <use xlink:href="#Cb_0_b594dd3dca" x="204.5793" y="108.277645"/>
    </g>
   </g>
   <g id="PathCollection_13">
    <defs>
     <path id="Cc_0_c177150e0c" d="M 0 1.5 
C 0.397805 1.5 0.77937 1.341951 1.06066 1.06066 
C 1.341951 0.77937 1.5 0.397805 1.5 -0 
C 1.5 -0.397805 1.341951 -0.77937 1.06066 -1.06066 
C 0.77937 -1.341951 0.397805 -1.5 0 -1.5 
C -0.397805 -1.5 -0.77937 -1.341951 -1.06066 -1.06066 
C -1.341951 -0.77937 -1.5 -0.397805 -1.5 0 
C -1.5 0.397805 -1.341951 0.77937 -1.06066 1.06066 
C -0.77937 1.341951 -0.397805 1.5 0 1.5 
z
"/>
    </defs>
    <g clip-path="url(#p603dde3e94)">
     <use xlink:href="#Cc_0_c177150e0c" x="228.309085" y="137.894439" style="fill: #262626"/>
    </g>
    <g clip-path="url(#p603dde3e94)">
     <use xlink:href="#Cc_0_c177150e0c" x="227.953113" y="140.761166" style="fill: #262626"/>
    </g>
    <g clip-path="url(#p603dde3e94)">
     <use xlink:href="#Cc_0_c177150e0c" x="226.930779" y="140.434461" style="fill: #262626"/>
    </g>
    <g clip-path="url(#p603dde3e94)">
     <use xlink:href="#Cc_0_c177150e0c" x="228.356967" y="139.414319" style="fill: #262626"/>
    </g>
    <g clip-path="url(#p603dde3e94)">
     <use xlink:href="#Cc_0_c177150e0c" x="227.131515" y="139.047402" style="fill: #262626"/>
    </g>
   </g>
   <g id="PathCollection_14">
    <defs>
     <path id="Cd_0_7c03322a67" d="M 0 1.5 
C 0.397805 1.5 0.77937 1.341951 1.06066 1.06066 
C 1.341951 0.77937 1.5 0.397805 1.5 -0 
C 1.5 -0.397805 1.341951 -0.77937 1.06066 -1.06066 
C 0.77937 -1.341951 0.397805 -1.5 0 -1.5 
C -0.397805 -1.5 -0.77937 -1.341951 -1.06066 -1.06066 
C -1.341951 -0.77937 -1.5 -0.397805 -1.5 0 
C -1.5 0.397805 -1.341951 0.77937 -1.06066 1.06066 
C -0.77937 1.341951 -0.397805 1.5 0 1.5 
z
"/>
    </defs>
    <g clip-path="url(#p603dde3e94)">
     <use xlink:href="#Cd_0_7c03322a67" x="240.261136" y="100.492715" style="fill: #191919"/>
    </g>
    <g clip-path="url(#p603dde3e94)">
     <use xlink:href="#Cd_0_7c03322a67" x="238.360307" y="86.029438" style="fill: #191919"/>
    </g>
    <g clip-path="url(#p603dde3e94)">
     <use xlink:href="#Cd_0_7c03322a67" x="238.441798" y="102.12972" style="fill: #191919"/>
    </g>
    <g clip-path="url(#p603dde3e94)">
     <use xlink:href="#Cd_0_7c03322a67" x="239.866845" y="111.676317" style="fill: #191919"/>
    </g>
    <g clip-path="url(#p603dde3e94)">
     <use xlink:href="#Cd_0_7c03322a67" x="238.898881" y="83.66159" style="fill: #191919"/>
    </g>
   </g>
   <g id="PathCollection_15">
    <defs>
     <path id="Ce_0_4dbc0ac90c" d="M 0 1.5 
C 0.397805 1.5 0.77937 1.341951 1.06066 1.06066 
C 1.341951 0.77937 1.5 0.397805 1.5 -0 
C 1.5 -0.397805 1.341951 -0.77937 1.06066 -1.06066 
C 0.77937 -1.341951 0.397805 -1.5 0 -1.5 
C -0.397805 -1.5 -0.77937 -1.341951 -1.06066 -1.06066 
C -1.341951 -0.77937 -1.5 -0.397805 -1.5 0 
C -1.5 0.397805 -1.341951 0.77937 -1.06066 1.06066 
C -0.77937 1.341951 -0.397805 1.5 0 1.5 
z
"/>
    </defs>
    <g clip-path="url(#p603dde3e94)">
     <use xlink:href="#Ce_0_4dbc0ac90c" x="249.926649" y="138.855116" style="fill: #0d0d0d"/>
    </g>
    <g clip-path="url(#p603dde3e94)">
     <use xlink:href="#Ce_0_4dbc0ac90c" x="250.228329" y="138.463377" style="fill: #0d0d0d"/>
    </g>
    <g clip-path="url(#p603dde3e94)">
     <use xlink:href="#Ce_0_4dbc0ac90c" x="252.40633" y="138.773636" style="fill: #0d0d0d"/>
    </g>
    <g clip-path="url(#p603dde3e94)">
     <use xlink:href="#Ce_0_4dbc0ac90c" x="249.63371" y="141.515526" style="fill: #0d0d0d"/>
    </g>
    <g clip-path="url(#p603dde3e94)">
     <use xlink:href="#Ce_0_4dbc0ac90c" x="251.109252" y="140.376715" style="fill: #0d0d0d"/>
    </g>
   </g>
   <g id="PathCollection_16">
    <defs>
     <path id="Cf_0_d306838052" d="M 0 1.5 
C 0.397805 1.5 0.77937 1.341951 1.06066 1.06066 
C 1.341951 0.77937 1.5 0.397805 1.5 -0 
C 1.5 -0.397805 1.341951 -0.77937 1.06066 -1.06066 
C 0.77937 -1.341951 0.397805 -1.5 0 -1.5 
C -0.397805 -1.5 -0.77937 -1.341951 -1.06066 -1.06066 
C -1.341951 -0.77937 -1.5 -0.397805 -1.5 0 
C -1.5 0.397805 -1.341951 0.77937 -1.06066 1.06066 
C -0.77937 1.341951 -0.397805 1.5 0 1.5 
z
"/>
    </defs>
    <g clip-path="url(#p603dde3e94)">
     <use xlink:href="#Cf_0_d306838052" x="263.701643" y="79.28164"/>
    </g>
    <g clip-path="url(#p603dde3e94)">
     <use xlink:href="#Cf_0_d306838052" x="263.362643" y="83.956642"/>
    </g>
    <g clip-path="url(#p603dde3e94)">
     <use xlink:href="#Cf_0_d306838052" x="263.881906" y="111.322332"/>
    </g>
    <g clip-path="url(#p603dde3e94)">
     <use xlink:href="#Cf_0_d306838052" x="262.390798" y="110.131441"/>
    </g>
    <g clip-path="url(#p603dde3e94)">
     <use xlink:href="#Cf_0_d306838052" x="262.393136" y="118.5637"/>
    </g>
   </g>
   <g id="text_12">
    <!-- birds -->
    <g transform="translate(144.266562 16.318125) scale(0.12 -0.12)">
     <defs>
      <path id="DejaVuSans-62" d="M 3116 1747 
Q 3116 2381 2855 2742 
Q 2594 3103 2138 3103 
Q 1681 3103 1420 2742 
Q 1159 2381 1159 1747 
Q 1159 1113 1420 752 
Q 1681 391 2138 391 
Q 2594 391 2855 752 
Q 3116 1113 3116 1747 
z
M 1159 2969 
Q 1341 3281 1617 3432 
Q 1894 3584 2278 3584 
Q 2916 3584 3314 3078 
Q 3713 2572 3713 1747 
Q 3713 922 3314 415 
Q 2916 -91 2278 -91 
Q 1894 -91 1617 61 
Q 1341 213 1159 525 
L 1159 0 
L 581 0 
L 581 4863 
L 1159 4863 
L 1159 2969 
z
" transform="scale(0.015625)"/>
     </defs>
     <use xlink:href="#DejaVuSans-62"/>
     <use xlink:href="#DejaVuSans-69" x="63.476562"/>
     <use xlink:href="#DejaVuSans-72" x="91.259766"/>
     <use xlink:href="#DejaVuSans-64" x="130.623047"/>
     <use xlink:href="#DejaVuSans-73" x="194.099609"/>
    </g>
   </g>
   <g id="legend_1">
    <g id="patch_27">
     <path d="M 281.018125 142.191593 
L 400.824375 142.191593 
Q 402.824375 142.191593 402.824375 140.191593 
L 402.824375 81.922843 
Q 402.824375 79.922843 400.824375 79.922843 
L 281.018125 79.922843 
Q 279.018125 79.922843 279.018125 81.922843 
L 279.018125 140.191593 
Q 279.018125 142.191593 281.018125 142.191593 
z
" style="fill: #ffffff; opacity: 0.8; stroke: #cccccc; stroke-linejoin: miter"/>
    </g>
    <g id="patch_28">
     <path d="M 283.018125 91.52128 
L 303.018125 91.52128 
L 303.018125 84.52128 
L 283.018125 84.52128 
z
" style="fill: #3274a1; stroke: #3d3d3d; stroke-width: 0.75; stroke-linejoin: miter"/>
    </g>
    <g id="text_13">
     <!-- proba_weak -->
     <g transform="translate(311.018125 91.52128) scale(0.1 -0.1)">
      <defs>
       <path id="DejaVuSans-77" d="M 269 3500 
L 844 3500 
L 1563 769 
L 2278 3500 
L 2956 3500 
L 3675 769 
L 4391 3500 
L 4966 3500 
L 4050 0 
L 3372 0 
L 2619 2869 
L 1863 0 
L 1184 0 
L 269 3500 
z
" transform="scale(0.015625)"/>
       <path id="DejaVuSans-6b" d="M 581 4863 
L 1159 4863 
L 1159 1991 
L 2875 3500 
L 3609 3500 
L 1753 1863 
L 3688 0 
L 2938 0 
L 1159 1709 
L 1159 0 
L 581 0 
L 581 4863 
z
" transform="scale(0.015625)"/>
      </defs>
      <use xlink:href="#DejaVuSans-70"/>
      <use xlink:href="#DejaVuSans-72" x="63.476562"/>
      <use xlink:href="#DejaVuSans-6f" x="102.339844"/>
      <use xlink:href="#DejaVuSans-62" x="163.521484"/>
      <use xlink:href="#DejaVuSans-61" x="226.998047"/>
      <use xlink:href="#DejaVuSans-5f" x="288.277344"/>
      <use xlink:href="#DejaVuSans-77" x="338.277344"/>
      <use xlink:href="#DejaVuSans-65" x="420.064453"/>
      <use xlink:href="#DejaVuSans-61" x="481.587891"/>
      <use xlink:href="#DejaVuSans-6b" x="542.867188"/>
     </g>
    </g>
    <g id="patch_29">
     <path d="M 283.018125 106.47753 
L 303.018125 106.47753 
L 303.018125 99.47753 
L 283.018125 99.47753 
z
" style="fill: #e1812c; stroke: #3d3d3d; stroke-width: 0.75; stroke-linejoin: miter"/>
    </g>
    <g id="text_14">
     <!-- embedding_weak -->
     <g transform="translate(311.018125 106.47753) scale(0.1 -0.1)">
      <defs>
       <path id="DejaVuSans-67" d="M 2906 1791 
Q 2906 2416 2648 2759 
Q 2391 3103 1925 3103 
Q 1463 3103 1205 2759 
Q 947 2416 947 1791 
Q 947 1169 1205 825 
Q 1463 481 1925 481 
Q 2391 481 2648 825 
Q 2906 1169 2906 1791 
z
M 3481 434 
Q 3481 -459 3084 -895 
Q 2688 -1331 1869 -1331 
Q 1566 -1331 1297 -1286 
Q 1028 -1241 775 -1147 
L 775 -588 
Q 1028 -725 1275 -790 
Q 1522 -856 1778 -856 
Q 2344 -856 2625 -561 
Q 2906 -266 2906 331 
L 2906 616 
Q 2728 306 2450 153 
Q 2172 0 1784 0 
Q 1141 0 747 490 
Q 353 981 353 1791 
Q 353 2603 747 3093 
Q 1141 3584 1784 3584 
Q 2172 3584 2450 3431 
Q 2728 3278 2906 2969 
L 2906 3500 
L 3481 3500 
L 3481 434 
z
" transform="scale(0.015625)"/>
      </defs>
      <use xlink:href="#DejaVuSans-65"/>
      <use xlink:href="#DejaVuSans-6d" x="61.523438"/>
      <use xlink:href="#DejaVuSans-62" x="158.935547"/>
      <use xlink:href="#DejaVuSans-65" x="222.412109"/>
      <use xlink:href="#DejaVuSans-64" x="283.935547"/>
      <use xlink:href="#DejaVuSans-64" x="347.412109"/>
      <use xlink:href="#DejaVuSans-69" x="410.888672"/>
      <use xlink:href="#DejaVuSans-6e" x="438.671875"/>
      <use xlink:href="#DejaVuSans-67" x="502.050781"/>
      <use xlink:href="#DejaVuSans-5f" x="565.527344"/>
      <use xlink:href="#DejaVuSans-77" x="615.527344"/>
      <use xlink:href="#DejaVuSans-65" x="697.314453"/>
      <use xlink:href="#DejaVuSans-61" x="758.837891"/>
      <use xlink:href="#DejaVuSans-6b" x="820.117188"/>
     </g>
    </g>
    <g id="patch_30">
     <path d="M 283.018125 121.43378 
L 303.018125 121.43378 
L 303.018125 114.43378 
L 283.018125 114.43378 
z
" style="fill: #3a923a; stroke: #3d3d3d; stroke-width: 0.75; stroke-linejoin: miter"/>
    </g>
    <g id="text_15">
     <!-- proba -->
     <g transform="translate(311.018125 121.43378) scale(0.1 -0.1)">
      <use xlink:href="#DejaVuSans-70"/>
      <use xlink:href="#DejaVuSans-72" x="63.476562"/>
      <use xlink:href="#DejaVuSans-6f" x="102.339844"/>
      <use xlink:href="#DejaVuSans-62" x="163.521484"/>
      <use xlink:href="#DejaVuSans-61" x="226.998047"/>
     </g>
    </g>
    <g id="patch_31">
     <path d="M 283.018125 136.111905 
L 303.018125 136.111905 
L 303.018125 129.111905 
L 283.018125 129.111905 
z
" style="fill: #c03d3e; stroke: #3d3d3d; stroke-width: 0.75; stroke-linejoin: miter"/>
    </g>
    <g id="text_16">
     <!-- embedding -->
     <g transform="translate(311.018125 136.111905) scale(0.1 -0.1)">
      <use xlink:href="#DejaVuSans-65"/>
      <use xlink:href="#DejaVuSans-6d" x="61.523438"/>
      <use xlink:href="#DejaVuSans-62" x="158.935547"/>
      <use xlink:href="#DejaVuSans-65" x="222.412109"/>
      <use xlink:href="#DejaVuSans-64" x="283.935547"/>
      <use xlink:href="#DejaVuSans-64" x="347.412109"/>
      <use xlink:href="#DejaVuSans-69" x="410.888672"/>
      <use xlink:href="#DejaVuSans-6e" x="438.671875"/>
      <use xlink:href="#DejaVuSans-67" x="502.050781"/>
     </g>
    </g>
   </g>
  </g>
 </g>
 <defs>
  <clipPath id="p603dde3e94">
   <rect x="44.059375" y="22.318125" width="229.95875" height="124.873468"/>
  </clipPath>
 </defs>
</svg>
