<?xml version="1.0" encoding="utf-8" standalone="no"?>
<!DOCTYPE svg PUBLIC "-//W3C//DTD SVG 1.1//EN"
  "http://www.w3.org/Graphics/SVG/1.1/DTD/svg11.dtd">
<svg xmlns:xlink="http://www.w3.org/1999/xlink" width="409.99625pt" height="207.241673pt" viewBox="0 0 409.99625 207.241673" xmlns="http://www.w3.org/2000/svg" version="1.1">
 <metadata>
  <rdf:RDF xmlns:dc="http://purl.org/dc/elements/1.1/" xmlns:cc="http://creativecommons.org/ns#" xmlns:rdf="http://www.w3.org/1999/02/22-rdf-syntax-ns#">
   <cc:Work>
    <dc:type rdf:resource="http://purl.org/dc/dcmitype/StillImage"/>
    <dc:date>2023-06-23T11:36:02.465911</dc:date>
    <dc:format>image/svg+xml</dc:format>
    <dc:creator>
     <cc:Agent>
      <dc:title>Matplotlib v3.7.1, https://matplotlib.org/</dc:title>
     </cc:Agent>
    </dc:creator>
   </cc:Work>
  </rdf:RDF>
 </metadata>
 <defs>
  <style type="text/css">*{stroke-linejoin: round; stroke-linecap: butt}</style>
 </defs>
 <g id="figure_1">
  <g id="patch_1">
   <path d="M 0 207.241673 
L 409.99625 207.241673 
L 409.99625 0 
L 0 0 
L 0 207.241673 
z
" style="fill: none"/>
  </g>
  <g id="axes_1">
   <g id="patch_2">
    <path d="M 40.88125 147.191593 
L 273.99 147.191593 
L 273.99 22.318125 
L 40.88125 22.318125 
L 40.88125 147.191593 
z
" style="fill: none"/>
   </g>
   <g id="patch_3">
    <path d="M 41.003939 133.920364 
L 53.027443 133.920364 
L 53.027443 133.536422 
L 41.003939 133.536422 
L 41.003939 133.920364 
z
" clip-path="url(#p4622d251ef)" style="fill: #3274a1; stroke: #3d3d3d; stroke-width: 1.5; stroke-linejoin: miter"/>
   </g>
   <g id="patch_4">
    <path d="M 53.27282 74.25471 
L 65.296324 74.25471 
L 65.296324 60.983222 
L 53.27282 60.983222 
L 53.27282 74.25471 
z
" clip-path="url(#p4622d251ef)" style="fill: #e1812c; stroke: #3d3d3d; stroke-width: 1.5; stroke-linejoin: miter"/>
   </g>
   <g id="patch_5">
    <path d="M 65.541702 142.123664 
L 77.565206 142.123664 
L 77.565206 142.004511 
L 65.541702 142.004511 
L 65.541702 142.123664 
z
" clip-path="url(#p4622d251ef)" style="fill: #3a923a; stroke: #3d3d3d; stroke-width: 1.5; stroke-linejoin: miter"/>
   </g>
   <g id="patch_6">
    <path d="M 77.810584 94.088975 
L 89.834087 94.088975 
L 89.834087 76.229969 
L 77.810584 76.229969 
L 77.810584 94.088975 
z
" clip-path="url(#p4622d251ef)" style="fill: #c03d3e; stroke: #3d3d3d; stroke-width: 1.5; stroke-linejoin: miter"/>
   </g>
   <g id="patch_7">
    <path d="M 102.348347 133.695056 
L 114.371851 133.695056 
L 114.371851 133.244301 
L 102.348347 133.244301 
L 102.348347 133.695056 
z
" clip-path="url(#p4622d251ef)" style="fill: #3274a1; stroke: #3d3d3d; stroke-width: 1.5; stroke-linejoin: miter"/>
   </g>
   <g id="patch_8">
    <path d="M 114.617228 75.06072 
L 126.640732 75.06072 
L 126.640732 70.803025 
L 114.617228 70.803025 
L 114.617228 75.06072 
z
" clip-path="url(#p4622d251ef)" style="fill: #e1812c; stroke: #3d3d3d; stroke-width: 1.5; stroke-linejoin: miter"/>
   </g>
   <g id="patch_9">
    <path d="M 126.88611 142.20556 
L 138.909614 142.20556 
L 138.909614 142.027465 
L 126.88611 142.027465 
L 126.88611 142.20556 
z
" clip-path="url(#p4622d251ef)" style="fill: #3a923a; stroke: #3d3d3d; stroke-width: 1.5; stroke-linejoin: miter"/>
   </g>
   <g id="patch_10">
    <path d="M 139.154991 91.711306 
L 151.178495 91.711306 
L 151.178495 85.05936 
L 139.154991 85.05936 
L 139.154991 91.711306 
z
" clip-path="url(#p4622d251ef)" style="fill: #c03d3e; stroke: #3d3d3d; stroke-width: 1.5; stroke-linejoin: miter"/>
   </g>
   <g id="patch_11">
    <path d="M 163.692755 133.421553 
L 175.716259 133.421553 
L 175.716259 132.943375 
L 163.692755 132.943375 
L 163.692755 133.421553 
z
" clip-path="url(#p4622d251ef)" style="fill: #3274a1; stroke: #3d3d3d; stroke-width: 1.5; stroke-linejoin: miter"/>
   </g>
   <g id="patch_12">
    <path d="M 175.961636 62.596057 
L 187.98514 62.596057 
L 187.98514 56.705128 
L 175.961636 56.705128 
L 175.961636 62.596057 
z
" clip-path="url(#p4622d251ef)" style="fill: #e1812c; stroke: #3d3d3d; stroke-width: 1.5; stroke-linejoin: miter"/>
   </g>
   <g id="patch_13">
    <path d="M 188.230518 142.089491 
L 200.254022 142.089491 
L 200.254022 141.919294 
L 188.230518 141.919294 
L 188.230518 142.089491 
z
" clip-path="url(#p4622d251ef)" style="fill: #3a923a; stroke: #3d3d3d; stroke-width: 1.5; stroke-linejoin: miter"/>
   </g>
   <g id="patch_14">
    <path d="M 200.499399 90.84238 
L 212.522903 90.84238 
L 212.522903 72.90265 
L 200.499399 72.90265 
L 200.499399 90.84238 
z
" clip-path="url(#p4622d251ef)" style="fill: #c03d3e; stroke: #3d3d3d; stroke-width: 1.5; stroke-linejoin: miter"/>
   </g>
   <g id="patch_15">
    <path d="M 225.037162 132.625541 
L 237.060666 132.625541 
L 237.060666 132.104426 
L 225.037162 132.104426 
L 225.037162 132.625541 
z
" clip-path="url(#p4622d251ef)" style="fill: #3274a1; stroke: #3d3d3d; stroke-width: 1.5; stroke-linejoin: miter"/>
   </g>
   <g id="patch_16">
    <path d="M 237.306044 63.340206 
L 249.329548 63.340206 
L 249.329548 58.28767 
L 237.306044 58.28767 
L 237.306044 63.340206 
z
" clip-path="url(#p4622d251ef)" style="fill: #e1812c; stroke: #3d3d3d; stroke-width: 1.5; stroke-linejoin: miter"/>
   </g>
   <g id="patch_17">
    <path d="M 249.574926 141.482103 
L 261.59843 141.482103 
L 261.59843 141.402185 
L 249.574926 141.402185 
L 249.574926 141.482103 
z
" clip-path="url(#p4622d251ef)" style="fill: #3a923a; stroke: #3d3d3d; stroke-width: 1.5; stroke-linejoin: miter"/>
   </g>
   <g id="patch_18">
    <path d="M 261.843807 92.757401 
L 273.867311 92.757401 
L 273.867311 79.762095 
L 261.843807 79.762095 
L 261.843807 92.757401 
z
" clip-path="url(#p4622d251ef)" style="fill: #c03d3e; stroke: #3d3d3d; stroke-width: 1.5; stroke-linejoin: miter"/>
   </g>
   <g id="patch_19">
    <path d="M 65.419013 150.594093 
L 65.419013 150.594093 
L 65.419013 150.594093 
L 65.419013 150.594093 
z
" clip-path="url(#p4622d251ef)" style="fill: #3274a1; stroke: #3d3d3d; stroke-width: 0.75; stroke-linejoin: miter"/>
   </g>
   <g id="patch_20">
    <path d="M 65.419013 150.594093 
L 65.419013 150.594093 
L 65.419013 150.594093 
L 65.419013 150.594093 
z
" clip-path="url(#p4622d251ef)" style="fill: #e1812c; stroke: #3d3d3d; stroke-width: 0.75; stroke-linejoin: miter"/>
   </g>
   <g id="patch_21">
    <path d="M 65.419013 150.594093 
L 65.419013 150.594093 
L 65.419013 150.594093 
L 65.419013 150.594093 
z
" clip-path="url(#p4622d251ef)" style="fill: #3a923a; stroke: #3d3d3d; stroke-width: 0.75; stroke-linejoin: miter"/>
   </g>
   <g id="patch_22">
    <path d="M 65.419013 150.594093 
L 65.419013 150.594093 
L 65.419013 150.594093 
L 65.419013 150.594093 
z
" clip-path="url(#p4622d251ef)" style="fill: #c03d3e; stroke: #3d3d3d; stroke-width: 0.75; stroke-linejoin: miter"/>
   </g>
   <g id="matplotlib.axis_1">
    <g id="xtick_1">
     <g id="line2d_1">
      <defs>
       <path id="m5caa0af085" d="M 0 0 
L 0 3.5 
" style="stroke: #000000; stroke-width: 0.8"/>
      </defs>
      <g>
       <use xlink:href="#m5caa0af085" x="65.419013" y="147.191593" style="stroke: #000000; stroke-width: 0.8"/>
      </g>
     </g>
     <g id="text_1">
      <!-- none -->
      <g transform="translate(46.308348 177.204604) rotate(-45) scale(0.1 -0.1)">
       <defs>
        <path id="DejaVuSans-6e" d="M 3513 2113 
L 3513 0 
L 2938 0 
L 2938 2094 
Q 2938 2591 2744 2837 
Q 2550 3084 2163 3084 
Q 1697 3084 1428 2787 
Q 1159 2491 1159 1978 
L 1159 0 
L 581 0 
L 581 3500 
L 1159 3500 
L 1159 2956 
Q 1366 3272 1645 3428 
Q 1925 3584 2291 3584 
Q 2894 3584 3203 3211 
Q 3513 2838 3513 2113 
z
" transform="scale(0.015625)"/>
        <path id="DejaVuSans-6f" d="M 1959 3097 
Q 1497 3097 1228 2736 
Q 959 2375 959 1747 
Q 959 1119 1226 758 
Q 1494 397 1959 397 
Q 2419 397 2687 759 
Q 2956 1122 2956 1747 
Q 2956 2369 2687 2733 
Q 2419 3097 1959 3097 
z
M 1959 3584 
Q 2709 3584 3137 3096 
Q 3566 2609 3566 1747 
Q 3566 888 3137 398 
Q 2709 -91 1959 -91 
Q 1206 -91 779 398 
Q 353 888 353 1747 
Q 353 2609 779 3096 
Q 1206 3584 1959 3584 
z
" transform="scale(0.015625)"/>
        <path id="DejaVuSans-65" d="M 3597 1894 
L 3597 1613 
L 953 1613 
Q 991 1019 1311 708 
Q 1631 397 2203 397 
Q 2534 397 2845 478 
Q 3156 559 3463 722 
L 3463 178 
Q 3153 47 2828 -22 
Q 2503 -91 2169 -91 
Q 1331 -91 842 396 
Q 353 884 353 1716 
Q 353 2575 817 3079 
Q 1281 3584 2069 3584 
Q 2775 3584 3186 3129 
Q 3597 2675 3597 1894 
z
M 3022 2063 
Q 3016 2534 2758 2815 
Q 2500 3097 2075 3097 
Q 1594 3097 1305 2825 
Q 1016 2553 972 2059 
L 3022 2063 
z
" transform="scale(0.015625)"/>
       </defs>
       <use xlink:href="#DejaVuSans-6e"/>
       <use xlink:href="#DejaVuSans-6f" x="63.378906"/>
       <use xlink:href="#DejaVuSans-6e" x="124.560547"/>
       <use xlink:href="#DejaVuSans-65" x="187.939453"/>
      </g>
     </g>
    </g>
    <g id="xtick_2">
     <g id="line2d_2">
      <g>
       <use xlink:href="#m5caa0af085" x="126.763421" y="147.191593" style="stroke: #000000; stroke-width: 0.8"/>
      </g>
     </g>
     <g id="text_2">
      <!-- drop30 -->
      <g transform="translate(100.242497 184.614862) rotate(-45) scale(0.1 -0.1)">
       <defs>
        <path id="DejaVuSans-64" d="M 2906 2969 
L 2906 4863 
L 3481 4863 
L 3481 0 
L 2906 0 
L 2906 525 
Q 2725 213 2448 61 
Q 2172 -91 1784 -91 
Q 1150 -91 751 415 
Q 353 922 353 1747 
Q 353 2572 751 3078 
Q 1150 3584 1784 3584 
Q 2172 3584 2448 3432 
Q 2725 3281 2906 2969 
z
M 947 1747 
Q 947 1113 1208 752 
Q 1469 391 1925 391 
Q 2381 391 2643 752 
Q 2906 1113 2906 1747 
Q 2906 2381 2643 2742 
Q 2381 3103 1925 3103 
Q 1469 3103 1208 2742 
Q 947 2381 947 1747 
z
" transform="scale(0.015625)"/>
        <path id="DejaVuSans-72" d="M 2631 2963 
Q 2534 3019 2420 3045 
Q 2306 3072 2169 3072 
Q 1681 3072 1420 2755 
Q 1159 2438 1159 1844 
L 1159 0 
L 581 0 
L 581 3500 
L 1159 3500 
L 1159 2956 
Q 1341 3275 1631 3429 
Q 1922 3584 2338 3584 
Q 2397 3584 2469 3576 
Q 2541 3569 2628 3553 
L 2631 2963 
z
" transform="scale(0.015625)"/>
        <path id="DejaVuSans-70" d="M 1159 525 
L 1159 -1331 
L 581 -1331 
L 581 3500 
L 1159 3500 
L 1159 2969 
Q 1341 3281 1617 3432 
Q 1894 3584 2278 3584 
Q 2916 3584 3314 3078 
Q 3713 2572 3713 1747 
Q 3713 922 3314 415 
Q 2916 -91 2278 -91 
Q 1894 -91 1617 61 
Q 1341 213 1159 525 
z
M 3116 1747 
Q 3116 2381 2855 2742 
Q 2594 3103 2138 3103 
Q 1681 3103 1420 2742 
Q 1159 2381 1159 1747 
Q 1159 1113 1420 752 
Q 1681 391 2138 391 
Q 2594 391 2855 752 
Q 3116 1113 3116 1747 
z
" transform="scale(0.015625)"/>
        <path id="DejaVuSans-33" d="M 2597 2516 
Q 3050 2419 3304 2112 
Q 3559 1806 3559 1356 
Q 3559 666 3084 287 
Q 2609 -91 1734 -91 
Q 1441 -91 1130 -33 
Q 819 25 488 141 
L 488 750 
Q 750 597 1062 519 
Q 1375 441 1716 441 
Q 2309 441 2620 675 
Q 2931 909 2931 1356 
Q 2931 1769 2642 2001 
Q 2353 2234 1838 2234 
L 1294 2234 
L 1294 2753 
L 1863 2753 
Q 2328 2753 2575 2939 
Q 2822 3125 2822 3475 
Q 2822 3834 2567 4026 
Q 2313 4219 1838 4219 
Q 1578 4219 1281 4162 
Q 984 4106 628 3988 
L 628 4550 
Q 988 4650 1302 4700 
Q 1616 4750 1894 4750 
Q 2613 4750 3031 4423 
Q 3450 4097 3450 3541 
Q 3450 3153 3228 2886 
Q 3006 2619 2597 2516 
z
" transform="scale(0.015625)"/>
        <path id="DejaVuSans-30" d="M 2034 4250 
Q 1547 4250 1301 3770 
Q 1056 3291 1056 2328 
Q 1056 1369 1301 889 
Q 1547 409 2034 409 
Q 2525 409 2770 889 
Q 3016 1369 3016 2328 
Q 3016 3291 2770 3770 
Q 2525 4250 2034 4250 
z
M 2034 4750 
Q 2819 4750 3233 4129 
Q 3647 3509 3647 2328 
Q 3647 1150 3233 529 
Q 2819 -91 2034 -91 
Q 1250 -91 836 529 
Q 422 1150 422 2328 
Q 422 3509 836 4129 
Q 1250 4750 2034 4750 
z
" transform="scale(0.015625)"/>
       </defs>
       <use xlink:href="#DejaVuSans-64"/>
       <use xlink:href="#DejaVuSans-72" x="63.476562"/>
       <use xlink:href="#DejaVuSans-6f" x="102.339844"/>
       <use xlink:href="#DejaVuSans-70" x="163.521484"/>
       <use xlink:href="#DejaVuSans-33" x="226.998047"/>
       <use xlink:href="#DejaVuSans-30" x="290.621094"/>
      </g>
     </g>
    </g>
    <g id="xtick_3">
     <g id="line2d_3">
      <g>
       <use xlink:href="#m5caa0af085" x="188.107829" y="147.191593" style="stroke: #000000; stroke-width: 0.8"/>
      </g>
     </g>
     <g id="text_3">
      <!-- drop50 -->
      <g transform="translate(161.586905 184.614862) rotate(-45) scale(0.1 -0.1)">
       <defs>
        <path id="DejaVuSans-35" d="M 691 4666 
L 3169 4666 
L 3169 4134 
L 1269 4134 
L 1269 2991 
Q 1406 3038 1543 3061 
Q 1681 3084 1819 3084 
Q 2600 3084 3056 2656 
Q 3513 2228 3513 1497 
Q 3513 744 3044 326 
Q 2575 -91 1722 -91 
Q 1428 -91 1123 -41 
Q 819 9 494 109 
L 494 744 
Q 775 591 1075 516 
Q 1375 441 1709 441 
Q 2250 441 2565 725 
Q 2881 1009 2881 1497 
Q 2881 1984 2565 2268 
Q 2250 2553 1709 2553 
Q 1456 2553 1204 2497 
Q 953 2441 691 2322 
L 691 4666 
z
" transform="scale(0.015625)"/>
       </defs>
       <use xlink:href="#DejaVuSans-64"/>
       <use xlink:href="#DejaVuSans-72" x="63.476562"/>
       <use xlink:href="#DejaVuSans-6f" x="102.339844"/>
       <use xlink:href="#DejaVuSans-70" x="163.521484"/>
       <use xlink:href="#DejaVuSans-35" x="226.998047"/>
       <use xlink:href="#DejaVuSans-30" x="290.621094"/>
      </g>
     </g>
    </g>
    <g id="xtick_4">
     <g id="line2d_4">
      <g>
       <use xlink:href="#m5caa0af085" x="249.452237" y="147.191593" style="stroke: #000000; stroke-width: 0.8"/>
      </g>
     </g>
     <g id="text_4">
      <!-- drop80 -->
      <g transform="translate(222.931313 184.614862) rotate(-45) scale(0.1 -0.1)">
       <defs>
        <path id="DejaVuSans-38" d="M 2034 2216 
Q 1584 2216 1326 1975 
Q 1069 1734 1069 1313 
Q 1069 891 1326 650 
Q 1584 409 2034 409 
Q 2484 409 2743 651 
Q 3003 894 3003 1313 
Q 3003 1734 2745 1975 
Q 2488 2216 2034 2216 
z
M 1403 2484 
Q 997 2584 770 2862 
Q 544 3141 544 3541 
Q 544 4100 942 4425 
Q 1341 4750 2034 4750 
Q 2731 4750 3128 4425 
Q 3525 4100 3525 3541 
Q 3525 3141 3298 2862 
Q 3072 2584 2669 2484 
Q 3125 2378 3379 2068 
Q 3634 1759 3634 1313 
Q 3634 634 3220 271 
Q 2806 -91 2034 -91 
Q 1263 -91 848 271 
Q 434 634 434 1313 
Q 434 1759 690 2068 
Q 947 2378 1403 2484 
z
M 1172 3481 
Q 1172 3119 1398 2916 
Q 1625 2713 2034 2713 
Q 2441 2713 2670 2916 
Q 2900 3119 2900 3481 
Q 2900 3844 2670 4047 
Q 2441 4250 2034 4250 
Q 1625 4250 1398 4047 
Q 1172 3844 1172 3481 
z
" transform="scale(0.015625)"/>
       </defs>
       <use xlink:href="#DejaVuSans-64"/>
       <use xlink:href="#DejaVuSans-72" x="63.476562"/>
       <use xlink:href="#DejaVuSans-6f" x="102.339844"/>
       <use xlink:href="#DejaVuSans-70" x="163.521484"/>
       <use xlink:href="#DejaVuSans-38" x="226.998047"/>
       <use xlink:href="#DejaVuSans-30" x="290.621094"/>
      </g>
     </g>
    </g>
    <g id="text_5">
     <!-- estimator_suffix -->
     <g transform="translate(117.253594 197.68386) scale(0.1 -0.1)">
      <defs>
       <path id="DejaVuSans-73" d="M 2834 3397 
L 2834 2853 
Q 2591 2978 2328 3040 
Q 2066 3103 1784 3103 
Q 1356 3103 1142 2972 
Q 928 2841 928 2578 
Q 928 2378 1081 2264 
Q 1234 2150 1697 2047 
L 1894 2003 
Q 2506 1872 2764 1633 
Q 3022 1394 3022 966 
Q 3022 478 2636 193 
Q 2250 -91 1575 -91 
Q 1294 -91 989 -36 
Q 684 19 347 128 
L 347 722 
Q 666 556 975 473 
Q 1284 391 1588 391 
Q 1994 391 2212 530 
Q 2431 669 2431 922 
Q 2431 1156 2273 1281 
Q 2116 1406 1581 1522 
L 1381 1569 
Q 847 1681 609 1914 
Q 372 2147 372 2553 
Q 372 3047 722 3315 
Q 1072 3584 1716 3584 
Q 2034 3584 2315 3537 
Q 2597 3491 2834 3397 
z
" transform="scale(0.015625)"/>
       <path id="DejaVuSans-74" d="M 1172 4494 
L 1172 3500 
L 2356 3500 
L 2356 3053 
L 1172 3053 
L 1172 1153 
Q 1172 725 1289 603 
Q 1406 481 1766 481 
L 2356 481 
L 2356 0 
L 1766 0 
Q 1100 0 847 248 
Q 594 497 594 1153 
L 594 3053 
L 172 3053 
L 172 3500 
L 594 3500 
L 594 4494 
L 1172 4494 
z
" transform="scale(0.015625)"/>
       <path id="DejaVuSans-69" d="M 603 3500 
L 1178 3500 
L 1178 0 
L 603 0 
L 603 3500 
z
M 603 4863 
L 1178 4863 
L 1178 4134 
L 603 4134 
L 603 4863 
z
" transform="scale(0.015625)"/>
       <path id="DejaVuSans-6d" d="M 3328 2828 
Q 3544 3216 3844 3400 
Q 4144 3584 4550 3584 
Q 5097 3584 5394 3201 
Q 5691 2819 5691 2113 
L 5691 0 
L 5113 0 
L 5113 2094 
Q 5113 2597 4934 2840 
Q 4756 3084 4391 3084 
Q 3944 3084 3684 2787 
Q 3425 2491 3425 1978 
L 3425 0 
L 2847 0 
L 2847 2094 
Q 2847 2600 2669 2842 
Q 2491 3084 2119 3084 
Q 1678 3084 1418 2786 
Q 1159 2488 1159 1978 
L 1159 0 
L 581 0 
L 581 3500 
L 1159 3500 
L 1159 2956 
Q 1356 3278 1631 3431 
Q 1906 3584 2284 3584 
Q 2666 3584 2933 3390 
Q 3200 3197 3328 2828 
z
" transform="scale(0.015625)"/>
       <path id="DejaVuSans-61" d="M 2194 1759 
Q 1497 1759 1228 1600 
Q 959 1441 959 1056 
Q 959 750 1161 570 
Q 1363 391 1709 391 
Q 2188 391 2477 730 
Q 2766 1069 2766 1631 
L 2766 1759 
L 2194 1759 
z
M 3341 1997 
L 3341 0 
L 2766 0 
L 2766 531 
Q 2569 213 2275 61 
Q 1981 -91 1556 -91 
Q 1019 -91 701 211 
Q 384 513 384 1019 
Q 384 1609 779 1909 
Q 1175 2209 1959 2209 
L 2766 2209 
L 2766 2266 
Q 2766 2663 2505 2880 
Q 2244 3097 1772 3097 
Q 1472 3097 1187 3025 
Q 903 2953 641 2809 
L 641 3341 
Q 956 3463 1253 3523 
Q 1550 3584 1831 3584 
Q 2591 3584 2966 3190 
Q 3341 2797 3341 1997 
z
" transform="scale(0.015625)"/>
       <path id="DejaVuSans-5f" d="M 3263 -1063 
L 3263 -1509 
L -63 -1509 
L -63 -1063 
L 3263 -1063 
z
" transform="scale(0.015625)"/>
       <path id="DejaVuSans-75" d="M 544 1381 
L 544 3500 
L 1119 3500 
L 1119 1403 
Q 1119 906 1312 657 
Q 1506 409 1894 409 
Q 2359 409 2629 706 
Q 2900 1003 2900 1516 
L 2900 3500 
L 3475 3500 
L 3475 0 
L 2900 0 
L 2900 538 
Q 2691 219 2414 64 
Q 2138 -91 1772 -91 
Q 1169 -91 856 284 
Q 544 659 544 1381 
z
M 1991 3584 
L 1991 3584 
z
" transform="scale(0.015625)"/>
       <path id="DejaVuSans-66" d="M 2375 4863 
L 2375 4384 
L 1825 4384 
Q 1516 4384 1395 4259 
Q 1275 4134 1275 3809 
L 1275 3500 
L 2222 3500 
L 2222 3053 
L 1275 3053 
L 1275 0 
L 697 0 
L 697 3053 
L 147 3053 
L 147 3500 
L 697 3500 
L 697 3744 
Q 697 4328 969 4595 
Q 1241 4863 1831 4863 
L 2375 4863 
z
" transform="scale(0.015625)"/>
       <path id="DejaVuSans-78" d="M 3513 3500 
L 2247 1797 
L 3578 0 
L 2900 0 
L 1881 1375 
L 863 0 
L 184 0 
L 1544 1831 
L 300 3500 
L 978 3500 
L 1906 2253 
L 2834 3500 
L 3513 3500 
z
" transform="scale(0.015625)"/>
      </defs>
      <use xlink:href="#DejaVuSans-65"/>
      <use xlink:href="#DejaVuSans-73" x="61.523438"/>
      <use xlink:href="#DejaVuSans-74" x="113.623047"/>
      <use xlink:href="#DejaVuSans-69" x="152.832031"/>
      <use xlink:href="#DejaVuSans-6d" x="180.615234"/>
      <use xlink:href="#DejaVuSans-61" x="278.027344"/>
      <use xlink:href="#DejaVuSans-74" x="339.306641"/>
      <use xlink:href="#DejaVuSans-6f" x="378.515625"/>
      <use xlink:href="#DejaVuSans-72" x="439.697266"/>
      <use xlink:href="#DejaVuSans-5f" x="480.810547"/>
      <use xlink:href="#DejaVuSans-73" x="530.810547"/>
      <use xlink:href="#DejaVuSans-75" x="582.910156"/>
      <use xlink:href="#DejaVuSans-66" x="646.289062"/>
      <use xlink:href="#DejaVuSans-66" x="681.494141"/>
      <use xlink:href="#DejaVuSans-69" x="716.699219"/>
      <use xlink:href="#DejaVuSans-78" x="744.482422"/>
     </g>
    </g>
   </g>
   <g id="matplotlib.axis_2">
    <g id="ytick_1">
     <g id="line2d_5">
      <defs>
       <path id="m0cb8b52ca3" d="M 0 0 
L -3.5 0 
" style="stroke: #000000; stroke-width: 0.8"/>
      </defs>
      <g>
       <use xlink:href="#m0cb8b52ca3" x="40.88125" y="117.103396" style="stroke: #000000; stroke-width: 0.8"/>
      </g>
     </g>
     <g id="text_6">
      <!-- 20 -->
      <g transform="translate(21.15625 120.902614) scale(0.1 -0.1)">
       <defs>
        <path id="DejaVuSans-32" d="M 1228 531 
L 3431 531 
L 3431 0 
L 469 0 
L 469 531 
Q 828 903 1448 1529 
Q 2069 2156 2228 2338 
Q 2531 2678 2651 2914 
Q 2772 3150 2772 3378 
Q 2772 3750 2511 3984 
Q 2250 4219 1831 4219 
Q 1534 4219 1204 4116 
Q 875 4013 500 3803 
L 500 4441 
Q 881 4594 1212 4672 
Q 1544 4750 1819 4750 
Q 2544 4750 2975 4387 
Q 3406 4025 3406 3419 
Q 3406 3131 3298 2873 
Q 3191 2616 2906 2266 
Q 2828 2175 2409 1742 
Q 1991 1309 1228 531 
z
" transform="scale(0.015625)"/>
       </defs>
       <use xlink:href="#DejaVuSans-32"/>
       <use xlink:href="#DejaVuSans-30" x="63.623047"/>
      </g>
     </g>
    </g>
    <g id="ytick_2">
     <g id="line2d_6">
      <g>
       <use xlink:href="#m0cb8b52ca3" x="40.88125" y="83.612698" style="stroke: #000000; stroke-width: 0.8"/>
      </g>
     </g>
     <g id="text_7">
      <!-- 40 -->
      <g transform="translate(21.15625 87.411917) scale(0.1 -0.1)">
       <defs>
        <path id="DejaVuSans-34" d="M 2419 4116 
L 825 1625 
L 2419 1625 
L 2419 4116 
z
M 2253 4666 
L 3047 4666 
L 3047 1625 
L 3713 1625 
L 3713 1100 
L 3047 1100 
L 3047 0 
L 2419 0 
L 2419 1100 
L 313 1100 
L 313 1709 
L 2253 4666 
z
" transform="scale(0.015625)"/>
       </defs>
       <use xlink:href="#DejaVuSans-34"/>
       <use xlink:href="#DejaVuSans-30" x="63.623047"/>
      </g>
     </g>
    </g>
    <g id="ytick_3">
     <g id="line2d_7">
      <g>
       <use xlink:href="#m0cb8b52ca3" x="40.88125" y="50.122001" style="stroke: #000000; stroke-width: 0.8"/>
      </g>
     </g>
     <g id="text_8">
      <!-- 60 -->
      <g transform="translate(21.15625 53.92122) scale(0.1 -0.1)">
       <defs>
        <path id="DejaVuSans-36" d="M 2113 2584 
Q 1688 2584 1439 2293 
Q 1191 2003 1191 1497 
Q 1191 994 1439 701 
Q 1688 409 2113 409 
Q 2538 409 2786 701 
Q 3034 994 3034 1497 
Q 3034 2003 2786 2293 
Q 2538 2584 2113 2584 
z
M 3366 4563 
L 3366 3988 
Q 3128 4100 2886 4159 
Q 2644 4219 2406 4219 
Q 1781 4219 1451 3797 
Q 1122 3375 1075 2522 
Q 1259 2794 1537 2939 
Q 1816 3084 2150 3084 
Q 2853 3084 3261 2657 
Q 3669 2231 3669 1497 
Q 3669 778 3244 343 
Q 2819 -91 2113 -91 
Q 1303 -91 875 529 
Q 447 1150 447 2328 
Q 447 3434 972 4092 
Q 1497 4750 2381 4750 
Q 2619 4750 2861 4703 
Q 3103 4656 3366 4563 
z
" transform="scale(0.015625)"/>
       </defs>
       <use xlink:href="#DejaVuSans-36"/>
       <use xlink:href="#DejaVuSans-30" x="63.623047"/>
      </g>
     </g>
    </g>
    <g id="text_9">
     <!-- fit_time -->
     <g transform="translate(14.798438 103.660328) rotate(-90) scale(0.1 -0.1)">
      <use xlink:href="#DejaVuSans-66"/>
      <use xlink:href="#DejaVuSans-69" x="35.205078"/>
      <use xlink:href="#DejaVuSans-74" x="62.988281"/>
      <use xlink:href="#DejaVuSans-5f" x="102.197266"/>
      <use xlink:href="#DejaVuSans-74" x="152.197266"/>
      <use xlink:href="#DejaVuSans-69" x="191.40625"/>
      <use xlink:href="#DejaVuSans-6d" x="219.189453"/>
      <use xlink:href="#DejaVuSans-65" x="316.601562"/>
     </g>
    </g>
   </g>
   <g id="line2d_8">
    <path d="M 47.015691 133.920364 
L 47.015691 133.985405 
" clip-path="url(#p4622d251ef)" style="fill: none; stroke: #3d3d3d; stroke-width: 1.5; stroke-linecap: square"/>
   </g>
   <g id="line2d_9">
    <path d="M 47.015691 133.536422 
L 47.015691 133.439435 
" clip-path="url(#p4622d251ef)" style="fill: none; stroke: #3d3d3d; stroke-width: 1.5; stroke-linecap: square"/>
   </g>
   <g id="line2d_10">
    <path d="M 44.009815 133.985405 
L 50.021567 133.985405 
" clip-path="url(#p4622d251ef)" style="fill: none; stroke: #3d3d3d; stroke-width: 1.5; stroke-linecap: square"/>
   </g>
   <g id="line2d_11">
    <path d="M 44.009815 133.439435 
L 50.021567 133.439435 
" clip-path="url(#p4622d251ef)" style="fill: none; stroke: #3d3d3d; stroke-width: 1.5; stroke-linecap: square"/>
   </g>
   <g id="line2d_12"/>
   <g id="line2d_13">
    <path d="M 59.284572 74.25471 
L 59.284572 77.792979 
" clip-path="url(#p4622d251ef)" style="fill: none; stroke: #3d3d3d; stroke-width: 1.5; stroke-linecap: square"/>
   </g>
   <g id="line2d_14">
    <path d="M 59.284572 60.983222 
L 59.284572 60.005707 
" clip-path="url(#p4622d251ef)" style="fill: none; stroke: #3d3d3d; stroke-width: 1.5; stroke-linecap: square"/>
   </g>
   <g id="line2d_15">
    <path d="M 56.278696 77.792979 
L 62.290448 77.792979 
" clip-path="url(#p4622d251ef)" style="fill: none; stroke: #3d3d3d; stroke-width: 1.5; stroke-linecap: square"/>
   </g>
   <g id="line2d_16">
    <path d="M 56.278696 60.005707 
L 62.290448 60.005707 
" clip-path="url(#p4622d251ef)" style="fill: none; stroke: #3d3d3d; stroke-width: 1.5; stroke-linecap: square"/>
   </g>
   <g id="line2d_17"/>
   <g id="line2d_18">
    <path d="M 71.553454 142.123664 
L 71.553454 142.301985 
" clip-path="url(#p4622d251ef)" style="fill: none; stroke: #3d3d3d; stroke-width: 1.5; stroke-linecap: square"/>
   </g>
   <g id="line2d_19">
    <path d="M 71.553454 142.004511 
L 71.553454 141.9942 
" clip-path="url(#p4622d251ef)" style="fill: none; stroke: #3d3d3d; stroke-width: 1.5; stroke-linecap: square"/>
   </g>
   <g id="line2d_20">
    <path d="M 68.547578 142.301985 
L 74.55933 142.301985 
" clip-path="url(#p4622d251ef)" style="fill: none; stroke: #3d3d3d; stroke-width: 1.5; stroke-linecap: square"/>
   </g>
   <g id="line2d_21">
    <path d="M 68.547578 141.9942 
L 74.55933 141.9942 
" clip-path="url(#p4622d251ef)" style="fill: none; stroke: #3d3d3d; stroke-width: 1.5; stroke-linecap: square"/>
   </g>
   <g id="line2d_22"/>
   <g id="line2d_23">
    <path d="M 83.822336 94.088975 
L 83.822336 97.418337 
" clip-path="url(#p4622d251ef)" style="fill: none; stroke: #3d3d3d; stroke-width: 1.5; stroke-linecap: square"/>
   </g>
   <g id="line2d_24">
    <path d="M 83.822336 76.229969 
L 83.822336 70.342365 
" clip-path="url(#p4622d251ef)" style="fill: none; stroke: #3d3d3d; stroke-width: 1.5; stroke-linecap: square"/>
   </g>
   <g id="line2d_25">
    <path d="M 80.81646 97.418337 
L 86.828212 97.418337 
" clip-path="url(#p4622d251ef)" style="fill: none; stroke: #3d3d3d; stroke-width: 1.5; stroke-linecap: square"/>
   </g>
   <g id="line2d_26">
    <path d="M 80.81646 70.342365 
L 86.828212 70.342365 
" clip-path="url(#p4622d251ef)" style="fill: none; stroke: #3d3d3d; stroke-width: 1.5; stroke-linecap: square"/>
   </g>
   <g id="line2d_27"/>
   <g id="line2d_28">
    <path d="M 108.360099 133.695056 
L 108.360099 133.724872 
" clip-path="url(#p4622d251ef)" style="fill: none; stroke: #3d3d3d; stroke-width: 1.5; stroke-linecap: square"/>
   </g>
   <g id="line2d_29">
    <path d="M 108.360099 133.244301 
L 108.360099 132.964213 
" clip-path="url(#p4622d251ef)" style="fill: none; stroke: #3d3d3d; stroke-width: 1.5; stroke-linecap: square"/>
   </g>
   <g id="line2d_30">
    <path d="M 105.354223 133.724872 
L 111.365975 133.724872 
" clip-path="url(#p4622d251ef)" style="fill: none; stroke: #3d3d3d; stroke-width: 1.5; stroke-linecap: square"/>
   </g>
   <g id="line2d_31">
    <path d="M 105.354223 132.964213 
L 111.365975 132.964213 
" clip-path="url(#p4622d251ef)" style="fill: none; stroke: #3d3d3d; stroke-width: 1.5; stroke-linecap: square"/>
   </g>
   <g id="line2d_32"/>
   <g id="line2d_33">
    <path d="M 120.62898 75.06072 
L 120.62898 78.178676 
" clip-path="url(#p4622d251ef)" style="fill: none; stroke: #3d3d3d; stroke-width: 1.5; stroke-linecap: square"/>
   </g>
   <g id="line2d_34">
    <path d="M 120.62898 70.803025 
L 120.62898 70.803025 
" clip-path="url(#p4622d251ef)" style="fill: none; stroke: #3d3d3d; stroke-width: 1.5; stroke-linecap: square"/>
   </g>
   <g id="line2d_35">
    <path d="M 117.623104 78.178676 
L 123.634856 78.178676 
" clip-path="url(#p4622d251ef)" style="fill: none; stroke: #3d3d3d; stroke-width: 1.5; stroke-linecap: square"/>
   </g>
   <g id="line2d_36">
    <path d="M 117.623104 70.803025 
L 123.634856 70.803025 
" clip-path="url(#p4622d251ef)" style="fill: none; stroke: #3d3d3d; stroke-width: 1.5; stroke-linecap: square"/>
   </g>
   <g id="line2d_37">
    <defs>
     <path id="mc1ee9c6b0c" d="M -0 3.535534 
L 2.12132 0 
L -0 -3.535534 
L -2.12132 -0 
z
" style="stroke: #3d3d3d; stroke-linejoin: miter"/>
    </defs>
    <g clip-path="url(#p4622d251ef)">
     <use xlink:href="#mc1ee9c6b0c" x="120.62898" y="44.509842" style="fill: #3d3d3d; stroke: #3d3d3d; stroke-linejoin: miter"/>
    </g>
   </g>
   <g id="line2d_38">
    <path d="M 132.897862 142.20556 
L 132.897862 142.285792 
" clip-path="url(#p4622d251ef)" style="fill: none; stroke: #3d3d3d; stroke-width: 1.5; stroke-linecap: square"/>
   </g>
   <g id="line2d_39">
    <path d="M 132.897862 142.027465 
L 132.897862 141.966159 
" clip-path="url(#p4622d251ef)" style="fill: none; stroke: #3d3d3d; stroke-width: 1.5; stroke-linecap: square"/>
   </g>
   <g id="line2d_40">
    <path d="M 129.891986 142.285792 
L 135.903738 142.285792 
" clip-path="url(#p4622d251ef)" style="fill: none; stroke: #3d3d3d; stroke-width: 1.5; stroke-linecap: square"/>
   </g>
   <g id="line2d_41">
    <path d="M 129.891986 141.966159 
L 135.903738 141.966159 
" clip-path="url(#p4622d251ef)" style="fill: none; stroke: #3d3d3d; stroke-width: 1.5; stroke-linecap: square"/>
   </g>
   <g id="line2d_42"/>
   <g id="line2d_43">
    <path d="M 145.166743 91.711306 
L 145.166743 95.069986 
" clip-path="url(#p4622d251ef)" style="fill: none; stroke: #3d3d3d; stroke-width: 1.5; stroke-linecap: square"/>
   </g>
   <g id="line2d_44">
    <path d="M 145.166743 85.05936 
L 145.166743 85.05936 
" clip-path="url(#p4622d251ef)" style="fill: none; stroke: #3d3d3d; stroke-width: 1.5; stroke-linecap: square"/>
   </g>
   <g id="line2d_45">
    <path d="M 142.160867 95.069986 
L 148.172619 95.069986 
" clip-path="url(#p4622d251ef)" style="fill: none; stroke: #3d3d3d; stroke-width: 1.5; stroke-linecap: square"/>
   </g>
   <g id="line2d_46">
    <path d="M 142.160867 85.05936 
L 148.172619 85.05936 
" clip-path="url(#p4622d251ef)" style="fill: none; stroke: #3d3d3d; stroke-width: 1.5; stroke-linecap: square"/>
   </g>
   <g id="line2d_47">
    <g clip-path="url(#p4622d251ef)">
     <use xlink:href="#mc1ee9c6b0c" x="145.166743" y="70.665762" style="fill: #3d3d3d; stroke: #3d3d3d; stroke-linejoin: miter"/>
    </g>
   </g>
   <g id="line2d_48">
    <path d="M 169.704507 133.421553 
L 169.704507 133.553413 
" clip-path="url(#p4622d251ef)" style="fill: none; stroke: #3d3d3d; stroke-width: 1.5; stroke-linecap: square"/>
   </g>
   <g id="line2d_49">
    <path d="M 169.704507 132.943375 
L 169.704507 132.845428 
" clip-path="url(#p4622d251ef)" style="fill: none; stroke: #3d3d3d; stroke-width: 1.5; stroke-linecap: square"/>
   </g>
   <g id="line2d_50">
    <path d="M 166.698631 133.553413 
L 172.710383 133.553413 
" clip-path="url(#p4622d251ef)" style="fill: none; stroke: #3d3d3d; stroke-width: 1.5; stroke-linecap: square"/>
   </g>
   <g id="line2d_51">
    <path d="M 166.698631 132.845428 
L 172.710383 132.845428 
" clip-path="url(#p4622d251ef)" style="fill: none; stroke: #3d3d3d; stroke-width: 1.5; stroke-linecap: square"/>
   </g>
   <g id="line2d_52"/>
   <g id="line2d_53">
    <path d="M 181.973388 62.596057 
L 181.973388 69.459427 
" clip-path="url(#p4622d251ef)" style="fill: none; stroke: #3d3d3d; stroke-width: 1.5; stroke-linecap: square"/>
   </g>
   <g id="line2d_54">
    <path d="M 181.973388 56.705128 
L 181.973388 49.118441 
" clip-path="url(#p4622d251ef)" style="fill: none; stroke: #3d3d3d; stroke-width: 1.5; stroke-linecap: square"/>
   </g>
   <g id="line2d_55">
    <path d="M 178.967512 69.459427 
L 184.979264 69.459427 
" clip-path="url(#p4622d251ef)" style="fill: none; stroke: #3d3d3d; stroke-width: 1.5; stroke-linecap: square"/>
   </g>
   <g id="line2d_56">
    <path d="M 178.967512 49.118441 
L 184.979264 49.118441 
" clip-path="url(#p4622d251ef)" style="fill: none; stroke: #3d3d3d; stroke-width: 1.5; stroke-linecap: square"/>
   </g>
   <g id="line2d_57"/>
   <g id="line2d_58">
    <path d="M 194.24227 142.089491 
L 194.24227 142.092667 
" clip-path="url(#p4622d251ef)" style="fill: none; stroke: #3d3d3d; stroke-width: 1.5; stroke-linecap: square"/>
   </g>
   <g id="line2d_59">
    <path d="M 194.24227 141.919294 
L 194.24227 141.893703 
" clip-path="url(#p4622d251ef)" style="fill: none; stroke: #3d3d3d; stroke-width: 1.5; stroke-linecap: square"/>
   </g>
   <g id="line2d_60">
    <path d="M 191.236394 142.092667 
L 197.248146 142.092667 
" clip-path="url(#p4622d251ef)" style="fill: none; stroke: #3d3d3d; stroke-width: 1.5; stroke-linecap: square"/>
   </g>
   <g id="line2d_61">
    <path d="M 191.236394 141.893703 
L 197.248146 141.893703 
" clip-path="url(#p4622d251ef)" style="fill: none; stroke: #3d3d3d; stroke-width: 1.5; stroke-linecap: square"/>
   </g>
   <g id="line2d_62"/>
   <g id="line2d_63">
    <path d="M 206.511151 90.84238 
L 206.511151 93.561468 
" clip-path="url(#p4622d251ef)" style="fill: none; stroke: #3d3d3d; stroke-width: 1.5; stroke-linecap: square"/>
   </g>
   <g id="line2d_64">
    <path d="M 206.511151 72.90265 
L 206.511151 72.022755 
" clip-path="url(#p4622d251ef)" style="fill: none; stroke: #3d3d3d; stroke-width: 1.5; stroke-linecap: square"/>
   </g>
   <g id="line2d_65">
    <path d="M 203.505275 93.561468 
L 209.517027 93.561468 
" clip-path="url(#p4622d251ef)" style="fill: none; stroke: #3d3d3d; stroke-width: 1.5; stroke-linecap: square"/>
   </g>
   <g id="line2d_66">
    <path d="M 203.505275 72.022755 
L 209.517027 72.022755 
" clip-path="url(#p4622d251ef)" style="fill: none; stroke: #3d3d3d; stroke-width: 1.5; stroke-linecap: square"/>
   </g>
   <g id="line2d_67"/>
   <g id="line2d_68">
    <path d="M 231.048914 132.625541 
L 231.048914 132.692792 
" clip-path="url(#p4622d251ef)" style="fill: none; stroke: #3d3d3d; stroke-width: 1.5; stroke-linecap: square"/>
   </g>
   <g id="line2d_69">
    <path d="M 231.048914 132.104426 
L 231.048914 131.892615 
" clip-path="url(#p4622d251ef)" style="fill: none; stroke: #3d3d3d; stroke-width: 1.5; stroke-linecap: square"/>
   </g>
   <g id="line2d_70">
    <path d="M 228.043038 132.692792 
L 234.05479 132.692792 
" clip-path="url(#p4622d251ef)" style="fill: none; stroke: #3d3d3d; stroke-width: 1.5; stroke-linecap: square"/>
   </g>
   <g id="line2d_71">
    <path d="M 228.043038 131.892615 
L 234.05479 131.892615 
" clip-path="url(#p4622d251ef)" style="fill: none; stroke: #3d3d3d; stroke-width: 1.5; stroke-linecap: square"/>
   </g>
   <g id="line2d_72"/>
   <g id="line2d_73">
    <path d="M 243.317796 63.340206 
L 243.317796 64.705974 
" clip-path="url(#p4622d251ef)" style="fill: none; stroke: #3d3d3d; stroke-width: 1.5; stroke-linecap: square"/>
   </g>
   <g id="line2d_74">
    <path d="M 243.317796 58.28767 
L 243.317796 58.28767 
" clip-path="url(#p4622d251ef)" style="fill: none; stroke: #3d3d3d; stroke-width: 1.5; stroke-linecap: square"/>
   </g>
   <g id="line2d_75">
    <path d="M 240.31192 64.705974 
L 246.323672 64.705974 
" clip-path="url(#p4622d251ef)" style="fill: none; stroke: #3d3d3d; stroke-width: 1.5; stroke-linecap: square"/>
   </g>
   <g id="line2d_76">
    <path d="M 240.31192 58.28767 
L 246.323672 58.28767 
" clip-path="url(#p4622d251ef)" style="fill: none; stroke: #3d3d3d; stroke-width: 1.5; stroke-linecap: square"/>
   </g>
   <g id="line2d_77">
    <g clip-path="url(#p4622d251ef)">
     <use xlink:href="#mc1ee9c6b0c" x="243.317796" y="48.455965" style="fill: #3d3d3d; stroke: #3d3d3d; stroke-linejoin: miter"/>
    </g>
   </g>
   <g id="line2d_78">
    <path d="M 255.586678 141.482103 
L 255.586678 141.482103 
" clip-path="url(#p4622d251ef)" style="fill: none; stroke: #3d3d3d; stroke-width: 1.5; stroke-linecap: square"/>
   </g>
   <g id="line2d_79">
    <path d="M 255.586678 141.402185 
L 255.586678 141.402185 
" clip-path="url(#p4622d251ef)" style="fill: none; stroke: #3d3d3d; stroke-width: 1.5; stroke-linecap: square"/>
   </g>
   <g id="line2d_80">
    <path d="M 252.580802 141.482103 
L 258.592554 141.482103 
" clip-path="url(#p4622d251ef)" style="fill: none; stroke: #3d3d3d; stroke-width: 1.5; stroke-linecap: square"/>
   </g>
   <g id="line2d_81">
    <path d="M 252.580802 141.402185 
L 258.592554 141.402185 
" clip-path="url(#p4622d251ef)" style="fill: none; stroke: #3d3d3d; stroke-width: 1.5; stroke-linecap: square"/>
   </g>
   <g id="line2d_82">
    <g clip-path="url(#p4622d251ef)">
     <use xlink:href="#mc1ee9c6b0c" x="255.586678" y="141.627486" style="fill: #3d3d3d; stroke: #3d3d3d; stroke-linejoin: miter"/>
     <use xlink:href="#mc1ee9c6b0c" x="255.586678" y="141.096138" style="fill: #3d3d3d; stroke: #3d3d3d; stroke-linejoin: miter"/>
    </g>
   </g>
   <g id="line2d_83">
    <path d="M 267.855559 92.757401 
L 267.855559 93.865831 
" clip-path="url(#p4622d251ef)" style="fill: none; stroke: #3d3d3d; stroke-width: 1.5; stroke-linecap: square"/>
   </g>
   <g id="line2d_84">
    <path d="M 267.855559 79.762095 
L 267.855559 70.719653 
" clip-path="url(#p4622d251ef)" style="fill: none; stroke: #3d3d3d; stroke-width: 1.5; stroke-linecap: square"/>
   </g>
   <g id="line2d_85">
    <path d="M 264.849683 93.865831 
L 270.861435 93.865831 
" clip-path="url(#p4622d251ef)" style="fill: none; stroke: #3d3d3d; stroke-width: 1.5; stroke-linecap: square"/>
   </g>
   <g id="line2d_86">
    <path d="M 264.849683 70.719653 
L 270.861435 70.719653 
" clip-path="url(#p4622d251ef)" style="fill: none; stroke: #3d3d3d; stroke-width: 1.5; stroke-linecap: square"/>
   </g>
   <g id="line2d_87"/>
   <g id="line2d_88">
    <path d="M 59.284572 53.551425 
L 59.284572 51.399998 
L 71.553454 51.399998 
L 71.553454 53.551425 
" clip-path="url(#p4622d251ef)" style="fill: none; stroke: #333333; stroke-width: 1.5; stroke-linecap: square"/>
   </g>
   <g id="line2d_89">
    <path d="M 120.62898 36.438627 
L 120.62898 34.2872 
L 132.897862 34.2872 
L 132.897862 36.438627 
" clip-path="url(#p4622d251ef)" style="fill: none; stroke: #333333; stroke-width: 1.5; stroke-linecap: square"/>
   </g>
   <g id="line2d_90">
    <path d="M 181.973388 42.664159 
L 181.973388 40.512732 
L 194.24227 40.512732 
L 194.24227 42.664159 
" clip-path="url(#p4622d251ef)" style="fill: none; stroke: #333333; stroke-width: 1.5; stroke-linecap: square"/>
   </g>
   <g id="line2d_91">
    <path d="M 243.317796 40.38475 
L 243.317796 38.233323 
L 255.586678 38.233323 
L 255.586678 40.38475 
" clip-path="url(#p4622d251ef)" style="fill: none; stroke: #333333; stroke-width: 1.5; stroke-linecap: square"/>
   </g>
   <g id="line2d_92">
    <path d="M 41.003939 133.877053 
L 53.027443 133.877053 
" clip-path="url(#p4622d251ef)" style="fill: none; stroke: #3d3d3d; stroke-width: 1.5; stroke-linecap: square"/>
   </g>
   <g id="line2d_93">
    <path d="M 53.27282 74.074543 
L 65.296324 74.074543 
" clip-path="url(#p4622d251ef)" style="fill: none; stroke: #3d3d3d; stroke-width: 1.5; stroke-linecap: square"/>
   </g>
   <g id="line2d_94">
    <path d="M 65.541702 142.029278 
L 77.565206 142.029278 
" clip-path="url(#p4622d251ef)" style="fill: none; stroke: #3d3d3d; stroke-width: 1.5; stroke-linecap: square"/>
   </g>
   <g id="line2d_95">
    <path d="M 77.810584 89.077544 
L 89.834087 89.077544 
" clip-path="url(#p4622d251ef)" style="fill: none; stroke: #3d3d3d; stroke-width: 1.5; stroke-linecap: square"/>
   </g>
   <g id="line2d_96">
    <path d="M 102.348347 133.478553 
L 114.371851 133.478553 
" clip-path="url(#p4622d251ef)" style="fill: none; stroke: #3d3d3d; stroke-width: 1.5; stroke-linecap: square"/>
   </g>
   <g id="line2d_97">
    <path d="M 114.617228 73.866368 
L 126.640732 73.866368 
" clip-path="url(#p4622d251ef)" style="fill: none; stroke: #3d3d3d; stroke-width: 1.5; stroke-linecap: square"/>
   </g>
   <g id="line2d_98">
    <path d="M 126.88611 142.1267 
L 138.909614 142.1267 
" clip-path="url(#p4622d251ef)" style="fill: none; stroke: #3d3d3d; stroke-width: 1.5; stroke-linecap: square"/>
   </g>
   <g id="line2d_99">
    <path d="M 139.154991 90.691835 
L 151.178495 90.691835 
" clip-path="url(#p4622d251ef)" style="fill: none; stroke: #3d3d3d; stroke-width: 1.5; stroke-linecap: square"/>
   </g>
   <g id="line2d_100">
    <path d="M 163.692755 133.086374 
L 175.716259 133.086374 
" clip-path="url(#p4622d251ef)" style="fill: none; stroke: #3d3d3d; stroke-width: 1.5; stroke-linecap: square"/>
   </g>
   <g id="line2d_101">
    <path d="M 175.961636 62.505588 
L 187.98514 62.505588 
" clip-path="url(#p4622d251ef)" style="fill: none; stroke: #3d3d3d; stroke-width: 1.5; stroke-linecap: square"/>
   </g>
   <g id="line2d_102">
    <path d="M 188.230518 141.95121 
L 200.254022 141.95121 
" clip-path="url(#p4622d251ef)" style="fill: none; stroke: #3d3d3d; stroke-width: 1.5; stroke-linecap: square"/>
   </g>
   <g id="line2d_103">
    <path d="M 200.499399 87.584337 
L 212.522903 87.584337 
" clip-path="url(#p4622d251ef)" style="fill: none; stroke: #3d3d3d; stroke-width: 1.5; stroke-linecap: square"/>
   </g>
   <g id="line2d_104">
    <path d="M 225.037162 132.243451 
L 237.060666 132.243451 
" clip-path="url(#p4622d251ef)" style="fill: none; stroke: #3d3d3d; stroke-width: 1.5; stroke-linecap: square"/>
   </g>
   <g id="line2d_105">
    <path d="M 237.306044 61.507588 
L 249.329548 61.507588 
" clip-path="url(#p4622d251ef)" style="fill: none; stroke: #3d3d3d; stroke-width: 1.5; stroke-linecap: square"/>
   </g>
   <g id="line2d_106">
    <path d="M 249.574926 141.419501 
L 261.59843 141.419501 
" clip-path="url(#p4622d251ef)" style="fill: none; stroke: #3d3d3d; stroke-width: 1.5; stroke-linecap: square"/>
   </g>
   <g id="line2d_107">
    <path d="M 261.843807 91.043091 
L 273.867311 91.043091 
" clip-path="url(#p4622d251ef)" style="fill: none; stroke: #3d3d3d; stroke-width: 1.5; stroke-linecap: square"/>
   </g>
   <g id="patch_23">
    <path d="M 40.88125 147.191593 
L 40.88125 22.318125 
" style="fill: none; stroke: #000000; stroke-width: 0.8; stroke-linejoin: miter; stroke-linecap: square"/>
   </g>
   <g id="patch_24">
    <path d="M 273.99 147.191593 
L 273.99 22.318125 
" style="fill: none; stroke: #000000; stroke-width: 0.8; stroke-linejoin: miter; stroke-linecap: square"/>
   </g>
   <g id="patch_25">
    <path d="M 40.88125 147.191593 
L 273.99 147.191593 
" style="fill: none; stroke: #000000; stroke-width: 0.8; stroke-linejoin: miter; stroke-linecap: square"/>
   </g>
   <g id="patch_26">
    <path d="M 40.88125 22.318125 
L 273.99 22.318125 
" style="fill: none; stroke: #000000; stroke-width: 0.8; stroke-linejoin: miter; stroke-linecap: square"/>
   </g>
   <g id="PathCollection_1">
    <defs>
     <path id="C0_0_f12031472a" d="M 0 1.5 
C 0.397805 1.5 0.77937 1.341951 1.06066 1.06066 
C 1.341951 0.77937 1.5 0.397805 1.5 -0 
C 1.5 -0.397805 1.341951 -0.77937 1.06066 -1.06066 
C 0.77937 -1.341951 0.397805 -1.5 0 -1.5 
C -0.397805 -1.5 -0.77937 -1.341951 -1.06066 -1.06066 
C -1.341951 -0.77937 -1.5 -0.397805 -1.5 0 
C -1.5 0.397805 -1.341951 0.77937 -1.06066 1.06066 
C -0.77937 1.341951 -0.397805 1.5 0 1.5 
z
"/>
    </defs>
    <g clip-path="url(#p4622d251ef)">
     <use xlink:href="#C0_0_f12031472a" x="47.146799" y="133.536422" style="fill: #262626"/>
    </g>
    <g clip-path="url(#p4622d251ef)">
     <use xlink:href="#C0_0_f12031472a" x="46.049894" y="133.920364" style="fill: #262626"/>
    </g>
    <g clip-path="url(#p4622d251ef)">
     <use xlink:href="#C0_0_f12031472a" x="45.877294" y="133.439435" style="fill: #262626"/>
    </g>
    <g clip-path="url(#p4622d251ef)">
     <use xlink:href="#C0_0_f12031472a" x="46.610225" y="133.985405" style="fill: #262626"/>
    </g>
    <g clip-path="url(#p4622d251ef)">
     <use xlink:href="#C0_0_f12031472a" x="47.898951" y="133.877053" style="fill: #262626"/>
    </g>
   </g>
   <g id="PathCollection_2">
    <defs>
     <path id="C1_0_2f1aca2089" d="M 0 1.5 
C 0.397805 1.5 0.77937 1.341951 1.06066 1.06066 
C 1.341951 0.77937 1.5 0.397805 1.5 -0 
C 1.5 -0.397805 1.341951 -0.77937 1.06066 -1.06066 
C 0.77937 -1.341951 0.397805 -1.5 0 -1.5 
C -0.397805 -1.5 -0.77937 -1.341951 -1.06066 -1.06066 
C -1.341951 -0.77937 -1.5 -0.397805 -1.5 0 
C -1.5 0.397805 -1.341951 0.77937 -1.06066 1.06066 
C -0.77937 1.341951 -0.397805 1.5 0 1.5 
z
"/>
    </defs>
    <g clip-path="url(#p4622d251ef)">
     <use xlink:href="#C1_0_2f1aca2089" x="58.93445" y="60.983222" style="fill: #191919"/>
    </g>
    <g clip-path="url(#p4622d251ef)">
     <use xlink:href="#C1_0_2f1aca2089" x="58.391907" y="74.074543" style="fill: #191919"/>
    </g>
    <g clip-path="url(#p4622d251ef)">
     <use xlink:href="#C1_0_2f1aca2089" x="58.283516" y="60.005707" style="fill: #191919"/>
    </g>
    <g clip-path="url(#p4622d251ef)">
     <use xlink:href="#C1_0_2f1aca2089" x="58.74119" y="74.25471" style="fill: #191919"/>
    </g>
    <g clip-path="url(#p4622d251ef)">
     <use xlink:href="#C1_0_2f1aca2089" x="60.074704" y="77.792979" style="fill: #191919"/>
    </g>
   </g>
   <g id="PathCollection_3">
    <defs>
     <path id="C2_0_53aa0c44ca" d="M 0 1.5 
C 0.397805 1.5 0.77937 1.341951 1.06066 1.06066 
C 1.341951 0.77937 1.5 0.397805 1.5 -0 
C 1.5 -0.397805 1.341951 -0.77937 1.06066 -1.06066 
C 0.77937 -1.341951 0.397805 -1.5 0 -1.5 
C -0.397805 -1.5 -0.77937 -1.341951 -1.06066 -1.06066 
C -1.341951 -0.77937 -1.5 -0.397805 -1.5 0 
C -1.5 0.397805 -1.341951 0.77937 -1.06066 1.06066 
C -0.77937 1.341951 -0.397805 1.5 0 1.5 
z
"/>
    </defs>
    <g clip-path="url(#p4622d251ef)">
     <use xlink:href="#C2_0_53aa0c44ca" x="72.618521" y="142.123664" style="fill: #0d0d0d"/>
    </g>
    <g clip-path="url(#p4622d251ef)">
     <use xlink:href="#C2_0_53aa0c44ca" x="71.319562" y="142.004511" style="fill: #0d0d0d"/>
    </g>
    <g clip-path="url(#p4622d251ef)">
     <use xlink:href="#C2_0_53aa0c44ca" x="71.875091" y="141.9942" style="fill: #0d0d0d"/>
    </g>
    <g clip-path="url(#p4622d251ef)">
     <use xlink:href="#C2_0_53aa0c44ca" x="70.642899" y="142.029278" style="fill: #0d0d0d"/>
    </g>
    <g clip-path="url(#p4622d251ef)">
     <use xlink:href="#C2_0_53aa0c44ca" x="70.787199" y="142.301985" style="fill: #0d0d0d"/>
    </g>
   </g>
   <g id="PathCollection_4">
    <defs>
     <path id="C3_0_e67bd6a4ee" d="M 0 1.5 
C 0.397805 1.5 0.77937 1.341951 1.06066 1.06066 
C 1.341951 0.77937 1.5 0.397805 1.5 -0 
C 1.5 -0.397805 1.341951 -0.77937 1.06066 -1.06066 
C 0.77937 -1.341951 0.397805 -1.5 0 -1.5 
C -0.397805 -1.5 -0.77937 -1.341951 -1.06066 -1.06066 
C -1.341951 -0.77937 -1.5 -0.397805 -1.5 0 
C -1.5 0.397805 -1.341951 0.77937 -1.06066 1.06066 
C -0.77937 1.341951 -0.397805 1.5 0 1.5 
z
"/>
    </defs>
    <g clip-path="url(#p4622d251ef)">
     <use xlink:href="#C3_0_e67bd6a4ee" x="84.575536" y="70.342365"/>
    </g>
    <g clip-path="url(#p4622d251ef)">
     <use xlink:href="#C3_0_e67bd6a4ee" x="83.83996" y="89.077544"/>
    </g>
    <g clip-path="url(#p4622d251ef)">
     <use xlink:href="#C3_0_e67bd6a4ee" x="84.595122" y="76.229969"/>
    </g>
    <g clip-path="url(#p4622d251ef)">
     <use xlink:href="#C3_0_e67bd6a4ee" x="83.556993" y="97.418337"/>
    </g>
    <g clip-path="url(#p4622d251ef)">
     <use xlink:href="#C3_0_e67bd6a4ee" x="82.433359" y="94.088975"/>
    </g>
   </g>
   <g id="PathCollection_5">
    <defs>
     <path id="C4_0_617bf8cdfa" d="M 0 1.5 
C 0.397805 1.5 0.77937 1.341951 1.06066 1.06066 
C 1.341951 0.77937 1.5 0.397805 1.5 -0 
C 1.5 -0.397805 1.341951 -0.77937 1.06066 -1.06066 
C 0.77937 -1.341951 0.397805 -1.5 0 -1.5 
C -0.397805 -1.5 -0.77937 -1.341951 -1.06066 -1.06066 
C -1.341951 -0.77937 -1.5 -0.397805 -1.5 0 
C -1.5 0.397805 -1.341951 0.77937 -1.06066 1.06066 
C -0.77937 1.341951 -0.397805 1.5 0 1.5 
z
"/>
    </defs>
    <g clip-path="url(#p4622d251ef)">
     <use xlink:href="#C4_0_617bf8cdfa" x="107.749192" y="133.244301" style="fill: #262626"/>
    </g>
    <g clip-path="url(#p4622d251ef)">
     <use xlink:href="#C4_0_617bf8cdfa" x="108.168738" y="133.478553" style="fill: #262626"/>
    </g>
    <g clip-path="url(#p4622d251ef)">
     <use xlink:href="#C4_0_617bf8cdfa" x="108.174269" y="132.964213" style="fill: #262626"/>
    </g>
    <g clip-path="url(#p4622d251ef)">
     <use xlink:href="#C4_0_617bf8cdfa" x="107.260613" y="133.695056" style="fill: #262626"/>
    </g>
    <g clip-path="url(#p4622d251ef)">
     <use xlink:href="#C4_0_617bf8cdfa" x="108.718214" y="133.724872" style="fill: #262626"/>
    </g>
   </g>
   <g id="PathCollection_6">
    <defs>
     <path id="C5_0_ff5d8c9bd6" d="M 0 1.5 
C 0.397805 1.5 0.77937 1.341951 1.06066 1.06066 
C 1.341951 0.77937 1.5 0.397805 1.5 -0 
C 1.5 -0.397805 1.341951 -0.77937 1.06066 -1.06066 
C 0.77937 -1.341951 0.397805 -1.5 0 -1.5 
C -0.397805 -1.5 -0.77937 -1.341951 -1.06066 -1.06066 
C -1.341951 -0.77937 -1.5 -0.397805 -1.5 0 
C -1.5 0.397805 -1.341951 0.77937 -1.06066 1.06066 
C -0.77937 1.341951 -0.397805 1.5 0 1.5 
z
"/>
    </defs>
    <g clip-path="url(#p4622d251ef)">
     <use xlink:href="#C5_0_ff5d8c9bd6" x="119.565931" y="78.178676" style="fill: #191919"/>
    </g>
    <g clip-path="url(#p4622d251ef)">
     <use xlink:href="#C5_0_ff5d8c9bd6" x="120.751536" y="73.866368" style="fill: #191919"/>
    </g>
    <g clip-path="url(#p4622d251ef)">
     <use xlink:href="#C5_0_ff5d8c9bd6" x="121.674444" y="44.509842" style="fill: #191919"/>
    </g>
    <g clip-path="url(#p4622d251ef)">
     <use xlink:href="#C5_0_ff5d8c9bd6" x="119.856552" y="75.06072" style="fill: #191919"/>
    </g>
    <g clip-path="url(#p4622d251ef)">
     <use xlink:href="#C5_0_ff5d8c9bd6" x="121.548831" y="70.803025" style="fill: #191919"/>
    </g>
   </g>
   <g id="PathCollection_7">
    <defs>
     <path id="C6_0_fb69f6bae2" d="M 0 1.5 
C 0.397805 1.5 0.77937 1.341951 1.06066 1.06066 
C 1.341951 0.77937 1.5 0.397805 1.5 -0 
C 1.5 -0.397805 1.341951 -0.77937 1.06066 -1.06066 
C 0.77937 -1.341951 0.397805 -1.5 0 -1.5 
C -0.397805 -1.5 -0.77937 -1.341951 -1.06066 -1.06066 
C -1.341951 -0.77937 -1.5 -0.397805 -1.5 0 
C -1.5 0.397805 -1.341951 0.77937 -1.06066 1.06066 
C -0.77937 1.341951 -0.397805 1.5 0 1.5 
z
"/>
    </defs>
    <g clip-path="url(#p4622d251ef)">
     <use xlink:href="#C6_0_fb69f6bae2" x="133.818195" y="142.1267" style="fill: #0d0d0d"/>
    </g>
    <g clip-path="url(#p4622d251ef)">
     <use xlink:href="#C6_0_fb69f6bae2" x="131.888023" y="141.966159" style="fill: #0d0d0d"/>
    </g>
    <g clip-path="url(#p4622d251ef)">
     <use xlink:href="#C6_0_fb69f6bae2" x="132.164303" y="142.027465" style="fill: #0d0d0d"/>
    </g>
    <g clip-path="url(#p4622d251ef)">
     <use xlink:href="#C6_0_fb69f6bae2" x="133.305214" y="142.285792" style="fill: #0d0d0d"/>
    </g>
    <g clip-path="url(#p4622d251ef)">
     <use xlink:href="#C6_0_fb69f6bae2" x="132.451606" y="142.20556" style="fill: #0d0d0d"/>
    </g>
   </g>
   <g id="PathCollection_8">
    <defs>
     <path id="C7_0_8bdc7dddad" d="M 0 1.5 
C 0.397805 1.5 0.77937 1.341951 1.06066 1.06066 
C 1.341951 0.77937 1.5 0.397805 1.5 -0 
C 1.5 -0.397805 1.341951 -0.77937 1.06066 -1.06066 
C 0.77937 -1.341951 0.397805 -1.5 0 -1.5 
C -0.397805 -1.5 -0.77937 -1.341951 -1.06066 -1.06066 
C -1.341951 -0.77937 -1.5 -0.397805 -1.5 0 
C -1.5 0.397805 -1.341951 0.77937 -1.06066 1.06066 
C -0.77937 1.341951 -0.397805 1.5 0 1.5 
z
"/>
    </defs>
    <g clip-path="url(#p4622d251ef)">
     <use xlink:href="#C7_0_8bdc7dddad" x="146.67799" y="85.05936"/>
    </g>
    <g clip-path="url(#p4622d251ef)">
     <use xlink:href="#C7_0_8bdc7dddad" x="144.6137" y="91.711306"/>
    </g>
    <g clip-path="url(#p4622d251ef)">
     <use xlink:href="#C7_0_8bdc7dddad" x="144.74112" y="70.665762"/>
    </g>
    <g clip-path="url(#p4622d251ef)">
     <use xlink:href="#C7_0_8bdc7dddad" x="146.338048" y="95.069986"/>
    </g>
    <g clip-path="url(#p4622d251ef)">
     <use xlink:href="#C7_0_8bdc7dddad" x="144.612818" y="90.691835"/>
    </g>
   </g>
   <g id="PathCollection_9">
    <defs>
     <path id="C8_0_a8cb57b845" d="M 0 1.5 
C 0.397805 1.5 0.77937 1.341951 1.06066 1.06066 
C 1.341951 0.77937 1.5 0.397805 1.5 -0 
C 1.5 -0.397805 1.341951 -0.77937 1.06066 -1.06066 
C 0.77937 -1.341951 0.397805 -1.5 0 -1.5 
C -0.397805 -1.5 -0.77937 -1.341951 -1.06066 -1.06066 
C -1.341951 -0.77937 -1.5 -0.397805 -1.5 0 
C -1.5 0.397805 -1.341951 0.77937 -1.06066 1.06066 
C -0.77937 1.341951 -0.397805 1.5 0 1.5 
z
"/>
    </defs>
    <g clip-path="url(#p4622d251ef)">
     <use xlink:href="#C8_0_a8cb57b845" x="170.587672" y="132.845428" style="fill: #262626"/>
    </g>
    <g clip-path="url(#p4622d251ef)">
     <use xlink:href="#C8_0_a8cb57b845" x="169.032748" y="133.086374" style="fill: #262626"/>
    </g>
    <g clip-path="url(#p4622d251ef)">
     <use xlink:href="#C8_0_a8cb57b845" x="169.001955" y="132.943375" style="fill: #262626"/>
    </g>
    <g clip-path="url(#p4622d251ef)">
     <use xlink:href="#C8_0_a8cb57b845" x="169.11696" y="133.553413" style="fill: #262626"/>
    </g>
    <g clip-path="url(#p4622d251ef)">
     <use xlink:href="#C8_0_a8cb57b845" x="168.764052" y="133.421553" style="fill: #262626"/>
    </g>
   </g>
   <g id="PathCollection_10">
    <defs>
     <path id="C9_0_1da682b95e" d="M 0 1.5 
C 0.397805 1.5 0.77937 1.341951 1.06066 1.06066 
C 1.341951 0.77937 1.5 0.397805 1.5 -0 
C 1.5 -0.397805 1.341951 -0.77937 1.06066 -1.06066 
C 0.77937 -1.341951 0.397805 -1.5 0 -1.5 
C -0.397805 -1.5 -0.77937 -1.341951 -1.06066 -1.06066 
C -1.341951 -0.77937 -1.5 -0.397805 -1.5 0 
C -1.5 0.397805 -1.341951 0.77937 -1.06066 1.06066 
C -0.77937 1.341951 -0.397805 1.5 0 1.5 
z
"/>
    </defs>
    <g clip-path="url(#p4622d251ef)">
     <use xlink:href="#C9_0_1da682b95e" x="182.743835" y="49.118441" style="fill: #191919"/>
    </g>
    <g clip-path="url(#p4622d251ef)">
     <use xlink:href="#C9_0_1da682b95e" x="182.0235" y="69.459427" style="fill: #191919"/>
    </g>
    <g clip-path="url(#p4622d251ef)">
     <use xlink:href="#C9_0_1da682b95e" x="180.440991" y="56.705128" style="fill: #191919"/>
    </g>
    <g clip-path="url(#p4622d251ef)">
     <use xlink:href="#C9_0_1da682b95e" x="183.399117" y="62.596057" style="fill: #191919"/>
    </g>
    <g clip-path="url(#p4622d251ef)">
     <use xlink:href="#C9_0_1da682b95e" x="182.160776" y="62.505588" style="fill: #191919"/>
    </g>
   </g>
   <g id="PathCollection_11">
    <defs>
     <path id="Ca_0_2ca9424a03" d="M 0 1.5 
C 0.397805 1.5 0.77937 1.341951 1.06066 1.06066 
C 1.341951 0.77937 1.5 0.397805 1.5 -0 
C 1.5 -0.397805 1.341951 -0.77937 1.06066 -1.06066 
C 0.77937 -1.341951 0.397805 -1.5 0 -1.5 
C -0.397805 -1.5 -0.77937 -1.341951 -1.06066 -1.06066 
C -1.341951 -0.77937 -1.5 -0.397805 -1.5 0 
C -1.5 0.397805 -1.341951 0.77937 -1.06066 1.06066 
C -0.77937 1.341951 -0.397805 1.5 0 1.5 
z
"/>
    </defs>
    <g clip-path="url(#p4622d251ef)">
     <use xlink:href="#Ca_0_2ca9424a03" x="194.571453" y="141.95121" style="fill: #0d0d0d"/>
    </g>
    <g clip-path="url(#p4622d251ef)">
     <use xlink:href="#Ca_0_2ca9424a03" x="194.233016" y="141.919294" style="fill: #0d0d0d"/>
    </g>
    <g clip-path="url(#p4622d251ef)">
     <use xlink:href="#Ca_0_2ca9424a03" x="194.97464" y="141.893703" style="fill: #0d0d0d"/>
    </g>
    <g clip-path="url(#p4622d251ef)">
     <use xlink:href="#Ca_0_2ca9424a03" x="195.386102" y="142.089491" style="fill: #0d0d0d"/>
    </g>
    <g clip-path="url(#p4622d251ef)">
     <use xlink:href="#Ca_0_2ca9424a03" x="195.029665" y="142.092667" style="fill: #0d0d0d"/>
    </g>
   </g>
   <g id="PathCollection_12">
    <defs>
     <path id="Cb_0_d354d1d946" d="M 0 1.5 
C 0.397805 1.5 0.77937 1.341951 1.06066 1.06066 
C 1.341951 0.77937 1.5 0.397805 1.5 -0 
C 1.5 -0.397805 1.341951 -0.77937 1.06066 -1.06066 
C 0.77937 -1.341951 0.397805 -1.5 0 -1.5 
C -0.397805 -1.5 -0.77937 -1.341951 -1.06066 -1.06066 
C -1.341951 -0.77937 -1.5 -0.397805 -1.5 0 
C -1.5 0.397805 -1.341951 0.77937 -1.06066 1.06066 
C -0.77937 1.341951 -0.397805 1.5 0 1.5 
z
"/>
    </defs>
    <g clip-path="url(#p4622d251ef)">
     <use xlink:href="#Cb_0_d354d1d946" x="206.236745" y="72.90265"/>
    </g>
    <g clip-path="url(#p4622d251ef)">
     <use xlink:href="#Cb_0_d354d1d946" x="207.837305" y="93.561468"/>
    </g>
    <g clip-path="url(#p4622d251ef)">
     <use xlink:href="#Cb_0_d354d1d946" x="207.593296" y="72.022755"/>
    </g>
    <g clip-path="url(#p4622d251ef)">
     <use xlink:href="#Cb_0_d354d1d946" x="206.627965" y="90.84238"/>
    </g>
    <g clip-path="url(#p4622d251ef)">
     <use xlink:href="#Cb_0_d354d1d946" x="205.848445" y="87.584337"/>
    </g>
   </g>
   <g id="PathCollection_13">
    <defs>
     <path id="Cc_0_26338014e1" d="M 0 1.5 
C 0.397805 1.5 0.77937 1.341951 1.06066 1.06066 
C 1.341951 0.77937 1.5 0.397805 1.5 -0 
C 1.5 -0.397805 1.341951 -0.77937 1.06066 -1.06066 
C 0.77937 -1.341951 0.397805 -1.5 0 -1.5 
C -0.397805 -1.5 -0.77937 -1.341951 -1.06066 -1.06066 
C -1.341951 -0.77937 -1.5 -0.397805 -1.5 0 
C -1.5 0.397805 -1.341951 0.77937 -1.06066 1.06066 
C -0.77937 1.341951 -0.397805 1.5 0 1.5 
z
"/>
    </defs>
    <g clip-path="url(#p4622d251ef)">
     <use xlink:href="#Cc_0_26338014e1" x="232.577357" y="132.104426" style="fill: #262626"/>
    </g>
    <g clip-path="url(#p4622d251ef)">
     <use xlink:href="#Cc_0_26338014e1" x="230.863686" y="132.692792" style="fill: #262626"/>
    </g>
    <g clip-path="url(#p4622d251ef)">
     <use xlink:href="#Cc_0_26338014e1" x="231.374109" y="131.892615" style="fill: #262626"/>
    </g>
    <g clip-path="url(#p4622d251ef)">
     <use xlink:href="#Cc_0_26338014e1" x="230.663438" y="132.243451" style="fill: #262626"/>
    </g>
    <g clip-path="url(#p4622d251ef)">
     <use xlink:href="#Cc_0_26338014e1" x="232.572805" y="132.625541" style="fill: #262626"/>
    </g>
   </g>
   <g id="PathCollection_14">
    <defs>
     <path id="Cd_0_131339980c" d="M 0 1.5 
C 0.397805 1.5 0.77937 1.341951 1.06066 1.06066 
C 1.341951 0.77937 1.5 0.397805 1.5 -0 
C 1.5 -0.397805 1.341951 -0.77937 1.06066 -1.06066 
C 0.77937 -1.341951 0.397805 -1.5 0 -1.5 
C -0.397805 -1.5 -0.77937 -1.341951 -1.06066 -1.06066 
C -1.341951 -0.77937 -1.5 -0.397805 -1.5 0 
C -1.5 0.397805 -1.341951 0.77937 -1.06066 1.06066 
C -0.77937 1.341951 -0.397805 1.5 0 1.5 
z
"/>
    </defs>
    <g clip-path="url(#p4622d251ef)">
     <use xlink:href="#Cd_0_131339980c" x="242.480836" y="48.455965" style="fill: #191919"/>
    </g>
    <g clip-path="url(#p4622d251ef)">
     <use xlink:href="#Cd_0_131339980c" x="242.062786" y="61.507588" style="fill: #191919"/>
    </g>
    <g clip-path="url(#p4622d251ef)">
     <use xlink:href="#Cd_0_131339980c" x="243.099204" y="58.28767" style="fill: #191919"/>
    </g>
    <g clip-path="url(#p4622d251ef)">
     <use xlink:href="#Cd_0_131339980c" x="244.001801" y="64.705974" style="fill: #191919"/>
    </g>
    <g clip-path="url(#p4622d251ef)">
     <use xlink:href="#Cd_0_131339980c" x="243.118585" y="63.340206" style="fill: #191919"/>
    </g>
   </g>
   <g id="PathCollection_15">
    <defs>
     <path id="Ce_0_57abe93182" d="M 0 1.5 
C 0.397805 1.5 0.77937 1.341951 1.06066 1.06066 
C 1.341951 0.77937 1.5 0.397805 1.5 -0 
C 1.5 -0.397805 1.341951 -0.77937 1.06066 -1.06066 
C 0.77937 -1.341951 0.397805 -1.5 0 -1.5 
C -0.397805 -1.5 -0.77937 -1.341951 -1.06066 -1.06066 
C -1.341951 -0.77937 -1.5 -0.397805 -1.5 0 
C -1.5 0.397805 -1.341951 0.77937 -1.06066 1.06066 
C -0.77937 1.341951 -0.397805 1.5 0 1.5 
z
"/>
    </defs>
    <g clip-path="url(#p4622d251ef)">
     <use xlink:href="#Ce_0_57abe93182" x="255.446034" y="141.096138" style="fill: #0d0d0d"/>
    </g>
    <g clip-path="url(#p4622d251ef)">
     <use xlink:href="#Ce_0_57abe93182" x="256.346534" y="141.482103" style="fill: #0d0d0d"/>
    </g>
    <g clip-path="url(#p4622d251ef)">
     <use xlink:href="#Ce_0_57abe93182" x="254.651198" y="141.402185" style="fill: #0d0d0d"/>
    </g>
    <g clip-path="url(#p4622d251ef)">
     <use xlink:href="#Ce_0_57abe93182" x="255.340988" y="141.627486" style="fill: #0d0d0d"/>
    </g>
    <g clip-path="url(#p4622d251ef)">
     <use xlink:href="#Ce_0_57abe93182" x="256.586046" y="141.419501" style="fill: #0d0d0d"/>
    </g>
   </g>
   <g id="PathCollection_16">
    <defs>
     <path id="Cf_0_c8b47a57ac" d="M 0 1.5 
C 0.397805 1.5 0.77937 1.341951 1.06066 1.06066 
C 1.341951 0.77937 1.5 0.397805 1.5 -0 
C 1.5 -0.397805 1.341951 -0.77937 1.06066 -1.06066 
C 0.77937 -1.341951 0.397805 -1.5 0 -1.5 
C -0.397805 -1.5 -0.77937 -1.341951 -1.06066 -1.06066 
C -1.341951 -0.77937 -1.5 -0.397805 -1.5 0 
C -1.5 0.397805 -1.341951 0.77937 -1.06066 1.06066 
C -0.77937 1.341951 -0.397805 1.5 0 1.5 
z
"/>
    </defs>
    <g clip-path="url(#p4622d251ef)">
     <use xlink:href="#Cf_0_c8b47a57ac" x="266.743615" y="79.762095"/>
    </g>
    <g clip-path="url(#p4622d251ef)">
     <use xlink:href="#Cf_0_c8b47a57ac" x="269.369776" y="93.865831"/>
    </g>
    <g clip-path="url(#p4622d251ef)">
     <use xlink:href="#Cf_0_c8b47a57ac" x="267.729669" y="70.719653"/>
    </g>
    <g clip-path="url(#p4622d251ef)">
     <use xlink:href="#Cf_0_c8b47a57ac" x="268.838295" y="92.757401"/>
    </g>
    <g clip-path="url(#p4622d251ef)">
     <use xlink:href="#Cf_0_c8b47a57ac" x="267.432534" y="91.043091"/>
    </g>
   </g>
   <g id="text_10">
    <!-- * -->
    <g transform="translate(62.919013 48.320311) scale(0.1 -0.1)">
     <defs>
      <path id="DejaVuSans-2a" d="M 3009 3897 
L 1888 3291 
L 3009 2681 
L 2828 2375 
L 1778 3009 
L 1778 1831 
L 1422 1831 
L 1422 3009 
L 372 2375 
L 191 2681 
L 1313 3291 
L 191 3897 
L 372 4206 
L 1422 3572 
L 1422 4750 
L 1778 4750 
L 1778 3572 
L 2828 4206 
L 3009 3897 
z
" transform="scale(0.015625)"/>
     </defs>
     <use xlink:href="#DejaVuSans-2a"/>
    </g>
   </g>
   <g id="text_11">
    <!-- * -->
    <g transform="translate(124.263421 31.207513) scale(0.1 -0.1)">
     <use xlink:href="#DejaVuSans-2a"/>
    </g>
   </g>
   <g id="text_12">
    <!-- * -->
    <g transform="translate(185.607829 37.433045) scale(0.1 -0.1)">
     <use xlink:href="#DejaVuSans-2a"/>
    </g>
   </g>
   <g id="text_13">
    <!-- * -->
    <g transform="translate(246.952237 35.153636) scale(0.1 -0.1)">
     <use xlink:href="#DejaVuSans-2a"/>
    </g>
   </g>
   <g id="text_14">
    <!-- emotions -->
    <g transform="translate(129.609687 16.318125) scale(0.12 -0.12)">
     <use xlink:href="#DejaVuSans-65"/>
     <use xlink:href="#DejaVuSans-6d" x="61.523438"/>
     <use xlink:href="#DejaVuSans-6f" x="158.935547"/>
     <use xlink:href="#DejaVuSans-74" x="220.117188"/>
     <use xlink:href="#DejaVuSans-69" x="259.326172"/>
     <use xlink:href="#DejaVuSans-6f" x="287.109375"/>
     <use xlink:href="#DejaVuSans-6e" x="348.291016"/>
     <use xlink:href="#DejaVuSans-73" x="411.669922"/>
    </g>
   </g>
   <g id="legend_1">
    <g id="patch_27">
     <path d="M 280.99 142.191593 
L 400.79625 142.191593 
Q 402.79625 142.191593 402.79625 140.191593 
L 402.79625 81.922843 
Q 402.79625 79.922843 400.79625 79.922843 
L 280.99 79.922843 
Q 278.99 79.922843 278.99 81.922843 
L 278.99 140.191593 
Q 278.99 142.191593 280.99 142.191593 
z
" style="fill: #ffffff; opacity: 0.8; stroke: #cccccc; stroke-linejoin: miter"/>
    </g>
    <g id="patch_28">
     <path d="M 282.99 91.52128 
L 302.99 91.52128 
L 302.99 84.52128 
L 282.99 84.52128 
z
" style="fill: #3274a1; stroke: #3d3d3d; stroke-width: 0.75; stroke-linejoin: miter"/>
    </g>
    <g id="text_15">
     <!-- proba_weak -->
     <g transform="translate(310.99 91.52128) scale(0.1 -0.1)">
      <defs>
       <path id="DejaVuSans-62" d="M 3116 1747 
Q 3116 2381 2855 2742 
Q 2594 3103 2138 3103 
Q 1681 3103 1420 2742 
Q 1159 2381 1159 1747 
Q 1159 1113 1420 752 
Q 1681 391 2138 391 
Q 2594 391 2855 752 
Q 3116 1113 3116 1747 
z
M 1159 2969 
Q 1341 3281 1617 3432 
Q 1894 3584 2278 3584 
Q 2916 3584 3314 3078 
Q 3713 2572 3713 1747 
Q 3713 922 3314 415 
Q 2916 -91 2278 -91 
Q 1894 -91 1617 61 
Q 1341 213 1159 525 
L 1159 0 
L 581 0 
L 581 4863 
L 1159 4863 
L 1159 2969 
z
" transform="scale(0.015625)"/>
       <path id="DejaVuSans-77" d="M 269 3500 
L 844 3500 
L 1563 769 
L 2278 3500 
L 2956 3500 
L 3675 769 
L 4391 3500 
L 4966 3500 
L 4050 0 
L 3372 0 
L 2619 2869 
L 1863 0 
L 1184 0 
L 269 3500 
z
" transform="scale(0.015625)"/>
       <path id="DejaVuSans-6b" d="M 581 4863 
L 1159 4863 
L 1159 1991 
L 2875 3500 
L 3609 3500 
L 1753 1863 
L 3688 0 
L 2938 0 
L 1159 1709 
L 1159 0 
L 581 0 
L 581 4863 
z
" transform="scale(0.015625)"/>
      </defs>
      <use xlink:href="#DejaVuSans-70"/>
      <use xlink:href="#DejaVuSans-72" x="63.476562"/>
      <use xlink:href="#DejaVuSans-6f" x="102.339844"/>
      <use xlink:href="#DejaVuSans-62" x="163.521484"/>
      <use xlink:href="#DejaVuSans-61" x="226.998047"/>
      <use xlink:href="#DejaVuSans-5f" x="288.277344"/>
      <use xlink:href="#DejaVuSans-77" x="338.277344"/>
      <use xlink:href="#DejaVuSans-65" x="420.064453"/>
      <use xlink:href="#DejaVuSans-61" x="481.587891"/>
      <use xlink:href="#DejaVuSans-6b" x="542.867188"/>
     </g>
    </g>
    <g id="patch_29">
     <path d="M 282.99 106.47753 
L 302.99 106.47753 
L 302.99 99.47753 
L 282.99 99.47753 
z
" style="fill: #e1812c; stroke: #3d3d3d; stroke-width: 0.75; stroke-linejoin: miter"/>
    </g>
    <g id="text_16">
     <!-- embedding_weak -->
     <g transform="translate(310.99 106.47753) scale(0.1 -0.1)">
      <defs>
       <path id="DejaVuSans-67" d="M 2906 1791 
Q 2906 2416 2648 2759 
Q 2391 3103 1925 3103 
Q 1463 3103 1205 2759 
Q 947 2416 947 1791 
Q 947 1169 1205 825 
Q 1463 481 1925 481 
Q 2391 481 2648 825 
Q 2906 1169 2906 1791 
z
M 3481 434 
Q 3481 -459 3084 -895 
Q 2688 -1331 1869 -1331 
Q 1566 -1331 1297 -1286 
Q 1028 -1241 775 -1147 
L 775 -588 
Q 1028 -725 1275 -790 
Q 1522 -856 1778 -856 
Q 2344 -856 2625 -561 
Q 2906 -266 2906 331 
L 2906 616 
Q 2728 306 2450 153 
Q 2172 0 1784 0 
Q 1141 0 747 490 
Q 353 981 353 1791 
Q 353 2603 747 3093 
Q 1141 3584 1784 3584 
Q 2172 3584 2450 3431 
Q 2728 3278 2906 2969 
L 2906 3500 
L 3481 3500 
L 3481 434 
z
" transform="scale(0.015625)"/>
      </defs>
      <use xlink:href="#DejaVuSans-65"/>
      <use xlink:href="#DejaVuSans-6d" x="61.523438"/>
      <use xlink:href="#DejaVuSans-62" x="158.935547"/>
      <use xlink:href="#DejaVuSans-65" x="222.412109"/>
      <use xlink:href="#DejaVuSans-64" x="283.935547"/>
      <use xlink:href="#DejaVuSans-64" x="347.412109"/>
      <use xlink:href="#DejaVuSans-69" x="410.888672"/>
      <use xlink:href="#DejaVuSans-6e" x="438.671875"/>
      <use xlink:href="#DejaVuSans-67" x="502.050781"/>
      <use xlink:href="#DejaVuSans-5f" x="565.527344"/>
      <use xlink:href="#DejaVuSans-77" x="615.527344"/>
      <use xlink:href="#DejaVuSans-65" x="697.314453"/>
      <use xlink:href="#DejaVuSans-61" x="758.837891"/>
      <use xlink:href="#DejaVuSans-6b" x="820.117188"/>
     </g>
    </g>
    <g id="patch_30">
     <path d="M 282.99 121.43378 
L 302.99 121.43378 
L 302.99 114.43378 
L 282.99 114.43378 
z
" style="fill: #3a923a; stroke: #3d3d3d; stroke-width: 0.75; stroke-linejoin: miter"/>
    </g>
    <g id="text_17">
     <!-- proba -->
     <g transform="translate(310.99 121.43378) scale(0.1 -0.1)">
      <use xlink:href="#DejaVuSans-70"/>
      <use xlink:href="#DejaVuSans-72" x="63.476562"/>
      <use xlink:href="#DejaVuSans-6f" x="102.339844"/>
      <use xlink:href="#DejaVuSans-62" x="163.521484"/>
      <use xlink:href="#DejaVuSans-61" x="226.998047"/>
     </g>
    </g>
    <g id="patch_31">
     <path d="M 282.99 136.111905 
L 302.99 136.111905 
L 302.99 129.111905 
L 282.99 129.111905 
z
" style="fill: #c03d3e; stroke: #3d3d3d; stroke-width: 0.75; stroke-linejoin: miter"/>
    </g>
    <g id="text_18">
     <!-- embedding -->
     <g transform="translate(310.99 136.111905) scale(0.1 -0.1)">
      <use xlink:href="#DejaVuSans-65"/>
      <use xlink:href="#DejaVuSans-6d" x="61.523438"/>
      <use xlink:href="#DejaVuSans-62" x="158.935547"/>
      <use xlink:href="#DejaVuSans-65" x="222.412109"/>
      <use xlink:href="#DejaVuSans-64" x="283.935547"/>
      <use xlink:href="#DejaVuSans-64" x="347.412109"/>
      <use xlink:href="#DejaVuSans-69" x="410.888672"/>
      <use xlink:href="#DejaVuSans-6e" x="438.671875"/>
      <use xlink:href="#DejaVuSans-67" x="502.050781"/>
     </g>
    </g>
   </g>
  </g>
 </g>
 <defs>
  <clipPath id="p4622d251ef">
   <rect x="40.88125" y="22.318125" width="233.10875" height="124.873468"/>
  </clipPath>
 </defs>
</svg>
