<?xml version="1.0" encoding="utf-8" standalone="no"?>
<!DOCTYPE svg PUBLIC "-//W3C//DTD SVG 1.1//EN"
  "http://www.w3.org/Graphics/SVG/1.1/DTD/svg11.dtd">
<svg xmlns:xlink="http://www.w3.org/1999/xlink" width="410.12125pt" height="207.241673pt" viewBox="0 0 410.12125 207.241673" xmlns="http://www.w3.org/2000/svg" version="1.1">
 <metadata>
  <rdf:RDF xmlns:dc="http://purl.org/dc/elements/1.1/" xmlns:cc="http://creativecommons.org/ns#" xmlns:rdf="http://www.w3.org/1999/02/22-rdf-syntax-ns#">
   <cc:Work>
    <dc:type rdf:resource="http://purl.org/dc/dcmitype/StillImage"/>
    <dc:date>2023-06-23T11:36:20.316112</dc:date>
    <dc:format>image/svg+xml</dc:format>
    <dc:creator>
     <cc:Agent>
      <dc:title>Matplotlib v3.7.1, https://matplotlib.org/</dc:title>
     </cc:Agent>
    </dc:creator>
   </cc:Work>
  </rdf:RDF>
 </metadata>
 <defs>
  <style type="text/css">*{stroke-linejoin: round; stroke-linecap: butt}</style>
 </defs>
 <g id="figure_1">
  <g id="patch_1">
   <path d="M -0 207.241673 
L 410.12125 207.241673 
L 410.12125 0 
L -0 0 
L -0 207.241673 
z
" style="fill: none"/>
  </g>
  <g id="axes_1">
   <g id="patch_2">
    <path d="M 53.60625 147.191593 
L 274.115 147.191593 
L 274.115 22.318125 
L 53.60625 22.318125 
L 53.60625 147.191593 
z
" style="fill: none"/>
   </g>
   <g id="patch_3">
    <path d="M 53.722307 137.741337 
L 65.095916 137.741337 
L 65.095916 137.38332 
L 53.722307 137.38332 
L 53.722307 137.741337 
z
" clip-path="url(#p5de44a27fb)" style="fill: #3274a1; stroke: #3d3d3d; stroke-width: 1.5; stroke-linejoin: miter"/>
   </g>
   <g id="patch_4">
    <path d="M 65.328031 97.784709 
L 76.70164 97.784709 
L 76.70164 90.025036 
L 65.328031 90.025036 
L 65.328031 97.784709 
z
" clip-path="url(#p5de44a27fb)" style="fill: #e1812c; stroke: #3d3d3d; stroke-width: 1.5; stroke-linejoin: miter"/>
   </g>
   <g id="patch_5">
    <path d="M 76.933755 142.172176 
L 88.307364 142.172176 
L 88.307364 141.946331 
L 76.933755 141.946331 
L 76.933755 142.172176 
z
" clip-path="url(#p5de44a27fb)" style="fill: #3a923a; stroke: #3d3d3d; stroke-width: 1.5; stroke-linejoin: miter"/>
   </g>
   <g id="patch_6">
    <path d="M 88.539478 111.385792 
L 99.913087 111.385792 
L 99.913087 103.718471 
L 88.539478 103.718471 
L 88.539478 111.385792 
z
" clip-path="url(#p5de44a27fb)" style="fill: #c03d3e; stroke: #3d3d3d; stroke-width: 1.5; stroke-linejoin: miter"/>
   </g>
   <g id="patch_7">
    <path d="M 111.750926 137.61761 
L 123.124535 137.61761 
L 123.124535 137.213202 
L 111.750926 137.213202 
L 111.750926 137.61761 
z
" clip-path="url(#p5de44a27fb)" style="fill: #3274a1; stroke: #3d3d3d; stroke-width: 1.5; stroke-linejoin: miter"/>
   </g>
   <g id="patch_8">
    <path d="M 123.356649 92.471591 
L 134.730259 92.471591 
L 134.730259 88.127229 
L 123.356649 88.127229 
L 123.356649 92.471591 
z
" clip-path="url(#p5de44a27fb)" style="fill: #e1812c; stroke: #3d3d3d; stroke-width: 1.5; stroke-linejoin: miter"/>
   </g>
   <g id="patch_9">
    <path d="M 134.962373 142.004704 
L 146.335982 142.004704 
L 146.335982 141.916549 
L 134.962373 141.916549 
L 134.962373 142.004704 
z
" clip-path="url(#p5de44a27fb)" style="fill: #3a923a; stroke: #3d3d3d; stroke-width: 1.5; stroke-linejoin: miter"/>
   </g>
   <g id="patch_10">
    <path d="M 146.568097 107.409546 
L 157.941706 107.409546 
L 157.941706 102.029483 
L 146.568097 102.029483 
L 146.568097 107.409546 
z
" clip-path="url(#p5de44a27fb)" style="fill: #c03d3e; stroke: #3d3d3d; stroke-width: 1.5; stroke-linejoin: miter"/>
   </g>
   <g id="patch_11">
    <path d="M 169.779544 137.628367 
L 181.153153 137.628367 
L 181.153153 137.322596 
L 169.779544 137.322596 
L 169.779544 137.628367 
z
" clip-path="url(#p5de44a27fb)" style="fill: #3274a1; stroke: #3d3d3d; stroke-width: 1.5; stroke-linejoin: miter"/>
   </g>
   <g id="patch_12">
    <path d="M 181.385268 94.626073 
L 192.758877 94.626073 
L 192.758877 84.596321 
L 181.385268 84.596321 
L 181.385268 94.626073 
z
" clip-path="url(#p5de44a27fb)" style="fill: #e1812c; stroke: #3d3d3d; stroke-width: 1.5; stroke-linejoin: miter"/>
   </g>
   <g id="patch_13">
    <path d="M 192.990991 142.071251 
L 204.364601 142.071251 
L 204.364601 141.996093 
L 192.990991 141.996093 
L 192.990991 142.071251 
z
" clip-path="url(#p5de44a27fb)" style="fill: #3a923a; stroke: #3d3d3d; stroke-width: 1.5; stroke-linejoin: miter"/>
   </g>
   <g id="patch_14">
    <path d="M 204.596715 105.62367 
L 215.970324 105.62367 
L 215.970324 102.955883 
L 204.596715 102.955883 
L 204.596715 105.62367 
z
" clip-path="url(#p5de44a27fb)" style="fill: #c03d3e; stroke: #3d3d3d; stroke-width: 1.5; stroke-linejoin: miter"/>
   </g>
   <g id="patch_15">
    <path d="M 227.808162 138.002743 
L 239.181772 138.002743 
L 239.181772 137.754804 
L 227.808162 137.754804 
L 227.808162 138.002743 
z
" clip-path="url(#p5de44a27fb)" style="fill: #3274a1; stroke: #3d3d3d; stroke-width: 1.5; stroke-linejoin: miter"/>
   </g>
   <g id="patch_16">
    <path d="M 239.413886 59.189106 
L 250.787495 59.189106 
L 250.787495 49.402974 
L 239.413886 49.402974 
L 239.413886 59.189106 
z
" clip-path="url(#p5de44a27fb)" style="fill: #e1812c; stroke: #3d3d3d; stroke-width: 1.5; stroke-linejoin: miter"/>
   </g>
   <g id="patch_17">
    <path d="M 251.01961 142.221269 
L 262.393219 142.221269 
L 262.393219 142.09304 
L 251.01961 142.09304 
L 251.01961 142.221269 
z
" clip-path="url(#p5de44a27fb)" style="fill: #3a923a; stroke: #3d3d3d; stroke-width: 1.5; stroke-linejoin: miter"/>
   </g>
   <g id="patch_18">
    <path d="M 262.625334 101.83199 
L 273.998943 101.83199 
L 273.998943 93.430922 
L 262.625334 93.430922 
L 262.625334 101.83199 
z
" clip-path="url(#p5de44a27fb)" style="fill: #c03d3e; stroke: #3d3d3d; stroke-width: 1.5; stroke-linejoin: miter"/>
   </g>
   <g id="patch_19">
    <path d="M 76.817697 146.028436 
L 76.817697 146.028436 
L 76.817697 146.028436 
L 76.817697 146.028436 
z
" clip-path="url(#p5de44a27fb)" style="fill: #3274a1; stroke: #3d3d3d; stroke-width: 0.75; stroke-linejoin: miter"/>
   </g>
   <g id="patch_20">
    <path d="M 76.817697 146.028436 
L 76.817697 146.028436 
L 76.817697 146.028436 
L 76.817697 146.028436 
z
" clip-path="url(#p5de44a27fb)" style="fill: #e1812c; stroke: #3d3d3d; stroke-width: 0.75; stroke-linejoin: miter"/>
   </g>
   <g id="patch_21">
    <path d="M 76.817697 146.028436 
L 76.817697 146.028436 
L 76.817697 146.028436 
L 76.817697 146.028436 
z
" clip-path="url(#p5de44a27fb)" style="fill: #3a923a; stroke: #3d3d3d; stroke-width: 0.75; stroke-linejoin: miter"/>
   </g>
   <g id="patch_22">
    <path d="M 76.817697 146.028436 
L 76.817697 146.028436 
L 76.817697 146.028436 
L 76.817697 146.028436 
z
" clip-path="url(#p5de44a27fb)" style="fill: #c03d3e; stroke: #3d3d3d; stroke-width: 0.75; stroke-linejoin: miter"/>
   </g>
   <g id="matplotlib.axis_1">
    <g id="xtick_1">
     <g id="line2d_1">
      <defs>
       <path id="m2497068c1c" d="M 0 0 
L 0 3.5 
" style="stroke: #000000; stroke-width: 0.8"/>
      </defs>
      <g>
       <use xlink:href="#m2497068c1c" x="76.817697" y="147.191593" style="stroke: #000000; stroke-width: 0.8"/>
      </g>
     </g>
     <g id="text_1">
      <!-- none -->
      <g transform="translate(57.707032 177.204604) rotate(-45) scale(0.1 -0.1)">
       <defs>
        <path id="DejaVuSans-6e" d="M 3513 2113 
L 3513 0 
L 2938 0 
L 2938 2094 
Q 2938 2591 2744 2837 
Q 2550 3084 2163 3084 
Q 1697 3084 1428 2787 
Q 1159 2491 1159 1978 
L 1159 0 
L 581 0 
L 581 3500 
L 1159 3500 
L 1159 2956 
Q 1366 3272 1645 3428 
Q 1925 3584 2291 3584 
Q 2894 3584 3203 3211 
Q 3513 2838 3513 2113 
z
" transform="scale(0.015625)"/>
        <path id="DejaVuSans-6f" d="M 1959 3097 
Q 1497 3097 1228 2736 
Q 959 2375 959 1747 
Q 959 1119 1226 758 
Q 1494 397 1959 397 
Q 2419 397 2687 759 
Q 2956 1122 2956 1747 
Q 2956 2369 2687 2733 
Q 2419 3097 1959 3097 
z
M 1959 3584 
Q 2709 3584 3137 3096 
Q 3566 2609 3566 1747 
Q 3566 888 3137 398 
Q 2709 -91 1959 -91 
Q 1206 -91 779 398 
Q 353 888 353 1747 
Q 353 2609 779 3096 
Q 1206 3584 1959 3584 
z
" transform="scale(0.015625)"/>
        <path id="DejaVuSans-65" d="M 3597 1894 
L 3597 1613 
L 953 1613 
Q 991 1019 1311 708 
Q 1631 397 2203 397 
Q 2534 397 2845 478 
Q 3156 559 3463 722 
L 3463 178 
Q 3153 47 2828 -22 
Q 2503 -91 2169 -91 
Q 1331 -91 842 396 
Q 353 884 353 1716 
Q 353 2575 817 3079 
Q 1281 3584 2069 3584 
Q 2775 3584 3186 3129 
Q 3597 2675 3597 1894 
z
M 3022 2063 
Q 3016 2534 2758 2815 
Q 2500 3097 2075 3097 
Q 1594 3097 1305 2825 
Q 1016 2553 972 2059 
L 3022 2063 
z
" transform="scale(0.015625)"/>
       </defs>
       <use xlink:href="#DejaVuSans-6e"/>
       <use xlink:href="#DejaVuSans-6f" x="63.378906"/>
       <use xlink:href="#DejaVuSans-6e" x="124.560547"/>
       <use xlink:href="#DejaVuSans-65" x="187.939453"/>
      </g>
     </g>
    </g>
    <g id="xtick_2">
     <g id="line2d_2">
      <g>
       <use xlink:href="#m2497068c1c" x="134.846316" y="147.191593" style="stroke: #000000; stroke-width: 0.8"/>
      </g>
     </g>
     <g id="text_2">
      <!-- drop30 -->
      <g transform="translate(108.325392 184.614862) rotate(-45) scale(0.1 -0.1)">
       <defs>
        <path id="DejaVuSans-64" d="M 2906 2969 
L 2906 4863 
L 3481 4863 
L 3481 0 
L 2906 0 
L 2906 525 
Q 2725 213 2448 61 
Q 2172 -91 1784 -91 
Q 1150 -91 751 415 
Q 353 922 353 1747 
Q 353 2572 751 3078 
Q 1150 3584 1784 3584 
Q 2172 3584 2448 3432 
Q 2725 3281 2906 2969 
z
M 947 1747 
Q 947 1113 1208 752 
Q 1469 391 1925 391 
Q 2381 391 2643 752 
Q 2906 1113 2906 1747 
Q 2906 2381 2643 2742 
Q 2381 3103 1925 3103 
Q 1469 3103 1208 2742 
Q 947 2381 947 1747 
z
" transform="scale(0.015625)"/>
        <path id="DejaVuSans-72" d="M 2631 2963 
Q 2534 3019 2420 3045 
Q 2306 3072 2169 3072 
Q 1681 3072 1420 2755 
Q 1159 2438 1159 1844 
L 1159 0 
L 581 0 
L 581 3500 
L 1159 3500 
L 1159 2956 
Q 1341 3275 1631 3429 
Q 1922 3584 2338 3584 
Q 2397 3584 2469 3576 
Q 2541 3569 2628 3553 
L 2631 2963 
z
" transform="scale(0.015625)"/>
        <path id="DejaVuSans-70" d="M 1159 525 
L 1159 -1331 
L 581 -1331 
L 581 3500 
L 1159 3500 
L 1159 2969 
Q 1341 3281 1617 3432 
Q 1894 3584 2278 3584 
Q 2916 3584 3314 3078 
Q 3713 2572 3713 1747 
Q 3713 922 3314 415 
Q 2916 -91 2278 -91 
Q 1894 -91 1617 61 
Q 1341 213 1159 525 
z
M 3116 1747 
Q 3116 2381 2855 2742 
Q 2594 3103 2138 3103 
Q 1681 3103 1420 2742 
Q 1159 2381 1159 1747 
Q 1159 1113 1420 752 
Q 1681 391 2138 391 
Q 2594 391 2855 752 
Q 3116 1113 3116 1747 
z
" transform="scale(0.015625)"/>
        <path id="DejaVuSans-33" d="M 2597 2516 
Q 3050 2419 3304 2112 
Q 3559 1806 3559 1356 
Q 3559 666 3084 287 
Q 2609 -91 1734 -91 
Q 1441 -91 1130 -33 
Q 819 25 488 141 
L 488 750 
Q 750 597 1062 519 
Q 1375 441 1716 441 
Q 2309 441 2620 675 
Q 2931 909 2931 1356 
Q 2931 1769 2642 2001 
Q 2353 2234 1838 2234 
L 1294 2234 
L 1294 2753 
L 1863 2753 
Q 2328 2753 2575 2939 
Q 2822 3125 2822 3475 
Q 2822 3834 2567 4026 
Q 2313 4219 1838 4219 
Q 1578 4219 1281 4162 
Q 984 4106 628 3988 
L 628 4550 
Q 988 4650 1302 4700 
Q 1616 4750 1894 4750 
Q 2613 4750 3031 4423 
Q 3450 4097 3450 3541 
Q 3450 3153 3228 2886 
Q 3006 2619 2597 2516 
z
" transform="scale(0.015625)"/>
        <path id="DejaVuSans-30" d="M 2034 4250 
Q 1547 4250 1301 3770 
Q 1056 3291 1056 2328 
Q 1056 1369 1301 889 
Q 1547 409 2034 409 
Q 2525 409 2770 889 
Q 3016 1369 3016 2328 
Q 3016 3291 2770 3770 
Q 2525 4250 2034 4250 
z
M 2034 4750 
Q 2819 4750 3233 4129 
Q 3647 3509 3647 2328 
Q 3647 1150 3233 529 
Q 2819 -91 2034 -91 
Q 1250 -91 836 529 
Q 422 1150 422 2328 
Q 422 3509 836 4129 
Q 1250 4750 2034 4750 
z
" transform="scale(0.015625)"/>
       </defs>
       <use xlink:href="#DejaVuSans-64"/>
       <use xlink:href="#DejaVuSans-72" x="63.476562"/>
       <use xlink:href="#DejaVuSans-6f" x="102.339844"/>
       <use xlink:href="#DejaVuSans-70" x="163.521484"/>
       <use xlink:href="#DejaVuSans-33" x="226.998047"/>
       <use xlink:href="#DejaVuSans-30" x="290.621094"/>
      </g>
     </g>
    </g>
    <g id="xtick_3">
     <g id="line2d_3">
      <g>
       <use xlink:href="#m2497068c1c" x="192.874934" y="147.191593" style="stroke: #000000; stroke-width: 0.8"/>
      </g>
     </g>
     <g id="text_3">
      <!-- drop50 -->
      <g transform="translate(166.35401 184.614862) rotate(-45) scale(0.1 -0.1)">
       <defs>
        <path id="DejaVuSans-35" d="M 691 4666 
L 3169 4666 
L 3169 4134 
L 1269 4134 
L 1269 2991 
Q 1406 3038 1543 3061 
Q 1681 3084 1819 3084 
Q 2600 3084 3056 2656 
Q 3513 2228 3513 1497 
Q 3513 744 3044 326 
Q 2575 -91 1722 -91 
Q 1428 -91 1123 -41 
Q 819 9 494 109 
L 494 744 
Q 775 591 1075 516 
Q 1375 441 1709 441 
Q 2250 441 2565 725 
Q 2881 1009 2881 1497 
Q 2881 1984 2565 2268 
Q 2250 2553 1709 2553 
Q 1456 2553 1204 2497 
Q 953 2441 691 2322 
L 691 4666 
z
" transform="scale(0.015625)"/>
       </defs>
       <use xlink:href="#DejaVuSans-64"/>
       <use xlink:href="#DejaVuSans-72" x="63.476562"/>
       <use xlink:href="#DejaVuSans-6f" x="102.339844"/>
       <use xlink:href="#DejaVuSans-70" x="163.521484"/>
       <use xlink:href="#DejaVuSans-35" x="226.998047"/>
       <use xlink:href="#DejaVuSans-30" x="290.621094"/>
      </g>
     </g>
    </g>
    <g id="xtick_4">
     <g id="line2d_4">
      <g>
       <use xlink:href="#m2497068c1c" x="250.903553" y="147.191593" style="stroke: #000000; stroke-width: 0.8"/>
      </g>
     </g>
     <g id="text_4">
      <!-- drop80 -->
      <g transform="translate(224.382629 184.614862) rotate(-45) scale(0.1 -0.1)">
       <defs>
        <path id="DejaVuSans-38" d="M 2034 2216 
Q 1584 2216 1326 1975 
Q 1069 1734 1069 1313 
Q 1069 891 1326 650 
Q 1584 409 2034 409 
Q 2484 409 2743 651 
Q 3003 894 3003 1313 
Q 3003 1734 2745 1975 
Q 2488 2216 2034 2216 
z
M 1403 2484 
Q 997 2584 770 2862 
Q 544 3141 544 3541 
Q 544 4100 942 4425 
Q 1341 4750 2034 4750 
Q 2731 4750 3128 4425 
Q 3525 4100 3525 3541 
Q 3525 3141 3298 2862 
Q 3072 2584 2669 2484 
Q 3125 2378 3379 2068 
Q 3634 1759 3634 1313 
Q 3634 634 3220 271 
Q 2806 -91 2034 -91 
Q 1263 -91 848 271 
Q 434 634 434 1313 
Q 434 1759 690 2068 
Q 947 2378 1403 2484 
z
M 1172 3481 
Q 1172 3119 1398 2916 
Q 1625 2713 2034 2713 
Q 2441 2713 2670 2916 
Q 2900 3119 2900 3481 
Q 2900 3844 2670 4047 
Q 2441 4250 2034 4250 
Q 1625 4250 1398 4047 
Q 1172 3844 1172 3481 
z
" transform="scale(0.015625)"/>
       </defs>
       <use xlink:href="#DejaVuSans-64"/>
       <use xlink:href="#DejaVuSans-72" x="63.476562"/>
       <use xlink:href="#DejaVuSans-6f" x="102.339844"/>
       <use xlink:href="#DejaVuSans-70" x="163.521484"/>
       <use xlink:href="#DejaVuSans-38" x="226.998047"/>
       <use xlink:href="#DejaVuSans-30" x="290.621094"/>
      </g>
     </g>
    </g>
    <g id="text_5">
     <!-- estimator_suffix -->
     <g transform="translate(123.678594 197.68386) scale(0.1 -0.1)">
      <defs>
       <path id="DejaVuSans-73" d="M 2834 3397 
L 2834 2853 
Q 2591 2978 2328 3040 
Q 2066 3103 1784 3103 
Q 1356 3103 1142 2972 
Q 928 2841 928 2578 
Q 928 2378 1081 2264 
Q 1234 2150 1697 2047 
L 1894 2003 
Q 2506 1872 2764 1633 
Q 3022 1394 3022 966 
Q 3022 478 2636 193 
Q 2250 -91 1575 -91 
Q 1294 -91 989 -36 
Q 684 19 347 128 
L 347 722 
Q 666 556 975 473 
Q 1284 391 1588 391 
Q 1994 391 2212 530 
Q 2431 669 2431 922 
Q 2431 1156 2273 1281 
Q 2116 1406 1581 1522 
L 1381 1569 
Q 847 1681 609 1914 
Q 372 2147 372 2553 
Q 372 3047 722 3315 
Q 1072 3584 1716 3584 
Q 2034 3584 2315 3537 
Q 2597 3491 2834 3397 
z
" transform="scale(0.015625)"/>
       <path id="DejaVuSans-74" d="M 1172 4494 
L 1172 3500 
L 2356 3500 
L 2356 3053 
L 1172 3053 
L 1172 1153 
Q 1172 725 1289 603 
Q 1406 481 1766 481 
L 2356 481 
L 2356 0 
L 1766 0 
Q 1100 0 847 248 
Q 594 497 594 1153 
L 594 3053 
L 172 3053 
L 172 3500 
L 594 3500 
L 594 4494 
L 1172 4494 
z
" transform="scale(0.015625)"/>
       <path id="DejaVuSans-69" d="M 603 3500 
L 1178 3500 
L 1178 0 
L 603 0 
L 603 3500 
z
M 603 4863 
L 1178 4863 
L 1178 4134 
L 603 4134 
L 603 4863 
z
" transform="scale(0.015625)"/>
       <path id="DejaVuSans-6d" d="M 3328 2828 
Q 3544 3216 3844 3400 
Q 4144 3584 4550 3584 
Q 5097 3584 5394 3201 
Q 5691 2819 5691 2113 
L 5691 0 
L 5113 0 
L 5113 2094 
Q 5113 2597 4934 2840 
Q 4756 3084 4391 3084 
Q 3944 3084 3684 2787 
Q 3425 2491 3425 1978 
L 3425 0 
L 2847 0 
L 2847 2094 
Q 2847 2600 2669 2842 
Q 2491 3084 2119 3084 
Q 1678 3084 1418 2786 
Q 1159 2488 1159 1978 
L 1159 0 
L 581 0 
L 581 3500 
L 1159 3500 
L 1159 2956 
Q 1356 3278 1631 3431 
Q 1906 3584 2284 3584 
Q 2666 3584 2933 3390 
Q 3200 3197 3328 2828 
z
" transform="scale(0.015625)"/>
       <path id="DejaVuSans-61" d="M 2194 1759 
Q 1497 1759 1228 1600 
Q 959 1441 959 1056 
Q 959 750 1161 570 
Q 1363 391 1709 391 
Q 2188 391 2477 730 
Q 2766 1069 2766 1631 
L 2766 1759 
L 2194 1759 
z
M 3341 1997 
L 3341 0 
L 2766 0 
L 2766 531 
Q 2569 213 2275 61 
Q 1981 -91 1556 -91 
Q 1019 -91 701 211 
Q 384 513 384 1019 
Q 384 1609 779 1909 
Q 1175 2209 1959 2209 
L 2766 2209 
L 2766 2266 
Q 2766 2663 2505 2880 
Q 2244 3097 1772 3097 
Q 1472 3097 1187 3025 
Q 903 2953 641 2809 
L 641 3341 
Q 956 3463 1253 3523 
Q 1550 3584 1831 3584 
Q 2591 3584 2966 3190 
Q 3341 2797 3341 1997 
z
" transform="scale(0.015625)"/>
       <path id="DejaVuSans-5f" d="M 3263 -1063 
L 3263 -1509 
L -63 -1509 
L -63 -1063 
L 3263 -1063 
z
" transform="scale(0.015625)"/>
       <path id="DejaVuSans-75" d="M 544 1381 
L 544 3500 
L 1119 3500 
L 1119 1403 
Q 1119 906 1312 657 
Q 1506 409 1894 409 
Q 2359 409 2629 706 
Q 2900 1003 2900 1516 
L 2900 3500 
L 3475 3500 
L 3475 0 
L 2900 0 
L 2900 538 
Q 2691 219 2414 64 
Q 2138 -91 1772 -91 
Q 1169 -91 856 284 
Q 544 659 544 1381 
z
M 1991 3584 
L 1991 3584 
z
" transform="scale(0.015625)"/>
       <path id="DejaVuSans-66" d="M 2375 4863 
L 2375 4384 
L 1825 4384 
Q 1516 4384 1395 4259 
Q 1275 4134 1275 3809 
L 1275 3500 
L 2222 3500 
L 2222 3053 
L 1275 3053 
L 1275 0 
L 697 0 
L 697 3053 
L 147 3053 
L 147 3500 
L 697 3500 
L 697 3744 
Q 697 4328 969 4595 
Q 1241 4863 1831 4863 
L 2375 4863 
z
" transform="scale(0.015625)"/>
       <path id="DejaVuSans-78" d="M 3513 3500 
L 2247 1797 
L 3578 0 
L 2900 0 
L 1881 1375 
L 863 0 
L 184 0 
L 1544 1831 
L 300 3500 
L 978 3500 
L 1906 2253 
L 2834 3500 
L 3513 3500 
z
" transform="scale(0.015625)"/>
      </defs>
      <use xlink:href="#DejaVuSans-65"/>
      <use xlink:href="#DejaVuSans-73" x="61.523438"/>
      <use xlink:href="#DejaVuSans-74" x="113.623047"/>
      <use xlink:href="#DejaVuSans-69" x="152.832031"/>
      <use xlink:href="#DejaVuSans-6d" x="180.615234"/>
      <use xlink:href="#DejaVuSans-61" x="278.027344"/>
      <use xlink:href="#DejaVuSans-74" x="339.306641"/>
      <use xlink:href="#DejaVuSans-6f" x="378.515625"/>
      <use xlink:href="#DejaVuSans-72" x="439.697266"/>
      <use xlink:href="#DejaVuSans-5f" x="480.810547"/>
      <use xlink:href="#DejaVuSans-73" x="530.810547"/>
      <use xlink:href="#DejaVuSans-75" x="582.910156"/>
      <use xlink:href="#DejaVuSans-66" x="646.289062"/>
      <use xlink:href="#DejaVuSans-66" x="681.494141"/>
      <use xlink:href="#DejaVuSans-69" x="716.699219"/>
      <use xlink:href="#DejaVuSans-78" x="744.482422"/>
     </g>
    </g>
   </g>
   <g id="matplotlib.axis_2">
    <g id="ytick_1">
     <g id="line2d_5">
      <defs>
       <path id="mcc6b6f5f01" d="M 0 0 
L -3.5 0 
" style="stroke: #000000; stroke-width: 0.8"/>
      </defs>
      <g>
       <use xlink:href="#mcc6b6f5f01" x="53.60625" y="146.028436" style="stroke: #000000; stroke-width: 0.8"/>
      </g>
     </g>
     <g id="text_6">
      <!-- 0 -->
      <g transform="translate(40.24375 149.827655) scale(0.1 -0.1)">
       <use xlink:href="#DejaVuSans-30"/>
      </g>
     </g>
    </g>
    <g id="ytick_2">
     <g id="line2d_6">
      <g>
       <use xlink:href="#mcc6b6f5f01" x="53.60625" y="121.388821" style="stroke: #000000; stroke-width: 0.8"/>
      </g>
     </g>
     <g id="text_7">
      <!-- 250 -->
      <g transform="translate(27.51875 125.188039) scale(0.1 -0.1)">
       <defs>
        <path id="DejaVuSans-32" d="M 1228 531 
L 3431 531 
L 3431 0 
L 469 0 
L 469 531 
Q 828 903 1448 1529 
Q 2069 2156 2228 2338 
Q 2531 2678 2651 2914 
Q 2772 3150 2772 3378 
Q 2772 3750 2511 3984 
Q 2250 4219 1831 4219 
Q 1534 4219 1204 4116 
Q 875 4013 500 3803 
L 500 4441 
Q 881 4594 1212 4672 
Q 1544 4750 1819 4750 
Q 2544 4750 2975 4387 
Q 3406 4025 3406 3419 
Q 3406 3131 3298 2873 
Q 3191 2616 2906 2266 
Q 2828 2175 2409 1742 
Q 1991 1309 1228 531 
z
" transform="scale(0.015625)"/>
       </defs>
       <use xlink:href="#DejaVuSans-32"/>
       <use xlink:href="#DejaVuSans-35" x="63.623047"/>
       <use xlink:href="#DejaVuSans-30" x="127.246094"/>
      </g>
     </g>
    </g>
    <g id="ytick_3">
     <g id="line2d_7">
      <g>
       <use xlink:href="#mcc6b6f5f01" x="53.60625" y="96.749205" style="stroke: #000000; stroke-width: 0.8"/>
      </g>
     </g>
     <g id="text_8">
      <!-- 500 -->
      <g transform="translate(27.51875 100.548424) scale(0.1 -0.1)">
       <use xlink:href="#DejaVuSans-35"/>
       <use xlink:href="#DejaVuSans-30" x="63.623047"/>
       <use xlink:href="#DejaVuSans-30" x="127.246094"/>
      </g>
     </g>
    </g>
    <g id="ytick_4">
     <g id="line2d_8">
      <g>
       <use xlink:href="#mcc6b6f5f01" x="53.60625" y="72.10959" style="stroke: #000000; stroke-width: 0.8"/>
      </g>
     </g>
     <g id="text_9">
      <!-- 750 -->
      <g transform="translate(27.51875 75.908808) scale(0.1 -0.1)">
       <defs>
        <path id="DejaVuSans-37" d="M 525 4666 
L 3525 4666 
L 3525 4397 
L 1831 0 
L 1172 0 
L 2766 4134 
L 525 4134 
L 525 4666 
z
" transform="scale(0.015625)"/>
       </defs>
       <use xlink:href="#DejaVuSans-37"/>
       <use xlink:href="#DejaVuSans-35" x="63.623047"/>
       <use xlink:href="#DejaVuSans-30" x="127.246094"/>
      </g>
     </g>
    </g>
    <g id="ytick_5">
     <g id="line2d_9">
      <g>
       <use xlink:href="#mcc6b6f5f01" x="53.60625" y="47.469974" style="stroke: #000000; stroke-width: 0.8"/>
      </g>
     </g>
     <g id="text_10">
      <!-- 1000 -->
      <g transform="translate(21.15625 51.269193) scale(0.1 -0.1)">
       <defs>
        <path id="DejaVuSans-31" d="M 794 531 
L 1825 531 
L 1825 4091 
L 703 3866 
L 703 4441 
L 1819 4666 
L 2450 4666 
L 2450 531 
L 3481 531 
L 3481 0 
L 794 0 
L 794 531 
z
" transform="scale(0.015625)"/>
       </defs>
       <use xlink:href="#DejaVuSans-31"/>
       <use xlink:href="#DejaVuSans-30" x="63.623047"/>
       <use xlink:href="#DejaVuSans-30" x="127.246094"/>
       <use xlink:href="#DejaVuSans-30" x="190.869141"/>
      </g>
     </g>
    </g>
    <g id="ytick_6">
     <g id="line2d_10">
      <g>
       <use xlink:href="#mcc6b6f5f01" x="53.60625" y="22.830359" style="stroke: #000000; stroke-width: 0.8"/>
      </g>
     </g>
     <g id="text_11">
      <!-- 1250 -->
      <g transform="translate(21.15625 26.629577) scale(0.1 -0.1)">
       <use xlink:href="#DejaVuSans-31"/>
       <use xlink:href="#DejaVuSans-32" x="63.623047"/>
       <use xlink:href="#DejaVuSans-35" x="127.246094"/>
       <use xlink:href="#DejaVuSans-30" x="190.869141"/>
      </g>
     </g>
    </g>
    <g id="text_12">
     <!-- fit_time -->
     <g transform="translate(14.798437 103.660328) rotate(-90) scale(0.1 -0.1)">
      <use xlink:href="#DejaVuSans-66"/>
      <use xlink:href="#DejaVuSans-69" x="35.205078"/>
      <use xlink:href="#DejaVuSans-74" x="62.988281"/>
      <use xlink:href="#DejaVuSans-5f" x="102.197266"/>
      <use xlink:href="#DejaVuSans-74" x="152.197266"/>
      <use xlink:href="#DejaVuSans-69" x="191.40625"/>
      <use xlink:href="#DejaVuSans-6d" x="219.189453"/>
      <use xlink:href="#DejaVuSans-65" x="316.601562"/>
     </g>
    </g>
   </g>
   <g id="line2d_11">
    <path d="M 59.409112 137.741337 
L 59.409112 137.78795 
" clip-path="url(#p5de44a27fb)" style="fill: none; stroke: #3d3d3d; stroke-width: 1.5; stroke-linecap: square"/>
   </g>
   <g id="line2d_12">
    <path d="M 59.409112 137.38332 
L 59.409112 137.225707 
" clip-path="url(#p5de44a27fb)" style="fill: none; stroke: #3d3d3d; stroke-width: 1.5; stroke-linecap: square"/>
   </g>
   <g id="line2d_13">
    <path d="M 56.56571 137.78795 
L 62.252514 137.78795 
" clip-path="url(#p5de44a27fb)" style="fill: none; stroke: #3d3d3d; stroke-width: 1.5; stroke-linecap: square"/>
   </g>
   <g id="line2d_14">
    <path d="M 56.56571 137.225707 
L 62.252514 137.225707 
" clip-path="url(#p5de44a27fb)" style="fill: none; stroke: #3d3d3d; stroke-width: 1.5; stroke-linecap: square"/>
   </g>
   <g id="line2d_15"/>
   <g id="line2d_16">
    <path d="M 71.014836 97.784709 
L 71.014836 98.631597 
" clip-path="url(#p5de44a27fb)" style="fill: none; stroke: #3d3d3d; stroke-width: 1.5; stroke-linecap: square"/>
   </g>
   <g id="line2d_17">
    <path d="M 71.014836 90.025036 
L 71.014836 84.51511 
" clip-path="url(#p5de44a27fb)" style="fill: none; stroke: #3d3d3d; stroke-width: 1.5; stroke-linecap: square"/>
   </g>
   <g id="line2d_18">
    <path d="M 68.171433 98.631597 
L 73.858238 98.631597 
" clip-path="url(#p5de44a27fb)" style="fill: none; stroke: #3d3d3d; stroke-width: 1.5; stroke-linecap: square"/>
   </g>
   <g id="line2d_19">
    <path d="M 68.171433 84.51511 
L 73.858238 84.51511 
" clip-path="url(#p5de44a27fb)" style="fill: none; stroke: #3d3d3d; stroke-width: 1.5; stroke-linecap: square"/>
   </g>
   <g id="line2d_20"/>
   <g id="line2d_21">
    <path d="M 82.620559 142.172176 
L 82.620559 142.180445 
" clip-path="url(#p5de44a27fb)" style="fill: none; stroke: #3d3d3d; stroke-width: 1.5; stroke-linecap: square"/>
   </g>
   <g id="line2d_22">
    <path d="M 82.620559 141.946331 
L 82.620559 141.829707 
" clip-path="url(#p5de44a27fb)" style="fill: none; stroke: #3d3d3d; stroke-width: 1.5; stroke-linecap: square"/>
   </g>
   <g id="line2d_23">
    <path d="M 79.777157 142.180445 
L 85.463962 142.180445 
" clip-path="url(#p5de44a27fb)" style="fill: none; stroke: #3d3d3d; stroke-width: 1.5; stroke-linecap: square"/>
   </g>
   <g id="line2d_24">
    <path d="M 79.777157 141.829707 
L 85.463962 141.829707 
" clip-path="url(#p5de44a27fb)" style="fill: none; stroke: #3d3d3d; stroke-width: 1.5; stroke-linecap: square"/>
   </g>
   <g id="line2d_25"/>
   <g id="line2d_26">
    <path d="M 94.226283 111.385792 
L 94.226283 111.445688 
" clip-path="url(#p5de44a27fb)" style="fill: none; stroke: #3d3d3d; stroke-width: 1.5; stroke-linecap: square"/>
   </g>
   <g id="line2d_27">
    <path d="M 94.226283 103.718471 
L 94.226283 94.880263 
" clip-path="url(#p5de44a27fb)" style="fill: none; stroke: #3d3d3d; stroke-width: 1.5; stroke-linecap: square"/>
   </g>
   <g id="line2d_28">
    <path d="M 91.382881 111.445688 
L 97.069685 111.445688 
" clip-path="url(#p5de44a27fb)" style="fill: none; stroke: #3d3d3d; stroke-width: 1.5; stroke-linecap: square"/>
   </g>
   <g id="line2d_29">
    <path d="M 91.382881 94.880263 
L 97.069685 94.880263 
" clip-path="url(#p5de44a27fb)" style="fill: none; stroke: #3d3d3d; stroke-width: 1.5; stroke-linecap: square"/>
   </g>
   <g id="line2d_30"/>
   <g id="line2d_31">
    <path d="M 117.43773 137.61761 
L 117.43773 137.750001 
" clip-path="url(#p5de44a27fb)" style="fill: none; stroke: #3d3d3d; stroke-width: 1.5; stroke-linecap: square"/>
   </g>
   <g id="line2d_32">
    <path d="M 117.43773 137.213202 
L 117.43773 137.181788 
" clip-path="url(#p5de44a27fb)" style="fill: none; stroke: #3d3d3d; stroke-width: 1.5; stroke-linecap: square"/>
   </g>
   <g id="line2d_33">
    <path d="M 114.594328 137.750001 
L 120.281133 137.750001 
" clip-path="url(#p5de44a27fb)" style="fill: none; stroke: #3d3d3d; stroke-width: 1.5; stroke-linecap: square"/>
   </g>
   <g id="line2d_34">
    <path d="M 114.594328 137.181788 
L 120.281133 137.181788 
" clip-path="url(#p5de44a27fb)" style="fill: none; stroke: #3d3d3d; stroke-width: 1.5; stroke-linecap: square"/>
   </g>
   <g id="line2d_35"/>
   <g id="line2d_36">
    <path d="M 129.043454 92.471591 
L 129.043454 92.659149 
" clip-path="url(#p5de44a27fb)" style="fill: none; stroke: #3d3d3d; stroke-width: 1.5; stroke-linecap: square"/>
   </g>
   <g id="line2d_37">
    <path d="M 129.043454 88.127229 
L 129.043454 83.407954 
" clip-path="url(#p5de44a27fb)" style="fill: none; stroke: #3d3d3d; stroke-width: 1.5; stroke-linecap: square"/>
   </g>
   <g id="line2d_38">
    <path d="M 126.200052 92.659149 
L 131.886856 92.659149 
" clip-path="url(#p5de44a27fb)" style="fill: none; stroke: #3d3d3d; stroke-width: 1.5; stroke-linecap: square"/>
   </g>
   <g id="line2d_39">
    <path d="M 126.200052 83.407954 
L 131.886856 83.407954 
" clip-path="url(#p5de44a27fb)" style="fill: none; stroke: #3d3d3d; stroke-width: 1.5; stroke-linecap: square"/>
   </g>
   <g id="line2d_40"/>
   <g id="line2d_41">
    <path d="M 140.649178 142.004704 
L 140.649178 142.066241 
" clip-path="url(#p5de44a27fb)" style="fill: none; stroke: #3d3d3d; stroke-width: 1.5; stroke-linecap: square"/>
   </g>
   <g id="line2d_42">
    <path d="M 140.649178 141.916549 
L 140.649178 141.832258 
" clip-path="url(#p5de44a27fb)" style="fill: none; stroke: #3d3d3d; stroke-width: 1.5; stroke-linecap: square"/>
   </g>
   <g id="line2d_43">
    <path d="M 137.805775 142.066241 
L 143.49258 142.066241 
" clip-path="url(#p5de44a27fb)" style="fill: none; stroke: #3d3d3d; stroke-width: 1.5; stroke-linecap: square"/>
   </g>
   <g id="line2d_44">
    <path d="M 137.805775 141.832258 
L 143.49258 141.832258 
" clip-path="url(#p5de44a27fb)" style="fill: none; stroke: #3d3d3d; stroke-width: 1.5; stroke-linecap: square"/>
   </g>
   <g id="line2d_45"/>
   <g id="line2d_46">
    <path d="M 152.254901 107.409546 
L 152.254901 107.914447 
" clip-path="url(#p5de44a27fb)" style="fill: none; stroke: #3d3d3d; stroke-width: 1.5; stroke-linecap: square"/>
   </g>
   <g id="line2d_47">
    <path d="M 152.254901 102.029483 
L 152.254901 97.793813 
" clip-path="url(#p5de44a27fb)" style="fill: none; stroke: #3d3d3d; stroke-width: 1.5; stroke-linecap: square"/>
   </g>
   <g id="line2d_48">
    <path d="M 149.411499 107.914447 
L 155.098304 107.914447 
" clip-path="url(#p5de44a27fb)" style="fill: none; stroke: #3d3d3d; stroke-width: 1.5; stroke-linecap: square"/>
   </g>
   <g id="line2d_49">
    <path d="M 149.411499 97.793813 
L 155.098304 97.793813 
" clip-path="url(#p5de44a27fb)" style="fill: none; stroke: #3d3d3d; stroke-width: 1.5; stroke-linecap: square"/>
   </g>
   <g id="line2d_50"/>
   <g id="line2d_51">
    <path d="M 175.466349 137.628367 
L 175.466349 137.637112 
" clip-path="url(#p5de44a27fb)" style="fill: none; stroke: #3d3d3d; stroke-width: 1.5; stroke-linecap: square"/>
   </g>
   <g id="line2d_52">
    <path d="M 175.466349 137.322596 
L 175.466349 137.308959 
" clip-path="url(#p5de44a27fb)" style="fill: none; stroke: #3d3d3d; stroke-width: 1.5; stroke-linecap: square"/>
   </g>
   <g id="line2d_53">
    <path d="M 172.622946 137.637112 
L 178.309751 137.637112 
" clip-path="url(#p5de44a27fb)" style="fill: none; stroke: #3d3d3d; stroke-width: 1.5; stroke-linecap: square"/>
   </g>
   <g id="line2d_54">
    <path d="M 172.622946 137.308959 
L 178.309751 137.308959 
" clip-path="url(#p5de44a27fb)" style="fill: none; stroke: #3d3d3d; stroke-width: 1.5; stroke-linecap: square"/>
   </g>
   <g id="line2d_55"/>
   <g id="line2d_56">
    <path d="M 187.072072 94.626073 
L 187.072072 95.521966 
" clip-path="url(#p5de44a27fb)" style="fill: none; stroke: #3d3d3d; stroke-width: 1.5; stroke-linecap: square"/>
   </g>
   <g id="line2d_57">
    <path d="M 187.072072 84.596321 
L 187.072072 81.566556 
" clip-path="url(#p5de44a27fb)" style="fill: none; stroke: #3d3d3d; stroke-width: 1.5; stroke-linecap: square"/>
   </g>
   <g id="line2d_58">
    <path d="M 184.22867 95.521966 
L 189.915475 95.521966 
" clip-path="url(#p5de44a27fb)" style="fill: none; stroke: #3d3d3d; stroke-width: 1.5; stroke-linecap: square"/>
   </g>
   <g id="line2d_59">
    <path d="M 184.22867 81.566556 
L 189.915475 81.566556 
" clip-path="url(#p5de44a27fb)" style="fill: none; stroke: #3d3d3d; stroke-width: 1.5; stroke-linecap: square"/>
   </g>
   <g id="line2d_60"/>
   <g id="line2d_61">
    <path d="M 198.677796 142.071251 
L 198.677796 142.087551 
" clip-path="url(#p5de44a27fb)" style="fill: none; stroke: #3d3d3d; stroke-width: 1.5; stroke-linecap: square"/>
   </g>
   <g id="line2d_62">
    <path d="M 198.677796 141.996093 
L 198.677796 141.996093 
" clip-path="url(#p5de44a27fb)" style="fill: none; stroke: #3d3d3d; stroke-width: 1.5; stroke-linecap: square"/>
   </g>
   <g id="line2d_63">
    <path d="M 195.834394 142.087551 
L 201.521198 142.087551 
" clip-path="url(#p5de44a27fb)" style="fill: none; stroke: #3d3d3d; stroke-width: 1.5; stroke-linecap: square"/>
   </g>
   <g id="line2d_64">
    <path d="M 195.834394 141.996093 
L 201.521198 141.996093 
" clip-path="url(#p5de44a27fb)" style="fill: none; stroke: #3d3d3d; stroke-width: 1.5; stroke-linecap: square"/>
   </g>
   <g id="line2d_65">
    <defs>
     <path id="m4970220e6d" d="M -0 3.535534 
L 2.12132 0 
L -0 -3.535534 
L -2.12132 -0 
z
" style="stroke: #3d3d3d; stroke-linejoin: miter"/>
    </defs>
    <g clip-path="url(#p5de44a27fb)">
     <use xlink:href="#m4970220e6d" x="198.677796" y="141.840737" style="fill: #3d3d3d; stroke: #3d3d3d; stroke-linejoin: miter"/>
    </g>
   </g>
   <g id="line2d_66">
    <path d="M 210.28352 105.62367 
L 210.28352 107.101431 
" clip-path="url(#p5de44a27fb)" style="fill: none; stroke: #3d3d3d; stroke-width: 1.5; stroke-linecap: square"/>
   </g>
   <g id="line2d_67">
    <path d="M 210.28352 102.955883 
L 210.28352 102.955883 
" clip-path="url(#p5de44a27fb)" style="fill: none; stroke: #3d3d3d; stroke-width: 1.5; stroke-linecap: square"/>
   </g>
   <g id="line2d_68">
    <path d="M 207.440117 107.101431 
L 213.126922 107.101431 
" clip-path="url(#p5de44a27fb)" style="fill: none; stroke: #3d3d3d; stroke-width: 1.5; stroke-linecap: square"/>
   </g>
   <g id="line2d_69">
    <path d="M 207.440117 102.955883 
L 213.126922 102.955883 
" clip-path="url(#p5de44a27fb)" style="fill: none; stroke: #3d3d3d; stroke-width: 1.5; stroke-linecap: square"/>
   </g>
   <g id="line2d_70">
    <g clip-path="url(#p5de44a27fb)">
     <use xlink:href="#m4970220e6d" x="210.28352" y="95.920544" style="fill: #3d3d3d; stroke: #3d3d3d; stroke-linejoin: miter"/>
    </g>
   </g>
   <g id="line2d_71">
    <path d="M 233.494967 138.002743 
L 233.494967 138.14158 
" clip-path="url(#p5de44a27fb)" style="fill: none; stroke: #3d3d3d; stroke-width: 1.5; stroke-linecap: square"/>
   </g>
   <g id="line2d_72">
    <path d="M 233.494967 137.754804 
L 233.494967 137.54612 
" clip-path="url(#p5de44a27fb)" style="fill: none; stroke: #3d3d3d; stroke-width: 1.5; stroke-linecap: square"/>
   </g>
   <g id="line2d_73">
    <path d="M 230.651565 138.14158 
L 236.338369 138.14158 
" clip-path="url(#p5de44a27fb)" style="fill: none; stroke: #3d3d3d; stroke-width: 1.5; stroke-linecap: square"/>
   </g>
   <g id="line2d_74">
    <path d="M 230.651565 137.54612 
L 236.338369 137.54612 
" clip-path="url(#p5de44a27fb)" style="fill: none; stroke: #3d3d3d; stroke-width: 1.5; stroke-linecap: square"/>
   </g>
   <g id="line2d_75"/>
   <g id="line2d_76">
    <path d="M 245.100691 59.189106 
L 245.100691 64.280038 
" clip-path="url(#p5de44a27fb)" style="fill: none; stroke: #3d3d3d; stroke-width: 1.5; stroke-linecap: square"/>
   </g>
   <g id="line2d_77">
    <path d="M 245.100691 49.402974 
L 245.100691 43.108202 
" clip-path="url(#p5de44a27fb)" style="fill: none; stroke: #3d3d3d; stroke-width: 1.5; stroke-linecap: square"/>
   </g>
   <g id="line2d_78">
    <path d="M 242.257288 64.280038 
L 247.944093 64.280038 
" clip-path="url(#p5de44a27fb)" style="fill: none; stroke: #3d3d3d; stroke-width: 1.5; stroke-linecap: square"/>
   </g>
   <g id="line2d_79">
    <path d="M 242.257288 43.108202 
L 247.944093 43.108202 
" clip-path="url(#p5de44a27fb)" style="fill: none; stroke: #3d3d3d; stroke-width: 1.5; stroke-linecap: square"/>
   </g>
   <g id="line2d_80"/>
   <g id="line2d_81">
    <path d="M 256.706414 142.221269 
L 256.706414 142.235241 
" clip-path="url(#p5de44a27fb)" style="fill: none; stroke: #3d3d3d; stroke-width: 1.5; stroke-linecap: square"/>
   </g>
   <g id="line2d_82">
    <path d="M 256.706414 142.09304 
L 256.706414 142.045731 
" clip-path="url(#p5de44a27fb)" style="fill: none; stroke: #3d3d3d; stroke-width: 1.5; stroke-linecap: square"/>
   </g>
   <g id="line2d_83">
    <path d="M 253.863012 142.235241 
L 259.549817 142.235241 
" clip-path="url(#p5de44a27fb)" style="fill: none; stroke: #3d3d3d; stroke-width: 1.5; stroke-linecap: square"/>
   </g>
   <g id="line2d_84">
    <path d="M 253.863012 142.045731 
L 259.549817 142.045731 
" clip-path="url(#p5de44a27fb)" style="fill: none; stroke: #3d3d3d; stroke-width: 1.5; stroke-linecap: square"/>
   </g>
   <g id="line2d_85"/>
   <g id="line2d_86">
    <path d="M 268.312138 101.83199 
L 268.312138 102.041807 
" clip-path="url(#p5de44a27fb)" style="fill: none; stroke: #3d3d3d; stroke-width: 1.5; stroke-linecap: square"/>
   </g>
   <g id="line2d_87">
    <path d="M 268.312138 93.430922 
L 268.312138 88.116743 
" clip-path="url(#p5de44a27fb)" style="fill: none; stroke: #3d3d3d; stroke-width: 1.5; stroke-linecap: square"/>
   </g>
   <g id="line2d_88">
    <path d="M 265.468736 102.041807 
L 271.15554 102.041807 
" clip-path="url(#p5de44a27fb)" style="fill: none; stroke: #3d3d3d; stroke-width: 1.5; stroke-linecap: square"/>
   </g>
   <g id="line2d_89">
    <path d="M 265.468736 88.116743 
L 271.15554 88.116743 
" clip-path="url(#p5de44a27fb)" style="fill: none; stroke: #3d3d3d; stroke-width: 1.5; stroke-linecap: square"/>
   </g>
   <g id="line2d_90"/>
   <g id="line2d_91">
    <path d="M 71.014836 77.972725 
L 71.014836 75.791931 
L 82.620559 75.791931 
L 82.620559 77.972725 
" clip-path="url(#p5de44a27fb)" style="fill: none; stroke: #333333; stroke-width: 1.5; stroke-linecap: square"/>
   </g>
   <g id="line2d_92">
    <path d="M 129.043454 76.86557 
L 129.043454 74.684775 
L 140.649178 74.684775 
L 140.649178 76.86557 
" clip-path="url(#p5de44a27fb)" style="fill: none; stroke: #333333; stroke-width: 1.5; stroke-linecap: square"/>
   </g>
   <g id="line2d_93">
    <path d="M 187.072072 75.024172 
L 187.072072 72.843377 
L 198.677796 72.843377 
L 198.677796 75.024172 
" clip-path="url(#p5de44a27fb)" style="fill: none; stroke: #333333; stroke-width: 1.5; stroke-linecap: square"/>
   </g>
   <g id="line2d_94">
    <path d="M 245.100691 36.565817 
L 245.100691 34.385022 
L 256.706414 34.385022 
L 256.706414 36.565817 
" clip-path="url(#p5de44a27fb)" style="fill: none; stroke: #333333; stroke-width: 1.5; stroke-linecap: square"/>
   </g>
   <g id="line2d_95">
    <path d="M 53.722307 137.732671 
L 65.095916 137.732671 
" clip-path="url(#p5de44a27fb)" style="fill: none; stroke: #3d3d3d; stroke-width: 1.5; stroke-linecap: square"/>
   </g>
   <g id="line2d_96">
    <path d="M 65.328031 90.786945 
L 76.70164 90.786945 
" clip-path="url(#p5de44a27fb)" style="fill: none; stroke: #3d3d3d; stroke-width: 1.5; stroke-linecap: square"/>
   </g>
   <g id="line2d_97">
    <path d="M 76.933755 142.141106 
L 88.307364 142.141106 
" clip-path="url(#p5de44a27fb)" style="fill: none; stroke: #3d3d3d; stroke-width: 1.5; stroke-linecap: square"/>
   </g>
   <g id="line2d_98">
    <path d="M 88.539478 107.299601 
L 99.913087 107.299601 
" clip-path="url(#p5de44a27fb)" style="fill: none; stroke: #3d3d3d; stroke-width: 1.5; stroke-linecap: square"/>
   </g>
   <g id="line2d_99">
    <path d="M 111.750926 137.610097 
L 123.124535 137.610097 
" clip-path="url(#p5de44a27fb)" style="fill: none; stroke: #3d3d3d; stroke-width: 1.5; stroke-linecap: square"/>
   </g>
   <g id="line2d_100">
    <path d="M 123.356649 90.96793 
L 134.730259 90.96793 
" clip-path="url(#p5de44a27fb)" style="fill: none; stroke: #3d3d3d; stroke-width: 1.5; stroke-linecap: square"/>
   </g>
   <g id="line2d_101">
    <path d="M 134.962373 141.951134 
L 146.335982 141.951134 
" clip-path="url(#p5de44a27fb)" style="fill: none; stroke: #3d3d3d; stroke-width: 1.5; stroke-linecap: square"/>
   </g>
   <g id="line2d_102">
    <path d="M 146.568097 102.335694 
L 157.941706 102.335694 
" clip-path="url(#p5de44a27fb)" style="fill: none; stroke: #3d3d3d; stroke-width: 1.5; stroke-linecap: square"/>
   </g>
   <g id="line2d_103">
    <path d="M 169.779544 137.541917 
L 181.153153 137.541917 
" clip-path="url(#p5de44a27fb)" style="fill: none; stroke: #3d3d3d; stroke-width: 1.5; stroke-linecap: square"/>
   </g>
   <g id="line2d_104">
    <path d="M 181.385268 85.18078 
L 192.758877 85.18078 
" clip-path="url(#p5de44a27fb)" style="fill: none; stroke: #3d3d3d; stroke-width: 1.5; stroke-linecap: square"/>
   </g>
   <g id="line2d_105">
    <path d="M 192.990991 142.046231 
L 204.364601 142.046231 
" clip-path="url(#p5de44a27fb)" style="fill: none; stroke: #3d3d3d; stroke-width: 1.5; stroke-linecap: square"/>
   </g>
   <g id="line2d_106">
    <path d="M 204.596715 104.960045 
L 215.970324 104.960045 
" clip-path="url(#p5de44a27fb)" style="fill: none; stroke: #3d3d3d; stroke-width: 1.5; stroke-linecap: square"/>
   </g>
   <g id="line2d_107">
    <path d="M 227.808162 137.963809 
L 239.181772 137.963809 
" clip-path="url(#p5de44a27fb)" style="fill: none; stroke: #3d3d3d; stroke-width: 1.5; stroke-linecap: square"/>
   </g>
   <g id="line2d_108">
    <path d="M 239.413886 55.089767 
L 250.787495 55.089767 
" clip-path="url(#p5de44a27fb)" style="fill: none; stroke: #3d3d3d; stroke-width: 1.5; stroke-linecap: square"/>
   </g>
   <g id="line2d_109">
    <path d="M 251.01961 142.207518 
L 262.393219 142.207518 
" clip-path="url(#p5de44a27fb)" style="fill: none; stroke: #3d3d3d; stroke-width: 1.5; stroke-linecap: square"/>
   </g>
   <g id="line2d_110">
    <path d="M 262.625334 97.765525 
L 273.998943 97.765525 
" clip-path="url(#p5de44a27fb)" style="fill: none; stroke: #3d3d3d; stroke-width: 1.5; stroke-linecap: square"/>
   </g>
   <g id="patch_23">
    <path d="M 53.60625 147.191593 
L 53.60625 22.318125 
" style="fill: none; stroke: #000000; stroke-width: 0.8; stroke-linejoin: miter; stroke-linecap: square"/>
   </g>
   <g id="patch_24">
    <path d="M 274.115 147.191593 
L 274.115 22.318125 
" style="fill: none; stroke: #000000; stroke-width: 0.8; stroke-linejoin: miter; stroke-linecap: square"/>
   </g>
   <g id="patch_25">
    <path d="M 53.60625 147.191593 
L 274.115 147.191593 
" style="fill: none; stroke: #000000; stroke-width: 0.8; stroke-linejoin: miter; stroke-linecap: square"/>
   </g>
   <g id="patch_26">
    <path d="M 53.60625 22.318125 
L 274.115 22.318125 
" style="fill: none; stroke: #000000; stroke-width: 0.8; stroke-linejoin: miter; stroke-linecap: square"/>
   </g>
   <g id="PathCollection_1">
    <defs>
     <path id="C0_0_41bfccd4af" d="M 0 1.5 
C 0.397805 1.5 0.77937 1.341951 1.06066 1.06066 
C 1.341951 0.77937 1.5 0.397805 1.5 -0 
C 1.5 -0.397805 1.341951 -0.77937 1.06066 -1.06066 
C 0.77937 -1.341951 0.397805 -1.5 0 -1.5 
C -0.397805 -1.5 -0.77937 -1.341951 -1.06066 -1.06066 
C -1.341951 -0.77937 -1.5 -0.397805 -1.5 0 
C -1.5 0.397805 -1.341951 0.77937 -1.06066 1.06066 
C -0.77937 1.341951 -0.397805 1.5 0 1.5 
z
"/>
    </defs>
    <g clip-path="url(#p5de44a27fb)">
     <use xlink:href="#C0_0_41bfccd4af" x="58.900078" y="137.225707" style="fill: #262626"/>
    </g>
    <g clip-path="url(#p5de44a27fb)">
     <use xlink:href="#C0_0_41bfccd4af" x="60.106312" y="137.732671" style="fill: #262626"/>
    </g>
    <g clip-path="url(#p5de44a27fb)">
     <use xlink:href="#C0_0_41bfccd4af" x="59.987968" y="137.38332" style="fill: #262626"/>
    </g>
    <g clip-path="url(#p5de44a27fb)">
     <use xlink:href="#C0_0_41bfccd4af" x="59.136488" y="137.741337" style="fill: #262626"/>
    </g>
    <g clip-path="url(#p5de44a27fb)">
     <use xlink:href="#C0_0_41bfccd4af" x="60.794025" y="137.78795" style="fill: #262626"/>
    </g>
   </g>
   <g id="PathCollection_2">
    <defs>
     <path id="C1_0_ba2bbca643" d="M 0 1.5 
C 0.397805 1.5 0.77937 1.341951 1.06066 1.06066 
C 1.341951 0.77937 1.5 0.397805 1.5 -0 
C 1.5 -0.397805 1.341951 -0.77937 1.06066 -1.06066 
C 0.77937 -1.341951 0.397805 -1.5 0 -1.5 
C -0.397805 -1.5 -0.77937 -1.341951 -1.06066 -1.06066 
C -1.341951 -0.77937 -1.5 -0.397805 -1.5 0 
C -1.5 0.397805 -1.341951 0.77937 -1.06066 1.06066 
C -0.77937 1.341951 -0.397805 1.5 0 1.5 
z
"/>
    </defs>
    <g clip-path="url(#p5de44a27fb)">
     <use xlink:href="#C1_0_ba2bbca643" x="69.749464" y="90.025036" style="fill: #191919"/>
    </g>
    <g clip-path="url(#p5de44a27fb)">
     <use xlink:href="#C1_0_ba2bbca643" x="70.995483" y="84.51511" style="fill: #191919"/>
    </g>
    <g clip-path="url(#p5de44a27fb)">
     <use xlink:href="#C1_0_ba2bbca643" x="69.619527" y="90.786945" style="fill: #191919"/>
    </g>
    <g clip-path="url(#p5de44a27fb)">
     <use xlink:href="#C1_0_ba2bbca643" x="72.393357" y="97.784709" style="fill: #191919"/>
    </g>
    <g clip-path="url(#p5de44a27fb)">
     <use xlink:href="#C1_0_ba2bbca643" x="72.334094" y="98.631597" style="fill: #191919"/>
    </g>
   </g>
   <g id="PathCollection_3">
    <defs>
     <path id="C2_0_f7ad44ab0d" d="M 0 1.5 
C 0.397805 1.5 0.77937 1.341951 1.06066 1.06066 
C 1.341951 0.77937 1.5 0.397805 1.5 -0 
C 1.5 -0.397805 1.341951 -0.77937 1.06066 -1.06066 
C 0.77937 -1.341951 0.397805 -1.5 0 -1.5 
C -0.397805 -1.5 -0.77937 -1.341951 -1.06066 -1.06066 
C -1.341951 -0.77937 -1.5 -0.397805 -1.5 0 
C -1.5 0.397805 -1.341951 0.77937 -1.06066 1.06066 
C -0.77937 1.341951 -0.397805 1.5 0 1.5 
z
"/>
    </defs>
    <g clip-path="url(#p5de44a27fb)">
     <use xlink:href="#C2_0_f7ad44ab0d" x="83.614657" y="142.141106" style="fill: #0d0d0d"/>
    </g>
    <g clip-path="url(#p5de44a27fb)">
     <use xlink:href="#C2_0_f7ad44ab0d" x="83.507986" y="141.946331" style="fill: #0d0d0d"/>
    </g>
    <g clip-path="url(#p5de44a27fb)">
     <use xlink:href="#C2_0_f7ad44ab0d" x="83.998532" y="141.829707" style="fill: #0d0d0d"/>
    </g>
    <g clip-path="url(#p5de44a27fb)">
     <use xlink:href="#C2_0_f7ad44ab0d" x="82.334514" y="142.172176" style="fill: #0d0d0d"/>
    </g>
    <g clip-path="url(#p5de44a27fb)">
     <use xlink:href="#C2_0_f7ad44ab0d" x="83.807704" y="142.180445" style="fill: #0d0d0d"/>
    </g>
   </g>
   <g id="PathCollection_4">
    <defs>
     <path id="C3_0_08f158afe0" d="M 0 1.5 
C 0.397805 1.5 0.77937 1.341951 1.06066 1.06066 
C 1.341951 0.77937 1.5 0.397805 1.5 -0 
C 1.5 -0.397805 1.341951 -0.77937 1.06066 -1.06066 
C 0.77937 -1.341951 0.397805 -1.5 0 -1.5 
C -0.397805 -1.5 -0.77937 -1.341951 -1.06066 -1.06066 
C -1.341951 -0.77937 -1.5 -0.397805 -1.5 0 
C -1.5 0.397805 -1.341951 0.77937 -1.06066 1.06066 
C -0.77937 1.341951 -0.397805 1.5 0 1.5 
z
"/>
    </defs>
    <g clip-path="url(#p5de44a27fb)">
     <use xlink:href="#C3_0_08f158afe0" x="95.631645" y="94.880263"/>
    </g>
    <g clip-path="url(#p5de44a27fb)">
     <use xlink:href="#C3_0_08f158afe0" x="93.234381" y="107.299601"/>
    </g>
    <g clip-path="url(#p5de44a27fb)">
     <use xlink:href="#C3_0_08f158afe0" x="93.493443" y="103.718471"/>
    </g>
    <g clip-path="url(#p5de44a27fb)">
     <use xlink:href="#C3_0_08f158afe0" x="94.104075" y="111.385792"/>
    </g>
    <g clip-path="url(#p5de44a27fb)">
     <use xlink:href="#C3_0_08f158afe0" x="93.17981" y="111.445688"/>
    </g>
   </g>
   <g id="PathCollection_5">
    <defs>
     <path id="C4_0_02c8b45e1f" d="M 0 1.5 
C 0.397805 1.5 0.77937 1.341951 1.06066 1.06066 
C 1.341951 0.77937 1.5 0.397805 1.5 -0 
C 1.5 -0.397805 1.341951 -0.77937 1.06066 -1.06066 
C 0.77937 -1.341951 0.397805 -1.5 0 -1.5 
C -0.397805 -1.5 -0.77937 -1.341951 -1.06066 -1.06066 
C -1.341951 -0.77937 -1.5 -0.397805 -1.5 0 
C -1.5 0.397805 -1.341951 0.77937 -1.06066 1.06066 
C -0.77937 1.341951 -0.397805 1.5 0 1.5 
z
"/>
    </defs>
    <g clip-path="url(#p5de44a27fb)">
     <use xlink:href="#C4_0_02c8b45e1f" x="117.454419" y="137.213202" style="fill: #262626"/>
    </g>
    <g clip-path="url(#p5de44a27fb)">
     <use xlink:href="#C4_0_02c8b45e1f" x="116.78298" y="137.750001" style="fill: #262626"/>
    </g>
    <g clip-path="url(#p5de44a27fb)">
     <use xlink:href="#C4_0_02c8b45e1f" x="116.16554" y="137.181788" style="fill: #262626"/>
    </g>
    <g clip-path="url(#p5de44a27fb)">
     <use xlink:href="#C4_0_02c8b45e1f" x="118.068481" y="137.61761" style="fill: #262626"/>
    </g>
    <g clip-path="url(#p5de44a27fb)">
     <use xlink:href="#C4_0_02c8b45e1f" x="118.384787" y="137.610097" style="fill: #262626"/>
    </g>
   </g>
   <g id="PathCollection_6">
    <defs>
     <path id="C5_0_478336d375" d="M 0 1.5 
C 0.397805 1.5 0.77937 1.341951 1.06066 1.06066 
C 1.341951 0.77937 1.5 0.397805 1.5 -0 
C 1.5 -0.397805 1.341951 -0.77937 1.06066 -1.06066 
C 0.77937 -1.341951 0.397805 -1.5 0 -1.5 
C -0.397805 -1.5 -0.77937 -1.341951 -1.06066 -1.06066 
C -1.341951 -0.77937 -1.5 -0.397805 -1.5 0 
C -1.5 0.397805 -1.341951 0.77937 -1.06066 1.06066 
C -0.77937 1.341951 -0.397805 1.5 0 1.5 
z
"/>
    </defs>
    <g clip-path="url(#p5de44a27fb)">
     <use xlink:href="#C5_0_478336d375" x="128.066923" y="90.96793" style="fill: #191919"/>
    </g>
    <g clip-path="url(#p5de44a27fb)">
     <use xlink:href="#C5_0_478336d375" x="128.410585" y="88.127229" style="fill: #191919"/>
    </g>
    <g clip-path="url(#p5de44a27fb)">
     <use xlink:href="#C5_0_478336d375" x="129.572673" y="83.407954" style="fill: #191919"/>
    </g>
    <g clip-path="url(#p5de44a27fb)">
     <use xlink:href="#C5_0_478336d375" x="130.491454" y="92.659149" style="fill: #191919"/>
    </g>
    <g clip-path="url(#p5de44a27fb)">
     <use xlink:href="#C5_0_478336d375" x="128.921643" y="92.471591" style="fill: #191919"/>
    </g>
   </g>
   <g id="PathCollection_7">
    <defs>
     <path id="C6_0_0fbe48f1bd" d="M 0 1.5 
C 0.397805 1.5 0.77937 1.341951 1.06066 1.06066 
C 1.341951 0.77937 1.5 0.397805 1.5 -0 
C 1.5 -0.397805 1.341951 -0.77937 1.06066 -1.06066 
C 0.77937 -1.341951 0.397805 -1.5 0 -1.5 
C -0.397805 -1.5 -0.77937 -1.341951 -1.06066 -1.06066 
C -1.341951 -0.77937 -1.5 -0.397805 -1.5 0 
C -1.5 0.397805 -1.341951 0.77937 -1.06066 1.06066 
C -0.77937 1.341951 -0.397805 1.5 0 1.5 
z
"/>
    </defs>
    <g clip-path="url(#p5de44a27fb)">
     <use xlink:href="#C6_0_0fbe48f1bd" x="141.284951" y="141.832258" style="fill: #0d0d0d"/>
    </g>
    <g clip-path="url(#p5de44a27fb)">
     <use xlink:href="#C6_0_0fbe48f1bd" x="141.06953" y="141.916549" style="fill: #0d0d0d"/>
    </g>
    <g clip-path="url(#p5de44a27fb)">
     <use xlink:href="#C6_0_0fbe48f1bd" x="141.802022" y="141.951134" style="fill: #0d0d0d"/>
    </g>
    <g clip-path="url(#p5de44a27fb)">
     <use xlink:href="#C6_0_0fbe48f1bd" x="140.352003" y="142.066241" style="fill: #0d0d0d"/>
    </g>
    <g clip-path="url(#p5de44a27fb)">
     <use xlink:href="#C6_0_0fbe48f1bd" x="141.939846" y="142.004704" style="fill: #0d0d0d"/>
    </g>
   </g>
   <g id="PathCollection_8">
    <defs>
     <path id="C7_0_1bbade8e64" d="M 0 1.5 
C 0.397805 1.5 0.77937 1.341951 1.06066 1.06066 
C 1.341951 0.77937 1.5 0.397805 1.5 -0 
C 1.5 -0.397805 1.341951 -0.77937 1.06066 -1.06066 
C 0.77937 -1.341951 0.397805 -1.5 0 -1.5 
C -0.397805 -1.5 -0.77937 -1.341951 -1.06066 -1.06066 
C -1.341951 -0.77937 -1.5 -0.397805 -1.5 0 
C -1.5 0.397805 -1.341951 0.77937 -1.06066 1.06066 
C -0.77937 1.341951 -0.397805 1.5 0 1.5 
z
"/>
    </defs>
    <g clip-path="url(#p5de44a27fb)">
     <use xlink:href="#C7_0_1bbade8e64" x="152.310725" y="97.793813"/>
    </g>
    <g clip-path="url(#p5de44a27fb)">
     <use xlink:href="#C7_0_1bbade8e64" x="152.563875" y="102.335694"/>
    </g>
    <g clip-path="url(#p5de44a27fb)">
     <use xlink:href="#C7_0_1bbade8e64" x="152.915849" y="102.029483"/>
    </g>
    <g clip-path="url(#p5de44a27fb)">
     <use xlink:href="#C7_0_1bbade8e64" x="152.832683" y="107.914447"/>
    </g>
    <g clip-path="url(#p5de44a27fb)">
     <use xlink:href="#C7_0_1bbade8e64" x="151.724206" y="107.409546"/>
    </g>
   </g>
   <g id="PathCollection_9">
    <defs>
     <path id="C8_0_da06b264d3" d="M 0 1.5 
C 0.397805 1.5 0.77937 1.341951 1.06066 1.06066 
C 1.341951 0.77937 1.5 0.397805 1.5 -0 
C 1.5 -0.397805 1.341951 -0.77937 1.06066 -1.06066 
C 0.77937 -1.341951 0.397805 -1.5 0 -1.5 
C -0.397805 -1.5 -0.77937 -1.341951 -1.06066 -1.06066 
C -1.341951 -0.77937 -1.5 -0.397805 -1.5 0 
C -1.5 0.397805 -1.341951 0.77937 -1.06066 1.06066 
C -0.77937 1.341951 -0.397805 1.5 0 1.5 
z
"/>
    </defs>
    <g clip-path="url(#p5de44a27fb)">
     <use xlink:href="#C8_0_da06b264d3" x="176.107872" y="137.322596" style="fill: #262626"/>
    </g>
    <g clip-path="url(#p5de44a27fb)">
     <use xlink:href="#C8_0_da06b264d3" x="175.57923" y="137.637112" style="fill: #262626"/>
    </g>
    <g clip-path="url(#p5de44a27fb)">
     <use xlink:href="#C8_0_da06b264d3" x="174.998102" y="137.308959" style="fill: #262626"/>
    </g>
    <g clip-path="url(#p5de44a27fb)">
     <use xlink:href="#C8_0_da06b264d3" x="176.808356" y="137.541917" style="fill: #262626"/>
    </g>
    <g clip-path="url(#p5de44a27fb)">
     <use xlink:href="#C8_0_da06b264d3" x="175.990938" y="137.628367" style="fill: #262626"/>
    </g>
   </g>
   <g id="PathCollection_10">
    <defs>
     <path id="C9_0_885e21a227" d="M 0 1.5 
C 0.397805 1.5 0.77937 1.341951 1.06066 1.06066 
C 1.341951 0.77937 1.5 0.397805 1.5 -0 
C 1.5 -0.397805 1.341951 -0.77937 1.06066 -1.06066 
C 0.77937 -1.341951 0.397805 -1.5 0 -1.5 
C -0.397805 -1.5 -0.77937 -1.341951 -1.06066 -1.06066 
C -1.341951 -0.77937 -1.5 -0.397805 -1.5 0 
C -1.5 0.397805 -1.341951 0.77937 -1.06066 1.06066 
C -0.77937 1.341951 -0.397805 1.5 0 1.5 
z
"/>
    </defs>
    <g clip-path="url(#p5de44a27fb)">
     <use xlink:href="#C9_0_885e21a227" x="187.74487" y="85.18078" style="fill: #191919"/>
    </g>
    <g clip-path="url(#p5de44a27fb)">
     <use xlink:href="#C9_0_885e21a227" x="187.111865" y="84.596321" style="fill: #191919"/>
    </g>
    <g clip-path="url(#p5de44a27fb)">
     <use xlink:href="#C9_0_885e21a227" x="186.648234" y="81.566556" style="fill: #191919"/>
    </g>
    <g clip-path="url(#p5de44a27fb)">
     <use xlink:href="#C9_0_885e21a227" x="187.139451" y="94.626073" style="fill: #191919"/>
    </g>
    <g clip-path="url(#p5de44a27fb)">
     <use xlink:href="#C9_0_885e21a227" x="187.206205" y="95.521966" style="fill: #191919"/>
    </g>
   </g>
   <g id="PathCollection_11">
    <defs>
     <path id="Ca_0_ad577a0a6e" d="M 0 1.5 
C 0.397805 1.5 0.77937 1.341951 1.06066 1.06066 
C 1.341951 0.77937 1.5 0.397805 1.5 -0 
C 1.5 -0.397805 1.341951 -0.77937 1.06066 -1.06066 
C 0.77937 -1.341951 0.397805 -1.5 0 -1.5 
C -0.397805 -1.5 -0.77937 -1.341951 -1.06066 -1.06066 
C -1.341951 -0.77937 -1.5 -0.397805 -1.5 0 
C -1.5 0.397805 -1.341951 0.77937 -1.06066 1.06066 
C -0.77937 1.341951 -0.397805 1.5 0 1.5 
z
"/>
    </defs>
    <g clip-path="url(#p5de44a27fb)">
     <use xlink:href="#Ca_0_ad577a0a6e" x="199.002322" y="141.840737" style="fill: #0d0d0d"/>
    </g>
    <g clip-path="url(#p5de44a27fb)">
     <use xlink:href="#Ca_0_ad577a0a6e" x="197.313768" y="141.996093" style="fill: #0d0d0d"/>
    </g>
    <g clip-path="url(#p5de44a27fb)">
     <use xlink:href="#Ca_0_ad577a0a6e" x="199.16367" y="142.046231" style="fill: #0d0d0d"/>
    </g>
    <g clip-path="url(#p5de44a27fb)">
     <use xlink:href="#Ca_0_ad577a0a6e" x="199.354204" y="142.071251" style="fill: #0d0d0d"/>
    </g>
    <g clip-path="url(#p5de44a27fb)">
     <use xlink:href="#Ca_0_ad577a0a6e" x="200.018542" y="142.087551" style="fill: #0d0d0d"/>
    </g>
   </g>
   <g id="PathCollection_12">
    <defs>
     <path id="Cb_0_f6c0286b19" d="M 0 1.5 
C 0.397805 1.5 0.77937 1.341951 1.06066 1.06066 
C 1.341951 0.77937 1.5 0.397805 1.5 -0 
C 1.5 -0.397805 1.341951 -0.77937 1.06066 -1.06066 
C 0.77937 -1.341951 0.397805 -1.5 0 -1.5 
C -0.397805 -1.5 -0.77937 -1.341951 -1.06066 -1.06066 
C -1.341951 -0.77937 -1.5 -0.397805 -1.5 0 
C -1.5 0.397805 -1.341951 0.77937 -1.06066 1.06066 
C -0.77937 1.341951 -0.397805 1.5 0 1.5 
z
"/>
    </defs>
    <g clip-path="url(#p5de44a27fb)">
     <use xlink:href="#Cb_0_f6c0286b19" x="210.234632" y="104.960045"/>
    </g>
    <g clip-path="url(#p5de44a27fb)">
     <use xlink:href="#Cb_0_f6c0286b19" x="209.821392" y="102.955883"/>
    </g>
    <g clip-path="url(#p5de44a27fb)">
     <use xlink:href="#Cb_0_f6c0286b19" x="211.589711" y="95.920544"/>
    </g>
    <g clip-path="url(#p5de44a27fb)">
     <use xlink:href="#Cb_0_f6c0286b19" x="209.303768" y="105.62367"/>
    </g>
    <g clip-path="url(#p5de44a27fb)">
     <use xlink:href="#Cb_0_f6c0286b19" x="210.959317" y="107.101431"/>
    </g>
   </g>
   <g id="PathCollection_13">
    <defs>
     <path id="Cc_0_6ca80f956a" d="M 0 1.5 
C 0.397805 1.5 0.77937 1.341951 1.06066 1.06066 
C 1.341951 0.77937 1.5 0.397805 1.5 -0 
C 1.5 -0.397805 1.341951 -0.77937 1.06066 -1.06066 
C 0.77937 -1.341951 0.397805 -1.5 0 -1.5 
C -0.397805 -1.5 -0.77937 -1.341951 -1.06066 -1.06066 
C -1.341951 -0.77937 -1.5 -0.397805 -1.5 0 
C -1.5 0.397805 -1.341951 0.77937 -1.06066 1.06066 
C -0.77937 1.341951 -0.397805 1.5 0 1.5 
z
"/>
    </defs>
    <g clip-path="url(#p5de44a27fb)">
     <use xlink:href="#Cc_0_6ca80f956a" x="233.796365" y="137.754804" style="fill: #262626"/>
    </g>
    <g clip-path="url(#p5de44a27fb)">
     <use xlink:href="#Cc_0_6ca80f956a" x="232.433759" y="138.14158" style="fill: #262626"/>
    </g>
    <g clip-path="url(#p5de44a27fb)">
     <use xlink:href="#Cc_0_6ca80f956a" x="232.208211" y="137.54612" style="fill: #262626"/>
    </g>
    <g clip-path="url(#p5de44a27fb)">
     <use xlink:href="#Cc_0_6ca80f956a" x="234.533011" y="137.963809" style="fill: #262626"/>
    </g>
    <g clip-path="url(#p5de44a27fb)">
     <use xlink:href="#Cc_0_6ca80f956a" x="233.470582" y="138.002743" style="fill: #262626"/>
    </g>
   </g>
   <g id="PathCollection_14">
    <defs>
     <path id="Cd_0_b161fe55da" d="M 0 1.5 
C 0.397805 1.5 0.77937 1.341951 1.06066 1.06066 
C 1.341951 0.77937 1.5 0.397805 1.5 -0 
C 1.5 -0.397805 1.341951 -0.77937 1.06066 -1.06066 
C 0.77937 -1.341951 0.397805 -1.5 0 -1.5 
C -0.397805 -1.5 -0.77937 -1.341951 -1.06066 -1.06066 
C -1.341951 -0.77937 -1.5 -0.397805 -1.5 0 
C -1.5 0.397805 -1.341951 0.77937 -1.06066 1.06066 
C -0.77937 1.341951 -0.397805 1.5 0 1.5 
z
"/>
    </defs>
    <g clip-path="url(#p5de44a27fb)">
     <use xlink:href="#Cd_0_b161fe55da" x="246.018898" y="55.089767" style="fill: #191919"/>
    </g>
    <g clip-path="url(#p5de44a27fb)">
     <use xlink:href="#Cd_0_b161fe55da" x="246.504991" y="49.402974" style="fill: #191919"/>
    </g>
    <g clip-path="url(#p5de44a27fb)">
     <use xlink:href="#Cd_0_b161fe55da" x="245.10353" y="43.108202" style="fill: #191919"/>
    </g>
    <g clip-path="url(#p5de44a27fb)">
     <use xlink:href="#Cd_0_b161fe55da" x="245.746243" y="64.280038" style="fill: #191919"/>
    </g>
    <g clip-path="url(#p5de44a27fb)">
     <use xlink:href="#Cd_0_b161fe55da" x="243.69764" y="59.189106" style="fill: #191919"/>
    </g>
   </g>
   <g id="PathCollection_15">
    <defs>
     <path id="Ce_0_9aa4ec4917" d="M 0 1.5 
C 0.397805 1.5 0.77937 1.341951 1.06066 1.06066 
C 1.341951 0.77937 1.5 0.397805 1.5 -0 
C 1.5 -0.397805 1.341951 -0.77937 1.06066 -1.06066 
C 0.77937 -1.341951 0.397805 -1.5 0 -1.5 
C -0.397805 -1.5 -0.77937 -1.341951 -1.06066 -1.06066 
C -1.341951 -0.77937 -1.5 -0.397805 -1.5 0 
C -1.5 0.397805 -1.341951 0.77937 -1.06066 1.06066 
C -0.77937 1.341951 -0.397805 1.5 0 1.5 
z
"/>
    </defs>
    <g clip-path="url(#p5de44a27fb)">
     <use xlink:href="#Ce_0_9aa4ec4917" x="256.227806" y="142.045731" style="fill: #0d0d0d"/>
    </g>
    <g clip-path="url(#p5de44a27fb)">
     <use xlink:href="#Ce_0_9aa4ec4917" x="256.671735" y="142.221269" style="fill: #0d0d0d"/>
    </g>
    <g clip-path="url(#p5de44a27fb)">
     <use xlink:href="#Ce_0_9aa4ec4917" x="255.729124" y="142.09304" style="fill: #0d0d0d"/>
    </g>
    <g clip-path="url(#p5de44a27fb)">
     <use xlink:href="#Ce_0_9aa4ec4917" x="255.825176" y="142.207518" style="fill: #0d0d0d"/>
    </g>
    <g clip-path="url(#p5de44a27fb)">
     <use xlink:href="#Ce_0_9aa4ec4917" x="256.810103" y="142.235241" style="fill: #0d0d0d"/>
    </g>
   </g>
   <g id="PathCollection_16">
    <defs>
     <path id="Cf_0_6ca437e816" d="M 0 1.5 
C 0.397805 1.5 0.77937 1.341951 1.06066 1.06066 
C 1.341951 0.77937 1.5 0.397805 1.5 -0 
C 1.5 -0.397805 1.341951 -0.77937 1.06066 -1.06066 
C 0.77937 -1.341951 0.397805 -1.5 0 -1.5 
C -0.397805 -1.5 -0.77937 -1.341951 -1.06066 -1.06066 
C -1.341951 -0.77937 -1.5 -0.397805 -1.5 0 
C -1.5 0.397805 -1.341951 0.77937 -1.06066 1.06066 
C -0.77937 1.341951 -0.397805 1.5 0 1.5 
z
"/>
    </defs>
    <g clip-path="url(#p5de44a27fb)">
     <use xlink:href="#Cf_0_6ca437e816" x="268.694594" y="97.765525"/>
    </g>
    <g clip-path="url(#p5de44a27fb)">
     <use xlink:href="#Cf_0_6ca437e816" x="267.669907" y="88.116743"/>
    </g>
    <g clip-path="url(#p5de44a27fb)">
     <use xlink:href="#Cf_0_6ca437e816" x="268.713979" y="93.430922"/>
    </g>
    <g clip-path="url(#p5de44a27fb)">
     <use xlink:href="#Cf_0_6ca437e816" x="268.285975" y="101.83199"/>
    </g>
    <g clip-path="url(#p5de44a27fb)">
     <use xlink:href="#Cf_0_6ca437e816" x="267.810513" y="102.041807"/>
    </g>
   </g>
   <g id="text_13">
    <!-- * -->
    <g transform="translate(74.317697 72.712243) scale(0.1 -0.1)">
     <defs>
      <path id="DejaVuSans-2a" d="M 3009 3897 
L 1888 3291 
L 3009 2681 
L 2828 2375 
L 1778 3009 
L 1778 1831 
L 1422 1831 
L 1422 3009 
L 372 2375 
L 191 2681 
L 1313 3291 
L 191 3897 
L 372 4206 
L 1422 3572 
L 1422 4750 
L 1778 4750 
L 1778 3572 
L 2828 4206 
L 3009 3897 
z
" transform="scale(0.015625)"/>
     </defs>
     <use xlink:href="#DejaVuSans-2a"/>
    </g>
   </g>
   <g id="text_14">
    <!-- * -->
    <g transform="translate(132.346316 71.605087) scale(0.1 -0.1)">
     <use xlink:href="#DejaVuSans-2a"/>
    </g>
   </g>
   <g id="text_15">
    <!-- * -->
    <g transform="translate(190.374934 69.763689) scale(0.1 -0.1)">
     <use xlink:href="#DejaVuSans-2a"/>
    </g>
   </g>
   <g id="text_16">
    <!-- * -->
    <g transform="translate(248.403553 31.305335) scale(0.1 -0.1)">
     <use xlink:href="#DejaVuSans-2a"/>
    </g>
   </g>
   <g id="text_17">
    <!-- enron -->
    <g transform="translate(146.560937 16.318125) scale(0.12 -0.12)">
     <use xlink:href="#DejaVuSans-65"/>
     <use xlink:href="#DejaVuSans-6e" x="61.523438"/>
     <use xlink:href="#DejaVuSans-72" x="124.902344"/>
     <use xlink:href="#DejaVuSans-6f" x="163.765625"/>
     <use xlink:href="#DejaVuSans-6e" x="224.947266"/>
    </g>
   </g>
   <g id="legend_1">
    <g id="patch_27">
     <path d="M 281.115 142.191593 
L 400.92125 142.191593 
Q 402.92125 142.191593 402.92125 140.191593 
L 402.92125 81.922843 
Q 402.92125 79.922843 400.92125 79.922843 
L 281.115 79.922843 
Q 279.115 79.922843 279.115 81.922843 
L 279.115 140.191593 
Q 279.115 142.191593 281.115 142.191593 
z
" style="fill: #ffffff; opacity: 0.8; stroke: #cccccc; stroke-linejoin: miter"/>
    </g>
    <g id="patch_28">
     <path d="M 283.115 91.52128 
L 303.115 91.52128 
L 303.115 84.52128 
L 283.115 84.52128 
z
" style="fill: #3274a1; stroke: #3d3d3d; stroke-width: 0.75; stroke-linejoin: miter"/>
    </g>
    <g id="text_18">
     <!-- proba_weak -->
     <g transform="translate(311.115 91.52128) scale(0.1 -0.1)">
      <defs>
       <path id="DejaVuSans-62" d="M 3116 1747 
Q 3116 2381 2855 2742 
Q 2594 3103 2138 3103 
Q 1681 3103 1420 2742 
Q 1159 2381 1159 1747 
Q 1159 1113 1420 752 
Q 1681 391 2138 391 
Q 2594 391 2855 752 
Q 3116 1113 3116 1747 
z
M 1159 2969 
Q 1341 3281 1617 3432 
Q 1894 3584 2278 3584 
Q 2916 3584 3314 3078 
Q 3713 2572 3713 1747 
Q 3713 922 3314 415 
Q 2916 -91 2278 -91 
Q 1894 -91 1617 61 
Q 1341 213 1159 525 
L 1159 0 
L 581 0 
L 581 4863 
L 1159 4863 
L 1159 2969 
z
" transform="scale(0.015625)"/>
       <path id="DejaVuSans-77" d="M 269 3500 
L 844 3500 
L 1563 769 
L 2278 3500 
L 2956 3500 
L 3675 769 
L 4391 3500 
L 4966 3500 
L 4050 0 
L 3372 0 
L 2619 2869 
L 1863 0 
L 1184 0 
L 269 3500 
z
" transform="scale(0.015625)"/>
       <path id="DejaVuSans-6b" d="M 581 4863 
L 1159 4863 
L 1159 1991 
L 2875 3500 
L 3609 3500 
L 1753 1863 
L 3688 0 
L 2938 0 
L 1159 1709 
L 1159 0 
L 581 0 
L 581 4863 
z
" transform="scale(0.015625)"/>
      </defs>
      <use xlink:href="#DejaVuSans-70"/>
      <use xlink:href="#DejaVuSans-72" x="63.476562"/>
      <use xlink:href="#DejaVuSans-6f" x="102.339844"/>
      <use xlink:href="#DejaVuSans-62" x="163.521484"/>
      <use xlink:href="#DejaVuSans-61" x="226.998047"/>
      <use xlink:href="#DejaVuSans-5f" x="288.277344"/>
      <use xlink:href="#DejaVuSans-77" x="338.277344"/>
      <use xlink:href="#DejaVuSans-65" x="420.064453"/>
      <use xlink:href="#DejaVuSans-61" x="481.587891"/>
      <use xlink:href="#DejaVuSans-6b" x="542.867188"/>
     </g>
    </g>
    <g id="patch_29">
     <path d="M 283.115 106.47753 
L 303.115 106.47753 
L 303.115 99.47753 
L 283.115 99.47753 
z
" style="fill: #e1812c; stroke: #3d3d3d; stroke-width: 0.75; stroke-linejoin: miter"/>
    </g>
    <g id="text_19">
     <!-- embedding_weak -->
     <g transform="translate(311.115 106.47753) scale(0.1 -0.1)">
      <defs>
       <path id="DejaVuSans-67" d="M 2906 1791 
Q 2906 2416 2648 2759 
Q 2391 3103 1925 3103 
Q 1463 3103 1205 2759 
Q 947 2416 947 1791 
Q 947 1169 1205 825 
Q 1463 481 1925 481 
Q 2391 481 2648 825 
Q 2906 1169 2906 1791 
z
M 3481 434 
Q 3481 -459 3084 -895 
Q 2688 -1331 1869 -1331 
Q 1566 -1331 1297 -1286 
Q 1028 -1241 775 -1147 
L 775 -588 
Q 1028 -725 1275 -790 
Q 1522 -856 1778 -856 
Q 2344 -856 2625 -561 
Q 2906 -266 2906 331 
L 2906 616 
Q 2728 306 2450 153 
Q 2172 0 1784 0 
Q 1141 0 747 490 
Q 353 981 353 1791 
Q 353 2603 747 3093 
Q 1141 3584 1784 3584 
Q 2172 3584 2450 3431 
Q 2728 3278 2906 2969 
L 2906 3500 
L 3481 3500 
L 3481 434 
z
" transform="scale(0.015625)"/>
      </defs>
      <use xlink:href="#DejaVuSans-65"/>
      <use xlink:href="#DejaVuSans-6d" x="61.523438"/>
      <use xlink:href="#DejaVuSans-62" x="158.935547"/>
      <use xlink:href="#DejaVuSans-65" x="222.412109"/>
      <use xlink:href="#DejaVuSans-64" x="283.935547"/>
      <use xlink:href="#DejaVuSans-64" x="347.412109"/>
      <use xlink:href="#DejaVuSans-69" x="410.888672"/>
      <use xlink:href="#DejaVuSans-6e" x="438.671875"/>
      <use xlink:href="#DejaVuSans-67" x="502.050781"/>
      <use xlink:href="#DejaVuSans-5f" x="565.527344"/>
      <use xlink:href="#DejaVuSans-77" x="615.527344"/>
      <use xlink:href="#DejaVuSans-65" x="697.314453"/>
      <use xlink:href="#DejaVuSans-61" x="758.837891"/>
      <use xlink:href="#DejaVuSans-6b" x="820.117188"/>
     </g>
    </g>
    <g id="patch_30">
     <path d="M 283.115 121.43378 
L 303.115 121.43378 
L 303.115 114.43378 
L 283.115 114.43378 
z
" style="fill: #3a923a; stroke: #3d3d3d; stroke-width: 0.75; stroke-linejoin: miter"/>
    </g>
    <g id="text_20">
     <!-- proba -->
     <g transform="translate(311.115 121.43378) scale(0.1 -0.1)">
      <use xlink:href="#DejaVuSans-70"/>
      <use xlink:href="#DejaVuSans-72" x="63.476562"/>
      <use xlink:href="#DejaVuSans-6f" x="102.339844"/>
      <use xlink:href="#DejaVuSans-62" x="163.521484"/>
      <use xlink:href="#DejaVuSans-61" x="226.998047"/>
     </g>
    </g>
    <g id="patch_31">
     <path d="M 283.115 136.111905 
L 303.115 136.111905 
L 303.115 129.111905 
L 283.115 129.111905 
z
" style="fill: #c03d3e; stroke: #3d3d3d; stroke-width: 0.75; stroke-linejoin: miter"/>
    </g>
    <g id="text_21">
     <!-- embedding -->
     <g transform="translate(311.115 136.111905) scale(0.1 -0.1)">
      <use xlink:href="#DejaVuSans-65"/>
      <use xlink:href="#DejaVuSans-6d" x="61.523438"/>
      <use xlink:href="#DejaVuSans-62" x="158.935547"/>
      <use xlink:href="#DejaVuSans-65" x="222.412109"/>
      <use xlink:href="#DejaVuSans-64" x="283.935547"/>
      <use xlink:href="#DejaVuSans-64" x="347.412109"/>
      <use xlink:href="#DejaVuSans-69" x="410.888672"/>
      <use xlink:href="#DejaVuSans-6e" x="438.671875"/>
      <use xlink:href="#DejaVuSans-67" x="502.050781"/>
     </g>
    </g>
   </g>
  </g>
 </g>
 <defs>
  <clipPath id="p5de44a27fb">
   <rect x="53.60625" y="22.318125" width="220.50875" height="124.873468"/>
  </clipPath>
 </defs>
</svg>
