<?xml version="1.0" encoding="utf-8" standalone="no"?>
<!DOCTYPE svg PUBLIC "-//W3C//DTD SVG 1.1//EN"
  "http://www.w3.org/Graphics/SVG/1.1/DTD/svg11.dtd">
<svg xmlns:xlink="http://www.w3.org/1999/xlink" width="410.05875pt" height="207.241673pt" viewBox="0 0 410.05875 207.241673" xmlns="http://www.w3.org/2000/svg" version="1.1">
 <metadata>
  <rdf:RDF xmlns:dc="http://purl.org/dc/elements/1.1/" xmlns:cc="http://creativecommons.org/ns#" xmlns:rdf="http://www.w3.org/1999/02/22-rdf-syntax-ns#">
   <cc:Work>
    <dc:type rdf:resource="http://purl.org/dc/dcmitype/StillImage"/>
    <dc:date>2023-06-23T11:37:03.323597</dc:date>
    <dc:format>image/svg+xml</dc:format>
    <dc:creator>
     <cc:Agent>
      <dc:title>Matplotlib v3.7.1, https://matplotlib.org/</dc:title>
     </cc:Agent>
    </dc:creator>
   </cc:Work>
  </rdf:RDF>
 </metadata>
 <defs>
  <style type="text/css">*{stroke-linejoin: round; stroke-linecap: butt}</style>
 </defs>
 <g id="figure_1">
  <g id="patch_1">
   <path d="M 0 207.241673 
L 410.05875 207.241673 
L 410.05875 0 
L 0 0 
L 0 207.241673 
z
" style="fill: none"/>
  </g>
  <g id="axes_1">
   <g id="patch_2">
    <path d="M 47.24375 147.191593 
L 274.0525 147.191593 
L 274.0525 22.318125 
L 47.24375 22.318125 
L 47.24375 147.191593 
z
" style="fill: none"/>
   </g>
   <g id="patch_3">
    <path d="M 47.363123 131.859103 
L 59.06168 131.859103 
L 59.06168 131.240533 
L 47.363123 131.240533 
L 47.363123 131.859103 
z
" clip-path="url(#pf72c2006b8)" style="fill: #3274a1; stroke: #3d3d3d; stroke-width: 1.5; stroke-linejoin: miter"/>
   </g>
   <g id="patch_4">
    <path d="M 59.300426 71.563811 
L 70.998982 71.563811 
L 70.998982 68.683258 
L 59.300426 68.683258 
L 59.300426 71.563811 
z
" clip-path="url(#pf72c2006b8)" style="fill: #e1812c; stroke: #3d3d3d; stroke-width: 1.5; stroke-linejoin: miter"/>
   </g>
   <g id="patch_5">
    <path d="M 71.237728 141.684601 
L 82.936285 141.684601 
L 82.936285 141.346303 
L 71.237728 141.346303 
L 71.237728 141.684601 
z
" clip-path="url(#pf72c2006b8)" style="fill: #3a923a; stroke: #3d3d3d; stroke-width: 1.5; stroke-linejoin: miter"/>
   </g>
   <g id="patch_6">
    <path d="M 83.175031 88.38092 
L 94.873587 88.38092 
L 94.873587 85.715401 
L 83.175031 85.715401 
L 83.175031 88.38092 
z
" clip-path="url(#pf72c2006b8)" style="fill: #c03d3e; stroke: #3d3d3d; stroke-width: 1.5; stroke-linejoin: miter"/>
   </g>
   <g id="patch_7">
    <path d="M 107.049636 131.660452 
L 118.748193 131.660452 
L 118.748193 130.616786 
L 107.049636 130.616786 
L 107.049636 131.660452 
z
" clip-path="url(#pf72c2006b8)" style="fill: #3274a1; stroke: #3d3d3d; stroke-width: 1.5; stroke-linejoin: miter"/>
   </g>
   <g id="patch_8">
    <path d="M 118.986939 68.066568 
L 130.685495 68.066568 
L 130.685495 66.166793 
L 118.986939 66.166793 
L 118.986939 68.066568 
z
" clip-path="url(#pf72c2006b8)" style="fill: #e1812c; stroke: #3d3d3d; stroke-width: 1.5; stroke-linejoin: miter"/>
   </g>
   <g id="patch_9">
    <path d="M 130.924241 141.467328 
L 142.622798 141.467328 
L 142.622798 140.912536 
L 130.924241 140.912536 
L 130.924241 141.467328 
z
" clip-path="url(#pf72c2006b8)" style="fill: #3a923a; stroke: #3d3d3d; stroke-width: 1.5; stroke-linejoin: miter"/>
   </g>
   <g id="patch_10">
    <path d="M 142.861544 93.498331 
L 154.560101 93.498331 
L 154.560101 83.125069 
L 142.861544 83.125069 
L 142.861544 93.498331 
z
" clip-path="url(#pf72c2006b8)" style="fill: #c03d3e; stroke: #3d3d3d; stroke-width: 1.5; stroke-linejoin: miter"/>
   </g>
   <g id="patch_11">
    <path d="M 166.736149 131.74134 
L 178.434706 131.74134 
L 178.434706 130.877804 
L 166.736149 130.877804 
L 166.736149 131.74134 
z
" clip-path="url(#pf72c2006b8)" style="fill: #3274a1; stroke: #3d3d3d; stroke-width: 1.5; stroke-linejoin: miter"/>
   </g>
   <g id="patch_12">
    <path d="M 178.673452 65.957853 
L 190.372009 65.957853 
L 190.372009 59.422806 
L 178.673452 59.422806 
L 178.673452 65.957853 
z
" clip-path="url(#pf72c2006b8)" style="fill: #e1812c; stroke: #3d3d3d; stroke-width: 1.5; stroke-linejoin: miter"/>
   </g>
   <g id="patch_13">
    <path d="M 190.610755 141.541913 
L 202.309311 141.541913 
L 202.309311 140.896162 
L 190.610755 140.896162 
L 190.610755 141.541913 
z
" clip-path="url(#pf72c2006b8)" style="fill: #3a923a; stroke: #3d3d3d; stroke-width: 1.5; stroke-linejoin: miter"/>
   </g>
   <g id="patch_14">
    <path d="M 202.548057 95.424774 
L 214.246614 95.424774 
L 214.246614 85.404189 
L 202.548057 85.404189 
L 202.548057 95.424774 
z
" clip-path="url(#pf72c2006b8)" style="fill: #c03d3e; stroke: #3d3d3d; stroke-width: 1.5; stroke-linejoin: miter"/>
   </g>
   <g id="patch_15">
    <path d="M 226.422663 132.837413 
L 238.121219 132.837413 
L 238.121219 132.14373 
L 226.422663 132.14373 
L 226.422663 132.837413 
z
" clip-path="url(#pf72c2006b8)" style="fill: #3274a1; stroke: #3d3d3d; stroke-width: 1.5; stroke-linejoin: miter"/>
   </g>
   <g id="patch_16">
    <path d="M 238.359965 55.565432 
L 250.058522 55.565432 
L 250.058522 51.75116 
L 238.359965 51.75116 
L 238.359965 55.565432 
z
" clip-path="url(#pf72c2006b8)" style="fill: #e1812c; stroke: #3d3d3d; stroke-width: 1.5; stroke-linejoin: miter"/>
   </g>
   <g id="patch_17">
    <path d="M 250.297268 142.055508 
L 261.995824 142.055508 
L 261.995824 141.379815 
L 250.297268 141.379815 
L 250.297268 142.055508 
z
" clip-path="url(#pf72c2006b8)" style="fill: #3a923a; stroke: #3d3d3d; stroke-width: 1.5; stroke-linejoin: miter"/>
   </g>
   <g id="patch_18">
    <path d="M 262.23457 92.393122 
L 273.933127 92.393122 
L 273.933127 90.967307 
L 262.23457 90.967307 
L 262.23457 92.393122 
z
" clip-path="url(#pf72c2006b8)" style="fill: #c03d3e; stroke: #3d3d3d; stroke-width: 1.5; stroke-linejoin: miter"/>
   </g>
   <g id="patch_19">
    <path d="M 71.118355 150.56494 
L 71.118355 150.56494 
L 71.118355 150.56494 
L 71.118355 150.56494 
z
" clip-path="url(#pf72c2006b8)" style="fill: #3274a1; stroke: #3d3d3d; stroke-width: 0.75; stroke-linejoin: miter"/>
   </g>
   <g id="patch_20">
    <path d="M 71.118355 150.56494 
L 71.118355 150.56494 
L 71.118355 150.56494 
L 71.118355 150.56494 
z
" clip-path="url(#pf72c2006b8)" style="fill: #e1812c; stroke: #3d3d3d; stroke-width: 0.75; stroke-linejoin: miter"/>
   </g>
   <g id="patch_21">
    <path d="M 71.118355 150.56494 
L 71.118355 150.56494 
L 71.118355 150.56494 
L 71.118355 150.56494 
z
" clip-path="url(#pf72c2006b8)" style="fill: #3a923a; stroke: #3d3d3d; stroke-width: 0.75; stroke-linejoin: miter"/>
   </g>
   <g id="patch_22">
    <path d="M 71.118355 150.56494 
L 71.118355 150.56494 
L 71.118355 150.56494 
L 71.118355 150.56494 
z
" clip-path="url(#pf72c2006b8)" style="fill: #c03d3e; stroke: #3d3d3d; stroke-width: 0.75; stroke-linejoin: miter"/>
   </g>
   <g id="matplotlib.axis_1">
    <g id="xtick_1">
     <g id="line2d_1">
      <defs>
       <path id="m9423de73d7" d="M 0 0 
L 0 3.5 
" style="stroke: #000000; stroke-width: 0.8"/>
      </defs>
      <g>
       <use xlink:href="#m9423de73d7" x="71.118355" y="147.191593" style="stroke: #000000; stroke-width: 0.8"/>
      </g>
     </g>
     <g id="text_1">
      <!-- none -->
      <g transform="translate(52.00769 177.204604) rotate(-45) scale(0.1 -0.1)">
       <defs>
        <path id="DejaVuSans-6e" d="M 3513 2113 
L 3513 0 
L 2938 0 
L 2938 2094 
Q 2938 2591 2744 2837 
Q 2550 3084 2163 3084 
Q 1697 3084 1428 2787 
Q 1159 2491 1159 1978 
L 1159 0 
L 581 0 
L 581 3500 
L 1159 3500 
L 1159 2956 
Q 1366 3272 1645 3428 
Q 1925 3584 2291 3584 
Q 2894 3584 3203 3211 
Q 3513 2838 3513 2113 
z
" transform="scale(0.015625)"/>
        <path id="DejaVuSans-6f" d="M 1959 3097 
Q 1497 3097 1228 2736 
Q 959 2375 959 1747 
Q 959 1119 1226 758 
Q 1494 397 1959 397 
Q 2419 397 2687 759 
Q 2956 1122 2956 1747 
Q 2956 2369 2687 2733 
Q 2419 3097 1959 3097 
z
M 1959 3584 
Q 2709 3584 3137 3096 
Q 3566 2609 3566 1747 
Q 3566 888 3137 398 
Q 2709 -91 1959 -91 
Q 1206 -91 779 398 
Q 353 888 353 1747 
Q 353 2609 779 3096 
Q 1206 3584 1959 3584 
z
" transform="scale(0.015625)"/>
        <path id="DejaVuSans-65" d="M 3597 1894 
L 3597 1613 
L 953 1613 
Q 991 1019 1311 708 
Q 1631 397 2203 397 
Q 2534 397 2845 478 
Q 3156 559 3463 722 
L 3463 178 
Q 3153 47 2828 -22 
Q 2503 -91 2169 -91 
Q 1331 -91 842 396 
Q 353 884 353 1716 
Q 353 2575 817 3079 
Q 1281 3584 2069 3584 
Q 2775 3584 3186 3129 
Q 3597 2675 3597 1894 
z
M 3022 2063 
Q 3016 2534 2758 2815 
Q 2500 3097 2075 3097 
Q 1594 3097 1305 2825 
Q 1016 2553 972 2059 
L 3022 2063 
z
" transform="scale(0.015625)"/>
       </defs>
       <use xlink:href="#DejaVuSans-6e"/>
       <use xlink:href="#DejaVuSans-6f" x="63.378906"/>
       <use xlink:href="#DejaVuSans-6e" x="124.560547"/>
       <use xlink:href="#DejaVuSans-65" x="187.939453"/>
      </g>
     </g>
    </g>
    <g id="xtick_2">
     <g id="line2d_2">
      <g>
       <use xlink:href="#m9423de73d7" x="130.804868" y="147.191593" style="stroke: #000000; stroke-width: 0.8"/>
      </g>
     </g>
     <g id="text_2">
      <!-- drop30 -->
      <g transform="translate(104.283945 184.614862) rotate(-45) scale(0.1 -0.1)">
       <defs>
        <path id="DejaVuSans-64" d="M 2906 2969 
L 2906 4863 
L 3481 4863 
L 3481 0 
L 2906 0 
L 2906 525 
Q 2725 213 2448 61 
Q 2172 -91 1784 -91 
Q 1150 -91 751 415 
Q 353 922 353 1747 
Q 353 2572 751 3078 
Q 1150 3584 1784 3584 
Q 2172 3584 2448 3432 
Q 2725 3281 2906 2969 
z
M 947 1747 
Q 947 1113 1208 752 
Q 1469 391 1925 391 
Q 2381 391 2643 752 
Q 2906 1113 2906 1747 
Q 2906 2381 2643 2742 
Q 2381 3103 1925 3103 
Q 1469 3103 1208 2742 
Q 947 2381 947 1747 
z
" transform="scale(0.015625)"/>
        <path id="DejaVuSans-72" d="M 2631 2963 
Q 2534 3019 2420 3045 
Q 2306 3072 2169 3072 
Q 1681 3072 1420 2755 
Q 1159 2438 1159 1844 
L 1159 0 
L 581 0 
L 581 3500 
L 1159 3500 
L 1159 2956 
Q 1341 3275 1631 3429 
Q 1922 3584 2338 3584 
Q 2397 3584 2469 3576 
Q 2541 3569 2628 3553 
L 2631 2963 
z
" transform="scale(0.015625)"/>
        <path id="DejaVuSans-70" d="M 1159 525 
L 1159 -1331 
L 581 -1331 
L 581 3500 
L 1159 3500 
L 1159 2969 
Q 1341 3281 1617 3432 
Q 1894 3584 2278 3584 
Q 2916 3584 3314 3078 
Q 3713 2572 3713 1747 
Q 3713 922 3314 415 
Q 2916 -91 2278 -91 
Q 1894 -91 1617 61 
Q 1341 213 1159 525 
z
M 3116 1747 
Q 3116 2381 2855 2742 
Q 2594 3103 2138 3103 
Q 1681 3103 1420 2742 
Q 1159 2381 1159 1747 
Q 1159 1113 1420 752 
Q 1681 391 2138 391 
Q 2594 391 2855 752 
Q 3116 1113 3116 1747 
z
" transform="scale(0.015625)"/>
        <path id="DejaVuSans-33" d="M 2597 2516 
Q 3050 2419 3304 2112 
Q 3559 1806 3559 1356 
Q 3559 666 3084 287 
Q 2609 -91 1734 -91 
Q 1441 -91 1130 -33 
Q 819 25 488 141 
L 488 750 
Q 750 597 1062 519 
Q 1375 441 1716 441 
Q 2309 441 2620 675 
Q 2931 909 2931 1356 
Q 2931 1769 2642 2001 
Q 2353 2234 1838 2234 
L 1294 2234 
L 1294 2753 
L 1863 2753 
Q 2328 2753 2575 2939 
Q 2822 3125 2822 3475 
Q 2822 3834 2567 4026 
Q 2313 4219 1838 4219 
Q 1578 4219 1281 4162 
Q 984 4106 628 3988 
L 628 4550 
Q 988 4650 1302 4700 
Q 1616 4750 1894 4750 
Q 2613 4750 3031 4423 
Q 3450 4097 3450 3541 
Q 3450 3153 3228 2886 
Q 3006 2619 2597 2516 
z
" transform="scale(0.015625)"/>
        <path id="DejaVuSans-30" d="M 2034 4250 
Q 1547 4250 1301 3770 
Q 1056 3291 1056 2328 
Q 1056 1369 1301 889 
Q 1547 409 2034 409 
Q 2525 409 2770 889 
Q 3016 1369 3016 2328 
Q 3016 3291 2770 3770 
Q 2525 4250 2034 4250 
z
M 2034 4750 
Q 2819 4750 3233 4129 
Q 3647 3509 3647 2328 
Q 3647 1150 3233 529 
Q 2819 -91 2034 -91 
Q 1250 -91 836 529 
Q 422 1150 422 2328 
Q 422 3509 836 4129 
Q 1250 4750 2034 4750 
z
" transform="scale(0.015625)"/>
       </defs>
       <use xlink:href="#DejaVuSans-64"/>
       <use xlink:href="#DejaVuSans-72" x="63.476562"/>
       <use xlink:href="#DejaVuSans-6f" x="102.339844"/>
       <use xlink:href="#DejaVuSans-70" x="163.521484"/>
       <use xlink:href="#DejaVuSans-33" x="226.998047"/>
       <use xlink:href="#DejaVuSans-30" x="290.621094"/>
      </g>
     </g>
    </g>
    <g id="xtick_3">
     <g id="line2d_3">
      <g>
       <use xlink:href="#m9423de73d7" x="190.491382" y="147.191593" style="stroke: #000000; stroke-width: 0.8"/>
      </g>
     </g>
     <g id="text_3">
      <!-- drop50 -->
      <g transform="translate(163.970458 184.614862) rotate(-45) scale(0.1 -0.1)">
       <defs>
        <path id="DejaVuSans-35" d="M 691 4666 
L 3169 4666 
L 3169 4134 
L 1269 4134 
L 1269 2991 
Q 1406 3038 1543 3061 
Q 1681 3084 1819 3084 
Q 2600 3084 3056 2656 
Q 3513 2228 3513 1497 
Q 3513 744 3044 326 
Q 2575 -91 1722 -91 
Q 1428 -91 1123 -41 
Q 819 9 494 109 
L 494 744 
Q 775 591 1075 516 
Q 1375 441 1709 441 
Q 2250 441 2565 725 
Q 2881 1009 2881 1497 
Q 2881 1984 2565 2268 
Q 2250 2553 1709 2553 
Q 1456 2553 1204 2497 
Q 953 2441 691 2322 
L 691 4666 
z
" transform="scale(0.015625)"/>
       </defs>
       <use xlink:href="#DejaVuSans-64"/>
       <use xlink:href="#DejaVuSans-72" x="63.476562"/>
       <use xlink:href="#DejaVuSans-6f" x="102.339844"/>
       <use xlink:href="#DejaVuSans-70" x="163.521484"/>
       <use xlink:href="#DejaVuSans-35" x="226.998047"/>
       <use xlink:href="#DejaVuSans-30" x="290.621094"/>
      </g>
     </g>
    </g>
    <g id="xtick_4">
     <g id="line2d_4">
      <g>
       <use xlink:href="#m9423de73d7" x="250.177895" y="147.191593" style="stroke: #000000; stroke-width: 0.8"/>
      </g>
     </g>
     <g id="text_4">
      <!-- drop80 -->
      <g transform="translate(223.656971 184.614862) rotate(-45) scale(0.1 -0.1)">
       <defs>
        <path id="DejaVuSans-38" d="M 2034 2216 
Q 1584 2216 1326 1975 
Q 1069 1734 1069 1313 
Q 1069 891 1326 650 
Q 1584 409 2034 409 
Q 2484 409 2743 651 
Q 3003 894 3003 1313 
Q 3003 1734 2745 1975 
Q 2488 2216 2034 2216 
z
M 1403 2484 
Q 997 2584 770 2862 
Q 544 3141 544 3541 
Q 544 4100 942 4425 
Q 1341 4750 2034 4750 
Q 2731 4750 3128 4425 
Q 3525 4100 3525 3541 
Q 3525 3141 3298 2862 
Q 3072 2584 2669 2484 
Q 3125 2378 3379 2068 
Q 3634 1759 3634 1313 
Q 3634 634 3220 271 
Q 2806 -91 2034 -91 
Q 1263 -91 848 271 
Q 434 634 434 1313 
Q 434 1759 690 2068 
Q 947 2378 1403 2484 
z
M 1172 3481 
Q 1172 3119 1398 2916 
Q 1625 2713 2034 2713 
Q 2441 2713 2670 2916 
Q 2900 3119 2900 3481 
Q 2900 3844 2670 4047 
Q 2441 4250 2034 4250 
Q 1625 4250 1398 4047 
Q 1172 3844 1172 3481 
z
" transform="scale(0.015625)"/>
       </defs>
       <use xlink:href="#DejaVuSans-64"/>
       <use xlink:href="#DejaVuSans-72" x="63.476562"/>
       <use xlink:href="#DejaVuSans-6f" x="102.339844"/>
       <use xlink:href="#DejaVuSans-70" x="163.521484"/>
       <use xlink:href="#DejaVuSans-38" x="226.998047"/>
       <use xlink:href="#DejaVuSans-30" x="290.621094"/>
      </g>
     </g>
    </g>
    <g id="text_5">
     <!-- estimator_suffix -->
     <g transform="translate(120.466094 197.68386) scale(0.1 -0.1)">
      <defs>
       <path id="DejaVuSans-73" d="M 2834 3397 
L 2834 2853 
Q 2591 2978 2328 3040 
Q 2066 3103 1784 3103 
Q 1356 3103 1142 2972 
Q 928 2841 928 2578 
Q 928 2378 1081 2264 
Q 1234 2150 1697 2047 
L 1894 2003 
Q 2506 1872 2764 1633 
Q 3022 1394 3022 966 
Q 3022 478 2636 193 
Q 2250 -91 1575 -91 
Q 1294 -91 989 -36 
Q 684 19 347 128 
L 347 722 
Q 666 556 975 473 
Q 1284 391 1588 391 
Q 1994 391 2212 530 
Q 2431 669 2431 922 
Q 2431 1156 2273 1281 
Q 2116 1406 1581 1522 
L 1381 1569 
Q 847 1681 609 1914 
Q 372 2147 372 2553 
Q 372 3047 722 3315 
Q 1072 3584 1716 3584 
Q 2034 3584 2315 3537 
Q 2597 3491 2834 3397 
z
" transform="scale(0.015625)"/>
       <path id="DejaVuSans-74" d="M 1172 4494 
L 1172 3500 
L 2356 3500 
L 2356 3053 
L 1172 3053 
L 1172 1153 
Q 1172 725 1289 603 
Q 1406 481 1766 481 
L 2356 481 
L 2356 0 
L 1766 0 
Q 1100 0 847 248 
Q 594 497 594 1153 
L 594 3053 
L 172 3053 
L 172 3500 
L 594 3500 
L 594 4494 
L 1172 4494 
z
" transform="scale(0.015625)"/>
       <path id="DejaVuSans-69" d="M 603 3500 
L 1178 3500 
L 1178 0 
L 603 0 
L 603 3500 
z
M 603 4863 
L 1178 4863 
L 1178 4134 
L 603 4134 
L 603 4863 
z
" transform="scale(0.015625)"/>
       <path id="DejaVuSans-6d" d="M 3328 2828 
Q 3544 3216 3844 3400 
Q 4144 3584 4550 3584 
Q 5097 3584 5394 3201 
Q 5691 2819 5691 2113 
L 5691 0 
L 5113 0 
L 5113 2094 
Q 5113 2597 4934 2840 
Q 4756 3084 4391 3084 
Q 3944 3084 3684 2787 
Q 3425 2491 3425 1978 
L 3425 0 
L 2847 0 
L 2847 2094 
Q 2847 2600 2669 2842 
Q 2491 3084 2119 3084 
Q 1678 3084 1418 2786 
Q 1159 2488 1159 1978 
L 1159 0 
L 581 0 
L 581 3500 
L 1159 3500 
L 1159 2956 
Q 1356 3278 1631 3431 
Q 1906 3584 2284 3584 
Q 2666 3584 2933 3390 
Q 3200 3197 3328 2828 
z
" transform="scale(0.015625)"/>
       <path id="DejaVuSans-61" d="M 2194 1759 
Q 1497 1759 1228 1600 
Q 959 1441 959 1056 
Q 959 750 1161 570 
Q 1363 391 1709 391 
Q 2188 391 2477 730 
Q 2766 1069 2766 1631 
L 2766 1759 
L 2194 1759 
z
M 3341 1997 
L 3341 0 
L 2766 0 
L 2766 531 
Q 2569 213 2275 61 
Q 1981 -91 1556 -91 
Q 1019 -91 701 211 
Q 384 513 384 1019 
Q 384 1609 779 1909 
Q 1175 2209 1959 2209 
L 2766 2209 
L 2766 2266 
Q 2766 2663 2505 2880 
Q 2244 3097 1772 3097 
Q 1472 3097 1187 3025 
Q 903 2953 641 2809 
L 641 3341 
Q 956 3463 1253 3523 
Q 1550 3584 1831 3584 
Q 2591 3584 2966 3190 
Q 3341 2797 3341 1997 
z
" transform="scale(0.015625)"/>
       <path id="DejaVuSans-5f" d="M 3263 -1063 
L 3263 -1509 
L -63 -1509 
L -63 -1063 
L 3263 -1063 
z
" transform="scale(0.015625)"/>
       <path id="DejaVuSans-75" d="M 544 1381 
L 544 3500 
L 1119 3500 
L 1119 1403 
Q 1119 906 1312 657 
Q 1506 409 1894 409 
Q 2359 409 2629 706 
Q 2900 1003 2900 1516 
L 2900 3500 
L 3475 3500 
L 3475 0 
L 2900 0 
L 2900 538 
Q 2691 219 2414 64 
Q 2138 -91 1772 -91 
Q 1169 -91 856 284 
Q 544 659 544 1381 
z
M 1991 3584 
L 1991 3584 
z
" transform="scale(0.015625)"/>
       <path id="DejaVuSans-66" d="M 2375 4863 
L 2375 4384 
L 1825 4384 
Q 1516 4384 1395 4259 
Q 1275 4134 1275 3809 
L 1275 3500 
L 2222 3500 
L 2222 3053 
L 1275 3053 
L 1275 0 
L 697 0 
L 697 3053 
L 147 3053 
L 147 3500 
L 697 3500 
L 697 3744 
Q 697 4328 969 4595 
Q 1241 4863 1831 4863 
L 2375 4863 
z
" transform="scale(0.015625)"/>
       <path id="DejaVuSans-78" d="M 3513 3500 
L 2247 1797 
L 3578 0 
L 2900 0 
L 1881 1375 
L 863 0 
L 184 0 
L 1544 1831 
L 300 3500 
L 978 3500 
L 1906 2253 
L 2834 3500 
L 3513 3500 
z
" transform="scale(0.015625)"/>
      </defs>
      <use xlink:href="#DejaVuSans-65"/>
      <use xlink:href="#DejaVuSans-73" x="61.523438"/>
      <use xlink:href="#DejaVuSans-74" x="113.623047"/>
      <use xlink:href="#DejaVuSans-69" x="152.832031"/>
      <use xlink:href="#DejaVuSans-6d" x="180.615234"/>
      <use xlink:href="#DejaVuSans-61" x="278.027344"/>
      <use xlink:href="#DejaVuSans-74" x="339.306641"/>
      <use xlink:href="#DejaVuSans-6f" x="378.515625"/>
      <use xlink:href="#DejaVuSans-72" x="439.697266"/>
      <use xlink:href="#DejaVuSans-5f" x="480.810547"/>
      <use xlink:href="#DejaVuSans-73" x="530.810547"/>
      <use xlink:href="#DejaVuSans-75" x="582.910156"/>
      <use xlink:href="#DejaVuSans-66" x="646.289062"/>
      <use xlink:href="#DejaVuSans-66" x="681.494141"/>
      <use xlink:href="#DejaVuSans-69" x="716.699219"/>
      <use xlink:href="#DejaVuSans-78" x="744.482422"/>
     </g>
    </g>
   </g>
   <g id="matplotlib.axis_2">
    <g id="ytick_1">
     <g id="line2d_5">
      <defs>
       <path id="m7ee87f7ed1" d="M 0 0 
L -3.5 0 
" style="stroke: #000000; stroke-width: 0.8"/>
      </defs>
      <g>
       <use xlink:href="#m7ee87f7ed1" x="47.24375" y="127.404411" style="stroke: #000000; stroke-width: 0.8"/>
      </g>
     </g>
     <g id="text_6">
      <!-- 50 -->
      <g transform="translate(27.51875 131.20363) scale(0.1 -0.1)">
       <use xlink:href="#DejaVuSans-35"/>
       <use xlink:href="#DejaVuSans-30" x="63.623047"/>
      </g>
     </g>
    </g>
    <g id="ytick_2">
     <g id="line2d_6">
      <g>
       <use xlink:href="#m7ee87f7ed1" x="47.24375" y="104.243882" style="stroke: #000000; stroke-width: 0.8"/>
      </g>
     </g>
     <g id="text_7">
      <!-- 100 -->
      <g transform="translate(21.15625 108.043101) scale(0.1 -0.1)">
       <defs>
        <path id="DejaVuSans-31" d="M 794 531 
L 1825 531 
L 1825 4091 
L 703 3866 
L 703 4441 
L 1819 4666 
L 2450 4666 
L 2450 531 
L 3481 531 
L 3481 0 
L 794 0 
L 794 531 
z
" transform="scale(0.015625)"/>
       </defs>
       <use xlink:href="#DejaVuSans-31"/>
       <use xlink:href="#DejaVuSans-30" x="63.623047"/>
       <use xlink:href="#DejaVuSans-30" x="127.246094"/>
      </g>
     </g>
    </g>
    <g id="ytick_3">
     <g id="line2d_7">
      <g>
       <use xlink:href="#m7ee87f7ed1" x="47.24375" y="81.083353" style="stroke: #000000; stroke-width: 0.8"/>
      </g>
     </g>
     <g id="text_8">
      <!-- 150 -->
      <g transform="translate(21.15625 84.882572) scale(0.1 -0.1)">
       <use xlink:href="#DejaVuSans-31"/>
       <use xlink:href="#DejaVuSans-35" x="63.623047"/>
       <use xlink:href="#DejaVuSans-30" x="127.246094"/>
      </g>
     </g>
    </g>
    <g id="ytick_4">
     <g id="line2d_8">
      <g>
       <use xlink:href="#m7ee87f7ed1" x="47.24375" y="57.922824" style="stroke: #000000; stroke-width: 0.8"/>
      </g>
     </g>
     <g id="text_9">
      <!-- 200 -->
      <g transform="translate(21.15625 61.722043) scale(0.1 -0.1)">
       <defs>
        <path id="DejaVuSans-32" d="M 1228 531 
L 3431 531 
L 3431 0 
L 469 0 
L 469 531 
Q 828 903 1448 1529 
Q 2069 2156 2228 2338 
Q 2531 2678 2651 2914 
Q 2772 3150 2772 3378 
Q 2772 3750 2511 3984 
Q 2250 4219 1831 4219 
Q 1534 4219 1204 4116 
Q 875 4013 500 3803 
L 500 4441 
Q 881 4594 1212 4672 
Q 1544 4750 1819 4750 
Q 2544 4750 2975 4387 
Q 3406 4025 3406 3419 
Q 3406 3131 3298 2873 
Q 3191 2616 2906 2266 
Q 2828 2175 2409 1742 
Q 1991 1309 1228 531 
z
" transform="scale(0.015625)"/>
       </defs>
       <use xlink:href="#DejaVuSans-32"/>
       <use xlink:href="#DejaVuSans-30" x="63.623047"/>
       <use xlink:href="#DejaVuSans-30" x="127.246094"/>
      </g>
     </g>
    </g>
    <g id="ytick_5">
     <g id="line2d_9">
      <g>
       <use xlink:href="#m7ee87f7ed1" x="47.24375" y="34.762295" style="stroke: #000000; stroke-width: 0.8"/>
      </g>
     </g>
     <g id="text_10">
      <!-- 250 -->
      <g transform="translate(21.15625 38.561514) scale(0.1 -0.1)">
       <use xlink:href="#DejaVuSans-32"/>
       <use xlink:href="#DejaVuSans-35" x="63.623047"/>
       <use xlink:href="#DejaVuSans-30" x="127.246094"/>
      </g>
     </g>
    </g>
    <g id="text_11">
     <!-- fit_time -->
     <g transform="translate(14.798438 103.660328) rotate(-90) scale(0.1 -0.1)">
      <use xlink:href="#DejaVuSans-66"/>
      <use xlink:href="#DejaVuSans-69" x="35.205078"/>
      <use xlink:href="#DejaVuSans-74" x="62.988281"/>
      <use xlink:href="#DejaVuSans-5f" x="102.197266"/>
      <use xlink:href="#DejaVuSans-74" x="152.197266"/>
      <use xlink:href="#DejaVuSans-69" x="191.40625"/>
      <use xlink:href="#DejaVuSans-6d" x="219.189453"/>
      <use xlink:href="#DejaVuSans-65" x="316.601562"/>
     </g>
    </g>
   </g>
   <g id="line2d_10">
    <path d="M 53.212401 131.859103 
L 53.212401 132.075878 
" clip-path="url(#pf72c2006b8)" style="fill: none; stroke: #3d3d3d; stroke-width: 1.5; stroke-linecap: square"/>
   </g>
   <g id="line2d_11">
    <path d="M 53.212401 131.240533 
L 53.212401 130.917235 
" clip-path="url(#pf72c2006b8)" style="fill: none; stroke: #3d3d3d; stroke-width: 1.5; stroke-linecap: square"/>
   </g>
   <g id="line2d_12">
    <path d="M 50.287762 132.075878 
L 56.13704 132.075878 
" clip-path="url(#pf72c2006b8)" style="fill: none; stroke: #3d3d3d; stroke-width: 1.5; stroke-linecap: square"/>
   </g>
   <g id="line2d_13">
    <path d="M 50.287762 130.917235 
L 56.13704 130.917235 
" clip-path="url(#pf72c2006b8)" style="fill: none; stroke: #3d3d3d; stroke-width: 1.5; stroke-linecap: square"/>
   </g>
   <g id="line2d_14"/>
   <g id="line2d_15">
    <path d="M 65.149704 71.563811 
L 65.149704 73.787626 
" clip-path="url(#pf72c2006b8)" style="fill: none; stroke: #3d3d3d; stroke-width: 1.5; stroke-linecap: square"/>
   </g>
   <g id="line2d_16">
    <path d="M 65.149704 68.683258 
L 65.149704 68.683258 
" clip-path="url(#pf72c2006b8)" style="fill: none; stroke: #3d3d3d; stroke-width: 1.5; stroke-linecap: square"/>
   </g>
   <g id="line2d_17">
    <path d="M 62.225065 73.787626 
L 68.074343 73.787626 
" clip-path="url(#pf72c2006b8)" style="fill: none; stroke: #3d3d3d; stroke-width: 1.5; stroke-linecap: square"/>
   </g>
   <g id="line2d_18">
    <path d="M 62.225065 68.683258 
L 68.074343 68.683258 
" clip-path="url(#pf72c2006b8)" style="fill: none; stroke: #3d3d3d; stroke-width: 1.5; stroke-linecap: square"/>
   </g>
   <g id="line2d_19">
    <defs>
     <path id="m88f5120ecf" d="M -0 3.535534 
L 2.12132 0 
L -0 -3.535534 
L -2.12132 -0 
z
" style="stroke: #3d3d3d; stroke-linejoin: miter"/>
    </defs>
    <g clip-path="url(#pf72c2006b8)">
     <use xlink:href="#m88f5120ecf" x="65.149704" y="63.891645" style="fill: #3d3d3d; stroke: #3d3d3d; stroke-linejoin: miter"/>
    </g>
   </g>
   <g id="line2d_20">
    <path d="M 77.087007 141.684601 
L 77.087007 142.026902 
" clip-path="url(#pf72c2006b8)" style="fill: none; stroke: #3d3d3d; stroke-width: 1.5; stroke-linecap: square"/>
   </g>
   <g id="line2d_21">
    <path d="M 77.087007 141.346303 
L 77.087007 141.2271 
" clip-path="url(#pf72c2006b8)" style="fill: none; stroke: #3d3d3d; stroke-width: 1.5; stroke-linecap: square"/>
   </g>
   <g id="line2d_22">
    <path d="M 74.162367 142.026902 
L 80.011646 142.026902 
" clip-path="url(#pf72c2006b8)" style="fill: none; stroke: #3d3d3d; stroke-width: 1.5; stroke-linecap: square"/>
   </g>
   <g id="line2d_23">
    <path d="M 74.162367 141.2271 
L 80.011646 141.2271 
" clip-path="url(#pf72c2006b8)" style="fill: none; stroke: #3d3d3d; stroke-width: 1.5; stroke-linecap: square"/>
   </g>
   <g id="line2d_24"/>
   <g id="line2d_25">
    <path d="M 89.024309 88.38092 
L 89.024309 89.219797 
" clip-path="url(#pf72c2006b8)" style="fill: none; stroke: #3d3d3d; stroke-width: 1.5; stroke-linecap: square"/>
   </g>
   <g id="line2d_26">
    <path d="M 89.024309 85.715401 
L 89.024309 85.715401 
" clip-path="url(#pf72c2006b8)" style="fill: none; stroke: #3d3d3d; stroke-width: 1.5; stroke-linecap: square"/>
   </g>
   <g id="line2d_27">
    <path d="M 86.09967 89.219797 
L 91.948948 89.219797 
" clip-path="url(#pf72c2006b8)" style="fill: none; stroke: #3d3d3d; stroke-width: 1.5; stroke-linecap: square"/>
   </g>
   <g id="line2d_28">
    <path d="M 86.09967 85.715401 
L 91.948948 85.715401 
" clip-path="url(#pf72c2006b8)" style="fill: none; stroke: #3d3d3d; stroke-width: 1.5; stroke-linecap: square"/>
   </g>
   <g id="line2d_29">
    <g clip-path="url(#pf72c2006b8)">
     <use xlink:href="#m88f5120ecf" x="89.024309" y="81.616021" style="fill: #3d3d3d; stroke: #3d3d3d; stroke-linejoin: miter"/>
    </g>
   </g>
   <g id="line2d_30">
    <path d="M 112.898914 131.660452 
L 112.898914 131.870481 
" clip-path="url(#pf72c2006b8)" style="fill: none; stroke: #3d3d3d; stroke-width: 1.5; stroke-linecap: square"/>
   </g>
   <g id="line2d_31">
    <path d="M 112.898914 130.616786 
L 112.898914 130.266039 
" clip-path="url(#pf72c2006b8)" style="fill: none; stroke: #3d3d3d; stroke-width: 1.5; stroke-linecap: square"/>
   </g>
   <g id="line2d_32">
    <path d="M 109.974275 131.870481 
L 115.823554 131.870481 
" clip-path="url(#pf72c2006b8)" style="fill: none; stroke: #3d3d3d; stroke-width: 1.5; stroke-linecap: square"/>
   </g>
   <g id="line2d_33">
    <path d="M 109.974275 130.266039 
L 115.823554 130.266039 
" clip-path="url(#pf72c2006b8)" style="fill: none; stroke: #3d3d3d; stroke-width: 1.5; stroke-linecap: square"/>
   </g>
   <g id="line2d_34"/>
   <g id="line2d_35">
    <path d="M 124.836217 68.066568 
L 124.836217 69.2533 
" clip-path="url(#pf72c2006b8)" style="fill: none; stroke: #3d3d3d; stroke-width: 1.5; stroke-linecap: square"/>
   </g>
   <g id="line2d_36">
    <path d="M 124.836217 66.166793 
L 124.836217 66.166793 
" clip-path="url(#pf72c2006b8)" style="fill: none; stroke: #3d3d3d; stroke-width: 1.5; stroke-linecap: square"/>
   </g>
   <g id="line2d_37">
    <path d="M 121.911578 69.2533 
L 127.760856 69.2533 
" clip-path="url(#pf72c2006b8)" style="fill: none; stroke: #3d3d3d; stroke-width: 1.5; stroke-linecap: square"/>
   </g>
   <g id="line2d_38">
    <path d="M 121.911578 66.166793 
L 127.760856 66.166793 
" clip-path="url(#pf72c2006b8)" style="fill: none; stroke: #3d3d3d; stroke-width: 1.5; stroke-linecap: square"/>
   </g>
   <g id="line2d_39">
    <g clip-path="url(#pf72c2006b8)">
     <use xlink:href="#m88f5120ecf" x="124.836217" y="56.876826" style="fill: #3d3d3d; stroke: #3d3d3d; stroke-linejoin: miter"/>
    </g>
   </g>
   <g id="line2d_40">
    <path d="M 136.77352 141.467328 
L 136.77352 141.875987 
" clip-path="url(#pf72c2006b8)" style="fill: none; stroke: #3d3d3d; stroke-width: 1.5; stroke-linecap: square"/>
   </g>
   <g id="line2d_41">
    <path d="M 136.77352 140.912536 
L 136.77352 140.328919 
" clip-path="url(#pf72c2006b8)" style="fill: none; stroke: #3d3d3d; stroke-width: 1.5; stroke-linecap: square"/>
   </g>
   <g id="line2d_42">
    <path d="M 133.848881 141.875987 
L 139.698159 141.875987 
" clip-path="url(#pf72c2006b8)" style="fill: none; stroke: #3d3d3d; stroke-width: 1.5; stroke-linecap: square"/>
   </g>
   <g id="line2d_43">
    <path d="M 133.848881 140.328919 
L 139.698159 140.328919 
" clip-path="url(#pf72c2006b8)" style="fill: none; stroke: #3d3d3d; stroke-width: 1.5; stroke-linecap: square"/>
   </g>
   <g id="line2d_44"/>
   <g id="line2d_45">
    <path d="M 148.710822 93.498331 
L 148.710822 94.094407 
" clip-path="url(#pf72c2006b8)" style="fill: none; stroke: #3d3d3d; stroke-width: 1.5; stroke-linecap: square"/>
   </g>
   <g id="line2d_46">
    <path d="M 148.710822 83.125069 
L 148.710822 79.729592 
" clip-path="url(#pf72c2006b8)" style="fill: none; stroke: #3d3d3d; stroke-width: 1.5; stroke-linecap: square"/>
   </g>
   <g id="line2d_47">
    <path d="M 145.786183 94.094407 
L 151.635462 94.094407 
" clip-path="url(#pf72c2006b8)" style="fill: none; stroke: #3d3d3d; stroke-width: 1.5; stroke-linecap: square"/>
   </g>
   <g id="line2d_48">
    <path d="M 145.786183 79.729592 
L 151.635462 79.729592 
" clip-path="url(#pf72c2006b8)" style="fill: none; stroke: #3d3d3d; stroke-width: 1.5; stroke-linecap: square"/>
   </g>
   <g id="line2d_49"/>
   <g id="line2d_50">
    <path d="M 172.585428 131.74134 
L 172.585428 132.115485 
" clip-path="url(#pf72c2006b8)" style="fill: none; stroke: #3d3d3d; stroke-width: 1.5; stroke-linecap: square"/>
   </g>
   <g id="line2d_51">
    <path d="M 172.585428 130.877804 
L 172.585428 130.292074 
" clip-path="url(#pf72c2006b8)" style="fill: none; stroke: #3d3d3d; stroke-width: 1.5; stroke-linecap: square"/>
   </g>
   <g id="line2d_52">
    <path d="M 169.660788 132.115485 
L 175.510067 132.115485 
" clip-path="url(#pf72c2006b8)" style="fill: none; stroke: #3d3d3d; stroke-width: 1.5; stroke-linecap: square"/>
   </g>
   <g id="line2d_53">
    <path d="M 169.660788 130.292074 
L 175.510067 130.292074 
" clip-path="url(#pf72c2006b8)" style="fill: none; stroke: #3d3d3d; stroke-width: 1.5; stroke-linecap: square"/>
   </g>
   <g id="line2d_54"/>
   <g id="line2d_55">
    <path d="M 184.52273 65.957853 
L 184.52273 71.408352 
" clip-path="url(#pf72c2006b8)" style="fill: none; stroke: #3d3d3d; stroke-width: 1.5; stroke-linecap: square"/>
   </g>
   <g id="line2d_56">
    <path d="M 184.52273 59.422806 
L 184.52273 56.894662 
" clip-path="url(#pf72c2006b8)" style="fill: none; stroke: #3d3d3d; stroke-width: 1.5; stroke-linecap: square"/>
   </g>
   <g id="line2d_57">
    <path d="M 181.598091 71.408352 
L 187.447369 71.408352 
" clip-path="url(#pf72c2006b8)" style="fill: none; stroke: #3d3d3d; stroke-width: 1.5; stroke-linecap: square"/>
   </g>
   <g id="line2d_58">
    <path d="M 181.598091 56.894662 
L 187.447369 56.894662 
" clip-path="url(#pf72c2006b8)" style="fill: none; stroke: #3d3d3d; stroke-width: 1.5; stroke-linecap: square"/>
   </g>
   <g id="line2d_59"/>
   <g id="line2d_60">
    <path d="M 196.460033 141.541913 
L 196.460033 141.81556 
" clip-path="url(#pf72c2006b8)" style="fill: none; stroke: #3d3d3d; stroke-width: 1.5; stroke-linecap: square"/>
   </g>
   <g id="line2d_61">
    <path d="M 196.460033 140.896162 
L 196.460033 140.828362 
" clip-path="url(#pf72c2006b8)" style="fill: none; stroke: #3d3d3d; stroke-width: 1.5; stroke-linecap: square"/>
   </g>
   <g id="line2d_62">
    <path d="M 193.535394 141.81556 
L 199.384672 141.81556 
" clip-path="url(#pf72c2006b8)" style="fill: none; stroke: #3d3d3d; stroke-width: 1.5; stroke-linecap: square"/>
   </g>
   <g id="line2d_63">
    <path d="M 193.535394 140.828362 
L 199.384672 140.828362 
" clip-path="url(#pf72c2006b8)" style="fill: none; stroke: #3d3d3d; stroke-width: 1.5; stroke-linecap: square"/>
   </g>
   <g id="line2d_64"/>
   <g id="line2d_65">
    <path d="M 208.397336 95.424774 
L 208.397336 95.619814 
" clip-path="url(#pf72c2006b8)" style="fill: none; stroke: #3d3d3d; stroke-width: 1.5; stroke-linecap: square"/>
   </g>
   <g id="line2d_66">
    <path d="M 208.397336 85.404189 
L 208.397336 79.505172 
" clip-path="url(#pf72c2006b8)" style="fill: none; stroke: #3d3d3d; stroke-width: 1.5; stroke-linecap: square"/>
   </g>
   <g id="line2d_67">
    <path d="M 205.472696 95.619814 
L 211.321975 95.619814 
" clip-path="url(#pf72c2006b8)" style="fill: none; stroke: #3d3d3d; stroke-width: 1.5; stroke-linecap: square"/>
   </g>
   <g id="line2d_68">
    <path d="M 205.472696 79.505172 
L 211.321975 79.505172 
" clip-path="url(#pf72c2006b8)" style="fill: none; stroke: #3d3d3d; stroke-width: 1.5; stroke-linecap: square"/>
   </g>
   <g id="line2d_69"/>
   <g id="line2d_70">
    <path d="M 232.271941 132.837413 
L 232.271941 133.116278 
" clip-path="url(#pf72c2006b8)" style="fill: none; stroke: #3d3d3d; stroke-width: 1.5; stroke-linecap: square"/>
   </g>
   <g id="line2d_71">
    <path d="M 232.271941 132.14373 
L 232.271941 131.976614 
" clip-path="url(#pf72c2006b8)" style="fill: none; stroke: #3d3d3d; stroke-width: 1.5; stroke-linecap: square"/>
   </g>
   <g id="line2d_72">
    <path d="M 229.347302 133.116278 
L 235.19658 133.116278 
" clip-path="url(#pf72c2006b8)" style="fill: none; stroke: #3d3d3d; stroke-width: 1.5; stroke-linecap: square"/>
   </g>
   <g id="line2d_73">
    <path d="M 229.347302 131.976614 
L 235.19658 131.976614 
" clip-path="url(#pf72c2006b8)" style="fill: none; stroke: #3d3d3d; stroke-width: 1.5; stroke-linecap: square"/>
   </g>
   <g id="line2d_74"/>
   <g id="line2d_75">
    <path d="M 244.209243 55.565432 
L 244.209243 56.838841 
" clip-path="url(#pf72c2006b8)" style="fill: none; stroke: #3d3d3d; stroke-width: 1.5; stroke-linecap: square"/>
   </g>
   <g id="line2d_76">
    <path d="M 244.209243 51.75116 
L 244.209243 51.75116 
" clip-path="url(#pf72c2006b8)" style="fill: none; stroke: #3d3d3d; stroke-width: 1.5; stroke-linecap: square"/>
   </g>
   <g id="line2d_77">
    <path d="M 241.284604 56.838841 
L 247.133883 56.838841 
" clip-path="url(#pf72c2006b8)" style="fill: none; stroke: #3d3d3d; stroke-width: 1.5; stroke-linecap: square"/>
   </g>
   <g id="line2d_78">
    <path d="M 241.284604 51.75116 
L 247.133883 51.75116 
" clip-path="url(#pf72c2006b8)" style="fill: none; stroke: #3d3d3d; stroke-width: 1.5; stroke-linecap: square"/>
   </g>
   <g id="line2d_79">
    <g clip-path="url(#pf72c2006b8)">
     <use xlink:href="#m88f5120ecf" x="244.209243" y="44.509842" style="fill: #3d3d3d; stroke: #3d3d3d; stroke-linejoin: miter"/>
    </g>
   </g>
   <g id="line2d_80">
    <path d="M 256.146546 142.055508 
L 256.146546 142.301985 
" clip-path="url(#pf72c2006b8)" style="fill: none; stroke: #3d3d3d; stroke-width: 1.5; stroke-linecap: square"/>
   </g>
   <g id="line2d_81">
    <path d="M 256.146546 141.379815 
L 256.146546 141.336954 
" clip-path="url(#pf72c2006b8)" style="fill: none; stroke: #3d3d3d; stroke-width: 1.5; stroke-linecap: square"/>
   </g>
   <g id="line2d_82">
    <path d="M 253.221907 142.301985 
L 259.071185 142.301985 
" clip-path="url(#pf72c2006b8)" style="fill: none; stroke: #3d3d3d; stroke-width: 1.5; stroke-linecap: square"/>
   </g>
   <g id="line2d_83">
    <path d="M 253.221907 141.336954 
L 259.071185 141.336954 
" clip-path="url(#pf72c2006b8)" style="fill: none; stroke: #3d3d3d; stroke-width: 1.5; stroke-linecap: square"/>
   </g>
   <g id="line2d_84"/>
   <g id="line2d_85">
    <path d="M 268.083849 92.393122 
L 268.083849 92.393122 
" clip-path="url(#pf72c2006b8)" style="fill: none; stroke: #3d3d3d; stroke-width: 1.5; stroke-linecap: square"/>
   </g>
   <g id="line2d_86">
    <path d="M 268.083849 90.967307 
L 268.083849 90.967307 
" clip-path="url(#pf72c2006b8)" style="fill: none; stroke: #3d3d3d; stroke-width: 1.5; stroke-linecap: square"/>
   </g>
   <g id="line2d_87">
    <path d="M 265.15921 92.393122 
L 271.008488 92.393122 
" clip-path="url(#pf72c2006b8)" style="fill: none; stroke: #3d3d3d; stroke-width: 1.5; stroke-linecap: square"/>
   </g>
   <g id="line2d_88">
    <path d="M 265.15921 90.967307 
L 271.008488 90.967307 
" clip-path="url(#pf72c2006b8)" style="fill: none; stroke: #3d3d3d; stroke-width: 1.5; stroke-linecap: square"/>
   </g>
   <g id="line2d_89">
    <g clip-path="url(#pf72c2006b8)">
     <use xlink:href="#m88f5120ecf" x="268.083849" y="97.458659" style="fill: #3d3d3d; stroke: #3d3d3d; stroke-linejoin: miter"/>
     <use xlink:href="#m88f5120ecf" x="268.083849" y="85.787738" style="fill: #3d3d3d; stroke: #3d3d3d; stroke-linejoin: miter"/>
    </g>
   </g>
   <g id="line2d_90">
    <path d="M 65.149704 55.82043 
L 65.149704 53.669003 
L 77.087007 53.669003 
L 77.087007 55.82043 
" clip-path="url(#pf72c2006b8)" style="fill: none; stroke: #333333; stroke-width: 1.5; stroke-linecap: square"/>
   </g>
   <g id="line2d_91">
    <path d="M 124.836217 48.805611 
L 124.836217 46.654183 
L 136.77352 46.654183 
L 136.77352 48.805611 
" clip-path="url(#pf72c2006b8)" style="fill: none; stroke: #333333; stroke-width: 1.5; stroke-linecap: square"/>
   </g>
   <g id="line2d_92">
    <path d="M 184.52273 50.44038 
L 184.52273 48.288953 
L 196.460033 48.288953 
L 196.460033 50.44038 
" clip-path="url(#pf72c2006b8)" style="fill: none; stroke: #333333; stroke-width: 1.5; stroke-linecap: square"/>
   </g>
   <g id="line2d_93">
    <path d="M 244.209243 36.438627 
L 244.209243 34.2872 
L 256.146546 34.2872 
L 256.146546 36.438627 
" clip-path="url(#pf72c2006b8)" style="fill: none; stroke: #333333; stroke-width: 1.5; stroke-linecap: square"/>
   </g>
   <g id="line2d_94">
    <path d="M 47.363123 131.57225 
L 59.06168 131.57225 
" clip-path="url(#pf72c2006b8)" style="fill: none; stroke: #3d3d3d; stroke-width: 1.5; stroke-linecap: square"/>
   </g>
   <g id="line2d_95">
    <path d="M 59.300426 70.785857 
L 70.998982 70.785857 
" clip-path="url(#pf72c2006b8)" style="fill: none; stroke: #3d3d3d; stroke-width: 1.5; stroke-linecap: square"/>
   </g>
   <g id="line2d_96">
    <path d="M 71.237728 141.43529 
L 82.936285 141.43529 
" clip-path="url(#pf72c2006b8)" style="fill: none; stroke: #3d3d3d; stroke-width: 1.5; stroke-linecap: square"/>
   </g>
   <g id="line2d_97">
    <path d="M 83.175031 87.910723 
L 94.873587 87.910723 
" clip-path="url(#pf72c2006b8)" style="fill: none; stroke: #3d3d3d; stroke-width: 1.5; stroke-linecap: square"/>
   </g>
   <g id="line2d_98">
    <path d="M 107.049636 130.785208 
L 118.748193 130.785208 
" clip-path="url(#pf72c2006b8)" style="fill: none; stroke: #3d3d3d; stroke-width: 1.5; stroke-linecap: square"/>
   </g>
   <g id="line2d_99">
    <path d="M 118.986939 67.478427 
L 130.685495 67.478427 
" clip-path="url(#pf72c2006b8)" style="fill: none; stroke: #3d3d3d; stroke-width: 1.5; stroke-linecap: square"/>
   </g>
   <g id="line2d_100">
    <path d="M 130.924241 141.076737 
L 142.622798 141.076737 
" clip-path="url(#pf72c2006b8)" style="fill: none; stroke: #3d3d3d; stroke-width: 1.5; stroke-linecap: square"/>
   </g>
   <g id="line2d_101">
    <path d="M 142.861544 84.289516 
L 154.560101 84.289516 
" clip-path="url(#pf72c2006b8)" style="fill: none; stroke: #3d3d3d; stroke-width: 1.5; stroke-linecap: square"/>
   </g>
   <g id="line2d_102">
    <path d="M 166.736149 131.167958 
L 178.434706 131.167958 
" clip-path="url(#pf72c2006b8)" style="fill: none; stroke: #3d3d3d; stroke-width: 1.5; stroke-linecap: square"/>
   </g>
   <g id="line2d_103">
    <path d="M 178.673452 63.074092 
L 190.372009 63.074092 
" clip-path="url(#pf72c2006b8)" style="fill: none; stroke: #3d3d3d; stroke-width: 1.5; stroke-linecap: square"/>
   </g>
   <g id="line2d_104">
    <path d="M 190.610755 141.000753 
L 202.309311 141.000753 
" clip-path="url(#pf72c2006b8)" style="fill: none; stroke: #3d3d3d; stroke-width: 1.5; stroke-linecap: square"/>
   </g>
   <g id="line2d_105">
    <path d="M 202.548057 88.277511 
L 214.246614 88.277511 
" clip-path="url(#pf72c2006b8)" style="fill: none; stroke: #3d3d3d; stroke-width: 1.5; stroke-linecap: square"/>
   </g>
   <g id="line2d_106">
    <path d="M 226.422663 132.589857 
L 238.121219 132.589857 
" clip-path="url(#pf72c2006b8)" style="fill: none; stroke: #3d3d3d; stroke-width: 1.5; stroke-linecap: square"/>
   </g>
   <g id="line2d_107">
    <path d="M 238.359965 52.906747 
L 250.058522 52.906747 
" clip-path="url(#pf72c2006b8)" style="fill: none; stroke: #3d3d3d; stroke-width: 1.5; stroke-linecap: square"/>
   </g>
   <g id="line2d_108">
    <path d="M 250.297268 141.428566 
L 261.995824 141.428566 
" clip-path="url(#pf72c2006b8)" style="fill: none; stroke: #3d3d3d; stroke-width: 1.5; stroke-linecap: square"/>
   </g>
   <g id="line2d_109">
    <path d="M 262.23457 91.2457 
L 273.933127 91.2457 
" clip-path="url(#pf72c2006b8)" style="fill: none; stroke: #3d3d3d; stroke-width: 1.5; stroke-linecap: square"/>
   </g>
   <g id="patch_23">
    <path d="M 47.24375 147.191593 
L 47.24375 22.318125 
" style="fill: none; stroke: #000000; stroke-width: 0.8; stroke-linejoin: miter; stroke-linecap: square"/>
   </g>
   <g id="patch_24">
    <path d="M 274.0525 147.191593 
L 274.0525 22.318125 
" style="fill: none; stroke: #000000; stroke-width: 0.8; stroke-linejoin: miter; stroke-linecap: square"/>
   </g>
   <g id="patch_25">
    <path d="M 47.24375 147.191593 
L 274.0525 147.191593 
" style="fill: none; stroke: #000000; stroke-width: 0.8; stroke-linejoin: miter; stroke-linecap: square"/>
   </g>
   <g id="patch_26">
    <path d="M 47.24375 22.318125 
L 274.0525 22.318125 
" style="fill: none; stroke: #000000; stroke-width: 0.8; stroke-linejoin: miter; stroke-linecap: square"/>
   </g>
   <g id="PathCollection_1">
    <defs>
     <path id="C0_0_2d464c1ce5" d="M 0 1.5 
C 0.397805 1.5 0.77937 1.341951 1.06066 1.06066 
C 1.341951 0.77937 1.5 0.397805 1.5 -0 
C 1.5 -0.397805 1.341951 -0.77937 1.06066 -1.06066 
C 0.77937 -1.341951 0.397805 -1.5 0 -1.5 
C -0.397805 -1.5 -0.77937 -1.341951 -1.06066 -1.06066 
C -1.341951 -0.77937 -1.5 -0.397805 -1.5 0 
C -1.5 0.397805 -1.341951 0.77937 -1.06066 1.06066 
C -0.77937 1.341951 -0.397805 1.5 0 1.5 
z
"/>
    </defs>
    <g clip-path="url(#pf72c2006b8)">
     <use xlink:href="#C0_0_2d464c1ce5" x="52.397328" y="131.57225" style="fill: #262626"/>
    </g>
    <g clip-path="url(#pf72c2006b8)">
     <use xlink:href="#C0_0_2d464c1ce5" x="52.884817" y="131.240533" style="fill: #262626"/>
    </g>
    <g clip-path="url(#pf72c2006b8)">
     <use xlink:href="#C0_0_2d464c1ce5" x="52.993101" y="131.859103" style="fill: #262626"/>
    </g>
    <g clip-path="url(#pf72c2006b8)">
     <use xlink:href="#C0_0_2d464c1ce5" x="53.707305" y="132.075878" style="fill: #262626"/>
    </g>
    <g clip-path="url(#pf72c2006b8)">
     <use xlink:href="#C0_0_2d464c1ce5" x="53.253255" y="130.917235" style="fill: #262626"/>
    </g>
   </g>
   <g id="PathCollection_2">
    <defs>
     <path id="C1_0_70d28ecdb5" d="M 0 1.5 
C 0.397805 1.5 0.77937 1.341951 1.06066 1.06066 
C 1.341951 0.77937 1.5 0.397805 1.5 -0 
C 1.5 -0.397805 1.341951 -0.77937 1.06066 -1.06066 
C 0.77937 -1.341951 0.397805 -1.5 0 -1.5 
C -0.397805 -1.5 -0.77937 -1.341951 -1.06066 -1.06066 
C -1.341951 -0.77937 -1.5 -0.397805 -1.5 0 
C -1.5 0.397805 -1.341951 0.77937 -1.06066 1.06066 
C -0.77937 1.341951 -0.397805 1.5 0 1.5 
z
"/>
    </defs>
    <g clip-path="url(#pf72c2006b8)">
     <use xlink:href="#C1_0_70d28ecdb5" x="66.360239" y="73.787626" style="fill: #191919"/>
    </g>
    <g clip-path="url(#pf72c2006b8)">
     <use xlink:href="#C1_0_70d28ecdb5" x="64.032347" y="71.563811" style="fill: #191919"/>
    </g>
    <g clip-path="url(#pf72c2006b8)">
     <use xlink:href="#C1_0_70d28ecdb5" x="64.819836" y="68.683258" style="fill: #191919"/>
    </g>
    <g clip-path="url(#pf72c2006b8)">
     <use xlink:href="#C1_0_70d28ecdb5" x="63.913188" y="63.891645" style="fill: #191919"/>
    </g>
    <g clip-path="url(#pf72c2006b8)">
     <use xlink:href="#C1_0_70d28ecdb5" x="66.228849" y="70.785857" style="fill: #191919"/>
    </g>
   </g>
   <g id="PathCollection_3">
    <defs>
     <path id="C2_0_d474a21694" d="M 0 1.5 
C 0.397805 1.5 0.77937 1.341951 1.06066 1.06066 
C 1.341951 0.77937 1.5 0.397805 1.5 -0 
C 1.5 -0.397805 1.341951 -0.77937 1.06066 -1.06066 
C 0.77937 -1.341951 0.397805 -1.5 0 -1.5 
C -0.397805 -1.5 -0.77937 -1.341951 -1.06066 -1.06066 
C -1.341951 -0.77937 -1.5 -0.397805 -1.5 0 
C -1.5 0.397805 -1.341951 0.77937 -1.06066 1.06066 
C -0.77937 1.341951 -0.397805 1.5 0 1.5 
z
"/>
    </defs>
    <g clip-path="url(#pf72c2006b8)">
     <use xlink:href="#C2_0_d474a21694" x="77.698117" y="141.346303" style="fill: #0d0d0d"/>
    </g>
    <g clip-path="url(#pf72c2006b8)">
     <use xlink:href="#C2_0_d474a21694" x="75.6914" y="141.43529" style="fill: #0d0d0d"/>
    </g>
    <g clip-path="url(#pf72c2006b8)">
     <use xlink:href="#C2_0_d474a21694" x="75.75577" y="142.026902" style="fill: #0d0d0d"/>
    </g>
    <g clip-path="url(#pf72c2006b8)">
     <use xlink:href="#C2_0_d474a21694" x="78.242315" y="141.684601" style="fill: #0d0d0d"/>
    </g>
    <g clip-path="url(#pf72c2006b8)">
     <use xlink:href="#C2_0_d474a21694" x="78.031575" y="141.2271" style="fill: #0d0d0d"/>
    </g>
   </g>
   <g id="PathCollection_4">
    <defs>
     <path id="C3_0_974de11012" d="M 0 1.5 
C 0.397805 1.5 0.77937 1.341951 1.06066 1.06066 
C 1.341951 0.77937 1.5 0.397805 1.5 -0 
C 1.5 -0.397805 1.341951 -0.77937 1.06066 -1.06066 
C 0.77937 -1.341951 0.397805 -1.5 0 -1.5 
C -0.397805 -1.5 -0.77937 -1.341951 -1.06066 -1.06066 
C -1.341951 -0.77937 -1.5 -0.397805 -1.5 0 
C -1.5 0.397805 -1.341951 0.77937 -1.06066 1.06066 
C -0.77937 1.341951 -0.397805 1.5 0 1.5 
z
"/>
    </defs>
    <g clip-path="url(#pf72c2006b8)">
     <use xlink:href="#C3_0_974de11012" x="90.145918" y="89.219797"/>
    </g>
    <g clip-path="url(#pf72c2006b8)">
     <use xlink:href="#C3_0_974de11012" x="87.751597" y="85.715401"/>
    </g>
    <g clip-path="url(#pf72c2006b8)">
     <use xlink:href="#C3_0_974de11012" x="90.485441" y="87.910723"/>
    </g>
    <g clip-path="url(#pf72c2006b8)">
     <use xlink:href="#C3_0_974de11012" x="89.114225" y="81.616021"/>
    </g>
    <g clip-path="url(#pf72c2006b8)">
     <use xlink:href="#C3_0_974de11012" x="88.065057" y="88.38092"/>
    </g>
   </g>
   <g id="PathCollection_5">
    <defs>
     <path id="C4_0_73f38ce3d9" d="M 0 1.5 
C 0.397805 1.5 0.77937 1.341951 1.06066 1.06066 
C 1.341951 0.77937 1.5 0.397805 1.5 -0 
C 1.5 -0.397805 1.341951 -0.77937 1.06066 -1.06066 
C 0.77937 -1.341951 0.397805 -1.5 0 -1.5 
C -0.397805 -1.5 -0.77937 -1.341951 -1.06066 -1.06066 
C -1.341951 -0.77937 -1.5 -0.397805 -1.5 0 
C -1.5 0.397805 -1.341951 0.77937 -1.06066 1.06066 
C -0.77937 1.341951 -0.397805 1.5 0 1.5 
z
"/>
    </defs>
    <g clip-path="url(#pf72c2006b8)">
     <use xlink:href="#C4_0_73f38ce3d9" x="111.781453" y="131.870481" style="fill: #262626"/>
    </g>
    <g clip-path="url(#pf72c2006b8)">
     <use xlink:href="#C4_0_73f38ce3d9" x="113.556749" y="131.660452" style="fill: #262626"/>
    </g>
    <g clip-path="url(#pf72c2006b8)">
     <use xlink:href="#C4_0_73f38ce3d9" x="111.93454" y="130.616786" style="fill: #262626"/>
    </g>
    <g clip-path="url(#pf72c2006b8)">
     <use xlink:href="#C4_0_73f38ce3d9" x="111.451996" y="130.785208" style="fill: #262626"/>
    </g>
    <g clip-path="url(#pf72c2006b8)">
     <use xlink:href="#C4_0_73f38ce3d9" x="112.511479" y="130.266039" style="fill: #262626"/>
    </g>
   </g>
   <g id="PathCollection_6">
    <defs>
     <path id="C5_0_700cc72c2f" d="M 0 1.5 
C 0.397805 1.5 0.77937 1.341951 1.06066 1.06066 
C 1.341951 0.77937 1.5 0.397805 1.5 -0 
C 1.5 -0.397805 1.341951 -0.77937 1.06066 -1.06066 
C 0.77937 -1.341951 0.397805 -1.5 0 -1.5 
C -0.397805 -1.5 -0.77937 -1.341951 -1.06066 -1.06066 
C -1.341951 -0.77937 -1.5 -0.397805 -1.5 0 
C -1.5 0.397805 -1.341951 0.77937 -1.06066 1.06066 
C -0.77937 1.341951 -0.397805 1.5 0 1.5 
z
"/>
    </defs>
    <g clip-path="url(#pf72c2006b8)">
     <use xlink:href="#C5_0_700cc72c2f" x="125.485501" y="67.478427" style="fill: #191919"/>
    </g>
    <g clip-path="url(#pf72c2006b8)">
     <use xlink:href="#C5_0_700cc72c2f" x="123.717038" y="68.066568" style="fill: #191919"/>
    </g>
    <g clip-path="url(#pf72c2006b8)">
     <use xlink:href="#C5_0_700cc72c2f" x="125.290749" y="56.876826" style="fill: #191919"/>
    </g>
    <g clip-path="url(#pf72c2006b8)">
     <use xlink:href="#C5_0_700cc72c2f" x="123.443634" y="66.166793" style="fill: #191919"/>
    </g>
    <g clip-path="url(#pf72c2006b8)">
     <use xlink:href="#C5_0_700cc72c2f" x="123.551947" y="69.2533" style="fill: #191919"/>
    </g>
   </g>
   <g id="PathCollection_7">
    <defs>
     <path id="C6_0_fbe7746816" d="M 0 1.5 
C 0.397805 1.5 0.77937 1.341951 1.06066 1.06066 
C 1.341951 0.77937 1.5 0.397805 1.5 -0 
C 1.5 -0.397805 1.341951 -0.77937 1.06066 -1.06066 
C 0.77937 -1.341951 0.397805 -1.5 0 -1.5 
C -0.397805 -1.5 -0.77937 -1.341951 -1.06066 -1.06066 
C -1.341951 -0.77937 -1.5 -0.397805 -1.5 0 
C -1.5 0.397805 -1.341951 0.77937 -1.06066 1.06066 
C -0.77937 1.341951 -0.397805 1.5 0 1.5 
z
"/>
    </defs>
    <g clip-path="url(#pf72c2006b8)">
     <use xlink:href="#C6_0_fbe7746816" x="135.568373" y="141.875987" style="fill: #0d0d0d"/>
    </g>
    <g clip-path="url(#pf72c2006b8)">
     <use xlink:href="#C6_0_fbe7746816" x="135.603823" y="141.467328" style="fill: #0d0d0d"/>
    </g>
    <g clip-path="url(#pf72c2006b8)">
     <use xlink:href="#C6_0_fbe7746816" x="136.299714" y="141.076737" style="fill: #0d0d0d"/>
    </g>
    <g clip-path="url(#pf72c2006b8)">
     <use xlink:href="#C6_0_fbe7746816" x="137.717335" y="140.912536" style="fill: #0d0d0d"/>
    </g>
    <g clip-path="url(#pf72c2006b8)">
     <use xlink:href="#C6_0_fbe7746816" x="138.209659" y="140.328919" style="fill: #0d0d0d"/>
    </g>
   </g>
   <g id="PathCollection_8">
    <defs>
     <path id="C7_0_a66e63a95e" d="M 0 1.5 
C 0.397805 1.5 0.77937 1.341951 1.06066 1.06066 
C 1.341951 0.77937 1.5 0.397805 1.5 -0 
C 1.5 -0.397805 1.341951 -0.77937 1.06066 -1.06066 
C 0.77937 -1.341951 0.397805 -1.5 0 -1.5 
C -0.397805 -1.5 -0.77937 -1.341951 -1.06066 -1.06066 
C -1.341951 -0.77937 -1.5 -0.397805 -1.5 0 
C -1.5 0.397805 -1.341951 0.77937 -1.06066 1.06066 
C -0.77937 1.341951 -0.397805 1.5 0 1.5 
z
"/>
    </defs>
    <g clip-path="url(#pf72c2006b8)">
     <use xlink:href="#C7_0_a66e63a95e" x="149.34083" y="84.289516"/>
    </g>
    <g clip-path="url(#pf72c2006b8)">
     <use xlink:href="#C7_0_a66e63a95e" x="148.463827" y="83.125069"/>
    </g>
    <g clip-path="url(#pf72c2006b8)">
     <use xlink:href="#C7_0_a66e63a95e" x="148.707514" y="94.094407"/>
    </g>
    <g clip-path="url(#pf72c2006b8)">
     <use xlink:href="#C7_0_a66e63a95e" x="150.099822" y="93.498331"/>
    </g>
    <g clip-path="url(#pf72c2006b8)">
     <use xlink:href="#C7_0_a66e63a95e" x="147.947146" y="79.729592"/>
    </g>
   </g>
   <g id="PathCollection_9">
    <defs>
     <path id="C8_0_4bb8ded76b" d="M 0 1.5 
C 0.397805 1.5 0.77937 1.341951 1.06066 1.06066 
C 1.341951 0.77937 1.5 0.397805 1.5 -0 
C 1.5 -0.397805 1.341951 -0.77937 1.06066 -1.06066 
C 0.77937 -1.341951 0.397805 -1.5 0 -1.5 
C -0.397805 -1.5 -0.77937 -1.341951 -1.06066 -1.06066 
C -1.341951 -0.77937 -1.5 -0.397805 -1.5 0 
C -1.5 0.397805 -1.341951 0.77937 -1.06066 1.06066 
C -0.77937 1.341951 -0.397805 1.5 0 1.5 
z
"/>
    </defs>
    <g clip-path="url(#pf72c2006b8)">
     <use xlink:href="#C8_0_4bb8ded76b" x="173.203241" y="132.115485" style="fill: #262626"/>
    </g>
    <g clip-path="url(#pf72c2006b8)">
     <use xlink:href="#C8_0_4bb8ded76b" x="172.272446" y="131.74134" style="fill: #262626"/>
    </g>
    <g clip-path="url(#pf72c2006b8)">
     <use xlink:href="#C8_0_4bb8ded76b" x="171.404469" y="131.167958" style="fill: #262626"/>
    </g>
    <g clip-path="url(#pf72c2006b8)">
     <use xlink:href="#C8_0_4bb8ded76b" x="173.998732" y="130.877804" style="fill: #262626"/>
    </g>
    <g clip-path="url(#pf72c2006b8)">
     <use xlink:href="#C8_0_4bb8ded76b" x="172.354014" y="130.292074" style="fill: #262626"/>
    </g>
   </g>
   <g id="PathCollection_10">
    <defs>
     <path id="C9_0_0ebf584eef" d="M 0 1.5 
C 0.397805 1.5 0.77937 1.341951 1.06066 1.06066 
C 1.341951 0.77937 1.5 0.397805 1.5 -0 
C 1.5 -0.397805 1.341951 -0.77937 1.06066 -1.06066 
C 0.77937 -1.341951 0.397805 -1.5 0 -1.5 
C -0.397805 -1.5 -0.77937 -1.341951 -1.06066 -1.06066 
C -1.341951 -0.77937 -1.5 -0.397805 -1.5 0 
C -1.5 0.397805 -1.341951 0.77937 -1.06066 1.06066 
C -0.77937 1.341951 -0.397805 1.5 0 1.5 
z
"/>
    </defs>
    <g clip-path="url(#pf72c2006b8)">
     <use xlink:href="#C9_0_0ebf584eef" x="183.48073" y="56.894662" style="fill: #191919"/>
    </g>
    <g clip-path="url(#pf72c2006b8)">
     <use xlink:href="#C9_0_0ebf584eef" x="184.534818" y="71.408352" style="fill: #191919"/>
    </g>
    <g clip-path="url(#pf72c2006b8)">
     <use xlink:href="#C9_0_0ebf584eef" x="183.148517" y="65.957853" style="fill: #191919"/>
    </g>
    <g clip-path="url(#pf72c2006b8)">
     <use xlink:href="#C9_0_0ebf584eef" x="185.939589" y="59.422806" style="fill: #191919"/>
    </g>
    <g clip-path="url(#pf72c2006b8)">
     <use xlink:href="#C9_0_0ebf584eef" x="185.072078" y="63.074092" style="fill: #191919"/>
    </g>
   </g>
   <g id="PathCollection_11">
    <defs>
     <path id="Ca_0_150a5d5a02" d="M 0 1.5 
C 0.397805 1.5 0.77937 1.341951 1.06066 1.06066 
C 1.341951 0.77937 1.5 0.397805 1.5 -0 
C 1.5 -0.397805 1.341951 -0.77937 1.06066 -1.06066 
C 0.77937 -1.341951 0.397805 -1.5 0 -1.5 
C -0.397805 -1.5 -0.77937 -1.341951 -1.06066 -1.06066 
C -1.341951 -0.77937 -1.5 -0.397805 -1.5 0 
C -1.5 0.397805 -1.341951 0.77937 -1.06066 1.06066 
C -0.77937 1.341951 -0.397805 1.5 0 1.5 
z
"/>
    </defs>
    <g clip-path="url(#pf72c2006b8)">
     <use xlink:href="#Ca_0_150a5d5a02" x="196.522054" y="141.81556" style="fill: #0d0d0d"/>
    </g>
    <g clip-path="url(#pf72c2006b8)">
     <use xlink:href="#Ca_0_150a5d5a02" x="195.1635" y="141.541913" style="fill: #0d0d0d"/>
    </g>
    <g clip-path="url(#pf72c2006b8)">
     <use xlink:href="#Ca_0_150a5d5a02" x="197.402057" y="140.896162" style="fill: #0d0d0d"/>
    </g>
    <g clip-path="url(#pf72c2006b8)">
     <use xlink:href="#Ca_0_150a5d5a02" x="195.986414" y="140.828362" style="fill: #0d0d0d"/>
    </g>
    <g clip-path="url(#pf72c2006b8)">
     <use xlink:href="#Ca_0_150a5d5a02" x="196.729949" y="141.000753" style="fill: #0d0d0d"/>
    </g>
   </g>
   <g id="PathCollection_12">
    <defs>
     <path id="Cb_0_2ba5e6b296" d="M 0 1.5 
C 0.397805 1.5 0.77937 1.341951 1.06066 1.06066 
C 1.341951 0.77937 1.5 0.397805 1.5 -0 
C 1.5 -0.397805 1.341951 -0.77937 1.06066 -1.06066 
C 0.77937 -1.341951 0.397805 -1.5 0 -1.5 
C -0.397805 -1.5 -0.77937 -1.341951 -1.06066 -1.06066 
C -1.341951 -0.77937 -1.5 -0.397805 -1.5 0 
C -1.5 0.397805 -1.341951 0.77937 -1.06066 1.06066 
C -0.77937 1.341951 -0.397805 1.5 0 1.5 
z
"/>
    </defs>
    <g clip-path="url(#pf72c2006b8)">
     <use xlink:href="#Cb_0_2ba5e6b296" x="207.051626" y="95.619814"/>
    </g>
    <g clip-path="url(#pf72c2006b8)">
     <use xlink:href="#Cb_0_2ba5e6b296" x="207.052507" y="95.424774"/>
    </g>
    <g clip-path="url(#pf72c2006b8)">
     <use xlink:href="#Cb_0_2ba5e6b296" x="208.299263" y="85.404189"/>
    </g>
    <g clip-path="url(#pf72c2006b8)">
     <use xlink:href="#Cb_0_2ba5e6b296" x="208.488583" y="79.505172"/>
    </g>
    <g clip-path="url(#pf72c2006b8)">
     <use xlink:href="#Cb_0_2ba5e6b296" x="206.964732" y="88.277511"/>
    </g>
   </g>
   <g id="PathCollection_13">
    <defs>
     <path id="Cc_0_d06538dff5" d="M 0 1.5 
C 0.397805 1.5 0.77937 1.341951 1.06066 1.06066 
C 1.341951 0.77937 1.5 0.397805 1.5 -0 
C 1.5 -0.397805 1.341951 -0.77937 1.06066 -1.06066 
C 0.77937 -1.341951 0.397805 -1.5 0 -1.5 
C -0.397805 -1.5 -0.77937 -1.341951 -1.06066 -1.06066 
C -1.341951 -0.77937 -1.5 -0.397805 -1.5 0 
C -1.5 0.397805 -1.341951 0.77937 -1.06066 1.06066 
C -0.77937 1.341951 -0.397805 1.5 0 1.5 
z
"/>
    </defs>
    <g clip-path="url(#pf72c2006b8)">
     <use xlink:href="#Cc_0_d06538dff5" x="231.923924" y="132.589857" style="fill: #262626"/>
    </g>
    <g clip-path="url(#pf72c2006b8)">
     <use xlink:href="#Cc_0_d06538dff5" x="231.704432" y="133.116278" style="fill: #262626"/>
    </g>
    <g clip-path="url(#pf72c2006b8)">
     <use xlink:href="#Cc_0_d06538dff5" x="233.542825" y="132.14373" style="fill: #262626"/>
    </g>
    <g clip-path="url(#pf72c2006b8)">
     <use xlink:href="#Cc_0_d06538dff5" x="231.522688" y="132.837413" style="fill: #262626"/>
    </g>
    <g clip-path="url(#pf72c2006b8)">
     <use xlink:href="#Cc_0_d06538dff5" x="232.664183" y="131.976614" style="fill: #262626"/>
    </g>
   </g>
   <g id="PathCollection_14">
    <defs>
     <path id="Cd_0_dcfc95116d" d="M 0 1.5 
C 0.397805 1.5 0.77937 1.341951 1.06066 1.06066 
C 1.341951 0.77937 1.5 0.397805 1.5 -0 
C 1.5 -0.397805 1.341951 -0.77937 1.06066 -1.06066 
C 0.77937 -1.341951 0.397805 -1.5 0 -1.5 
C -0.397805 -1.5 -0.77937 -1.341951 -1.06066 -1.06066 
C -1.341951 -0.77937 -1.5 -0.397805 -1.5 0 
C -1.5 0.397805 -1.341951 0.77937 -1.06066 1.06066 
C -0.77937 1.341951 -0.397805 1.5 0 1.5 
z
"/>
    </defs>
    <g clip-path="url(#pf72c2006b8)">
     <use xlink:href="#Cd_0_dcfc95116d" x="243.581675" y="55.565432" style="fill: #191919"/>
    </g>
    <g clip-path="url(#pf72c2006b8)">
     <use xlink:href="#Cd_0_dcfc95116d" x="243.901693" y="52.906747" style="fill: #191919"/>
    </g>
    <g clip-path="url(#pf72c2006b8)">
     <use xlink:href="#Cd_0_dcfc95116d" x="243.142834" y="51.75116" style="fill: #191919"/>
    </g>
    <g clip-path="url(#pf72c2006b8)">
     <use xlink:href="#Cd_0_dcfc95116d" x="244.690734" y="56.838841" style="fill: #191919"/>
    </g>
    <g clip-path="url(#pf72c2006b8)">
     <use xlink:href="#Cd_0_dcfc95116d" x="245.537424" y="44.509842" style="fill: #191919"/>
    </g>
   </g>
   <g id="PathCollection_15">
    <defs>
     <path id="Ce_0_95f46dad54" d="M 0 1.5 
C 0.397805 1.5 0.77937 1.341951 1.06066 1.06066 
C 1.341951 0.77937 1.5 0.397805 1.5 -0 
C 1.5 -0.397805 1.341951 -0.77937 1.06066 -1.06066 
C 0.77937 -1.341951 0.397805 -1.5 0 -1.5 
C -0.397805 -1.5 -0.77937 -1.341951 -1.06066 -1.06066 
C -1.341951 -0.77937 -1.5 -0.397805 -1.5 0 
C -1.5 0.397805 -1.341951 0.77937 -1.06066 1.06066 
C -0.77937 1.341951 -0.397805 1.5 0 1.5 
z
"/>
    </defs>
    <g clip-path="url(#pf72c2006b8)">
     <use xlink:href="#Ce_0_95f46dad54" x="256.963982" y="142.301985" style="fill: #0d0d0d"/>
    </g>
    <g clip-path="url(#pf72c2006b8)">
     <use xlink:href="#Ce_0_95f46dad54" x="257.238095" y="142.055508" style="fill: #0d0d0d"/>
    </g>
    <g clip-path="url(#pf72c2006b8)">
     <use xlink:href="#Ce_0_95f46dad54" x="255.889046" y="141.379815" style="fill: #0d0d0d"/>
    </g>
    <g clip-path="url(#pf72c2006b8)">
     <use xlink:href="#Ce_0_95f46dad54" x="257.607708" y="141.428566" style="fill: #0d0d0d"/>
    </g>
    <g clip-path="url(#pf72c2006b8)">
     <use xlink:href="#Ce_0_95f46dad54" x="255.441136" y="141.336954" style="fill: #0d0d0d"/>
    </g>
   </g>
   <g id="PathCollection_16">
    <defs>
     <path id="Cf_0_0e5c1d3263" d="M 0 1.5 
C 0.397805 1.5 0.77937 1.341951 1.06066 1.06066 
C 1.341951 0.77937 1.5 0.397805 1.5 -0 
C 1.5 -0.397805 1.341951 -0.77937 1.06066 -1.06066 
C 0.77937 -1.341951 0.397805 -1.5 0 -1.5 
C -0.397805 -1.5 -0.77937 -1.341951 -1.06066 -1.06066 
C -1.341951 -0.77937 -1.5 -0.397805 -1.5 0 
C -1.5 0.397805 -1.341951 0.77937 -1.06066 1.06066 
C -0.77937 1.341951 -0.397805 1.5 0 1.5 
z
"/>
    </defs>
    <g clip-path="url(#pf72c2006b8)">
     <use xlink:href="#Cf_0_0e5c1d3263" x="269.000551" y="97.458659"/>
    </g>
    <g clip-path="url(#pf72c2006b8)">
     <use xlink:href="#Cf_0_0e5c1d3263" x="268.215116" y="91.2457"/>
    </g>
    <g clip-path="url(#pf72c2006b8)">
     <use xlink:href="#Cf_0_0e5c1d3263" x="267.642932" y="92.393122"/>
    </g>
    <g clip-path="url(#pf72c2006b8)">
     <use xlink:href="#Cf_0_0e5c1d3263" x="267.423744" y="90.967307"/>
    </g>
    <g clip-path="url(#pf72c2006b8)">
     <use xlink:href="#Cf_0_0e5c1d3263" x="267.706459" y="85.787738"/>
    </g>
   </g>
   <g id="text_12">
    <!-- * -->
    <g transform="translate(68.618355 50.589315) scale(0.1 -0.1)">
     <defs>
      <path id="DejaVuSans-2a" d="M 3009 3897 
L 1888 3291 
L 3009 2681 
L 2828 2375 
L 1778 3009 
L 1778 1831 
L 1422 1831 
L 1422 3009 
L 372 2375 
L 191 2681 
L 1313 3291 
L 191 3897 
L 372 4206 
L 1422 3572 
L 1422 4750 
L 1778 4750 
L 1778 3572 
L 2828 4206 
L 3009 3897 
z
" transform="scale(0.015625)"/>
     </defs>
     <use xlink:href="#DejaVuSans-2a"/>
    </g>
   </g>
   <g id="text_13">
    <!-- * -->
    <g transform="translate(128.304868 43.574496) scale(0.1 -0.1)">
     <use xlink:href="#DejaVuSans-2a"/>
    </g>
   </g>
   <g id="text_14">
    <!-- * -->
    <g transform="translate(187.991382 45.209266) scale(0.1 -0.1)">
     <use xlink:href="#DejaVuSans-2a"/>
    </g>
   </g>
   <g id="text_15">
    <!-- * -->
    <g transform="translate(247.677895 31.207513) scale(0.1 -0.1)">
     <use xlink:href="#DejaVuSans-2a"/>
    </g>
   </g>
   <g id="text_16">
    <!-- medical -->
    <g transform="translate(136.993125 16.318125) scale(0.12 -0.12)">
     <defs>
      <path id="DejaVuSans-63" d="M 3122 3366 
L 3122 2828 
Q 2878 2963 2633 3030 
Q 2388 3097 2138 3097 
Q 1578 3097 1268 2742 
Q 959 2388 959 1747 
Q 959 1106 1268 751 
Q 1578 397 2138 397 
Q 2388 397 2633 464 
Q 2878 531 3122 666 
L 3122 134 
Q 2881 22 2623 -34 
Q 2366 -91 2075 -91 
Q 1284 -91 818 406 
Q 353 903 353 1747 
Q 353 2603 823 3093 
Q 1294 3584 2113 3584 
Q 2378 3584 2631 3529 
Q 2884 3475 3122 3366 
z
" transform="scale(0.015625)"/>
      <path id="DejaVuSans-6c" d="M 603 4863 
L 1178 4863 
L 1178 0 
L 603 0 
L 603 4863 
z
" transform="scale(0.015625)"/>
     </defs>
     <use xlink:href="#DejaVuSans-6d"/>
     <use xlink:href="#DejaVuSans-65" x="97.412109"/>
     <use xlink:href="#DejaVuSans-64" x="158.935547"/>
     <use xlink:href="#DejaVuSans-69" x="222.412109"/>
     <use xlink:href="#DejaVuSans-63" x="250.195312"/>
     <use xlink:href="#DejaVuSans-61" x="305.175781"/>
     <use xlink:href="#DejaVuSans-6c" x="366.455078"/>
    </g>
   </g>
   <g id="legend_1">
    <g id="patch_27">
     <path d="M 281.0525 142.191593 
L 400.85875 142.191593 
Q 402.85875 142.191593 402.85875 140.191593 
L 402.85875 81.922843 
Q 402.85875 79.922843 400.85875 79.922843 
L 281.0525 79.922843 
Q 279.0525 79.922843 279.0525 81.922843 
L 279.0525 140.191593 
Q 279.0525 142.191593 281.0525 142.191593 
z
" style="fill: #ffffff; opacity: 0.8; stroke: #cccccc; stroke-linejoin: miter"/>
    </g>
    <g id="patch_28">
     <path d="M 283.0525 91.52128 
L 303.0525 91.52128 
L 303.0525 84.52128 
L 283.0525 84.52128 
z
" style="fill: #3274a1; stroke: #3d3d3d; stroke-width: 0.75; stroke-linejoin: miter"/>
    </g>
    <g id="text_17">
     <!-- proba_weak -->
     <g transform="translate(311.0525 91.52128) scale(0.1 -0.1)">
      <defs>
       <path id="DejaVuSans-62" d="M 3116 1747 
Q 3116 2381 2855 2742 
Q 2594 3103 2138 3103 
Q 1681 3103 1420 2742 
Q 1159 2381 1159 1747 
Q 1159 1113 1420 752 
Q 1681 391 2138 391 
Q 2594 391 2855 752 
Q 3116 1113 3116 1747 
z
M 1159 2969 
Q 1341 3281 1617 3432 
Q 1894 3584 2278 3584 
Q 2916 3584 3314 3078 
Q 3713 2572 3713 1747 
Q 3713 922 3314 415 
Q 2916 -91 2278 -91 
Q 1894 -91 1617 61 
Q 1341 213 1159 525 
L 1159 0 
L 581 0 
L 581 4863 
L 1159 4863 
L 1159 2969 
z
" transform="scale(0.015625)"/>
       <path id="DejaVuSans-77" d="M 269 3500 
L 844 3500 
L 1563 769 
L 2278 3500 
L 2956 3500 
L 3675 769 
L 4391 3500 
L 4966 3500 
L 4050 0 
L 3372 0 
L 2619 2869 
L 1863 0 
L 1184 0 
L 269 3500 
z
" transform="scale(0.015625)"/>
       <path id="DejaVuSans-6b" d="M 581 4863 
L 1159 4863 
L 1159 1991 
L 2875 3500 
L 3609 3500 
L 1753 1863 
L 3688 0 
L 2938 0 
L 1159 1709 
L 1159 0 
L 581 0 
L 581 4863 
z
" transform="scale(0.015625)"/>
      </defs>
      <use xlink:href="#DejaVuSans-70"/>
      <use xlink:href="#DejaVuSans-72" x="63.476562"/>
      <use xlink:href="#DejaVuSans-6f" x="102.339844"/>
      <use xlink:href="#DejaVuSans-62" x="163.521484"/>
      <use xlink:href="#DejaVuSans-61" x="226.998047"/>
      <use xlink:href="#DejaVuSans-5f" x="288.277344"/>
      <use xlink:href="#DejaVuSans-77" x="338.277344"/>
      <use xlink:href="#DejaVuSans-65" x="420.064453"/>
      <use xlink:href="#DejaVuSans-61" x="481.587891"/>
      <use xlink:href="#DejaVuSans-6b" x="542.867188"/>
     </g>
    </g>
    <g id="patch_29">
     <path d="M 283.0525 106.47753 
L 303.0525 106.47753 
L 303.0525 99.47753 
L 283.0525 99.47753 
z
" style="fill: #e1812c; stroke: #3d3d3d; stroke-width: 0.75; stroke-linejoin: miter"/>
    </g>
    <g id="text_18">
     <!-- embedding_weak -->
     <g transform="translate(311.0525 106.47753) scale(0.1 -0.1)">
      <defs>
       <path id="DejaVuSans-67" d="M 2906 1791 
Q 2906 2416 2648 2759 
Q 2391 3103 1925 3103 
Q 1463 3103 1205 2759 
Q 947 2416 947 1791 
Q 947 1169 1205 825 
Q 1463 481 1925 481 
Q 2391 481 2648 825 
Q 2906 1169 2906 1791 
z
M 3481 434 
Q 3481 -459 3084 -895 
Q 2688 -1331 1869 -1331 
Q 1566 -1331 1297 -1286 
Q 1028 -1241 775 -1147 
L 775 -588 
Q 1028 -725 1275 -790 
Q 1522 -856 1778 -856 
Q 2344 -856 2625 -561 
Q 2906 -266 2906 331 
L 2906 616 
Q 2728 306 2450 153 
Q 2172 0 1784 0 
Q 1141 0 747 490 
Q 353 981 353 1791 
Q 353 2603 747 3093 
Q 1141 3584 1784 3584 
Q 2172 3584 2450 3431 
Q 2728 3278 2906 2969 
L 2906 3500 
L 3481 3500 
L 3481 434 
z
" transform="scale(0.015625)"/>
      </defs>
      <use xlink:href="#DejaVuSans-65"/>
      <use xlink:href="#DejaVuSans-6d" x="61.523438"/>
      <use xlink:href="#DejaVuSans-62" x="158.935547"/>
      <use xlink:href="#DejaVuSans-65" x="222.412109"/>
      <use xlink:href="#DejaVuSans-64" x="283.935547"/>
      <use xlink:href="#DejaVuSans-64" x="347.412109"/>
      <use xlink:href="#DejaVuSans-69" x="410.888672"/>
      <use xlink:href="#DejaVuSans-6e" x="438.671875"/>
      <use xlink:href="#DejaVuSans-67" x="502.050781"/>
      <use xlink:href="#DejaVuSans-5f" x="565.527344"/>
      <use xlink:href="#DejaVuSans-77" x="615.527344"/>
      <use xlink:href="#DejaVuSans-65" x="697.314453"/>
      <use xlink:href="#DejaVuSans-61" x="758.837891"/>
      <use xlink:href="#DejaVuSans-6b" x="820.117188"/>
     </g>
    </g>
    <g id="patch_30">
     <path d="M 283.0525 121.43378 
L 303.0525 121.43378 
L 303.0525 114.43378 
L 283.0525 114.43378 
z
" style="fill: #3a923a; stroke: #3d3d3d; stroke-width: 0.75; stroke-linejoin: miter"/>
    </g>
    <g id="text_19">
     <!-- proba -->
     <g transform="translate(311.0525 121.43378) scale(0.1 -0.1)">
      <use xlink:href="#DejaVuSans-70"/>
      <use xlink:href="#DejaVuSans-72" x="63.476562"/>
      <use xlink:href="#DejaVuSans-6f" x="102.339844"/>
      <use xlink:href="#DejaVuSans-62" x="163.521484"/>
      <use xlink:href="#DejaVuSans-61" x="226.998047"/>
     </g>
    </g>
    <g id="patch_31">
     <path d="M 283.0525 136.111905 
L 303.0525 136.111905 
L 303.0525 129.111905 
L 283.0525 129.111905 
z
" style="fill: #c03d3e; stroke: #3d3d3d; stroke-width: 0.75; stroke-linejoin: miter"/>
    </g>
    <g id="text_20">
     <!-- embedding -->
     <g transform="translate(311.0525 136.111905) scale(0.1 -0.1)">
      <use xlink:href="#DejaVuSans-65"/>
      <use xlink:href="#DejaVuSans-6d" x="61.523438"/>
      <use xlink:href="#DejaVuSans-62" x="158.935547"/>
      <use xlink:href="#DejaVuSans-65" x="222.412109"/>
      <use xlink:href="#DejaVuSans-64" x="283.935547"/>
      <use xlink:href="#DejaVuSans-64" x="347.412109"/>
      <use xlink:href="#DejaVuSans-69" x="410.888672"/>
      <use xlink:href="#DejaVuSans-6e" x="438.671875"/>
      <use xlink:href="#DejaVuSans-67" x="502.050781"/>
     </g>
    </g>
   </g>
  </g>
 </g>
 <defs>
  <clipPath id="pf72c2006b8">
   <rect x="47.24375" y="22.318125" width="226.80875" height="124.873468"/>
  </clipPath>
 </defs>
</svg>
