<?xml version="1.0" encoding="utf-8" standalone="no"?>
<!DOCTYPE svg PUBLIC "-//W3C//DTD SVG 1.1//EN"
  "http://www.w3.org/Graphics/SVG/1.1/DTD/svg11.dtd">
<svg xmlns:xlink="http://www.w3.org/1999/xlink" width="409.99625pt" height="207.241673pt" viewBox="0 0 409.99625 207.241673" xmlns="http://www.w3.org/2000/svg" version="1.1">
 <metadata>
  <rdf:RDF xmlns:dc="http://purl.org/dc/elements/1.1/" xmlns:cc="http://creativecommons.org/ns#" xmlns:rdf="http://www.w3.org/1999/02/22-rdf-syntax-ns#">
   <cc:Work>
    <dc:type rdf:resource="http://purl.org/dc/dcmitype/StillImage"/>
    <dc:date>2023-06-23T11:37:41.919728</dc:date>
    <dc:format>image/svg+xml</dc:format>
    <dc:creator>
     <cc:Agent>
      <dc:title>Matplotlib v3.7.1, https://matplotlib.org/</dc:title>
     </cc:Agent>
    </dc:creator>
   </cc:Work>
  </rdf:RDF>
 </metadata>
 <defs>
  <style type="text/css">*{stroke-linejoin: round; stroke-linecap: butt}</style>
 </defs>
 <g id="figure_1">
  <g id="patch_1">
   <path d="M 0 207.241673 
L 409.99625 207.241673 
L 409.99625 0 
L 0 0 
L 0 207.241673 
z
" style="fill: none"/>
  </g>
  <g id="axes_1">
   <g id="patch_2">
    <path d="M 40.88125 147.191593 
L 273.99 147.191593 
L 273.99 22.318125 
L 40.88125 22.318125 
L 40.88125 147.191593 
z
" style="fill: none"/>
   </g>
   <g id="patch_3">
    <path d="M 46.825523 141.193527 
L 58.247852 141.193527 
L 58.247852 141.134474 
L 46.825523 141.134474 
L 46.825523 141.193527 
z
" clip-path="url(#p6613d6df34)" style="fill: #3274a1; stroke: #3d3d3d; stroke-width: 1.5; stroke-linejoin: miter"/>
   </g>
   <g id="patch_4">
    <path d="M 58.480961 75.257083 
L 69.903289 75.257083 
L 69.903289 68.179392 
L 58.480961 68.179392 
L 58.480961 75.257083 
z
" clip-path="url(#p6613d6df34)" style="fill: #e1812c; stroke: #3d3d3d; stroke-width: 1.5; stroke-linejoin: miter"/>
   </g>
   <g id="patch_5">
    <path d="M 70.136398 141.293854 
L 81.558727 141.293854 
L 81.558727 141.249217 
L 70.136398 141.249217 
L 70.136398 141.293854 
z
" clip-path="url(#p6613d6df34)" style="fill: #3a923a; stroke: #3d3d3d; stroke-width: 1.5; stroke-linejoin: miter"/>
   </g>
   <g id="patch_6">
    <path d="M 81.791836 77.351756 
L 93.214164 77.351756 
L 93.214164 50.565401 
L 81.791836 50.565401 
L 81.791836 77.351756 
z
" clip-path="url(#p6613d6df34)" style="fill: #c03d3e; stroke: #3d3d3d; stroke-width: 1.5; stroke-linejoin: miter"/>
   </g>
   <g id="patch_7">
    <path d="M 105.102711 141.206538 
L 116.525039 141.206538 
L 116.525039 141.146753 
L 105.102711 141.146753 
L 105.102711 141.206538 
z
" clip-path="url(#p6613d6df34)" style="fill: #3274a1; stroke: #3d3d3d; stroke-width: 1.5; stroke-linejoin: miter"/>
   </g>
   <g id="patch_8">
    <path d="M 116.758148 69.943058 
L 128.180477 69.943058 
L 128.180477 59.282792 
L 116.758148 59.282792 
L 116.758148 69.943058 
z
" clip-path="url(#p6613d6df34)" style="fill: #e1812c; stroke: #3d3d3d; stroke-width: 1.5; stroke-linejoin: miter"/>
   </g>
   <g id="patch_9">
    <path d="M 128.413586 141.198454 
L 139.835914 141.198454 
L 139.835914 141.108356 
L 128.413586 141.108356 
L 128.413586 141.198454 
z
" clip-path="url(#p6613d6df34)" style="fill: #3a923a; stroke: #3d3d3d; stroke-width: 1.5; stroke-linejoin: miter"/>
   </g>
   <g id="patch_10">
    <path d="M 140.069023 79.647286 
L 151.491352 79.647286 
L 151.491352 57.431458 
L 140.069023 57.431458 
L 140.069023 79.647286 
z
" clip-path="url(#p6613d6df34)" style="fill: #c03d3e; stroke: #3d3d3d; stroke-width: 1.5; stroke-linejoin: miter"/>
   </g>
   <g id="patch_11">
    <path d="M 163.379898 141.263028 
L 174.802227 141.263028 
L 174.802227 141.086765 
L 163.379898 141.086765 
L 163.379898 141.263028 
z
" clip-path="url(#p6613d6df34)" style="fill: #3274a1; stroke: #3d3d3d; stroke-width: 1.5; stroke-linejoin: miter"/>
   </g>
   <g id="patch_12">
    <path d="M 175.035336 78.278302 
L 186.457664 78.278302 
L 186.457664 52.52674 
L 175.035336 52.52674 
L 175.035336 78.278302 
z
" clip-path="url(#p6613d6df34)" style="fill: #e1812c; stroke: #3d3d3d; stroke-width: 1.5; stroke-linejoin: miter"/>
   </g>
   <g id="patch_13">
    <path d="M 186.690773 141.307954 
L 198.113102 141.307954 
L 198.113102 141.117886 
L 186.690773 141.117886 
L 186.690773 141.307954 
z
" clip-path="url(#p6613d6df34)" style="fill: #3a923a; stroke: #3d3d3d; stroke-width: 1.5; stroke-linejoin: miter"/>
   </g>
   <g id="patch_14">
    <path d="M 198.346211 83.384473 
L 209.768539 83.384473 
L 209.768539 55.299332 
L 198.346211 55.299332 
L 198.346211 83.384473 
z
" clip-path="url(#p6613d6df34)" style="fill: #c03d3e; stroke: #3d3d3d; stroke-width: 1.5; stroke-linejoin: miter"/>
   </g>
   <g id="patch_15">
    <path d="M 221.657086 141.490373 
L 233.079414 141.490373 
L 233.079414 141.284952 
L 221.657086 141.284952 
L 221.657086 141.490373 
z
" clip-path="url(#p6613d6df34)" style="fill: #3274a1; stroke: #3d3d3d; stroke-width: 1.5; stroke-linejoin: miter"/>
   </g>
   <g id="patch_16">
    <path d="M 233.312523 92.620133 
L 244.734852 92.620133 
L 244.734852 89.210218 
L 233.312523 89.210218 
L 233.312523 92.620133 
z
" clip-path="url(#p6613d6df34)" style="fill: #e1812c; stroke: #3d3d3d; stroke-width: 1.5; stroke-linejoin: miter"/>
   </g>
   <g id="patch_17">
    <path d="M 244.967961 141.462675 
L 256.390289 141.462675 
L 256.390289 141.426515 
L 244.967961 141.426515 
L 244.967961 141.462675 
z
" clip-path="url(#p6613d6df34)" style="fill: #3a923a; stroke: #3d3d3d; stroke-width: 1.5; stroke-linejoin: miter"/>
   </g>
   <g id="patch_18">
    <path d="M 256.623398 96.085036 
L 268.045727 96.085036 
L 268.045727 87.559104 
L 256.623398 87.559104 
L 256.623398 96.085036 
z
" clip-path="url(#p6613d6df34)" style="fill: #c03d3e; stroke: #3d3d3d; stroke-width: 1.5; stroke-linejoin: miter"/>
   </g>
   <g id="patch_19">
    <path d="M 70.019844 145.096682 
L 70.019844 145.096682 
L 70.019844 145.096682 
L 70.019844 145.096682 
z
" clip-path="url(#p6613d6df34)" style="fill: #3274a1; stroke: #3d3d3d; stroke-width: 0.75; stroke-linejoin: miter"/>
   </g>
   <g id="patch_20">
    <path d="M 70.019844 145.096682 
L 70.019844 145.096682 
L 70.019844 145.096682 
L 70.019844 145.096682 
z
" clip-path="url(#p6613d6df34)" style="fill: #e1812c; stroke: #3d3d3d; stroke-width: 0.75; stroke-linejoin: miter"/>
   </g>
   <g id="patch_21">
    <path d="M 70.019844 145.096682 
L 70.019844 145.096682 
L 70.019844 145.096682 
L 70.019844 145.096682 
z
" clip-path="url(#p6613d6df34)" style="fill: #3a923a; stroke: #3d3d3d; stroke-width: 0.75; stroke-linejoin: miter"/>
   </g>
   <g id="patch_22">
    <path d="M 70.019844 145.096682 
L 70.019844 145.096682 
L 70.019844 145.096682 
L 70.019844 145.096682 
z
" clip-path="url(#p6613d6df34)" style="fill: #c03d3e; stroke: #3d3d3d; stroke-width: 0.75; stroke-linejoin: miter"/>
   </g>
   <g id="matplotlib.axis_1">
    <g id="xtick_1">
     <g id="line2d_1">
      <defs>
       <path id="mab4ebd5e4f" d="M 0 0 
L 0 3.5 
" style="stroke: #000000; stroke-width: 0.8"/>
      </defs>
      <g>
       <use xlink:href="#mab4ebd5e4f" x="70.019844" y="147.191593" style="stroke: #000000; stroke-width: 0.8"/>
      </g>
     </g>
     <g id="text_1">
      <!-- none -->
      <g transform="translate(50.909178 177.204604) rotate(-45) scale(0.1 -0.1)">
       <defs>
        <path id="DejaVuSans-6e" d="M 3513 2113 
L 3513 0 
L 2938 0 
L 2938 2094 
Q 2938 2591 2744 2837 
Q 2550 3084 2163 3084 
Q 1697 3084 1428 2787 
Q 1159 2491 1159 1978 
L 1159 0 
L 581 0 
L 581 3500 
L 1159 3500 
L 1159 2956 
Q 1366 3272 1645 3428 
Q 1925 3584 2291 3584 
Q 2894 3584 3203 3211 
Q 3513 2838 3513 2113 
z
" transform="scale(0.015625)"/>
        <path id="DejaVuSans-6f" d="M 1959 3097 
Q 1497 3097 1228 2736 
Q 959 2375 959 1747 
Q 959 1119 1226 758 
Q 1494 397 1959 397 
Q 2419 397 2687 759 
Q 2956 1122 2956 1747 
Q 2956 2369 2687 2733 
Q 2419 3097 1959 3097 
z
M 1959 3584 
Q 2709 3584 3137 3096 
Q 3566 2609 3566 1747 
Q 3566 888 3137 398 
Q 2709 -91 1959 -91 
Q 1206 -91 779 398 
Q 353 888 353 1747 
Q 353 2609 779 3096 
Q 1206 3584 1959 3584 
z
" transform="scale(0.015625)"/>
        <path id="DejaVuSans-65" d="M 3597 1894 
L 3597 1613 
L 953 1613 
Q 991 1019 1311 708 
Q 1631 397 2203 397 
Q 2534 397 2845 478 
Q 3156 559 3463 722 
L 3463 178 
Q 3153 47 2828 -22 
Q 2503 -91 2169 -91 
Q 1331 -91 842 396 
Q 353 884 353 1716 
Q 353 2575 817 3079 
Q 1281 3584 2069 3584 
Q 2775 3584 3186 3129 
Q 3597 2675 3597 1894 
z
M 3022 2063 
Q 3016 2534 2758 2815 
Q 2500 3097 2075 3097 
Q 1594 3097 1305 2825 
Q 1016 2553 972 2059 
L 3022 2063 
z
" transform="scale(0.015625)"/>
       </defs>
       <use xlink:href="#DejaVuSans-6e"/>
       <use xlink:href="#DejaVuSans-6f" x="63.378906"/>
       <use xlink:href="#DejaVuSans-6e" x="124.560547"/>
       <use xlink:href="#DejaVuSans-65" x="187.939453"/>
      </g>
     </g>
    </g>
    <g id="xtick_2">
     <g id="line2d_2">
      <g>
       <use xlink:href="#mab4ebd5e4f" x="128.297031" y="147.191593" style="stroke: #000000; stroke-width: 0.8"/>
      </g>
     </g>
     <g id="text_2">
      <!-- drop30 -->
      <g transform="translate(101.776108 184.614862) rotate(-45) scale(0.1 -0.1)">
       <defs>
        <path id="DejaVuSans-64" d="M 2906 2969 
L 2906 4863 
L 3481 4863 
L 3481 0 
L 2906 0 
L 2906 525 
Q 2725 213 2448 61 
Q 2172 -91 1784 -91 
Q 1150 -91 751 415 
Q 353 922 353 1747 
Q 353 2572 751 3078 
Q 1150 3584 1784 3584 
Q 2172 3584 2448 3432 
Q 2725 3281 2906 2969 
z
M 947 1747 
Q 947 1113 1208 752 
Q 1469 391 1925 391 
Q 2381 391 2643 752 
Q 2906 1113 2906 1747 
Q 2906 2381 2643 2742 
Q 2381 3103 1925 3103 
Q 1469 3103 1208 2742 
Q 947 2381 947 1747 
z
" transform="scale(0.015625)"/>
        <path id="DejaVuSans-72" d="M 2631 2963 
Q 2534 3019 2420 3045 
Q 2306 3072 2169 3072 
Q 1681 3072 1420 2755 
Q 1159 2438 1159 1844 
L 1159 0 
L 581 0 
L 581 3500 
L 1159 3500 
L 1159 2956 
Q 1341 3275 1631 3429 
Q 1922 3584 2338 3584 
Q 2397 3584 2469 3576 
Q 2541 3569 2628 3553 
L 2631 2963 
z
" transform="scale(0.015625)"/>
        <path id="DejaVuSans-70" d="M 1159 525 
L 1159 -1331 
L 581 -1331 
L 581 3500 
L 1159 3500 
L 1159 2969 
Q 1341 3281 1617 3432 
Q 1894 3584 2278 3584 
Q 2916 3584 3314 3078 
Q 3713 2572 3713 1747 
Q 3713 922 3314 415 
Q 2916 -91 2278 -91 
Q 1894 -91 1617 61 
Q 1341 213 1159 525 
z
M 3116 1747 
Q 3116 2381 2855 2742 
Q 2594 3103 2138 3103 
Q 1681 3103 1420 2742 
Q 1159 2381 1159 1747 
Q 1159 1113 1420 752 
Q 1681 391 2138 391 
Q 2594 391 2855 752 
Q 3116 1113 3116 1747 
z
" transform="scale(0.015625)"/>
        <path id="DejaVuSans-33" d="M 2597 2516 
Q 3050 2419 3304 2112 
Q 3559 1806 3559 1356 
Q 3559 666 3084 287 
Q 2609 -91 1734 -91 
Q 1441 -91 1130 -33 
Q 819 25 488 141 
L 488 750 
Q 750 597 1062 519 
Q 1375 441 1716 441 
Q 2309 441 2620 675 
Q 2931 909 2931 1356 
Q 2931 1769 2642 2001 
Q 2353 2234 1838 2234 
L 1294 2234 
L 1294 2753 
L 1863 2753 
Q 2328 2753 2575 2939 
Q 2822 3125 2822 3475 
Q 2822 3834 2567 4026 
Q 2313 4219 1838 4219 
Q 1578 4219 1281 4162 
Q 984 4106 628 3988 
L 628 4550 
Q 988 4650 1302 4700 
Q 1616 4750 1894 4750 
Q 2613 4750 3031 4423 
Q 3450 4097 3450 3541 
Q 3450 3153 3228 2886 
Q 3006 2619 2597 2516 
z
" transform="scale(0.015625)"/>
        <path id="DejaVuSans-30" d="M 2034 4250 
Q 1547 4250 1301 3770 
Q 1056 3291 1056 2328 
Q 1056 1369 1301 889 
Q 1547 409 2034 409 
Q 2525 409 2770 889 
Q 3016 1369 3016 2328 
Q 3016 3291 2770 3770 
Q 2525 4250 2034 4250 
z
M 2034 4750 
Q 2819 4750 3233 4129 
Q 3647 3509 3647 2328 
Q 3647 1150 3233 529 
Q 2819 -91 2034 -91 
Q 1250 -91 836 529 
Q 422 1150 422 2328 
Q 422 3509 836 4129 
Q 1250 4750 2034 4750 
z
" transform="scale(0.015625)"/>
       </defs>
       <use xlink:href="#DejaVuSans-64"/>
       <use xlink:href="#DejaVuSans-72" x="63.476562"/>
       <use xlink:href="#DejaVuSans-6f" x="102.339844"/>
       <use xlink:href="#DejaVuSans-70" x="163.521484"/>
       <use xlink:href="#DejaVuSans-33" x="226.998047"/>
       <use xlink:href="#DejaVuSans-30" x="290.621094"/>
      </g>
     </g>
    </g>
    <g id="xtick_3">
     <g id="line2d_3">
      <g>
       <use xlink:href="#mab4ebd5e4f" x="186.574219" y="147.191593" style="stroke: #000000; stroke-width: 0.8"/>
      </g>
     </g>
     <g id="text_3">
      <!-- drop50 -->
      <g transform="translate(160.053295 184.614862) rotate(-45) scale(0.1 -0.1)">
       <defs>
        <path id="DejaVuSans-35" d="M 691 4666 
L 3169 4666 
L 3169 4134 
L 1269 4134 
L 1269 2991 
Q 1406 3038 1543 3061 
Q 1681 3084 1819 3084 
Q 2600 3084 3056 2656 
Q 3513 2228 3513 1497 
Q 3513 744 3044 326 
Q 2575 -91 1722 -91 
Q 1428 -91 1123 -41 
Q 819 9 494 109 
L 494 744 
Q 775 591 1075 516 
Q 1375 441 1709 441 
Q 2250 441 2565 725 
Q 2881 1009 2881 1497 
Q 2881 1984 2565 2268 
Q 2250 2553 1709 2553 
Q 1456 2553 1204 2497 
Q 953 2441 691 2322 
L 691 4666 
z
" transform="scale(0.015625)"/>
       </defs>
       <use xlink:href="#DejaVuSans-64"/>
       <use xlink:href="#DejaVuSans-72" x="63.476562"/>
       <use xlink:href="#DejaVuSans-6f" x="102.339844"/>
       <use xlink:href="#DejaVuSans-70" x="163.521484"/>
       <use xlink:href="#DejaVuSans-35" x="226.998047"/>
       <use xlink:href="#DejaVuSans-30" x="290.621094"/>
      </g>
     </g>
    </g>
    <g id="xtick_4">
     <g id="line2d_4">
      <g>
       <use xlink:href="#mab4ebd5e4f" x="244.851406" y="147.191593" style="stroke: #000000; stroke-width: 0.8"/>
      </g>
     </g>
     <g id="text_4">
      <!-- drop80 -->
      <g transform="translate(218.330483 184.614862) rotate(-45) scale(0.1 -0.1)">
       <defs>
        <path id="DejaVuSans-38" d="M 2034 2216 
Q 1584 2216 1326 1975 
Q 1069 1734 1069 1313 
Q 1069 891 1326 650 
Q 1584 409 2034 409 
Q 2484 409 2743 651 
Q 3003 894 3003 1313 
Q 3003 1734 2745 1975 
Q 2488 2216 2034 2216 
z
M 1403 2484 
Q 997 2584 770 2862 
Q 544 3141 544 3541 
Q 544 4100 942 4425 
Q 1341 4750 2034 4750 
Q 2731 4750 3128 4425 
Q 3525 4100 3525 3541 
Q 3525 3141 3298 2862 
Q 3072 2584 2669 2484 
Q 3125 2378 3379 2068 
Q 3634 1759 3634 1313 
Q 3634 634 3220 271 
Q 2806 -91 2034 -91 
Q 1263 -91 848 271 
Q 434 634 434 1313 
Q 434 1759 690 2068 
Q 947 2378 1403 2484 
z
M 1172 3481 
Q 1172 3119 1398 2916 
Q 1625 2713 2034 2713 
Q 2441 2713 2670 2916 
Q 2900 3119 2900 3481 
Q 2900 3844 2670 4047 
Q 2441 4250 2034 4250 
Q 1625 4250 1398 4047 
Q 1172 3844 1172 3481 
z
" transform="scale(0.015625)"/>
       </defs>
       <use xlink:href="#DejaVuSans-64"/>
       <use xlink:href="#DejaVuSans-72" x="63.476562"/>
       <use xlink:href="#DejaVuSans-6f" x="102.339844"/>
       <use xlink:href="#DejaVuSans-70" x="163.521484"/>
       <use xlink:href="#DejaVuSans-38" x="226.998047"/>
       <use xlink:href="#DejaVuSans-30" x="290.621094"/>
      </g>
     </g>
    </g>
    <g id="text_5">
     <!-- estimator_suffix -->
     <g transform="translate(117.253594 197.68386) scale(0.1 -0.1)">
      <defs>
       <path id="DejaVuSans-73" d="M 2834 3397 
L 2834 2853 
Q 2591 2978 2328 3040 
Q 2066 3103 1784 3103 
Q 1356 3103 1142 2972 
Q 928 2841 928 2578 
Q 928 2378 1081 2264 
Q 1234 2150 1697 2047 
L 1894 2003 
Q 2506 1872 2764 1633 
Q 3022 1394 3022 966 
Q 3022 478 2636 193 
Q 2250 -91 1575 -91 
Q 1294 -91 989 -36 
Q 684 19 347 128 
L 347 722 
Q 666 556 975 473 
Q 1284 391 1588 391 
Q 1994 391 2212 530 
Q 2431 669 2431 922 
Q 2431 1156 2273 1281 
Q 2116 1406 1581 1522 
L 1381 1569 
Q 847 1681 609 1914 
Q 372 2147 372 2553 
Q 372 3047 722 3315 
Q 1072 3584 1716 3584 
Q 2034 3584 2315 3537 
Q 2597 3491 2834 3397 
z
" transform="scale(0.015625)"/>
       <path id="DejaVuSans-74" d="M 1172 4494 
L 1172 3500 
L 2356 3500 
L 2356 3053 
L 1172 3053 
L 1172 1153 
Q 1172 725 1289 603 
Q 1406 481 1766 481 
L 2356 481 
L 2356 0 
L 1766 0 
Q 1100 0 847 248 
Q 594 497 594 1153 
L 594 3053 
L 172 3053 
L 172 3500 
L 594 3500 
L 594 4494 
L 1172 4494 
z
" transform="scale(0.015625)"/>
       <path id="DejaVuSans-69" d="M 603 3500 
L 1178 3500 
L 1178 0 
L 603 0 
L 603 3500 
z
M 603 4863 
L 1178 4863 
L 1178 4134 
L 603 4134 
L 603 4863 
z
" transform="scale(0.015625)"/>
       <path id="DejaVuSans-6d" d="M 3328 2828 
Q 3544 3216 3844 3400 
Q 4144 3584 4550 3584 
Q 5097 3584 5394 3201 
Q 5691 2819 5691 2113 
L 5691 0 
L 5113 0 
L 5113 2094 
Q 5113 2597 4934 2840 
Q 4756 3084 4391 3084 
Q 3944 3084 3684 2787 
Q 3425 2491 3425 1978 
L 3425 0 
L 2847 0 
L 2847 2094 
Q 2847 2600 2669 2842 
Q 2491 3084 2119 3084 
Q 1678 3084 1418 2786 
Q 1159 2488 1159 1978 
L 1159 0 
L 581 0 
L 581 3500 
L 1159 3500 
L 1159 2956 
Q 1356 3278 1631 3431 
Q 1906 3584 2284 3584 
Q 2666 3584 2933 3390 
Q 3200 3197 3328 2828 
z
" transform="scale(0.015625)"/>
       <path id="DejaVuSans-61" d="M 2194 1759 
Q 1497 1759 1228 1600 
Q 959 1441 959 1056 
Q 959 750 1161 570 
Q 1363 391 1709 391 
Q 2188 391 2477 730 
Q 2766 1069 2766 1631 
L 2766 1759 
L 2194 1759 
z
M 3341 1997 
L 3341 0 
L 2766 0 
L 2766 531 
Q 2569 213 2275 61 
Q 1981 -91 1556 -91 
Q 1019 -91 701 211 
Q 384 513 384 1019 
Q 384 1609 779 1909 
Q 1175 2209 1959 2209 
L 2766 2209 
L 2766 2266 
Q 2766 2663 2505 2880 
Q 2244 3097 1772 3097 
Q 1472 3097 1187 3025 
Q 903 2953 641 2809 
L 641 3341 
Q 956 3463 1253 3523 
Q 1550 3584 1831 3584 
Q 2591 3584 2966 3190 
Q 3341 2797 3341 1997 
z
" transform="scale(0.015625)"/>
       <path id="DejaVuSans-5f" d="M 3263 -1063 
L 3263 -1509 
L -63 -1509 
L -63 -1063 
L 3263 -1063 
z
" transform="scale(0.015625)"/>
       <path id="DejaVuSans-75" d="M 544 1381 
L 544 3500 
L 1119 3500 
L 1119 1403 
Q 1119 906 1312 657 
Q 1506 409 1894 409 
Q 2359 409 2629 706 
Q 2900 1003 2900 1516 
L 2900 3500 
L 3475 3500 
L 3475 0 
L 2900 0 
L 2900 538 
Q 2691 219 2414 64 
Q 2138 -91 1772 -91 
Q 1169 -91 856 284 
Q 544 659 544 1381 
z
M 1991 3584 
L 1991 3584 
z
" transform="scale(0.015625)"/>
       <path id="DejaVuSans-66" d="M 2375 4863 
L 2375 4384 
L 1825 4384 
Q 1516 4384 1395 4259 
Q 1275 4134 1275 3809 
L 1275 3500 
L 2222 3500 
L 2222 3053 
L 1275 3053 
L 1275 0 
L 697 0 
L 697 3053 
L 147 3053 
L 147 3500 
L 697 3500 
L 697 3744 
Q 697 4328 969 4595 
Q 1241 4863 1831 4863 
L 2375 4863 
z
" transform="scale(0.015625)"/>
       <path id="DejaVuSans-78" d="M 3513 3500 
L 2247 1797 
L 3578 0 
L 2900 0 
L 1881 1375 
L 863 0 
L 184 0 
L 1544 1831 
L 300 3500 
L 978 3500 
L 1906 2253 
L 2834 3500 
L 3513 3500 
z
" transform="scale(0.015625)"/>
      </defs>
      <use xlink:href="#DejaVuSans-65"/>
      <use xlink:href="#DejaVuSans-73" x="61.523438"/>
      <use xlink:href="#DejaVuSans-74" x="113.623047"/>
      <use xlink:href="#DejaVuSans-69" x="152.832031"/>
      <use xlink:href="#DejaVuSans-6d" x="180.615234"/>
      <use xlink:href="#DejaVuSans-61" x="278.027344"/>
      <use xlink:href="#DejaVuSans-74" x="339.306641"/>
      <use xlink:href="#DejaVuSans-6f" x="378.515625"/>
      <use xlink:href="#DejaVuSans-72" x="439.697266"/>
      <use xlink:href="#DejaVuSans-5f" x="480.810547"/>
      <use xlink:href="#DejaVuSans-73" x="530.810547"/>
      <use xlink:href="#DejaVuSans-75" x="582.910156"/>
      <use xlink:href="#DejaVuSans-66" x="646.289062"/>
      <use xlink:href="#DejaVuSans-66" x="681.494141"/>
      <use xlink:href="#DejaVuSans-69" x="716.699219"/>
      <use xlink:href="#DejaVuSans-78" x="744.482422"/>
     </g>
    </g>
   </g>
   <g id="matplotlib.axis_2">
    <g id="ytick_1">
     <g id="line2d_5">
      <defs>
       <path id="m1436f29765" d="M 0 0 
L -3.5 0 
" style="stroke: #000000; stroke-width: 0.8"/>
      </defs>
      <g>
       <use xlink:href="#m1436f29765" x="40.88125" y="145.096682" style="stroke: #000000; stroke-width: 0.8"/>
      </g>
     </g>
     <g id="text_6">
      <!-- 0 -->
      <g transform="translate(27.51875 148.895901) scale(0.1 -0.1)">
       <use xlink:href="#DejaVuSans-30"/>
      </g>
     </g>
    </g>
    <g id="ytick_2">
     <g id="line2d_6">
      <g>
       <use xlink:href="#m1436f29765" x="40.88125" y="118.273903" style="stroke: #000000; stroke-width: 0.8"/>
      </g>
     </g>
     <g id="text_7">
      <!-- 10 -->
      <g transform="translate(21.15625 122.073122) scale(0.1 -0.1)">
       <defs>
        <path id="DejaVuSans-31" d="M 794 531 
L 1825 531 
L 1825 4091 
L 703 3866 
L 703 4441 
L 1819 4666 
L 2450 4666 
L 2450 531 
L 3481 531 
L 3481 0 
L 794 0 
L 794 531 
z
" transform="scale(0.015625)"/>
       </defs>
       <use xlink:href="#DejaVuSans-31"/>
       <use xlink:href="#DejaVuSans-30" x="63.623047"/>
      </g>
     </g>
    </g>
    <g id="ytick_3">
     <g id="line2d_7">
      <g>
       <use xlink:href="#m1436f29765" x="40.88125" y="91.451123" style="stroke: #000000; stroke-width: 0.8"/>
      </g>
     </g>
     <g id="text_8">
      <!-- 20 -->
      <g transform="translate(21.15625 95.250342) scale(0.1 -0.1)">
       <defs>
        <path id="DejaVuSans-32" d="M 1228 531 
L 3431 531 
L 3431 0 
L 469 0 
L 469 531 
Q 828 903 1448 1529 
Q 2069 2156 2228 2338 
Q 2531 2678 2651 2914 
Q 2772 3150 2772 3378 
Q 2772 3750 2511 3984 
Q 2250 4219 1831 4219 
Q 1534 4219 1204 4116 
Q 875 4013 500 3803 
L 500 4441 
Q 881 4594 1212 4672 
Q 1544 4750 1819 4750 
Q 2544 4750 2975 4387 
Q 3406 4025 3406 3419 
Q 3406 3131 3298 2873 
Q 3191 2616 2906 2266 
Q 2828 2175 2409 1742 
Q 1991 1309 1228 531 
z
" transform="scale(0.015625)"/>
       </defs>
       <use xlink:href="#DejaVuSans-32"/>
       <use xlink:href="#DejaVuSans-30" x="63.623047"/>
      </g>
     </g>
    </g>
    <g id="ytick_4">
     <g id="line2d_8">
      <g>
       <use xlink:href="#m1436f29765" x="40.88125" y="64.628344" style="stroke: #000000; stroke-width: 0.8"/>
      </g>
     </g>
     <g id="text_9">
      <!-- 30 -->
      <g transform="translate(21.15625 68.427563) scale(0.1 -0.1)">
       <use xlink:href="#DejaVuSans-33"/>
       <use xlink:href="#DejaVuSans-30" x="63.623047"/>
      </g>
     </g>
    </g>
    <g id="ytick_5">
     <g id="line2d_9">
      <g>
       <use xlink:href="#m1436f29765" x="40.88125" y="37.805565" style="stroke: #000000; stroke-width: 0.8"/>
      </g>
     </g>
     <g id="text_10">
      <!-- 40 -->
      <g transform="translate(21.15625 41.604783) scale(0.1 -0.1)">
       <defs>
        <path id="DejaVuSans-34" d="M 2419 4116 
L 825 1625 
L 2419 1625 
L 2419 4116 
z
M 2253 4666 
L 3047 4666 
L 3047 1625 
L 3713 1625 
L 3713 1100 
L 3047 1100 
L 3047 0 
L 2419 0 
L 2419 1100 
L 313 1100 
L 313 1709 
L 2253 4666 
z
" transform="scale(0.015625)"/>
       </defs>
       <use xlink:href="#DejaVuSans-34"/>
       <use xlink:href="#DejaVuSans-30" x="63.623047"/>
      </g>
     </g>
    </g>
    <g id="text_11">
     <!-- score_time -->
     <g transform="translate(14.798438 111.983765) rotate(-90) scale(0.1 -0.1)">
      <defs>
       <path id="DejaVuSans-63" d="M 3122 3366 
L 3122 2828 
Q 2878 2963 2633 3030 
Q 2388 3097 2138 3097 
Q 1578 3097 1268 2742 
Q 959 2388 959 1747 
Q 959 1106 1268 751 
Q 1578 397 2138 397 
Q 2388 397 2633 464 
Q 2878 531 3122 666 
L 3122 134 
Q 2881 22 2623 -34 
Q 2366 -91 2075 -91 
Q 1284 -91 818 406 
Q 353 903 353 1747 
Q 353 2603 823 3093 
Q 1294 3584 2113 3584 
Q 2378 3584 2631 3529 
Q 2884 3475 3122 3366 
z
" transform="scale(0.015625)"/>
      </defs>
      <use xlink:href="#DejaVuSans-73"/>
      <use xlink:href="#DejaVuSans-63" x="52.099609"/>
      <use xlink:href="#DejaVuSans-6f" x="107.080078"/>
      <use xlink:href="#DejaVuSans-72" x="168.261719"/>
      <use xlink:href="#DejaVuSans-65" x="207.125"/>
      <use xlink:href="#DejaVuSans-5f" x="268.648438"/>
      <use xlink:href="#DejaVuSans-74" x="318.648438"/>
      <use xlink:href="#DejaVuSans-69" x="357.857422"/>
      <use xlink:href="#DejaVuSans-6d" x="385.640625"/>
      <use xlink:href="#DejaVuSans-65" x="483.052734"/>
     </g>
    </g>
   </g>
   <g id="line2d_10">
    <path d="M 52.536688 141.193527 
L 52.536688 141.193527 
" clip-path="url(#p6613d6df34)" style="fill: none; stroke: #3d3d3d; stroke-width: 1.5; stroke-linecap: square"/>
   </g>
   <g id="line2d_11">
    <path d="M 52.536688 141.134474 
L 52.536688 141.134474 
" clip-path="url(#p6613d6df34)" style="fill: none; stroke: #3d3d3d; stroke-width: 1.5; stroke-linecap: square"/>
   </g>
   <g id="line2d_12">
    <path d="M 49.681105 141.193527 
L 55.39227 141.193527 
" clip-path="url(#p6613d6df34)" style="fill: none; stroke: #3d3d3d; stroke-width: 1.5; stroke-linecap: square"/>
   </g>
   <g id="line2d_13">
    <path d="M 49.681105 141.134474 
L 55.39227 141.134474 
" clip-path="url(#p6613d6df34)" style="fill: none; stroke: #3d3d3d; stroke-width: 1.5; stroke-linecap: square"/>
   </g>
   <g id="line2d_14">
    <defs>
     <path id="me4b59b8952" d="M -0 3.535534 
L 2.12132 0 
L -0 -3.535534 
L -2.12132 -0 
z
" style="stroke: #3d3d3d; stroke-linejoin: miter"/>
    </defs>
    <g clip-path="url(#p6613d6df34)">
     <use xlink:href="#me4b59b8952" x="52.536688" y="141.373686" style="fill: #3d3d3d; stroke: #3d3d3d; stroke-linejoin: miter"/>
     <use xlink:href="#me4b59b8952" x="52.536688" y="140.321321" style="fill: #3d3d3d; stroke: #3d3d3d; stroke-linejoin: miter"/>
    </g>
   </g>
   <g id="line2d_15">
    <path d="M 64.192125 75.257083 
L 64.192125 81.617394 
" clip-path="url(#p6613d6df34)" style="fill: none; stroke: #3d3d3d; stroke-width: 1.5; stroke-linecap: square"/>
   </g>
   <g id="line2d_16">
    <path d="M 64.192125 68.179392 
L 64.192125 68.179392 
" clip-path="url(#p6613d6df34)" style="fill: none; stroke: #3d3d3d; stroke-width: 1.5; stroke-linecap: square"/>
   </g>
   <g id="line2d_17">
    <path d="M 61.336543 81.617394 
L 67.047707 81.617394 
" clip-path="url(#p6613d6df34)" style="fill: none; stroke: #3d3d3d; stroke-width: 1.5; stroke-linecap: square"/>
   </g>
   <g id="line2d_18">
    <path d="M 61.336543 68.179392 
L 67.047707 68.179392 
" clip-path="url(#p6613d6df34)" style="fill: none; stroke: #3d3d3d; stroke-width: 1.5; stroke-linecap: square"/>
   </g>
   <g id="line2d_19">
    <g clip-path="url(#p6613d6df34)">
     <use xlink:href="#me4b59b8952" x="64.192125" y="49.552546" style="fill: #3d3d3d; stroke: #3d3d3d; stroke-linejoin: miter"/>
    </g>
   </g>
   <g id="line2d_20">
    <path d="M 75.847563 141.293854 
L 75.847563 141.307366 
" clip-path="url(#p6613d6df34)" style="fill: none; stroke: #3d3d3d; stroke-width: 1.5; stroke-linecap: square"/>
   </g>
   <g id="line2d_21">
    <path d="M 75.847563 141.249217 
L 75.847563 141.249217 
" clip-path="url(#p6613d6df34)" style="fill: none; stroke: #3d3d3d; stroke-width: 1.5; stroke-linecap: square"/>
   </g>
   <g id="line2d_22">
    <path d="M 72.99198 141.307366 
L 78.703145 141.307366 
" clip-path="url(#p6613d6df34)" style="fill: none; stroke: #3d3d3d; stroke-width: 1.5; stroke-linecap: square"/>
   </g>
   <g id="line2d_23">
    <path d="M 72.99198 141.249217 
L 78.703145 141.249217 
" clip-path="url(#p6613d6df34)" style="fill: none; stroke: #3d3d3d; stroke-width: 1.5; stroke-linecap: square"/>
   </g>
   <g id="line2d_24">
    <g clip-path="url(#p6613d6df34)">
     <use xlink:href="#me4b59b8952" x="75.847563" y="141.175731" style="fill: #3d3d3d; stroke: #3d3d3d; stroke-linejoin: miter"/>
    </g>
   </g>
   <g id="line2d_25">
    <path d="M 87.503 77.351756 
L 87.503 81.776946 
" clip-path="url(#p6613d6df34)" style="fill: none; stroke: #3d3d3d; stroke-width: 1.5; stroke-linecap: square"/>
   </g>
   <g id="line2d_26">
    <path d="M 87.503 50.565401 
L 87.503 48.138751 
" clip-path="url(#p6613d6df34)" style="fill: none; stroke: #3d3d3d; stroke-width: 1.5; stroke-linecap: square"/>
   </g>
   <g id="line2d_27">
    <path d="M 84.647418 81.776946 
L 90.358582 81.776946 
" clip-path="url(#p6613d6df34)" style="fill: none; stroke: #3d3d3d; stroke-width: 1.5; stroke-linecap: square"/>
   </g>
   <g id="line2d_28">
    <path d="M 84.647418 48.138751 
L 90.358582 48.138751 
" clip-path="url(#p6613d6df34)" style="fill: none; stroke: #3d3d3d; stroke-width: 1.5; stroke-linecap: square"/>
   </g>
   <g id="line2d_29"/>
   <g id="line2d_30">
    <path d="M 110.813875 141.206538 
L 110.813875 141.235437 
" clip-path="url(#p6613d6df34)" style="fill: none; stroke: #3d3d3d; stroke-width: 1.5; stroke-linecap: square"/>
   </g>
   <g id="line2d_31">
    <path d="M 110.813875 141.146753 
L 110.813875 141.146753 
" clip-path="url(#p6613d6df34)" style="fill: none; stroke: #3d3d3d; stroke-width: 1.5; stroke-linecap: square"/>
   </g>
   <g id="line2d_32">
    <path d="M 107.958293 141.235437 
L 113.669457 141.235437 
" clip-path="url(#p6613d6df34)" style="fill: none; stroke: #3d3d3d; stroke-width: 1.5; stroke-linecap: square"/>
   </g>
   <g id="line2d_33">
    <path d="M 107.958293 141.146753 
L 113.669457 141.146753 
" clip-path="url(#p6613d6df34)" style="fill: none; stroke: #3d3d3d; stroke-width: 1.5; stroke-linecap: square"/>
   </g>
   <g id="line2d_34">
    <g clip-path="url(#p6613d6df34)">
     <use xlink:href="#me4b59b8952" x="110.813875" y="140.926083" style="fill: #3d3d3d; stroke: #3d3d3d; stroke-linejoin: miter"/>
    </g>
   </g>
   <g id="line2d_35">
    <path d="M 122.469313 69.943058 
L 122.469313 72.084321 
" clip-path="url(#p6613d6df34)" style="fill: none; stroke: #3d3d3d; stroke-width: 1.5; stroke-linecap: square"/>
   </g>
   <g id="line2d_36">
    <path d="M 122.469313 59.282792 
L 122.469313 45.696107 
" clip-path="url(#p6613d6df34)" style="fill: none; stroke: #3d3d3d; stroke-width: 1.5; stroke-linecap: square"/>
   </g>
   <g id="line2d_37">
    <path d="M 119.61373 72.084321 
L 125.324895 72.084321 
" clip-path="url(#p6613d6df34)" style="fill: none; stroke: #3d3d3d; stroke-width: 1.5; stroke-linecap: square"/>
   </g>
   <g id="line2d_38">
    <path d="M 119.61373 45.696107 
L 125.324895 45.696107 
" clip-path="url(#p6613d6df34)" style="fill: none; stroke: #3d3d3d; stroke-width: 1.5; stroke-linecap: square"/>
   </g>
   <g id="line2d_39"/>
   <g id="line2d_40">
    <path d="M 134.12475 141.198454 
L 134.12475 141.216617 
" clip-path="url(#p6613d6df34)" style="fill: none; stroke: #3d3d3d; stroke-width: 1.5; stroke-linecap: square"/>
   </g>
   <g id="line2d_41">
    <path d="M 134.12475 141.108356 
L 134.12475 141.098379 
" clip-path="url(#p6613d6df34)" style="fill: none; stroke: #3d3d3d; stroke-width: 1.5; stroke-linecap: square"/>
   </g>
   <g id="line2d_42">
    <path d="M 131.269168 141.216617 
L 136.980332 141.216617 
" clip-path="url(#p6613d6df34)" style="fill: none; stroke: #3d3d3d; stroke-width: 1.5; stroke-linecap: square"/>
   </g>
   <g id="line2d_43">
    <path d="M 131.269168 141.098379 
L 136.980332 141.098379 
" clip-path="url(#p6613d6df34)" style="fill: none; stroke: #3d3d3d; stroke-width: 1.5; stroke-linecap: square"/>
   </g>
   <g id="line2d_44"/>
   <g id="line2d_45">
    <path d="M 145.780187 79.647286 
L 145.780187 80.605858 
" clip-path="url(#p6613d6df34)" style="fill: none; stroke: #3d3d3d; stroke-width: 1.5; stroke-linecap: square"/>
   </g>
   <g id="line2d_46">
    <path d="M 145.780187 57.431458 
L 145.780187 39.402038 
" clip-path="url(#p6613d6df34)" style="fill: none; stroke: #3d3d3d; stroke-width: 1.5; stroke-linecap: square"/>
   </g>
   <g id="line2d_47">
    <path d="M 142.924605 80.605858 
L 148.63577 80.605858 
" clip-path="url(#p6613d6df34)" style="fill: none; stroke: #3d3d3d; stroke-width: 1.5; stroke-linecap: square"/>
   </g>
   <g id="line2d_48">
    <path d="M 142.924605 39.402038 
L 148.63577 39.402038 
" clip-path="url(#p6613d6df34)" style="fill: none; stroke: #3d3d3d; stroke-width: 1.5; stroke-linecap: square"/>
   </g>
   <g id="line2d_49"/>
   <g id="line2d_50">
    <path d="M 169.091062 141.263028 
L 169.091062 141.307723 
" clip-path="url(#p6613d6df34)" style="fill: none; stroke: #3d3d3d; stroke-width: 1.5; stroke-linecap: square"/>
   </g>
   <g id="line2d_51">
    <path d="M 169.091062 141.086765 
L 169.091062 141.086765 
" clip-path="url(#p6613d6df34)" style="fill: none; stroke: #3d3d3d; stroke-width: 1.5; stroke-linecap: square"/>
   </g>
   <g id="line2d_52">
    <path d="M 166.23548 141.307723 
L 171.946645 141.307723 
" clip-path="url(#p6613d6df34)" style="fill: none; stroke: #3d3d3d; stroke-width: 1.5; stroke-linecap: square"/>
   </g>
   <g id="line2d_53">
    <path d="M 166.23548 141.086765 
L 171.946645 141.086765 
" clip-path="url(#p6613d6df34)" style="fill: none; stroke: #3d3d3d; stroke-width: 1.5; stroke-linecap: square"/>
   </g>
   <g id="line2d_54">
    <g clip-path="url(#p6613d6df34)">
     <use xlink:href="#me4b59b8952" x="169.091062" y="140.625706" style="fill: #3d3d3d; stroke: #3d3d3d; stroke-linejoin: miter"/>
    </g>
   </g>
   <g id="line2d_55">
    <path d="M 180.7465 78.278302 
L 180.7465 81.450814 
" clip-path="url(#p6613d6df34)" style="fill: none; stroke: #3d3d3d; stroke-width: 1.5; stroke-linecap: square"/>
   </g>
   <g id="line2d_56">
    <path d="M 180.7465 52.52674 
L 180.7465 27.994192 
" clip-path="url(#p6613d6df34)" style="fill: none; stroke: #3d3d3d; stroke-width: 1.5; stroke-linecap: square"/>
   </g>
   <g id="line2d_57">
    <path d="M 177.890918 81.450814 
L 183.602082 81.450814 
" clip-path="url(#p6613d6df34)" style="fill: none; stroke: #3d3d3d; stroke-width: 1.5; stroke-linecap: square"/>
   </g>
   <g id="line2d_58">
    <path d="M 177.890918 27.994192 
L 183.602082 27.994192 
" clip-path="url(#p6613d6df34)" style="fill: none; stroke: #3d3d3d; stroke-width: 1.5; stroke-linecap: square"/>
   </g>
   <g id="line2d_59"/>
   <g id="line2d_60">
    <path d="M 192.401937 141.307954 
L 192.401937 141.351739 
" clip-path="url(#p6613d6df34)" style="fill: none; stroke: #3d3d3d; stroke-width: 1.5; stroke-linecap: square"/>
   </g>
   <g id="line2d_61">
    <path d="M 192.401937 141.117886 
L 192.401937 140.96376 
" clip-path="url(#p6613d6df34)" style="fill: none; stroke: #3d3d3d; stroke-width: 1.5; stroke-linecap: square"/>
   </g>
   <g id="line2d_62">
    <path d="M 189.546355 141.351739 
L 195.25752 141.351739 
" clip-path="url(#p6613d6df34)" style="fill: none; stroke: #3d3d3d; stroke-width: 1.5; stroke-linecap: square"/>
   </g>
   <g id="line2d_63">
    <path d="M 189.546355 140.96376 
L 195.25752 140.96376 
" clip-path="url(#p6613d6df34)" style="fill: none; stroke: #3d3d3d; stroke-width: 1.5; stroke-linecap: square"/>
   </g>
   <g id="line2d_64"/>
   <g id="line2d_65">
    <path d="M 204.057375 83.384473 
L 204.057375 84.296357 
" clip-path="url(#p6613d6df34)" style="fill: none; stroke: #3d3d3d; stroke-width: 1.5; stroke-linecap: square"/>
   </g>
   <g id="line2d_66">
    <path d="M 204.057375 55.299332 
L 204.057375 50.383632 
" clip-path="url(#p6613d6df34)" style="fill: none; stroke: #3d3d3d; stroke-width: 1.5; stroke-linecap: square"/>
   </g>
   <g id="line2d_67">
    <path d="M 201.201793 84.296357 
L 206.912957 84.296357 
" clip-path="url(#p6613d6df34)" style="fill: none; stroke: #3d3d3d; stroke-width: 1.5; stroke-linecap: square"/>
   </g>
   <g id="line2d_68">
    <path d="M 201.201793 50.383632 
L 206.912957 50.383632 
" clip-path="url(#p6613d6df34)" style="fill: none; stroke: #3d3d3d; stroke-width: 1.5; stroke-linecap: square"/>
   </g>
   <g id="line2d_69"/>
   <g id="line2d_70">
    <path d="M 227.36825 141.490373 
L 227.36825 141.494441 
" clip-path="url(#p6613d6df34)" style="fill: none; stroke: #3d3d3d; stroke-width: 1.5; stroke-linecap: square"/>
   </g>
   <g id="line2d_71">
    <path d="M 227.36825 141.284952 
L 227.36825 141.255465 
" clip-path="url(#p6613d6df34)" style="fill: none; stroke: #3d3d3d; stroke-width: 1.5; stroke-linecap: square"/>
   </g>
   <g id="line2d_72">
    <path d="M 224.512668 141.494441 
L 230.223832 141.494441 
" clip-path="url(#p6613d6df34)" style="fill: none; stroke: #3d3d3d; stroke-width: 1.5; stroke-linecap: square"/>
   </g>
   <g id="line2d_73">
    <path d="M 224.512668 141.255465 
L 230.223832 141.255465 
" clip-path="url(#p6613d6df34)" style="fill: none; stroke: #3d3d3d; stroke-width: 1.5; stroke-linecap: square"/>
   </g>
   <g id="line2d_74"/>
   <g id="line2d_75">
    <path d="M 239.023687 92.620133 
L 239.023687 92.620133 
" clip-path="url(#p6613d6df34)" style="fill: none; stroke: #3d3d3d; stroke-width: 1.5; stroke-linecap: square"/>
   </g>
   <g id="line2d_76">
    <path d="M 239.023687 89.210218 
L 239.023687 87.211796 
" clip-path="url(#p6613d6df34)" style="fill: none; stroke: #3d3d3d; stroke-width: 1.5; stroke-linecap: square"/>
   </g>
   <g id="line2d_77">
    <path d="M 236.168105 92.620133 
L 241.87927 92.620133 
" clip-path="url(#p6613d6df34)" style="fill: none; stroke: #3d3d3d; stroke-width: 1.5; stroke-linecap: square"/>
   </g>
   <g id="line2d_78">
    <path d="M 236.168105 87.211796 
L 241.87927 87.211796 
" clip-path="url(#p6613d6df34)" style="fill: none; stroke: #3d3d3d; stroke-width: 1.5; stroke-linecap: square"/>
   </g>
   <g id="line2d_79">
    <g clip-path="url(#p6613d6df34)">
     <use xlink:href="#me4b59b8952" x="239.023687" y="97.748089" style="fill: #3d3d3d; stroke: #3d3d3d; stroke-linejoin: miter"/>
    </g>
   </g>
   <g id="line2d_80">
    <path d="M 250.679125 141.462675 
L 250.679125 141.515526 
" clip-path="url(#p6613d6df34)" style="fill: none; stroke: #3d3d3d; stroke-width: 1.5; stroke-linecap: square"/>
   </g>
   <g id="line2d_81">
    <path d="M 250.679125 141.426515 
L 250.679125 141.426515 
" clip-path="url(#p6613d6df34)" style="fill: none; stroke: #3d3d3d; stroke-width: 1.5; stroke-linecap: square"/>
   </g>
   <g id="line2d_82">
    <path d="M 247.823543 141.515526 
L 253.534707 141.515526 
" clip-path="url(#p6613d6df34)" style="fill: none; stroke: #3d3d3d; stroke-width: 1.5; stroke-linecap: square"/>
   </g>
   <g id="line2d_83">
    <path d="M 247.823543 141.426515 
L 253.534707 141.426515 
" clip-path="url(#p6613d6df34)" style="fill: none; stroke: #3d3d3d; stroke-width: 1.5; stroke-linecap: square"/>
   </g>
   <g id="line2d_84">
    <g clip-path="url(#p6613d6df34)">
     <use xlink:href="#me4b59b8952" x="250.679125" y="140.411125" style="fill: #3d3d3d; stroke: #3d3d3d; stroke-linejoin: miter"/>
    </g>
   </g>
   <g id="line2d_85">
    <path d="M 262.334562 96.085036 
L 262.334562 98.005529 
" clip-path="url(#p6613d6df34)" style="fill: none; stroke: #3d3d3d; stroke-width: 1.5; stroke-linecap: square"/>
   </g>
   <g id="line2d_86">
    <path d="M 262.334562 87.559104 
L 262.334562 85.865748 
" clip-path="url(#p6613d6df34)" style="fill: none; stroke: #3d3d3d; stroke-width: 1.5; stroke-linecap: square"/>
   </g>
   <g id="line2d_87">
    <path d="M 259.47898 98.005529 
L 265.190145 98.005529 
" clip-path="url(#p6613d6df34)" style="fill: none; stroke: #3d3d3d; stroke-width: 1.5; stroke-linecap: square"/>
   </g>
   <g id="line2d_88">
    <path d="M 259.47898 85.865748 
L 265.190145 85.865748 
" clip-path="url(#p6613d6df34)" style="fill: none; stroke: #3d3d3d; stroke-width: 1.5; stroke-linecap: square"/>
   </g>
   <g id="line2d_89"/>
   <g id="line2d_90">
    <path d="M 46.825523 141.188766 
L 58.247852 141.188766 
" clip-path="url(#p6613d6df34)" style="fill: none; stroke: #3d3d3d; stroke-width: 1.5; stroke-linecap: square"/>
   </g>
   <g id="line2d_91">
    <path d="M 58.480961 70.052692 
L 69.903289 70.052692 
" clip-path="url(#p6613d6df34)" style="fill: none; stroke: #3d3d3d; stroke-width: 1.5; stroke-linecap: square"/>
   </g>
   <g id="line2d_92">
    <path d="M 70.136398 141.251352 
L 81.558727 141.251352 
" clip-path="url(#p6613d6df34)" style="fill: none; stroke: #3d3d3d; stroke-width: 1.5; stroke-linecap: square"/>
   </g>
   <g id="line2d_93">
    <path d="M 81.791836 66.452196 
L 93.214164 66.452196 
" clip-path="url(#p6613d6df34)" style="fill: none; stroke: #3d3d3d; stroke-width: 1.5; stroke-linecap: square"/>
   </g>
   <g id="line2d_94">
    <path d="M 105.102711 141.149633 
L 116.525039 141.149633 
" clip-path="url(#p6613d6df34)" style="fill: none; stroke: #3d3d3d; stroke-width: 1.5; stroke-linecap: square"/>
   </g>
   <g id="line2d_95">
    <path d="M 116.758148 64.64807 
L 128.180477 64.64807 
" clip-path="url(#p6613d6df34)" style="fill: none; stroke: #3d3d3d; stroke-width: 1.5; stroke-linecap: square"/>
   </g>
   <g id="line2d_96">
    <path d="M 128.413586 141.176211 
L 139.835914 141.176211 
" clip-path="url(#p6613d6df34)" style="fill: none; stroke: #3d3d3d; stroke-width: 1.5; stroke-linecap: square"/>
   </g>
   <g id="line2d_97">
    <path d="M 140.069023 58.40412 
L 151.491352 58.40412 
" clip-path="url(#p6613d6df34)" style="fill: none; stroke: #3d3d3d; stroke-width: 1.5; stroke-linecap: square"/>
   </g>
   <g id="line2d_98">
    <path d="M 163.379898 141.212791 
L 174.802227 141.212791 
" clip-path="url(#p6613d6df34)" style="fill: none; stroke: #3d3d3d; stroke-width: 1.5; stroke-linecap: square"/>
   </g>
   <g id="line2d_99">
    <path d="M 175.035336 76.584274 
L 186.457664 76.584274 
" clip-path="url(#p6613d6df34)" style="fill: none; stroke: #3d3d3d; stroke-width: 1.5; stroke-linecap: square"/>
   </g>
   <g id="line2d_100">
    <path d="M 186.690773 141.274717 
L 198.113102 141.274717 
" clip-path="url(#p6613d6df34)" style="fill: none; stroke: #3d3d3d; stroke-width: 1.5; stroke-linecap: square"/>
   </g>
   <g id="line2d_101">
    <path d="M 198.346211 79.1965 
L 209.768539 79.1965 
" clip-path="url(#p6613d6df34)" style="fill: none; stroke: #3d3d3d; stroke-width: 1.5; stroke-linecap: square"/>
   </g>
   <g id="line2d_102">
    <path d="M 221.657086 141.361197 
L 233.079414 141.361197 
" clip-path="url(#p6613d6df34)" style="fill: none; stroke: #3d3d3d; stroke-width: 1.5; stroke-linecap: square"/>
   </g>
   <g id="line2d_103">
    <path d="M 233.312523 91.949694 
L 244.734852 91.949694 
" clip-path="url(#p6613d6df34)" style="fill: none; stroke: #3d3d3d; stroke-width: 1.5; stroke-linecap: square"/>
   </g>
   <g id="line2d_104">
    <path d="M 244.967961 141.453093 
L 256.390289 141.453093 
" clip-path="url(#p6613d6df34)" style="fill: none; stroke: #3d3d3d; stroke-width: 1.5; stroke-linecap: square"/>
   </g>
   <g id="line2d_105">
    <path d="M 256.623398 93.056735 
L 268.045727 93.056735 
" clip-path="url(#p6613d6df34)" style="fill: none; stroke: #3d3d3d; stroke-width: 1.5; stroke-linecap: square"/>
   </g>
   <g id="patch_23">
    <path d="M 40.88125 147.191593 
L 40.88125 22.318125 
" style="fill: none; stroke: #000000; stroke-width: 0.8; stroke-linejoin: miter; stroke-linecap: square"/>
   </g>
   <g id="patch_24">
    <path d="M 273.99 147.191593 
L 273.99 22.318125 
" style="fill: none; stroke: #000000; stroke-width: 0.8; stroke-linejoin: miter; stroke-linecap: square"/>
   </g>
   <g id="patch_25">
    <path d="M 40.88125 147.191593 
L 273.99 147.191593 
" style="fill: none; stroke: #000000; stroke-width: 0.8; stroke-linejoin: miter; stroke-linecap: square"/>
   </g>
   <g id="patch_26">
    <path d="M 40.88125 22.318125 
L 273.99 22.318125 
" style="fill: none; stroke: #000000; stroke-width: 0.8; stroke-linejoin: miter; stroke-linecap: square"/>
   </g>
   <g id="PathCollection_1">
    <defs>
     <path id="C0_0_583614d8ec" d="M 0 1.5 
C 0.397805 1.5 0.77937 1.341951 1.06066 1.06066 
C 1.341951 0.77937 1.5 0.397805 1.5 -0 
C 1.5 -0.397805 1.341951 -0.77937 1.06066 -1.06066 
C 0.77937 -1.341951 0.397805 -1.5 0 -1.5 
C -0.397805 -1.5 -0.77937 -1.341951 -1.06066 -1.06066 
C -1.341951 -0.77937 -1.5 -0.397805 -1.5 0 
C -1.5 0.397805 -1.341951 0.77937 -1.06066 1.06066 
C -0.77937 1.341951 -0.397805 1.5 0 1.5 
z
"/>
    </defs>
    <g clip-path="url(#p6613d6df34)">
     <use xlink:href="#C0_0_583614d8ec" x="52.661105" y="141.134474" style="fill: #262626"/>
    </g>
    <g clip-path="url(#p6613d6df34)">
     <use xlink:href="#C0_0_583614d8ec" x="52.671445" y="141.373686" style="fill: #262626"/>
    </g>
    <g clip-path="url(#p6613d6df34)">
     <use xlink:href="#C0_0_583614d8ec" x="53.706562" y="140.321321" style="fill: #262626"/>
    </g>
    <g clip-path="url(#p6613d6df34)">
     <use xlink:href="#C0_0_583614d8ec" x="52.863743" y="141.188766" style="fill: #262626"/>
    </g>
    <g clip-path="url(#p6613d6df34)">
     <use xlink:href="#C0_0_583614d8ec" x="53.674829" y="141.193527" style="fill: #262626"/>
    </g>
   </g>
   <g id="PathCollection_2">
    <defs>
     <path id="C1_0_023554770c" d="M 0 1.5 
C 0.397805 1.5 0.77937 1.341951 1.06066 1.06066 
C 1.341951 0.77937 1.5 0.397805 1.5 -0 
C 1.5 -0.397805 1.341951 -0.77937 1.06066 -1.06066 
C 0.77937 -1.341951 0.397805 -1.5 0 -1.5 
C -0.397805 -1.5 -0.77937 -1.341951 -1.06066 -1.06066 
C -1.341951 -0.77937 -1.5 -0.397805 -1.5 0 
C -1.5 0.397805 -1.341951 0.77937 -1.06066 1.06066 
C -0.77937 1.341951 -0.397805 1.5 0 1.5 
z
"/>
    </defs>
    <g clip-path="url(#p6613d6df34)">
     <use xlink:href="#C1_0_023554770c" x="64.077928" y="49.552546" style="fill: #191919"/>
    </g>
    <g clip-path="url(#p6613d6df34)">
     <use xlink:href="#C1_0_023554770c" x="63.913742" y="68.179392" style="fill: #191919"/>
    </g>
    <g clip-path="url(#p6613d6df34)">
     <use xlink:href="#C1_0_023554770c" x="64.043484" y="75.257083" style="fill: #191919"/>
    </g>
    <g clip-path="url(#p6613d6df34)">
     <use xlink:href="#C1_0_023554770c" x="65.059685" y="70.052692" style="fill: #191919"/>
    </g>
    <g clip-path="url(#p6613d6df34)">
     <use xlink:href="#C1_0_023554770c" x="65.33625" y="81.617394" style="fill: #191919"/>
    </g>
   </g>
   <g id="PathCollection_3">
    <defs>
     <path id="C2_0_c0d0f92cef" d="M 0 1.5 
C 0.397805 1.5 0.77937 1.341951 1.06066 1.06066 
C 1.341951 0.77937 1.5 0.397805 1.5 -0 
C 1.5 -0.397805 1.341951 -0.77937 1.06066 -1.06066 
C 0.77937 -1.341951 0.397805 -1.5 0 -1.5 
C -0.397805 -1.5 -0.77937 -1.341951 -1.06066 -1.06066 
C -1.341951 -0.77937 -1.5 -0.397805 -1.5 0 
C -1.5 0.397805 -1.341951 0.77937 -1.06066 1.06066 
C -0.77937 1.341951 -0.397805 1.5 0 1.5 
z
"/>
    </defs>
    <g clip-path="url(#p6613d6df34)">
     <use xlink:href="#C2_0_c0d0f92cef" x="75.306028" y="141.175731" style="fill: #0d0d0d"/>
    </g>
    <g clip-path="url(#p6613d6df34)">
     <use xlink:href="#C2_0_c0d0f92cef" x="74.72637" y="141.249217" style="fill: #0d0d0d"/>
    </g>
    <g clip-path="url(#p6613d6df34)">
     <use xlink:href="#C2_0_c0d0f92cef" x="75.55161" y="141.307366" style="fill: #0d0d0d"/>
    </g>
    <g clip-path="url(#p6613d6df34)">
     <use xlink:href="#C2_0_c0d0f92cef" x="76.955676" y="141.251352" style="fill: #0d0d0d"/>
    </g>
    <g clip-path="url(#p6613d6df34)">
     <use xlink:href="#C2_0_c0d0f92cef" x="76.326774" y="141.293854" style="fill: #0d0d0d"/>
    </g>
   </g>
   <g id="PathCollection_4">
    <defs>
     <path id="C3_0_eb686c8a26" d="M 0 1.5 
C 0.397805 1.5 0.77937 1.341951 1.06066 1.06066 
C 1.341951 0.77937 1.5 0.397805 1.5 -0 
C 1.5 -0.397805 1.341951 -0.77937 1.06066 -1.06066 
C 0.77937 -1.341951 0.397805 -1.5 0 -1.5 
C -0.397805 -1.5 -0.77937 -1.341951 -1.06066 -1.06066 
C -1.341951 -0.77937 -1.5 -0.397805 -1.5 0 
C -1.5 0.397805 -1.341951 0.77937 -1.06066 1.06066 
C -0.77937 1.341951 -0.397805 1.5 0 1.5 
z
"/>
    </defs>
    <g clip-path="url(#p6613d6df34)">
     <use xlink:href="#C3_0_eb686c8a26" x="87.988273" y="50.565401"/>
    </g>
    <g clip-path="url(#p6613d6df34)">
     <use xlink:href="#C3_0_eb686c8a26" x="88.529521" y="66.452196"/>
    </g>
    <g clip-path="url(#p6613d6df34)">
     <use xlink:href="#C3_0_eb686c8a26" x="88.384597" y="81.776946"/>
    </g>
    <g clip-path="url(#p6613d6df34)">
     <use xlink:href="#C3_0_eb686c8a26" x="87.571257" y="77.351756"/>
    </g>
    <g clip-path="url(#p6613d6df34)">
     <use xlink:href="#C3_0_eb686c8a26" x="87.374714" y="48.138751"/>
    </g>
   </g>
   <g id="PathCollection_5">
    <defs>
     <path id="C4_0_68b3cc5833" d="M 0 1.5 
C 0.397805 1.5 0.77937 1.341951 1.06066 1.06066 
C 1.341951 0.77937 1.5 0.397805 1.5 -0 
C 1.5 -0.397805 1.341951 -0.77937 1.06066 -1.06066 
C 0.77937 -1.341951 0.397805 -1.5 0 -1.5 
C -0.397805 -1.5 -0.77937 -1.341951 -1.06066 -1.06066 
C -1.341951 -0.77937 -1.5 -0.397805 -1.5 0 
C -1.5 0.397805 -1.341951 0.77937 -1.06066 1.06066 
C -0.77937 1.341951 -0.397805 1.5 0 1.5 
z
"/>
    </defs>
    <g clip-path="url(#p6613d6df34)">
     <use xlink:href="#C4_0_68b3cc5833" x="110.792649" y="141.206538" style="fill: #262626"/>
    </g>
    <g clip-path="url(#p6613d6df34)">
     <use xlink:href="#C4_0_68b3cc5833" x="110.490505" y="141.149633" style="fill: #262626"/>
    </g>
    <g clip-path="url(#p6613d6df34)">
     <use xlink:href="#C4_0_68b3cc5833" x="109.871285" y="141.146753" style="fill: #262626"/>
    </g>
    <g clip-path="url(#p6613d6df34)">
     <use xlink:href="#C4_0_68b3cc5833" x="109.780521" y="141.235437" style="fill: #262626"/>
    </g>
    <g clip-path="url(#p6613d6df34)">
     <use xlink:href="#C4_0_68b3cc5833" x="111.640884" y="140.926083" style="fill: #262626"/>
    </g>
   </g>
   <g id="PathCollection_6">
    <defs>
     <path id="C5_0_385554897b" d="M 0 1.5 
C 0.397805 1.5 0.77937 1.341951 1.06066 1.06066 
C 1.341951 0.77937 1.5 0.397805 1.5 -0 
C 1.5 -0.397805 1.341951 -0.77937 1.06066 -1.06066 
C 0.77937 -1.341951 0.397805 -1.5 0 -1.5 
C -0.397805 -1.5 -0.77937 -1.341951 -1.06066 -1.06066 
C -1.341951 -0.77937 -1.5 -0.397805 -1.5 0 
C -1.5 0.397805 -1.341951 0.77937 -1.06066 1.06066 
C -0.77937 1.341951 -0.397805 1.5 0 1.5 
z
"/>
    </defs>
    <g clip-path="url(#p6613d6df34)">
     <use xlink:href="#C5_0_385554897b" x="122.544953" y="59.282792" style="fill: #191919"/>
    </g>
    <g clip-path="url(#p6613d6df34)">
     <use xlink:href="#C5_0_385554897b" x="123.162836" y="64.64807" style="fill: #191919"/>
    </g>
    <g clip-path="url(#p6613d6df34)">
     <use xlink:href="#C5_0_385554897b" x="122.854438" y="69.943058" style="fill: #191919"/>
    </g>
    <g clip-path="url(#p6613d6df34)">
     <use xlink:href="#C5_0_385554897b" x="123.340063" y="45.696107" style="fill: #191919"/>
    </g>
    <g clip-path="url(#p6613d6df34)">
     <use xlink:href="#C5_0_385554897b" x="121.395268" y="72.084321" style="fill: #191919"/>
    </g>
   </g>
   <g id="PathCollection_7">
    <defs>
     <path id="C6_0_720aa499ac" d="M 0 1.5 
C 0.397805 1.5 0.77937 1.341951 1.06066 1.06066 
C 1.341951 0.77937 1.5 0.397805 1.5 -0 
C 1.5 -0.397805 1.341951 -0.77937 1.06066 -1.06066 
C 0.77937 -1.341951 0.397805 -1.5 0 -1.5 
C -0.397805 -1.5 -0.77937 -1.341951 -1.06066 -1.06066 
C -1.341951 -0.77937 -1.5 -0.397805 -1.5 0 
C -1.5 0.397805 -1.341951 0.77937 -1.06066 1.06066 
C -0.77937 1.341951 -0.397805 1.5 0 1.5 
z
"/>
    </defs>
    <g clip-path="url(#p6613d6df34)">
     <use xlink:href="#C6_0_720aa499ac" x="133.578776" y="141.108356" style="fill: #0d0d0d"/>
    </g>
    <g clip-path="url(#p6613d6df34)">
     <use xlink:href="#C6_0_720aa499ac" x="134.202764" y="141.198454" style="fill: #0d0d0d"/>
    </g>
    <g clip-path="url(#p6613d6df34)">
     <use xlink:href="#C6_0_720aa499ac" x="132.985937" y="141.176211" style="fill: #0d0d0d"/>
    </g>
    <g clip-path="url(#p6613d6df34)">
     <use xlink:href="#C6_0_720aa499ac" x="133.514036" y="141.216617" style="fill: #0d0d0d"/>
    </g>
    <g clip-path="url(#p6613d6df34)">
     <use xlink:href="#C6_0_720aa499ac" x="133.93596" y="141.098379" style="fill: #0d0d0d"/>
    </g>
   </g>
   <g id="PathCollection_8">
    <defs>
     <path id="C7_0_3cb7544a1e" d="M 0 1.5 
C 0.397805 1.5 0.77937 1.341951 1.06066 1.06066 
C 1.341951 0.77937 1.5 0.397805 1.5 -0 
C 1.5 -0.397805 1.341951 -0.77937 1.06066 -1.06066 
C 0.77937 -1.341951 0.397805 -1.5 0 -1.5 
C -0.397805 -1.5 -0.77937 -1.341951 -1.06066 -1.06066 
C -1.341951 -0.77937 -1.5 -0.397805 -1.5 0 
C -1.5 0.397805 -1.341951 0.77937 -1.06066 1.06066 
C -0.77937 1.341951 -0.397805 1.5 0 1.5 
z
"/>
    </defs>
    <g clip-path="url(#p6613d6df34)">
     <use xlink:href="#C7_0_3cb7544a1e" x="145.841686" y="57.431458"/>
    </g>
    <g clip-path="url(#p6613d6df34)">
     <use xlink:href="#C7_0_3cb7544a1e" x="145.050644" y="79.647286"/>
    </g>
    <g clip-path="url(#p6613d6df34)">
     <use xlink:href="#C7_0_3cb7544a1e" x="146.834675" y="58.40412"/>
    </g>
    <g clip-path="url(#p6613d6df34)">
     <use xlink:href="#C7_0_3cb7544a1e" x="146.961982" y="39.402038"/>
    </g>
    <g clip-path="url(#p6613d6df34)">
     <use xlink:href="#C7_0_3cb7544a1e" x="146.809068" y="80.605858"/>
    </g>
   </g>
   <g id="PathCollection_9">
    <defs>
     <path id="C8_0_79874260af" d="M 0 1.5 
C 0.397805 1.5 0.77937 1.341951 1.06066 1.06066 
C 1.341951 0.77937 1.5 0.397805 1.5 -0 
C 1.5 -0.397805 1.341951 -0.77937 1.06066 -1.06066 
C 0.77937 -1.341951 0.397805 -1.5 0 -1.5 
C -0.397805 -1.5 -0.77937 -1.341951 -1.06066 -1.06066 
C -1.341951 -0.77937 -1.5 -0.397805 -1.5 0 
C -1.5 0.397805 -1.341951 0.77937 -1.06066 1.06066 
C -0.77937 1.341951 -0.397805 1.5 0 1.5 
z
"/>
    </defs>
    <g clip-path="url(#p6613d6df34)">
     <use xlink:href="#C8_0_79874260af" x="169.08779" y="141.307723" style="fill: #262626"/>
    </g>
    <g clip-path="url(#p6613d6df34)">
     <use xlink:href="#C8_0_79874260af" x="168.886689" y="141.086765" style="fill: #262626"/>
    </g>
    <g clip-path="url(#p6613d6df34)">
     <use xlink:href="#C8_0_79874260af" x="170.3882" y="141.212791" style="fill: #262626"/>
    </g>
    <g clip-path="url(#p6613d6df34)">
     <use xlink:href="#C8_0_79874260af" x="168.008568" y="141.263028" style="fill: #262626"/>
    </g>
    <g clip-path="url(#p6613d6df34)">
     <use xlink:href="#C8_0_79874260af" x="167.792797" y="140.625706" style="fill: #262626"/>
    </g>
   </g>
   <g id="PathCollection_10">
    <defs>
     <path id="C9_0_bf932b4b1f" d="M 0 1.5 
C 0.397805 1.5 0.77937 1.341951 1.06066 1.06066 
C 1.341951 0.77937 1.5 0.397805 1.5 -0 
C 1.5 -0.397805 1.341951 -0.77937 1.06066 -1.06066 
C 0.77937 -1.341951 0.397805 -1.5 0 -1.5 
C -0.397805 -1.5 -0.77937 -1.341951 -1.06066 -1.06066 
C -1.341951 -0.77937 -1.5 -0.397805 -1.5 0 
C -1.5 0.397805 -1.341951 0.77937 -1.06066 1.06066 
C -0.77937 1.341951 -0.397805 1.5 0 1.5 
z
"/>
    </defs>
    <g clip-path="url(#p6613d6df34)">
     <use xlink:href="#C9_0_bf932b4b1f" x="181.77868" y="52.52674" style="fill: #191919"/>
    </g>
    <g clip-path="url(#p6613d6df34)">
     <use xlink:href="#C9_0_bf932b4b1f" x="179.883884" y="76.584274" style="fill: #191919"/>
    </g>
    <g clip-path="url(#p6613d6df34)">
     <use xlink:href="#C9_0_bf932b4b1f" x="181.812888" y="78.278302" style="fill: #191919"/>
    </g>
    <g clip-path="url(#p6613d6df34)">
     <use xlink:href="#C9_0_bf932b4b1f" x="181.959528" y="81.450814" style="fill: #191919"/>
    </g>
    <g clip-path="url(#p6613d6df34)">
     <use xlink:href="#C9_0_bf932b4b1f" x="182.040615" y="27.994192" style="fill: #191919"/>
    </g>
   </g>
   <g id="PathCollection_11">
    <defs>
     <path id="Ca_0_14457c78d3" d="M 0 1.5 
C 0.397805 1.5 0.77937 1.341951 1.06066 1.06066 
C 1.341951 0.77937 1.5 0.397805 1.5 -0 
C 1.5 -0.397805 1.341951 -0.77937 1.06066 -1.06066 
C 0.77937 -1.341951 0.397805 -1.5 0 -1.5 
C -0.397805 -1.5 -0.77937 -1.341951 -1.06066 -1.06066 
C -1.341951 -0.77937 -1.5 -0.397805 -1.5 0 
C -1.5 0.397805 -1.341951 0.77937 -1.06066 1.06066 
C -0.77937 1.341951 -0.397805 1.5 0 1.5 
z
"/>
    </defs>
    <g clip-path="url(#p6613d6df34)">
     <use xlink:href="#Ca_0_14457c78d3" x="191.872788" y="141.274717" style="fill: #0d0d0d"/>
    </g>
    <g clip-path="url(#p6613d6df34)">
     <use xlink:href="#Ca_0_14457c78d3" x="191.743734" y="141.351739" style="fill: #0d0d0d"/>
    </g>
    <g clip-path="url(#p6613d6df34)">
     <use xlink:href="#Ca_0_14457c78d3" x="191.350736" y="140.96376" style="fill: #0d0d0d"/>
    </g>
    <g clip-path="url(#p6613d6df34)">
     <use xlink:href="#Ca_0_14457c78d3" x="192.13974" y="141.307954" style="fill: #0d0d0d"/>
    </g>
    <g clip-path="url(#p6613d6df34)">
     <use xlink:href="#Ca_0_14457c78d3" x="191.870416" y="141.117886" style="fill: #0d0d0d"/>
    </g>
   </g>
   <g id="PathCollection_12">
    <defs>
     <path id="Cb_0_b8e14ed2fc" d="M 0 1.5 
C 0.397805 1.5 0.77937 1.341951 1.06066 1.06066 
C 1.341951 0.77937 1.5 0.397805 1.5 -0 
C 1.5 -0.397805 1.341951 -0.77937 1.06066 -1.06066 
C 0.77937 -1.341951 0.397805 -1.5 0 -1.5 
C -0.397805 -1.5 -0.77937 -1.341951 -1.06066 -1.06066 
C -1.341951 -0.77937 -1.5 -0.397805 -1.5 0 
C -1.5 0.397805 -1.341951 0.77937 -1.06066 1.06066 
C -0.77937 1.341951 -0.397805 1.5 0 1.5 
z
"/>
    </defs>
    <g clip-path="url(#p6613d6df34)">
     <use xlink:href="#Cb_0_b8e14ed2fc" x="202.755156" y="55.299332"/>
    </g>
    <g clip-path="url(#p6613d6df34)">
     <use xlink:href="#Cb_0_b8e14ed2fc" x="203.670708" y="83.384473"/>
    </g>
    <g clip-path="url(#p6613d6df34)">
     <use xlink:href="#Cb_0_b8e14ed2fc" x="203.031933" y="50.383632"/>
    </g>
    <g clip-path="url(#p6613d6df34)">
     <use xlink:href="#Cb_0_b8e14ed2fc" x="205.496271" y="79.1965"/>
    </g>
    <g clip-path="url(#p6613d6df34)">
     <use xlink:href="#Cb_0_b8e14ed2fc" x="204.917792" y="84.296357"/>
    </g>
   </g>
   <g id="PathCollection_13">
    <defs>
     <path id="Cc_0_b165688ea0" d="M 0 1.5 
C 0.397805 1.5 0.77937 1.341951 1.06066 1.06066 
C 1.341951 0.77937 1.5 0.397805 1.5 -0 
C 1.5 -0.397805 1.341951 -0.77937 1.06066 -1.06066 
C 0.77937 -1.341951 0.397805 -1.5 0 -1.5 
C -0.397805 -1.5 -0.77937 -1.341951 -1.06066 -1.06066 
C -1.341951 -0.77937 -1.5 -0.397805 -1.5 0 
C -1.5 0.397805 -1.341951 0.77937 -1.06066 1.06066 
C -0.77937 1.341951 -0.397805 1.5 0 1.5 
z
"/>
    </defs>
    <g clip-path="url(#p6613d6df34)">
     <use xlink:href="#Cc_0_b165688ea0" x="225.983719" y="141.490373" style="fill: #262626"/>
    </g>
    <g clip-path="url(#p6613d6df34)">
     <use xlink:href="#Cc_0_b165688ea0" x="226.000364" y="141.361197" style="fill: #262626"/>
    </g>
    <g clip-path="url(#p6613d6df34)">
     <use xlink:href="#Cc_0_b165688ea0" x="227.466188" y="141.284952" style="fill: #262626"/>
    </g>
    <g clip-path="url(#p6613d6df34)">
     <use xlink:href="#Cc_0_b165688ea0" x="228.087958" y="141.494441" style="fill: #262626"/>
    </g>
    <g clip-path="url(#p6613d6df34)">
     <use xlink:href="#Cc_0_b165688ea0" x="228.672639" y="141.255465" style="fill: #262626"/>
    </g>
   </g>
   <g id="PathCollection_14">
    <defs>
     <path id="Cd_0_00adeefe80" d="M 0 1.5 
C 0.397805 1.5 0.77937 1.341951 1.06066 1.06066 
C 1.341951 0.77937 1.5 0.397805 1.5 -0 
C 1.5 -0.397805 1.341951 -0.77937 1.06066 -1.06066 
C 0.77937 -1.341951 0.397805 -1.5 0 -1.5 
C -0.397805 -1.5 -0.77937 -1.341951 -1.06066 -1.06066 
C -1.341951 -0.77937 -1.5 -0.397805 -1.5 0 
C -1.5 0.397805 -1.341951 0.77937 -1.06066 1.06066 
C -0.77937 1.341951 -0.397805 1.5 0 1.5 
z
"/>
    </defs>
    <g clip-path="url(#p6613d6df34)">
     <use xlink:href="#Cd_0_00adeefe80" x="239.019284" y="89.210218" style="fill: #191919"/>
    </g>
    <g clip-path="url(#p6613d6df34)">
     <use xlink:href="#Cd_0_00adeefe80" x="239.821132" y="92.620133" style="fill: #191919"/>
    </g>
    <g clip-path="url(#p6613d6df34)">
     <use xlink:href="#Cd_0_00adeefe80" x="240.300562" y="87.211796" style="fill: #191919"/>
    </g>
    <g clip-path="url(#p6613d6df34)">
     <use xlink:href="#Cd_0_00adeefe80" x="239.417748" y="97.748089" style="fill: #191919"/>
    </g>
    <g clip-path="url(#p6613d6df34)">
     <use xlink:href="#Cd_0_00adeefe80" x="239.348189" y="91.949694" style="fill: #191919"/>
    </g>
   </g>
   <g id="PathCollection_15">
    <defs>
     <path id="Ce_0_469078ca98" d="M 0 1.5 
C 0.397805 1.5 0.77937 1.341951 1.06066 1.06066 
C 1.341951 0.77937 1.5 0.397805 1.5 -0 
C 1.5 -0.397805 1.341951 -0.77937 1.06066 -1.06066 
C 0.77937 -1.341951 0.397805 -1.5 0 -1.5 
C -0.397805 -1.5 -0.77937 -1.341951 -1.06066 -1.06066 
C -1.341951 -0.77937 -1.5 -0.397805 -1.5 0 
C -1.5 0.397805 -1.341951 0.77937 -1.06066 1.06066 
C -0.77937 1.341951 -0.397805 1.5 0 1.5 
z
"/>
    </defs>
    <g clip-path="url(#p6613d6df34)">
     <use xlink:href="#Ce_0_469078ca98" x="251.812009" y="141.453093" style="fill: #0d0d0d"/>
    </g>
    <g clip-path="url(#p6613d6df34)">
     <use xlink:href="#Ce_0_469078ca98" x="250.43564" y="141.515526" style="fill: #0d0d0d"/>
    </g>
    <g clip-path="url(#p6613d6df34)">
     <use xlink:href="#Ce_0_469078ca98" x="250.270622" y="140.411125" style="fill: #0d0d0d"/>
    </g>
    <g clip-path="url(#p6613d6df34)">
     <use xlink:href="#Ce_0_469078ca98" x="251.062401" y="141.462675" style="fill: #0d0d0d"/>
    </g>
    <g clip-path="url(#p6613d6df34)">
     <use xlink:href="#Ce_0_469078ca98" x="251.313327" y="141.426515" style="fill: #0d0d0d"/>
    </g>
   </g>
   <g id="PathCollection_16">
    <defs>
     <path id="Cf_0_dfb34b0b7e" d="M 0 1.5 
C 0.397805 1.5 0.77937 1.341951 1.06066 1.06066 
C 1.341951 0.77937 1.5 0.397805 1.5 -0 
C 1.5 -0.397805 1.341951 -0.77937 1.06066 -1.06066 
C 0.77937 -1.341951 0.397805 -1.5 0 -1.5 
C -0.397805 -1.5 -0.77937 -1.341951 -1.06066 -1.06066 
C -1.341951 -0.77937 -1.5 -0.397805 -1.5 0 
C -1.5 0.397805 -1.341951 0.77937 -1.06066 1.06066 
C -0.77937 1.341951 -0.397805 1.5 0 1.5 
z
"/>
    </defs>
    <g clip-path="url(#p6613d6df34)">
     <use xlink:href="#Cf_0_dfb34b0b7e" x="261.991085" y="85.865748"/>
    </g>
    <g clip-path="url(#p6613d6df34)">
     <use xlink:href="#Cf_0_dfb34b0b7e" x="261.393978" y="96.085036"/>
    </g>
    <g clip-path="url(#p6613d6df34)">
     <use xlink:href="#Cf_0_dfb34b0b7e" x="263.736753" y="87.559104"/>
    </g>
    <g clip-path="url(#p6613d6df34)">
     <use xlink:href="#Cf_0_dfb34b0b7e" x="261.914574" y="93.056735"/>
    </g>
    <g clip-path="url(#p6613d6df34)">
     <use xlink:href="#Cf_0_dfb34b0b7e" x="261.587445" y="98.005529"/>
    </g>
   </g>
   <g id="text_12">
    <!-- scene -->
    <g transform="translate(139.824687 16.318125) scale(0.12 -0.12)">
     <use xlink:href="#DejaVuSans-73"/>
     <use xlink:href="#DejaVuSans-63" x="52.099609"/>
     <use xlink:href="#DejaVuSans-65" x="107.080078"/>
     <use xlink:href="#DejaVuSans-6e" x="168.603516"/>
     <use xlink:href="#DejaVuSans-65" x="231.982422"/>
    </g>
   </g>
   <g id="legend_1">
    <g id="patch_27">
     <path d="M 280.99 142.191593 
L 400.79625 142.191593 
Q 402.79625 142.191593 402.79625 140.191593 
L 402.79625 81.922843 
Q 402.79625 79.922843 400.79625 79.922843 
L 280.99 79.922843 
Q 278.99 79.922843 278.99 81.922843 
L 278.99 140.191593 
Q 278.99 142.191593 280.99 142.191593 
z
" style="fill: #ffffff; opacity: 0.8; stroke: #cccccc; stroke-linejoin: miter"/>
    </g>
    <g id="patch_28">
     <path d="M 282.99 91.52128 
L 302.99 91.52128 
L 302.99 84.52128 
L 282.99 84.52128 
z
" style="fill: #3274a1; stroke: #3d3d3d; stroke-width: 0.75; stroke-linejoin: miter"/>
    </g>
    <g id="text_13">
     <!-- proba_weak -->
     <g transform="translate(310.99 91.52128) scale(0.1 -0.1)">
      <defs>
       <path id="DejaVuSans-62" d="M 3116 1747 
Q 3116 2381 2855 2742 
Q 2594 3103 2138 3103 
Q 1681 3103 1420 2742 
Q 1159 2381 1159 1747 
Q 1159 1113 1420 752 
Q 1681 391 2138 391 
Q 2594 391 2855 752 
Q 3116 1113 3116 1747 
z
M 1159 2969 
Q 1341 3281 1617 3432 
Q 1894 3584 2278 3584 
Q 2916 3584 3314 3078 
Q 3713 2572 3713 1747 
Q 3713 922 3314 415 
Q 2916 -91 2278 -91 
Q 1894 -91 1617 61 
Q 1341 213 1159 525 
L 1159 0 
L 581 0 
L 581 4863 
L 1159 4863 
L 1159 2969 
z
" transform="scale(0.015625)"/>
       <path id="DejaVuSans-77" d="M 269 3500 
L 844 3500 
L 1563 769 
L 2278 3500 
L 2956 3500 
L 3675 769 
L 4391 3500 
L 4966 3500 
L 4050 0 
L 3372 0 
L 2619 2869 
L 1863 0 
L 1184 0 
L 269 3500 
z
" transform="scale(0.015625)"/>
       <path id="DejaVuSans-6b" d="M 581 4863 
L 1159 4863 
L 1159 1991 
L 2875 3500 
L 3609 3500 
L 1753 1863 
L 3688 0 
L 2938 0 
L 1159 1709 
L 1159 0 
L 581 0 
L 581 4863 
z
" transform="scale(0.015625)"/>
      </defs>
      <use xlink:href="#DejaVuSans-70"/>
      <use xlink:href="#DejaVuSans-72" x="63.476562"/>
      <use xlink:href="#DejaVuSans-6f" x="102.339844"/>
      <use xlink:href="#DejaVuSans-62" x="163.521484"/>
      <use xlink:href="#DejaVuSans-61" x="226.998047"/>
      <use xlink:href="#DejaVuSans-5f" x="288.277344"/>
      <use xlink:href="#DejaVuSans-77" x="338.277344"/>
      <use xlink:href="#DejaVuSans-65" x="420.064453"/>
      <use xlink:href="#DejaVuSans-61" x="481.587891"/>
      <use xlink:href="#DejaVuSans-6b" x="542.867188"/>
     </g>
    </g>
    <g id="patch_29">
     <path d="M 282.99 106.47753 
L 302.99 106.47753 
L 302.99 99.47753 
L 282.99 99.47753 
z
" style="fill: #e1812c; stroke: #3d3d3d; stroke-width: 0.75; stroke-linejoin: miter"/>
    </g>
    <g id="text_14">
     <!-- embedding_weak -->
     <g transform="translate(310.99 106.47753) scale(0.1 -0.1)">
      <defs>
       <path id="DejaVuSans-67" d="M 2906 1791 
Q 2906 2416 2648 2759 
Q 2391 3103 1925 3103 
Q 1463 3103 1205 2759 
Q 947 2416 947 1791 
Q 947 1169 1205 825 
Q 1463 481 1925 481 
Q 2391 481 2648 825 
Q 2906 1169 2906 1791 
z
M 3481 434 
Q 3481 -459 3084 -895 
Q 2688 -1331 1869 -1331 
Q 1566 -1331 1297 -1286 
Q 1028 -1241 775 -1147 
L 775 -588 
Q 1028 -725 1275 -790 
Q 1522 -856 1778 -856 
Q 2344 -856 2625 -561 
Q 2906 -266 2906 331 
L 2906 616 
Q 2728 306 2450 153 
Q 2172 0 1784 0 
Q 1141 0 747 490 
Q 353 981 353 1791 
Q 353 2603 747 3093 
Q 1141 3584 1784 3584 
Q 2172 3584 2450 3431 
Q 2728 3278 2906 2969 
L 2906 3500 
L 3481 3500 
L 3481 434 
z
" transform="scale(0.015625)"/>
      </defs>
      <use xlink:href="#DejaVuSans-65"/>
      <use xlink:href="#DejaVuSans-6d" x="61.523438"/>
      <use xlink:href="#DejaVuSans-62" x="158.935547"/>
      <use xlink:href="#DejaVuSans-65" x="222.412109"/>
      <use xlink:href="#DejaVuSans-64" x="283.935547"/>
      <use xlink:href="#DejaVuSans-64" x="347.412109"/>
      <use xlink:href="#DejaVuSans-69" x="410.888672"/>
      <use xlink:href="#DejaVuSans-6e" x="438.671875"/>
      <use xlink:href="#DejaVuSans-67" x="502.050781"/>
      <use xlink:href="#DejaVuSans-5f" x="565.527344"/>
      <use xlink:href="#DejaVuSans-77" x="615.527344"/>
      <use xlink:href="#DejaVuSans-65" x="697.314453"/>
      <use xlink:href="#DejaVuSans-61" x="758.837891"/>
      <use xlink:href="#DejaVuSans-6b" x="820.117188"/>
     </g>
    </g>
    <g id="patch_30">
     <path d="M 282.99 121.43378 
L 302.99 121.43378 
L 302.99 114.43378 
L 282.99 114.43378 
z
" style="fill: #3a923a; stroke: #3d3d3d; stroke-width: 0.75; stroke-linejoin: miter"/>
    </g>
    <g id="text_15">
     <!-- proba -->
     <g transform="translate(310.99 121.43378) scale(0.1 -0.1)">
      <use xlink:href="#DejaVuSans-70"/>
      <use xlink:href="#DejaVuSans-72" x="63.476562"/>
      <use xlink:href="#DejaVuSans-6f" x="102.339844"/>
      <use xlink:href="#DejaVuSans-62" x="163.521484"/>
      <use xlink:href="#DejaVuSans-61" x="226.998047"/>
     </g>
    </g>
    <g id="patch_31">
     <path d="M 282.99 136.111905 
L 302.99 136.111905 
L 302.99 129.111905 
L 282.99 129.111905 
z
" style="fill: #c03d3e; stroke: #3d3d3d; stroke-width: 0.75; stroke-linejoin: miter"/>
    </g>
    <g id="text_16">
     <!-- embedding -->
     <g transform="translate(310.99 136.111905) scale(0.1 -0.1)">
      <use xlink:href="#DejaVuSans-65"/>
      <use xlink:href="#DejaVuSans-6d" x="61.523438"/>
      <use xlink:href="#DejaVuSans-62" x="158.935547"/>
      <use xlink:href="#DejaVuSans-65" x="222.412109"/>
      <use xlink:href="#DejaVuSans-64" x="283.935547"/>
      <use xlink:href="#DejaVuSans-64" x="347.412109"/>
      <use xlink:href="#DejaVuSans-69" x="410.888672"/>
      <use xlink:href="#DejaVuSans-6e" x="438.671875"/>
      <use xlink:href="#DejaVuSans-67" x="502.050781"/>
     </g>
    </g>
   </g>
  </g>
 </g>
 <defs>
  <clipPath id="p6613d6df34">
   <rect x="40.88125" y="22.318125" width="233.10875" height="124.873468"/>
  </clipPath>
 </defs>
</svg>
