<?xml version="1.0" encoding="utf-8" standalone="no"?>
<!DOCTYPE svg PUBLIC "-//W3C//DTD SVG 1.1//EN"
  "http://www.w3.org/Graphics/SVG/1.1/DTD/svg11.dtd">
<svg xmlns:xlink="http://www.w3.org/1999/xlink" width="410.12125pt" height="207.241673pt" viewBox="0 0 410.12125 207.241673" xmlns="http://www.w3.org/2000/svg" version="1.1">
 <metadata>
  <rdf:RDF xmlns:dc="http://purl.org/dc/elements/1.1/" xmlns:cc="http://creativecommons.org/ns#" xmlns:rdf="http://www.w3.org/1999/02/22-rdf-syntax-ns#">
   <cc:Work>
    <dc:type rdf:resource="http://purl.org/dc/dcmitype/StillImage"/>
    <dc:date>2023-06-23T11:38:24.386863</dc:date>
    <dc:format>image/svg+xml</dc:format>
    <dc:creator>
     <cc:Agent>
      <dc:title>Matplotlib v3.7.1, https://matplotlib.org/</dc:title>
     </cc:Agent>
    </dc:creator>
   </cc:Work>
  </rdf:RDF>
 </metadata>
 <defs>
  <style type="text/css">*{stroke-linejoin: round; stroke-linecap: butt}</style>
 </defs>
 <g id="figure_1">
  <g id="patch_1">
   <path d="M -0 207.241673 
L 410.12125 207.241673 
L 410.12125 0 
L -0 0 
L -0 207.241673 
z
" style="fill: none"/>
  </g>
  <g id="axes_1">
   <g id="patch_2">
    <path d="M 53.60625 147.191593 
L 274.115 147.191593 
L 274.115 22.318125 
L 53.60625 22.318125 
L 53.60625 147.191593 
z
" style="fill: none"/>
   </g>
   <g id="patch_3">
    <path d="M 53.722307 140.399446 
L 65.095916 140.399446 
L 65.095916 140.326213 
L 53.722307 140.326213 
L 53.722307 140.399446 
z
" clip-path="url(#p4b49a40d8f)" style="fill: #3274a1; stroke: #3d3d3d; stroke-width: 1.5; stroke-linejoin: miter"/>
   </g>
   <g id="patch_4">
    <path d="M 65.328031 76.219476 
L 76.70164 76.219476 
L 76.70164 75.219342 
L 65.328031 75.219342 
L 65.328031 76.219476 
z
" clip-path="url(#p4b49a40d8f)" style="fill: #e1812c; stroke: #3d3d3d; stroke-width: 1.5; stroke-linejoin: miter"/>
   </g>
   <g id="patch_5">
    <path d="M 76.933755 142.209148 
L 88.307364 142.209148 
L 88.307364 142.158527 
L 76.933755 142.158527 
L 76.933755 142.209148 
z
" clip-path="url(#p4b49a40d8f)" style="fill: #3a923a; stroke: #3d3d3d; stroke-width: 1.5; stroke-linejoin: miter"/>
   </g>
   <g id="patch_6">
    <path d="M 88.539478 83.000863 
L 99.913087 83.000863 
L 99.913087 77.913704 
L 88.539478 77.913704 
L 88.539478 83.000863 
z
" clip-path="url(#p4b49a40d8f)" style="fill: #c03d3e; stroke: #3d3d3d; stroke-width: 1.5; stroke-linejoin: miter"/>
   </g>
   <g id="patch_7">
    <path d="M 111.750926 140.04383 
L 123.124535 140.04383 
L 123.124535 139.903659 
L 111.750926 139.903659 
L 111.750926 140.04383 
z
" clip-path="url(#p4b49a40d8f)" style="fill: #3274a1; stroke: #3d3d3d; stroke-width: 1.5; stroke-linejoin: miter"/>
   </g>
   <g id="patch_8">
    <path d="M 123.356649 73.098262 
L 134.730259 73.098262 
L 134.730259 70.950641 
L 123.356649 70.950641 
L 123.356649 73.098262 
z
" clip-path="url(#p4b49a40d8f)" style="fill: #e1812c; stroke: #3d3d3d; stroke-width: 1.5; stroke-linejoin: miter"/>
   </g>
   <g id="patch_9">
    <path d="M 134.962373 142.001107 
L 146.335982 142.001107 
L 146.335982 141.959549 
L 134.962373 141.959549 
L 134.962373 142.001107 
z
" clip-path="url(#p4b49a40d8f)" style="fill: #3a923a; stroke: #3d3d3d; stroke-width: 1.5; stroke-linejoin: miter"/>
   </g>
   <g id="patch_10">
    <path d="M 146.568097 78.844926 
L 157.941706 78.844926 
L 157.941706 74.431251 
L 146.568097 74.431251 
L 146.568097 78.844926 
z
" clip-path="url(#p4b49a40d8f)" style="fill: #c03d3e; stroke: #3d3d3d; stroke-width: 1.5; stroke-linejoin: miter"/>
   </g>
   <g id="patch_11">
    <path d="M 169.779544 139.851637 
L 181.153153 139.851637 
L 181.153153 139.715317 
L 169.779544 139.715317 
L 169.779544 139.851637 
z
" clip-path="url(#p4b49a40d8f)" style="fill: #3274a1; stroke: #3d3d3d; stroke-width: 1.5; stroke-linejoin: miter"/>
   </g>
   <g id="patch_12">
    <path d="M 181.385268 72.415541 
L 192.758877 72.415541 
L 192.758877 68.971741 
L 181.385268 68.971741 
L 181.385268 72.415541 
z
" clip-path="url(#p4b49a40d8f)" style="fill: #e1812c; stroke: #3d3d3d; stroke-width: 1.5; stroke-linejoin: miter"/>
   </g>
   <g id="patch_13">
    <path d="M 192.990991 141.933039 
L 204.364601 141.933039 
L 204.364601 141.877385 
L 192.990991 141.877385 
L 192.990991 141.933039 
z
" clip-path="url(#p4b49a40d8f)" style="fill: #3a923a; stroke: #3d3d3d; stroke-width: 1.5; stroke-linejoin: miter"/>
   </g>
   <g id="patch_14">
    <path d="M 204.596715 78.616757 
L 215.970324 78.616757 
L 215.970324 72.154274 
L 204.596715 72.154274 
L 204.596715 78.616757 
z
" clip-path="url(#p4b49a40d8f)" style="fill: #c03d3e; stroke: #3d3d3d; stroke-width: 1.5; stroke-linejoin: miter"/>
   </g>
   <g id="patch_15">
    <path d="M 227.808162 138.97354 
L 239.181772 138.97354 
L 239.181772 138.877185 
L 227.808162 138.877185 
L 227.808162 138.97354 
z
" clip-path="url(#p4b49a40d8f)" style="fill: #3274a1; stroke: #3d3d3d; stroke-width: 1.5; stroke-linejoin: miter"/>
   </g>
   <g id="patch_16">
    <path d="M 239.413886 46.197622 
L 250.787495 46.197622 
L 250.787495 43.528911 
L 239.413886 43.528911 
L 239.413886 46.197622 
z
" clip-path="url(#p4b49a40d8f)" style="fill: #e1812c; stroke: #3d3d3d; stroke-width: 1.5; stroke-linejoin: miter"/>
   </g>
   <g id="patch_17">
    <path d="M 251.01961 141.466383 
L 262.393219 141.466383 
L 262.393219 141.312205 
L 251.01961 141.312205 
L 251.01961 141.466383 
z
" clip-path="url(#p4b49a40d8f)" style="fill: #3a923a; stroke: #3d3d3d; stroke-width: 1.5; stroke-linejoin: miter"/>
   </g>
   <g id="patch_18">
    <path d="M 262.625334 74.476066 
L 273.998943 74.476066 
L 273.998943 73.022469 
L 262.625334 73.022469 
L 262.625334 74.476066 
z
" clip-path="url(#p4b49a40d8f)" style="fill: #c03d3e; stroke: #3d3d3d; stroke-width: 1.5; stroke-linejoin: miter"/>
   </g>
   <g id="patch_19">
    <path d="M 76.817697 144.043665 
L 76.817697 144.043665 
L 76.817697 144.043665 
L 76.817697 144.043665 
z
" clip-path="url(#p4b49a40d8f)" style="fill: #3274a1; stroke: #3d3d3d; stroke-width: 0.75; stroke-linejoin: miter"/>
   </g>
   <g id="patch_20">
    <path d="M 76.817697 144.043665 
L 76.817697 144.043665 
L 76.817697 144.043665 
L 76.817697 144.043665 
z
" clip-path="url(#p4b49a40d8f)" style="fill: #e1812c; stroke: #3d3d3d; stroke-width: 0.75; stroke-linejoin: miter"/>
   </g>
   <g id="patch_21">
    <path d="M 76.817697 144.043665 
L 76.817697 144.043665 
L 76.817697 144.043665 
L 76.817697 144.043665 
z
" clip-path="url(#p4b49a40d8f)" style="fill: #3a923a; stroke: #3d3d3d; stroke-width: 0.75; stroke-linejoin: miter"/>
   </g>
   <g id="patch_22">
    <path d="M 76.817697 144.043665 
L 76.817697 144.043665 
L 76.817697 144.043665 
L 76.817697 144.043665 
z
" clip-path="url(#p4b49a40d8f)" style="fill: #c03d3e; stroke: #3d3d3d; stroke-width: 0.75; stroke-linejoin: miter"/>
   </g>
   <g id="matplotlib.axis_1">
    <g id="xtick_1">
     <g id="line2d_1">
      <defs>
       <path id="m64546b0b6b" d="M 0 0 
L 0 3.5 
" style="stroke: #000000; stroke-width: 0.8"/>
      </defs>
      <g>
       <use xlink:href="#m64546b0b6b" x="76.817697" y="147.191593" style="stroke: #000000; stroke-width: 0.8"/>
      </g>
     </g>
     <g id="text_1">
      <!-- none -->
      <g transform="translate(57.707032 177.204604) rotate(-45) scale(0.1 -0.1)">
       <defs>
        <path id="DejaVuSans-6e" d="M 3513 2113 
L 3513 0 
L 2938 0 
L 2938 2094 
Q 2938 2591 2744 2837 
Q 2550 3084 2163 3084 
Q 1697 3084 1428 2787 
Q 1159 2491 1159 1978 
L 1159 0 
L 581 0 
L 581 3500 
L 1159 3500 
L 1159 2956 
Q 1366 3272 1645 3428 
Q 1925 3584 2291 3584 
Q 2894 3584 3203 3211 
Q 3513 2838 3513 2113 
z
" transform="scale(0.015625)"/>
        <path id="DejaVuSans-6f" d="M 1959 3097 
Q 1497 3097 1228 2736 
Q 959 2375 959 1747 
Q 959 1119 1226 758 
Q 1494 397 1959 397 
Q 2419 397 2687 759 
Q 2956 1122 2956 1747 
Q 2956 2369 2687 2733 
Q 2419 3097 1959 3097 
z
M 1959 3584 
Q 2709 3584 3137 3096 
Q 3566 2609 3566 1747 
Q 3566 888 3137 398 
Q 2709 -91 1959 -91 
Q 1206 -91 779 398 
Q 353 888 353 1747 
Q 353 2609 779 3096 
Q 1206 3584 1959 3584 
z
" transform="scale(0.015625)"/>
        <path id="DejaVuSans-65" d="M 3597 1894 
L 3597 1613 
L 953 1613 
Q 991 1019 1311 708 
Q 1631 397 2203 397 
Q 2534 397 2845 478 
Q 3156 559 3463 722 
L 3463 178 
Q 3153 47 2828 -22 
Q 2503 -91 2169 -91 
Q 1331 -91 842 396 
Q 353 884 353 1716 
Q 353 2575 817 3079 
Q 1281 3584 2069 3584 
Q 2775 3584 3186 3129 
Q 3597 2675 3597 1894 
z
M 3022 2063 
Q 3016 2534 2758 2815 
Q 2500 3097 2075 3097 
Q 1594 3097 1305 2825 
Q 1016 2553 972 2059 
L 3022 2063 
z
" transform="scale(0.015625)"/>
       </defs>
       <use xlink:href="#DejaVuSans-6e"/>
       <use xlink:href="#DejaVuSans-6f" x="63.378906"/>
       <use xlink:href="#DejaVuSans-6e" x="124.560547"/>
       <use xlink:href="#DejaVuSans-65" x="187.939453"/>
      </g>
     </g>
    </g>
    <g id="xtick_2">
     <g id="line2d_2">
      <g>
       <use xlink:href="#m64546b0b6b" x="134.846316" y="147.191593" style="stroke: #000000; stroke-width: 0.8"/>
      </g>
     </g>
     <g id="text_2">
      <!-- drop30 -->
      <g transform="translate(108.325392 184.614862) rotate(-45) scale(0.1 -0.1)">
       <defs>
        <path id="DejaVuSans-64" d="M 2906 2969 
L 2906 4863 
L 3481 4863 
L 3481 0 
L 2906 0 
L 2906 525 
Q 2725 213 2448 61 
Q 2172 -91 1784 -91 
Q 1150 -91 751 415 
Q 353 922 353 1747 
Q 353 2572 751 3078 
Q 1150 3584 1784 3584 
Q 2172 3584 2448 3432 
Q 2725 3281 2906 2969 
z
M 947 1747 
Q 947 1113 1208 752 
Q 1469 391 1925 391 
Q 2381 391 2643 752 
Q 2906 1113 2906 1747 
Q 2906 2381 2643 2742 
Q 2381 3103 1925 3103 
Q 1469 3103 1208 2742 
Q 947 2381 947 1747 
z
" transform="scale(0.015625)"/>
        <path id="DejaVuSans-72" d="M 2631 2963 
Q 2534 3019 2420 3045 
Q 2306 3072 2169 3072 
Q 1681 3072 1420 2755 
Q 1159 2438 1159 1844 
L 1159 0 
L 581 0 
L 581 3500 
L 1159 3500 
L 1159 2956 
Q 1341 3275 1631 3429 
Q 1922 3584 2338 3584 
Q 2397 3584 2469 3576 
Q 2541 3569 2628 3553 
L 2631 2963 
z
" transform="scale(0.015625)"/>
        <path id="DejaVuSans-70" d="M 1159 525 
L 1159 -1331 
L 581 -1331 
L 581 3500 
L 1159 3500 
L 1159 2969 
Q 1341 3281 1617 3432 
Q 1894 3584 2278 3584 
Q 2916 3584 3314 3078 
Q 3713 2572 3713 1747 
Q 3713 922 3314 415 
Q 2916 -91 2278 -91 
Q 1894 -91 1617 61 
Q 1341 213 1159 525 
z
M 3116 1747 
Q 3116 2381 2855 2742 
Q 2594 3103 2138 3103 
Q 1681 3103 1420 2742 
Q 1159 2381 1159 1747 
Q 1159 1113 1420 752 
Q 1681 391 2138 391 
Q 2594 391 2855 752 
Q 3116 1113 3116 1747 
z
" transform="scale(0.015625)"/>
        <path id="DejaVuSans-33" d="M 2597 2516 
Q 3050 2419 3304 2112 
Q 3559 1806 3559 1356 
Q 3559 666 3084 287 
Q 2609 -91 1734 -91 
Q 1441 -91 1130 -33 
Q 819 25 488 141 
L 488 750 
Q 750 597 1062 519 
Q 1375 441 1716 441 
Q 2309 441 2620 675 
Q 2931 909 2931 1356 
Q 2931 1769 2642 2001 
Q 2353 2234 1838 2234 
L 1294 2234 
L 1294 2753 
L 1863 2753 
Q 2328 2753 2575 2939 
Q 2822 3125 2822 3475 
Q 2822 3834 2567 4026 
Q 2313 4219 1838 4219 
Q 1578 4219 1281 4162 
Q 984 4106 628 3988 
L 628 4550 
Q 988 4650 1302 4700 
Q 1616 4750 1894 4750 
Q 2613 4750 3031 4423 
Q 3450 4097 3450 3541 
Q 3450 3153 3228 2886 
Q 3006 2619 2597 2516 
z
" transform="scale(0.015625)"/>
        <path id="DejaVuSans-30" d="M 2034 4250 
Q 1547 4250 1301 3770 
Q 1056 3291 1056 2328 
Q 1056 1369 1301 889 
Q 1547 409 2034 409 
Q 2525 409 2770 889 
Q 3016 1369 3016 2328 
Q 3016 3291 2770 3770 
Q 2525 4250 2034 4250 
z
M 2034 4750 
Q 2819 4750 3233 4129 
Q 3647 3509 3647 2328 
Q 3647 1150 3233 529 
Q 2819 -91 2034 -91 
Q 1250 -91 836 529 
Q 422 1150 422 2328 
Q 422 3509 836 4129 
Q 1250 4750 2034 4750 
z
" transform="scale(0.015625)"/>
       </defs>
       <use xlink:href="#DejaVuSans-64"/>
       <use xlink:href="#DejaVuSans-72" x="63.476562"/>
       <use xlink:href="#DejaVuSans-6f" x="102.339844"/>
       <use xlink:href="#DejaVuSans-70" x="163.521484"/>
       <use xlink:href="#DejaVuSans-33" x="226.998047"/>
       <use xlink:href="#DejaVuSans-30" x="290.621094"/>
      </g>
     </g>
    </g>
    <g id="xtick_3">
     <g id="line2d_3">
      <g>
       <use xlink:href="#m64546b0b6b" x="192.874934" y="147.191593" style="stroke: #000000; stroke-width: 0.8"/>
      </g>
     </g>
     <g id="text_3">
      <!-- drop50 -->
      <g transform="translate(166.35401 184.614862) rotate(-45) scale(0.1 -0.1)">
       <defs>
        <path id="DejaVuSans-35" d="M 691 4666 
L 3169 4666 
L 3169 4134 
L 1269 4134 
L 1269 2991 
Q 1406 3038 1543 3061 
Q 1681 3084 1819 3084 
Q 2600 3084 3056 2656 
Q 3513 2228 3513 1497 
Q 3513 744 3044 326 
Q 2575 -91 1722 -91 
Q 1428 -91 1123 -41 
Q 819 9 494 109 
L 494 744 
Q 775 591 1075 516 
Q 1375 441 1709 441 
Q 2250 441 2565 725 
Q 2881 1009 2881 1497 
Q 2881 1984 2565 2268 
Q 2250 2553 1709 2553 
Q 1456 2553 1204 2497 
Q 953 2441 691 2322 
L 691 4666 
z
" transform="scale(0.015625)"/>
       </defs>
       <use xlink:href="#DejaVuSans-64"/>
       <use xlink:href="#DejaVuSans-72" x="63.476562"/>
       <use xlink:href="#DejaVuSans-6f" x="102.339844"/>
       <use xlink:href="#DejaVuSans-70" x="163.521484"/>
       <use xlink:href="#DejaVuSans-35" x="226.998047"/>
       <use xlink:href="#DejaVuSans-30" x="290.621094"/>
      </g>
     </g>
    </g>
    <g id="xtick_4">
     <g id="line2d_4">
      <g>
       <use xlink:href="#m64546b0b6b" x="250.903553" y="147.191593" style="stroke: #000000; stroke-width: 0.8"/>
      </g>
     </g>
     <g id="text_4">
      <!-- drop80 -->
      <g transform="translate(224.382629 184.614862) rotate(-45) scale(0.1 -0.1)">
       <defs>
        <path id="DejaVuSans-38" d="M 2034 2216 
Q 1584 2216 1326 1975 
Q 1069 1734 1069 1313 
Q 1069 891 1326 650 
Q 1584 409 2034 409 
Q 2484 409 2743 651 
Q 3003 894 3003 1313 
Q 3003 1734 2745 1975 
Q 2488 2216 2034 2216 
z
M 1403 2484 
Q 997 2584 770 2862 
Q 544 3141 544 3541 
Q 544 4100 942 4425 
Q 1341 4750 2034 4750 
Q 2731 4750 3128 4425 
Q 3525 4100 3525 3541 
Q 3525 3141 3298 2862 
Q 3072 2584 2669 2484 
Q 3125 2378 3379 2068 
Q 3634 1759 3634 1313 
Q 3634 634 3220 271 
Q 2806 -91 2034 -91 
Q 1263 -91 848 271 
Q 434 634 434 1313 
Q 434 1759 690 2068 
Q 947 2378 1403 2484 
z
M 1172 3481 
Q 1172 3119 1398 2916 
Q 1625 2713 2034 2713 
Q 2441 2713 2670 2916 
Q 2900 3119 2900 3481 
Q 2900 3844 2670 4047 
Q 2441 4250 2034 4250 
Q 1625 4250 1398 4047 
Q 1172 3844 1172 3481 
z
" transform="scale(0.015625)"/>
       </defs>
       <use xlink:href="#DejaVuSans-64"/>
       <use xlink:href="#DejaVuSans-72" x="63.476562"/>
       <use xlink:href="#DejaVuSans-6f" x="102.339844"/>
       <use xlink:href="#DejaVuSans-70" x="163.521484"/>
       <use xlink:href="#DejaVuSans-38" x="226.998047"/>
       <use xlink:href="#DejaVuSans-30" x="290.621094"/>
      </g>
     </g>
    </g>
    <g id="text_5">
     <!-- estimator_suffix -->
     <g transform="translate(123.678594 197.68386) scale(0.1 -0.1)">
      <defs>
       <path id="DejaVuSans-73" d="M 2834 3397 
L 2834 2853 
Q 2591 2978 2328 3040 
Q 2066 3103 1784 3103 
Q 1356 3103 1142 2972 
Q 928 2841 928 2578 
Q 928 2378 1081 2264 
Q 1234 2150 1697 2047 
L 1894 2003 
Q 2506 1872 2764 1633 
Q 3022 1394 3022 966 
Q 3022 478 2636 193 
Q 2250 -91 1575 -91 
Q 1294 -91 989 -36 
Q 684 19 347 128 
L 347 722 
Q 666 556 975 473 
Q 1284 391 1588 391 
Q 1994 391 2212 530 
Q 2431 669 2431 922 
Q 2431 1156 2273 1281 
Q 2116 1406 1581 1522 
L 1381 1569 
Q 847 1681 609 1914 
Q 372 2147 372 2553 
Q 372 3047 722 3315 
Q 1072 3584 1716 3584 
Q 2034 3584 2315 3537 
Q 2597 3491 2834 3397 
z
" transform="scale(0.015625)"/>
       <path id="DejaVuSans-74" d="M 1172 4494 
L 1172 3500 
L 2356 3500 
L 2356 3053 
L 1172 3053 
L 1172 1153 
Q 1172 725 1289 603 
Q 1406 481 1766 481 
L 2356 481 
L 2356 0 
L 1766 0 
Q 1100 0 847 248 
Q 594 497 594 1153 
L 594 3053 
L 172 3053 
L 172 3500 
L 594 3500 
L 594 4494 
L 1172 4494 
z
" transform="scale(0.015625)"/>
       <path id="DejaVuSans-69" d="M 603 3500 
L 1178 3500 
L 1178 0 
L 603 0 
L 603 3500 
z
M 603 4863 
L 1178 4863 
L 1178 4134 
L 603 4134 
L 603 4863 
z
" transform="scale(0.015625)"/>
       <path id="DejaVuSans-6d" d="M 3328 2828 
Q 3544 3216 3844 3400 
Q 4144 3584 4550 3584 
Q 5097 3584 5394 3201 
Q 5691 2819 5691 2113 
L 5691 0 
L 5113 0 
L 5113 2094 
Q 5113 2597 4934 2840 
Q 4756 3084 4391 3084 
Q 3944 3084 3684 2787 
Q 3425 2491 3425 1978 
L 3425 0 
L 2847 0 
L 2847 2094 
Q 2847 2600 2669 2842 
Q 2491 3084 2119 3084 
Q 1678 3084 1418 2786 
Q 1159 2488 1159 1978 
L 1159 0 
L 581 0 
L 581 3500 
L 1159 3500 
L 1159 2956 
Q 1356 3278 1631 3431 
Q 1906 3584 2284 3584 
Q 2666 3584 2933 3390 
Q 3200 3197 3328 2828 
z
" transform="scale(0.015625)"/>
       <path id="DejaVuSans-61" d="M 2194 1759 
Q 1497 1759 1228 1600 
Q 959 1441 959 1056 
Q 959 750 1161 570 
Q 1363 391 1709 391 
Q 2188 391 2477 730 
Q 2766 1069 2766 1631 
L 2766 1759 
L 2194 1759 
z
M 3341 1997 
L 3341 0 
L 2766 0 
L 2766 531 
Q 2569 213 2275 61 
Q 1981 -91 1556 -91 
Q 1019 -91 701 211 
Q 384 513 384 1019 
Q 384 1609 779 1909 
Q 1175 2209 1959 2209 
L 2766 2209 
L 2766 2266 
Q 2766 2663 2505 2880 
Q 2244 3097 1772 3097 
Q 1472 3097 1187 3025 
Q 903 2953 641 2809 
L 641 3341 
Q 956 3463 1253 3523 
Q 1550 3584 1831 3584 
Q 2591 3584 2966 3190 
Q 3341 2797 3341 1997 
z
" transform="scale(0.015625)"/>
       <path id="DejaVuSans-5f" d="M 3263 -1063 
L 3263 -1509 
L -63 -1509 
L -63 -1063 
L 3263 -1063 
z
" transform="scale(0.015625)"/>
       <path id="DejaVuSans-75" d="M 544 1381 
L 544 3500 
L 1119 3500 
L 1119 1403 
Q 1119 906 1312 657 
Q 1506 409 1894 409 
Q 2359 409 2629 706 
Q 2900 1003 2900 1516 
L 2900 3500 
L 3475 3500 
L 3475 0 
L 2900 0 
L 2900 538 
Q 2691 219 2414 64 
Q 2138 -91 1772 -91 
Q 1169 -91 856 284 
Q 544 659 544 1381 
z
M 1991 3584 
L 1991 3584 
z
" transform="scale(0.015625)"/>
       <path id="DejaVuSans-66" d="M 2375 4863 
L 2375 4384 
L 1825 4384 
Q 1516 4384 1395 4259 
Q 1275 4134 1275 3809 
L 1275 3500 
L 2222 3500 
L 2222 3053 
L 1275 3053 
L 1275 0 
L 697 0 
L 697 3053 
L 147 3053 
L 147 3500 
L 697 3500 
L 697 3744 
Q 697 4328 969 4595 
Q 1241 4863 1831 4863 
L 2375 4863 
z
" transform="scale(0.015625)"/>
       <path id="DejaVuSans-78" d="M 3513 3500 
L 2247 1797 
L 3578 0 
L 2900 0 
L 1881 1375 
L 863 0 
L 184 0 
L 1544 1831 
L 300 3500 
L 978 3500 
L 1906 2253 
L 2834 3500 
L 3513 3500 
z
" transform="scale(0.015625)"/>
      </defs>
      <use xlink:href="#DejaVuSans-65"/>
      <use xlink:href="#DejaVuSans-73" x="61.523438"/>
      <use xlink:href="#DejaVuSans-74" x="113.623047"/>
      <use xlink:href="#DejaVuSans-69" x="152.832031"/>
      <use xlink:href="#DejaVuSans-6d" x="180.615234"/>
      <use xlink:href="#DejaVuSans-61" x="278.027344"/>
      <use xlink:href="#DejaVuSans-74" x="339.306641"/>
      <use xlink:href="#DejaVuSans-6f" x="378.515625"/>
      <use xlink:href="#DejaVuSans-72" x="439.697266"/>
      <use xlink:href="#DejaVuSans-5f" x="480.810547"/>
      <use xlink:href="#DejaVuSans-73" x="530.810547"/>
      <use xlink:href="#DejaVuSans-75" x="582.910156"/>
      <use xlink:href="#DejaVuSans-66" x="646.289062"/>
      <use xlink:href="#DejaVuSans-66" x="681.494141"/>
      <use xlink:href="#DejaVuSans-69" x="716.699219"/>
      <use xlink:href="#DejaVuSans-78" x="744.482422"/>
     </g>
    </g>
   </g>
   <g id="matplotlib.axis_2">
    <g id="ytick_1">
     <g id="line2d_5">
      <defs>
       <path id="m689579e764" d="M 0 0 
L -3.5 0 
" style="stroke: #000000; stroke-width: 0.8"/>
      </defs>
      <g>
       <use xlink:href="#m689579e764" x="53.60625" y="144.043665" style="stroke: #000000; stroke-width: 0.8"/>
      </g>
     </g>
     <g id="text_6">
      <!-- 0 -->
      <g transform="translate(40.24375 147.842883) scale(0.1 -0.1)">
       <use xlink:href="#DejaVuSans-30"/>
      </g>
     </g>
    </g>
    <g id="ytick_2">
     <g id="line2d_6">
      <g>
       <use xlink:href="#m689579e764" x="53.60625" y="115.318066" style="stroke: #000000; stroke-width: 0.8"/>
      </g>
     </g>
     <g id="text_7">
      <!-- 500 -->
      <g transform="translate(27.51875 119.117285) scale(0.1 -0.1)">
       <use xlink:href="#DejaVuSans-35"/>
       <use xlink:href="#DejaVuSans-30" x="63.623047"/>
       <use xlink:href="#DejaVuSans-30" x="127.246094"/>
      </g>
     </g>
    </g>
    <g id="ytick_3">
     <g id="line2d_7">
      <g>
       <use xlink:href="#m689579e764" x="53.60625" y="86.592468" style="stroke: #000000; stroke-width: 0.8"/>
      </g>
     </g>
     <g id="text_8">
      <!-- 1000 -->
      <g transform="translate(21.15625 90.391687) scale(0.1 -0.1)">
       <defs>
        <path id="DejaVuSans-31" d="M 794 531 
L 1825 531 
L 1825 4091 
L 703 3866 
L 703 4441 
L 1819 4666 
L 2450 4666 
L 2450 531 
L 3481 531 
L 3481 0 
L 794 0 
L 794 531 
z
" transform="scale(0.015625)"/>
       </defs>
       <use xlink:href="#DejaVuSans-31"/>
       <use xlink:href="#DejaVuSans-30" x="63.623047"/>
       <use xlink:href="#DejaVuSans-30" x="127.246094"/>
       <use xlink:href="#DejaVuSans-30" x="190.869141"/>
      </g>
     </g>
    </g>
    <g id="ytick_4">
     <g id="line2d_8">
      <g>
       <use xlink:href="#m689579e764" x="53.60625" y="57.86687" style="stroke: #000000; stroke-width: 0.8"/>
      </g>
     </g>
     <g id="text_9">
      <!-- 1500 -->
      <g transform="translate(21.15625 61.666089) scale(0.1 -0.1)">
       <use xlink:href="#DejaVuSans-31"/>
       <use xlink:href="#DejaVuSans-35" x="63.623047"/>
       <use xlink:href="#DejaVuSans-30" x="127.246094"/>
       <use xlink:href="#DejaVuSans-30" x="190.869141"/>
      </g>
     </g>
    </g>
    <g id="ytick_5">
     <g id="line2d_9">
      <g>
       <use xlink:href="#m689579e764" x="53.60625" y="29.141272" style="stroke: #000000; stroke-width: 0.8"/>
      </g>
     </g>
     <g id="text_10">
      <!-- 2000 -->
      <g transform="translate(21.15625 32.94049) scale(0.1 -0.1)">
       <defs>
        <path id="DejaVuSans-32" d="M 1228 531 
L 3431 531 
L 3431 0 
L 469 0 
L 469 531 
Q 828 903 1448 1529 
Q 2069 2156 2228 2338 
Q 2531 2678 2651 2914 
Q 2772 3150 2772 3378 
Q 2772 3750 2511 3984 
Q 2250 4219 1831 4219 
Q 1534 4219 1204 4116 
Q 875 4013 500 3803 
L 500 4441 
Q 881 4594 1212 4672 
Q 1544 4750 1819 4750 
Q 2544 4750 2975 4387 
Q 3406 4025 3406 3419 
Q 3406 3131 3298 2873 
Q 3191 2616 2906 2266 
Q 2828 2175 2409 1742 
Q 1991 1309 1228 531 
z
" transform="scale(0.015625)"/>
       </defs>
       <use xlink:href="#DejaVuSans-32"/>
       <use xlink:href="#DejaVuSans-30" x="63.623047"/>
       <use xlink:href="#DejaVuSans-30" x="127.246094"/>
       <use xlink:href="#DejaVuSans-30" x="190.869141"/>
      </g>
     </g>
    </g>
    <g id="text_11">
     <!-- fit_time -->
     <g transform="translate(14.798437 103.660328) rotate(-90) scale(0.1 -0.1)">
      <use xlink:href="#DejaVuSans-66"/>
      <use xlink:href="#DejaVuSans-69" x="35.205078"/>
      <use xlink:href="#DejaVuSans-74" x="62.988281"/>
      <use xlink:href="#DejaVuSans-5f" x="102.197266"/>
      <use xlink:href="#DejaVuSans-74" x="152.197266"/>
      <use xlink:href="#DejaVuSans-69" x="191.40625"/>
      <use xlink:href="#DejaVuSans-6d" x="219.189453"/>
      <use xlink:href="#DejaVuSans-65" x="316.601562"/>
     </g>
    </g>
   </g>
   <g id="line2d_10">
    <path d="M 59.409112 140.399446 
L 59.409112 140.439629 
" clip-path="url(#p4b49a40d8f)" style="fill: none; stroke: #3d3d3d; stroke-width: 1.5; stroke-linecap: square"/>
   </g>
   <g id="line2d_11">
    <path d="M 59.409112 140.326213 
L 59.409112 140.308063 
" clip-path="url(#p4b49a40d8f)" style="fill: none; stroke: #3d3d3d; stroke-width: 1.5; stroke-linecap: square"/>
   </g>
   <g id="line2d_12">
    <path d="M 56.56571 140.439629 
L 62.252514 140.439629 
" clip-path="url(#p4b49a40d8f)" style="fill: none; stroke: #3d3d3d; stroke-width: 1.5; stroke-linecap: square"/>
   </g>
   <g id="line2d_13">
    <path d="M 56.56571 140.308063 
L 62.252514 140.308063 
" clip-path="url(#p4b49a40d8f)" style="fill: none; stroke: #3d3d3d; stroke-width: 1.5; stroke-linecap: square"/>
   </g>
   <g id="line2d_14"/>
   <g id="line2d_15">
    <path d="M 71.014836 76.219476 
L 71.014836 76.219476 
" clip-path="url(#p4b49a40d8f)" style="fill: none; stroke: #3d3d3d; stroke-width: 1.5; stroke-linecap: square"/>
   </g>
   <g id="line2d_16">
    <path d="M 71.014836 75.219342 
L 71.014836 75.219342 
" clip-path="url(#p4b49a40d8f)" style="fill: none; stroke: #3d3d3d; stroke-width: 1.5; stroke-linecap: square"/>
   </g>
   <g id="line2d_17">
    <path d="M 68.171433 76.219476 
L 73.858238 76.219476 
" clip-path="url(#p4b49a40d8f)" style="fill: none; stroke: #3d3d3d; stroke-width: 1.5; stroke-linecap: square"/>
   </g>
   <g id="line2d_18">
    <path d="M 68.171433 75.219342 
L 73.858238 75.219342 
" clip-path="url(#p4b49a40d8f)" style="fill: none; stroke: #3d3d3d; stroke-width: 1.5; stroke-linecap: square"/>
   </g>
   <g id="line2d_19">
    <defs>
     <path id="m2bb7ce7b81" d="M -0 3.535534 
L 2.12132 0 
L -0 -3.535534 
L -2.12132 -0 
z
" style="stroke: #3d3d3d; stroke-linejoin: miter"/>
    </defs>
    <g clip-path="url(#p4b49a40d8f)">
     <use xlink:href="#m2bb7ce7b81" x="71.014836" y="78.638666" style="fill: #3d3d3d; stroke: #3d3d3d; stroke-linejoin: miter"/>
     <use xlink:href="#m2bb7ce7b81" x="71.014836" y="68.155703" style="fill: #3d3d3d; stroke: #3d3d3d; stroke-linejoin: miter"/>
    </g>
   </g>
   <g id="line2d_20">
    <path d="M 82.620559 142.209148 
L 82.620559 142.235241 
" clip-path="url(#p4b49a40d8f)" style="fill: none; stroke: #3d3d3d; stroke-width: 1.5; stroke-linecap: square"/>
   </g>
   <g id="line2d_21">
    <path d="M 82.620559 142.158527 
L 82.620559 142.153799 
" clip-path="url(#p4b49a40d8f)" style="fill: none; stroke: #3d3d3d; stroke-width: 1.5; stroke-linecap: square"/>
   </g>
   <g id="line2d_22">
    <path d="M 79.777157 142.235241 
L 85.463962 142.235241 
" clip-path="url(#p4b49a40d8f)" style="fill: none; stroke: #3d3d3d; stroke-width: 1.5; stroke-linecap: square"/>
   </g>
   <g id="line2d_23">
    <path d="M 79.777157 142.153799 
L 85.463962 142.153799 
" clip-path="url(#p4b49a40d8f)" style="fill: none; stroke: #3d3d3d; stroke-width: 1.5; stroke-linecap: square"/>
   </g>
   <g id="line2d_24"/>
   <g id="line2d_25">
    <path d="M 94.226283 83.000863 
L 94.226283 84.464941 
" clip-path="url(#p4b49a40d8f)" style="fill: none; stroke: #3d3d3d; stroke-width: 1.5; stroke-linecap: square"/>
   </g>
   <g id="line2d_26">
    <path d="M 94.226283 77.913704 
L 94.226283 72.866105 
" clip-path="url(#p4b49a40d8f)" style="fill: none; stroke: #3d3d3d; stroke-width: 1.5; stroke-linecap: square"/>
   </g>
   <g id="line2d_27">
    <path d="M 91.382881 84.464941 
L 97.069685 84.464941 
" clip-path="url(#p4b49a40d8f)" style="fill: none; stroke: #3d3d3d; stroke-width: 1.5; stroke-linecap: square"/>
   </g>
   <g id="line2d_28">
    <path d="M 91.382881 72.866105 
L 97.069685 72.866105 
" clip-path="url(#p4b49a40d8f)" style="fill: none; stroke: #3d3d3d; stroke-width: 1.5; stroke-linecap: square"/>
   </g>
   <g id="line2d_29"/>
   <g id="line2d_30">
    <path d="M 117.43773 140.04383 
L 117.43773 140.049542 
" clip-path="url(#p4b49a40d8f)" style="fill: none; stroke: #3d3d3d; stroke-width: 1.5; stroke-linecap: square"/>
   </g>
   <g id="line2d_31">
    <path d="M 117.43773 139.903659 
L 117.43773 139.892477 
" clip-path="url(#p4b49a40d8f)" style="fill: none; stroke: #3d3d3d; stroke-width: 1.5; stroke-linecap: square"/>
   </g>
   <g id="line2d_32">
    <path d="M 114.594328 140.049542 
L 120.281133 140.049542 
" clip-path="url(#p4b49a40d8f)" style="fill: none; stroke: #3d3d3d; stroke-width: 1.5; stroke-linecap: square"/>
   </g>
   <g id="line2d_33">
    <path d="M 114.594328 139.892477 
L 120.281133 139.892477 
" clip-path="url(#p4b49a40d8f)" style="fill: none; stroke: #3d3d3d; stroke-width: 1.5; stroke-linecap: square"/>
   </g>
   <g id="line2d_34"/>
   <g id="line2d_35">
    <path d="M 129.043454 73.098262 
L 129.043454 73.749258 
" clip-path="url(#p4b49a40d8f)" style="fill: none; stroke: #3d3d3d; stroke-width: 1.5; stroke-linecap: square"/>
   </g>
   <g id="line2d_36">
    <path d="M 129.043454 70.950641 
L 129.043454 70.950641 
" clip-path="url(#p4b49a40d8f)" style="fill: none; stroke: #3d3d3d; stroke-width: 1.5; stroke-linecap: square"/>
   </g>
   <g id="line2d_37">
    <path d="M 126.200052 73.749258 
L 131.886856 73.749258 
" clip-path="url(#p4b49a40d8f)" style="fill: none; stroke: #3d3d3d; stroke-width: 1.5; stroke-linecap: square"/>
   </g>
   <g id="line2d_38">
    <path d="M 126.200052 70.950641 
L 131.886856 70.950641 
" clip-path="url(#p4b49a40d8f)" style="fill: none; stroke: #3d3d3d; stroke-width: 1.5; stroke-linecap: square"/>
   </g>
   <g id="line2d_39">
    <g clip-path="url(#p4b49a40d8f)">
     <use xlink:href="#m2bb7ce7b81" x="129.043454" y="61.324611" style="fill: #3d3d3d; stroke: #3d3d3d; stroke-linejoin: miter"/>
    </g>
   </g>
   <g id="line2d_40">
    <path d="M 140.649178 142.001107 
L 140.649178 142.042292 
" clip-path="url(#p4b49a40d8f)" style="fill: none; stroke: #3d3d3d; stroke-width: 1.5; stroke-linecap: square"/>
   </g>
   <g id="line2d_41">
    <path d="M 140.649178 141.959549 
L 140.649178 141.946084 
" clip-path="url(#p4b49a40d8f)" style="fill: none; stroke: #3d3d3d; stroke-width: 1.5; stroke-linecap: square"/>
   </g>
   <g id="line2d_42">
    <path d="M 137.805775 142.042292 
L 143.49258 142.042292 
" clip-path="url(#p4b49a40d8f)" style="fill: none; stroke: #3d3d3d; stroke-width: 1.5; stroke-linecap: square"/>
   </g>
   <g id="line2d_43">
    <path d="M 137.805775 141.946084 
L 143.49258 141.946084 
" clip-path="url(#p4b49a40d8f)" style="fill: none; stroke: #3d3d3d; stroke-width: 1.5; stroke-linecap: square"/>
   </g>
   <g id="line2d_44"/>
   <g id="line2d_45">
    <path d="M 152.254901 78.844926 
L 152.254901 79.450075 
" clip-path="url(#p4b49a40d8f)" style="fill: none; stroke: #3d3d3d; stroke-width: 1.5; stroke-linecap: square"/>
   </g>
   <g id="line2d_46">
    <path d="M 152.254901 74.431251 
L 152.254901 68.331154 
" clip-path="url(#p4b49a40d8f)" style="fill: none; stroke: #3d3d3d; stroke-width: 1.5; stroke-linecap: square"/>
   </g>
   <g id="line2d_47">
    <path d="M 149.411499 79.450075 
L 155.098304 79.450075 
" clip-path="url(#p4b49a40d8f)" style="fill: none; stroke: #3d3d3d; stroke-width: 1.5; stroke-linecap: square"/>
   </g>
   <g id="line2d_48">
    <path d="M 149.411499 68.331154 
L 155.098304 68.331154 
" clip-path="url(#p4b49a40d8f)" style="fill: none; stroke: #3d3d3d; stroke-width: 1.5; stroke-linecap: square"/>
   </g>
   <g id="line2d_49"/>
   <g id="line2d_50">
    <path d="M 175.466349 139.851637 
L 175.466349 139.892321 
" clip-path="url(#p4b49a40d8f)" style="fill: none; stroke: #3d3d3d; stroke-width: 1.5; stroke-linecap: square"/>
   </g>
   <g id="line2d_51">
    <path d="M 175.466349 139.715317 
L 175.466349 139.702787 
" clip-path="url(#p4b49a40d8f)" style="fill: none; stroke: #3d3d3d; stroke-width: 1.5; stroke-linecap: square"/>
   </g>
   <g id="line2d_52">
    <path d="M 172.622946 139.892321 
L 178.309751 139.892321 
" clip-path="url(#p4b49a40d8f)" style="fill: none; stroke: #3d3d3d; stroke-width: 1.5; stroke-linecap: square"/>
   </g>
   <g id="line2d_53">
    <path d="M 172.622946 139.702787 
L 178.309751 139.702787 
" clip-path="url(#p4b49a40d8f)" style="fill: none; stroke: #3d3d3d; stroke-width: 1.5; stroke-linecap: square"/>
   </g>
   <g id="line2d_54"/>
   <g id="line2d_55">
    <path d="M 187.072072 72.415541 
L 187.072072 72.907907 
" clip-path="url(#p4b49a40d8f)" style="fill: none; stroke: #3d3d3d; stroke-width: 1.5; stroke-linecap: square"/>
   </g>
   <g id="line2d_56">
    <path d="M 187.072072 68.971741 
L 187.072072 68.971741 
" clip-path="url(#p4b49a40d8f)" style="fill: none; stroke: #3d3d3d; stroke-width: 1.5; stroke-linecap: square"/>
   </g>
   <g id="line2d_57">
    <path d="M 184.22867 72.907907 
L 189.915475 72.907907 
" clip-path="url(#p4b49a40d8f)" style="fill: none; stroke: #3d3d3d; stroke-width: 1.5; stroke-linecap: square"/>
   </g>
   <g id="line2d_58">
    <path d="M 184.22867 68.971741 
L 189.915475 68.971741 
" clip-path="url(#p4b49a40d8f)" style="fill: none; stroke: #3d3d3d; stroke-width: 1.5; stroke-linecap: square"/>
   </g>
   <g id="line2d_59">
    <g clip-path="url(#p4b49a40d8f)">
     <use xlink:href="#m2bb7ce7b81" x="187.072072" y="61.85238" style="fill: #3d3d3d; stroke: #3d3d3d; stroke-linejoin: miter"/>
    </g>
   </g>
   <g id="line2d_60">
    <path d="M 198.677796 141.933039 
L 198.677796 141.936387 
" clip-path="url(#p4b49a40d8f)" style="fill: none; stroke: #3d3d3d; stroke-width: 1.5; stroke-linecap: square"/>
   </g>
   <g id="line2d_61">
    <path d="M 198.677796 141.877385 
L 198.677796 141.867995 
" clip-path="url(#p4b49a40d8f)" style="fill: none; stroke: #3d3d3d; stroke-width: 1.5; stroke-linecap: square"/>
   </g>
   <g id="line2d_62">
    <path d="M 195.834394 141.936387 
L 201.521198 141.936387 
" clip-path="url(#p4b49a40d8f)" style="fill: none; stroke: #3d3d3d; stroke-width: 1.5; stroke-linecap: square"/>
   </g>
   <g id="line2d_63">
    <path d="M 195.834394 141.867995 
L 201.521198 141.867995 
" clip-path="url(#p4b49a40d8f)" style="fill: none; stroke: #3d3d3d; stroke-width: 1.5; stroke-linecap: square"/>
   </g>
   <g id="line2d_64"/>
   <g id="line2d_65">
    <path d="M 210.28352 78.616757 
L 210.28352 79.864134 
" clip-path="url(#p4b49a40d8f)" style="fill: none; stroke: #3d3d3d; stroke-width: 1.5; stroke-linecap: square"/>
   </g>
   <g id="line2d_66">
    <path d="M 210.28352 72.154274 
L 210.28352 69.823414 
" clip-path="url(#p4b49a40d8f)" style="fill: none; stroke: #3d3d3d; stroke-width: 1.5; stroke-linecap: square"/>
   </g>
   <g id="line2d_67">
    <path d="M 207.440117 79.864134 
L 213.126922 79.864134 
" clip-path="url(#p4b49a40d8f)" style="fill: none; stroke: #3d3d3d; stroke-width: 1.5; stroke-linecap: square"/>
   </g>
   <g id="line2d_68">
    <path d="M 207.440117 69.823414 
L 213.126922 69.823414 
" clip-path="url(#p4b49a40d8f)" style="fill: none; stroke: #3d3d3d; stroke-width: 1.5; stroke-linecap: square"/>
   </g>
   <g id="line2d_69"/>
   <g id="line2d_70">
    <path d="M 233.494967 138.97354 
L 233.494967 139.001356 
" clip-path="url(#p4b49a40d8f)" style="fill: none; stroke: #3d3d3d; stroke-width: 1.5; stroke-linecap: square"/>
   </g>
   <g id="line2d_71">
    <path d="M 233.494967 138.877185 
L 233.494967 138.834855 
" clip-path="url(#p4b49a40d8f)" style="fill: none; stroke: #3d3d3d; stroke-width: 1.5; stroke-linecap: square"/>
   </g>
   <g id="line2d_72">
    <path d="M 230.651565 139.001356 
L 236.338369 139.001356 
" clip-path="url(#p4b49a40d8f)" style="fill: none; stroke: #3d3d3d; stroke-width: 1.5; stroke-linecap: square"/>
   </g>
   <g id="line2d_73">
    <path d="M 230.651565 138.834855 
L 236.338369 138.834855 
" clip-path="url(#p4b49a40d8f)" style="fill: none; stroke: #3d3d3d; stroke-width: 1.5; stroke-linecap: square"/>
   </g>
   <g id="line2d_74"/>
   <g id="line2d_75">
    <path d="M 245.100691 46.197622 
L 245.100691 47.392904 
" clip-path="url(#p4b49a40d8f)" style="fill: none; stroke: #3d3d3d; stroke-width: 1.5; stroke-linecap: square"/>
   </g>
   <g id="line2d_76">
    <path d="M 245.100691 43.528911 
L 245.100691 43.108202 
" clip-path="url(#p4b49a40d8f)" style="fill: none; stroke: #3d3d3d; stroke-width: 1.5; stroke-linecap: square"/>
   </g>
   <g id="line2d_77">
    <path d="M 242.257288 47.392904 
L 247.944093 47.392904 
" clip-path="url(#p4b49a40d8f)" style="fill: none; stroke: #3d3d3d; stroke-width: 1.5; stroke-linecap: square"/>
   </g>
   <g id="line2d_78">
    <path d="M 242.257288 43.108202 
L 247.944093 43.108202 
" clip-path="url(#p4b49a40d8f)" style="fill: none; stroke: #3d3d3d; stroke-width: 1.5; stroke-linecap: square"/>
   </g>
   <g id="line2d_79"/>
   <g id="line2d_80">
    <path d="M 256.706414 141.466383 
L 256.706414 141.470927 
" clip-path="url(#p4b49a40d8f)" style="fill: none; stroke: #3d3d3d; stroke-width: 1.5; stroke-linecap: square"/>
   </g>
   <g id="line2d_81">
    <path d="M 256.706414 141.312205 
L 256.706414 141.299916 
" clip-path="url(#p4b49a40d8f)" style="fill: none; stroke: #3d3d3d; stroke-width: 1.5; stroke-linecap: square"/>
   </g>
   <g id="line2d_82">
    <path d="M 253.863012 141.470927 
L 259.549817 141.470927 
" clip-path="url(#p4b49a40d8f)" style="fill: none; stroke: #3d3d3d; stroke-width: 1.5; stroke-linecap: square"/>
   </g>
   <g id="line2d_83">
    <path d="M 253.863012 141.299916 
L 259.549817 141.299916 
" clip-path="url(#p4b49a40d8f)" style="fill: none; stroke: #3d3d3d; stroke-width: 1.5; stroke-linecap: square"/>
   </g>
   <g id="line2d_84"/>
   <g id="line2d_85">
    <path d="M 268.312138 74.476066 
L 268.312138 76.076582 
" clip-path="url(#p4b49a40d8f)" style="fill: none; stroke: #3d3d3d; stroke-width: 1.5; stroke-linecap: square"/>
   </g>
   <g id="line2d_86">
    <path d="M 268.312138 73.022469 
L 268.312138 73.022469 
" clip-path="url(#p4b49a40d8f)" style="fill: none; stroke: #3d3d3d; stroke-width: 1.5; stroke-linecap: square"/>
   </g>
   <g id="line2d_87">
    <path d="M 265.468736 76.076582 
L 271.15554 76.076582 
" clip-path="url(#p4b49a40d8f)" style="fill: none; stroke: #3d3d3d; stroke-width: 1.5; stroke-linecap: square"/>
   </g>
   <g id="line2d_88">
    <path d="M 265.468736 73.022469 
L 271.15554 73.022469 
" clip-path="url(#p4b49a40d8f)" style="fill: none; stroke: #3d3d3d; stroke-width: 1.5; stroke-linecap: square"/>
   </g>
   <g id="line2d_89">
    <g clip-path="url(#p4b49a40d8f)">
     <use xlink:href="#m2bb7ce7b81" x="268.312138" y="69.462093" style="fill: #3d3d3d; stroke: #3d3d3d; stroke-linejoin: miter"/>
    </g>
   </g>
   <g id="line2d_90">
    <path d="M 71.014836 59.974314 
L 71.014836 57.793519 
L 82.620559 57.793519 
L 82.620559 59.974314 
" clip-path="url(#p4b49a40d8f)" style="fill: none; stroke: #333333; stroke-width: 1.5; stroke-linecap: square"/>
   </g>
   <g id="line2d_91">
    <path d="M 129.043454 53.143221 
L 129.043454 50.962427 
L 140.649178 50.962427 
L 140.649178 53.143221 
" clip-path="url(#p4b49a40d8f)" style="fill: none; stroke: #333333; stroke-width: 1.5; stroke-linecap: square"/>
   </g>
   <g id="line2d_92">
    <path d="M 187.072072 53.670991 
L 187.072072 51.490196 
L 198.677796 51.490196 
L 198.677796 53.670991 
" clip-path="url(#p4b49a40d8f)" style="fill: none; stroke: #333333; stroke-width: 1.5; stroke-linecap: square"/>
   </g>
   <g id="line2d_93">
    <path d="M 245.100691 36.565817 
L 245.100691 34.385022 
L 256.706414 34.385022 
L 256.706414 36.565817 
" clip-path="url(#p4b49a40d8f)" style="fill: none; stroke: #333333; stroke-width: 1.5; stroke-linecap: square"/>
   </g>
   <g id="line2d_94">
    <path d="M 53.722307 140.340018 
L 65.095916 140.340018 
" clip-path="url(#p4b49a40d8f)" style="fill: none; stroke: #3d3d3d; stroke-width: 1.5; stroke-linecap: square"/>
   </g>
   <g id="line2d_95">
    <path d="M 65.328031 75.845649 
L 76.70164 75.845649 
" clip-path="url(#p4b49a40d8f)" style="fill: none; stroke: #3d3d3d; stroke-width: 1.5; stroke-linecap: square"/>
   </g>
   <g id="line2d_96">
    <path d="M 76.933755 142.193158 
L 88.307364 142.193158 
" clip-path="url(#p4b49a40d8f)" style="fill: none; stroke: #3d3d3d; stroke-width: 1.5; stroke-linecap: square"/>
   </g>
   <g id="line2d_97">
    <path d="M 88.539478 82.412198 
L 99.913087 82.412198 
" clip-path="url(#p4b49a40d8f)" style="fill: none; stroke: #3d3d3d; stroke-width: 1.5; stroke-linecap: square"/>
   </g>
   <g id="line2d_98">
    <path d="M 111.750926 139.917441 
L 123.124535 139.917441 
" clip-path="url(#p4b49a40d8f)" style="fill: none; stroke: #3d3d3d; stroke-width: 1.5; stroke-linecap: square"/>
   </g>
   <g id="line2d_99">
    <path d="M 123.356649 72.825224 
L 134.730259 72.825224 
" clip-path="url(#p4b49a40d8f)" style="fill: none; stroke: #3d3d3d; stroke-width: 1.5; stroke-linecap: square"/>
   </g>
   <g id="line2d_100">
    <path d="M 134.962373 141.968534 
L 146.335982 141.968534 
" clip-path="url(#p4b49a40d8f)" style="fill: none; stroke: #3d3d3d; stroke-width: 1.5; stroke-linecap: square"/>
   </g>
   <g id="line2d_101">
    <path d="M 146.568097 76.641697 
L 157.941706 76.641697 
" clip-path="url(#p4b49a40d8f)" style="fill: none; stroke: #3d3d3d; stroke-width: 1.5; stroke-linecap: square"/>
   </g>
   <g id="line2d_102">
    <path d="M 169.779544 139.791919 
L 181.153153 139.791919 
" clip-path="url(#p4b49a40d8f)" style="fill: none; stroke: #3d3d3d; stroke-width: 1.5; stroke-linecap: square"/>
   </g>
   <g id="line2d_103">
    <path d="M 181.385268 70.129213 
L 192.758877 70.129213 
" clip-path="url(#p4b49a40d8f)" style="fill: none; stroke: #3d3d3d; stroke-width: 1.5; stroke-linecap: square"/>
   </g>
   <g id="line2d_104">
    <path d="M 192.990991 141.879102 
L 204.364601 141.879102 
" clip-path="url(#p4b49a40d8f)" style="fill: none; stroke: #3d3d3d; stroke-width: 1.5; stroke-linecap: square"/>
   </g>
   <g id="line2d_105">
    <path d="M 204.596715 75.804517 
L 215.970324 75.804517 
" clip-path="url(#p4b49a40d8f)" style="fill: none; stroke: #3d3d3d; stroke-width: 1.5; stroke-linecap: square"/>
   </g>
   <g id="line2d_106">
    <path d="M 227.808162 138.931596 
L 239.181772 138.931596 
" clip-path="url(#p4b49a40d8f)" style="fill: none; stroke: #3d3d3d; stroke-width: 1.5; stroke-linecap: square"/>
   </g>
   <g id="line2d_107">
    <path d="M 239.413886 45.450612 
L 250.787495 45.450612 
" clip-path="url(#p4b49a40d8f)" style="fill: none; stroke: #3d3d3d; stroke-width: 1.5; stroke-linecap: square"/>
   </g>
   <g id="line2d_108">
    <path d="M 251.01961 141.393199 
L 262.393219 141.393199 
" clip-path="url(#p4b49a40d8f)" style="fill: none; stroke: #3d3d3d; stroke-width: 1.5; stroke-linecap: square"/>
   </g>
   <g id="line2d_109">
    <path d="M 262.625334 74.124497 
L 273.998943 74.124497 
" clip-path="url(#p4b49a40d8f)" style="fill: none; stroke: #3d3d3d; stroke-width: 1.5; stroke-linecap: square"/>
   </g>
   <g id="patch_23">
    <path d="M 53.60625 147.191593 
L 53.60625 22.318125 
" style="fill: none; stroke: #000000; stroke-width: 0.8; stroke-linejoin: miter; stroke-linecap: square"/>
   </g>
   <g id="patch_24">
    <path d="M 274.115 147.191593 
L 274.115 22.318125 
" style="fill: none; stroke: #000000; stroke-width: 0.8; stroke-linejoin: miter; stroke-linecap: square"/>
   </g>
   <g id="patch_25">
    <path d="M 53.60625 147.191593 
L 274.115 147.191593 
" style="fill: none; stroke: #000000; stroke-width: 0.8; stroke-linejoin: miter; stroke-linecap: square"/>
   </g>
   <g id="patch_26">
    <path d="M 53.60625 22.318125 
L 274.115 22.318125 
" style="fill: none; stroke: #000000; stroke-width: 0.8; stroke-linejoin: miter; stroke-linecap: square"/>
   </g>
   <g id="PathCollection_1">
    <defs>
     <path id="C0_0_6b657dd2b1" d="M 0 1.5 
C 0.397805 1.5 0.77937 1.341951 1.06066 1.06066 
C 1.341951 0.77937 1.5 0.397805 1.5 -0 
C 1.5 -0.397805 1.341951 -0.77937 1.06066 -1.06066 
C 0.77937 -1.341951 0.397805 -1.5 0 -1.5 
C -0.397805 -1.5 -0.77937 -1.341951 -1.06066 -1.06066 
C -1.341951 -0.77937 -1.5 -0.397805 -1.5 0 
C -1.5 0.397805 -1.341951 0.77937 -1.06066 1.06066 
C -0.77937 1.341951 -0.397805 1.5 0 1.5 
z
"/>
    </defs>
    <g clip-path="url(#p4b49a40d8f)">
     <use xlink:href="#C0_0_6b657dd2b1" x="59.808836" y="140.439629" style="fill: #262626"/>
    </g>
    <g clip-path="url(#p4b49a40d8f)">
     <use xlink:href="#C0_0_6b657dd2b1" x="59.747168" y="140.399446" style="fill: #262626"/>
    </g>
    <g clip-path="url(#p4b49a40d8f)">
     <use xlink:href="#C0_0_6b657dd2b1" x="59.801777" y="140.308063" style="fill: #262626"/>
    </g>
    <g clip-path="url(#p4b49a40d8f)">
     <use xlink:href="#C0_0_6b657dd2b1" x="58.746083" y="140.326213" style="fill: #262626"/>
    </g>
    <g clip-path="url(#p4b49a40d8f)">
     <use xlink:href="#C0_0_6b657dd2b1" x="58.512592" y="140.340018" style="fill: #262626"/>
    </g>
   </g>
   <g id="PathCollection_2">
    <defs>
     <path id="C1_0_af7ba5f954" d="M 0 1.5 
C 0.397805 1.5 0.77937 1.341951 1.06066 1.06066 
C 1.341951 0.77937 1.5 0.397805 1.5 -0 
C 1.5 -0.397805 1.341951 -0.77937 1.06066 -1.06066 
C 0.77937 -1.341951 0.397805 -1.5 0 -1.5 
C -0.397805 -1.5 -0.77937 -1.341951 -1.06066 -1.06066 
C -1.341951 -0.77937 -1.5 -0.397805 -1.5 0 
C -1.5 0.397805 -1.341951 0.77937 -1.06066 1.06066 
C -0.77937 1.341951 -0.397805 1.5 0 1.5 
z
"/>
    </defs>
    <g clip-path="url(#p4b49a40d8f)">
     <use xlink:href="#C1_0_af7ba5f954" x="70.746662" y="76.219476" style="fill: #191919"/>
    </g>
    <g clip-path="url(#p4b49a40d8f)">
     <use xlink:href="#C1_0_af7ba5f954" x="70.674923" y="78.638666" style="fill: #191919"/>
    </g>
    <g clip-path="url(#p4b49a40d8f)">
     <use xlink:href="#C1_0_af7ba5f954" x="71.666847" y="75.219342" style="fill: #191919"/>
    </g>
    <g clip-path="url(#p4b49a40d8f)">
     <use xlink:href="#C1_0_af7ba5f954" x="70.172131" y="75.845649" style="fill: #191919"/>
    </g>
    <g clip-path="url(#p4b49a40d8f)">
     <use xlink:href="#C1_0_af7ba5f954" x="69.879454" y="68.155703" style="fill: #191919"/>
    </g>
   </g>
   <g id="PathCollection_3">
    <defs>
     <path id="C2_0_3cb2c48dff" d="M 0 1.5 
C 0.397805 1.5 0.77937 1.341951 1.06066 1.06066 
C 1.341951 0.77937 1.5 0.397805 1.5 -0 
C 1.5 -0.397805 1.341951 -0.77937 1.06066 -1.06066 
C 0.77937 -1.341951 0.397805 -1.5 0 -1.5 
C -0.397805 -1.5 -0.77937 -1.341951 -1.06066 -1.06066 
C -1.341951 -0.77937 -1.5 -0.397805 -1.5 0 
C -1.5 0.397805 -1.341951 0.77937 -1.06066 1.06066 
C -0.77937 1.341951 -0.397805 1.5 0 1.5 
z
"/>
    </defs>
    <g clip-path="url(#p4b49a40d8f)">
     <use xlink:href="#C2_0_3cb2c48dff" x="83.356252" y="142.193158" style="fill: #0d0d0d"/>
    </g>
    <g clip-path="url(#p4b49a40d8f)">
     <use xlink:href="#C2_0_3cb2c48dff" x="81.726794" y="142.158527" style="fill: #0d0d0d"/>
    </g>
    <g clip-path="url(#p4b49a40d8f)">
     <use xlink:href="#C2_0_3cb2c48dff" x="83.329535" y="142.209148" style="fill: #0d0d0d"/>
    </g>
    <g clip-path="url(#p4b49a40d8f)">
     <use xlink:href="#C2_0_3cb2c48dff" x="82.286242" y="142.235241" style="fill: #0d0d0d"/>
    </g>
    <g clip-path="url(#p4b49a40d8f)">
     <use xlink:href="#C2_0_3cb2c48dff" x="81.943562" y="142.153799" style="fill: #0d0d0d"/>
    </g>
   </g>
   <g id="PathCollection_4">
    <defs>
     <path id="C3_0_62f6e20a0f" d="M 0 1.5 
C 0.397805 1.5 0.77937 1.341951 1.06066 1.06066 
C 1.341951 0.77937 1.5 0.397805 1.5 -0 
C 1.5 -0.397805 1.341951 -0.77937 1.06066 -1.06066 
C 0.77937 -1.341951 0.397805 -1.5 0 -1.5 
C -0.397805 -1.5 -0.77937 -1.341951 -1.06066 -1.06066 
C -1.341951 -0.77937 -1.5 -0.397805 -1.5 0 
C -1.5 0.397805 -1.341951 0.77937 -1.06066 1.06066 
C -0.77937 1.341951 -0.397805 1.5 0 1.5 
z
"/>
    </defs>
    <g clip-path="url(#p4b49a40d8f)">
     <use xlink:href="#C3_0_62f6e20a0f" x="94.615422" y="82.412198"/>
    </g>
    <g clip-path="url(#p4b49a40d8f)">
     <use xlink:href="#C3_0_62f6e20a0f" x="94.436954" y="77.913704"/>
    </g>
    <g clip-path="url(#p4b49a40d8f)">
     <use xlink:href="#C3_0_62f6e20a0f" x="94.088816" y="84.464941"/>
    </g>
    <g clip-path="url(#p4b49a40d8f)">
     <use xlink:href="#C3_0_62f6e20a0f" x="93.015187" y="83.000863"/>
    </g>
    <g clip-path="url(#p4b49a40d8f)">
     <use xlink:href="#C3_0_62f6e20a0f" x="94.067395" y="72.866105"/>
    </g>
   </g>
   <g id="PathCollection_5">
    <defs>
     <path id="C4_0_41028b2dac" d="M 0 1.5 
C 0.397805 1.5 0.77937 1.341951 1.06066 1.06066 
C 1.341951 0.77937 1.5 0.397805 1.5 -0 
C 1.5 -0.397805 1.341951 -0.77937 1.06066 -1.06066 
C 0.77937 -1.341951 0.397805 -1.5 0 -1.5 
C -0.397805 -1.5 -0.77937 -1.341951 -1.06066 -1.06066 
C -1.341951 -0.77937 -1.5 -0.397805 -1.5 0 
C -1.5 0.397805 -1.341951 0.77937 -1.06066 1.06066 
C -0.77937 1.341951 -0.397805 1.5 0 1.5 
z
"/>
    </defs>
    <g clip-path="url(#p4b49a40d8f)">
     <use xlink:href="#C4_0_41028b2dac" x="117.154731" y="140.04383" style="fill: #262626"/>
    </g>
    <g clip-path="url(#p4b49a40d8f)">
     <use xlink:href="#C4_0_41028b2dac" x="116.51034" y="140.049542" style="fill: #262626"/>
    </g>
    <g clip-path="url(#p4b49a40d8f)">
     <use xlink:href="#C4_0_41028b2dac" x="118.498314" y="139.903659" style="fill: #262626"/>
    </g>
    <g clip-path="url(#p4b49a40d8f)">
     <use xlink:href="#C4_0_41028b2dac" x="118.083393" y="139.892477" style="fill: #262626"/>
    </g>
    <g clip-path="url(#p4b49a40d8f)">
     <use xlink:href="#C4_0_41028b2dac" x="118.111482" y="139.917441" style="fill: #262626"/>
    </g>
   </g>
   <g id="PathCollection_6">
    <defs>
     <path id="C5_0_775b8f7e9e" d="M 0 1.5 
C 0.397805 1.5 0.77937 1.341951 1.06066 1.06066 
C 1.341951 0.77937 1.5 0.397805 1.5 -0 
C 1.5 -0.397805 1.341951 -0.77937 1.06066 -1.06066 
C 0.77937 -1.341951 0.397805 -1.5 0 -1.5 
C -0.397805 -1.5 -0.77937 -1.341951 -1.06066 -1.06066 
C -1.341951 -0.77937 -1.5 -0.397805 -1.5 0 
C -1.5 0.397805 -1.341951 0.77937 -1.06066 1.06066 
C -0.77937 1.341951 -0.397805 1.5 0 1.5 
z
"/>
    </defs>
    <g clip-path="url(#p4b49a40d8f)">
     <use xlink:href="#C5_0_775b8f7e9e" x="129.961049" y="73.749258" style="fill: #191919"/>
    </g>
    <g clip-path="url(#p4b49a40d8f)">
     <use xlink:href="#C5_0_775b8f7e9e" x="129.727442" y="73.098262" style="fill: #191919"/>
    </g>
    <g clip-path="url(#p4b49a40d8f)">
     <use xlink:href="#C5_0_775b8f7e9e" x="128.330147" y="72.825224" style="fill: #191919"/>
    </g>
    <g clip-path="url(#p4b49a40d8f)">
     <use xlink:href="#C5_0_775b8f7e9e" x="129.355699" y="70.950641" style="fill: #191919"/>
    </g>
    <g clip-path="url(#p4b49a40d8f)">
     <use xlink:href="#C5_0_775b8f7e9e" x="129.001073" y="61.324611" style="fill: #191919"/>
    </g>
   </g>
   <g id="PathCollection_7">
    <defs>
     <path id="C6_0_f463ef86a4" d="M 0 1.5 
C 0.397805 1.5 0.77937 1.341951 1.06066 1.06066 
C 1.341951 0.77937 1.5 0.397805 1.5 -0 
C 1.5 -0.397805 1.341951 -0.77937 1.06066 -1.06066 
C 0.77937 -1.341951 0.397805 -1.5 0 -1.5 
C -0.397805 -1.5 -0.77937 -1.341951 -1.06066 -1.06066 
C -1.341951 -0.77937 -1.5 -0.397805 -1.5 0 
C -1.5 0.397805 -1.341951 0.77937 -1.06066 1.06066 
C -0.77937 1.341951 -0.397805 1.5 0 1.5 
z
"/>
    </defs>
    <g clip-path="url(#p4b49a40d8f)">
     <use xlink:href="#C6_0_f463ef86a4" x="141.636347" y="142.042292" style="fill: #0d0d0d"/>
    </g>
    <g clip-path="url(#p4b49a40d8f)">
     <use xlink:href="#C6_0_f463ef86a4" x="140.401465" y="142.001107" style="fill: #0d0d0d"/>
    </g>
    <g clip-path="url(#p4b49a40d8f)">
     <use xlink:href="#C6_0_f463ef86a4" x="140.891119" y="141.946084" style="fill: #0d0d0d"/>
    </g>
    <g clip-path="url(#p4b49a40d8f)">
     <use xlink:href="#C6_0_f463ef86a4" x="141.842286" y="141.959549" style="fill: #0d0d0d"/>
    </g>
    <g clip-path="url(#p4b49a40d8f)">
     <use xlink:href="#C6_0_f463ef86a4" x="139.983101" y="141.968534" style="fill: #0d0d0d"/>
    </g>
   </g>
   <g id="PathCollection_8">
    <defs>
     <path id="C7_0_4f6c37bf1c" d="M 0 1.5 
C 0.397805 1.5 0.77937 1.341951 1.06066 1.06066 
C 1.341951 0.77937 1.5 0.397805 1.5 -0 
C 1.5 -0.397805 1.341951 -0.77937 1.06066 -1.06066 
C 0.77937 -1.341951 0.397805 -1.5 0 -1.5 
C -0.397805 -1.5 -0.77937 -1.341951 -1.06066 -1.06066 
C -1.341951 -0.77937 -1.5 -0.397805 -1.5 0 
C -1.5 0.397805 -1.341951 0.77937 -1.06066 1.06066 
C -0.77937 1.341951 -0.397805 1.5 0 1.5 
z
"/>
    </defs>
    <g clip-path="url(#p4b49a40d8f)">
     <use xlink:href="#C7_0_4f6c37bf1c" x="152.38518" y="76.641697"/>
    </g>
    <g clip-path="url(#p4b49a40d8f)">
     <use xlink:href="#C7_0_4f6c37bf1c" x="152.723687" y="74.431251"/>
    </g>
    <g clip-path="url(#p4b49a40d8f)">
     <use xlink:href="#C7_0_4f6c37bf1c" x="152.592369" y="79.450075"/>
    </g>
    <g clip-path="url(#p4b49a40d8f)">
     <use xlink:href="#C7_0_4f6c37bf1c" x="151.486663" y="78.844926"/>
    </g>
    <g clip-path="url(#p4b49a40d8f)">
     <use xlink:href="#C7_0_4f6c37bf1c" x="152.472419" y="68.331154"/>
    </g>
   </g>
   <g id="PathCollection_9">
    <defs>
     <path id="C8_0_60e33ac996" d="M 0 1.5 
C 0.397805 1.5 0.77937 1.341951 1.06066 1.06066 
C 1.341951 0.77937 1.5 0.397805 1.5 -0 
C 1.5 -0.397805 1.341951 -0.77937 1.06066 -1.06066 
C 0.77937 -1.341951 0.397805 -1.5 0 -1.5 
C -0.397805 -1.5 -0.77937 -1.341951 -1.06066 -1.06066 
C -1.341951 -0.77937 -1.5 -0.397805 -1.5 0 
C -1.5 0.397805 -1.341951 0.77937 -1.06066 1.06066 
C -0.77937 1.341951 -0.397805 1.5 0 1.5 
z
"/>
    </defs>
    <g clip-path="url(#p4b49a40d8f)">
     <use xlink:href="#C8_0_60e33ac996" x="175.691481" y="139.892321" style="fill: #262626"/>
    </g>
    <g clip-path="url(#p4b49a40d8f)">
     <use xlink:href="#C8_0_60e33ac996" x="175.622163" y="139.851637" style="fill: #262626"/>
    </g>
    <g clip-path="url(#p4b49a40d8f)">
     <use xlink:href="#C8_0_60e33ac996" x="175.819831" y="139.791919" style="fill: #262626"/>
    </g>
    <g clip-path="url(#p4b49a40d8f)">
     <use xlink:href="#C8_0_60e33ac996" x="175.52365" y="139.715317" style="fill: #262626"/>
    </g>
    <g clip-path="url(#p4b49a40d8f)">
     <use xlink:href="#C8_0_60e33ac996" x="175.15986" y="139.702787" style="fill: #262626"/>
    </g>
   </g>
   <g id="PathCollection_10">
    <defs>
     <path id="C9_0_b93fdcef5c" d="M 0 1.5 
C 0.397805 1.5 0.77937 1.341951 1.06066 1.06066 
C 1.341951 0.77937 1.5 0.397805 1.5 -0 
C 1.5 -0.397805 1.341951 -0.77937 1.06066 -1.06066 
C 0.77937 -1.341951 0.397805 -1.5 0 -1.5 
C -0.397805 -1.5 -0.77937 -1.341951 -1.06066 -1.06066 
C -1.341951 -0.77937 -1.5 -0.397805 -1.5 0 
C -1.5 0.397805 -1.341951 0.77937 -1.06066 1.06066 
C -0.77937 1.341951 -0.397805 1.5 0 1.5 
z
"/>
    </defs>
    <g clip-path="url(#p4b49a40d8f)">
     <use xlink:href="#C9_0_b93fdcef5c" x="186.44953" y="72.907907" style="fill: #191919"/>
    </g>
    <g clip-path="url(#p4b49a40d8f)">
     <use xlink:href="#C9_0_b93fdcef5c" x="186.103029" y="68.971741" style="fill: #191919"/>
    </g>
    <g clip-path="url(#p4b49a40d8f)">
     <use xlink:href="#C9_0_b93fdcef5c" x="188.028727" y="70.129213" style="fill: #191919"/>
    </g>
    <g clip-path="url(#p4b49a40d8f)">
     <use xlink:href="#C9_0_b93fdcef5c" x="188.012582" y="72.415541" style="fill: #191919"/>
    </g>
    <g clip-path="url(#p4b49a40d8f)">
     <use xlink:href="#C9_0_b93fdcef5c" x="188.462701" y="61.85238" style="fill: #191919"/>
    </g>
   </g>
   <g id="PathCollection_11">
    <defs>
     <path id="Ca_0_95e0929b32" d="M 0 1.5 
C 0.397805 1.5 0.77937 1.341951 1.06066 1.06066 
C 1.341951 0.77937 1.5 0.397805 1.5 -0 
C 1.5 -0.397805 1.341951 -0.77937 1.06066 -1.06066 
C 0.77937 -1.341951 0.397805 -1.5 0 -1.5 
C -0.397805 -1.5 -0.77937 -1.341951 -1.06066 -1.06066 
C -1.341951 -0.77937 -1.5 -0.397805 -1.5 0 
C -1.5 0.397805 -1.341951 0.77937 -1.06066 1.06066 
C -0.77937 1.341951 -0.397805 1.5 0 1.5 
z
"/>
    </defs>
    <g clip-path="url(#p4b49a40d8f)">
     <use xlink:href="#Ca_0_95e0929b32" x="197.776825" y="141.936387" style="fill: #0d0d0d"/>
    </g>
    <g clip-path="url(#p4b49a40d8f)">
     <use xlink:href="#Ca_0_95e0929b32" x="199.787417" y="141.933039" style="fill: #0d0d0d"/>
    </g>
    <g clip-path="url(#p4b49a40d8f)">
     <use xlink:href="#Ca_0_95e0929b32" x="199.269463" y="141.879102" style="fill: #0d0d0d"/>
    </g>
    <g clip-path="url(#p4b49a40d8f)">
     <use xlink:href="#Ca_0_95e0929b32" x="198.339158" y="141.877385" style="fill: #0d0d0d"/>
    </g>
    <g clip-path="url(#p4b49a40d8f)">
     <use xlink:href="#Ca_0_95e0929b32" x="198.268221" y="141.867995" style="fill: #0d0d0d"/>
    </g>
   </g>
   <g id="PathCollection_12">
    <defs>
     <path id="Cb_0_c8e0678a9f" d="M 0 1.5 
C 0.397805 1.5 0.77937 1.341951 1.06066 1.06066 
C 1.341951 0.77937 1.5 0.397805 1.5 -0 
C 1.5 -0.397805 1.341951 -0.77937 1.06066 -1.06066 
C 0.77937 -1.341951 0.397805 -1.5 0 -1.5 
C -0.397805 -1.5 -0.77937 -1.341951 -1.06066 -1.06066 
C -1.341951 -0.77937 -1.5 -0.397805 -1.5 0 
C -1.5 0.397805 -1.341951 0.77937 -1.06066 1.06066 
C -0.77937 1.341951 -0.397805 1.5 0 1.5 
z
"/>
    </defs>
    <g clip-path="url(#p4b49a40d8f)">
     <use xlink:href="#Cb_0_c8e0678a9f" x="211.389565" y="78.616757"/>
    </g>
    <g clip-path="url(#p4b49a40d8f)">
     <use xlink:href="#Cb_0_c8e0678a9f" x="210.363983" y="75.804517"/>
    </g>
    <g clip-path="url(#p4b49a40d8f)">
     <use xlink:href="#Cb_0_c8e0678a9f" x="210.817429" y="79.864134"/>
    </g>
    <g clip-path="url(#p4b49a40d8f)">
     <use xlink:href="#Cb_0_c8e0678a9f" x="209.366496" y="69.823414"/>
    </g>
    <g clip-path="url(#p4b49a40d8f)">
     <use xlink:href="#Cb_0_c8e0678a9f" x="211.663257" y="72.154274"/>
    </g>
   </g>
   <g id="PathCollection_13">
    <defs>
     <path id="Cc_0_9fecf9a4aa" d="M 0 1.5 
C 0.397805 1.5 0.77937 1.341951 1.06066 1.06066 
C 1.341951 0.77937 1.5 0.397805 1.5 -0 
C 1.5 -0.397805 1.341951 -0.77937 1.06066 -1.06066 
C 0.77937 -1.341951 0.397805 -1.5 0 -1.5 
C -0.397805 -1.5 -0.77937 -1.341951 -1.06066 -1.06066 
C -1.341951 -0.77937 -1.5 -0.397805 -1.5 0 
C -1.5 0.397805 -1.341951 0.77937 -1.06066 1.06066 
C -0.77937 1.341951 -0.397805 1.5 0 1.5 
z
"/>
    </defs>
    <g clip-path="url(#p4b49a40d8f)">
     <use xlink:href="#Cc_0_9fecf9a4aa" x="233.530753" y="138.97354" style="fill: #262626"/>
    </g>
    <g clip-path="url(#p4b49a40d8f)">
     <use xlink:href="#Cc_0_9fecf9a4aa" x="234.023215" y="139.001356" style="fill: #262626"/>
    </g>
    <g clip-path="url(#p4b49a40d8f)">
     <use xlink:href="#Cc_0_9fecf9a4aa" x="233.079359" y="138.877185" style="fill: #262626"/>
    </g>
    <g clip-path="url(#p4b49a40d8f)">
     <use xlink:href="#Cc_0_9fecf9a4aa" x="233.848137" y="138.931596" style="fill: #262626"/>
    </g>
    <g clip-path="url(#p4b49a40d8f)">
     <use xlink:href="#Cc_0_9fecf9a4aa" x="232.54593" y="138.834855" style="fill: #262626"/>
    </g>
   </g>
   <g id="PathCollection_14">
    <defs>
     <path id="Cd_0_a33d9a1006" d="M 0 1.5 
C 0.397805 1.5 0.77937 1.341951 1.06066 1.06066 
C 1.341951 0.77937 1.5 0.397805 1.5 -0 
C 1.5 -0.397805 1.341951 -0.77937 1.06066 -1.06066 
C 0.77937 -1.341951 0.397805 -1.5 0 -1.5 
C -0.397805 -1.5 -0.77937 -1.341951 -1.06066 -1.06066 
C -1.341951 -0.77937 -1.5 -0.397805 -1.5 0 
C -1.5 0.397805 -1.341951 0.77937 -1.06066 1.06066 
C -0.77937 1.341951 -0.397805 1.5 0 1.5 
z
"/>
    </defs>
    <g clip-path="url(#p4b49a40d8f)">
     <use xlink:href="#Cd_0_a33d9a1006" x="243.848998" y="46.197622" style="fill: #191919"/>
    </g>
    <g clip-path="url(#p4b49a40d8f)">
     <use xlink:href="#Cd_0_a33d9a1006" x="244.150962" y="47.392904" style="fill: #191919"/>
    </g>
    <g clip-path="url(#p4b49a40d8f)">
     <use xlink:href="#Cd_0_a33d9a1006" x="243.874947" y="43.108202" style="fill: #191919"/>
    </g>
    <g clip-path="url(#p4b49a40d8f)">
     <use xlink:href="#Cd_0_a33d9a1006" x="245.581701" y="43.528911" style="fill: #191919"/>
    </g>
    <g clip-path="url(#p4b49a40d8f)">
     <use xlink:href="#Cd_0_a33d9a1006" x="244.39951" y="45.450612" style="fill: #191919"/>
    </g>
   </g>
   <g id="PathCollection_15">
    <defs>
     <path id="Ce_0_d0cdabef5c" d="M 0 1.5 
C 0.397805 1.5 0.77937 1.341951 1.06066 1.06066 
C 1.341951 0.77937 1.5 0.397805 1.5 -0 
C 1.5 -0.397805 1.341951 -0.77937 1.06066 -1.06066 
C 0.77937 -1.341951 0.397805 -1.5 0 -1.5 
C -0.397805 -1.5 -0.77937 -1.341951 -1.06066 -1.06066 
C -1.341951 -0.77937 -1.5 -0.397805 -1.5 0 
C -1.5 0.397805 -1.341951 0.77937 -1.06066 1.06066 
C -0.77937 1.341951 -0.397805 1.5 0 1.5 
z
"/>
    </defs>
    <g clip-path="url(#p4b49a40d8f)">
     <use xlink:href="#Ce_0_d0cdabef5c" x="257.792399" y="141.470927" style="fill: #0d0d0d"/>
    </g>
    <g clip-path="url(#p4b49a40d8f)">
     <use xlink:href="#Ce_0_d0cdabef5c" x="255.279653" y="141.466383" style="fill: #0d0d0d"/>
    </g>
    <g clip-path="url(#p4b49a40d8f)">
     <use xlink:href="#Ce_0_d0cdabef5c" x="256.171088" y="141.393199" style="fill: #0d0d0d"/>
    </g>
    <g clip-path="url(#p4b49a40d8f)">
     <use xlink:href="#Ce_0_d0cdabef5c" x="257.306314" y="141.299916" style="fill: #0d0d0d"/>
    </g>
    <g clip-path="url(#p4b49a40d8f)">
     <use xlink:href="#Ce_0_d0cdabef5c" x="256.222559" y="141.312205" style="fill: #0d0d0d"/>
    </g>
   </g>
   <g id="PathCollection_16">
    <defs>
     <path id="Cf_0_a4ee9bb677" d="M 0 1.5 
C 0.397805 1.5 0.77937 1.341951 1.06066 1.06066 
C 1.341951 0.77937 1.5 0.397805 1.5 -0 
C 1.5 -0.397805 1.341951 -0.77937 1.06066 -1.06066 
C 0.77937 -1.341951 0.397805 -1.5 0 -1.5 
C -0.397805 -1.5 -0.77937 -1.341951 -1.06066 -1.06066 
C -1.341951 -0.77937 -1.5 -0.397805 -1.5 0 
C -1.5 0.397805 -1.341951 0.77937 -1.06066 1.06066 
C -0.77937 1.341951 -0.397805 1.5 0 1.5 
z
"/>
    </defs>
    <g clip-path="url(#p4b49a40d8f)">
     <use xlink:href="#Cf_0_a4ee9bb677" x="267.507643" y="74.124497"/>
    </g>
    <g clip-path="url(#p4b49a40d8f)">
     <use xlink:href="#Cf_0_a4ee9bb677" x="268.42827" y="76.076582"/>
    </g>
    <g clip-path="url(#p4b49a40d8f)">
     <use xlink:href="#Cf_0_a4ee9bb677" x="267.559069" y="74.476066"/>
    </g>
    <g clip-path="url(#p4b49a40d8f)">
     <use xlink:href="#Cf_0_a4ee9bb677" x="267.977981" y="73.022469"/>
    </g>
    <g clip-path="url(#p4b49a40d8f)">
     <use xlink:href="#Cf_0_a4ee9bb677" x="268.917312" y="69.462093"/>
    </g>
   </g>
   <g id="text_12">
    <!-- * -->
    <g transform="translate(74.317697 54.713831) scale(0.1 -0.1)">
     <defs>
      <path id="DejaVuSans-2a" d="M 3009 3897 
L 1888 3291 
L 3009 2681 
L 2828 2375 
L 1778 3009 
L 1778 1831 
L 1422 1831 
L 1422 3009 
L 372 2375 
L 191 2681 
L 1313 3291 
L 191 3897 
L 372 4206 
L 1422 3572 
L 1422 4750 
L 1778 4750 
L 1778 3572 
L 2828 4206 
L 3009 3897 
z
" transform="scale(0.015625)"/>
     </defs>
     <use xlink:href="#DejaVuSans-2a"/>
    </g>
   </g>
   <g id="text_13">
    <!-- * -->
    <g transform="translate(132.346316 47.882739) scale(0.1 -0.1)">
     <use xlink:href="#DejaVuSans-2a"/>
    </g>
   </g>
   <g id="text_14">
    <!-- * -->
    <g transform="translate(190.374934 48.410508) scale(0.1 -0.1)">
     <use xlink:href="#DejaVuSans-2a"/>
    </g>
   </g>
   <g id="text_15">
    <!-- * -->
    <g transform="translate(248.403553 31.305335) scale(0.1 -0.1)">
     <use xlink:href="#DejaVuSans-2a"/>
    </g>
   </g>
   <g id="text_16">
    <!-- yeast -->
    <g transform="translate(147.462812 16.318125) scale(0.12 -0.12)">
     <defs>
      <path id="DejaVuSans-79" d="M 2059 -325 
Q 1816 -950 1584 -1140 
Q 1353 -1331 966 -1331 
L 506 -1331 
L 506 -850 
L 844 -850 
Q 1081 -850 1212 -737 
Q 1344 -625 1503 -206 
L 1606 56 
L 191 3500 
L 800 3500 
L 1894 763 
L 2988 3500 
L 3597 3500 
L 2059 -325 
z
" transform="scale(0.015625)"/>
     </defs>
     <use xlink:href="#DejaVuSans-79"/>
     <use xlink:href="#DejaVuSans-65" x="59.179688"/>
     <use xlink:href="#DejaVuSans-61" x="120.703125"/>
     <use xlink:href="#DejaVuSans-73" x="181.982422"/>
     <use xlink:href="#DejaVuSans-74" x="234.082031"/>
    </g>
   </g>
   <g id="legend_1">
    <g id="patch_27">
     <path d="M 281.115 142.191593 
L 400.92125 142.191593 
Q 402.92125 142.191593 402.92125 140.191593 
L 402.92125 81.922843 
Q 402.92125 79.922843 400.92125 79.922843 
L 281.115 79.922843 
Q 279.115 79.922843 279.115 81.922843 
L 279.115 140.191593 
Q 279.115 142.191593 281.115 142.191593 
z
" style="fill: #ffffff; opacity: 0.8; stroke: #cccccc; stroke-linejoin: miter"/>
    </g>
    <g id="patch_28">
     <path d="M 283.115 91.52128 
L 303.115 91.52128 
L 303.115 84.52128 
L 283.115 84.52128 
z
" style="fill: #3274a1; stroke: #3d3d3d; stroke-width: 0.75; stroke-linejoin: miter"/>
    </g>
    <g id="text_17">
     <!-- proba_weak -->
     <g transform="translate(311.115 91.52128) scale(0.1 -0.1)">
      <defs>
       <path id="DejaVuSans-62" d="M 3116 1747 
Q 3116 2381 2855 2742 
Q 2594 3103 2138 3103 
Q 1681 3103 1420 2742 
Q 1159 2381 1159 1747 
Q 1159 1113 1420 752 
Q 1681 391 2138 391 
Q 2594 391 2855 752 
Q 3116 1113 3116 1747 
z
M 1159 2969 
Q 1341 3281 1617 3432 
Q 1894 3584 2278 3584 
Q 2916 3584 3314 3078 
Q 3713 2572 3713 1747 
Q 3713 922 3314 415 
Q 2916 -91 2278 -91 
Q 1894 -91 1617 61 
Q 1341 213 1159 525 
L 1159 0 
L 581 0 
L 581 4863 
L 1159 4863 
L 1159 2969 
z
" transform="scale(0.015625)"/>
       <path id="DejaVuSans-77" d="M 269 3500 
L 844 3500 
L 1563 769 
L 2278 3500 
L 2956 3500 
L 3675 769 
L 4391 3500 
L 4966 3500 
L 4050 0 
L 3372 0 
L 2619 2869 
L 1863 0 
L 1184 0 
L 269 3500 
z
" transform="scale(0.015625)"/>
       <path id="DejaVuSans-6b" d="M 581 4863 
L 1159 4863 
L 1159 1991 
L 2875 3500 
L 3609 3500 
L 1753 1863 
L 3688 0 
L 2938 0 
L 1159 1709 
L 1159 0 
L 581 0 
L 581 4863 
z
" transform="scale(0.015625)"/>
      </defs>
      <use xlink:href="#DejaVuSans-70"/>
      <use xlink:href="#DejaVuSans-72" x="63.476562"/>
      <use xlink:href="#DejaVuSans-6f" x="102.339844"/>
      <use xlink:href="#DejaVuSans-62" x="163.521484"/>
      <use xlink:href="#DejaVuSans-61" x="226.998047"/>
      <use xlink:href="#DejaVuSans-5f" x="288.277344"/>
      <use xlink:href="#DejaVuSans-77" x="338.277344"/>
      <use xlink:href="#DejaVuSans-65" x="420.064453"/>
      <use xlink:href="#DejaVuSans-61" x="481.587891"/>
      <use xlink:href="#DejaVuSans-6b" x="542.867188"/>
     </g>
    </g>
    <g id="patch_29">
     <path d="M 283.115 106.47753 
L 303.115 106.47753 
L 303.115 99.47753 
L 283.115 99.47753 
z
" style="fill: #e1812c; stroke: #3d3d3d; stroke-width: 0.75; stroke-linejoin: miter"/>
    </g>
    <g id="text_18">
     <!-- embedding_weak -->
     <g transform="translate(311.115 106.47753) scale(0.1 -0.1)">
      <defs>
       <path id="DejaVuSans-67" d="M 2906 1791 
Q 2906 2416 2648 2759 
Q 2391 3103 1925 3103 
Q 1463 3103 1205 2759 
Q 947 2416 947 1791 
Q 947 1169 1205 825 
Q 1463 481 1925 481 
Q 2391 481 2648 825 
Q 2906 1169 2906 1791 
z
M 3481 434 
Q 3481 -459 3084 -895 
Q 2688 -1331 1869 -1331 
Q 1566 -1331 1297 -1286 
Q 1028 -1241 775 -1147 
L 775 -588 
Q 1028 -725 1275 -790 
Q 1522 -856 1778 -856 
Q 2344 -856 2625 -561 
Q 2906 -266 2906 331 
L 2906 616 
Q 2728 306 2450 153 
Q 2172 0 1784 0 
Q 1141 0 747 490 
Q 353 981 353 1791 
Q 353 2603 747 3093 
Q 1141 3584 1784 3584 
Q 2172 3584 2450 3431 
Q 2728 3278 2906 2969 
L 2906 3500 
L 3481 3500 
L 3481 434 
z
" transform="scale(0.015625)"/>
      </defs>
      <use xlink:href="#DejaVuSans-65"/>
      <use xlink:href="#DejaVuSans-6d" x="61.523438"/>
      <use xlink:href="#DejaVuSans-62" x="158.935547"/>
      <use xlink:href="#DejaVuSans-65" x="222.412109"/>
      <use xlink:href="#DejaVuSans-64" x="283.935547"/>
      <use xlink:href="#DejaVuSans-64" x="347.412109"/>
      <use xlink:href="#DejaVuSans-69" x="410.888672"/>
      <use xlink:href="#DejaVuSans-6e" x="438.671875"/>
      <use xlink:href="#DejaVuSans-67" x="502.050781"/>
      <use xlink:href="#DejaVuSans-5f" x="565.527344"/>
      <use xlink:href="#DejaVuSans-77" x="615.527344"/>
      <use xlink:href="#DejaVuSans-65" x="697.314453"/>
      <use xlink:href="#DejaVuSans-61" x="758.837891"/>
      <use xlink:href="#DejaVuSans-6b" x="820.117188"/>
     </g>
    </g>
    <g id="patch_30">
     <path d="M 283.115 121.43378 
L 303.115 121.43378 
L 303.115 114.43378 
L 283.115 114.43378 
z
" style="fill: #3a923a; stroke: #3d3d3d; stroke-width: 0.75; stroke-linejoin: miter"/>
    </g>
    <g id="text_19">
     <!-- proba -->
     <g transform="translate(311.115 121.43378) scale(0.1 -0.1)">
      <use xlink:href="#DejaVuSans-70"/>
      <use xlink:href="#DejaVuSans-72" x="63.476562"/>
      <use xlink:href="#DejaVuSans-6f" x="102.339844"/>
      <use xlink:href="#DejaVuSans-62" x="163.521484"/>
      <use xlink:href="#DejaVuSans-61" x="226.998047"/>
     </g>
    </g>
    <g id="patch_31">
     <path d="M 283.115 136.111905 
L 303.115 136.111905 
L 303.115 129.111905 
L 283.115 129.111905 
z
" style="fill: #c03d3e; stroke: #3d3d3d; stroke-width: 0.75; stroke-linejoin: miter"/>
    </g>
    <g id="text_20">
     <!-- embedding -->
     <g transform="translate(311.115 136.111905) scale(0.1 -0.1)">
      <use xlink:href="#DejaVuSans-65"/>
      <use xlink:href="#DejaVuSans-6d" x="61.523438"/>
      <use xlink:href="#DejaVuSans-62" x="158.935547"/>
      <use xlink:href="#DejaVuSans-65" x="222.412109"/>
      <use xlink:href="#DejaVuSans-64" x="283.935547"/>
      <use xlink:href="#DejaVuSans-64" x="347.412109"/>
      <use xlink:href="#DejaVuSans-69" x="410.888672"/>
      <use xlink:href="#DejaVuSans-6e" x="438.671875"/>
      <use xlink:href="#DejaVuSans-67" x="502.050781"/>
     </g>
    </g>
   </g>
  </g>
 </g>
 <defs>
  <clipPath id="p4b49a40d8f">
   <rect x="53.60625" y="22.318125" width="220.50875" height="124.873468"/>
  </clipPath>
 </defs>
</svg>
