<?xml version="1.0" encoding="utf-8" standalone="no"?>
<!DOCTYPE svg PUBLIC "-//W3C//DTD SVG 1.1//EN"
  "http://www.w3.org/Graphics/SVG/1.1/DTD/svg11.dtd">
<svg xmlns:xlink="http://www.w3.org/1999/xlink" width="409.99625pt" height="207.241673pt" viewBox="0 0 409.99625 207.241673" xmlns="http://www.w3.org/2000/svg" version="1.1">
 <metadata>
  <rdf:RDF xmlns:dc="http://purl.org/dc/elements/1.1/" xmlns:cc="http://creativecommons.org/ns#" xmlns:rdf="http://www.w3.org/1999/02/22-rdf-syntax-ns#">
   <cc:Work>
    <dc:type rdf:resource="http://purl.org/dc/dcmitype/StillImage"/>
    <dc:date>2023-06-23T11:38:25.948111</dc:date>
    <dc:format>image/svg+xml</dc:format>
    <dc:creator>
     <cc:Agent>
      <dc:title>Matplotlib v3.7.1, https://matplotlib.org/</dc:title>
     </cc:Agent>
    </dc:creator>
   </cc:Work>
  </rdf:RDF>
 </metadata>
 <defs>
  <style type="text/css">*{stroke-linejoin: round; stroke-linecap: butt}</style>
 </defs>
 <g id="figure_1">
  <g id="patch_1">
   <path d="M 0 207.241673 
L 409.99625 207.241673 
L 409.99625 0 
L 0 0 
L 0 207.241673 
z
" style="fill: none"/>
  </g>
  <g id="axes_1">
   <g id="patch_2">
    <path d="M 40.88125 147.191593 
L 273.99 147.191593 
L 273.99 22.318125 
L 40.88125 22.318125 
L 40.88125 147.191593 
z
" style="fill: none"/>
   </g>
   <g id="patch_3">
    <path d="M 41.003939 141.288839 
L 53.027443 141.288839 
L 53.027443 141.184152 
L 41.003939 141.184152 
L 41.003939 141.288839 
z
" clip-path="url(#p93d202bee3)" style="fill: #3274a1; stroke: #3d3d3d; stroke-width: 1.5; stroke-linejoin: miter"/>
   </g>
   <g id="patch_4">
    <path d="M 53.27282 68.861401 
L 65.296324 68.861401 
L 65.296324 59.934619 
L 53.27282 59.934619 
L 53.27282 68.861401 
z
" clip-path="url(#p93d202bee3)" style="fill: #e1812c; stroke: #3d3d3d; stroke-width: 1.5; stroke-linejoin: miter"/>
   </g>
   <g id="patch_5">
    <path d="M 65.541702 141.361434 
L 77.565206 141.361434 
L 77.565206 141.161916 
L 65.541702 141.161916 
L 65.541702 141.361434 
z
" clip-path="url(#p93d202bee3)" style="fill: #3a923a; stroke: #3d3d3d; stroke-width: 1.5; stroke-linejoin: miter"/>
   </g>
   <g id="patch_6">
    <path d="M 77.810584 73.541563 
L 89.834087 73.541563 
L 89.834087 56.080678 
L 77.810584 56.080678 
L 77.810584 73.541563 
z
" clip-path="url(#p93d202bee3)" style="fill: #c03d3e; stroke: #3d3d3d; stroke-width: 1.5; stroke-linejoin: miter"/>
   </g>
   <g id="patch_7">
    <path d="M 102.348347 141.073337 
L 114.371851 141.073337 
L 114.371851 140.968152 
L 102.348347 140.968152 
L 102.348347 141.073337 
z
" clip-path="url(#p93d202bee3)" style="fill: #3274a1; stroke: #3d3d3d; stroke-width: 1.5; stroke-linejoin: miter"/>
   </g>
   <g id="patch_8">
    <path d="M 114.617228 53.571765 
L 126.640732 53.571765 
L 126.640732 48.004707 
L 114.617228 48.004707 
L 114.617228 53.571765 
z
" clip-path="url(#p93d202bee3)" style="fill: #e1812c; stroke: #3d3d3d; stroke-width: 1.5; stroke-linejoin: miter"/>
   </g>
   <g id="patch_9">
    <path d="M 126.88611 141.17416 
L 138.909614 141.17416 
L 138.909614 141.009036 
L 126.88611 141.009036 
L 126.88611 141.17416 
z
" clip-path="url(#p93d202bee3)" style="fill: #3a923a; stroke: #3d3d3d; stroke-width: 1.5; stroke-linejoin: miter"/>
   </g>
   <g id="patch_10">
    <path d="M 139.154991 52.687795 
L 151.178495 52.687795 
L 151.178495 41.41626 
L 139.154991 41.41626 
L 139.154991 52.687795 
z
" clip-path="url(#p93d202bee3)" style="fill: #c03d3e; stroke: #3d3d3d; stroke-width: 1.5; stroke-linejoin: miter"/>
   </g>
   <g id="patch_11">
    <path d="M 163.692755 141.187117 
L 175.716259 141.187117 
L 175.716259 140.674941 
L 163.692755 140.674941 
L 163.692755 141.187117 
z
" clip-path="url(#p93d202bee3)" style="fill: #3274a1; stroke: #3d3d3d; stroke-width: 1.5; stroke-linejoin: miter"/>
   </g>
   <g id="patch_12">
    <path d="M 175.961636 69.963012 
L 187.98514 69.963012 
L 187.98514 62.9469 
L 175.961636 62.9469 
L 175.961636 69.963012 
z
" clip-path="url(#p93d202bee3)" style="fill: #e1812c; stroke: #3d3d3d; stroke-width: 1.5; stroke-linejoin: miter"/>
   </g>
   <g id="patch_13">
    <path d="M 188.230518 141.410515 
L 200.254022 141.410515 
L 200.254022 141.008227 
L 188.230518 141.008227 
L 188.230518 141.410515 
z
" clip-path="url(#p93d202bee3)" style="fill: #3a923a; stroke: #3d3d3d; stroke-width: 1.5; stroke-linejoin: miter"/>
   </g>
   <g id="patch_14">
    <path d="M 200.499399 65.526625 
L 212.522903 65.526625 
L 212.522903 52.258947 
L 200.499399 52.258947 
L 200.499399 65.526625 
z
" clip-path="url(#p93d202bee3)" style="fill: #c03d3e; stroke: #3d3d3d; stroke-width: 1.5; stroke-linejoin: miter"/>
   </g>
   <g id="patch_15">
    <path d="M 225.037162 141.184091 
L 237.060666 141.184091 
L 237.060666 141.038215 
L 225.037162 141.038215 
L 225.037162 141.184091 
z
" clip-path="url(#p93d202bee3)" style="fill: #3274a1; stroke: #3d3d3d; stroke-width: 1.5; stroke-linejoin: miter"/>
   </g>
   <g id="patch_16">
    <path d="M 237.306044 87.12531 
L 249.329548 87.12531 
L 249.329548 84.730077 
L 237.306044 84.730077 
L 237.306044 87.12531 
z
" clip-path="url(#p93d202bee3)" style="fill: #e1812c; stroke: #3d3d3d; stroke-width: 1.5; stroke-linejoin: miter"/>
   </g>
   <g id="patch_17">
    <path d="M 249.574926 141.368847 
L 261.59843 141.368847 
L 261.59843 141.179417 
L 249.574926 141.179417 
L 249.574926 141.368847 
z
" clip-path="url(#p93d202bee3)" style="fill: #3a923a; stroke: #3d3d3d; stroke-width: 1.5; stroke-linejoin: miter"/>
   </g>
   <g id="patch_18">
    <path d="M 261.843807 83.224739 
L 273.867311 83.224739 
L 273.867311 81.066856 
L 261.843807 81.066856 
L 261.843807 83.224739 
z
" clip-path="url(#p93d202bee3)" style="fill: #c03d3e; stroke: #3d3d3d; stroke-width: 1.5; stroke-linejoin: miter"/>
   </g>
   <g id="patch_19">
    <path d="M 65.419013 146.473383 
L 65.419013 146.473383 
L 65.419013 146.473383 
L 65.419013 146.473383 
z
" clip-path="url(#p93d202bee3)" style="fill: #3274a1; stroke: #3d3d3d; stroke-width: 0.75; stroke-linejoin: miter"/>
   </g>
   <g id="patch_20">
    <path d="M 65.419013 146.473383 
L 65.419013 146.473383 
L 65.419013 146.473383 
L 65.419013 146.473383 
z
" clip-path="url(#p93d202bee3)" style="fill: #e1812c; stroke: #3d3d3d; stroke-width: 0.75; stroke-linejoin: miter"/>
   </g>
   <g id="patch_21">
    <path d="M 65.419013 146.473383 
L 65.419013 146.473383 
L 65.419013 146.473383 
L 65.419013 146.473383 
z
" clip-path="url(#p93d202bee3)" style="fill: #3a923a; stroke: #3d3d3d; stroke-width: 0.75; stroke-linejoin: miter"/>
   </g>
   <g id="patch_22">
    <path d="M 65.419013 146.473383 
L 65.419013 146.473383 
L 65.419013 146.473383 
L 65.419013 146.473383 
z
" clip-path="url(#p93d202bee3)" style="fill: #c03d3e; stroke: #3d3d3d; stroke-width: 0.75; stroke-linejoin: miter"/>
   </g>
   <g id="matplotlib.axis_1">
    <g id="xtick_1">
     <g id="line2d_1">
      <defs>
       <path id="m5bc27aa238" d="M 0 0 
L 0 3.5 
" style="stroke: #000000; stroke-width: 0.8"/>
      </defs>
      <g>
       <use xlink:href="#m5bc27aa238" x="65.419013" y="147.191593" style="stroke: #000000; stroke-width: 0.8"/>
      </g>
     </g>
     <g id="text_1">
      <!-- none -->
      <g transform="translate(46.308348 177.204604) rotate(-45) scale(0.1 -0.1)">
       <defs>
        <path id="DejaVuSans-6e" d="M 3513 2113 
L 3513 0 
L 2938 0 
L 2938 2094 
Q 2938 2591 2744 2837 
Q 2550 3084 2163 3084 
Q 1697 3084 1428 2787 
Q 1159 2491 1159 1978 
L 1159 0 
L 581 0 
L 581 3500 
L 1159 3500 
L 1159 2956 
Q 1366 3272 1645 3428 
Q 1925 3584 2291 3584 
Q 2894 3584 3203 3211 
Q 3513 2838 3513 2113 
z
" transform="scale(0.015625)"/>
        <path id="DejaVuSans-6f" d="M 1959 3097 
Q 1497 3097 1228 2736 
Q 959 2375 959 1747 
Q 959 1119 1226 758 
Q 1494 397 1959 397 
Q 2419 397 2687 759 
Q 2956 1122 2956 1747 
Q 2956 2369 2687 2733 
Q 2419 3097 1959 3097 
z
M 1959 3584 
Q 2709 3584 3137 3096 
Q 3566 2609 3566 1747 
Q 3566 888 3137 398 
Q 2709 -91 1959 -91 
Q 1206 -91 779 398 
Q 353 888 353 1747 
Q 353 2609 779 3096 
Q 1206 3584 1959 3584 
z
" transform="scale(0.015625)"/>
        <path id="DejaVuSans-65" d="M 3597 1894 
L 3597 1613 
L 953 1613 
Q 991 1019 1311 708 
Q 1631 397 2203 397 
Q 2534 397 2845 478 
Q 3156 559 3463 722 
L 3463 178 
Q 3153 47 2828 -22 
Q 2503 -91 2169 -91 
Q 1331 -91 842 396 
Q 353 884 353 1716 
Q 353 2575 817 3079 
Q 1281 3584 2069 3584 
Q 2775 3584 3186 3129 
Q 3597 2675 3597 1894 
z
M 3022 2063 
Q 3016 2534 2758 2815 
Q 2500 3097 2075 3097 
Q 1594 3097 1305 2825 
Q 1016 2553 972 2059 
L 3022 2063 
z
" transform="scale(0.015625)"/>
       </defs>
       <use xlink:href="#DejaVuSans-6e"/>
       <use xlink:href="#DejaVuSans-6f" x="63.378906"/>
       <use xlink:href="#DejaVuSans-6e" x="124.560547"/>
       <use xlink:href="#DejaVuSans-65" x="187.939453"/>
      </g>
     </g>
    </g>
    <g id="xtick_2">
     <g id="line2d_2">
      <g>
       <use xlink:href="#m5bc27aa238" x="126.763421" y="147.191593" style="stroke: #000000; stroke-width: 0.8"/>
      </g>
     </g>
     <g id="text_2">
      <!-- drop30 -->
      <g transform="translate(100.242497 184.614862) rotate(-45) scale(0.1 -0.1)">
       <defs>
        <path id="DejaVuSans-64" d="M 2906 2969 
L 2906 4863 
L 3481 4863 
L 3481 0 
L 2906 0 
L 2906 525 
Q 2725 213 2448 61 
Q 2172 -91 1784 -91 
Q 1150 -91 751 415 
Q 353 922 353 1747 
Q 353 2572 751 3078 
Q 1150 3584 1784 3584 
Q 2172 3584 2448 3432 
Q 2725 3281 2906 2969 
z
M 947 1747 
Q 947 1113 1208 752 
Q 1469 391 1925 391 
Q 2381 391 2643 752 
Q 2906 1113 2906 1747 
Q 2906 2381 2643 2742 
Q 2381 3103 1925 3103 
Q 1469 3103 1208 2742 
Q 947 2381 947 1747 
z
" transform="scale(0.015625)"/>
        <path id="DejaVuSans-72" d="M 2631 2963 
Q 2534 3019 2420 3045 
Q 2306 3072 2169 3072 
Q 1681 3072 1420 2755 
Q 1159 2438 1159 1844 
L 1159 0 
L 581 0 
L 581 3500 
L 1159 3500 
L 1159 2956 
Q 1341 3275 1631 3429 
Q 1922 3584 2338 3584 
Q 2397 3584 2469 3576 
Q 2541 3569 2628 3553 
L 2631 2963 
z
" transform="scale(0.015625)"/>
        <path id="DejaVuSans-70" d="M 1159 525 
L 1159 -1331 
L 581 -1331 
L 581 3500 
L 1159 3500 
L 1159 2969 
Q 1341 3281 1617 3432 
Q 1894 3584 2278 3584 
Q 2916 3584 3314 3078 
Q 3713 2572 3713 1747 
Q 3713 922 3314 415 
Q 2916 -91 2278 -91 
Q 1894 -91 1617 61 
Q 1341 213 1159 525 
z
M 3116 1747 
Q 3116 2381 2855 2742 
Q 2594 3103 2138 3103 
Q 1681 3103 1420 2742 
Q 1159 2381 1159 1747 
Q 1159 1113 1420 752 
Q 1681 391 2138 391 
Q 2594 391 2855 752 
Q 3116 1113 3116 1747 
z
" transform="scale(0.015625)"/>
        <path id="DejaVuSans-33" d="M 2597 2516 
Q 3050 2419 3304 2112 
Q 3559 1806 3559 1356 
Q 3559 666 3084 287 
Q 2609 -91 1734 -91 
Q 1441 -91 1130 -33 
Q 819 25 488 141 
L 488 750 
Q 750 597 1062 519 
Q 1375 441 1716 441 
Q 2309 441 2620 675 
Q 2931 909 2931 1356 
Q 2931 1769 2642 2001 
Q 2353 2234 1838 2234 
L 1294 2234 
L 1294 2753 
L 1863 2753 
Q 2328 2753 2575 2939 
Q 2822 3125 2822 3475 
Q 2822 3834 2567 4026 
Q 2313 4219 1838 4219 
Q 1578 4219 1281 4162 
Q 984 4106 628 3988 
L 628 4550 
Q 988 4650 1302 4700 
Q 1616 4750 1894 4750 
Q 2613 4750 3031 4423 
Q 3450 4097 3450 3541 
Q 3450 3153 3228 2886 
Q 3006 2619 2597 2516 
z
" transform="scale(0.015625)"/>
        <path id="DejaVuSans-30" d="M 2034 4250 
Q 1547 4250 1301 3770 
Q 1056 3291 1056 2328 
Q 1056 1369 1301 889 
Q 1547 409 2034 409 
Q 2525 409 2770 889 
Q 3016 1369 3016 2328 
Q 3016 3291 2770 3770 
Q 2525 4250 2034 4250 
z
M 2034 4750 
Q 2819 4750 3233 4129 
Q 3647 3509 3647 2328 
Q 3647 1150 3233 529 
Q 2819 -91 2034 -91 
Q 1250 -91 836 529 
Q 422 1150 422 2328 
Q 422 3509 836 4129 
Q 1250 4750 2034 4750 
z
" transform="scale(0.015625)"/>
       </defs>
       <use xlink:href="#DejaVuSans-64"/>
       <use xlink:href="#DejaVuSans-72" x="63.476562"/>
       <use xlink:href="#DejaVuSans-6f" x="102.339844"/>
       <use xlink:href="#DejaVuSans-70" x="163.521484"/>
       <use xlink:href="#DejaVuSans-33" x="226.998047"/>
       <use xlink:href="#DejaVuSans-30" x="290.621094"/>
      </g>
     </g>
    </g>
    <g id="xtick_3">
     <g id="line2d_3">
      <g>
       <use xlink:href="#m5bc27aa238" x="188.107829" y="147.191593" style="stroke: #000000; stroke-width: 0.8"/>
      </g>
     </g>
     <g id="text_3">
      <!-- drop50 -->
      <g transform="translate(161.586905 184.614862) rotate(-45) scale(0.1 -0.1)">
       <defs>
        <path id="DejaVuSans-35" d="M 691 4666 
L 3169 4666 
L 3169 4134 
L 1269 4134 
L 1269 2991 
Q 1406 3038 1543 3061 
Q 1681 3084 1819 3084 
Q 2600 3084 3056 2656 
Q 3513 2228 3513 1497 
Q 3513 744 3044 326 
Q 2575 -91 1722 -91 
Q 1428 -91 1123 -41 
Q 819 9 494 109 
L 494 744 
Q 775 591 1075 516 
Q 1375 441 1709 441 
Q 2250 441 2565 725 
Q 2881 1009 2881 1497 
Q 2881 1984 2565 2268 
Q 2250 2553 1709 2553 
Q 1456 2553 1204 2497 
Q 953 2441 691 2322 
L 691 4666 
z
" transform="scale(0.015625)"/>
       </defs>
       <use xlink:href="#DejaVuSans-64"/>
       <use xlink:href="#DejaVuSans-72" x="63.476562"/>
       <use xlink:href="#DejaVuSans-6f" x="102.339844"/>
       <use xlink:href="#DejaVuSans-70" x="163.521484"/>
       <use xlink:href="#DejaVuSans-35" x="226.998047"/>
       <use xlink:href="#DejaVuSans-30" x="290.621094"/>
      </g>
     </g>
    </g>
    <g id="xtick_4">
     <g id="line2d_4">
      <g>
       <use xlink:href="#m5bc27aa238" x="249.452237" y="147.191593" style="stroke: #000000; stroke-width: 0.8"/>
      </g>
     </g>
     <g id="text_4">
      <!-- drop80 -->
      <g transform="translate(222.931313 184.614862) rotate(-45) scale(0.1 -0.1)">
       <defs>
        <path id="DejaVuSans-38" d="M 2034 2216 
Q 1584 2216 1326 1975 
Q 1069 1734 1069 1313 
Q 1069 891 1326 650 
Q 1584 409 2034 409 
Q 2484 409 2743 651 
Q 3003 894 3003 1313 
Q 3003 1734 2745 1975 
Q 2488 2216 2034 2216 
z
M 1403 2484 
Q 997 2584 770 2862 
Q 544 3141 544 3541 
Q 544 4100 942 4425 
Q 1341 4750 2034 4750 
Q 2731 4750 3128 4425 
Q 3525 4100 3525 3541 
Q 3525 3141 3298 2862 
Q 3072 2584 2669 2484 
Q 3125 2378 3379 2068 
Q 3634 1759 3634 1313 
Q 3634 634 3220 271 
Q 2806 -91 2034 -91 
Q 1263 -91 848 271 
Q 434 634 434 1313 
Q 434 1759 690 2068 
Q 947 2378 1403 2484 
z
M 1172 3481 
Q 1172 3119 1398 2916 
Q 1625 2713 2034 2713 
Q 2441 2713 2670 2916 
Q 2900 3119 2900 3481 
Q 2900 3844 2670 4047 
Q 2441 4250 2034 4250 
Q 1625 4250 1398 4047 
Q 1172 3844 1172 3481 
z
" transform="scale(0.015625)"/>
       </defs>
       <use xlink:href="#DejaVuSans-64"/>
       <use xlink:href="#DejaVuSans-72" x="63.476562"/>
       <use xlink:href="#DejaVuSans-6f" x="102.339844"/>
       <use xlink:href="#DejaVuSans-70" x="163.521484"/>
       <use xlink:href="#DejaVuSans-38" x="226.998047"/>
       <use xlink:href="#DejaVuSans-30" x="290.621094"/>
      </g>
     </g>
    </g>
    <g id="text_5">
     <!-- estimator_suffix -->
     <g transform="translate(117.253594 197.68386) scale(0.1 -0.1)">
      <defs>
       <path id="DejaVuSans-73" d="M 2834 3397 
L 2834 2853 
Q 2591 2978 2328 3040 
Q 2066 3103 1784 3103 
Q 1356 3103 1142 2972 
Q 928 2841 928 2578 
Q 928 2378 1081 2264 
Q 1234 2150 1697 2047 
L 1894 2003 
Q 2506 1872 2764 1633 
Q 3022 1394 3022 966 
Q 3022 478 2636 193 
Q 2250 -91 1575 -91 
Q 1294 -91 989 -36 
Q 684 19 347 128 
L 347 722 
Q 666 556 975 473 
Q 1284 391 1588 391 
Q 1994 391 2212 530 
Q 2431 669 2431 922 
Q 2431 1156 2273 1281 
Q 2116 1406 1581 1522 
L 1381 1569 
Q 847 1681 609 1914 
Q 372 2147 372 2553 
Q 372 3047 722 3315 
Q 1072 3584 1716 3584 
Q 2034 3584 2315 3537 
Q 2597 3491 2834 3397 
z
" transform="scale(0.015625)"/>
       <path id="DejaVuSans-74" d="M 1172 4494 
L 1172 3500 
L 2356 3500 
L 2356 3053 
L 1172 3053 
L 1172 1153 
Q 1172 725 1289 603 
Q 1406 481 1766 481 
L 2356 481 
L 2356 0 
L 1766 0 
Q 1100 0 847 248 
Q 594 497 594 1153 
L 594 3053 
L 172 3053 
L 172 3500 
L 594 3500 
L 594 4494 
L 1172 4494 
z
" transform="scale(0.015625)"/>
       <path id="DejaVuSans-69" d="M 603 3500 
L 1178 3500 
L 1178 0 
L 603 0 
L 603 3500 
z
M 603 4863 
L 1178 4863 
L 1178 4134 
L 603 4134 
L 603 4863 
z
" transform="scale(0.015625)"/>
       <path id="DejaVuSans-6d" d="M 3328 2828 
Q 3544 3216 3844 3400 
Q 4144 3584 4550 3584 
Q 5097 3584 5394 3201 
Q 5691 2819 5691 2113 
L 5691 0 
L 5113 0 
L 5113 2094 
Q 5113 2597 4934 2840 
Q 4756 3084 4391 3084 
Q 3944 3084 3684 2787 
Q 3425 2491 3425 1978 
L 3425 0 
L 2847 0 
L 2847 2094 
Q 2847 2600 2669 2842 
Q 2491 3084 2119 3084 
Q 1678 3084 1418 2786 
Q 1159 2488 1159 1978 
L 1159 0 
L 581 0 
L 581 3500 
L 1159 3500 
L 1159 2956 
Q 1356 3278 1631 3431 
Q 1906 3584 2284 3584 
Q 2666 3584 2933 3390 
Q 3200 3197 3328 2828 
z
" transform="scale(0.015625)"/>
       <path id="DejaVuSans-61" d="M 2194 1759 
Q 1497 1759 1228 1600 
Q 959 1441 959 1056 
Q 959 750 1161 570 
Q 1363 391 1709 391 
Q 2188 391 2477 730 
Q 2766 1069 2766 1631 
L 2766 1759 
L 2194 1759 
z
M 3341 1997 
L 3341 0 
L 2766 0 
L 2766 531 
Q 2569 213 2275 61 
Q 1981 -91 1556 -91 
Q 1019 -91 701 211 
Q 384 513 384 1019 
Q 384 1609 779 1909 
Q 1175 2209 1959 2209 
L 2766 2209 
L 2766 2266 
Q 2766 2663 2505 2880 
Q 2244 3097 1772 3097 
Q 1472 3097 1187 3025 
Q 903 2953 641 2809 
L 641 3341 
Q 956 3463 1253 3523 
Q 1550 3584 1831 3584 
Q 2591 3584 2966 3190 
Q 3341 2797 3341 1997 
z
" transform="scale(0.015625)"/>
       <path id="DejaVuSans-5f" d="M 3263 -1063 
L 3263 -1509 
L -63 -1509 
L -63 -1063 
L 3263 -1063 
z
" transform="scale(0.015625)"/>
       <path id="DejaVuSans-75" d="M 544 1381 
L 544 3500 
L 1119 3500 
L 1119 1403 
Q 1119 906 1312 657 
Q 1506 409 1894 409 
Q 2359 409 2629 706 
Q 2900 1003 2900 1516 
L 2900 3500 
L 3475 3500 
L 3475 0 
L 2900 0 
L 2900 538 
Q 2691 219 2414 64 
Q 2138 -91 1772 -91 
Q 1169 -91 856 284 
Q 544 659 544 1381 
z
M 1991 3584 
L 1991 3584 
z
" transform="scale(0.015625)"/>
       <path id="DejaVuSans-66" d="M 2375 4863 
L 2375 4384 
L 1825 4384 
Q 1516 4384 1395 4259 
Q 1275 4134 1275 3809 
L 1275 3500 
L 2222 3500 
L 2222 3053 
L 1275 3053 
L 1275 0 
L 697 0 
L 697 3053 
L 147 3053 
L 147 3500 
L 697 3500 
L 697 3744 
Q 697 4328 969 4595 
Q 1241 4863 1831 4863 
L 2375 4863 
z
" transform="scale(0.015625)"/>
       <path id="DejaVuSans-78" d="M 3513 3500 
L 2247 1797 
L 3578 0 
L 2900 0 
L 1881 1375 
L 863 0 
L 184 0 
L 1544 1831 
L 300 3500 
L 978 3500 
L 1906 2253 
L 2834 3500 
L 3513 3500 
z
" transform="scale(0.015625)"/>
      </defs>
      <use xlink:href="#DejaVuSans-65"/>
      <use xlink:href="#DejaVuSans-73" x="61.523438"/>
      <use xlink:href="#DejaVuSans-74" x="113.623047"/>
      <use xlink:href="#DejaVuSans-69" x="152.832031"/>
      <use xlink:href="#DejaVuSans-6d" x="180.615234"/>
      <use xlink:href="#DejaVuSans-61" x="278.027344"/>
      <use xlink:href="#DejaVuSans-74" x="339.306641"/>
      <use xlink:href="#DejaVuSans-6f" x="378.515625"/>
      <use xlink:href="#DejaVuSans-72" x="439.697266"/>
      <use xlink:href="#DejaVuSans-5f" x="480.810547"/>
      <use xlink:href="#DejaVuSans-73" x="530.810547"/>
      <use xlink:href="#DejaVuSans-75" x="582.910156"/>
      <use xlink:href="#DejaVuSans-66" x="646.289062"/>
      <use xlink:href="#DejaVuSans-66" x="681.494141"/>
      <use xlink:href="#DejaVuSans-69" x="716.699219"/>
      <use xlink:href="#DejaVuSans-78" x="744.482422"/>
     </g>
    </g>
   </g>
   <g id="matplotlib.axis_2">
    <g id="ytick_1">
     <g id="line2d_5">
      <defs>
       <path id="m78882293da" d="M 0 0 
L -3.5 0 
" style="stroke: #000000; stroke-width: 0.8"/>
      </defs>
      <g>
       <use xlink:href="#m78882293da" x="40.88125" y="146.473383" style="stroke: #000000; stroke-width: 0.8"/>
      </g>
     </g>
     <g id="text_6">
      <!-- 0 -->
      <g transform="translate(27.51875 150.272602) scale(0.1 -0.1)">
       <use xlink:href="#DejaVuSans-30"/>
      </g>
     </g>
    </g>
    <g id="ytick_2">
     <g id="line2d_6">
      <g>
       <use xlink:href="#m78882293da" x="40.88125" y="123.168192" style="stroke: #000000; stroke-width: 0.8"/>
      </g>
     </g>
     <g id="text_7">
      <!-- 10 -->
      <g transform="translate(21.15625 126.967411) scale(0.1 -0.1)">
       <defs>
        <path id="DejaVuSans-31" d="M 794 531 
L 1825 531 
L 1825 4091 
L 703 3866 
L 703 4441 
L 1819 4666 
L 2450 4666 
L 2450 531 
L 3481 531 
L 3481 0 
L 794 0 
L 794 531 
z
" transform="scale(0.015625)"/>
       </defs>
       <use xlink:href="#DejaVuSans-31"/>
       <use xlink:href="#DejaVuSans-30" x="63.623047"/>
      </g>
     </g>
    </g>
    <g id="ytick_3">
     <g id="line2d_7">
      <g>
       <use xlink:href="#m78882293da" x="40.88125" y="99.863001" style="stroke: #000000; stroke-width: 0.8"/>
      </g>
     </g>
     <g id="text_8">
      <!-- 20 -->
      <g transform="translate(21.15625 103.66222) scale(0.1 -0.1)">
       <defs>
        <path id="DejaVuSans-32" d="M 1228 531 
L 3431 531 
L 3431 0 
L 469 0 
L 469 531 
Q 828 903 1448 1529 
Q 2069 2156 2228 2338 
Q 2531 2678 2651 2914 
Q 2772 3150 2772 3378 
Q 2772 3750 2511 3984 
Q 2250 4219 1831 4219 
Q 1534 4219 1204 4116 
Q 875 4013 500 3803 
L 500 4441 
Q 881 4594 1212 4672 
Q 1544 4750 1819 4750 
Q 2544 4750 2975 4387 
Q 3406 4025 3406 3419 
Q 3406 3131 3298 2873 
Q 3191 2616 2906 2266 
Q 2828 2175 2409 1742 
Q 1991 1309 1228 531 
z
" transform="scale(0.015625)"/>
       </defs>
       <use xlink:href="#DejaVuSans-32"/>
       <use xlink:href="#DejaVuSans-30" x="63.623047"/>
      </g>
     </g>
    </g>
    <g id="ytick_4">
     <g id="line2d_8">
      <g>
       <use xlink:href="#m78882293da" x="40.88125" y="76.55781" style="stroke: #000000; stroke-width: 0.8"/>
      </g>
     </g>
     <g id="text_9">
      <!-- 30 -->
      <g transform="translate(21.15625 80.357029) scale(0.1 -0.1)">
       <use xlink:href="#DejaVuSans-33"/>
       <use xlink:href="#DejaVuSans-30" x="63.623047"/>
      </g>
     </g>
    </g>
    <g id="ytick_5">
     <g id="line2d_9">
      <g>
       <use xlink:href="#m78882293da" x="40.88125" y="53.25262" style="stroke: #000000; stroke-width: 0.8"/>
      </g>
     </g>
     <g id="text_10">
      <!-- 40 -->
      <g transform="translate(21.15625 57.051838) scale(0.1 -0.1)">
       <defs>
        <path id="DejaVuSans-34" d="M 2419 4116 
L 825 1625 
L 2419 1625 
L 2419 4116 
z
M 2253 4666 
L 3047 4666 
L 3047 1625 
L 3713 1625 
L 3713 1100 
L 3047 1100 
L 3047 0 
L 2419 0 
L 2419 1100 
L 313 1100 
L 313 1709 
L 2253 4666 
z
" transform="scale(0.015625)"/>
       </defs>
       <use xlink:href="#DejaVuSans-34"/>
       <use xlink:href="#DejaVuSans-30" x="63.623047"/>
      </g>
     </g>
    </g>
    <g id="ytick_6">
     <g id="line2d_10">
      <g>
       <use xlink:href="#m78882293da" x="40.88125" y="29.947429" style="stroke: #000000; stroke-width: 0.8"/>
      </g>
     </g>
     <g id="text_11">
      <!-- 50 -->
      <g transform="translate(21.15625 33.746648) scale(0.1 -0.1)">
       <use xlink:href="#DejaVuSans-35"/>
       <use xlink:href="#DejaVuSans-30" x="63.623047"/>
      </g>
     </g>
    </g>
    <g id="text_12">
     <!-- score_time -->
     <g transform="translate(14.798438 111.983765) rotate(-90) scale(0.1 -0.1)">
      <defs>
       <path id="DejaVuSans-63" d="M 3122 3366 
L 3122 2828 
Q 2878 2963 2633 3030 
Q 2388 3097 2138 3097 
Q 1578 3097 1268 2742 
Q 959 2388 959 1747 
Q 959 1106 1268 751 
Q 1578 397 2138 397 
Q 2388 397 2633 464 
Q 2878 531 3122 666 
L 3122 134 
Q 2881 22 2623 -34 
Q 2366 -91 2075 -91 
Q 1284 -91 818 406 
Q 353 903 353 1747 
Q 353 2603 823 3093 
Q 1294 3584 2113 3584 
Q 2378 3584 2631 3529 
Q 2884 3475 3122 3366 
z
" transform="scale(0.015625)"/>
      </defs>
      <use xlink:href="#DejaVuSans-73"/>
      <use xlink:href="#DejaVuSans-63" x="52.099609"/>
      <use xlink:href="#DejaVuSans-6f" x="107.080078"/>
      <use xlink:href="#DejaVuSans-72" x="168.261719"/>
      <use xlink:href="#DejaVuSans-65" x="207.125"/>
      <use xlink:href="#DejaVuSans-5f" x="268.648438"/>
      <use xlink:href="#DejaVuSans-74" x="318.648438"/>
      <use xlink:href="#DejaVuSans-69" x="357.857422"/>
      <use xlink:href="#DejaVuSans-6d" x="385.640625"/>
      <use xlink:href="#DejaVuSans-65" x="483.052734"/>
     </g>
    </g>
   </g>
   <g id="line2d_11">
    <path d="M 47.015691 141.288839 
L 47.015691 141.356707 
" clip-path="url(#p93d202bee3)" style="fill: none; stroke: #3d3d3d; stroke-width: 1.5; stroke-linecap: square"/>
   </g>
   <g id="line2d_12">
    <path d="M 47.015691 141.184152 
L 47.015691 141.184152 
" clip-path="url(#p93d202bee3)" style="fill: none; stroke: #3d3d3d; stroke-width: 1.5; stroke-linecap: square"/>
   </g>
   <g id="line2d_13">
    <path d="M 44.009815 141.356707 
L 50.021567 141.356707 
" clip-path="url(#p93d202bee3)" style="fill: none; stroke: #3d3d3d; stroke-width: 1.5; stroke-linecap: square"/>
   </g>
   <g id="line2d_14">
    <path d="M 44.009815 141.184152 
L 50.021567 141.184152 
" clip-path="url(#p93d202bee3)" style="fill: none; stroke: #3d3d3d; stroke-width: 1.5; stroke-linecap: square"/>
   </g>
   <g id="line2d_15">
    <defs>
     <path id="m1d183e4248" d="M -0 3.535534 
L 2.12132 0 
L -0 -3.535534 
L -2.12132 -0 
z
" style="stroke: #3d3d3d; stroke-linejoin: miter"/>
    </defs>
    <g clip-path="url(#p93d202bee3)">
     <use xlink:href="#m1d183e4248" x="47.015691" y="140.932063" style="fill: #3d3d3d; stroke: #3d3d3d; stroke-linejoin: miter"/>
    </g>
   </g>
   <g id="line2d_16">
    <path d="M 59.284572 68.861401 
L 59.284572 74.77341 
" clip-path="url(#p93d202bee3)" style="fill: none; stroke: #3d3d3d; stroke-width: 1.5; stroke-linecap: square"/>
   </g>
   <g id="line2d_17">
    <path d="M 59.284572 59.934619 
L 59.284572 51.523362 
" clip-path="url(#p93d202bee3)" style="fill: none; stroke: #3d3d3d; stroke-width: 1.5; stroke-linecap: square"/>
   </g>
   <g id="line2d_18">
    <path d="M 56.278696 74.77341 
L 62.290448 74.77341 
" clip-path="url(#p93d202bee3)" style="fill: none; stroke: #3d3d3d; stroke-width: 1.5; stroke-linecap: square"/>
   </g>
   <g id="line2d_19">
    <path d="M 56.278696 51.523362 
L 62.290448 51.523362 
" clip-path="url(#p93d202bee3)" style="fill: none; stroke: #3d3d3d; stroke-width: 1.5; stroke-linecap: square"/>
   </g>
   <g id="line2d_20"/>
   <g id="line2d_21">
    <path d="M 71.553454 141.361434 
L 71.553454 141.370059 
" clip-path="url(#p93d202bee3)" style="fill: none; stroke: #3d3d3d; stroke-width: 1.5; stroke-linecap: square"/>
   </g>
   <g id="line2d_22">
    <path d="M 71.553454 141.161916 
L 71.553454 141.155531 
" clip-path="url(#p93d202bee3)" style="fill: none; stroke: #3d3d3d; stroke-width: 1.5; stroke-linecap: square"/>
   </g>
   <g id="line2d_23">
    <path d="M 68.547578 141.370059 
L 74.55933 141.370059 
" clip-path="url(#p93d202bee3)" style="fill: none; stroke: #3d3d3d; stroke-width: 1.5; stroke-linecap: square"/>
   </g>
   <g id="line2d_24">
    <path d="M 68.547578 141.155531 
L 74.55933 141.155531 
" clip-path="url(#p93d202bee3)" style="fill: none; stroke: #3d3d3d; stroke-width: 1.5; stroke-linecap: square"/>
   </g>
   <g id="line2d_25"/>
   <g id="line2d_26">
    <path d="M 83.822336 73.541563 
L 83.822336 75.423283 
" clip-path="url(#p93d202bee3)" style="fill: none; stroke: #3d3d3d; stroke-width: 1.5; stroke-linecap: square"/>
   </g>
   <g id="line2d_27">
    <path d="M 83.822336 56.080678 
L 83.822336 56.080678 
" clip-path="url(#p93d202bee3)" style="fill: none; stroke: #3d3d3d; stroke-width: 1.5; stroke-linecap: square"/>
   </g>
   <g id="line2d_28">
    <path d="M 80.81646 75.423283 
L 86.828212 75.423283 
" clip-path="url(#p93d202bee3)" style="fill: none; stroke: #3d3d3d; stroke-width: 1.5; stroke-linecap: square"/>
   </g>
   <g id="line2d_29">
    <path d="M 80.81646 56.080678 
L 86.828212 56.080678 
" clip-path="url(#p93d202bee3)" style="fill: none; stroke: #3d3d3d; stroke-width: 1.5; stroke-linecap: square"/>
   </g>
   <g id="line2d_30">
    <g clip-path="url(#p93d202bee3)">
     <use xlink:href="#m1d183e4248" x="83.822336" y="28.982396" style="fill: #3d3d3d; stroke: #3d3d3d; stroke-linejoin: miter"/>
    </g>
   </g>
   <g id="line2d_31">
    <path d="M 108.360099 141.073337 
L 108.360099 141.215583 
" clip-path="url(#p93d202bee3)" style="fill: none; stroke: #3d3d3d; stroke-width: 1.5; stroke-linecap: square"/>
   </g>
   <g id="line2d_32">
    <path d="M 108.360099 140.968152 
L 108.360099 140.941283 
" clip-path="url(#p93d202bee3)" style="fill: none; stroke: #3d3d3d; stroke-width: 1.5; stroke-linecap: square"/>
   </g>
   <g id="line2d_33">
    <path d="M 105.354223 141.215583 
L 111.365975 141.215583 
" clip-path="url(#p93d202bee3)" style="fill: none; stroke: #3d3d3d; stroke-width: 1.5; stroke-linecap: square"/>
   </g>
   <g id="line2d_34">
    <path d="M 105.354223 140.941283 
L 111.365975 140.941283 
" clip-path="url(#p93d202bee3)" style="fill: none; stroke: #3d3d3d; stroke-width: 1.5; stroke-linecap: square"/>
   </g>
   <g id="line2d_35"/>
   <g id="line2d_36">
    <path d="M 120.62898 53.571765 
L 120.62898 53.571765 
" clip-path="url(#p93d202bee3)" style="fill: none; stroke: #3d3d3d; stroke-width: 1.5; stroke-linecap: square"/>
   </g>
   <g id="line2d_37">
    <path d="M 120.62898 48.004707 
L 120.62898 46.424901 
" clip-path="url(#p93d202bee3)" style="fill: none; stroke: #3d3d3d; stroke-width: 1.5; stroke-linecap: square"/>
   </g>
   <g id="line2d_38">
    <path d="M 117.623104 53.571765 
L 123.634856 53.571765 
" clip-path="url(#p93d202bee3)" style="fill: none; stroke: #3d3d3d; stroke-width: 1.5; stroke-linecap: square"/>
   </g>
   <g id="line2d_39">
    <path d="M 117.623104 46.424901 
L 123.634856 46.424901 
" clip-path="url(#p93d202bee3)" style="fill: none; stroke: #3d3d3d; stroke-width: 1.5; stroke-linecap: square"/>
   </g>
   <g id="line2d_40">
    <g clip-path="url(#p93d202bee3)">
     <use xlink:href="#m1d183e4248" x="120.62898" y="67.719342" style="fill: #3d3d3d; stroke: #3d3d3d; stroke-linejoin: miter"/>
    </g>
   </g>
   <g id="line2d_41">
    <path d="M 132.897862 141.17416 
L 132.897862 141.17972 
" clip-path="url(#p93d202bee3)" style="fill: none; stroke: #3d3d3d; stroke-width: 1.5; stroke-linecap: square"/>
   </g>
   <g id="line2d_42">
    <path d="M 132.897862 141.009036 
L 132.897862 141.009036 
" clip-path="url(#p93d202bee3)" style="fill: none; stroke: #3d3d3d; stroke-width: 1.5; stroke-linecap: square"/>
   </g>
   <g id="line2d_43">
    <path d="M 129.891986 141.17972 
L 135.903738 141.17972 
" clip-path="url(#p93d202bee3)" style="fill: none; stroke: #3d3d3d; stroke-width: 1.5; stroke-linecap: square"/>
   </g>
   <g id="line2d_44">
    <path d="M 129.891986 141.009036 
L 135.903738 141.009036 
" clip-path="url(#p93d202bee3)" style="fill: none; stroke: #3d3d3d; stroke-width: 1.5; stroke-linecap: square"/>
   </g>
   <g id="line2d_45">
    <g clip-path="url(#p93d202bee3)">
     <use xlink:href="#m1d183e4248" x="132.897862" y="140.46191" style="fill: #3d3d3d; stroke: #3d3d3d; stroke-linejoin: miter"/>
    </g>
   </g>
   <g id="line2d_46">
    <path d="M 145.166743 52.687795 
L 145.166743 52.687795 
" clip-path="url(#p93d202bee3)" style="fill: none; stroke: #3d3d3d; stroke-width: 1.5; stroke-linecap: square"/>
   </g>
   <g id="line2d_47">
    <path d="M 145.166743 41.41626 
L 145.166743 40.760035 
" clip-path="url(#p93d202bee3)" style="fill: none; stroke: #3d3d3d; stroke-width: 1.5; stroke-linecap: square"/>
   </g>
   <g id="line2d_48">
    <path d="M 142.160867 52.687795 
L 148.172619 52.687795 
" clip-path="url(#p93d202bee3)" style="fill: none; stroke: #3d3d3d; stroke-width: 1.5; stroke-linecap: square"/>
   </g>
   <g id="line2d_49">
    <path d="M 142.160867 40.760035 
L 148.172619 40.760035 
" clip-path="url(#p93d202bee3)" style="fill: none; stroke: #3d3d3d; stroke-width: 1.5; stroke-linecap: square"/>
   </g>
   <g id="line2d_50">
    <g clip-path="url(#p93d202bee3)">
     <use xlink:href="#m1d183e4248" x="145.166743" y="70.291936" style="fill: #3d3d3d; stroke: #3d3d3d; stroke-linejoin: miter"/>
    </g>
   </g>
   <g id="line2d_51">
    <path d="M 169.704507 141.187117 
L 169.704507 141.32855 
" clip-path="url(#p93d202bee3)" style="fill: none; stroke: #3d3d3d; stroke-width: 1.5; stroke-linecap: square"/>
   </g>
   <g id="line2d_52">
    <path d="M 169.704507 140.674941 
L 169.704507 140.674941 
" clip-path="url(#p93d202bee3)" style="fill: none; stroke: #3d3d3d; stroke-width: 1.5; stroke-linecap: square"/>
   </g>
   <g id="line2d_53">
    <path d="M 166.698631 141.32855 
L 172.710383 141.32855 
" clip-path="url(#p93d202bee3)" style="fill: none; stroke: #3d3d3d; stroke-width: 1.5; stroke-linecap: square"/>
   </g>
   <g id="line2d_54">
    <path d="M 166.698631 140.674941 
L 172.710383 140.674941 
" clip-path="url(#p93d202bee3)" style="fill: none; stroke: #3d3d3d; stroke-width: 1.5; stroke-linecap: square"/>
   </g>
   <g id="line2d_55">
    <g clip-path="url(#p93d202bee3)">
     <use xlink:href="#m1d183e4248" x="169.704507" y="139.852426" style="fill: #3d3d3d; stroke: #3d3d3d; stroke-linejoin: miter"/>
    </g>
   </g>
   <g id="line2d_56">
    <path d="M 181.973388 69.963012 
L 181.973388 71.520251 
" clip-path="url(#p93d202bee3)" style="fill: none; stroke: #3d3d3d; stroke-width: 1.5; stroke-linecap: square"/>
   </g>
   <g id="line2d_57">
    <path d="M 181.973388 62.9469 
L 181.973388 62.9469 
" clip-path="url(#p93d202bee3)" style="fill: none; stroke: #3d3d3d; stroke-width: 1.5; stroke-linecap: square"/>
   </g>
   <g id="line2d_58">
    <path d="M 178.967512 71.520251 
L 184.979264 71.520251 
" clip-path="url(#p93d202bee3)" style="fill: none; stroke: #3d3d3d; stroke-width: 1.5; stroke-linecap: square"/>
   </g>
   <g id="line2d_59">
    <path d="M 178.967512 62.9469 
L 184.979264 62.9469 
" clip-path="url(#p93d202bee3)" style="fill: none; stroke: #3d3d3d; stroke-width: 1.5; stroke-linecap: square"/>
   </g>
   <g id="line2d_60">
    <g clip-path="url(#p93d202bee3)">
     <use xlink:href="#m1d183e4248" x="181.973388" y="36.708858" style="fill: #3d3d3d; stroke: #3d3d3d; stroke-linejoin: miter"/>
    </g>
   </g>
   <g id="line2d_61">
    <path d="M 194.24227 141.410515 
L 194.24227 141.562583 
" clip-path="url(#p93d202bee3)" style="fill: none; stroke: #3d3d3d; stroke-width: 1.5; stroke-linecap: square"/>
   </g>
   <g id="line2d_62">
    <path d="M 194.24227 141.008227 
L 194.24227 140.693808 
" clip-path="url(#p93d202bee3)" style="fill: none; stroke: #3d3d3d; stroke-width: 1.5; stroke-linecap: square"/>
   </g>
   <g id="line2d_63">
    <path d="M 191.236394 141.562583 
L 197.248146 141.562583 
" clip-path="url(#p93d202bee3)" style="fill: none; stroke: #3d3d3d; stroke-width: 1.5; stroke-linecap: square"/>
   </g>
   <g id="line2d_64">
    <path d="M 191.236394 140.693808 
L 197.248146 140.693808 
" clip-path="url(#p93d202bee3)" style="fill: none; stroke: #3d3d3d; stroke-width: 1.5; stroke-linecap: square"/>
   </g>
   <g id="line2d_65"/>
   <g id="line2d_66">
    <path d="M 206.511151 65.526625 
L 206.511151 66.455435 
" clip-path="url(#p93d202bee3)" style="fill: none; stroke: #3d3d3d; stroke-width: 1.5; stroke-linecap: square"/>
   </g>
   <g id="line2d_67">
    <path d="M 206.511151 52.258947 
L 206.511151 49.898352 
" clip-path="url(#p93d202bee3)" style="fill: none; stroke: #3d3d3d; stroke-width: 1.5; stroke-linecap: square"/>
   </g>
   <g id="line2d_68">
    <path d="M 203.505275 66.455435 
L 209.517027 66.455435 
" clip-path="url(#p93d202bee3)" style="fill: none; stroke: #3d3d3d; stroke-width: 1.5; stroke-linecap: square"/>
   </g>
   <g id="line2d_69">
    <path d="M 203.505275 49.898352 
L 209.517027 49.898352 
" clip-path="url(#p93d202bee3)" style="fill: none; stroke: #3d3d3d; stroke-width: 1.5; stroke-linecap: square"/>
   </g>
   <g id="line2d_70"/>
   <g id="line2d_71">
    <path d="M 231.048914 141.184091 
L 231.048914 141.276354 
" clip-path="url(#p93d202bee3)" style="fill: none; stroke: #3d3d3d; stroke-width: 1.5; stroke-linecap: square"/>
   </g>
   <g id="line2d_72">
    <path d="M 231.048914 141.038215 
L 231.048914 140.980876 
" clip-path="url(#p93d202bee3)" style="fill: none; stroke: #3d3d3d; stroke-width: 1.5; stroke-linecap: square"/>
   </g>
   <g id="line2d_73">
    <path d="M 228.043038 141.276354 
L 234.05479 141.276354 
" clip-path="url(#p93d202bee3)" style="fill: none; stroke: #3d3d3d; stroke-width: 1.5; stroke-linecap: square"/>
   </g>
   <g id="line2d_74">
    <path d="M 228.043038 140.980876 
L 234.05479 140.980876 
" clip-path="url(#p93d202bee3)" style="fill: none; stroke: #3d3d3d; stroke-width: 1.5; stroke-linecap: square"/>
   </g>
   <g id="line2d_75"/>
   <g id="line2d_76">
    <path d="M 243.317796 87.12531 
L 243.317796 89.213352 
" clip-path="url(#p93d202bee3)" style="fill: none; stroke: #3d3d3d; stroke-width: 1.5; stroke-linecap: square"/>
   </g>
   <g id="line2d_77">
    <path d="M 243.317796 84.730077 
L 243.317796 83.844558 
" clip-path="url(#p93d202bee3)" style="fill: none; stroke: #3d3d3d; stroke-width: 1.5; stroke-linecap: square"/>
   </g>
   <g id="line2d_78">
    <path d="M 240.31192 89.213352 
L 246.323672 89.213352 
" clip-path="url(#p93d202bee3)" style="fill: none; stroke: #3d3d3d; stroke-width: 1.5; stroke-linecap: square"/>
   </g>
   <g id="line2d_79">
    <path d="M 240.31192 83.844558 
L 246.323672 83.844558 
" clip-path="url(#p93d202bee3)" style="fill: none; stroke: #3d3d3d; stroke-width: 1.5; stroke-linecap: square"/>
   </g>
   <g id="line2d_80"/>
   <g id="line2d_81">
    <path d="M 255.586678 141.368847 
L 255.586678 141.382356 
" clip-path="url(#p93d202bee3)" style="fill: none; stroke: #3d3d3d; stroke-width: 1.5; stroke-linecap: square"/>
   </g>
   <g id="line2d_82">
    <path d="M 255.586678 141.179417 
L 255.586678 141.062184 
" clip-path="url(#p93d202bee3)" style="fill: none; stroke: #3d3d3d; stroke-width: 1.5; stroke-linecap: square"/>
   </g>
   <g id="line2d_83">
    <path d="M 252.580802 141.382356 
L 258.592554 141.382356 
" clip-path="url(#p93d202bee3)" style="fill: none; stroke: #3d3d3d; stroke-width: 1.5; stroke-linecap: square"/>
   </g>
   <g id="line2d_84">
    <path d="M 252.580802 141.062184 
L 258.592554 141.062184 
" clip-path="url(#p93d202bee3)" style="fill: none; stroke: #3d3d3d; stroke-width: 1.5; stroke-linecap: square"/>
   </g>
   <g id="line2d_85"/>
   <g id="line2d_86">
    <path d="M 267.855559 83.224739 
L 267.855559 84.540584 
" clip-path="url(#p93d202bee3)" style="fill: none; stroke: #3d3d3d; stroke-width: 1.5; stroke-linecap: square"/>
   </g>
   <g id="line2d_87">
    <path d="M 267.855559 81.066856 
L 267.855559 81.066856 
" clip-path="url(#p93d202bee3)" style="fill: none; stroke: #3d3d3d; stroke-width: 1.5; stroke-linecap: square"/>
   </g>
   <g id="line2d_88">
    <path d="M 264.849683 84.540584 
L 270.861435 84.540584 
" clip-path="url(#p93d202bee3)" style="fill: none; stroke: #3d3d3d; stroke-width: 1.5; stroke-linecap: square"/>
   </g>
   <g id="line2d_89">
    <path d="M 264.849683 81.066856 
L 270.861435 81.066856 
" clip-path="url(#p93d202bee3)" style="fill: none; stroke: #3d3d3d; stroke-width: 1.5; stroke-linecap: square"/>
   </g>
   <g id="line2d_90">
    <g clip-path="url(#p93d202bee3)">
     <use xlink:href="#m1d183e4248" x="267.855559" y="76.140659" style="fill: #3d3d3d; stroke: #3d3d3d; stroke-linejoin: miter"/>
    </g>
   </g>
   <g id="line2d_91">
    <path d="M 255.586678 66.848922 
L 255.586678 64.372158 
L 267.855559 64.372158 
L 267.855559 66.848922 
" clip-path="url(#p93d202bee3)" style="fill: none; stroke: #333333; stroke-width: 1.5; stroke-linecap: square"/>
   </g>
   <g id="line2d_92">
    <path d="M 41.003939 141.285948 
L 53.027443 141.285948 
" clip-path="url(#p93d202bee3)" style="fill: none; stroke: #3d3d3d; stroke-width: 1.5; stroke-linecap: square"/>
   </g>
   <g id="line2d_93">
    <path d="M 53.27282 68.608243 
L 65.296324 68.608243 
" clip-path="url(#p93d202bee3)" style="fill: none; stroke: #3d3d3d; stroke-width: 1.5; stroke-linecap: square"/>
   </g>
   <g id="line2d_94">
    <path d="M 65.541702 141.165629 
L 77.565206 141.165629 
" clip-path="url(#p93d202bee3)" style="fill: none; stroke: #3d3d3d; stroke-width: 1.5; stroke-linecap: square"/>
   </g>
   <g id="line2d_95">
    <path d="M 77.810584 62.915279 
L 89.834087 62.915279 
" clip-path="url(#p93d202bee3)" style="fill: none; stroke: #3d3d3d; stroke-width: 1.5; stroke-linecap: square"/>
   </g>
   <g id="line2d_96">
    <path d="M 102.348347 141.01083 
L 114.371851 141.01083 
" clip-path="url(#p93d202bee3)" style="fill: none; stroke: #3d3d3d; stroke-width: 1.5; stroke-linecap: square"/>
   </g>
   <g id="line2d_97">
    <path d="M 114.617228 50.371683 
L 126.640732 50.371683 
" clip-path="url(#p93d202bee3)" style="fill: none; stroke: #3d3d3d; stroke-width: 1.5; stroke-linecap: square"/>
   </g>
   <g id="line2d_98">
    <path d="M 126.88611 141.145328 
L 138.909614 141.145328 
" clip-path="url(#p93d202bee3)" style="fill: none; stroke: #3d3d3d; stroke-width: 1.5; stroke-linecap: square"/>
   </g>
   <g id="line2d_99">
    <path d="M 139.154991 50.953769 
L 151.178495 50.953769 
" clip-path="url(#p93d202bee3)" style="fill: none; stroke: #3d3d3d; stroke-width: 1.5; stroke-linecap: square"/>
   </g>
   <g id="line2d_100">
    <path d="M 163.692755 141.038853 
L 175.716259 141.038853 
" clip-path="url(#p93d202bee3)" style="fill: none; stroke: #3d3d3d; stroke-width: 1.5; stroke-linecap: square"/>
   </g>
   <g id="line2d_101">
    <path d="M 175.961636 69.730317 
L 187.98514 69.730317 
" clip-path="url(#p93d202bee3)" style="fill: none; stroke: #3d3d3d; stroke-width: 1.5; stroke-linecap: square"/>
   </g>
   <g id="line2d_102">
    <path d="M 188.230518 141.014151 
L 200.254022 141.014151 
" clip-path="url(#p93d202bee3)" style="fill: none; stroke: #3d3d3d; stroke-width: 1.5; stroke-linecap: square"/>
   </g>
   <g id="line2d_103">
    <path d="M 200.499399 53.97369 
L 212.522903 53.97369 
" clip-path="url(#p93d202bee3)" style="fill: none; stroke: #3d3d3d; stroke-width: 1.5; stroke-linecap: square"/>
   </g>
   <g id="line2d_104">
    <path d="M 225.037162 141.121655 
L 237.060666 141.121655 
" clip-path="url(#p93d202bee3)" style="fill: none; stroke: #3d3d3d; stroke-width: 1.5; stroke-linecap: square"/>
   </g>
   <g id="line2d_105">
    <path d="M 237.306044 87.092199 
L 249.329548 87.092199 
" clip-path="url(#p93d202bee3)" style="fill: none; stroke: #3d3d3d; stroke-width: 1.5; stroke-linecap: square"/>
   </g>
   <g id="line2d_106">
    <path d="M 249.574926 141.344886 
L 261.59843 141.344886 
" clip-path="url(#p93d202bee3)" style="fill: none; stroke: #3d3d3d; stroke-width: 1.5; stroke-linecap: square"/>
   </g>
   <g id="line2d_107">
    <path d="M 261.843807 82.12876 
L 273.867311 82.12876 
" clip-path="url(#p93d202bee3)" style="fill: none; stroke: #3d3d3d; stroke-width: 1.5; stroke-linecap: square"/>
   </g>
   <g id="patch_23">
    <path d="M 40.88125 147.191593 
L 40.88125 22.318125 
" style="fill: none; stroke: #000000; stroke-width: 0.8; stroke-linejoin: miter; stroke-linecap: square"/>
   </g>
   <g id="patch_24">
    <path d="M 273.99 147.191593 
L 273.99 22.318125 
" style="fill: none; stroke: #000000; stroke-width: 0.8; stroke-linejoin: miter; stroke-linecap: square"/>
   </g>
   <g id="patch_25">
    <path d="M 40.88125 147.191593 
L 273.99 147.191593 
" style="fill: none; stroke: #000000; stroke-width: 0.8; stroke-linejoin: miter; stroke-linecap: square"/>
   </g>
   <g id="patch_26">
    <path d="M 40.88125 22.318125 
L 273.99 22.318125 
" style="fill: none; stroke: #000000; stroke-width: 0.8; stroke-linejoin: miter; stroke-linecap: square"/>
   </g>
   <g id="PathCollection_1">
    <defs>
     <path id="C0_0_4c619d3882" d="M 0 1.5 
C 0.397805 1.5 0.77937 1.341951 1.06066 1.06066 
C 1.341951 0.77937 1.5 0.397805 1.5 -0 
C 1.5 -0.397805 1.341951 -0.77937 1.06066 -1.06066 
C 0.77937 -1.341951 0.397805 -1.5 0 -1.5 
C -0.397805 -1.5 -0.77937 -1.341951 -1.06066 -1.06066 
C -1.341951 -0.77937 -1.5 -0.397805 -1.5 0 
C -1.5 0.397805 -1.341951 0.77937 -1.06066 1.06066 
C -0.77937 1.341951 -0.397805 1.5 0 1.5 
z
"/>
    </defs>
    <g clip-path="url(#p93d202bee3)">
     <use xlink:href="#C0_0_4c619d3882" x="48.297983" y="141.184152" style="fill: #262626"/>
    </g>
    <g clip-path="url(#p93d202bee3)">
     <use xlink:href="#C0_0_4c619d3882" x="45.614942" y="141.288839" style="fill: #262626"/>
    </g>
    <g clip-path="url(#p93d202bee3)">
     <use xlink:href="#C0_0_4c619d3882" x="46.140084" y="141.356707" style="fill: #262626"/>
    </g>
    <g clip-path="url(#p93d202bee3)">
     <use xlink:href="#C0_0_4c619d3882" x="45.739549" y="141.285948" style="fill: #262626"/>
    </g>
    <g clip-path="url(#p93d202bee3)">
     <use xlink:href="#C0_0_4c619d3882" x="46.839104" y="140.932063" style="fill: #262626"/>
    </g>
   </g>
   <g id="PathCollection_2">
    <defs>
     <path id="C1_0_16ff312c5e" d="M 0 1.5 
C 0.397805 1.5 0.77937 1.341951 1.06066 1.06066 
C 1.341951 0.77937 1.5 0.397805 1.5 -0 
C 1.5 -0.397805 1.341951 -0.77937 1.06066 -1.06066 
C 0.77937 -1.341951 0.397805 -1.5 0 -1.5 
C -0.397805 -1.5 -0.77937 -1.341951 -1.06066 -1.06066 
C -1.341951 -0.77937 -1.5 -0.397805 -1.5 0 
C -1.5 0.397805 -1.341951 0.77937 -1.06066 1.06066 
C -0.77937 1.341951 -0.397805 1.5 0 1.5 
z
"/>
    </defs>
    <g clip-path="url(#p93d202bee3)">
     <use xlink:href="#C1_0_16ff312c5e" x="60.581528" y="68.608243" style="fill: #191919"/>
    </g>
    <g clip-path="url(#p93d202bee3)">
     <use xlink:href="#C1_0_16ff312c5e" x="60.116484" y="51.523362" style="fill: #191919"/>
    </g>
    <g clip-path="url(#p93d202bee3)">
     <use xlink:href="#C1_0_16ff312c5e" x="59.24123" y="68.861401" style="fill: #191919"/>
    </g>
    <g clip-path="url(#p93d202bee3)">
     <use xlink:href="#C1_0_16ff312c5e" x="60.596181" y="59.934619" style="fill: #191919"/>
    </g>
    <g clip-path="url(#p93d202bee3)">
     <use xlink:href="#C1_0_16ff312c5e" x="60.818012" y="74.77341" style="fill: #191919"/>
    </g>
   </g>
   <g id="PathCollection_3">
    <defs>
     <path id="C2_0_11b3e5d050" d="M 0 1.5 
C 0.397805 1.5 0.77937 1.341951 1.06066 1.06066 
C 1.341951 0.77937 1.5 0.397805 1.5 -0 
C 1.5 -0.397805 1.341951 -0.77937 1.06066 -1.06066 
C 0.77937 -1.341951 0.397805 -1.5 0 -1.5 
C -0.397805 -1.5 -0.77937 -1.341951 -1.06066 -1.06066 
C -1.341951 -0.77937 -1.5 -0.397805 -1.5 0 
C -1.5 0.397805 -1.341951 0.77937 -1.06066 1.06066 
C -0.77937 1.341951 -0.397805 1.5 0 1.5 
z
"/>
    </defs>
    <g clip-path="url(#p93d202bee3)">
     <use xlink:href="#C2_0_11b3e5d050" x="70.778021" y="141.161916" style="fill: #0d0d0d"/>
    </g>
    <g clip-path="url(#p93d202bee3)">
     <use xlink:href="#C2_0_11b3e5d050" x="70.403339" y="141.370059" style="fill: #0d0d0d"/>
    </g>
    <g clip-path="url(#p93d202bee3)">
     <use xlink:href="#C2_0_11b3e5d050" x="70.768844" y="141.155531" style="fill: #0d0d0d"/>
    </g>
    <g clip-path="url(#p93d202bee3)">
     <use xlink:href="#C2_0_11b3e5d050" x="72.573165" y="141.361434" style="fill: #0d0d0d"/>
    </g>
    <g clip-path="url(#p93d202bee3)">
     <use xlink:href="#C2_0_11b3e5d050" x="71.516706" y="141.165629" style="fill: #0d0d0d"/>
    </g>
   </g>
   <g id="PathCollection_4">
    <defs>
     <path id="C3_0_fd05e7a4a9" d="M 0 1.5 
C 0.397805 1.5 0.77937 1.341951 1.06066 1.06066 
C 1.341951 0.77937 1.5 0.397805 1.5 -0 
C 1.5 -0.397805 1.341951 -0.77937 1.06066 -1.06066 
C 0.77937 -1.341951 0.397805 -1.5 0 -1.5 
C -0.397805 -1.5 -0.77937 -1.341951 -1.06066 -1.06066 
C -1.341951 -0.77937 -1.5 -0.397805 -1.5 0 
C -1.5 0.397805 -1.341951 0.77937 -1.06066 1.06066 
C -0.77937 1.341951 -0.397805 1.5 0 1.5 
z
"/>
    </defs>
    <g clip-path="url(#p93d202bee3)">
     <use xlink:href="#C3_0_fd05e7a4a9" x="83.546114" y="28.982396"/>
    </g>
    <g clip-path="url(#p93d202bee3)">
     <use xlink:href="#C3_0_fd05e7a4a9" x="84.410553" y="75.423283"/>
    </g>
    <g clip-path="url(#p93d202bee3)">
     <use xlink:href="#C3_0_fd05e7a4a9" x="83.335186" y="56.080678"/>
    </g>
    <g clip-path="url(#p93d202bee3)">
     <use xlink:href="#C3_0_fd05e7a4a9" x="82.468617" y="62.915279"/>
    </g>
    <g clip-path="url(#p93d202bee3)">
     <use xlink:href="#C3_0_fd05e7a4a9" x="84.166097" y="73.541563"/>
    </g>
   </g>
   <g id="PathCollection_5">
    <defs>
     <path id="C4_0_89ab69a232" d="M 0 1.5 
C 0.397805 1.5 0.77937 1.341951 1.06066 1.06066 
C 1.341951 0.77937 1.5 0.397805 1.5 -0 
C 1.5 -0.397805 1.341951 -0.77937 1.06066 -1.06066 
C 0.77937 -1.341951 0.397805 -1.5 0 -1.5 
C -0.397805 -1.5 -0.77937 -1.341951 -1.06066 -1.06066 
C -1.341951 -0.77937 -1.5 -0.397805 -1.5 0 
C -1.5 0.397805 -1.341951 0.77937 -1.06066 1.06066 
C -0.77937 1.341951 -0.397805 1.5 0 1.5 
z
"/>
    </defs>
    <g clip-path="url(#p93d202bee3)">
     <use xlink:href="#C4_0_89ab69a232" x="109.182807" y="141.215583" style="fill: #262626"/>
    </g>
    <g clip-path="url(#p93d202bee3)">
     <use xlink:href="#C4_0_89ab69a232" x="107.38628" y="140.941283" style="fill: #262626"/>
    </g>
    <g clip-path="url(#p93d202bee3)">
     <use xlink:href="#C4_0_89ab69a232" x="107.59879" y="140.968152" style="fill: #262626"/>
    </g>
    <g clip-path="url(#p93d202bee3)">
     <use xlink:href="#C4_0_89ab69a232" x="107.91468" y="141.01083" style="fill: #262626"/>
    </g>
    <g clip-path="url(#p93d202bee3)">
     <use xlink:href="#C4_0_89ab69a232" x="108.412713" y="141.073337" style="fill: #262626"/>
    </g>
   </g>
   <g id="PathCollection_6">
    <defs>
     <path id="C5_0_cea770eb24" d="M 0 1.5 
C 0.397805 1.5 0.77937 1.341951 1.06066 1.06066 
C 1.341951 0.77937 1.5 0.397805 1.5 -0 
C 1.5 -0.397805 1.341951 -0.77937 1.06066 -1.06066 
C 0.77937 -1.341951 0.397805 -1.5 0 -1.5 
C -0.397805 -1.5 -0.77937 -1.341951 -1.06066 -1.06066 
C -1.341951 -0.77937 -1.5 -0.397805 -1.5 0 
C -1.5 0.397805 -1.341951 0.77937 -1.06066 1.06066 
C -0.77937 1.341951 -0.397805 1.5 0 1.5 
z
"/>
    </defs>
    <g clip-path="url(#p93d202bee3)">
     <use xlink:href="#C5_0_cea770eb24" x="120.240114" y="50.371683" style="fill: #191919"/>
    </g>
    <g clip-path="url(#p93d202bee3)">
     <use xlink:href="#C5_0_cea770eb24" x="120.067023" y="46.424901" style="fill: #191919"/>
    </g>
    <g clip-path="url(#p93d202bee3)">
     <use xlink:href="#C5_0_cea770eb24" x="121.073835" y="48.004707" style="fill: #191919"/>
    </g>
    <g clip-path="url(#p93d202bee3)">
     <use xlink:href="#C5_0_cea770eb24" x="119.993054" y="53.571765" style="fill: #191919"/>
    </g>
    <g clip-path="url(#p93d202bee3)">
     <use xlink:href="#C5_0_cea770eb24" x="119.645882" y="67.719342" style="fill: #191919"/>
    </g>
   </g>
   <g id="PathCollection_7">
    <defs>
     <path id="C6_0_f493b02e52" d="M 0 1.5 
C 0.397805 1.5 0.77937 1.341951 1.06066 1.06066 
C 1.341951 0.77937 1.5 0.397805 1.5 -0 
C 1.5 -0.397805 1.341951 -0.77937 1.06066 -1.06066 
C 0.77937 -1.341951 0.397805 -1.5 0 -1.5 
C -0.397805 -1.5 -0.77937 -1.341951 -1.06066 -1.06066 
C -1.341951 -0.77937 -1.5 -0.397805 -1.5 0 
C -1.5 0.397805 -1.341951 0.77937 -1.06066 1.06066 
C -0.77937 1.341951 -0.397805 1.5 0 1.5 
z
"/>
    </defs>
    <g clip-path="url(#p93d202bee3)">
     <use xlink:href="#C6_0_f493b02e52" x="133.213762" y="141.145328" style="fill: #0d0d0d"/>
    </g>
    <g clip-path="url(#p93d202bee3)">
     <use xlink:href="#C6_0_f493b02e52" x="132.179645" y="141.17416" style="fill: #0d0d0d"/>
    </g>
    <g clip-path="url(#p93d202bee3)">
     <use xlink:href="#C6_0_f493b02e52" x="132.853634" y="141.17972" style="fill: #0d0d0d"/>
    </g>
    <g clip-path="url(#p93d202bee3)">
     <use xlink:href="#C6_0_f493b02e52" x="132.76795" y="140.46191" style="fill: #0d0d0d"/>
    </g>
    <g clip-path="url(#p93d202bee3)">
     <use xlink:href="#C6_0_f493b02e52" x="133.695038" y="141.009036" style="fill: #0d0d0d"/>
    </g>
   </g>
   <g id="PathCollection_8">
    <defs>
     <path id="C7_0_c6a4c41bf2" d="M 0 1.5 
C 0.397805 1.5 0.77937 1.341951 1.06066 1.06066 
C 1.341951 0.77937 1.5 0.397805 1.5 -0 
C 1.5 -0.397805 1.341951 -0.77937 1.06066 -1.06066 
C 0.77937 -1.341951 0.397805 -1.5 0 -1.5 
C -0.397805 -1.5 -0.77937 -1.341951 -1.06066 -1.06066 
C -1.341951 -0.77937 -1.5 -0.397805 -1.5 0 
C -1.5 0.397805 -1.341951 0.77937 -1.06066 1.06066 
C -0.77937 1.341951 -0.397805 1.5 0 1.5 
z
"/>
    </defs>
    <g clip-path="url(#p93d202bee3)">
     <use xlink:href="#C7_0_c6a4c41bf2" x="144.048154" y="50.953769"/>
    </g>
    <g clip-path="url(#p93d202bee3)">
     <use xlink:href="#C7_0_c6a4c41bf2" x="144.391648" y="52.687795"/>
    </g>
    <g clip-path="url(#p93d202bee3)">
     <use xlink:href="#C7_0_c6a4c41bf2" x="145.304462" y="41.41626"/>
    </g>
    <g clip-path="url(#p93d202bee3)">
     <use xlink:href="#C7_0_c6a4c41bf2" x="146.233902" y="40.760035"/>
    </g>
    <g clip-path="url(#p93d202bee3)">
     <use xlink:href="#C7_0_c6a4c41bf2" x="145.741536" y="70.291936"/>
    </g>
   </g>
   <g id="PathCollection_9">
    <defs>
     <path id="C8_0_d8999ac96b" d="M 0 1.5 
C 0.397805 1.5 0.77937 1.341951 1.06066 1.06066 
C 1.341951 0.77937 1.5 0.397805 1.5 -0 
C 1.5 -0.397805 1.341951 -0.77937 1.06066 -1.06066 
C 0.77937 -1.341951 0.397805 -1.5 0 -1.5 
C -0.397805 -1.5 -0.77937 -1.341951 -1.06066 -1.06066 
C -1.341951 -0.77937 -1.5 -0.397805 -1.5 0 
C -1.5 0.397805 -1.341951 0.77937 -1.06066 1.06066 
C -0.77937 1.341951 -0.397805 1.5 0 1.5 
z
"/>
    </defs>
    <g clip-path="url(#p93d202bee3)">
     <use xlink:href="#C8_0_d8999ac96b" x="170.977116" y="141.038853" style="fill: #262626"/>
    </g>
    <g clip-path="url(#p93d202bee3)">
     <use xlink:href="#C8_0_d8999ac96b" x="171.022211" y="141.187117" style="fill: #262626"/>
    </g>
    <g clip-path="url(#p93d202bee3)">
     <use xlink:href="#C8_0_d8999ac96b" x="170.989145" y="140.674941" style="fill: #262626"/>
    </g>
    <g clip-path="url(#p93d202bee3)">
     <use xlink:href="#C8_0_d8999ac96b" x="171.115422" y="139.852426" style="fill: #262626"/>
    </g>
    <g clip-path="url(#p93d202bee3)">
     <use xlink:href="#C8_0_d8999ac96b" x="171.237763" y="141.32855" style="fill: #262626"/>
    </g>
   </g>
   <g id="PathCollection_10">
    <defs>
     <path id="C9_0_22399d2a87" d="M 0 1.5 
C 0.397805 1.5 0.77937 1.341951 1.06066 1.06066 
C 1.341951 0.77937 1.5 0.397805 1.5 -0 
C 1.5 -0.397805 1.341951 -0.77937 1.06066 -1.06066 
C 0.77937 -1.341951 0.397805 -1.5 0 -1.5 
C -0.397805 -1.5 -0.77937 -1.341951 -1.06066 -1.06066 
C -1.341951 -0.77937 -1.5 -0.397805 -1.5 0 
C -1.5 0.397805 -1.341951 0.77937 -1.06066 1.06066 
C -0.77937 1.341951 -0.397805 1.5 0 1.5 
z
"/>
    </defs>
    <g clip-path="url(#p93d202bee3)">
     <use xlink:href="#C9_0_22399d2a87" x="182.540656" y="36.708858" style="fill: #191919"/>
    </g>
    <g clip-path="url(#p93d202bee3)">
     <use xlink:href="#C9_0_22399d2a87" x="182.083495" y="71.520251" style="fill: #191919"/>
    </g>
    <g clip-path="url(#p93d202bee3)">
     <use xlink:href="#C9_0_22399d2a87" x="182.526348" y="69.963012" style="fill: #191919"/>
    </g>
    <g clip-path="url(#p93d202bee3)">
     <use xlink:href="#C9_0_22399d2a87" x="182.586023" y="62.9469" style="fill: #191919"/>
    </g>
    <g clip-path="url(#p93d202bee3)">
     <use xlink:href="#C9_0_22399d2a87" x="180.65042" y="69.730317" style="fill: #191919"/>
    </g>
   </g>
   <g id="PathCollection_11">
    <defs>
     <path id="Ca_0_77a9c6d7f0" d="M 0 1.5 
C 0.397805 1.5 0.77937 1.341951 1.06066 1.06066 
C 1.341951 0.77937 1.5 0.397805 1.5 -0 
C 1.5 -0.397805 1.341951 -0.77937 1.06066 -1.06066 
C 0.77937 -1.341951 0.397805 -1.5 0 -1.5 
C -0.397805 -1.5 -0.77937 -1.341951 -1.06066 -1.06066 
C -1.341951 -0.77937 -1.5 -0.397805 -1.5 0 
C -1.5 0.397805 -1.341951 0.77937 -1.06066 1.06066 
C -0.77937 1.341951 -0.397805 1.5 0 1.5 
z
"/>
    </defs>
    <g clip-path="url(#p93d202bee3)">
     <use xlink:href="#Ca_0_77a9c6d7f0" x="194.792072" y="141.562583" style="fill: #0d0d0d"/>
    </g>
    <g clip-path="url(#p93d202bee3)">
     <use xlink:href="#Ca_0_77a9c6d7f0" x="194.574547" y="141.410515" style="fill: #0d0d0d"/>
    </g>
    <g clip-path="url(#p93d202bee3)">
     <use xlink:href="#Ca_0_77a9c6d7f0" x="194.495001" y="141.008227" style="fill: #0d0d0d"/>
    </g>
    <g clip-path="url(#p93d202bee3)">
     <use xlink:href="#Ca_0_77a9c6d7f0" x="193.222304" y="141.014151" style="fill: #0d0d0d"/>
    </g>
    <g clip-path="url(#p93d202bee3)">
     <use xlink:href="#Ca_0_77a9c6d7f0" x="192.805189" y="140.693808" style="fill: #0d0d0d"/>
    </g>
   </g>
   <g id="PathCollection_12">
    <defs>
     <path id="Cb_0_0c3cce9d56" d="M 0 1.5 
C 0.397805 1.5 0.77937 1.341951 1.06066 1.06066 
C 1.341951 0.77937 1.5 0.397805 1.5 -0 
C 1.5 -0.397805 1.341951 -0.77937 1.06066 -1.06066 
C 0.77937 -1.341951 0.397805 -1.5 0 -1.5 
C -0.397805 -1.5 -0.77937 -1.341951 -1.06066 -1.06066 
C -1.341951 -0.77937 -1.5 -0.397805 -1.5 0 
C -1.5 0.397805 -1.341951 0.77937 -1.06066 1.06066 
C -0.77937 1.341951 -0.397805 1.5 0 1.5 
z
"/>
    </defs>
    <g clip-path="url(#p93d202bee3)">
     <use xlink:href="#Cb_0_0c3cce9d56" x="207.629667" y="49.898352"/>
    </g>
    <g clip-path="url(#p93d202bee3)">
     <use xlink:href="#Cb_0_0c3cce9d56" x="206.769692" y="53.97369"/>
    </g>
    <g clip-path="url(#p93d202bee3)">
     <use xlink:href="#Cb_0_0c3cce9d56" x="207.733875" y="52.258947"/>
    </g>
    <g clip-path="url(#p93d202bee3)">
     <use xlink:href="#Cb_0_0c3cce9d56" x="207.522209" y="66.455435"/>
    </g>
    <g clip-path="url(#p93d202bee3)">
     <use xlink:href="#Cb_0_0c3cce9d56" x="205.270222" y="65.526625"/>
    </g>
   </g>
   <g id="PathCollection_13">
    <defs>
     <path id="Cc_0_fda902cf24" d="M 0 1.5 
C 0.397805 1.5 0.77937 1.341951 1.06066 1.06066 
C 1.341951 0.77937 1.5 0.397805 1.5 -0 
C 1.5 -0.397805 1.341951 -0.77937 1.06066 -1.06066 
C 0.77937 -1.341951 0.397805 -1.5 0 -1.5 
C -0.397805 -1.5 -0.77937 -1.341951 -1.06066 -1.06066 
C -1.341951 -0.77937 -1.5 -0.397805 -1.5 0 
C -1.5 0.397805 -1.341951 0.77937 -1.06066 1.06066 
C -0.77937 1.341951 -0.397805 1.5 0 1.5 
z
"/>
    </defs>
    <g clip-path="url(#p93d202bee3)">
     <use xlink:href="#Cc_0_fda902cf24" x="232.555831" y="141.184091" style="fill: #262626"/>
    </g>
    <g clip-path="url(#p93d202bee3)">
     <use xlink:href="#Cc_0_fda902cf24" x="232.460245" y="141.038215" style="fill: #262626"/>
    </g>
    <g clip-path="url(#p93d202bee3)">
     <use xlink:href="#Cc_0_fda902cf24" x="232.129173" y="141.276354" style="fill: #262626"/>
    </g>
    <g clip-path="url(#p93d202bee3)">
     <use xlink:href="#Cc_0_fda902cf24" x="231.732746" y="141.121655" style="fill: #262626"/>
    </g>
    <g clip-path="url(#p93d202bee3)">
     <use xlink:href="#Cc_0_fda902cf24" x="231.517387" y="140.980876" style="fill: #262626"/>
    </g>
   </g>
   <g id="PathCollection_14">
    <defs>
     <path id="Cd_0_238e2659af" d="M 0 1.5 
C 0.397805 1.5 0.77937 1.341951 1.06066 1.06066 
C 1.341951 0.77937 1.5 0.397805 1.5 -0 
C 1.5 -0.397805 1.341951 -0.77937 1.06066 -1.06066 
C 0.77937 -1.341951 0.397805 -1.5 0 -1.5 
C -0.397805 -1.5 -0.77937 -1.341951 -1.06066 -1.06066 
C -1.341951 -0.77937 -1.5 -0.397805 -1.5 0 
C -1.5 0.397805 -1.341951 0.77937 -1.06066 1.06066 
C -0.77937 1.341951 -0.397805 1.5 0 1.5 
z
"/>
    </defs>
    <g clip-path="url(#p93d202bee3)">
     <use xlink:href="#Cd_0_238e2659af" x="242.745301" y="87.092199" style="fill: #191919"/>
    </g>
    <g clip-path="url(#p93d202bee3)">
     <use xlink:href="#Cd_0_238e2659af" x="244.260777" y="89.213352" style="fill: #191919"/>
    </g>
    <g clip-path="url(#p93d202bee3)">
     <use xlink:href="#Cd_0_238e2659af" x="243.759823" y="87.12531" style="fill: #191919"/>
    </g>
    <g clip-path="url(#p93d202bee3)">
     <use xlink:href="#Cd_0_238e2659af" x="242.265786" y="83.844558" style="fill: #191919"/>
    </g>
    <g clip-path="url(#p93d202bee3)">
     <use xlink:href="#Cd_0_238e2659af" x="243.906471" y="84.730077" style="fill: #191919"/>
    </g>
   </g>
   <g id="PathCollection_15">
    <defs>
     <path id="Ce_0_ae19fb4ee8" d="M 0 1.5 
C 0.397805 1.5 0.77937 1.341951 1.06066 1.06066 
C 1.341951 0.77937 1.5 0.397805 1.5 -0 
C 1.5 -0.397805 1.341951 -0.77937 1.06066 -1.06066 
C 0.77937 -1.341951 0.397805 -1.5 0 -1.5 
C -0.397805 -1.5 -0.77937 -1.341951 -1.06066 -1.06066 
C -1.341951 -0.77937 -1.5 -0.397805 -1.5 0 
C -1.5 0.397805 -1.341951 0.77937 -1.06066 1.06066 
C -0.77937 1.341951 -0.397805 1.5 0 1.5 
z
"/>
    </defs>
    <g clip-path="url(#p93d202bee3)">
     <use xlink:href="#Ce_0_ae19fb4ee8" x="254.833949" y="141.344886" style="fill: #0d0d0d"/>
    </g>
    <g clip-path="url(#p93d202bee3)">
     <use xlink:href="#Ce_0_ae19fb4ee8" x="254.091028" y="141.368847" style="fill: #0d0d0d"/>
    </g>
    <g clip-path="url(#p93d202bee3)">
     <use xlink:href="#Ce_0_ae19fb4ee8" x="256.033954" y="141.062184" style="fill: #0d0d0d"/>
    </g>
    <g clip-path="url(#p93d202bee3)">
     <use xlink:href="#Ce_0_ae19fb4ee8" x="256.632549" y="141.382356" style="fill: #0d0d0d"/>
    </g>
    <g clip-path="url(#p93d202bee3)">
     <use xlink:href="#Ce_0_ae19fb4ee8" x="256.329212" y="141.179417" style="fill: #0d0d0d"/>
    </g>
   </g>
   <g id="PathCollection_16">
    <defs>
     <path id="Cf_0_25156f04af" d="M 0 1.5 
C 0.397805 1.5 0.77937 1.341951 1.06066 1.06066 
C 1.341951 0.77937 1.5 0.397805 1.5 -0 
C 1.5 -0.397805 1.341951 -0.77937 1.06066 -1.06066 
C 0.77937 -1.341951 0.397805 -1.5 0 -1.5 
C -0.397805 -1.5 -0.77937 -1.341951 -1.06066 -1.06066 
C -1.341951 -0.77937 -1.5 -0.397805 -1.5 0 
C -1.5 0.397805 -1.341951 0.77937 -1.06066 1.06066 
C -0.77937 1.341951 -0.397805 1.5 0 1.5 
z
"/>
    </defs>
    <g clip-path="url(#p93d202bee3)">
     <use xlink:href="#Cf_0_25156f04af" x="269.037496" y="82.12876"/>
    </g>
    <g clip-path="url(#p93d202bee3)">
     <use xlink:href="#Cf_0_25156f04af" x="267.473393" y="83.224739"/>
    </g>
    <g clip-path="url(#p93d202bee3)">
     <use xlink:href="#Cf_0_25156f04af" x="268.494617" y="84.540584"/>
    </g>
    <g clip-path="url(#p93d202bee3)">
     <use xlink:href="#Cf_0_25156f04af" x="268.092224" y="81.066856"/>
    </g>
    <g clip-path="url(#p93d202bee3)">
     <use xlink:href="#Cf_0_25156f04af" x="266.694681" y="76.140659"/>
    </g>
   </g>
   <g id="text_13">
    <!-- * -->
    <g transform="translate(259.221118 61.292471) scale(0.1 -0.1)">
     <defs>
      <path id="DejaVuSans-2a" d="M 3009 3897 
L 1888 3291 
L 3009 2681 
L 2828 2375 
L 1778 3009 
L 1778 1831 
L 1422 1831 
L 1422 3009 
L 372 2375 
L 191 2681 
L 1313 3291 
L 191 3897 
L 372 4206 
L 1422 3572 
L 1422 4750 
L 1778 4750 
L 1778 3572 
L 2828 4206 
L 3009 3897 
z
" transform="scale(0.015625)"/>
     </defs>
     <use xlink:href="#DejaVuSans-2a"/>
    </g>
   </g>
   <g id="text_14">
    <!-- yeast -->
    <g transform="translate(141.037812 16.318125) scale(0.12 -0.12)">
     <defs>
      <path id="DejaVuSans-79" d="M 2059 -325 
Q 1816 -950 1584 -1140 
Q 1353 -1331 966 -1331 
L 506 -1331 
L 506 -850 
L 844 -850 
Q 1081 -850 1212 -737 
Q 1344 -625 1503 -206 
L 1606 56 
L 191 3500 
L 800 3500 
L 1894 763 
L 2988 3500 
L 3597 3500 
L 2059 -325 
z
" transform="scale(0.015625)"/>
     </defs>
     <use xlink:href="#DejaVuSans-79"/>
     <use xlink:href="#DejaVuSans-65" x="59.179688"/>
     <use xlink:href="#DejaVuSans-61" x="120.703125"/>
     <use xlink:href="#DejaVuSans-73" x="181.982422"/>
     <use xlink:href="#DejaVuSans-74" x="234.082031"/>
    </g>
   </g>
   <g id="legend_1">
    <g id="patch_27">
     <path d="M 280.99 142.191593 
L 400.79625 142.191593 
Q 402.79625 142.191593 402.79625 140.191593 
L 402.79625 81.922843 
Q 402.79625 79.922843 400.79625 79.922843 
L 280.99 79.922843 
Q 278.99 79.922843 278.99 81.922843 
L 278.99 140.191593 
Q 278.99 142.191593 280.99 142.191593 
z
" style="fill: #ffffff; opacity: 0.8; stroke: #cccccc; stroke-linejoin: miter"/>
    </g>
    <g id="patch_28">
     <path d="M 282.99 91.52128 
L 302.99 91.52128 
L 302.99 84.52128 
L 282.99 84.52128 
z
" style="fill: #3274a1; stroke: #3d3d3d; stroke-width: 0.75; stroke-linejoin: miter"/>
    </g>
    <g id="text_15">
     <!-- proba_weak -->
     <g transform="translate(310.99 91.52128) scale(0.1 -0.1)">
      <defs>
       <path id="DejaVuSans-62" d="M 3116 1747 
Q 3116 2381 2855 2742 
Q 2594 3103 2138 3103 
Q 1681 3103 1420 2742 
Q 1159 2381 1159 1747 
Q 1159 1113 1420 752 
Q 1681 391 2138 391 
Q 2594 391 2855 752 
Q 3116 1113 3116 1747 
z
M 1159 2969 
Q 1341 3281 1617 3432 
Q 1894 3584 2278 3584 
Q 2916 3584 3314 3078 
Q 3713 2572 3713 1747 
Q 3713 922 3314 415 
Q 2916 -91 2278 -91 
Q 1894 -91 1617 61 
Q 1341 213 1159 525 
L 1159 0 
L 581 0 
L 581 4863 
L 1159 4863 
L 1159 2969 
z
" transform="scale(0.015625)"/>
       <path id="DejaVuSans-77" d="M 269 3500 
L 844 3500 
L 1563 769 
L 2278 3500 
L 2956 3500 
L 3675 769 
L 4391 3500 
L 4966 3500 
L 4050 0 
L 3372 0 
L 2619 2869 
L 1863 0 
L 1184 0 
L 269 3500 
z
" transform="scale(0.015625)"/>
       <path id="DejaVuSans-6b" d="M 581 4863 
L 1159 4863 
L 1159 1991 
L 2875 3500 
L 3609 3500 
L 1753 1863 
L 3688 0 
L 2938 0 
L 1159 1709 
L 1159 0 
L 581 0 
L 581 4863 
z
" transform="scale(0.015625)"/>
      </defs>
      <use xlink:href="#DejaVuSans-70"/>
      <use xlink:href="#DejaVuSans-72" x="63.476562"/>
      <use xlink:href="#DejaVuSans-6f" x="102.339844"/>
      <use xlink:href="#DejaVuSans-62" x="163.521484"/>
      <use xlink:href="#DejaVuSans-61" x="226.998047"/>
      <use xlink:href="#DejaVuSans-5f" x="288.277344"/>
      <use xlink:href="#DejaVuSans-77" x="338.277344"/>
      <use xlink:href="#DejaVuSans-65" x="420.064453"/>
      <use xlink:href="#DejaVuSans-61" x="481.587891"/>
      <use xlink:href="#DejaVuSans-6b" x="542.867188"/>
     </g>
    </g>
    <g id="patch_29">
     <path d="M 282.99 106.47753 
L 302.99 106.47753 
L 302.99 99.47753 
L 282.99 99.47753 
z
" style="fill: #e1812c; stroke: #3d3d3d; stroke-width: 0.75; stroke-linejoin: miter"/>
    </g>
    <g id="text_16">
     <!-- embedding_weak -->
     <g transform="translate(310.99 106.47753) scale(0.1 -0.1)">
      <defs>
       <path id="DejaVuSans-67" d="M 2906 1791 
Q 2906 2416 2648 2759 
Q 2391 3103 1925 3103 
Q 1463 3103 1205 2759 
Q 947 2416 947 1791 
Q 947 1169 1205 825 
Q 1463 481 1925 481 
Q 2391 481 2648 825 
Q 2906 1169 2906 1791 
z
M 3481 434 
Q 3481 -459 3084 -895 
Q 2688 -1331 1869 -1331 
Q 1566 -1331 1297 -1286 
Q 1028 -1241 775 -1147 
L 775 -588 
Q 1028 -725 1275 -790 
Q 1522 -856 1778 -856 
Q 2344 -856 2625 -561 
Q 2906 -266 2906 331 
L 2906 616 
Q 2728 306 2450 153 
Q 2172 0 1784 0 
Q 1141 0 747 490 
Q 353 981 353 1791 
Q 353 2603 747 3093 
Q 1141 3584 1784 3584 
Q 2172 3584 2450 3431 
Q 2728 3278 2906 2969 
L 2906 3500 
L 3481 3500 
L 3481 434 
z
" transform="scale(0.015625)"/>
      </defs>
      <use xlink:href="#DejaVuSans-65"/>
      <use xlink:href="#DejaVuSans-6d" x="61.523438"/>
      <use xlink:href="#DejaVuSans-62" x="158.935547"/>
      <use xlink:href="#DejaVuSans-65" x="222.412109"/>
      <use xlink:href="#DejaVuSans-64" x="283.935547"/>
      <use xlink:href="#DejaVuSans-64" x="347.412109"/>
      <use xlink:href="#DejaVuSans-69" x="410.888672"/>
      <use xlink:href="#DejaVuSans-6e" x="438.671875"/>
      <use xlink:href="#DejaVuSans-67" x="502.050781"/>
      <use xlink:href="#DejaVuSans-5f" x="565.527344"/>
      <use xlink:href="#DejaVuSans-77" x="615.527344"/>
      <use xlink:href="#DejaVuSans-65" x="697.314453"/>
      <use xlink:href="#DejaVuSans-61" x="758.837891"/>
      <use xlink:href="#DejaVuSans-6b" x="820.117188"/>
     </g>
    </g>
    <g id="patch_30">
     <path d="M 282.99 121.43378 
L 302.99 121.43378 
L 302.99 114.43378 
L 282.99 114.43378 
z
" style="fill: #3a923a; stroke: #3d3d3d; stroke-width: 0.75; stroke-linejoin: miter"/>
    </g>
    <g id="text_17">
     <!-- proba -->
     <g transform="translate(310.99 121.43378) scale(0.1 -0.1)">
      <use xlink:href="#DejaVuSans-70"/>
      <use xlink:href="#DejaVuSans-72" x="63.476562"/>
      <use xlink:href="#DejaVuSans-6f" x="102.339844"/>
      <use xlink:href="#DejaVuSans-62" x="163.521484"/>
      <use xlink:href="#DejaVuSans-61" x="226.998047"/>
     </g>
    </g>
    <g id="patch_31">
     <path d="M 282.99 136.111905 
L 302.99 136.111905 
L 302.99 129.111905 
L 282.99 129.111905 
z
" style="fill: #c03d3e; stroke: #3d3d3d; stroke-width: 0.75; stroke-linejoin: miter"/>
    </g>
    <g id="text_18">
     <!-- embedding -->
     <g transform="translate(310.99 136.111905) scale(0.1 -0.1)">
      <use xlink:href="#DejaVuSans-65"/>
      <use xlink:href="#DejaVuSans-6d" x="61.523438"/>
      <use xlink:href="#DejaVuSans-62" x="158.935547"/>
      <use xlink:href="#DejaVuSans-65" x="222.412109"/>
      <use xlink:href="#DejaVuSans-64" x="283.935547"/>
      <use xlink:href="#DejaVuSans-64" x="347.412109"/>
      <use xlink:href="#DejaVuSans-69" x="410.888672"/>
      <use xlink:href="#DejaVuSans-6e" x="438.671875"/>
      <use xlink:href="#DejaVuSans-67" x="502.050781"/>
     </g>
    </g>
   </g>
  </g>
 </g>
 <defs>
  <clipPath id="p93d202bee3">
   <rect x="40.88125" y="22.318125" width="233.10875" height="124.873468"/>
  </clipPath>
 </defs>
</svg>
